<?xml version="1.0" encoding="utf-8"?>
<!-- Generator: Adobe Illustrator 26.0.3, SVG Export Plug-In . SVG Version: 6.00 Build 0)  -->
<svg version="1.1" id="Layer_1" xmlns="http://www.w3.org/2000/svg" xmlns:xlink="http://www.w3.org/1999/xlink" x="0px" y="0px"
	 viewBox="0 0 445 499.2" style="enable-background:new 0 0 445 499.2;" xml:space="preserve">
<style type="text/css">
	.st0{fill:#FFFFFF;stroke:#F6F6F6;stroke-width:0.5;}
	.st1{fill:none;}
	.st2{fill:none;stroke:#F6F6F6;stroke-width:0.8;stroke-linejoin:round;}
	.st3{fill:none;stroke:#333333;stroke-width:1.5;stroke-linejoin:round;}
	.st4{fill:none;stroke:#FAFAFA;stroke-linejoin:round;}
	.st5{fill:#333333;stroke:#000000;stroke-linejoin:round;}
	.st6{fill:none;stroke:#E5E5E5;stroke-width:0.8;stroke-linejoin:round;}
	.st7{fill:#5F57DB;stroke:#5F57DB;stroke-width:0.8862;stroke-linejoin:round;}
	.st8{fill:#57DB5F;stroke:#57DB5F;stroke-width:0.8862;stroke-linejoin:round;}
	.st9{fill:#DB5F57;stroke:#DB5F57;stroke-width:0.8862;stroke-linejoin:round;}
	.st10{fill:none;stroke:#F6F6F6;stroke-miterlimit:10;}
	.st11{fill:#F2F2F2;stroke:#CCCCCC;}
	.st12{fill:none;stroke:#1F77B4;stroke-width:1.5;stroke-linecap:square;stroke-linejoin:round;}
	.st13{fill:#350E00;stroke:#000000;stroke-miterlimit:10;}
	.st14{fill:none;stroke:#000000;stroke-miterlimit:10;}
	.st15{font-family:'ArialMT';}
	.st16{font-size:15.1437px;}
	.st17{font-size:10.7429px;}
	.st18{font-size:8.6319px;}
	.st19{font-size:8.9718px;}
	.st20{font-size:12.2142px;}
	.st21{font-size:8.7244px;}
	.st22{fill:#350E00;stroke:#000000;stroke-width:0.6;stroke-miterlimit:10;}
	.st23{fill:none;stroke:#000000;stroke-width:0.6;stroke-miterlimit:10;}
	.st24{font-family:'Arial-BoldMT';}
	.st25{font-size:8.63px;}
</style>
<path class="st0" d="M-940.3-328.4h542.9v-389.2h-542.9V-328.4z"/>
<rect x="-940.3" y="-728.2" class="st1" width="542.9" height="389.2"/>
<path class="st2" d="M-917.1-328.4v-389.2"/>
<path class="st3" d="M-917.1-339"/>
<rect x="-940.3" y="-728.2" class="st1" width="542.9" height="389.2"/>
<path class="st2" d="M-764.3-328.4v-389.2"/>
<path class="st3" d="M-764.3-339"/>
<rect x="-940.3" y="-728.2" class="st1" width="542.9" height="389.2"/>
<path class="st2" d="M-611.6-328.4v-389.2"/>
<path class="st3" d="M-611.6-339"/>
<rect x="-940.3" y="-728.2" class="st1" width="542.9" height="389.2"/>
<path class="st2" d="M-458.8-328.4v-389.2"/>
<path class="st3" d="M-458.8-339"/>
<rect x="-940.3" y="-728.2" class="st1" width="542.9" height="389.2"/>
<path class="st4" d="M-840.7-328.4v-389.2"/>
<rect x="-940.3" y="-728.2" class="st1" width="542.9" height="389.2"/>
<path class="st4" d="M-687.9-328.4v-389.2"/>
<rect x="-940.3" y="-728.2" class="st1" width="542.9" height="389.2"/>
<path class="st4" d="M-535.2-328.4v-389.2"/>
<path id="DejaVuSans-20" d="M-701.8-329.2"/>
<rect x="-940.3" y="-728.2" class="st1" width="542.9" height="389.2"/>
<path class="st2" d="M-940.3-354.3h542.9"/>
<path class="st3" d="M-940.3-354.3"/>
<path id="m45ff499579_00000047029177907017221770000003377385111689799073_" class="st5" d="M-944.5-354.3"/>
<path id="m45ff499579_00000080165583897627417780000018247797094837383298_" class="st5" d="M-940.3-354.3"/>
<rect x="-940.3" y="-728.2" class="st1" width="542.9" height="389.2"/>
<path class="st2" d="M-940.3-427h542.9"/>
<path class="st3" d="M-940.3-427"/>
<rect x="-940.3" y="-728.2" class="st1" width="542.9" height="389.2"/>
<path class="st2" d="M-940.3-499.6h542.9"/>
<path class="st3" d="M-940.3-499.6"/>
<rect x="-940.3" y="-728.2" class="st1" width="542.9" height="389.2"/>
<path class="st2" d="M-940.3-572.3h542.9"/>
<path class="st3" d="M-940.3-572.3"/>
<rect x="-940.3" y="-728.2" class="st1" width="542.9" height="389.2"/>
<path class="st2" d="M-940.3-644.9h542.9"/>
<path class="st3" d="M-940.3-644.9"/>
<rect x="-940.3" y="-728.2" class="st1" width="542.9" height="389.2"/>
<path class="st6" d="M-940.3-717.6h542.9"/>
<path class="st3" d="M-940.3-717.6"/>
<rect x="-940.3" y="-728.2" class="st1" width="542.9" height="389.2"/>
<path class="st4" d="M-940.3-390.6h542.9"/>
<rect x="-940.3" y="-728.2" class="st1" width="542.9" height="389.2"/>
<path class="st4" d="M-940.3-463.3h542.9"/>
<rect x="-940.3" y="-728.2" class="st1" width="542.9" height="389.2"/>
<path class="st4" d="M-940.3-535.9h542.9"/>
<rect x="-940.3" y="-728.2" class="st1" width="542.9" height="389.2"/>
<path class="st4" d="M-940.3-608.6h542.9"/>
<rect x="-940.3" y="-728.2" class="st1" width="542.9" height="389.2"/>
<path class="st4" d="M-940.3-681.2h542.9"/>
<path id="DejaVuSans-20_00000075883439204126166890000017876621728478227861_" d="M-982.1-516.7"/>
<path id="DejaVuSans-20_00000088824318920458624310000013911966657751328695_" d="M-982.1-567.1"/>
<rect x="-940.3" y="-728.2" class="st1" width="542.9" height="389.2"/>
<path class="st7" d="M-882.1-366.8c0.7,0,1.4-0.3,1.9-0.8c0.5-0.5,0.8-1.1,0.8-1.8s-0.3-1.3-0.8-1.8c-0.5-0.5-1.2-0.8-1.9-0.8
	s-1.4,0.3-1.9,0.8c-0.5,0.5-0.8,1.1-0.8,1.8s0.3,1.3,0.8,1.8C-883.5-367.1-882.8-366.8-882.1-366.8z"/>
<rect x="-940.3" y="-728.2" class="st1" width="542.9" height="389.2"/>
<path class="st8" d="M-877.7-444.8c0.7,0,1.4-0.3,1.9-0.8c0.5-0.5,0.8-1.1,0.8-1.8c0-0.7-0.3-1.3-0.8-1.8c-0.5-0.5-1.2-0.8-1.9-0.8
	s-1.4,0.3-1.9,0.8c-0.5,0.5-0.8,1.1-0.8,1.8c0,0.7,0.3,1.3,0.8,1.8C-879.1-445.1-878.4-444.8-877.7-444.8z"/>
<rect x="-940.3" y="-728.2" class="st1" width="542.9" height="389.2"/>
<path class="st7" d="M-860.4-381.1c0.7,0,1.4-0.3,1.9-0.8c0.5-0.5,0.8-1.1,0.8-1.8c0-0.7-0.3-1.3-0.8-1.8c-0.5-0.5-1.2-0.8-1.9-0.8
	c-0.7,0-1.4,0.3-1.9,0.8c-0.5,0.5-0.8,1.1-0.8,1.8c0,0.7,0.3,1.3,0.8,1.8C-861.8-381.4-861.1-381.1-860.4-381.1z"/>
<rect x="-940.3" y="-728.2" class="st1" width="542.9" height="389.2"/>
<path class="st7" d="M-874.4-375c0.7,0,1.4-0.3,1.9-0.8c0.5-0.5,0.8-1.1,0.8-1.8s-0.3-1.3-0.8-1.8c-0.5-0.5-1.2-0.8-1.9-0.8
	c-0.7,0-1.4,0.3-1.9,0.8c-0.5,0.5-0.8,1.1-0.8,1.8s0.3,1.3,0.8,1.8C-875.8-375.2-875.1-375-874.4-375z"/>
<rect x="-940.3" y="-728.2" class="st1" width="542.9" height="389.2"/>
<path class="st7" d="M-885.4-366.8c0.7,0,1.4-0.3,1.9-0.8c0.5-0.5,0.8-1.1,0.8-1.8s-0.3-1.3-0.8-1.8c-0.5-0.5-1.2-0.8-1.9-0.8
	c-0.7,0-1.4,0.3-1.9,0.8c-0.5,0.5-0.8,1.1-0.8,1.8s0.3,1.3,0.8,1.8C-886.8-367.1-886.1-366.8-885.4-366.8z"/>
<rect x="-940.3" y="-728.2" class="st1" width="542.9" height="389.2"/>
<path class="st7" d="M-422.1-707.9c0.7,0,1.4-0.3,1.9-0.8c0.5-0.5,0.8-1.1,0.8-1.8s-0.3-1.3-0.8-1.8c-0.5-0.5-1.2-0.8-1.9-0.8
	c-0.7,0-1.4,0.3-1.9,0.8c-0.5,0.5-0.8,1.1-0.8,1.8s0.3,1.3,0.8,1.8C-423.5-708.2-422.8-707.9-422.1-707.9z"/>
<rect x="-940.3" y="-728.2" class="st1" width="542.9" height="389.2"/>
<path class="st7" d="M-878.2-386.6c0.7,0,1.4-0.3,1.9-0.8c0.5-0.5,0.8-1.1,0.8-1.8c0-0.7-0.3-1.3-0.8-1.8c-0.5-0.5-1.2-0.8-1.9-0.8
	s-1.4,0.3-1.9,0.8c-0.5,0.5-0.8,1.1-0.8,1.8c0,0.7,0.3,1.3,0.8,1.8C-879.6-386.9-878.9-386.6-878.2-386.6z"/>
<rect x="-940.3" y="-728.2" class="st1" width="542.9" height="389.2"/>
<path class="st7" d="M-866-392.6c0.7,0,1.4-0.3,1.9-0.8c0.5-0.5,0.8-1.1,0.8-1.8s-0.3-1.3-0.8-1.8c-0.5-0.5-1.2-0.8-1.9-0.8
	c-0.7,0-1.4,0.3-1.9,0.8c-0.5,0.5-0.8,1.1-0.8,1.8s0.3,1.3,0.8,1.8C-867.4-392.9-866.7-392.6-866-392.6z"/>
<rect x="-940.3" y="-728.2" class="st1" width="542.9" height="389.2"/>
<path class="st7" d="M-891.7-372.4c0.7,0,1.4-0.3,1.9-0.8c0.5-0.5,0.8-1.1,0.8-1.8c0-0.7-0.3-1.3-0.8-1.8c-0.5-0.5-1.2-0.8-1.9-0.8
	c-0.7,0-1.4,0.3-1.9,0.8c-0.5,0.5-0.8,1.1-0.8,1.8c0,0.7,0.3,1.3,0.8,1.8C-893.1-372.7-892.4-372.4-891.7-372.4z"/>
<rect x="-940.3" y="-728.2" class="st1" width="542.9" height="389.2"/>
<path class="st7" d="M-889.8-377.8c0.7,0,1.4-0.3,1.9-0.8c0.5-0.5,0.8-1.1,0.8-1.8c0-0.7-0.3-1.3-0.8-1.8c-0.5-0.5-1.2-0.8-1.9-0.8
	s-1.4,0.3-1.9,0.8c-0.5,0.5-0.8,1.1-0.8,1.8c0,0.7,0.3,1.3,0.8,1.8C-891.2-378.1-890.5-377.8-889.8-377.8z"/>
<rect x="-940.3" y="-728.2" class="st1" width="542.9" height="389.2"/>
<path class="st7" d="M-882.5-384.8c0.7,0,1.4-0.3,1.9-0.8c0.5-0.5,0.8-1.1,0.8-1.8c0-0.7-0.3-1.3-0.8-1.8c-0.5-0.5-1.2-0.8-1.9-0.8
	s-1.4,0.3-1.9,0.8c-0.5,0.5-0.8,1.1-0.8,1.8c0,0.7,0.3,1.3,0.8,1.8C-883.9-385.1-883.2-384.8-882.5-384.8z"/>
<rect x="-940.3" y="-728.2" class="st1" width="542.9" height="389.2"/>
<path class="st7" d="M-887.5-379.7c0.7,0,1.4-0.3,1.9-0.8c0.5-0.5,0.8-1.1,0.8-1.8s-0.3-1.3-0.8-1.8c-0.5-0.5-1.2-0.8-1.9-0.8
	s-1.4,0.3-1.9,0.8c-0.5,0.5-0.8,1.1-0.8,1.8s0.3,1.3,0.8,1.8C-888.9-380-888.2-379.7-887.5-379.7z"/>
<rect x="-940.3" y="-728.2" class="st1" width="542.9" height="389.2"/>
<path class="st7" d="M-886.4-385.5c0.7,0,1.4-0.3,1.9-0.8s0.8-1.1,0.8-1.8s-0.3-1.3-0.8-1.8c-0.5-0.5-1.2-0.8-1.9-0.8
	s-1.4,0.3-1.9,0.8c-0.5,0.5-0.8,1.1-0.8,1.8s0.3,1.3,0.8,1.8C-887.8-385.8-887.2-385.5-886.4-385.5z"/>
<rect x="-940.3" y="-728.2" class="st1" width="542.9" height="389.2"/>
<path class="st7" d="M-907.6-359.9c0.7,0,1.4-0.3,1.9-0.8c0.5-0.5,0.8-1.1,0.8-1.8s-0.3-1.3-0.8-1.8c-0.5-0.5-1.2-0.8-1.9-0.8
	s-1.4,0.3-1.9,0.8c-0.5,0.5-0.8,1.1-0.8,1.8s0.3,1.3,0.8,1.8S-908.3-359.9-907.6-359.9z"/>
<rect x="-940.3" y="-728.2" class="st1" width="542.9" height="389.2"/>
<path class="st7" d="M-897.1-374.5c0.7,0,1.4-0.3,1.9-0.8c0.5-0.5,0.8-1.1,0.8-1.8s-0.3-1.3-0.8-1.8c-0.5-0.5-1.2-0.8-1.9-0.8
	c-0.7,0-1.4,0.3-1.9,0.8c-0.5,0.5-0.8,1.1-0.8,1.8s0.3,1.3,0.8,1.8C-898.5-374.8-897.8-374.5-897.1-374.5z"/>
<rect x="-940.3" y="-728.2" class="st1" width="542.9" height="389.2"/>
<path class="st7" d="M-903.1-365.1c0.7,0,1.4-0.3,1.9-0.8c0.5-0.5,0.8-1.1,0.8-1.8s-0.3-1.3-0.8-1.8c-0.5-0.5-1.2-0.8-1.9-0.8
	c-0.7,0-1.4,0.3-1.9,0.8c-0.5,0.5-0.8,1.1-0.8,1.8s0.3,1.3,0.8,1.8C-904.5-365.4-903.9-365.1-903.1-365.1z"/>
<rect x="-940.3" y="-728.2" class="st1" width="542.9" height="389.2"/>
<path class="st7" d="M-913.5-354.1c0.7,0,1.4-0.3,1.9-0.8c0.5-0.5,0.8-1.1,0.8-1.8s-0.3-1.3-0.8-1.8c-0.5-0.5-1.2-0.8-1.9-0.8
	c-0.7,0-1.4,0.3-1.9,0.8c-0.5,0.5-0.8,1.1-0.8,1.8s0.3,1.3,0.8,1.8C-914.9-354.4-914.2-354.1-913.5-354.1z"/>
<rect x="-940.3" y="-728.2" class="st1" width="542.9" height="389.2"/>
<path class="st7" d="M-915.3-354.8c0.7,0,1.4-0.3,1.9-0.8c0.5-0.5,0.8-1.1,0.8-1.8s-0.3-1.3-0.8-1.8c-0.5-0.5-1.2-0.8-1.9-0.8
	c-0.7,0-1.4,0.3-1.9,0.8c-0.5,0.5-0.8,1.1-0.8,1.8s0.3,1.3,0.8,1.8C-916.7-355.1-916-354.8-915.3-354.8z"/>
<rect x="-940.3" y="-728.2" class="st1" width="542.9" height="389.2"/>
<path class="st7" d="M-913.3-354.9c0.7,0,1.4-0.3,1.9-0.8c0.5-0.5,0.8-1.1,0.8-1.8s-0.3-1.3-0.8-1.8c-0.5-0.5-1.2-0.8-1.9-0.8
	c-0.7,0-1.4,0.3-1.9,0.8c-0.5,0.5-0.8,1.1-0.8,1.8s0.3,1.3,0.8,1.8C-914.7-355.2-914-354.9-913.3-354.9z"/>
<rect x="-940.3" y="-728.2" class="st1" width="542.9" height="389.2"/>
<path class="st9" d="M-906.6-361.1c0.7,0,1.4-0.3,1.9-0.8c0.5-0.5,0.8-1.1,0.8-1.8s-0.3-1.3-0.8-1.8c-0.5-0.5-1.2-0.8-1.9-0.8
	c-0.7,0-1.4,0.3-1.9,0.8c-0.5,0.5-0.8,1.1-0.8,1.8s0.3,1.3,0.8,1.8C-908-361.4-907.3-361.1-906.6-361.1z"/>
<rect x="-940.3" y="-728.2" class="st1" width="542.9" height="389.2"/>
<path class="st7" d="M-806.8-422.6c0.7,0,1.4-0.3,1.9-0.8c0.5-0.5,0.8-1.1,0.8-1.8s-0.3-1.3-0.8-1.8c-0.5-0.5-1.2-0.8-1.9-0.8
	c-0.7,0-1.4,0.3-1.9,0.8c-0.5,0.5-0.8,1.1-0.8,1.8s0.3,1.3,0.8,1.8C-808.2-422.9-807.5-422.6-806.8-422.6z"/>
<rect x="-940.3" y="-728.2" class="st1" width="542.9" height="389.2"/>
<path class="st7" d="M-848.7-387.9c0.7,0,1.4-0.3,1.9-0.8c0.5-0.5,0.8-1.1,0.8-1.8s-0.3-1.3-0.8-1.8c-0.5-0.5-1.2-0.8-1.9-0.8
	c-0.7,0-1.4,0.3-1.9,0.8c-0.5,0.5-0.8,1.1-0.8,1.8s0.3,1.3,0.8,1.8C-850.1-388.2-849.4-387.9-848.7-387.9z"/>
<rect x="-940.3" y="-728.2" class="st1" width="542.9" height="389.2"/>
<path class="st7" d="M-840.8-410.8c0.7,0,1.4-0.3,1.9-0.8c0.5-0.5,0.8-1.1,0.8-1.8c0-0.7-0.3-1.3-0.8-1.8c-0.5-0.5-1.2-0.8-1.9-0.8
	c-0.7,0-1.4,0.3-1.9,0.8c-0.5,0.5-0.8,1.1-0.8,1.8c0,0.7,0.3,1.3,0.8,1.8C-842.2-411.1-841.5-410.8-840.8-410.8z"/>
<rect x="-940.3" y="-728.2" class="st1" width="542.9" height="389.2"/>
<path class="st7" d="M-859.2-389.4c0.7,0,1.4-0.3,1.9-0.8c0.5-0.5,0.8-1.1,0.8-1.8c0-0.7-0.3-1.3-0.8-1.8s-1.2-0.8-1.9-0.8
	s-1.4,0.3-1.9,0.8c-0.5,0.5-0.8,1.1-0.8,1.8c0,0.7,0.3,1.3,0.8,1.8C-860.6-389.7-859.9-389.4-859.2-389.4z"/>
<rect x="-940.3" y="-728.2" class="st1" width="542.9" height="389.2"/>
<path class="st7" d="M-849.6-409.5c0.7,0,1.4-0.3,1.9-0.8c0.5-0.5,0.8-1.1,0.8-1.8s-0.3-1.3-0.8-1.8c-0.5-0.5-1.2-0.8-1.9-0.8
	c-0.7,0-1.4,0.3-1.9,0.8c-0.5,0.5-0.8,1.1-0.8,1.8s0.3,1.3,0.8,1.8C-851-409.8-850.3-409.5-849.6-409.5z"/>
<rect x="-940.3" y="-728.2" class="st1" width="542.9" height="389.2"/>
<path class="st7" d="M-850.5-387.5c0.7,0,1.4-0.3,1.9-0.8c0.5-0.5,0.8-1.1,0.8-1.8c0-0.7-0.3-1.3-0.8-1.8c-0.5-0.5-1.2-0.8-1.9-0.8
	s-1.4,0.3-1.9,0.8c-0.5,0.5-0.8,1.1-0.8,1.8c0,0.7,0.3,1.3,0.8,1.8C-851.9-387.8-851.2-387.5-850.5-387.5z"/>
<rect x="-940.3" y="-728.2" class="st1" width="542.9" height="389.2"/>
<path class="st7" d="M-825.3-423.2c0.7,0,1.4-0.3,1.9-0.8s0.8-1.1,0.8-1.8s-0.3-1.3-0.8-1.8s-1.2-0.8-1.9-0.8
	c-0.7,0-1.4,0.3-1.9,0.8c-0.5,0.5-0.8,1.1-0.8,1.8s0.3,1.3,0.8,1.8C-826.7-423.5-826-423.2-825.3-423.2z"/>
<rect x="-940.3" y="-728.2" class="st1" width="542.9" height="389.2"/>
<path class="st7" d="M-793.1-431.1c0.7,0,1.4-0.3,1.9-0.8c0.5-0.5,0.8-1.1,0.8-1.8s-0.3-1.3-0.8-1.8c-0.5-0.5-1.2-0.8-1.9-0.8
	s-1.4,0.3-1.9,0.8s-0.8,1.1-0.8,1.8s0.3,1.3,0.8,1.8C-794.5-431.4-793.8-431.1-793.1-431.1z"/>
<rect x="-940.3" y="-728.2" class="st1" width="542.9" height="389.2"/>
<path class="st7" d="M-893.9-364.1c0.7,0,1.4-0.3,1.9-0.8c0.5-0.5,0.8-1.1,0.8-1.8c0-0.7-0.3-1.3-0.8-1.8c-0.5-0.5-1.2-0.8-1.9-0.8
	c-0.7,0-1.4,0.3-1.9,0.8c-0.5,0.5-0.8,1.1-0.8,1.8c0,0.7,0.3,1.3,0.8,1.8C-895.3-364.4-894.6-364.1-893.9-364.1z"/>
<rect x="-940.3" y="-728.2" class="st1" width="542.9" height="389.2"/>
<path class="st7" d="M-848.4-409.2c0.7,0,1.4-0.3,1.9-0.8c0.5-0.5,0.8-1.1,0.8-1.8s-0.3-1.3-0.8-1.8c-0.5-0.5-1.2-0.8-1.9-0.8
	c-0.7,0-1.4,0.3-1.9,0.8c-0.5,0.5-0.8,1.1-0.8,1.8s0.3,1.3,0.8,1.8C-849.8-409.5-849.1-409.2-848.4-409.2z"/>
<rect x="-940.3" y="-728.2" class="st1" width="542.9" height="389.2"/>
<path class="st7" d="M-849.1-390.7c0.7,0,1.4-0.3,1.9-0.8c0.5-0.5,0.8-1.1,0.8-1.8s-0.3-1.3-0.8-1.8c-0.5-0.5-1.2-0.8-1.9-0.8
	s-1.4,0.3-1.9,0.8c-0.5,0.5-0.8,1.1-0.8,1.8s0.3,1.3,0.8,1.8C-850.5-391-849.9-390.7-849.1-390.7z"/>
<rect x="-940.3" y="-728.2" class="st1" width="542.9" height="389.2"/>
<path class="st7" d="M-873.4-390.9c0.7,0,1.4-0.3,1.9-0.8c0.5-0.5,0.8-1.1,0.8-1.8s-0.3-1.3-0.8-1.8s-1.2-0.8-1.9-0.8
	s-1.4,0.3-1.9,0.8c-0.5,0.5-0.8,1.1-0.8,1.8s0.3,1.3,0.8,1.8C-874.8-391.1-874.1-390.9-873.4-390.9z"/>
<rect x="-940.3" y="-728.2" class="st1" width="542.9" height="389.2"/>
<path class="st7" d="M-857-417.1c0.7,0,1.4-0.3,1.9-0.8c0.5-0.5,0.8-1.1,0.8-1.8s-0.3-1.3-0.8-1.8c-0.5-0.5-1.2-0.8-1.9-0.8
	s-1.4,0.3-1.9,0.8s-0.8,1.1-0.8,1.8s0.3,1.3,0.8,1.8S-857.7-417.1-857-417.1z"/>
<rect x="-940.3" y="-728.2" class="st1" width="542.9" height="389.2"/>
<path class="st7" d="M-876.7-379.5c0.7,0,1.4-0.3,1.9-0.8c0.5-0.5,0.8-1.1,0.8-1.8s-0.3-1.3-0.8-1.8c-0.5-0.5-1.2-0.8-1.9-0.8
	s-1.4,0.3-1.9,0.8c-0.5,0.5-0.8,1.1-0.8,1.8s0.3,1.3,0.8,1.8C-878.1-379.8-877.4-379.5-876.7-379.5z"/>
<rect x="-940.3" y="-728.2" class="st1" width="542.9" height="389.2"/>
<path class="st7" d="M-906.6-361.2c0.7,0,1.4-0.3,1.9-0.8c0.5-0.5,0.8-1.1,0.8-1.8s-0.3-1.3-0.8-1.8s-1.2-0.8-1.9-0.8
	s-1.4,0.3-1.9,0.8s-0.8,1.1-0.8,1.8s0.3,1.3,0.8,1.8C-908-361.4-907.3-361.2-906.6-361.2z"/>
<rect x="-940.3" y="-728.2" class="st1" width="542.9" height="389.2"/>
<path class="st7" d="M-869.8-402.4c0.7,0,1.4-0.3,1.9-0.8c0.5-0.5,0.8-1.1,0.8-1.8s-0.3-1.3-0.8-1.8c-0.5-0.5-1.2-0.8-1.9-0.8
	s-1.4,0.3-1.9,0.8c-0.5,0.5-0.8,1.1-0.8,1.8s0.3,1.3,0.8,1.8C-871.2-402.7-870.5-402.4-869.8-402.4z"/>
<rect x="-940.3" y="-728.2" class="st1" width="542.9" height="389.2"/>
<path class="st7" d="M-847.8-417.6c0.7,0,1.4-0.3,1.9-0.8c0.5-0.5,0.8-1.1,0.8-1.8c0-0.7-0.3-1.3-0.8-1.8c-0.5-0.5-1.2-0.8-1.9-0.8
	c-0.7,0-1.4,0.3-1.9,0.8c-0.5,0.5-0.8,1.1-0.8,1.8c0,0.7,0.3,1.3,0.8,1.8C-849.2-417.9-848.5-417.6-847.8-417.6z"/>
<rect x="-940.3" y="-728.2" class="st1" width="542.9" height="389.2"/>
<path class="st7" d="M-870.4-383.2c0.7,0,1.4-0.3,1.9-0.8c0.5-0.5,0.8-1.1,0.8-1.8s-0.3-1.3-0.8-1.8c-0.5-0.5-1.2-0.8-1.9-0.8
	c-0.7,0-1.4,0.3-1.9,0.8c-0.5,0.5-0.8,1.1-0.8,1.8s0.3,1.3,0.8,1.8C-871.8-383.5-871.1-383.2-870.4-383.2z"/>
<rect x="-940.3" y="-728.2" class="st1" width="542.9" height="389.2"/>
<path class="st7" d="M-883-390c0.7,0,1.4-0.3,1.9-0.8c0.5-0.5,0.8-1.1,0.8-1.8c0-0.7-0.3-1.3-0.8-1.8c-0.5-0.5-1.2-0.8-1.9-0.8
	c-0.7,0-1.4,0.3-1.9,0.8c-0.5,0.5-0.8,1.1-0.8,1.8c0,0.7,0.3,1.3,0.8,1.8C-884.4-390.3-883.7-390-883-390z"/>
<rect x="-940.3" y="-728.2" class="st1" width="542.9" height="389.2"/>
<path class="st7" d="M-899.6-366.6c0.7,0,1.4-0.3,1.9-0.8c0.5-0.5,0.8-1.1,0.8-1.8s-0.3-1.3-0.8-1.8c-0.5-0.5-1.2-0.8-1.9-0.8
	c-0.7,0-1.4,0.3-1.9,0.8c-0.5,0.5-0.8,1.1-0.8,1.8s0.3,1.3,0.8,1.8C-901-366.8-900.3-366.6-899.6-366.6z"/>
<rect x="-940.3" y="-728.2" class="st1" width="542.9" height="389.2"/>
<path class="st7" d="M-893.9-368.9c0.7,0,1.4-0.3,1.9-0.8c0.5-0.5,0.8-1.1,0.8-1.8s-0.3-1.3-0.8-1.8c-0.5-0.5-1.2-0.8-1.9-0.8
	c-0.7,0-1.4,0.3-1.9,0.8c-0.5,0.5-0.8,1.1-0.8,1.8s0.3,1.3,0.8,1.8C-895.3-369.1-894.6-368.9-893.9-368.9z"/>
<rect x="-940.3" y="-728.2" class="st1" width="542.9" height="389.2"/>
<path class="st7" d="M-896.4-371.2c0.7,0,1.4-0.3,1.9-0.8c0.5-0.5,0.8-1.1,0.8-1.8c0-0.7-0.3-1.3-0.8-1.8c-0.5-0.5-1.2-0.8-1.9-0.8
	c-0.7,0-1.4,0.3-1.9,0.8c-0.5,0.5-0.8,1.1-0.8,1.8c0,0.7,0.3,1.3,0.8,1.8C-897.8-371.5-897.1-371.2-896.4-371.2z"/>
<rect x="-940.3" y="-728.2" class="st1" width="542.9" height="389.2"/>
<path class="st7" d="M-880.9-389.6c0.7,0,1.4-0.3,1.9-0.8c0.5-0.5,0.8-1.1,0.8-1.8s-0.3-1.3-0.8-1.8c-0.5-0.5-1.2-0.8-1.9-0.8
	s-1.4,0.3-1.9,0.8s-0.8,1.1-0.8,1.8s0.3,1.3,0.8,1.8C-882.3-389.9-881.7-389.6-880.9-389.6z"/>
<rect x="-940.3" y="-728.2" class="st1" width="542.9" height="389.2"/>
<path class="st7" d="M-908.7-359.3c0.7,0,1.4-0.3,1.9-0.8c0.5-0.5,0.8-1.1,0.8-1.8s-0.3-1.3-0.8-1.8c-0.5-0.5-1.2-0.8-1.9-0.8
	c-0.7,0-1.4,0.3-1.9,0.8c-0.5,0.5-0.8,1.1-0.8,1.8s0.3,1.3,0.8,1.8C-910.1-359.5-909.4-359.3-908.7-359.3z"/>
<rect x="-940.3" y="-728.2" class="st1" width="542.9" height="389.2"/>
<path class="st7" d="M-901.3-371.5c0.7,0,1.4-0.3,1.9-0.8c0.5-0.5,0.8-1.1,0.8-1.8c0-0.7-0.3-1.3-0.8-1.8c-0.5-0.5-1.2-0.8-1.9-0.8
	c-0.7,0-1.4,0.3-1.9,0.8c-0.5,0.5-0.8,1.1-0.8,1.8c0,0.7,0.3,1.3,0.8,1.8C-902.7-371.7-902-371.5-901.3-371.5z"/>
<rect x="-940.3" y="-728.2" class="st1" width="542.9" height="389.2"/>
<path class="st7" d="M-881.8-385.3c0.7,0,1.4-0.3,1.9-0.8c0.5-0.5,0.8-1.1,0.8-1.8s-0.3-1.3-0.8-1.8c-0.5-0.5-1.2-0.8-1.9-0.8
	c-0.7,0-1.4,0.3-1.9,0.8c-0.5,0.5-0.8,1.1-0.8,1.8s0.3,1.3,0.8,1.8C-883.2-385.6-882.5-385.3-881.8-385.3z"/>
<rect x="-940.3" y="-728.2" class="st1" width="542.9" height="389.2"/>
<path class="st7" d="M-877.6-398.8c0.7,0,1.4-0.3,1.9-0.8s0.8-1.1,0.8-1.8c0-0.7-0.3-1.3-0.8-1.8s-1.2-0.8-1.9-0.8s-1.4,0.3-1.9,0.8
	s-0.8,1.1-0.8,1.8c0,0.7,0.3,1.3,0.8,1.8S-878.3-398.8-877.6-398.8z"/>
<rect x="-940.3" y="-728.2" class="st1" width="542.9" height="389.2"/>
<path class="st7" d="M-898.8-365.5c0.7,0,1.4-0.3,1.9-0.8c0.5-0.5,0.8-1.1,0.8-1.8s-0.3-1.3-0.8-1.8c-0.5-0.5-1.2-0.8-1.9-0.8
	c-0.7,0-1.4,0.3-1.9,0.8c-0.5,0.5-0.8,1.1-0.8,1.8s0.3,1.3,0.8,1.8C-900.2-365.8-899.5-365.5-898.8-365.5z"/>
<rect x="-940.3" y="-728.2" class="st1" width="542.9" height="389.2"/>
<path class="st7" d="M-904.5-360.1c0.7,0,1.4-0.3,1.9-0.8c0.5-0.5,0.8-1.1,0.8-1.8s-0.3-1.3-0.8-1.8c-0.5-0.5-1.2-0.8-1.9-0.8
	c-0.7,0-1.4,0.3-1.9,0.8c-0.5,0.5-0.8,1.1-0.8,1.8s0.3,1.3,0.8,1.8C-905.9-360.3-905.3-360.1-904.5-360.1z"/>
<rect x="-940.3" y="-728.2" class="st1" width="542.9" height="389.2"/>
<path class="st7" d="M-889.2-370.1c0.7,0,1.4-0.3,1.9-0.8c0.5-0.5,0.8-1.1,0.8-1.8s-0.3-1.3-0.8-1.8c-0.5-0.5-1.2-0.8-1.9-0.8
	c-0.7,0-1.4,0.3-1.9,0.8c-0.5,0.5-0.8,1.1-0.8,1.8s0.3,1.3,0.8,1.8C-890.6-370.4-890-370.1-889.2-370.1z"/>
<rect x="-940.3" y="-728.2" class="st1" width="542.9" height="389.2"/>
<path class="st7" d="M-884.9-387.1c0.7,0,1.4-0.3,1.9-0.8c0.5-0.5,0.8-1.1,0.8-1.8s-0.3-1.3-0.8-1.8c-0.5-0.5-1.2-0.8-1.9-0.8
	c-0.7,0-1.4,0.3-1.9,0.8c-0.5,0.5-0.8,1.1-0.8,1.8s0.3,1.3,0.8,1.8C-886.3-387.4-885.6-387.1-884.9-387.1z"/>
<path class="st7" d="M-906-360.5c0.7,0,1.4-0.3,1.9-0.8c0.5-0.5,0.8-1.1,0.8-1.8s-0.3-1.3-0.8-1.8c-0.5-0.5-1.2-0.8-1.9-0.8
	s-1.4,0.3-1.9,0.8c-0.5,0.5-0.8,1.1-0.8,1.8s0.3,1.3,0.8,1.8C-907.4-360.7-906.7-360.5-906-360.5z"/>
<path class="st7" d="M-906.8-360.8c0.7,0,1.4-0.3,1.9-0.8c0.5-0.5,0.8-1.1,0.8-1.8s-0.3-1.3-0.8-1.8c-0.5-0.5-1.2-0.8-1.9-0.8
	c-0.7,0-1.4,0.3-1.9,0.8c-0.5,0.5-0.8,1.1-0.8,1.8s0.3,1.3,0.8,1.8C-908.2-361.1-907.5-360.8-906.8-360.8z"/>
<path class="st7" d="M-905.2-361.4c0.7,0,1.4-0.3,1.9-0.8c0.5-0.5,0.8-1.1,0.8-1.8s-0.3-1.3-0.8-1.8c-0.5-0.5-1.2-0.8-1.9-0.8
	s-1.4,0.3-1.9,0.8c-0.5,0.5-0.8,1.1-0.8,1.8s0.3,1.3,0.8,1.8C-906.6-361.6-905.9-361.4-905.2-361.4z"/>
<path class="st7" d="M-906-363c0.7,0,1.4-0.3,1.9-0.8c0.5-0.5,0.8-1.1,0.8-1.8s-0.3-1.3-0.8-1.8c-0.5-0.5-1.2-0.8-1.9-0.8
	c-0.7,0-1.4,0.3-1.9,0.8c-0.5,0.5-0.8,1.1-0.8,1.8s0.3,1.3,0.8,1.8C-907.4-363.3-906.7-363-906-363z"/>
<rect x="-939" y="-719.2" class="st1" width="542.9" height="389.2"/>
<path class="st7" d="M-906.1-362.9c0.7,0,1.4-0.3,1.9-0.8c0.5-0.5,0.8-1.1,0.8-1.8s-0.3-1.3-0.8-1.8c-0.5-0.5-1.2-0.8-1.9-0.8
	c-0.7,0-1.4,0.3-1.9,0.8c-0.5,0.5-0.8,1.1-0.8,1.8s0.3,1.3,0.8,1.8C-907.5-363.2-906.8-362.9-906.1-362.9z"/>
<path class="st7" d="M-900.5-371.5c0.7,0,1.4-0.3,1.9-0.8c0.5-0.5,0.8-1.1,0.8-1.8c0-0.7-0.3-1.3-0.8-1.8c-0.5-0.5-1.2-0.8-1.9-0.8
	c-0.7,0-1.4,0.3-1.9,0.8c-0.5,0.5-0.8,1.1-0.8,1.8c0,0.7,0.3,1.3,0.8,1.8C-901.9-371.8-901.2-371.5-900.5-371.5z"/>
<path class="st7" d="M-907.6-362.5c0.7,0,1.4-0.3,1.9-0.8c0.5-0.5,0.8-1.1,0.8-1.8s-0.3-1.3-0.8-1.8c-0.5-0.5-1.2-0.8-1.9-0.8
	c-0.7,0-1.4,0.3-1.9,0.8c-0.5,0.5-0.8,1.1-0.8,1.8s0.3,1.3,0.8,1.8C-909-362.7-908.3-362.5-907.6-362.5z"/>
<rect x="-940.3" y="-717.6" class="st1" width="542.9" height="378.5"/>
<path class="st7" d="M-904.7-361.5c0.7,0,1.4-0.3,1.9-0.8c0.5-0.5,0.8-1.1,0.8-1.8s-0.3-1.3-0.8-1.8c-0.5-0.5-1.2-0.8-1.9-0.8
	c-0.7,0-1.4,0.3-1.9,0.8c-0.5,0.5-0.8,1.1-0.8,1.8s0.3,1.3,0.8,1.8C-906.1-361.7-905.4-361.5-904.7-361.5z"/>
<rect x="-940.3" y="-717.6" class="st1" width="542.9" height="378.5"/>
<path class="st7" d="M-908.3-360.9c0.7,0,1.4-0.3,1.9-0.8c0.5-0.5,0.8-1.1,0.8-1.8s-0.3-1.3-0.8-1.8c-0.5-0.5-1.2-0.8-1.9-0.8
	c-0.7,0-1.4,0.3-1.9,0.8c-0.5,0.5-0.8,1.1-0.8,1.8s0.3,1.3,0.8,1.8C-909.7-361.2-909-360.9-908.3-360.9z"/>
<path class="st7" d="M-905.7-360.1c0.7,0,1.4-0.3,1.9-0.8c0.5-0.5,0.8-1.1,0.8-1.8s-0.3-1.3-0.8-1.8s-1.2-0.8-1.9-0.8
	s-1.4,0.3-1.9,0.8c-0.5,0.5-0.8,1.1-0.8,1.8s0.3,1.3,0.8,1.8C-907.1-360.4-906.4-360.1-905.7-360.1z"/>
<rect x="-940.3" y="-717.6" class="st1" width="542.9" height="378.5"/>
<path class="st7" d="M-907.7-361.5c0.7,0,1.4-0.3,1.9-0.8c0.5-0.5,0.8-1.1,0.8-1.8c0-0.7-0.3-1.3-0.8-1.8s-1.2-0.8-1.9-0.8
	s-1.4,0.3-1.9,0.8c-0.5,0.5-0.8,1.1-0.8,1.8c0,0.7,0.3,1.3,0.8,1.8C-909.1-361.8-908.4-361.5-907.7-361.5z"/>
<rect x="-940.3" y="-717.6" class="st10" width="542.9" height="378.5"/>
<path class="st7" d="M-905.8-364.5c0.7,0,1.4-0.3,1.9-0.8c0.5-0.5,0.8-1.1,0.8-1.8c0-0.7-0.3-1.3-0.8-1.8c-0.5-0.5-1.2-0.8-1.9-0.8
	c-0.7,0-1.4,0.3-1.9,0.8c-0.5,0.5-0.8,1.1-0.8,1.8c0,0.7,0.3,1.3,0.8,1.8C-907.2-364.8-906.5-364.5-905.8-364.5z"/>
<path class="st7" d="M-903.9-365.1c0.7,0,1.4-0.3,1.9-0.8c0.5-0.5,0.8-1.1,0.8-1.8s-0.3-1.3-0.8-1.8c-0.5-0.5-1.2-0.8-1.9-0.8
	s-1.4,0.3-1.9,0.8c-0.5,0.5-0.8,1.1-0.8,1.8s0.3,1.3,0.8,1.8C-905.3-365.4-904.6-365.1-903.9-365.1z"/>
<path class="st7" d="M-905.5-361.6c0.7,0,1.4-0.3,1.9-0.8s0.8-1.1,0.8-1.8c0-0.7-0.3-1.3-0.8-1.8c-0.5-0.5-1.2-0.8-1.9-0.8
	s-1.4,0.3-1.9,0.8c-0.5,0.5-0.8,1.1-0.8,1.8c0,0.7,0.3,1.3,0.8,1.8C-906.9-361.9-906.2-361.6-905.5-361.6z"/>
<path class="st7" d="M-915.7-354.6c0.7,0,1.4-0.3,1.9-0.8c0.5-0.5,0.8-1.1,0.8-1.8s-0.3-1.3-0.8-1.8c-0.5-0.5-1.2-0.8-1.9-0.8
	c-0.7,0-1.4,0.3-1.9,0.8c-0.5,0.5-0.8,1.1-0.8,1.8s0.3,1.3,0.8,1.8C-917.1-354.8-916.4-354.6-915.7-354.6z"/>
<polyline class="st1" points="-397.4,-538.5 -397.4,-557.6 -378.1,-557.6 -378.1,-538.5 "/>
<path class="st11" d="M-397.4-538.5h19.4v-19.1h-19.4V-538.5z"/>
<polyline class="st1" points="-397.4,-538.5 -397.4,-557.6 -378.1,-557.6 -378.1,-538.5 "/>
<path class="st12" d="M-387.7-548"/>
<polyline class="st1" points="-397.4,-538.5 -397.4,-557.6 -378.1,-557.6 -378.1,-538.5 "/>
<path id="m692218908d" class="st8" d="M-387.7-545.9c0.6,0,1.1-0.2,1.5-0.6s0.6-0.9,0.6-1.5s-0.2-1.1-0.6-1.5
	c-0.4-0.4-1-0.6-1.5-0.6c-0.6,0-1.1,0.2-1.5,0.6c-0.4,0.4-0.6,0.9-0.6,1.5s0.2,1.1,0.6,1.5S-388.3-545.9-387.7-545.9z"/>
<polyline class="st1" points="-397.4,-510.9 -397.4,-530 -378.1,-530 -378.1,-510.9 "/>
<path class="st11" d="M-397.4-510.9h19.4V-530h-19.4V-510.9z"/>
<polyline class="st1" points="-397.4,-510.9 -397.4,-530 -378.1,-530 -378.1,-510.9 "/>
<path class="st12" d="M-387.7-520.5"/>
<path id="m49e3eb8bbe" class="st7" d="M-387.7-518.4c0.6,0,1.1-0.2,1.5-0.6c0.4-0.4,0.6-0.9,0.6-1.5s-0.2-1.1-0.6-1.5
	c-0.4-0.4-1-0.6-1.5-0.6c-0.6,0-1.1,0.2-1.5,0.6c-0.4,0.4-0.6,0.9-0.6,1.5s0.2,1.1,0.6,1.5C-388.9-518.6-388.3-518.4-387.7-518.4z"
	/>
<path id="DejaVuSans-20_00000093142173441445376140000003415423970817025458_" d="M-860.7-726.6"/>
<path id="DejaVuSans-20_00000150792030304095648790000002651061405516804520_" d="M-744.8-726.6"/>
<path id="DejaVuSans-20_00000163763760408115874800000001758991857371388861_" d="M-697-726.6"/>
<path id="DejaVuSans-20_00000163042254962919058030000013625090433546154410_" d="M-617.7-726.6"/>
<path id="DejaVuSans-20_00000168808212269214370900000016696156575265115838_" d="M-559.3-726.6"/>
<path id="DejaVuSans-20_00000153664094143402481440000000991991324964528518_" d="M-462.9-726.6"/>
<path id="DejaVuSans-20_00000135669664414190828690000000524588862969430707_" d="M-410.9-726.6"/>
<path id="DejaVuSans-20_00000160176254729050389680000011524567460991635594_" d="M-424.2-702.8"/>
<path id="DejaVuSans-20_00000085248437366506821830000006133572358549743503_" d="M-459-706.4"/>
<path id="DejaVuSans-20_00000163048045143740523390000007066909333460220082_" d="M-442.4-706.4"/>
<path id="DejaVuSans-20_00000085931867534503883540000015010054219695409548_" d="M-379.5-706.4"/>
<path id="DejaVuSans-20_00000087380535631470182030000001709621417800252090_" d="M-421.1-681.3"/>
<text transform="matrix(0.7964 -1.672389e-03 2.100383e-03 1 -982.0695 -744.004)" class="st15" style="font-size:19.6208px;">Manhattan employees who worked more overtime than regular hours and are no longer employed</text>
<text transform="matrix(0.9465 0 0 1 -394.5321 -566.1431)" class="st15" style="font-size:15px;">Agency</text>
<text transform="matrix(0.9465 0 0 1 -375.6063 -543.3882)" class="st15" style="font-size:12.0524px;">Parks &amp; Recreation</text>
<text transform="matrix(0.9465 0 0 1 -374.7274 -515.8486)" class="st15" style="font-size:12.0524px;">NYPD</text>
<text transform="matrix(-2.101200e-03 -1 1 -2.101200e-03 -987.3207 -485.3949)" class="st15" style="font-size:14px;">Overtime hours</text>
<text transform="matrix(1 8.075760e-04 -8.075760e-04 1 -737.5662 -299.3607)"><tspan x="0" y="0" class="st15" style="font-size:14px;">Overtime</tspan><tspan x="56.8" y="0" class="st15" style="font-size:14px;"> </tspan><tspan x="61" y="0" class="st15" style="font-size:14px;">hour</tspan></text>
<rect x="-960.2" y="-357.5" class="st1" width="18.3" height="10.2"/>
<text transform="matrix(1 0 0 1 -947.449 -350.3423)" class="st15" style="font-size:10px;">0</text>
<rect x="-960.7" y="-431.1" class="st1" width="18.3" height="10.2"/>
<text transform="matrix(1 0 0 1 -959.0779 -423.931)" class="st15" style="font-size:10px;">500</text>
<rect x="-967.1" y="-503.3" class="st1" width="24.7" height="10.2"/>
<text transform="matrix(1 0 0 1 -964.6394 -496.1052)" class="st15" style="font-size:10px;">1000</text>
<rect x="-972.9" y="-576.3" class="st1" width="31.3" height="10.2"/>
<text transform="matrix(1 0 0 1 -963.8298 -569.0926)" class="st15" style="font-size:10px;">1500</text>
<rect x="-972.9" y="-648.3" class="st1" width="31.3" height="10.2"/>
<text transform="matrix(1 0 0 1 -963.8298 -641.1037)" class="st15" style="font-size:10px;">2000</text>
<rect x="-973" y="-721.5" class="st1" width="31.3" height="10.2"/>
<text transform="matrix(1 0 0 1 -963.9301 -714.3765)" class="st15" style="font-size:10px;">2500</text>
<rect x="-945.8" y="-326.9" class="st1" width="31.3" height="10.2"/>
<text transform="matrix(1 0 0 1 -920.0025 -319.7831)" class="st15" style="font-size:10px;">0</text>
<rect x="-791.1" y="-327.1" class="st1" width="37.5" height="10.2"/>
<text transform="matrix(1 0 0 1 -789.7706 -319.904)" class="st15" style="font-size:10px;">$50,000</text>
<rect x="-637.2" y="-327.1" class="st1" width="44.4" height="10.2"/>
<text transform="matrix(1 0 0 1 -634.501 -319.9666)" class="st15" style="font-size:10px;">$100,000</text>
<rect x="-479.5" y="-327.1" class="st1" width="43.1" height="10.2"/>
<text transform="matrix(1 0 0 1 -478.0768 -319.9441)" class="st15" style="font-size:10px;">$150,000</text>
<line class="st13" x1="-415.9" y1="-706.4" x2="-360.6" y2="-693.8"/>
<line class="st14" x1="-415.9" y1="-706.5" x2="-412.8" y2="-696.7"/>
<line class="st14" x1="-416.5" y1="-706.5" x2="-407.1" y2="-710.8"/>
<text transform="matrix(0.9237 0 0 1 -388.2323 -675.3848)"><tspan x="0" y="0" class="st15" style="font-size:11.182px;">One NYPD cop made over </tspan><tspan x="0" y="13.4" class="st15" style="font-size:11.182px;">$162,000 in overtime </tspan><tspan x="0" y="26.8" class="st15" style="font-size:11.182px;">pay in 2020</tspan></text>
<path class="st0" d="M-1685.4,399.3h398.8V113.4h-398.8V399.3z"/>
<rect x="-1685.4" y="105.6" class="st1" width="398.8" height="285.9"/>
<path class="st2" d="M-1668.3,399.3V113.4"/>
<path class="st3" d="M-1668.3,391.5"/>
<rect x="-1685.4" y="105.6" class="st1" width="398.8" height="285.9"/>
<path class="st2" d="M-1556.1,399.3V113.4"/>
<path class="st3" d="M-1556.1,391.5"/>
<rect x="-1685.4" y="105.6" class="st1" width="398.8" height="285.9"/>
<path class="st2" d="M-1443.9,399.3V113.4"/>
<path class="st3" d="M-1443.9,391.5"/>
<rect x="-1685.4" y="105.6" class="st1" width="398.8" height="285.9"/>
<path class="st2" d="M-1331.7,399.3V113.4"/>
<path class="st3" d="M-1331.7,391.5"/>
<rect x="-1685.4" y="105.6" class="st1" width="398.8" height="285.9"/>
<path class="st4" d="M-1612.2,399.3V113.4"/>
<rect x="-1685.4" y="105.6" class="st1" width="398.8" height="285.9"/>
<path class="st4" d="M-1500,399.3V113.4"/>
<rect x="-1685.4" y="105.6" class="st1" width="398.8" height="285.9"/>
<path class="st4" d="M-1387.8,399.3V113.4"/>
<path id="DejaVuSans-20_00000151523210774804836230000015476528234588986542_" d="M-1510.2,398.7"/>
<rect x="-1685.4" y="105.6" class="st1" width="398.8" height="285.9"/>
<path class="st2" d="M-1685.4,380.2h398.8"/>
<path class="st3" d="M-1685.4,380.2"/>
<path id="m45ff499579_00000048479127134294506620000007315451124575874998_" class="st5" d="M-1688.5,380.2"/>
<path id="m45ff499579_00000147937273413924490140000005905773010092165769_" class="st5" d="M-1685.4,380.2"/>
<rect x="-1685.4" y="105.6" class="st1" width="398.8" height="285.9"/>
<path class="st2" d="M-1685.4,326.9h398.8"/>
<path class="st3" d="M-1685.4,326.9"/>
<rect x="-1685.4" y="105.6" class="st1" width="398.8" height="285.9"/>
<path class="st2" d="M-1685.4,273.5h398.8"/>
<path class="st3" d="M-1685.4,273.5"/>
<rect x="-1685.4" y="105.6" class="st1" width="398.8" height="285.9"/>
<path class="st2" d="M-1685.4,220.1h398.8"/>
<path class="st3" d="M-1685.4,220.1"/>
<rect x="-1685.4" y="105.6" class="st1" width="398.8" height="285.9"/>
<path class="st2" d="M-1685.4,166.8h398.8"/>
<path class="st3" d="M-1685.4,166.8"/>
<rect x="-1685.4" y="105.6" class="st1" width="398.8" height="285.9"/>
<path class="st6" d="M-1685.4,113.4h398.8"/>
<path class="st3" d="M-1685.4,113.4"/>
<rect x="-1685.4" y="105.6" class="st1" width="398.8" height="285.9"/>
<path class="st4" d="M-1685.4,353.6h398.8"/>
<rect x="-1685.4" y="105.6" class="st1" width="398.8" height="285.9"/>
<path class="st4" d="M-1685.4,300.2h398.8"/>
<rect x="-1685.4" y="105.6" class="st1" width="398.8" height="285.9"/>
<path class="st4" d="M-1685.4,246.8h398.8"/>
<rect x="-1685.4" y="105.6" class="st1" width="398.8" height="285.9"/>
<path class="st4" d="M-1685.4,193.5h398.8"/>
<rect x="-1685.4" y="105.6" class="st1" width="398.8" height="285.9"/>
<path class="st4" d="M-1685.4,140.1h398.8"/>
<path id="DejaVuSans-20_00000171719178060527538730000010403836350133171385_" d="M-1716.1,260.9"/>
<path id="DejaVuSans-20_00000168796517094667804750000000169546534995262088_" d="M-1716.1,224"/>
<rect x="-1685.4" y="105.6" class="st1" width="398.8" height="285.9"/>
<path class="st7" d="M-1642.6,371c0.5,0,1-0.2,1.4-0.6c0.4-0.4,0.6-0.8,0.6-1.3s-0.2-1-0.6-1.3c-0.4-0.4-0.9-0.6-1.4-0.6
	s-1,0.2-1.4,0.6c-0.4,0.4-0.6,0.8-0.6,1.3s0.2,1,0.6,1.3S-1643.1,371-1642.6,371z"/>
<rect x="-1685.4" y="105.6" class="st1" width="398.8" height="285.9"/>
<path class="st8" d="M-1639.4,313.8c0.5,0,1-0.2,1.4-0.6s0.6-0.8,0.6-1.3c0-0.5-0.2-1-0.6-1.3c-0.4-0.4-0.9-0.6-1.4-0.6
	s-1,0.2-1.4,0.6c-0.4,0.4-0.6,0.8-0.6,1.3c0,0.5,0.2,1,0.6,1.3C-1640.4,313.6-1639.9,313.8-1639.4,313.8z"/>
<rect x="-1685.4" y="105.6" class="st1" width="398.8" height="285.9"/>
<path class="st7" d="M-1626.7,360.6c0.5,0,1-0.2,1.4-0.6c0.4-0.4,0.6-0.8,0.6-1.3s-0.2-1-0.6-1.3c-0.4-0.4-0.9-0.6-1.4-0.6
	s-1,0.2-1.4,0.6c-0.4,0.4-0.6,0.8-0.6,1.3s0.2,1,0.6,1.3C-1627.7,360.4-1627.2,360.6-1626.7,360.6z"/>
<rect x="-1685.4" y="105.6" class="st1" width="398.8" height="285.9"/>
<path class="st7" d="M-1636.9,365.1c0.5,0,1-0.2,1.4-0.6c0.4-0.4,0.6-0.8,0.6-1.3s-0.2-1-0.6-1.3c-0.4-0.4-0.9-0.6-1.4-0.6
	s-1,0.2-1.4,0.6c-0.4,0.4-0.6,0.8-0.6,1.3s0.2,1,0.6,1.3C-1638,364.9-1637.5,365.1-1636.9,365.1z"/>
<rect x="-1685.4" y="105.6" class="st1" width="398.8" height="285.9"/>
<path class="st7" d="M-1645,371.1c0.5,0,1-0.2,1.4-0.6c0.4-0.4,0.6-0.8,0.6-1.3s-0.2-1-0.6-1.3c-0.4-0.4-0.9-0.6-1.4-0.6
	s-1,0.2-1.4,0.6c-0.4,0.4-0.6,0.8-0.6,1.3s0.2,1,0.6,1.3C-1646.1,370.9-1645.5,371.1-1645,371.1z"/>
<rect x="-1685.4" y="105.6" class="st1" width="398.8" height="285.9"/>
<path class="st7" d="M-1304.7,120.5c0.5,0,1-0.2,1.4-0.6c0.4-0.4,0.6-0.8,0.6-1.3c0-0.5-0.2-1-0.6-1.3c-0.4-0.4-0.9-0.6-1.4-0.6
	s-1,0.2-1.4,0.6c-0.4,0.4-0.6,0.8-0.6,1.3c0,0.5,0.2,1,0.6,1.3C-1305.8,120.3-1305.3,120.5-1304.7,120.5z"/>
<rect x="-1685.4" y="105.6" class="st1" width="398.8" height="285.9"/>
<path class="st7" d="M-1639.7,356.5c0.5,0,1-0.2,1.4-0.6c0.4-0.4,0.6-0.8,0.6-1.3c0-0.5-0.2-1-0.6-1.3c-0.4-0.4-0.9-0.6-1.4-0.6
	s-1,0.2-1.4,0.6c-0.4,0.4-0.6,0.8-0.6,1.3c0,0.5,0.2,1,0.6,1.3C-1640.8,356.3-1640.3,356.5-1639.7,356.5z"/>
<rect x="-1685.4" y="105.6" class="st1" width="398.8" height="285.9"/>
<path class="st7" d="M-1630.8,352.1c0.5,0,1-0.2,1.4-0.6c0.4-0.4,0.6-0.8,0.6-1.3s-0.2-1-0.6-1.3c-0.4-0.4-0.9-0.6-1.4-0.6
	s-1,0.2-1.4,0.6c-0.4,0.4-0.6,0.8-0.6,1.3s0.2,1,0.6,1.3C-1631.8,351.9-1631.3,352.1-1630.8,352.1z"/>
<rect x="-1685.4" y="105.6" class="st1" width="398.8" height="285.9"/>
<path class="st7" d="M-1649.7,366.9c0.5,0,1-0.2,1.4-0.6c0.4-0.4,0.6-0.8,0.6-1.3c0-0.5-0.2-1-0.6-1.3c-0.4-0.4-0.9-0.6-1.4-0.6
	s-1,0.2-1.4,0.6c-0.4,0.4-0.6,0.8-0.6,1.3c0,0.5,0.2,1,0.6,1.3C-1650.7,366.7-1650.2,366.9-1649.7,366.9z"/>
<rect x="-1685.4" y="105.6" class="st1" width="398.8" height="285.9"/>
<path class="st7" d="M-1648.3,363c0.5,0,1-0.2,1.4-0.6c0.4-0.4,0.6-0.8,0.6-1.3s-0.2-1-0.6-1.3c-0.4-0.4-0.9-0.6-1.4-0.6
	s-1,0.2-1.4,0.6c-0.4,0.4-0.6,0.8-0.6,1.3s0.2,1,0.6,1.3C-1649.3,362.8-1648.8,363-1648.3,363z"/>
<rect x="-1685.4" y="105.6" class="st1" width="398.8" height="285.9"/>
<path class="st7" d="M-1642.9,357.8c0.5,0,1-0.2,1.4-0.6c0.4-0.4,0.6-0.8,0.6-1.3c0-0.5-0.2-1-0.6-1.3c-0.4-0.4-0.9-0.6-1.4-0.6
	c-0.5,0-1,0.2-1.4,0.6c-0.4,0.4-0.6,0.8-0.6,1.3c0,0.5,0.2,1,0.6,1.3C-1643.9,357.6-1643.4,357.8-1642.9,357.8z"/>
<rect x="-1685.4" y="105.6" class="st1" width="398.8" height="285.9"/>
<path class="st7" d="M-1646.6,361.6c0.5,0,1-0.2,1.4-0.6c0.4-0.4,0.6-0.8,0.6-1.3s-0.2-1-0.6-1.3c-0.4-0.4-0.9-0.6-1.4-0.6
	s-1,0.2-1.4,0.6c-0.4,0.4-0.6,0.8-0.6,1.3s0.2,1,0.6,1.3C-1647.6,361.4-1647.1,361.6-1646.6,361.6z"/>
<rect x="-1685.4" y="105.6" class="st1" width="398.8" height="285.9"/>
<path class="st7" d="M-1645.8,357.3c0.5,0,1-0.2,1.4-0.6c0.4-0.4,0.6-0.8,0.6-1.3s-0.2-1-0.6-1.3c-0.4-0.4-0.9-0.6-1.4-0.6
	s-1,0.2-1.4,0.6c-0.4,0.4-0.6,0.8-0.6,1.3s0.2,1,0.6,1.3C-1646.8,357.1-1646.3,357.3-1645.8,357.3z"/>
<rect x="-1685.4" y="105.6" class="st1" width="398.8" height="285.9"/>
<path class="st7" d="M-1661.4,376.2c0.5,0,1-0.2,1.4-0.6c0.4-0.4,0.6-0.8,0.6-1.3s-0.2-1-0.6-1.3c-0.4-0.4-0.9-0.6-1.4-0.6
	c-0.5,0-1,0.2-1.4,0.6c-0.4,0.4-0.6,0.8-0.6,1.3s0.2,1,0.6,1.3C-1662.4,376-1661.9,376.2-1661.4,376.2z"/>
<rect x="-1685.4" y="105.6" class="st1" width="398.8" height="285.9"/>
<path class="st7" d="M-1653.6,365.4c0.5,0,1-0.2,1.4-0.6c0.4-0.4,0.6-0.8,0.6-1.3s-0.2-1-0.6-1.3c-0.4-0.4-0.9-0.6-1.4-0.6
	s-1,0.2-1.4,0.6c-0.4,0.4-0.6,0.8-0.6,1.3s0.2,1,0.6,1.3C-1654.7,365.2-1654.2,365.4-1653.6,365.4z"/>
<rect x="-1685.4" y="105.6" class="st1" width="398.8" height="285.9"/>
<path class="st7" d="M-1658.1,372.3c0.5,0,1-0.2,1.4-0.6c0.4-0.4,0.6-0.8,0.6-1.3c0-0.5-0.2-1-0.6-1.3c-0.4-0.4-0.9-0.6-1.4-0.6
	s-1,0.2-1.4,0.6c-0.4,0.4-0.6,0.8-0.6,1.3c0,0.5,0.2,1,0.6,1.3C-1659.1,372.1-1658.6,372.3-1658.1,372.3z"/>
<rect x="-1685.4" y="105.6" class="st1" width="398.8" height="285.9"/>
<path class="st7" d="M-1665.7,380.4c0.5,0,1-0.2,1.4-0.6c0.4-0.4,0.6-0.8,0.6-1.3s-0.2-1-0.6-1.3c-0.4-0.4-0.9-0.6-1.4-0.6
	s-1,0.2-1.4,0.6c-0.4,0.4-0.6,0.8-0.6,1.3s0.2,1,0.6,1.3C-1666.7,380.2-1666.2,380.4-1665.7,380.4z"/>
<rect x="-1685.4" y="105.6" class="st1" width="398.8" height="285.9"/>
<path class="st7" d="M-1667,379.9c0.5,0,1-0.2,1.4-0.6c0.4-0.4,0.6-0.8,0.6-1.3s-0.2-1-0.6-1.3s-0.9-0.6-1.4-0.6s-1,0.2-1.4,0.6
	c-0.4,0.4-0.6,0.8-0.6,1.3s0.2,1,0.6,1.3C-1668,379.7-1667.5,379.9-1667,379.9z"/>
<rect x="-1685.4" y="105.6" class="st1" width="398.8" height="285.9"/>
<path class="st7" d="M-1665.6,379.8c0.5,0,1-0.2,1.4-0.6c0.4-0.4,0.6-0.8,0.6-1.3s-0.2-1-0.6-1.3c-0.4-0.4-0.9-0.6-1.4-0.6
	s-1,0.2-1.4,0.6c-0.4,0.4-0.6,0.8-0.6,1.3s0.2,1,0.6,1.3C-1666.6,379.6-1666.1,379.8-1665.6,379.8z"/>
<rect x="-1685.4" y="105.6" class="st1" width="398.8" height="285.9"/>
<path class="st9" d="M-1660.6,375.2c0.5,0,1-0.2,1.4-0.6c0.4-0.4,0.6-0.8,0.6-1.3c0-0.5-0.2-1-0.6-1.3c-0.4-0.4-0.9-0.6-1.4-0.6
	s-1,0.2-1.4,0.6c-0.4,0.4-0.6,0.8-0.6,1.3c0,0.5,0.2,1,0.6,1.3C-1661.7,375-1661.1,375.2-1660.6,375.2z"/>
<rect x="-1685.4" y="105.6" class="st1" width="398.8" height="285.9"/>
<path class="st7" d="M-1587.3,330.1c0.5,0,1-0.2,1.4-0.6c0.4-0.4,0.6-0.8,0.6-1.3s-0.2-1-0.6-1.3c-0.4-0.4-0.9-0.6-1.4-0.6
	s-1,0.2-1.4,0.6c-0.4,0.4-0.6,0.8-0.6,1.3s0.2,1,0.6,1.3C-1588.4,329.9-1587.8,330.1-1587.3,330.1z"/>
<rect x="-1685.4" y="105.6" class="st1" width="398.8" height="285.9"/>
<path class="st7" d="M-1618.1,355.6c0.5,0,1-0.2,1.4-0.6c0.4-0.4,0.6-0.8,0.6-1.3s-0.2-1-0.6-1.3c-0.4-0.4-0.9-0.6-1.4-0.6
	s-1,0.2-1.4,0.6c-0.4,0.4-0.6,0.8-0.6,1.3s0.2,1,0.6,1.3C-1619.1,355.4-1618.6,355.6-1618.1,355.6z"/>
<rect x="-1685.4" y="105.6" class="st1" width="398.8" height="285.9"/>
<path class="st7" d="M-1612.3,338.8c0.5,0,1-0.2,1.4-0.6c0.4-0.4,0.6-0.8,0.6-1.3s-0.2-1-0.6-1.3c-0.4-0.4-0.9-0.6-1.4-0.6
	s-1,0.2-1.4,0.6c-0.4,0.4-0.6,0.8-0.6,1.3s0.2,1,0.6,1.3C-1613.3,338.6-1612.8,338.8-1612.3,338.8z"/>
<rect x="-1685.4" y="105.6" class="st1" width="398.8" height="285.9"/>
<path class="st7" d="M-1625.8,354.4c0.5,0,1-0.2,1.4-0.6c0.4-0.4,0.6-0.8,0.6-1.3c0-0.5-0.2-1-0.6-1.3c-0.4-0.4-0.9-0.6-1.4-0.6
	c-0.5,0-1,0.2-1.4,0.6c-0.4,0.4-0.6,0.8-0.6,1.3c0,0.5,0.2,1,0.6,1.3C-1626.8,354.2-1626.3,354.4-1625.8,354.4z"/>
<rect x="-1685.4" y="105.6" class="st1" width="398.8" height="285.9"/>
<path class="st7" d="M-1618.7,339.7c0.5,0,1-0.2,1.4-0.6c0.4-0.4,0.6-0.8,0.6-1.3s-0.2-1-0.6-1.3c-0.4-0.4-0.9-0.6-1.4-0.6
	s-1,0.2-1.4,0.6c-0.4,0.4-0.6,0.8-0.6,1.3s0.2,1,0.6,1.3C-1619.7,339.5-1619.2,339.7-1618.7,339.7z"/>
<rect x="-1685.4" y="105.6" class="st1" width="398.8" height="285.9"/>
<path class="st7" d="M-1619.4,355.9c0.5,0,1-0.2,1.4-0.6c0.4-0.4,0.6-0.8,0.6-1.3c0-0.5-0.2-1-0.6-1.3c-0.4-0.4-0.9-0.6-1.4-0.6
	s-1,0.2-1.4,0.6c-0.4,0.4-0.6,0.8-0.6,1.3c0,0.5,0.2,1,0.6,1.3C-1620.4,355.7-1619.9,355.9-1619.4,355.9z"/>
<rect x="-1685.4" y="105.6" class="st1" width="398.8" height="285.9"/>
<path class="st7" d="M-1600.9,329.6c0.5,0,1-0.2,1.4-0.6c0.4-0.4,0.6-0.8,0.6-1.3s-0.2-1-0.6-1.3c-0.4-0.4-0.9-0.6-1.4-0.6
	s-1,0.2-1.4,0.6c-0.4,0.4-0.6,0.8-0.6,1.3s0.2,1,0.6,1.3C-1601.9,329.4-1601.4,329.6-1600.9,329.6z"/>
<rect x="-1685.4" y="105.6" class="st1" width="398.8" height="285.9"/>
<path class="st7" d="M-1577.3,323.8c0.5,0,1-0.2,1.4-0.6c0.4-0.4,0.6-0.8,0.6-1.3c0-0.5-0.2-1-0.6-1.3c-0.4-0.4-0.9-0.6-1.4-0.6
	s-1,0.2-1.4,0.6s-0.6,0.8-0.6,1.3c0,0.5,0.2,1,0.6,1.3S-1577.8,323.8-1577.3,323.8z"/>
<rect x="-1685.4" y="105.6" class="st1" width="398.8" height="285.9"/>
<path class="st7" d="M-1651.3,373c0.5,0,1-0.2,1.4-0.6c0.4-0.4,0.6-0.8,0.6-1.3s-0.2-1-0.6-1.3c-0.4-0.4-0.9-0.6-1.4-0.6
	s-1,0.2-1.4,0.6c-0.4,0.4-0.6,0.8-0.6,1.3s0.2,1,0.6,1.3C-1652.3,372.8-1651.8,373-1651.3,373z"/>
<rect x="-1685.4" y="105.6" class="st1" width="398.8" height="285.9"/>
<path class="st7" d="M-1617.8,339.9c0.5,0,1-0.2,1.4-0.6c0.4-0.4,0.6-0.8,0.6-1.3c0-0.5-0.2-1-0.6-1.3c-0.4-0.4-0.9-0.6-1.4-0.6
	s-1,0.2-1.4,0.6c-0.4,0.4-0.6,0.8-0.6,1.3c0,0.5,0.2,1,0.6,1.3C-1618.9,339.7-1618.4,339.9-1617.8,339.9z"/>
<rect x="-1685.4" y="105.6" class="st1" width="398.8" height="285.9"/>
<path class="st7" d="M-1618.4,353.5c0.5,0,1-0.2,1.4-0.6c0.4-0.4,0.6-0.8,0.6-1.3s-0.2-1-0.6-1.3c-0.4-0.4-0.9-0.6-1.4-0.6
	c-0.5,0-1,0.2-1.4,0.6c-0.4,0.4-0.6,0.8-0.6,1.3s0.2,1,0.6,1.3C-1619.4,353.3-1618.9,353.5-1618.4,353.5z"/>
<rect x="-1685.4" y="105.6" class="st1" width="398.8" height="285.9"/>
<path class="st7" d="M-1636.2,353.4c0.5,0,1-0.2,1.4-0.6c0.4-0.4,0.6-0.8,0.6-1.3s-0.2-1-0.6-1.3c-0.4-0.4-0.9-0.6-1.4-0.6
	s-1,0.2-1.4,0.6s-0.6,0.8-0.6,1.3s0.2,1,0.6,1.3C-1637.3,353.2-1636.8,353.4-1636.2,353.4z"/>
<rect x="-1685.4" y="105.6" class="st1" width="398.8" height="285.9"/>
<path class="st7" d="M-1624.2,334.1c0.5,0,1-0.2,1.4-0.6c0.4-0.4,0.6-0.8,0.6-1.3s-0.2-1-0.6-1.3s-0.9-0.6-1.4-0.6s-1,0.2-1.4,0.6
	c-0.4,0.4-0.6,0.8-0.6,1.3s0.2,1,0.6,1.3C-1625.2,333.9-1624.7,334.1-1624.2,334.1z"/>
<rect x="-1685.4" y="105.6" class="st1" width="398.8" height="285.9"/>
<path class="st7" d="M-1638.6,361.7c0.5,0,1-0.2,1.4-0.6c0.4-0.4,0.6-0.8,0.6-1.3s-0.2-1-0.6-1.3c-0.4-0.4-0.9-0.6-1.4-0.6
	c-0.5,0-1,0.2-1.4,0.6c-0.4,0.4-0.6,0.8-0.6,1.3s0.2,1,0.6,1.3C-1639.6,361.5-1639.1,361.7-1638.6,361.7z"/>
<rect x="-1685.4" y="105.6" class="st1" width="398.8" height="285.9"/>
<path class="st7" d="M-1660.6,375.2c0.5,0,1-0.2,1.4-0.6c0.4-0.4,0.6-0.8,0.6-1.3s-0.2-1-0.6-1.3c-0.4-0.4-0.9-0.6-1.4-0.6
	s-1,0.2-1.4,0.6c-0.4,0.4-0.6,0.8-0.6,1.3s0.2,1,0.6,1.3C-1661.6,375-1661.1,375.2-1660.6,375.2z"/>
<rect x="-1685.4" y="105.6" class="st1" width="398.8" height="285.9"/>
<path class="st7" d="M-1633.6,344.9c0.5,0,1-0.2,1.4-0.6c0.4-0.4,0.6-0.8,0.6-1.3c0-0.5-0.2-1-0.6-1.3c-0.4-0.4-0.9-0.6-1.4-0.6
	s-1,0.2-1.4,0.6c-0.4,0.4-0.6,0.8-0.6,1.3c0,0.5,0.2,1,0.6,1.3C-1634.6,344.7-1634.1,344.9-1633.6,344.9z"/>
<rect x="-1685.4" y="105.6" class="st1" width="398.8" height="285.9"/>
<path class="st7" d="M-1617.4,333.8c0.5,0,1-0.2,1.4-0.6c0.4-0.4,0.6-0.8,0.6-1.3c0-0.5-0.2-1-0.6-1.3c-0.4-0.4-0.9-0.6-1.4-0.6
	s-1,0.2-1.4,0.6c-0.4,0.4-0.6,0.8-0.6,1.3c0,0.5,0.2,1,0.6,1.3C-1618.4,333.6-1617.9,333.8-1617.4,333.8z"/>
<rect x="-1685.4" y="105.6" class="st1" width="398.8" height="285.9"/>
<path class="st7" d="M-1634,359c0.5,0,1-0.2,1.4-0.6c0.4-0.4,0.6-0.8,0.6-1.3s-0.2-1-0.6-1.3c-0.4-0.4-0.9-0.6-1.4-0.6
	s-1,0.2-1.4,0.6c-0.4,0.4-0.6,0.8-0.6,1.3s0.2,1,0.6,1.3C-1635.1,358.8-1634.6,359-1634,359z"/>
<rect x="-1685.4" y="105.6" class="st1" width="398.8" height="285.9"/>
<path class="st7" d="M-1643.3,354c0.5,0,1-0.2,1.4-0.6c0.4-0.4,0.6-0.8,0.6-1.3s-0.2-1-0.6-1.3c-0.4-0.4-0.9-0.6-1.4-0.6
	s-1,0.2-1.4,0.6c-0.4,0.4-0.6,0.8-0.6,1.3s0.2,1,0.6,1.3C-1644.3,353.8-1643.8,354-1643.3,354z"/>
<rect x="-1685.4" y="105.6" class="st1" width="398.8" height="285.9"/>
<path class="st7" d="M-1655.4,371.2c0.5,0,1-0.2,1.4-0.6c0.4-0.4,0.6-0.8,0.6-1.3s-0.2-1-0.6-1.3c-0.4-0.4-0.9-0.6-1.4-0.6
	s-1,0.2-1.4,0.6c-0.4,0.4-0.6,0.8-0.6,1.3s0.2,1,0.6,1.3C-1656.5,371-1656,371.2-1655.4,371.2z"/>
<rect x="-1685.4" y="105.6" class="st1" width="398.8" height="285.9"/>
<path class="st7" d="M-1651.3,369.5c0.5,0,1-0.2,1.4-0.6s0.6-0.8,0.6-1.3s-0.2-1-0.6-1.3c-0.4-0.4-0.9-0.6-1.4-0.6s-1,0.2-1.4,0.6
	c-0.4,0.4-0.6,0.8-0.6,1.3s0.2,1,0.6,1.3C-1652.3,369.3-1651.8,369.5-1651.3,369.5z"/>
<rect x="-1685.4" y="105.6" class="st1" width="398.8" height="285.9"/>
<path class="st7" d="M-1653.1,367.8c0.5,0,1-0.2,1.4-0.6c0.4-0.4,0.6-0.8,0.6-1.3s-0.2-1-0.6-1.3c-0.4-0.4-0.9-0.6-1.4-0.6
	s-1,0.2-1.4,0.6c-0.4,0.4-0.6,0.8-0.6,1.3s0.2,1,0.6,1.3C-1654.1,367.6-1653.6,367.8-1653.1,367.8z"/>
<rect x="-1685.4" y="105.6" class="st1" width="398.8" height="285.9"/>
<path class="st7" d="M-1641.8,354.3c0.5,0,1-0.2,1.4-0.6c0.4-0.4,0.6-0.8,0.6-1.3s-0.2-1-0.6-1.3c-0.4-0.4-0.9-0.6-1.4-0.6
	s-1,0.2-1.4,0.6c-0.4,0.4-0.6,0.8-0.6,1.3s0.2,1,0.6,1.3C-1642.8,354.1-1642.3,354.3-1641.8,354.3z"/>
<rect x="-1685.4" y="105.6" class="st1" width="398.8" height="285.9"/>
<path class="st7" d="M-1662.1,376.6c0.5,0,1-0.2,1.4-0.6c0.4-0.4,0.6-0.8,0.6-1.3s-0.2-1-0.6-1.3c-0.4-0.4-0.9-0.6-1.4-0.6
	s-1,0.2-1.4,0.6c-0.4,0.4-0.6,0.8-0.6,1.3s0.2,1,0.6,1.3C-1663.2,376.4-1662.7,376.6-1662.1,376.6z"/>
<rect x="-1685.4" y="105.6" class="st1" width="398.8" height="285.9"/>
<path class="st7" d="M-1656.7,367.6c0.5,0,1-0.2,1.4-0.6c0.4-0.4,0.6-0.8,0.6-1.3s-0.2-1-0.6-1.3c-0.4-0.4-0.9-0.6-1.4-0.6
	s-1,0.2-1.4,0.6c-0.4,0.4-0.6,0.8-0.6,1.3s0.2,1,0.6,1.3C-1657.7,367.4-1657.2,367.6-1656.7,367.6z"/>
<rect x="-1685.4" y="105.6" class="st1" width="398.8" height="285.9"/>
<path class="st7" d="M-1642.4,357.5c0.5,0,1-0.2,1.4-0.6c0.4-0.4,0.6-0.8,0.6-1.3s-0.2-1-0.6-1.3c-0.4-0.4-0.9-0.6-1.4-0.6
	c-0.5,0-1,0.2-1.4,0.6c-0.4,0.4-0.6,0.8-0.6,1.3s0.2,1,0.6,1.3C-1643.4,357.3-1642.9,357.5-1642.4,357.5z"/>
<rect x="-1685.4" y="105.6" class="st1" width="398.8" height="285.9"/>
<path class="st7" d="M-1639.3,347.5c0.5,0,1-0.2,1.4-0.6c0.4-0.4,0.6-0.8,0.6-1.3c0-0.5-0.2-1-0.6-1.3c-0.4-0.4-0.9-0.6-1.4-0.6
	s-1,0.2-1.4,0.6c-0.4,0.4-0.6,0.8-0.6,1.3c0,0.5,0.2,1,0.6,1.3C-1640.3,347.3-1639.8,347.5-1639.3,347.5z"/>
<rect x="-1685.4" y="105.6" class="st1" width="398.8" height="285.9"/>
<path class="st7" d="M-1654.9,372c0.5,0,1-0.2,1.4-0.6c0.4-0.4,0.6-0.8,0.6-1.3c0-0.5-0.2-1-0.6-1.3c-0.4-0.4-0.9-0.6-1.4-0.6
	s-1,0.2-1.4,0.6c-0.4,0.4-0.6,0.8-0.6,1.3c0,0.5,0.2,1,0.6,1.3C-1655.9,371.8-1655.4,372-1654.9,372z"/>
<rect x="-1685.4" y="105.6" class="st1" width="398.8" height="285.9"/>
<path class="st7" d="M-1659.1,376c0.5,0,1-0.2,1.4-0.6c0.4-0.4,0.6-0.8,0.6-1.3c0-0.5-0.2-1-0.6-1.3c-0.4-0.4-0.9-0.6-1.4-0.6
	s-1,0.2-1.4,0.6c-0.4,0.4-0.6,0.8-0.6,1.3c0,0.5,0.2,1,0.6,1.3C-1660.1,375.8-1659.6,376-1659.1,376z"/>
<rect x="-1685.4" y="105.6" class="st1" width="398.8" height="285.9"/>
<path class="st7" d="M-1647.9,368.6c0.5,0,1-0.2,1.4-0.6c0.4-0.4,0.6-0.8,0.6-1.3s-0.2-1-0.6-1.3c-0.4-0.4-0.9-0.6-1.4-0.6
	c-0.5,0-1,0.2-1.4,0.6c-0.4,0.4-0.6,0.8-0.6,1.3s0.2,1,0.6,1.3C-1648.9,368.4-1648.4,368.6-1647.9,368.6z"/>
<rect x="-1685.4" y="105.6" class="st1" width="398.8" height="285.9"/>
<path class="st7" d="M-1644.7,356.2c0.5,0,1-0.2,1.4-0.6c0.4-0.4,0.6-0.8,0.6-1.3s-0.2-1-0.6-1.3c-0.4-0.4-0.9-0.6-1.4-0.6
	s-1,0.2-1.4,0.6c-0.4,0.4-0.6,0.8-0.6,1.3s0.2,1,0.6,1.3C-1645.7,356-1645.2,356.2-1644.7,356.2z"/>
<path class="st7" d="M-1660.2,375.7c0.5,0,1-0.2,1.4-0.6c0.4-0.4,0.6-0.8,0.6-1.3s-0.2-1-0.6-1.3c-0.4-0.4-0.9-0.6-1.4-0.6
	s-1,0.2-1.4,0.6c-0.4,0.4-0.6,0.8-0.6,1.3s0.2,1,0.6,1.3C-1661.2,375.5-1660.7,375.7-1660.2,375.7z"/>
<path class="st7" d="M-1660.7,375.5c0.5,0,1-0.2,1.4-0.6c0.4-0.4,0.6-0.8,0.6-1.3s-0.2-1-0.6-1.3s-0.9-0.6-1.4-0.6s-1,0.2-1.4,0.6
	c-0.4,0.4-0.6,0.8-0.6,1.3s0.2,1,0.6,1.3C-1661.8,375.3-1661.2,375.5-1660.7,375.5z"/>
<path class="st7" d="M-1659.6,375.1c0.5,0,1-0.2,1.4-0.6c0.4-0.4,0.6-0.8,0.6-1.3s-0.2-1-0.6-1.3c-0.4-0.4-0.9-0.6-1.4-0.6
	s-1,0.2-1.4,0.6c-0.4,0.4-0.6,0.8-0.6,1.3s0.2,1,0.6,1.3C-1660.6,374.8-1660.1,375.1-1659.6,375.1z"/>
<path class="st7" d="M-1660.1,373.8c0.5,0,1-0.2,1.4-0.6c0.4-0.4,0.6-0.8,0.6-1.3s-0.2-1-0.6-1.3c-0.4-0.4-0.9-0.6-1.4-0.6
	s-1,0.2-1.4,0.6s-0.6,0.8-0.6,1.3s0.2,1,0.6,1.3C-1661.2,373.6-1660.7,373.8-1660.1,373.8z"/>
<rect x="-1684.4" y="112.2" class="st1" width="398.8" height="285.9"/>
<path class="st7" d="M-1660.2,373.9c0.5,0,1-0.2,1.4-0.6c0.4-0.4,0.6-0.8,0.6-1.3s-0.2-1-0.6-1.3c-0.4-0.4-0.9-0.6-1.4-0.6
	c-0.5,0-1,0.2-1.4,0.6c-0.4,0.4-0.6,0.8-0.6,1.3s0.2,1,0.6,1.3C-1661.3,373.7-1660.8,373.9-1660.2,373.9z"/>
<path class="st7" d="M-1656.1,367.6c0.5,0,1-0.2,1.4-0.6c0.4-0.4,0.6-0.8,0.6-1.3s-0.2-1-0.6-1.3c-0.4-0.4-0.9-0.6-1.4-0.6
	c-0.5,0-1,0.2-1.4,0.6c-0.4,0.4-0.6,0.8-0.6,1.3s0.2,1,0.6,1.3C-1657.1,367.4-1656.6,367.6-1656.1,367.6z"/>
<path class="st7" d="M-1661.3,374.2c0.5,0,1-0.2,1.4-0.6c0.4-0.4,0.6-0.8,0.6-1.3s-0.2-1-0.6-1.3c-0.4-0.4-0.9-0.6-1.4-0.6
	c-0.5,0-1,0.2-1.4,0.6c-0.4,0.4-0.6,0.8-0.6,1.3s0.2,1,0.6,1.3C-1662.4,374-1661.9,374.2-1661.3,374.2z"/>
<rect x="-1685.4" y="113.4" class="st1" width="398.8" height="278.1"/>
<path class="st7" d="M-1659.2,375c0.5,0,1-0.2,1.4-0.6c0.4-0.4,0.6-0.8,0.6-1.3s-0.2-1-0.6-1.3c-0.4-0.4-0.9-0.6-1.4-0.6
	s-1,0.2-1.4,0.6c-0.4,0.4-0.6,0.8-0.6,1.3s0.2,1,0.6,1.3C-1660.3,374.8-1659.8,375-1659.2,375z"/>
<rect x="-1685.4" y="113.4" class="st1" width="398.8" height="278.1"/>
<path class="st7" d="M-1661.9,375.4c0.5,0,1-0.2,1.4-0.6c0.4-0.4,0.6-0.8,0.6-1.3s-0.2-1-0.6-1.3c-0.4-0.4-0.9-0.6-1.4-0.6
	s-1,0.2-1.4,0.6c-0.4,0.4-0.6,0.8-0.6,1.3s0.2,1,0.6,1.3C-1662.9,375.2-1662.4,375.4-1661.9,375.4z"/>
<path class="st7" d="M-1659.9,376c0.5,0,1-0.2,1.4-0.6c0.4-0.4,0.6-0.8,0.6-1.3s-0.2-1-0.6-1.3c-0.4-0.4-0.9-0.6-1.4-0.6
	s-1,0.2-1.4,0.6c-0.4,0.4-0.6,0.8-0.6,1.3s0.2,1,0.6,1.3C-1661,375.8-1660.5,376-1659.9,376z"/>
<rect x="-1685.4" y="113.4" class="st1" width="398.8" height="278.1"/>
<path class="st7" d="M-1661.4,374.9c0.5,0,1-0.2,1.4-0.6c0.4-0.4,0.6-0.8,0.6-1.3s-0.2-1-0.6-1.3c-0.4-0.4-0.9-0.6-1.4-0.6
	s-1,0.2-1.4,0.6c-0.4,0.4-0.6,0.8-0.6,1.3s0.2,1,0.6,1.3C-1662.4,374.7-1661.9,374.9-1661.4,374.9z"/>
<rect x="-1685.4" y="113.4" class="st10" width="398.8" height="278.1"/>
<path class="st7" d="M-1660,372.8c0.5,0,1-0.2,1.4-0.6c0.4-0.4,0.6-0.8,0.6-1.3c0-0.5-0.2-1-0.6-1.3c-0.4-0.4-0.9-0.6-1.4-0.6
	s-1,0.2-1.4,0.6c-0.4,0.4-0.6,0.8-0.6,1.3c0,0.5,0.2,1,0.6,1.3C-1661.1,372.6-1660.6,372.8-1660,372.8z"/>
<path class="st7" d="M-1658.6,372.3c0.5,0,1-0.2,1.4-0.6c0.4-0.4,0.6-0.8,0.6-1.3s-0.2-1-0.6-1.3c-0.4-0.4-0.9-0.6-1.4-0.6
	s-1,0.2-1.4,0.6c-0.4,0.4-0.6,0.8-0.6,1.3s0.2,1,0.6,1.3C-1659.7,372.1-1659.2,372.3-1658.6,372.3z"/>
<path class="st7" d="M-1659.8,374.9c0.5,0,1-0.2,1.4-0.6c0.4-0.4,0.6-0.8,0.6-1.3s-0.2-1-0.6-1.3c-0.4-0.4-0.9-0.6-1.4-0.6
	s-1,0.2-1.4,0.6c-0.4,0.4-0.6,0.8-0.6,1.3s0.2,1,0.6,1.3C-1660.8,374.7-1660.3,374.9-1659.8,374.9z"/>
<path class="st7" d="M-1667.3,380c0.5,0,1-0.2,1.4-0.6c0.4-0.4,0.6-0.8,0.6-1.3s-0.2-1-0.6-1.3c-0.4-0.4-0.9-0.6-1.4-0.6
	s-1,0.2-1.4,0.6c-0.4,0.4-0.6,0.8-0.6,1.3s0.2,1,0.6,1.3C-1668.3,379.8-1667.8,380-1667.3,380z"/>
<polyline class="st1" points="-1278.6,256 -1278.6,241.9 -1264.4,241.9 -1264.4,256 "/>
<path class="st11" d="M-1278.6,256h14.2v-14h-14.2V256z"/>
<polyline class="st1" points="-1278.6,256 -1278.6,241.9 -1264.4,241.9 -1264.4,256 "/>
<path class="st12" d="M-1279.5,237.9"/>
<polyline class="st1" points="-1278.6,256 -1278.6,241.9 -1264.4,241.9 -1264.4,256 "/>
<path id="m692218908d_00000088838138991894022660000013847780093944631686_" class="st8" d="M-1271.5,250.5c0.4,0,0.8-0.2,1.1-0.5
	c0.3-0.3,0.5-0.7,0.5-1.1c0-0.4-0.2-0.8-0.5-1.1c-0.3-0.3-0.7-0.5-1.1-0.5c-0.4,0-0.8,0.2-1.1,0.5c-0.3,0.3-0.5,0.7-0.5,1.1
	c0,0.4,0.2,0.8,0.5,1.1C-1272.3,250.4-1271.9,250.5-1271.5,250.5z"/>
<polyline class="st1" points="-1278.6,276.2 -1278.6,262.2 -1264.4,262.2 -1264.4,276.2 "/>
<path class="st11" d="M-1278.6,276.2h14.2v-14h-14.2V276.2z"/>
<polyline class="st1" points="-1278.6,276.2 -1278.6,262.2 -1264.4,262.2 -1264.4,276.2 "/>
<path class="st12" d="M-1279.5,258.2"/>
<path id="m49e3eb8bbe_00000125594367645336733890000013597213952538597762_" class="st7" d="M-1271.5,270.7c0.4,0,0.8-0.2,1.1-0.5
	c0.3-0.3,0.5-0.7,0.5-1.1s-0.2-0.8-0.5-1.1c-0.3-0.3-0.7-0.5-1.1-0.5c-0.4,0-0.8,0.2-1.1,0.5c-0.3,0.3-0.5,0.7-0.5,1.1
	s0.2,0.8,0.5,1.1C-1272.3,270.6-1271.9,270.7-1271.5,270.7z"/>
<path id="DejaVuSans-20_00000142167647831667981890000011527450736745526160_" d="M-1626.9,116.9"/>
<path id="DejaVuSans-20_00000045595546549569230930000017747731282312007051_" d="M-1541.7,116.9"/>
<path id="DejaVuSans-20_00000170982396188150259900000011603434219851355322_" d="M-1506.6,116.9"/>
<path id="DejaVuSans-20_00000124130694600394018210000000496547260329883828_" d="M-1448.4,116.9"/>
<path id="DejaVuSans-20_00000010287505223327703510000000833003206341568683_" d="M-1405.5,116.9"/>
<path id="DejaVuSans-20_00000029038197308334169840000005215728335743510416_" d="M-1334.7,116.9"/>
<path id="DejaVuSans-20_00000103958971322124956710000012018398838088400292_" d="M-1296.5,116.9"/>
<path id="DejaVuSans-20_00000006689639125503994020000002786733718923428483_" d="M-1306.2,124.3"/>
<path id="DejaVuSans-20_00000174568051152000280310000010196317432765300386_" d="M-1331.8,121.6"/>
<path id="DejaVuSans-20_00000106131799292072449220000007179664132144647824_" d="M-1319.6,121.6"/>
<path id="DejaVuSans-20_00000045619793265508195510000005362152447474878618_" d="M-1273.4,121.6"/>
<path id="DejaVuSans-20_00000057839829195576083700000005476819278033987466_" d="M-1304,140"/>
<text transform="matrix(0.7964 -1.672382e-03 2.100374e-03 1 -1716.0184 104.1015)" class="st15" style="font-size:14.4129px;">Manhattan employees who worked more overtime than regular hours and are no longer employed</text>
<text transform="matrix(0.9465 0 0 1 -1276.4613 235.6338)" class="st15" style="font-size:11.0186px;">Agency</text>
<text transform="matrix(0.9465 0 0 1 -1262.559 252.3506)" class="st15" style="font-size:8.8534px;">Parks &amp; Recreation</text>
<text transform="matrix(0.9465 0 0 1 -1261.9135 272.5801)" class="st15" style="font-size:8.8534px;">NYPD</text>
<text transform="matrix(-2.101200e-03 -1 1 -2.101200e-03 -1719.9077 283.9494)" class="st15" style="font-size:10.284px;">Overtime hours</text>
<text transform="matrix(1 8.075754e-04 -8.075754e-04 1 -1519.2358 420.6119)"><tspan x="0" y="0" class="st15" style="font-size:10.284px;">Overtime</tspan><tspan x="41.7" y="0" class="st15" style="font-size:10.284px;"> </tspan><tspan x="44.8" y="0" class="st15" style="font-size:10.284px;">hour</tspan></text>
<rect x="-1700" y="377.9" class="st1" width="13.4" height="7.5"/>
<text transform="matrix(1 0 0 1 -1690.619 383.1562)" class="st15" style="font-size:7.3457px;">0</text>
<rect x="-1700.3" y="323.8" class="st1" width="13.4" height="7.5"/>
<text transform="matrix(1 0 0 1 -1699.1615 329.0996)" class="st15" style="font-size:7.3457px;">500</text>
<rect x="-1705" y="270.8" class="st1" width="18.1" height="7.5"/>
<text transform="matrix(1 0 0 1 -1703.2469 276.083)" class="st15" style="font-size:7.3457px;">1000</text>
<rect x="-1709.3" y="217.2" class="st1" width="23" height="7.5"/>
<text transform="matrix(1 0 0 1 -1702.6522 222.4688)" class="st15" style="font-size:7.3457px;">1500</text>
<rect x="-1709.3" y="164.3" class="st1" width="23" height="7.5"/>
<text transform="matrix(1 0 0 1 -1702.6522 169.5713)" class="st15" style="font-size:7.3457px;">2000</text>
<rect x="-1709.4" y="110.5" class="st1" width="23" height="7.5"/>
<text transform="matrix(1 0 0 1 -1702.726 115.7471)" class="st15" style="font-size:7.3457px;">2500</text>
<rect x="-1689.4" y="400.3" class="st1" width="23" height="7.5"/>
<text transform="matrix(1 0 0 1 -1670.4579 405.6045)" class="st15" style="font-size:7.3457px;">0</text>
<rect x="-1575.8" y="400.3" class="st1" width="27.6" height="7.5"/>
<text transform="matrix(1 0 0 1 -1574.7928 405.5156)" class="st15" style="font-size:7.3457px;">$50,000</text>
<rect x="-1462.7" y="400.2" class="st1" width="32.6" height="7.5"/>
<text transform="matrix(1 0 0 1 -1460.7357 405.4697)" class="st15" style="font-size:7.3457px;">$100,000</text>
<rect x="-1346.9" y="400.2" class="st1" width="31.7" height="7.5"/>
<text transform="matrix(1 0 0 1 -1345.8314 405.4863)" class="st15" style="font-size:7.3457px;">$150,000</text>
<line class="st13" x1="-1300.2" y1="121.6" x2="-1259.5" y2="130.9"/>
<line class="st14" x1="-1300.2" y1="121.5" x2="-1297.8" y2="128.7"/>
<line class="st14" x1="-1300.6" y1="121.6" x2="-1293.7" y2="118.4"/>
<text transform="matrix(0.9237 0 0 1 -1279.8339 144.3887)"><tspan x="0" y="0" class="st15" style="font-size:8.214px;">One NYPD cop made over </tspan><tspan x="0" y="9.9" class="st15" style="font-size:8.214px;">$162,000 in overtime </tspan><tspan x="0" y="19.7" class="st15" style="font-size:8.214px;">pay in 2020</tspan></text>
<rect x="52.1" y="48.9" class="st1" width="347.9" height="339.5"/>
<path class="st2" d="M67,397.7V58.2"/>
<path class="st3" d="M67,388.4"/>
<rect x="52.1" y="48.9" class="st1" width="347.9" height="339.5"/>
<path class="st2" d="M164.9,397.7V58.2"/>
<path class="st3" d="M164.9,388.4"/>
<rect x="52.1" y="48.9" class="st1" width="347.9" height="339.5"/>
<path class="st2" d="M262.8,397.7V58.2"/>
<path class="st3" d="M262.8,388.4"/>
<rect x="52.1" y="48.9" class="st1" width="347.9" height="339.5"/>
<path class="st2" d="M360.7,397.7V58.2"/>
<path class="st3" d="M360.7,388.4"/>
<rect x="52.1" y="48.9" class="st1" width="347.9" height="339.5"/>
<path class="st4" d="M115.9,397.7V58.2"/>
<rect x="52.1" y="48.9" class="st1" width="347.9" height="339.5"/>
<path class="st4" d="M213.8,397.7V58.2"/>
<rect x="52.1" y="48.9" class="st1" width="347.9" height="339.5"/>
<path class="st4" d="M311.7,397.7V58.2"/>
<path id="DejaVuSans-20_00000168820531277763767880000003612950722176705426_" d="M204.9,397"/>
<rect x="52.1" y="48.9" class="st1" width="347.9" height="339.5"/>
<path class="st2" d="M52.1,375.1H400"/>
<path class="st3" d="M52.1,375.1"/>
<path id="m45ff499579_00000086657953700410417620000013262531966629013889_" class="st5" d="M49.4,375.1"/>
<path id="m45ff499579_00000155122819656794586900000002513785012368407733_" class="st5" d="M52.1,375.1"/>
<rect x="52.1" y="48.9" class="st1" width="347.9" height="339.5"/>
<path class="st2" d="M52.1,311.7H400"/>
<path class="st3" d="M52.1,311.7"/>
<rect x="52.1" y="48.9" class="st1" width="347.9" height="339.5"/>
<path class="st2" d="M52.1,248.4H400"/>
<path class="st3" d="M52.1,248.4"/>
<rect x="52.1" y="48.9" class="st1" width="347.9" height="339.5"/>
<path class="st2" d="M52.1,185H400"/>
<path class="st3" d="M52.1,185"/>
<rect x="52.1" y="48.9" class="st1" width="347.9" height="339.5"/>
<path class="st2" d="M52.1,121.6H400"/>
<path class="st3" d="M52.1,121.6"/>
<rect x="52.1" y="48.9" class="st1" width="347.9" height="339.5"/>
<path class="st6" d="M52.1,58.2H400"/>
<path class="st3" d="M52.1,58.2"/>
<rect x="52.1" y="48.9" class="st1" width="347.9" height="339.5"/>
<path class="st4" d="M52.1,343.4H400"/>
<rect x="52.1" y="48.9" class="st1" width="347.9" height="339.5"/>
<path class="st4" d="M52.1,280H400"/>
<rect x="52.1" y="48.9" class="st1" width="347.9" height="339.5"/>
<path class="st4" d="M52.1,216.7H400"/>
<rect x="52.1" y="48.9" class="st1" width="347.9" height="339.5"/>
<path class="st4" d="M52.1,153.3H400"/>
<rect x="52.1" y="48.9" class="st1" width="347.9" height="339.5"/>
<path class="st4" d="M52.1,89.9H400"/>
<path id="DejaVuSans-20_00000111161892170106683250000007684268329375134381_" d="M25.3,233.4"/>
<path id="DejaVuSans-20_00000003086626462581434070000017037760525047433367_" d="M25.3,189.5"/>
<rect x="52.1" y="48.9" class="st1" width="347.9" height="339.5"/>
<path class="st7" d="M89.4,364.2c0.5,0,0.9-0.2,1.2-0.7c0.3-0.4,0.5-1,0.5-1.6c0-0.6-0.2-1.2-0.5-1.6c-0.3-0.4-0.8-0.7-1.2-0.7
	s-0.9,0.2-1.2,0.7c-0.3,0.4-0.5,1-0.5,1.6c0,0.6,0.2,1.2,0.5,1.6C88.5,364,88.9,364.2,89.4,364.2z"/>
<rect x="52.1" y="48.9" class="st1" width="347.9" height="339.5"/>
<path class="st8" d="M92.2,296.2c0.5,0,0.9-0.2,1.2-0.7c0.3-0.4,0.5-1,0.5-1.6c0-0.6-0.2-1.2-0.5-1.6c-0.3-0.4-0.8-0.7-1.2-0.7
	c-0.5,0-0.9,0.2-1.2,0.7c-0.3,0.4-0.5,1-0.5,1.6c0,0.6,0.2,1.2,0.5,1.6C91.3,296,91.8,296.2,92.2,296.2z"/>
<rect x="52.1" y="48.9" class="st1" width="347.9" height="339.5"/>
<path class="st7" d="M103.3,351.8c0.5,0,0.9-0.2,1.2-0.7c0.3-0.4,0.5-1,0.5-1.6c0-0.6-0.2-1.2-0.5-1.6c-0.3-0.4-0.8-0.7-1.2-0.7
	c-0.5,0-0.9,0.2-1.2,0.7c-0.3,0.4-0.5,1-0.5,1.6c0,0.6,0.2,1.2,0.5,1.6C102.4,351.5,102.8,351.8,103.3,351.8z"/>
<rect x="52.1" y="48.9" class="st1" width="347.9" height="339.5"/>
<path class="st7" d="M94.3,357.1c0.5,0,0.9-0.2,1.2-0.7c0.3-0.4,0.5-1,0.5-1.6c0-0.6-0.2-1.2-0.5-1.6c-0.3-0.4-0.8-0.7-1.2-0.7
	s-0.9,0.2-1.2,0.7c-0.3,0.4-0.5,1-0.5,1.6c0,0.6,0.2,1.2,0.5,1.6C93.4,356.9,93.9,357.1,94.3,357.1z"/>
<rect x="52.1" y="48.9" class="st1" width="347.9" height="339.5"/>
<path class="st7" d="M87.3,364.2c0.5,0,0.9-0.2,1.2-0.7c0.3-0.4,0.5-1,0.5-1.6c0-0.6-0.2-1.2-0.5-1.6c-0.3-0.4-0.8-0.7-1.2-0.7
	c-0.5,0-0.9,0.2-1.2,0.7c-0.3,0.4-0.5,1-0.5,1.6c0,0.6,0.2,1.2,0.5,1.6C86.4,364,86.8,364.2,87.3,364.2z"/>
<rect x="52.1" y="48.9" class="st1" width="347.9" height="339.5"/>
<path class="st7" d="M384.2,66.6c0.5,0,0.9-0.2,1.2-0.7c0.3-0.4,0.5-1,0.5-1.6s-0.2-1.2-0.5-1.6c-0.3-0.4-0.8-0.7-1.2-0.7
	s-0.9,0.2-1.2,0.7c-0.3,0.4-0.5,1-0.5,1.6s0.2,1.2,0.5,1.6C383.3,66.4,383.7,66.6,384.2,66.6z"/>
<rect x="52.1" y="48.9" class="st1" width="347.9" height="339.5"/>
<path class="st7" d="M91.9,347c0.5,0,0.9-0.2,1.2-0.7c0.3-0.4,0.5-1,0.5-1.6c0-0.6-0.2-1.2-0.5-1.6c-0.3-0.4-0.8-0.7-1.2-0.7
	s-0.9,0.2-1.2,0.7c-0.3,0.4-0.5,1-0.5,1.6c0,0.6,0.2,1.2,0.5,1.6C91,346.7,91.4,347,91.9,347z"/>
<rect x="52.1" y="48.9" class="st1" width="347.9" height="339.5"/>
<path class="st7" d="M99.7,341.7c0.5,0,0.9-0.2,1.2-0.7c0.3-0.4,0.5-1,0.5-1.6c0-0.6-0.2-1.2-0.5-1.6c-0.3-0.4-0.8-0.7-1.2-0.7
	c-0.5,0-0.9,0.2-1.2,0.7s-0.5,1-0.5,1.6c0,0.6,0.2,1.2,0.5,1.6C98.8,341.5,99.3,341.7,99.7,341.7z"/>
<rect x="52.1" y="48.9" class="st1" width="347.9" height="339.5"/>
<path class="st7" d="M83.2,359.3c0.5,0,0.9-0.2,1.2-0.7c0.3-0.4,0.5-1,0.5-1.6s-0.2-1.2-0.5-1.6c-0.3-0.4-0.8-0.7-1.2-0.7
	s-0.9,0.2-1.2,0.7c-0.3,0.4-0.5,1-0.5,1.6s0.2,1.2,0.5,1.6C82.3,359.1,82.8,359.3,83.2,359.3z"/>
<rect x="52.1" y="48.9" class="st1" width="347.9" height="339.5"/>
<path class="st7" d="M84.5,354.6c0.5,0,0.9-0.2,1.2-0.7c0.3-0.4,0.5-1,0.5-1.6c0-0.6-0.2-1.2-0.5-1.6c-0.3-0.4-0.8-0.7-1.2-0.7
	s-0.9,0.2-1.2,0.7c-0.3,0.4-0.5,1-0.5,1.6c0,0.6,0.2,1.2,0.5,1.6C83.6,354.4,84,354.6,84.5,354.6z"/>
<rect x="52.1" y="48.9" class="st1" width="347.9" height="339.5"/>
<path class="st7" d="M89.2,348.5c0.5,0,0.9-0.2,1.2-0.7c0.3-0.4,0.5-1,0.5-1.6c0-0.6-0.2-1.2-0.5-1.6c-0.3-0.4-0.8-0.7-1.2-0.7
	c-0.5,0-0.9,0.2-1.2,0.7c-0.3,0.4-0.5,1-0.5,1.6c0,0.6,0.2,1.2,0.5,1.6C88.3,348.3,88.7,348.5,89.2,348.5z"/>
<rect x="52.1" y="48.9" class="st1" width="347.9" height="339.5"/>
<path class="st7" d="M85.9,353c0.5,0,0.9-0.2,1.2-0.7c0.3-0.4,0.5-1,0.5-1.6c0-0.6-0.2-1.2-0.5-1.6c-0.3-0.4-0.8-0.7-1.2-0.7
	c-0.5,0-0.9,0.2-1.2,0.7c-0.3,0.4-0.5,1-0.5,1.6c0,0.6,0.2,1.2,0.5,1.6C85,352.7,85.5,353,85.9,353z"/>
<rect x="52.1" y="48.9" class="st1" width="347.9" height="339.5"/>
<path class="st7" d="M86.6,347.9c0.5,0,0.9-0.2,1.2-0.7s0.5-1,0.5-1.6c0-0.6-0.2-1.2-0.5-1.6c-0.3-0.4-0.8-0.7-1.2-0.7
	s-0.9,0.2-1.2,0.7c-0.3,0.4-0.5,1-0.5,1.6c0,0.6,0.2,1.2,0.5,1.6C85.7,347.7,86.1,347.9,86.6,347.9z"/>
<rect x="52.1" y="48.9" class="st1" width="347.9" height="339.5"/>
<path class="st7" d="M73,370.3c0.5,0,0.9-0.2,1.2-0.7c0.3-0.4,0.5-1,0.5-1.6c0-0.6-0.2-1.2-0.5-1.6c-0.3-0.4-0.8-0.7-1.2-0.7
	c-0.5,0-0.9,0.2-1.2,0.7c-0.3,0.4-0.5,1-0.5,1.6c0,0.6,0.2,1.2,0.5,1.6C72.1,370,72.6,370.3,73,370.3z"/>
<rect x="52.1" y="48.9" class="st1" width="347.9" height="339.5"/>
<path class="st7" d="M79.8,357.5c0.5,0,0.9-0.2,1.2-0.7c0.3-0.4,0.5-1,0.5-1.6c0-0.6-0.2-1.2-0.5-1.6c-0.3-0.4-0.8-0.7-1.2-0.7
	c-0.5,0-0.9,0.2-1.2,0.7c-0.3,0.4-0.5,1-0.5,1.6c0,0.6,0.2,1.2,0.5,1.6C78.9,357.2,79.3,357.5,79.8,357.5z"/>
<rect x="52.1" y="48.9" class="st1" width="347.9" height="339.5"/>
<path class="st7" d="M75.9,365.7c0.5,0,0.9-0.2,1.2-0.7c0.3-0.4,0.5-1,0.5-1.6c0-0.6-0.2-1.2-0.5-1.6c-0.3-0.4-0.8-0.7-1.2-0.7
	s-0.9,0.2-1.2,0.7c-0.3,0.4-0.5,1-0.5,1.6c0,0.6,0.2,1.2,0.5,1.6C75,365.5,75.4,365.7,75.9,365.7z"/>
<rect x="52.1" y="48.9" class="st1" width="347.9" height="339.5"/>
<path class="st7" d="M69.3,375.3c0.5,0,0.9-0.2,1.2-0.7c0.3-0.4,0.5-1,0.5-1.6c0-0.6-0.2-1.2-0.5-1.6c-0.3-0.4-0.8-0.7-1.2-0.7
	s-0.9,0.2-1.2,0.7c-0.3,0.4-0.5,1-0.5,1.6c0,0.6,0.2,1.2,0.5,1.6C68.4,375,68.8,375.3,69.3,375.3z"/>
<rect x="52.1" y="48.9" class="st1" width="347.9" height="339.5"/>
<path class="st7" d="M68.1,374.7c0.5,0,0.9-0.2,1.2-0.7c0.3-0.4,0.5-1,0.5-1.6c0-0.6-0.2-1.2-0.5-1.6s-0.8-0.7-1.2-0.7
	c-0.5,0-0.9,0.2-1.2,0.7c-0.3,0.4-0.5,1-0.5,1.6c0,0.6,0.2,1.2,0.5,1.6C67.2,374.4,67.7,374.7,68.1,374.7z"/>
<rect x="52.1" y="48.9" class="st1" width="347.9" height="339.5"/>
<path class="st7" d="M69.4,374.6c0.5,0,0.9-0.2,1.2-0.7c0.3-0.4,0.5-1,0.5-1.6c0-0.6-0.2-1.2-0.5-1.6c-0.3-0.4-0.8-0.7-1.2-0.7
	c-0.5,0-0.9,0.2-1.2,0.7c-0.3,0.4-0.5,1-0.5,1.6c0,0.6,0.2,1.2,0.5,1.6C68.5,374.4,68.9,374.6,69.4,374.6z"/>
<rect x="52.1" y="48.9" class="st1" width="347.9" height="339.5"/>
<path class="st9" d="M73.7,369.2c0.5,0,0.9-0.2,1.2-0.7c0.3-0.4,0.5-1,0.5-1.6c0-0.6-0.2-1.2-0.5-1.6c-0.3-0.4-0.8-0.7-1.2-0.7
	c-0.5,0-0.9,0.2-1.2,0.7c-0.3,0.4-0.5,1-0.5,1.6c0,0.6,0.2,1.2,0.5,1.6C72.8,368.9,73.2,369.2,73.7,369.2z"/>
<rect x="52.1" y="48.9" class="st1" width="347.9" height="339.5"/>
<path class="st7" d="M137.6,315.5c0.5,0,0.9-0.2,1.2-0.7c0.3-0.4,0.5-1,0.5-1.6c0-0.6-0.2-1.2-0.5-1.6c-0.3-0.4-0.8-0.7-1.2-0.7
	c-0.5,0-0.9,0.2-1.2,0.7c-0.3,0.4-0.5,1-0.5,1.6c0,0.6,0.2,1.2,0.5,1.6C136.7,315.3,137.2,315.5,137.6,315.5z"/>
<rect x="52.1" y="48.9" class="st1" width="347.9" height="339.5"/>
<path class="st7" d="M110.8,345.8c0.5,0,0.9-0.2,1.2-0.7c0.3-0.4,0.5-1,0.5-1.6c0-0.6-0.2-1.2-0.5-1.6c-0.3-0.4-0.8-0.7-1.2-0.7
	c-0.5,0-0.9,0.2-1.2,0.7c-0.3,0.4-0.5,1-0.5,1.6c0,0.6,0.2,1.2,0.5,1.6C109.9,345.6,110.3,345.8,110.8,345.8z"/>
<rect x="52.1" y="48.9" class="st1" width="347.9" height="339.5"/>
<path class="st7" d="M115.9,325.9c0.5,0,0.9-0.2,1.2-0.7c0.3-0.4,0.5-1,0.5-1.6c0-0.6-0.2-1.2-0.5-1.6c-0.3-0.4-0.8-0.7-1.2-0.7
	c-0.5,0-0.9,0.2-1.2,0.7c-0.3,0.4-0.5,1-0.5,1.6c0,0.6,0.2,1.2,0.5,1.6C115,325.6,115.4,325.9,115.9,325.9z"/>
<rect x="52.1" y="48.9" class="st1" width="347.9" height="339.5"/>
<path class="st7" d="M104.1,344.5c0.5,0,0.9-0.2,1.2-0.7c0.3-0.4,0.5-1,0.5-1.6s-0.2-1.2-0.5-1.6c-0.3-0.4-0.8-0.7-1.2-0.7
	s-0.9,0.2-1.2,0.7s-0.5,1-0.5,1.6s0.2,1.2,0.5,1.6C103.2,344.2,103.6,344.5,104.1,344.5z"/>
<rect x="52.1" y="48.9" class="st1" width="347.9" height="339.5"/>
<path class="st7" d="M110.2,327c0.5,0,0.9-0.2,1.2-0.7c0.3-0.4,0.5-1,0.5-1.6c0-0.6-0.2-1.2-0.5-1.6c-0.3-0.4-0.8-0.7-1.2-0.7
	s-0.9,0.2-1.2,0.7c-0.3,0.4-0.5,1-0.5,1.6c0,0.6,0.2,1.2,0.5,1.6C109.4,326.7,109.8,327,110.2,327z"/>
<rect x="52.1" y="48.9" class="st1" width="347.9" height="339.5"/>
<path class="st7" d="M109.6,346.2c0.5,0,0.9-0.2,1.2-0.7c0.3-0.4,0.5-1,0.5-1.6c0-0.6-0.2-1.2-0.5-1.6c-0.3-0.4-0.8-0.7-1.2-0.7
	s-0.9,0.2-1.2,0.7c-0.3,0.4-0.5,1-0.5,1.6c0,0.6,0.2,1.2,0.5,1.6C108.7,345.9,109.2,346.2,109.6,346.2z"/>
<rect x="52.1" y="48.9" class="st1" width="347.9" height="339.5"/>
<path class="st7" d="M125.8,315c0.5,0,0.9-0.2,1.2-0.7c0.3-0.4,0.5-1,0.5-1.6c0-0.6-0.2-1.2-0.5-1.6c-0.3-0.4-0.8-0.7-1.2-0.7
	c-0.5,0-0.9,0.2-1.2,0.7c-0.3,0.4-0.5,1-0.5,1.6c0,0.6,0.2,1.2,0.5,1.6S125.4,315,125.8,315z"/>
<rect x="52.1" y="48.9" class="st1" width="347.9" height="339.5"/>
<path class="st7" d="M146.4,308.1c0.5,0,0.9-0.2,1.2-0.7c0.3-0.4,0.5-1,0.5-1.6c0-0.6-0.2-1.2-0.5-1.6c-0.3-0.4-0.8-0.7-1.2-0.7
	c-0.5,0-0.9,0.2-1.2,0.7c-0.3,0.4-0.5,1-0.5,1.6c0,0.6,0.2,1.2,0.5,1.6C145.5,307.9,145.9,308.1,146.4,308.1z"/>
<rect x="52.1" y="48.9" class="st1" width="347.9" height="339.5"/>
<path class="st7" d="M81.8,366.5c0.5,0,0.9-0.2,1.2-0.7c0.3-0.4,0.5-1,0.5-1.6c0-0.6-0.2-1.2-0.5-1.6c-0.3-0.4-0.8-0.7-1.2-0.7
	c-0.5,0-0.9,0.2-1.2,0.7c-0.3,0.4-0.5,1-0.5,1.6c0,0.6,0.2,1.2,0.5,1.6C80.9,366.3,81.4,366.5,81.8,366.5z"/>
<rect x="52.1" y="48.9" class="st1" width="347.9" height="339.5"/>
<path class="st7" d="M111,327.2c0.5,0,0.9-0.2,1.2-0.7c0.3-0.4,0.5-1,0.5-1.6s-0.2-1.2-0.5-1.6c-0.3-0.4-0.8-0.7-1.2-0.7
	c-0.5,0-0.9,0.2-1.2,0.7c-0.3,0.4-0.5,1-0.5,1.6s0.2,1.2,0.5,1.6C110.1,327,110.5,327.2,111,327.2z"/>
<rect x="52.1" y="48.9" class="st1" width="347.9" height="339.5"/>
<path class="st7" d="M110.5,343.3c0.5,0,0.9-0.2,1.2-0.7c0.3-0.4,0.5-1,0.5-1.6c0-0.6-0.2-1.2-0.5-1.6c-0.3-0.4-0.8-0.7-1.2-0.7
	s-0.9,0.2-1.2,0.7s-0.5,1-0.5,1.6c0,0.6,0.2,1.2,0.5,1.6C109.6,343.1,110.1,343.3,110.5,343.3z"/>
<rect x="52.1" y="48.9" class="st1" width="347.9" height="339.5"/>
<path class="st7" d="M95,343.2c0.5,0,0.9-0.2,1.2-0.7c0.3-0.4,0.5-1,0.5-1.6c0-0.6-0.2-1.2-0.5-1.6c-0.3-0.4-0.8-0.7-1.2-0.7
	c-0.5,0-0.9,0.2-1.2,0.7s-0.5,1-0.5,1.6c0,0.6,0.2,1.2,0.5,1.6C94.1,343,94.5,343.2,95,343.2z"/>
<rect x="52.1" y="48.9" class="st1" width="347.9" height="339.5"/>
<path class="st7" d="M105.5,320.3c0.5,0,0.9-0.2,1.2-0.7c0.3-0.4,0.5-1,0.5-1.6c0-0.6-0.2-1.2-0.5-1.6c-0.3-0.4-0.8-0.7-1.2-0.7
	c-0.5,0-0.9,0.2-1.2,0.7c-0.3,0.4-0.5,1-0.5,1.6c0,0.6,0.2,1.2,0.5,1.6C104.6,320.1,105,320.3,105.5,320.3z"/>
<rect x="52.1" y="48.9" class="st1" width="347.9" height="339.5"/>
<path class="st7" d="M92.9,353.1c0.5,0,0.9-0.2,1.2-0.7c0.3-0.4,0.5-1,0.5-1.6c0-0.6-0.2-1.2-0.5-1.6c-0.3-0.4-0.8-0.7-1.2-0.7
	s-0.9,0.2-1.2,0.7c-0.3,0.4-0.5,1-0.5,1.6c0,0.6,0.2,1.2,0.5,1.6C92,352.9,92.4,353.1,92.9,353.1z"/>
<rect x="52.1" y="48.9" class="st1" width="347.9" height="339.5"/>
<path class="st7" d="M73.7,369.1c0.5,0,0.9-0.2,1.2-0.7c0.3-0.4,0.5-1,0.5-1.6c0-0.6-0.2-1.2-0.5-1.6c-0.3-0.4-0.8-0.7-1.2-0.7
	c-0.5,0-0.9,0.2-1.2,0.7c-0.3,0.4-0.5,1-0.5,1.6c0,0.6,0.2,1.2,0.5,1.6C72.8,368.9,73.3,369.1,73.7,369.1z"/>
<rect x="52.1" y="48.9" class="st1" width="347.9" height="339.5"/>
<path class="st7" d="M97.3,333.2c0.5,0,0.9-0.2,1.2-0.7c0.3-0.4,0.5-1,0.5-1.6c0-0.6-0.2-1.2-0.5-1.6c-0.3-0.4-0.8-0.7-1.2-0.7
	c-0.5,0-0.9,0.2-1.2,0.7c-0.3,0.4-0.5,1-0.5,1.6c0,0.6,0.2,1.2,0.5,1.6C96.4,332.9,96.8,333.2,97.3,333.2z"/>
<rect x="52.1" y="48.9" class="st1" width="347.9" height="339.5"/>
<path class="st7" d="M111.4,319.9c0.5,0,0.9-0.2,1.2-0.7c0.3-0.4,0.5-1,0.5-1.6s-0.2-1.2-0.5-1.6c-0.3-0.4-0.8-0.7-1.2-0.7
	c-0.5,0-0.9,0.2-1.2,0.7c-0.3,0.4-0.5,1-0.5,1.6s0.2,1.2,0.5,1.6C110.5,319.7,110.9,319.9,111.4,319.9z"/>
<rect x="52.1" y="48.9" class="st1" width="347.9" height="339.5"/>
<path class="st7" d="M96.9,349.9c0.5,0,0.9-0.2,1.2-0.7c0.3-0.4,0.5-1,0.5-1.6c0-0.6-0.2-1.2-0.5-1.6c-0.3-0.4-0.8-0.7-1.2-0.7
	c-0.5,0-0.9,0.2-1.2,0.7c-0.3,0.4-0.5,1-0.5,1.6c0,0.6,0.2,1.2,0.5,1.6C96,349.7,96.4,349.9,96.9,349.9z"/>
<rect x="52.1" y="48.9" class="st1" width="347.9" height="339.5"/>
<path class="st7" d="M88.8,343.9c0.5,0,0.9-0.2,1.2-0.7c0.3-0.4,0.5-1,0.5-1.6c0-0.6-0.2-1.2-0.5-1.6c-0.3-0.4-0.8-0.7-1.2-0.7
	s-0.9,0.2-1.2,0.7c-0.3,0.4-0.5,1-0.5,1.6c0,0.6,0.2,1.2,0.5,1.6C87.9,343.7,88.3,343.9,88.8,343.9z"/>
<rect x="52.1" y="48.9" class="st1" width="347.9" height="339.5"/>
<path class="st7" d="M78.2,364.4c0.5,0,0.9-0.2,1.2-0.7c0.3-0.4,0.5-1,0.5-1.6c0-0.6-0.2-1.2-0.5-1.6c-0.3-0.4-0.8-0.7-1.2-0.7
	c-0.5,0-0.9,0.2-1.2,0.7c-0.3,0.4-0.5,1-0.5,1.6c0,0.6,0.2,1.2,0.5,1.6C77.3,364.2,77.7,364.4,78.2,364.4z"/>
<rect x="52.1" y="48.9" class="st1" width="347.9" height="339.5"/>
<path class="st7" d="M81.8,362.4c0.5,0,0.9-0.2,1.2-0.7c0.3-0.4,0.5-1,0.5-1.6c0-0.6-0.2-1.2-0.5-1.6c-0.3-0.4-0.8-0.7-1.2-0.7
	c-0.5,0-0.9,0.2-1.2,0.7c-0.3,0.4-0.5,1-0.5,1.6c0,0.6,0.2,1.2,0.5,1.6C80.9,362.2,81.4,362.4,81.8,362.4z"/>
<rect x="52.1" y="48.9" class="st1" width="347.9" height="339.5"/>
<path class="st7" d="M80.2,360.4c0.5,0,0.9-0.2,1.2-0.7c0.3-0.4,0.5-1,0.5-1.6c0-0.6-0.2-1.2-0.5-1.6c-0.3-0.4-0.8-0.7-1.2-0.7
	s-0.9,0.2-1.2,0.7c-0.3,0.4-0.5,1-0.5,1.6c0,0.6,0.2,1.2,0.5,1.6C79.3,360.1,79.8,360.4,80.2,360.4z"/>
<rect x="52.1" y="48.9" class="st1" width="347.9" height="339.5"/>
<path class="st7" d="M90.1,344.3c0.5,0,0.9-0.2,1.2-0.7c0.3-0.4,0.5-1,0.5-1.6c0-0.6-0.2-1.2-0.5-1.6s-0.8-0.7-1.2-0.7
	c-0.5,0-0.9,0.2-1.2,0.7s-0.5,1-0.5,1.6c0,0.6,0.2,1.2,0.5,1.6C89.2,344.1,89.7,344.3,90.1,344.3z"/>
<rect x="52.1" y="48.9" class="st1" width="347.9" height="339.5"/>
<path class="st7" d="M72.4,370.8c0.5,0,0.9-0.2,1.2-0.7c0.3-0.4,0.5-1,0.5-1.6c0-0.6-0.2-1.2-0.5-1.6c-0.3-0.4-0.8-0.7-1.2-0.7
	c-0.5,0-0.9,0.2-1.2,0.7c-0.3,0.4-0.5,1-0.5,1.6c0,0.6,0.2,1.2,0.5,1.6C71.5,370.6,71.9,370.8,72.4,370.8z"/>
<rect x="52.1" y="48.9" class="st1" width="347.9" height="339.5"/>
<path class="st7" d="M77.1,360.1c0.5,0,0.9-0.2,1.2-0.7c0.3-0.4,0.5-1,0.5-1.6c0-0.6-0.2-1.2-0.5-1.6c-0.3-0.4-0.8-0.7-1.2-0.7
	c-0.5,0-0.9,0.2-1.2,0.7c-0.3,0.4-0.5,1-0.5,1.6c0,0.6,0.2,1.2,0.5,1.6C76.2,359.9,76.6,360.1,77.1,360.1z"/>
<rect x="52.1" y="48.9" class="st1" width="347.9" height="339.5"/>
<path class="st7" d="M89.6,348.1c0.5,0,0.9-0.2,1.2-0.7c0.3-0.4,0.5-1,0.5-1.6c0-0.6-0.2-1.2-0.5-1.6c-0.3-0.4-0.8-0.7-1.2-0.7
	c-0.5,0-0.9,0.2-1.2,0.7c-0.3,0.4-0.5,1-0.5,1.6c0,0.6,0.2,1.2,0.5,1.6C88.7,347.9,89.1,348.1,89.6,348.1z"/>
<rect x="52.1" y="48.9" class="st1" width="347.9" height="339.5"/>
<path class="st7" d="M92.3,336.3c0.5,0,0.9-0.2,1.2-0.7c0.3-0.4,0.5-1,0.5-1.6s-0.2-1.2-0.5-1.6c-0.3-0.4-0.8-0.7-1.2-0.7
	s-0.9,0.2-1.2,0.7c-0.3,0.4-0.5,1-0.5,1.6s0.2,1.2,0.5,1.6C91.4,336,91.8,336.3,92.3,336.3z"/>
<rect x="52.1" y="48.9" class="st1" width="347.9" height="339.5"/>
<path class="st7" d="M78.7,365.4c0.5,0,0.9-0.2,1.2-0.7c0.3-0.4,0.5-1,0.5-1.6c0-0.6-0.2-1.2-0.5-1.6c-0.3-0.4-0.8-0.7-1.2-0.7
	c-0.5,0-0.9,0.2-1.2,0.7c-0.3,0.4-0.5,1-0.5,1.6c0,0.6,0.2,1.2,0.5,1.6C77.8,365.1,78.2,365.4,78.7,365.4z"/>
<rect x="52.1" y="48.9" class="st1" width="347.9" height="339.5"/>
<path class="st7" d="M75,370.1c0.5,0,0.9-0.2,1.2-0.7c0.3-0.4,0.5-1,0.5-1.6c0-0.6-0.2-1.2-0.5-1.6c-0.3-0.4-0.8-0.7-1.2-0.7
	c-0.5,0-0.9,0.2-1.2,0.7c-0.3,0.4-0.5,1-0.5,1.6c0,0.6,0.2,1.2,0.5,1.6C74.1,369.9,74.5,370.1,75,370.1z"/>
<rect x="52.1" y="48.9" class="st1" width="347.9" height="339.5"/>
<path class="st7" d="M84.8,361.3c0.5,0,0.9-0.2,1.2-0.7c0.3-0.4,0.5-1,0.5-1.6c0-0.6-0.2-1.2-0.5-1.6c-0.3-0.4-0.8-0.7-1.2-0.7
	c-0.5,0-0.9,0.2-1.2,0.7c-0.3,0.4-0.5,1-0.5,1.6c0,0.6,0.2,1.2,0.5,1.6C83.9,361.1,84.4,361.3,84.8,361.3z"/>
<rect x="52.1" y="48.9" class="st1" width="347.9" height="339.5"/>
<path class="st7" d="M87.6,346.5c0.5,0,0.9-0.2,1.2-0.7c0.3-0.4,0.5-1,0.5-1.6c0-0.6-0.2-1.2-0.5-1.6c-0.3-0.4-0.8-0.7-1.2-0.7
	s-0.9,0.2-1.2,0.7c-0.3,0.4-0.5,1-0.5,1.6c0,0.6,0.2,1.2,0.5,1.6C86.7,346.3,87.2,346.5,87.6,346.5z"/>
<path class="st7" d="M74.1,369.8c0.5,0,0.9-0.2,1.2-0.7c0.3-0.4,0.5-1,0.5-1.6c0-0.6-0.2-1.2-0.5-1.6c-0.3-0.4-0.8-0.7-1.2-0.7
	s-0.9,0.2-1.2,0.7c-0.3,0.4-0.5,1-0.5,1.6c0,0.6,0.2,1.2,0.5,1.6C73.2,369.5,73.6,369.8,74.1,369.8z"/>
<path class="st7" d="M73.6,369.5c0.5,0,0.9-0.2,1.2-0.7c0.3-0.4,0.5-1,0.5-1.6c0-0.6-0.2-1.2-0.5-1.6c-0.3-0.4-0.8-0.7-1.2-0.7
	c-0.5,0-0.9,0.2-1.2,0.7c-0.3,0.4-0.5,1-0.5,1.6c0,0.6,0.2,1.2,0.5,1.6C72.7,369.2,73.1,369.5,73.6,369.5z"/>
<path class="st7" d="M74.6,369c0.5,0,0.9-0.2,1.2-0.7c0.3-0.4,0.5-1,0.5-1.6c0-0.6-0.2-1.2-0.5-1.6c-0.3-0.4-0.8-0.7-1.2-0.7
	c-0.5,0-0.9,0.2-1.2,0.7c-0.3,0.4-0.5,1-0.5,1.6c0,0.6,0.2,1.2,0.5,1.6C73.7,368.7,74.1,369,74.6,369z"/>
<path class="st7" d="M74.1,367.5c0.5,0,0.9-0.2,1.2-0.7c0.3-0.4,0.5-1,0.5-1.6c0-0.6-0.2-1.2-0.5-1.6c-0.3-0.4-0.8-0.7-1.2-0.7
	c-0.5,0-0.9,0.2-1.2,0.7c-0.3,0.4-0.5,1-0.5,1.6c0,0.6,0.2,1.2,0.5,1.6C73.2,367.3,73.6,367.5,74.1,367.5z"/>
<rect x="52.9" y="56.8" class="st1" width="347.9" height="339.5"/>
<path class="st7" d="M74,367.6c0.5,0,0.9-0.2,1.2-0.7c0.3-0.4,0.5-1,0.5-1.6c0-0.6-0.2-1.2-0.5-1.6c-0.3-0.4-0.8-0.7-1.2-0.7
	s-0.9,0.2-1.2,0.7s-0.5,1-0.5,1.6c0,0.6,0.2,1.2,0.5,1.6C73.1,367.4,73.6,367.6,74,367.6z"/>
<path class="st7" d="M77.6,360.1c0.5,0,0.9-0.2,1.2-0.7c0.3-0.4,0.5-1,0.5-1.6c0-0.6-0.2-1.2-0.5-1.6c-0.3-0.4-0.8-0.7-1.2-0.7
	c-0.5,0-0.9,0.2-1.2,0.7c-0.3,0.4-0.5,1-0.5,1.6c0,0.6,0.2,1.2,0.5,1.6C76.7,359.9,77.2,360.1,77.6,360.1z"/>
<path class="st7" d="M73,368c0.5,0,0.9-0.2,1.2-0.7c0.3-0.4,0.5-1,0.5-1.6c0-0.6-0.2-1.2-0.5-1.6c-0.3-0.4-0.8-0.7-1.2-0.7
	c-0.5,0-0.9,0.2-1.2,0.7c-0.3,0.4-0.5,1-0.5,1.6c0,0.6,0.2,1.2,0.5,1.6C72.2,367.8,72.6,368,73,368z"/>
<rect x="52.1" y="58.2" class="st1" width="347.9" height="330.2"/>
<path class="st7" d="M74.9,368.9c0.5,0,0.9-0.2,1.2-0.7c0.3-0.4,0.5-1,0.5-1.6c0-0.6-0.2-1.2-0.5-1.6c-0.3-0.4-0.8-0.7-1.2-0.7
	c-0.5,0-0.9,0.2-1.2,0.7c-0.3,0.4-0.5,1-0.5,1.6c0,0.6,0.2,1.2,0.5,1.6C74,368.6,74.4,368.9,74.9,368.9z"/>
<rect x="52.1" y="58.2" class="st1" width="347.9" height="330.2"/>
<path class="st7" d="M72.6,369.4c0.5,0,0.9-0.2,1.2-0.7c0.3-0.4,0.5-1,0.5-1.6c0-0.6-0.2-1.2-0.5-1.6c-0.3-0.4-0.8-0.7-1.2-0.7
	s-0.9,0.2-1.2,0.7c-0.3,0.4-0.5,1-0.5,1.6c0,0.6,0.2,1.2,0.5,1.6C71.7,369.1,72.1,369.4,72.6,369.4z"/>
<path class="st7" d="M74.3,370.1c0.5,0,0.9-0.2,1.2-0.7c0.3-0.4,0.5-1,0.5-1.6c0-0.6-0.2-1.2-0.5-1.6c-0.3-0.4-0.8-0.7-1.2-0.7
	c-0.5,0-0.9,0.2-1.2,0.7c-0.3,0.4-0.5,1-0.5,1.6c0,0.6,0.2,1.2,0.5,1.6C73.4,369.8,73.8,370.1,74.3,370.1z"/>
<rect x="52.1" y="58.2" class="st1" width="347.9" height="330.2"/>
<path class="st7" d="M73,368.8c0.5,0,0.9-0.2,1.2-0.7c0.3-0.4,0.5-1,0.5-1.6c0-0.6-0.2-1.2-0.5-1.6c-0.3-0.4-0.8-0.7-1.2-0.7
	s-0.9,0.2-1.2,0.7c-0.3,0.4-0.5,1-0.5,1.6c0,0.6,0.2,1.2,0.5,1.6C72.1,368.6,72.6,368.8,73,368.8z"/>
<rect x="52.1" y="58.2" class="st10" width="347.9" height="330.2"/>
<path class="st7" d="M74.2,366.2c0.5,0,0.9-0.2,1.2-0.7c0.3-0.4,0.5-1,0.5-1.6c0-0.6-0.2-1.2-0.5-1.6c-0.3-0.4-0.8-0.7-1.2-0.7
	c-0.5,0-0.9,0.2-1.2,0.7c-0.3,0.4-0.5,1-0.5,1.6c0,0.6,0.2,1.2,0.5,1.6C73.3,366,73.7,366.2,74.2,366.2z"/>
<path class="st7" d="M75.4,365.7c0.5,0,0.9-0.2,1.2-0.7c0.3-0.4,0.5-1,0.5-1.6c0-0.6-0.2-1.2-0.5-1.6c-0.3-0.4-0.8-0.7-1.2-0.7
	c-0.5,0-0.9,0.2-1.2,0.7c-0.3,0.4-0.5,1-0.5,1.6c0,0.6,0.2,1.2,0.5,1.6C74.5,365.5,75,365.7,75.4,365.7z"/>
<path class="st7" d="M74.4,368.8c0.5,0,0.9-0.2,1.2-0.7s0.5-1,0.5-1.6c0-0.6-0.2-1.2-0.5-1.6c-0.3-0.4-0.8-0.7-1.2-0.7
	c-0.5,0-0.9,0.2-1.2,0.7c-0.3,0.4-0.5,1-0.5,1.6c0,0.6,0.2,1.2,0.5,1.6C73.5,368.5,73.9,368.8,74.4,368.8z"/>
<path class="st7" d="M67.9,374.9c0.5,0,0.9-0.2,1.2-0.7c0.3-0.4,0.5-1,0.5-1.6c0-0.6-0.2-1.2-0.5-1.6c-0.3-0.4-0.8-0.7-1.2-0.7
	c-0.5,0-0.9,0.2-1.2,0.7c-0.3,0.4-0.5,1-0.5,1.6c0,0.6,0.2,1.2,0.5,1.6C67,374.7,67.4,374.9,67.9,374.9z"/>
<polyline class="st1" points="45.5,463.1 45.5,449.4 60.4,449.4 60.4,463.1 "/>
<path class="st11" d="M45.5,463.1h14.9v-13.7H45.5V463.1z"/>
<polyline class="st1" points="45.5,463.1 45.5,449.4 60.4,449.4 60.4,463.1 "/>
<path class="st12" d="M406.2,206.1"/>
<polyline class="st1" points="45.5,463.1 45.5,449.4 60.4,449.4 60.4,463.1 "/>
<path id="m692218908d_00000060027788734076090900000016809165878972302737_" class="st8" d="M52.9,457.8c0.4,0,0.9-0.2,1.2-0.4
	c0.3-0.3,0.5-0.7,0.5-1.1c0-0.4-0.2-0.8-0.5-1.1c-0.3-0.3-0.7-0.4-1.2-0.4c-0.4,0-0.9,0.2-1.2,0.4c-0.3,0.3-0.5,0.7-0.5,1.1
	c0,0.4,0.2,0.8,0.5,1.1C52.1,457.6,52.5,457.8,52.9,457.8z"/>
<polyline class="st1" points="45.5,482.8 45.5,469.1 60.4,469.1 60.4,482.8 "/>
<path class="st11" d="M45.5,482.8h14.9v-13.7H45.5V482.8z"/>
<polyline class="st1" points="45.5,482.8 45.5,469.1 60.4,469.1 60.4,482.8 "/>
<path class="st12" d="M406.2,230.1"/>
<path id="m49e3eb8bbe_00000052786703773385822130000012057172199041579703_" class="st7" d="M52.9,477.5c0.4,0,0.9-0.2,1.2-0.4
	c0.3-0.3,0.5-0.7,0.5-1.1s-0.2-0.8-0.5-1.1c-0.3-0.3-0.7-0.4-1.2-0.4c-0.4,0-0.9,0.2-1.2,0.4s-0.5,0.7-0.5,1.1s0.2,0.8,0.5,1.1
	C52.1,477.4,52.5,477.5,52.9,477.5z"/>
<path id="DejaVuSans-20_00000078751065989573708140000008140400537177440918_" d="M92.9,50.2"/>
<path id="DejaVuSans-20_00000012462632018966515640000014692710975381583504_" d="M158.6,50.2"/>
<path id="DejaVuSans-20_00000121991303218042488760000005481705268184417927_" d="M185.7,50.2"/>
<path id="DejaVuSans-20_00000100362400219812997100000010542458867555672759_" d="M230.6,50.2"/>
<path id="DejaVuSans-20_00000067923417235659397270000007818434680672330134_" d="M263.7,50.2"/>
<path id="DejaVuSans-20_00000174577714655273617850000014643045590931068084_" d="M318.4,50.2"/>
<path id="DejaVuSans-20_00000098206775496479637560000015979871194562125455_" d="M347.8,50.2"/>
<path id="DejaVuSans-20_00000028305758515542873970000015795083287383511710_" d="M382.9,71.1"/>
<path id="DejaVuSans-20_00000127005666813157558090000002348951924006421398_" d="M360.6,68"/>
<path id="DejaVuSans-20_00000009578186063430272600000015700824873917456271_" d="M371.2,68"/>
<path id="DejaVuSans-20_00000016061840753766898410000006115221421922036905_" d="M411.5,68"/>
<path id="DejaVuSans-20_00000136395798917624400280000017342690561254183093_" d="M384.8,89.8"/>
<text transform="matrix(0.585 -1.672387e-03 1.542819e-03 1 24.0696 36.7352)" class="st15 st16">Manhattan employees who worked more overtime than regular hours and are no longer employed</text>
<text transform="matrix(1.018 0 0 1 47.7169 443.2861)" class="st15 st17">Agency</text>
<text transform="matrix(1.018 0 0 1 62.2951 459.583)" class="st15 st18">Parks &amp; Recreation</text>
<text transform="matrix(1.018 0 0 1 62.9708 479.3066)" class="st15 st18">NYPD</text>
<text transform="matrix(-2.101196e-03 -1.3614 1 -2.860551e-03 21.9596 260.7583)" class="st15 st19">Overtime hours</text>
<text transform="matrix(0.7345 8.075759e-04 -5.931986e-04 1 182.0253 423.0656)"><tspan x="0" y="0" class="st15 st20">Overtime</tspan><tspan x="49.5" y="0" class="st15 st20"> </tspan><tspan x="53.2" y="0" class="st15 st20">hour</tspan></text>
<rect x="39.3" y="372.3" class="st1" width="11.7" height="8.9"/>
<text transform="matrix(0.7345 0 0 1 47.5109 378.582)" class="st15 st21">0</text>
<rect x="39" y="308.1" class="st1" width="11.7" height="8.9"/>
<text transform="matrix(0.7345 0 0 1 40.0577 314.3809)" class="st15 st21">500</text>
<rect x="34.9" y="245.2" class="st1" width="15.8" height="8.9"/>
<text transform="matrix(0.7345 0 0 1 36.4943 251.4131)" class="st15 st21">1000</text>
<rect x="31.2" y="181.5" class="st1" width="20.1" height="8.9"/>
<text transform="matrix(0.7345 0 0 1 37.0128 187.7354)" class="st15 st21">1500</text>
<rect x="31.2" y="118.7" class="st1" width="20.1" height="8.9"/>
<text transform="matrix(0.7345 0 0 1 37.0128 124.9111)" class="st15 st21">2000</text>
<rect x="31.1" y="54.7" class="st1" width="20.1" height="8.9"/>
<text transform="matrix(0.7345 0 0 1 36.9493 60.9844)" class="st15 st21">2500</text>
<rect x="48.6" y="399" class="st1" width="20.1" height="8.9"/>
<text transform="matrix(0.7345 0 0 1 65.0997 405.2432)" class="st15 st21">0</text>
<rect x="147.7" y="398.9" class="st1" width="24" height="8.9"/>
<text transform="matrix(0.7345 0 0 1 148.5577 405.1387)" class="st15 st21">$50,000</text>
<rect x="246.3" y="398.8" class="st1" width="28.5" height="8.9"/>
<text transform="matrix(0.7345 0 0 1 248.0616 405.084)" class="st15 st21">$100,000</text>
<rect x="347.4" y="398.9" class="st1" width="27.6" height="8.9"/>
<text transform="matrix(0.7345 0 0 1 348.3048 405.1025)" class="st15 st21">$150,000</text>
<line class="st22" x1="381.7" y1="68" x2="369.7" y2="109.8"/>
<line class="st23" x1="381.8" y1="67.8" x2="372.8" y2="72.7"/>
<line class="st23" x1="381.5" y1="67.7" x2="386.8" y2="75.9"/>
<text transform="matrix(0.7971 0 0 1 311.7189 118.4316)"><tspan x="0" y="0" class="st24 st25">One NYPD cop made over </tspan><tspan x="0" y="10.4" class="st24 st25">$162,000 in overtime </tspan><tspan x="0" y="20.7" class="st24 st25">pay in 2020</tspan></text>
</svg>
