<?xml version="1.0" encoding="utf-8"?>
<!-- Generator: Adobe Illustrator 26.0.3, SVG Export Plug-In . SVG Version: 6.00 Build 0)  -->
<svg version="1.1" id="Layer_1" xmlns="http://www.w3.org/2000/svg" xmlns:xlink="http://www.w3.org/1999/xlink" x="0px" y="0px"
	 viewBox="0 0 445 318.2" style="enable-background:new 0 0 445 318.2;" xml:space="preserve">
<style type="text/css">
	.st0{fill:none;}
	.st1{fill:none;stroke:#E5E5E5;stroke-width:0.8;stroke-linejoin:round;}
	.st2{fill:none;stroke:#333333;stroke-width:1.5;stroke-linejoin:round;}
	.st3{fill:none;stroke:#FAFAFA;stroke-linejoin:round;}
	.st4{fill:#A157DB;stroke:#A157DB;stroke-width:0.8862;stroke-linejoin:round;}
	.st5{fill:#57D3DB;stroke:#57D3DB;stroke-width:0.8862;stroke-linejoin:round;}
	.st6{fill:#91DB57;stroke:#91DB57;stroke-width:0.8862;stroke-linejoin:round;}
	.st7{fill:#DB5F57;stroke:#DB5F57;stroke-width:0.8862;stroke-linejoin:round;}
	.st8{fill:#F2F2F2;stroke:#CCCCCC;}
	.st9{fill:none;stroke:#1F77B4;stroke-width:1.5;stroke-linecap:square;stroke-linejoin:round;}
	.st10{stroke:#000000;stroke-width:0.8862;stroke-linejoin:round;}
	.st11{stroke:#000000;stroke-width:0.8862;}
	.st12{font-family:'ArialMT';}
	.st13{font-size:11.3193px;}
	.st14{font-size:8.2986px;}
	.st15{font-size:9.4841px;}
	.st16{font-size:5.9276px;}
</style>
<rect x="-1664" y="-733.4" class="st0" width="521.9" height="388.9"/>
<path class="st1" d="M-1632.6-344.4v-388.9"/>
<path class="st2" d="M-1632.6-344.4"/>
<rect x="-1664" y="-733.4" class="st0" width="521.9" height="388.9"/>
<path class="st1" d="M-1535.2-344.4v-388.9"/>
<path class="st2" d="M-1535.2-344.4"/>
<rect x="-1664" y="-733.4" class="st0" width="521.9" height="388.9"/>
<path class="st1" d="M-1437.8-344.4v-388.9"/>
<path class="st2" d="M-1437.8-344.4"/>
<rect x="-1664" y="-733.4" class="st0" width="521.9" height="388.9"/>
<path class="st1" d="M-1340.4-344.4v-388.9"/>
<path class="st2" d="M-1340.4-344.4"/>
<rect x="-1664" y="-733.4" class="st0" width="521.9" height="388.9"/>
<path class="st1" d="M-1243-344.4v-388.9"/>
<path class="st2" d="M-1243-344.4"/>
<rect x="-1664" y="-733.4" class="st0" width="521.9" height="388.9"/>
<path class="st1" d="M-1145.6-344.4v-388.9"/>
<path class="st2" d="M-1145.6-344.4"/>
<rect x="-1664" y="-733.4" class="st0" width="521.9" height="388.9"/>
<path class="st3" d="M-1583.9-344.4v-388.9"/>
<rect x="-1664" y="-733.4" class="st0" width="521.9" height="388.9"/>
<path class="st3" d="M-1486.5-344.4v-388.9"/>
<rect x="-1664" y="-733.4" class="st0" width="521.9" height="388.9"/>
<path class="st3" d="M-1389.1-344.4v-388.9"/>
<rect x="-1664" y="-733.4" class="st0" width="521.9" height="388.9"/>
<path class="st3" d="M-1291.7-344.4v-388.9"/>
<rect x="-1664" y="-733.4" class="st0" width="521.9" height="388.9"/>
<path class="st3" d="M-1194.3-344.4v-388.9"/>
<rect x="-1664" y="-733.4" class="st0" width="521.9" height="388.9"/>
<path class="st1" d="M-1664.6-404.3h519"/>
<path class="st2" d="M-1656-404.3"/>
<rect x="-1664" y="-733.4" class="st0" width="521.9" height="388.9"/>
<path class="st1" d="M-1664.6-471.8h519"/>
<path class="st2" d="M-1656-471.8"/>
<rect x="-1664" y="-733.4" class="st0" width="521.9" height="388.9"/>
<path class="st1" d="M-1664.6-539.3h519"/>
<path class="st2" d="M-1656-539.3"/>
<rect x="-1664" y="-733.4" class="st0" width="521.9" height="388.9"/>
<path class="st1" d="M-1664.6-606.8h519"/>
<path class="st2" d="M-1656-606.8"/>
<rect x="-1664" y="-733.4" class="st0" width="521.9" height="388.9"/>
<path class="st1" d="M-1664.6-674.3h519"/>
<path class="st2" d="M-1656-674.3"/>
<rect x="-1664" y="-733.4" class="st0" width="521.9" height="388.9"/>
<path class="st3" d="M-1664.6-370.6h519"/>
<rect x="-1664" y="-733.4" class="st0" width="521.9" height="388.9"/>
<path class="st3" d="M-1664.6-438.1h519"/>
<rect x="-1664" y="-733.4" class="st0" width="521.9" height="388.9"/>
<path class="st3" d="M-1664.6-505.6h519"/>
<rect x="-1664" y="-733.4" class="st0" width="521.9" height="388.9"/>
<path class="st3" d="M-1664.6-573.1h519"/>
<rect x="-1664" y="-733.4" class="st0" width="521.9" height="388.9"/>
<path class="st3" d="M-1664.6-640.6h519"/>
<rect x="-1664" y="-733.4" class="st0" width="521.9" height="388.9"/>
<path class="st3" d="M-1664.6-708.1h519"/>
<rect x="-1664" y="-733.4" class="st0" width="521.9" height="388.9"/>
<path class="st4" d="M-1254.4-665.7l-8.4,16.8h16.8L-1254.4-665.7z"/>
<rect x="-1664" y="-733.4" class="st0" width="521.9" height="388.9"/>
<path class="st5" d="M-1450.5-515.8l-8.4,16.8h16.8L-1450.5-515.8z"/>
<rect x="-1664" y="-733.4" class="st0" width="521.9" height="388.9"/>
<path class="st6" d="M-1451.2-490.5l-8.4,16.8h16.8L-1451.2-490.5z"/>
<path id="m1ca9dc7005" class="st5" d="M-1458.1-707.3c2.2,0,4.4-0.9,6-2.5c1.6-1.6,2.5-3.7,2.5-6c0-2.2-0.9-4.4-2.5-6
	s-3.7-2.5-6-2.5s-4.4,0.9-6,2.5s-2.5,3.7-2.5,6c0,2.2,0.9,4.4,2.5,6C-1462.5-708.1-1460.3-707.3-1458.1-707.3z"/>
<path class="st7" d="M-1166.2-564.3h16.8v-16.8h-16.8V-564.3z"/>
<path class="st7" d="M-1409.4-476.6h16.8v-16.8h-16.8V-476.6z"/>
<path class="st7" d="M-1494.7-358.4h16.8v-16.8h-16.8V-358.4z"/>
<path class="st4" d="M-1502.3-353.7h16.8v-16.8h-16.8V-353.7z"/>
<path class="st6" d="M-1508.2-424.9h16.8v-16.8h-16.8V-424.9z"/>
<path class="st7" d="M-1640.7-417.8h16.8v-16.8h-16.8V-417.8z"/>
<polyline class="st0" points="-1141,-585.3 -1141,-600.3 -1125.9,-600.3 -1125.9,-585.3 "/>
<path class="st8" d="M-1141-585.3h15v-15h-15V-585.3z"/>
<polyline class="st0" points="-1141,-585.3 -1141,-600.3 -1125.9,-600.3 -1125.9,-585.3 "/>
<path class="st9" d="M-1133.4-592.8"/>
<polyline class="st0" points="-1141,-585.3 -1141,-600.3 -1125.9,-600.3 -1125.9,-585.3 "/>
<path id="ma6feaf8bf8" class="st10" d="M-1133.3-587.8c1.3,0,2.5-0.5,3.4-1.4c0.9-0.9,1.4-2.1,1.4-3.4s-0.5-2.5-1.4-3.4
	c-0.9-0.9-2.1-1.4-3.4-1.4s-2.5,0.5-3.4,1.4c-0.9,0.9-1.4,2.1-1.4,3.4s0.5,2.5,1.4,3.4C-1135.8-588.3-1134.6-587.8-1133.3-587.8z"/>
<path id="DejaVuSans-20_00000112626849762765539450000003011070659937849731_" d="M-1084.1-592.5"/>
<path id="DejaVuSans-20_00000103246741153113333920000013777595754683621283_" d="M-1070-592.5"/>
<polyline class="st0" points="-1141,-568.3 -1141,-583.4 -1125.9,-583.4 -1125.9,-568.3 "/>
<path class="st8" d="M-1141-568.3h15v-15h-15V-568.3z"/>
<polyline class="st0" points="-1141,-568.3 -1141,-583.4 -1125.9,-583.4 -1125.9,-568.3 "/>
<path class="st9" d="M-1133.4-575.8"/>
<polyline class="st0" points="-1141,-568.3 -1141,-583.4 -1125.9,-583.4 -1125.9,-568.3 "/>
<path id="m2edb37b4b9" class="st11" d="M-1133.4-580.6l-5,9.5h9.9L-1133.4-580.6z"/>
<polyline class="st0" points="-1141,-551.4 -1141,-566.4 -1125.9,-566.4 -1125.9,-551.4 "/>
<path class="st8" d="M-1141-551.4h15v-15h-15V-551.4z"/>
<polyline class="st0" points="-1141,-551.4 -1141,-566.4 -1125.9,-566.4 -1125.9,-551.4 "/>
<path class="st9" d="M-1133.4-558.9"/>
<polyline class="st0" points="-1141,-551.4 -1141,-566.4 -1125.9,-566.4 -1125.9,-551.4 "/>
<path id="m2e602bd9f0" class="st11" d="M-1138-554.3h10.4v-9.4h-10.4V-554.3z"/>
<polyline class="st0" points="-1140,-494.2 -1140,-509.3 -1124.9,-509.3 -1124.9,-494.2 "/>
<path class="st8" d="M-1140-494.2h15v-15h-15V-494.2z"/>
<polyline class="st0" points="-1140,-494.2 -1140,-509.3 -1124.9,-509.3 -1124.9,-494.2 "/>
<path class="st9" d="M-1132.4-501.8"/>
<polyline class="st0" points="-1140,-494.2 -1140,-509.3 -1124.9,-509.3 -1124.9,-494.2 "/>
<path id="mb72cb1a150" class="st7" d="M-1132.5-497.4c1.4,0,2.8-0.5,3.9-1.4c1-0.9,1.6-2,1.6-3.3c0-1.2-0.6-2.4-1.6-3.3
	s-2.4-1.4-3.9-1.4c-1.4,0-2.8,0.5-3.9,1.4s-1.6,2-1.6,3.3c0,1.2,0.6,2.4,1.6,3.3C-1135.3-497.9-1133.9-497.4-1132.5-497.4z"/>
<polyline class="st0" points="-1140,-477.3 -1140,-492.3 -1124.9,-492.3 -1124.9,-477.3 "/>
<path class="st8" d="M-1140-477.3h15v-15h-15V-477.3z"/>
<polyline class="st0" points="-1140,-477.3 -1140,-492.3 -1124.9,-492.3 -1124.9,-477.3 "/>
<path class="st9" d="M-1132.4-484.8"/>
<polyline class="st0" points="-1140,-477.3 -1140,-492.3 -1124.9,-492.3 -1124.9,-477.3 "/>
<path id="mb45e63d19c" class="st6" d="M-1132.5-480c1.4,0,2.8-0.5,3.9-1.4s1.6-2.2,1.6-3.5c0-1.3-0.6-2.5-1.6-3.5s-2.4-1.4-3.9-1.4
	c-1.4,0-2.8,0.5-3.9,1.4s-1.6,2.2-1.6,3.5c0,1.3,0.6,2.5,1.6,3.5S-1133.9-480-1132.5-480z"/>
<polyline class="st0" points="-1140,-460.3 -1140,-475.4 -1124.9,-475.4 -1124.9,-460.3 "/>
<path class="st8" d="M-1140-460.3h15v-15h-15V-460.3z"/>
<polyline class="st0" points="-1140,-460.3 -1140,-475.4 -1124.9,-475.4 -1124.9,-460.3 "/>
<path class="st9" d="M-1132.4-467.9"/>
<polyline class="st0" points="-1140,-460.3 -1140,-475.4 -1124.9,-475.4 -1124.9,-460.3 "/>
<path id="m607884b033" class="st5" d="M-1132.5-463c1.4,0,2.8-0.5,3.9-1.5c1-1,1.6-2.3,1.6-3.7s-0.6-2.7-1.6-3.7s-2.4-1.5-3.9-1.5
	c-1.4,0-2.8,0.5-3.9,1.5s-1.6,2.3-1.6,3.7s0.6,2.7,1.6,3.7C-1135.3-463.6-1133.9-463-1132.5-463z"/>
<polyline class="st0" points="-1140,-443.4 -1140,-458.4 -1124.9,-458.4 -1124.9,-443.4 "/>
<path class="st8" d="M-1140-443.4h15v-15h-15V-443.4z"/>
<polyline class="st0" points="-1140,-443.4 -1140,-458.4 -1124.9,-458.4 -1124.9,-443.4 "/>
<path class="st9" d="M-1132.4-450.9"/>
<polyline class="st0" points="-1140,-443.4 -1140,-458.4 -1124.9,-458.4 -1124.9,-443.4 "/>
<path id="m13217c0d52" class="st4" d="M-1132.5-445.6c1.4,0,2.8-0.6,3.9-1.6c1-1,1.6-2.4,1.6-3.8s-0.6-2.8-1.6-3.8
	c-1-1-2.4-1.6-3.9-1.6c-1.4,0-2.8,0.6-3.9,1.6c-1,1-1.6,2.4-1.6,3.8s0.6,2.8,1.6,3.8C-1135.3-446.2-1133.9-445.6-1132.5-445.6z"/>
<text transform="matrix(1.0278 -2.158550e-03 2.100211e-03 1 -1689.9728 -780.8318)"><tspan x="0" y="0" class="st12" style="font-size:19.0959px;">NYC Housing Authority and Dept of Health and Mental hygiene </tspan><tspan x="0" y="22.9" class="st12" style="font-size:19.0959px;">made ove</tspan><tspan x="83.9" y="22.9" class="st12" style="font-size:19.0959px;">r</tspan><tspan x="89.8" y="22.9" class="st12" style="font-size:19.0959px;"> $230,500 in overtime pay in 2021</tspan></text>
<text transform="matrix(-2.101200e-03 -1 1 -2.101200e-03 -1711.9517 -479.577)" class="st12" style="font-size:14px;">Overtime hours</text>
<rect x="-1712" y="-409.8" class="st0" width="42" height="14"/>
<text transform="matrix(0.7345 0 0 1 -1696.1394 -398.3816)" class="st12" style="font-size:16px;">2000</text>
<rect x="-1712" y="-477.4" class="st0" width="42" height="14"/>
<text transform="matrix(0.7345 0 0 1 -1696.1394 -465.9393)" class="st12" style="font-size:16px;">2100</text>
<rect x="-1712.2" y="-545.4" class="st0" width="42" height="14"/>
<text transform="matrix(0.7345 0 0 1 -1696.4146 -533.9734)" class="st12" style="font-size:16px;">2200</text>
<rect x="-1712" y="-612.5" class="st0" width="42" height="14"/>
<text transform="matrix(0.7345 0 0 1 -1696.1394 -601.0927)" class="st12" style="font-size:16px;">2300</text>
<rect x="-1657.8" y="-340.4" class="st0" width="49.5" height="13.2"/>
<text transform="matrix(0.7345 0 0 1 -1657.3812 -328.9595)" class="st12" style="font-size:16px;">$200,000</text>
<rect x="-1554.4" y="-340.4" class="st0" width="49.5" height="13.2"/>
<text transform="matrix(0.7345 0 0 1 -1553.9692 -328.9595)" class="st12" style="font-size:16px;">$210,000</text>
<rect x="-1462.6" y="-340.4" class="st0" width="49.5" height="13.2"/>
<text transform="matrix(0.7345 0 0 1 -1462.093 -328.9691)" class="st12" style="font-size:16px;">$220,000</text>
<rect x="-1365.2" y="-342.4" class="st0" width="49.5" height="13.2"/>
<text transform="matrix(0.7345 0 0 1 -1364.6871 -330.9691)" class="st12" style="font-size:16px;">$230,000</text>
<rect x="-1267.8" y="-342.4" class="st0" width="49.5" height="13.2"/>
<text transform="matrix(0.7345 0 0 1 -1267.2812 -330.9691)" class="st12" style="font-size:16px;">$240,000</text>
<rect x="-1174" y="-341.9" class="st0" width="49.5" height="13.2"/>
<text transform="matrix(0.7345 0 0 1 -1173.5531 -330.4299)" class="st12" style="font-size:16px;">$250,000</text>
<text transform="matrix(1 -2.100728e-03 2.100728e-03 1 -1443.7391 -304.9005)" class="st12" style="font-size:14px;">Overtime paid</text>
<text transform="matrix(0.9465 0 0 1 -1140.1449 -608.0905)" class="st12" style="font-size:14px;">Agency</text>
<text transform="matrix(0.9465 0 0 1 -1121.9562 -590.8678)" class="st12" style="font-size:10px;">Board of Election</text>
<text transform="matrix(0.9465 0 0 1 -1123.1344 -573.7861)" class="st12" style="font-size:10px;">Dept of Health/Mental hygiene</text>
<path class="st1" d="M-1665.6-343.5v-389.8"/>
<path class="st1" d="M-1665.6-733.4h519.8"/>
<path class="st1" d="M-1664.8-343.9h519.7"/>
<rect x="-1716.8" y="-679.7" class="st0" width="42" height="14"/>
<text transform="matrix(0.7345 0 0 1 -1700.9661 -668.212)" class="st12" style="font-size:16px;">2400</text>
<text transform="matrix(0.9465 0 0 1 -1121.9567 -556.3262)" class="st12" style="font-size:10px;">NYC Housing Authority</text>
<text transform="matrix(0.9465 0 0 1 -1136.9564 -515.8538)" class="st12" style="font-size:14px;">Borough</text>
<text transform="matrix(0.9465 0 0 1 -1121.8103 -499.1685)" class="st12" style="font-size:10px;">Bronx</text>
<text transform="matrix(0.9465 0 0 1 -1121.1198 -481.6772)" class="st12" style="font-size:10px;">Brooklyn</text>
<text transform="matrix(0.9465 0 0 1 -1121.1196 -463.0068)" class="st12" style="font-size:10px;">Manhattan</text>
<text transform="matrix(0.9465 0 0 1 -1121.1195 -445.6393)" class="st12" style="font-size:10px;">Queens</text>
<rect x="-3025.9" y="19.6" class="st0" width="389.5" height="290.3"/>
<path class="st1" d="M-3002.5,309.9V19.6"/>
<path class="st2" d="M-3002.5,309.9"/>
<rect x="-3025.9" y="19.6" class="st0" width="389.5" height="290.3"/>
<path class="st1" d="M-2929.8,309.9V19.6"/>
<path class="st2" d="M-2929.8,309.9"/>
<rect x="-3025.9" y="19.6" class="st0" width="389.5" height="290.3"/>
<path class="st1" d="M-2857.1,309.9V19.6"/>
<path class="st2" d="M-2857.1,309.9"/>
<rect x="-3025.9" y="19.6" class="st0" width="389.5" height="290.3"/>
<path class="st1" d="M-2784.4,309.9V19.6"/>
<path class="st2" d="M-2784.4,309.9"/>
<rect x="-3025.9" y="19.6" class="st0" width="389.5" height="290.3"/>
<path class="st1" d="M-2711.7,309.9V19.6"/>
<path class="st2" d="M-2711.7,309.9"/>
<rect x="-3025.9" y="19.6" class="st0" width="389.5" height="290.3"/>
<path class="st1" d="M-2639,309.9V19.6"/>
<path class="st2" d="M-2639,309.9"/>
<rect x="-3025.9" y="19.6" class="st0" width="389.5" height="290.3"/>
<path class="st3" d="M-2966.1,309.9V19.6"/>
<rect x="-3025.9" y="19.6" class="st0" width="389.5" height="290.3"/>
<path class="st3" d="M-2893.4,309.9V19.6"/>
<rect x="-3025.9" y="19.6" class="st0" width="389.5" height="290.3"/>
<path class="st3" d="M-2820.7,309.9V19.6"/>
<rect x="-3025.9" y="19.6" class="st0" width="389.5" height="290.3"/>
<path class="st3" d="M-2748,309.9V19.6"/>
<rect x="-3025.9" y="19.6" class="st0" width="389.5" height="290.3"/>
<path class="st3" d="M-2675.3,309.9V19.6"/>
<rect x="-3025.9" y="19.6" class="st0" width="389.5" height="290.3"/>
<path class="st1" d="M-3026.3,265.2h387.4"/>
<path class="st2" d="M-3019.9,265.2"/>
<rect x="-3025.9" y="19.6" class="st0" width="389.5" height="290.3"/>
<path class="st1" d="M-3026.3,214.8h387.4"/>
<path class="st2" d="M-3019.9,214.8"/>
<rect x="-3025.9" y="19.6" class="st0" width="389.5" height="290.3"/>
<path class="st1" d="M-3026.3,164.4h387.4"/>
<path class="st2" d="M-3019.9,164.4"/>
<rect x="-3025.9" y="19.6" class="st0" width="389.5" height="290.3"/>
<path class="st1" d="M-3026.3,114h387.4"/>
<path class="st2" d="M-3019.9,114"/>
<rect x="-3025.9" y="19.6" class="st0" width="389.5" height="290.3"/>
<path class="st1" d="M-3026.3,63.6h387.4"/>
<path class="st2" d="M-3019.9,63.6"/>
<rect x="-3025.9" y="19.6" class="st0" width="389.5" height="290.3"/>
<path class="st3" d="M-3026.3,290.4h387.4"/>
<rect x="-3025.9" y="19.6" class="st0" width="389.5" height="290.3"/>
<path class="st3" d="M-3026.3,240h387.4"/>
<rect x="-3025.9" y="19.6" class="st0" width="389.5" height="290.3"/>
<path class="st3" d="M-3026.3,189.6h387.4"/>
<rect x="-3025.9" y="19.6" class="st0" width="389.5" height="290.3"/>
<path class="st3" d="M-3026.3,139.2h387.4"/>
<rect x="-3025.9" y="19.6" class="st0" width="389.5" height="290.3"/>
<path class="st3" d="M-3026.3,88.8h387.4"/>
<rect x="-3025.9" y="19.6" class="st0" width="389.5" height="290.3"/>
<path class="st3" d="M-3026.3,38.5h387.4"/>
<rect x="-3025.9" y="19.6" class="st0" width="389.5" height="290.3"/>
<path class="st4" d="M-2720.2,70.1l-6.3,12.6h12.6L-2720.2,70.1z"/>
<rect x="-3025.9" y="19.6" class="st0" width="389.5" height="290.3"/>
<path class="st5" d="M-2866.6,181.9l-6.3,12.6h12.6L-2866.6,181.9z"/>
<rect x="-3025.9" y="19.6" class="st0" width="389.5" height="290.3"/>
<path class="st6" d="M-2867,200.8l-6.3,12.6h12.6L-2867,200.8z"/>
<path id="m1ca9dc7005_00000173129089737226936700000008131458593729435798_" class="st5" d="M-2872.2,39.1c1.7,0,3.3-0.7,4.4-1.8
	c1.2-1.2,1.8-2.8,1.8-4.4c0-1.7-0.7-3.3-1.8-4.4c-1.2-1.2-2.8-1.8-4.4-1.8s-3.3,0.7-4.4,1.8c-1.2,1.2-1.8,2.8-1.8,4.4
	c0,1.7,0.7,3.3,1.8,4.4C-2875.5,38.4-2873.9,39.1-2872.2,39.1z"/>
<path class="st7" d="M-2654.3,145.8h12.6v-12.6h-12.6V145.8z"/>
<path class="st7" d="M-2835.9,211.3h12.6v-12.6h-12.6V211.3z"/>
<path class="st7" d="M-2899.5,299.4h12.6v-12.6h-12.6V299.4z"/>
<path class="st4" d="M-2905.2,303h12.6v-12.6h-12.6V303z"/>
<path class="st6" d="M-2909.6,249.8h12.6v-12.6h-12.6V249.8z"/>
<path class="st7" d="M-3008.5,255.1h12.6v-12.6h-12.6V255.1z"/>
<polyline class="st0" points="-2635.5,130.1 -2635.5,118.9 -2624.3,118.9 -2624.3,130.1 "/>
<path class="st8" d="M-2635.5,130.1h11.2v-11.2h-11.2V130.1z"/>
<polyline class="st0" points="-2635.5,130.1 -2635.5,118.9 -2624.3,118.9 -2624.3,130.1 "/>
<path class="st9" d="M-2629.9,124.5"/>
<polyline class="st0" points="-2635.5,130.1 -2635.5,118.9 -2624.3,118.9 -2624.3,130.1 "/>
<path id="ma6feaf8bf8_00000150791862094819558880000003062738612391932567_" class="st10" d="M-2629.8,128.2c1,0,1.9-0.4,2.6-1.1
	s1.1-1.6,1.1-2.6s-0.4-1.9-1.1-2.6s-1.6-1.1-2.6-1.1s-1.9,0.4-2.6,1.1s-1.1,1.6-1.1,2.6s0.4,1.9,1.1,2.6S-2630.8,128.2-2629.8,128.2
	z"/>
<path id="DejaVuSans-20_00000110430023516649309970000007697539103637842332_" d="M-2593,124.7"/>
<path id="DejaVuSans-20_00000010291465376638739030000005330719695529011337_" d="M-2582.6,124.7"/>
<polyline class="st0" points="-2635.5,142.8 -2635.5,131.5 -2624.3,131.5 -2624.3,142.8 "/>
<path class="st8" d="M-2635.5,142.8h11.2v-11.2h-11.2V142.8z"/>
<polyline class="st0" points="-2635.5,142.8 -2635.5,131.5 -2624.3,131.5 -2624.3,142.8 "/>
<path class="st9" d="M-2629.9,137.2"/>
<polyline class="st0" points="-2635.5,142.8 -2635.5,131.5 -2624.3,131.5 -2624.3,142.8 "/>
<path id="m2edb37b4b9_00000119080925701099225420000011808995040382171029_" class="st11" d="M-2629.9,133.6l-3.7,7.1h7.4
	L-2629.9,133.6z"/>
<polyline class="st0" points="-2635.5,155.4 -2635.5,144.2 -2624.3,144.2 -2624.3,155.4 "/>
<path class="st8" d="M-2635.5,155.4h11.2v-11.2h-11.2V155.4z"/>
<polyline class="st0" points="-2635.5,155.4 -2635.5,144.2 -2624.3,144.2 -2624.3,155.4 "/>
<path class="st9" d="M-2629.9,149.8"/>
<polyline class="st0" points="-2635.5,155.4 -2635.5,144.2 -2624.3,144.2 -2624.3,155.4 "/>
<path id="m2e602bd9f0_00000109721127865054272400000008611846913901253030_" class="st11" d="M-2633.3,153.2h7.8v-7h-7.8V153.2z"/>
<polyline class="st0" points="-2634.8,198.1 -2634.8,186.8 -2623.5,186.8 -2623.5,198.1 "/>
<path class="st8" d="M-2634.8,198.1h11.2v-11.2h-11.2V198.1z"/>
<polyline class="st0" points="-2634.8,198.1 -2634.8,186.8 -2623.5,186.8 -2623.5,198.1 "/>
<path class="st9" d="M-2629.1,192.4"/>
<polyline class="st0" points="-2634.8,198.1 -2634.8,186.8 -2623.5,186.8 -2623.5,198.1 "/>
<path id="mb72cb1a150_00000098917723911868616810000011924515975438571953_" class="st7" d="M-2629.2,195.7c1.1,0,2.1-0.4,2.9-1
	c0.8-0.6,1.2-1.5,1.2-2.4c0-0.9-0.4-1.8-1.2-2.4c-0.8-0.6-1.8-1-2.9-1s-2.1,0.4-2.9,1c-0.8,0.6-1.2,1.5-1.2,2.4
	c0,0.9,0.4,1.8,1.2,2.4C-2631.3,195.3-2630.2,195.7-2629.2,195.7z"/>
<polyline class="st0" points="-2634.8,210.7 -2634.8,199.5 -2623.5,199.5 -2623.5,210.7 "/>
<path class="st8" d="M-2634.8,210.7h11.2v-11.2h-11.2V210.7z"/>
<polyline class="st0" points="-2634.8,210.7 -2634.8,199.5 -2623.5,199.5 -2623.5,210.7 "/>
<path class="st9" d="M-2629.1,205.1"/>
<polyline class="st0" points="-2634.8,210.7 -2634.8,199.5 -2623.5,199.5 -2623.5,210.7 "/>
<path id="mb45e63d19c_00000069367734041816970930000016261294285740885643_" class="st6" d="M-2629.2,208.7c1.1,0,2.1-0.4,2.9-1.1
	c0.8-0.7,1.2-1.6,1.2-2.6s-0.4-1.9-1.2-2.6c-0.8-0.7-1.8-1.1-2.9-1.1s-2.1,0.4-2.9,1.1c-0.8,0.7-1.2,1.6-1.2,2.6s0.4,1.9,1.2,2.6
	C-2631.3,208.3-2630.2,208.7-2629.2,208.7z"/>
<polyline class="st0" points="-2634.8,223.4 -2634.8,212.1 -2623.5,212.1 -2623.5,223.4 "/>
<path class="st8" d="M-2634.8,223.4h11.2v-11.2h-11.2V223.4z"/>
<polyline class="st0" points="-2634.8,223.4 -2634.8,212.1 -2623.5,212.1 -2623.5,223.4 "/>
<path class="st9" d="M-2629.1,217.7"/>
<polyline class="st0" points="-2634.8,223.4 -2634.8,212.1 -2623.5,212.1 -2623.5,223.4 "/>
<path id="m607884b033_00000051343490514376534540000011023548536441182852_" class="st5" d="M-2629.2,221.4c1.1,0,2.1-0.4,2.9-1.1
	c0.8-0.7,1.2-1.7,1.2-2.7s-0.4-2-1.2-2.7c-0.8-0.7-1.8-1.1-2.9-1.1s-2.1,0.4-2.9,1.1c-0.8,0.7-1.2,1.7-1.2,2.7s0.4,2,1.2,2.7
	C-2631.3,221-2630.2,221.4-2629.2,221.4z"/>
<polyline class="st0" points="-2634.8,236 -2634.8,224.8 -2623.5,224.8 -2623.5,236 "/>
<path class="st8" d="M-2634.8,236h11.2v-11.2h-11.2V236z"/>
<polyline class="st0" points="-2634.8,236 -2634.8,224.8 -2623.5,224.8 -2623.5,236 "/>
<path class="st9" d="M-2629.1,230.4"/>
<polyline class="st0" points="-2634.8,236 -2634.8,224.8 -2623.5,224.8 -2623.5,236 "/>
<path id="m13217c0d52_00000067202498967751141380000002796197132983766671_" class="st4" d="M-2629.2,234.3c1.1,0,2.1-0.4,2.9-1.2
	c0.8-0.7,1.2-1.8,1.2-2.8c0-1.1-0.4-2.1-1.2-2.8c-0.8-0.7-1.8-1.2-2.9-1.2s-2.1,0.4-2.9,1.2c-0.8,0.7-1.2,1.8-1.2,2.8
	c0,1.1,0.4,2.1,1.2,2.8C-2631.3,233.9-2630.2,234.3-2629.2,234.3z"/>
<text transform="matrix(1.0278 -2.158545e-03 2.100206e-03 1 -3045.2617 -15.8287)"><tspan x="0" y="0" class="st12" style="font-size:14.2527px;">NYC Housing Authority and Dept of Health and Mental hygiene </tspan><tspan x="0" y="17.1" class="st12" style="font-size:14.2527px;">made ove</tspan><tspan x="62.6" y="17.1" class="st12" style="font-size:14.2527px;">r</tspan><tspan x="67.1" y="17.1" class="st12" style="font-size:14.2527px;"> $230,500 in overtime pay in 2021</tspan></text>
<text transform="matrix(-2.101200e-03 -1 1 -2.101200e-03 -3059.6807 209.0009)" class="st12" style="font-size:10.4492px;">Overtime hours</text>
<rect x="-3061.7" y="261.1" class="st0" width="31.3" height="10.4"/>
<text transform="matrix(0.7345 0 0 1 -3049.8794 269.602)" class="st12" style="font-size:11.942px;">2000</text>
<rect x="-3061.7" y="210.6" class="st0" width="31.3" height="10.4"/>
<text transform="matrix(0.7345 0 0 1 -3049.8794 219.1791)" class="st12" style="font-size:11.942px;">2100</text>
<rect x="-3061.9" y="159.9" class="st0" width="31.3" height="10.4"/>
<text transform="matrix(0.7345 0 0 1 -3050.085 168.4008)" class="st12" style="font-size:11.942px;">2200</text>
<rect x="-3061.7" y="109.8" class="st0" width="31.3" height="10.4"/>
<text transform="matrix(0.7345 0 0 1 -3049.8794 118.3041)" class="st12" style="font-size:11.942px;">2300</text>
<rect x="-3021.3" y="312.9" class="st0" width="36.9" height="9.8"/>
<text transform="matrix(0.7345 0 0 1 -3020.9492 321.4174)" class="st12" style="font-size:11.942px;">$200,000</text>
<rect x="-2944.1" y="312.9" class="st0" width="36.9" height="9.8"/>
<text transform="matrix(0.7345 0 0 1 -2943.7651 321.4174)" class="st12" style="font-size:11.942px;">$210,000</text>
<rect x="-2875.5" y="312.9" class="st0" width="36.9" height="9.8"/>
<text transform="matrix(0.7345 0 0 1 -2875.1914 321.4106)" class="st12" style="font-size:11.942px;">$220,000</text>
<rect x="-2802.8" y="311.4" class="st0" width="36.9" height="9.8"/>
<text transform="matrix(0.7345 0 0 1 -2802.4912 319.9174)" class="st12" style="font-size:11.942px;">$230,000</text>
<rect x="-2730.1" y="311.4" class="st0" width="36.9" height="9.8"/>
<text transform="matrix(0.7345 0 0 1 -2729.7891 319.9174)" class="st12" style="font-size:11.942px;">$240,000</text>
<rect x="-2660.2" y="311.8" class="st0" width="36.9" height="9.8"/>
<text transform="matrix(0.7345 0 0 1 -2659.833 320.3198)" class="st12" style="font-size:11.942px;">$250,000</text>
<text transform="matrix(1 -2.100723e-03 2.100723e-03 1 -2861.4792 339.3951)" class="st12" style="font-size:10.4492px;">Overtime paid</text>
<text transform="matrix(0.9465 0 0 1 -2634.8994 113.0815)" class="st12" style="font-size:10.4492px;">Agency</text>
<text transform="matrix(0.9465 0 0 1 -2621.3237 125.936)" class="st12" style="font-size:7.4637px;">Board of Election</text>
<text transform="matrix(0.9465 0 0 1 -2622.2031 138.685)" class="st12" style="font-size:7.4637px;">Dept of Health/Mental hygiene</text>
<path class="st1" d="M-3027.1,310.5V19.6"/>
<path class="st1" d="M-3027.1,19.6h387.9"/>
<path class="st1" d="M-3026.5,310.2h387.9"/>
<rect x="-3065.3" y="59.7" class="st0" width="31.3" height="10.4"/>
<text transform="matrix(0.7345 0 0 1 -3053.481 68.2084)" class="st12" style="font-size:11.942px;">2400</text>
<text transform="matrix(0.9465 0 0 1 -2621.3242 151.7172)" class="st12" style="font-size:7.4637px;">NYC Housing Authority</text>
<text transform="matrix(0.9465 0 0 1 -2632.5195 181.9252)" class="st12" style="font-size:10.4492px;">Borough</text>
<text transform="matrix(0.9465 0 0 1 -2621.2148 194.3783)" class="st12" style="font-size:7.4637px;">Bronx</text>
<text transform="matrix(0.9465 0 0 1 -2620.6997 207.433)" class="st12" style="font-size:7.4637px;">Brooklyn</text>
<text transform="matrix(0.9465 0 0 1 -2620.6997 221.3676)" class="st12" style="font-size:7.4637px;">Manhattan</text>
<text transform="matrix(0.9465 0 0 1 -2620.6992 234.3305)" class="st12" style="font-size:7.4637px;">Queens</text>
<rect x="39.4" y="48.9" class="st0" width="309.4" height="230.5"/>
<path class="st1" d="M57.9,279.4V48.9"/>
<path class="st2" d="M57.9,279.4"/>
<rect x="39.4" y="48.9" class="st0" width="309.4" height="230.5"/>
<path class="st1" d="M115.7,279.4V48.9"/>
<path class="st2" d="M115.7,279.4"/>
<rect x="39.4" y="48.9" class="st0" width="309.4" height="230.5"/>
<path class="st1" d="M173.4,279.4V48.9"/>
<path class="st2" d="M173.4,279.4"/>
<rect x="39.4" y="48.9" class="st0" width="309.4" height="230.5"/>
<path class="st1" d="M231.2,279.4V48.9"/>
<path class="st2" d="M231.2,279.4"/>
<rect x="39.4" y="48.9" class="st0" width="309.4" height="230.5"/>
<path class="st1" d="M288.9,279.4V48.9"/>
<path class="st2" d="M288.9,279.4"/>
<rect x="39.4" y="48.9" class="st0" width="309.4" height="230.5"/>
<path class="st1" d="M346.6,279.4V48.9"/>
<path class="st2" d="M346.6,279.4"/>
<rect x="39.4" y="48.9" class="st0" width="309.4" height="230.5"/>
<path class="st3" d="M86.8,279.4V48.9"/>
<rect x="39.4" y="48.9" class="st0" width="309.4" height="230.5"/>
<path class="st3" d="M144.6,279.4V48.9"/>
<rect x="39.4" y="48.9" class="st0" width="309.4" height="230.5"/>
<path class="st3" d="M202.3,279.4V48.9"/>
<rect x="39.4" y="48.9" class="st0" width="309.4" height="230.5"/>
<path class="st3" d="M260,279.4V48.9"/>
<rect x="39.4" y="48.9" class="st0" width="309.4" height="230.5"/>
<path class="st3" d="M317.8,279.4V48.9"/>
<rect x="39.4" y="48.9" class="st0" width="309.4" height="230.5"/>
<path class="st1" d="M39,243.9h307.6"/>
<path class="st2" d="M44.1,243.9"/>
<rect x="39.4" y="48.9" class="st0" width="309.4" height="230.5"/>
<path class="st1" d="M39,203.9h307.6"/>
<path class="st2" d="M44.1,203.9"/>
<rect x="39.4" y="48.9" class="st0" width="309.4" height="230.5"/>
<path class="st1" d="M39,163.9h307.6"/>
<path class="st2" d="M44.1,163.9"/>
<rect x="39.4" y="48.9" class="st0" width="309.4" height="230.5"/>
<path class="st1" d="M39,123.9h307.6"/>
<path class="st2" d="M44.1,123.9"/>
<rect x="39.4" y="48.9" class="st0" width="309.4" height="230.5"/>
<path class="st1" d="M39,83.9h307.6"/>
<path class="st2" d="M44.1,83.9"/>
<rect x="39.4" y="48.9" class="st0" width="309.4" height="230.5"/>
<path class="st3" d="M39,263.9h307.6"/>
<rect x="39.4" y="48.9" class="st0" width="309.4" height="230.5"/>
<path class="st3" d="M39,223.9h307.6"/>
<rect x="39.4" y="48.9" class="st0" width="309.4" height="230.5"/>
<path class="st3" d="M39,183.9h307.6"/>
<rect x="39.4" y="48.9" class="st0" width="309.4" height="230.5"/>
<path class="st3" d="M39,143.9h307.6"/>
<rect x="39.4" y="48.9" class="st0" width="309.4" height="230.5"/>
<path class="st3" d="M39,103.9h307.6"/>
<rect x="39.4" y="48.9" class="st0" width="309.4" height="230.5"/>
<path class="st3" d="M39,63.9h307.6"/>
<rect x="39.4" y="48.9" class="st0" width="309.4" height="230.5"/>
<path class="st4" d="M282.1,89l-5,10h10L282.1,89z"/>
<rect x="39.4" y="48.9" class="st0" width="309.4" height="230.5"/>
<path class="st5" d="M165.9,177.8l-5,10h10L165.9,177.8z"/>
<rect x="39.4" y="48.9" class="st0" width="309.4" height="230.5"/>
<path class="st6" d="M165.5,192.8l-5,10h10L165.5,192.8z"/>
<path id="m1ca9dc7005_00000101081728590301432910000010992532900219440768_" class="st5" d="M161.4,64.3c1.3,0,2.6-0.5,3.5-1.5
	c0.9-0.9,1.5-2.2,1.5-3.5s-0.5-2.6-1.5-3.5c-0.9-0.9-2.2-1.5-3.5-1.5c-1.3,0-2.6,0.5-3.5,1.5c-0.9,0.9-1.5,2.2-1.5,3.5
	s0.5,2.6,1.5,3.5C158.8,63.8,160.1,64.3,161.4,64.3z"/>
<path class="st7" d="M334.4,149.1h10v-10h-10V149.1z"/>
<path class="st7" d="M190.2,201.1h10v-10h-10V201.1z"/>
<path class="st7" d="M139.7,271.1h10v-10h-10V271.1z"/>
<path class="st4" d="M135.2,273.9h10v-10h-10V273.9z"/>
<path class="st6" d="M131.7,231.7h10v-10h-10V231.7z"/>
<path class="st7" d="M53.2,235.9h10v-10h-10V235.9z"/>
<polyline class="st0" points="349.4,136.7 349.4,127.7 358.3,127.7 358.3,136.7 "/>
<path class="st8" d="M349.4,136.7h8.9v-8.9h-8.9V136.7z"/>
<polyline class="st0" points="349.4,136.7 349.4,127.7 358.3,127.7 358.3,136.7 "/>
<path class="st9" d="M353.8,132.2"/>
<polyline class="st0" points="349.4,136.7 349.4,127.7 358.3,127.7 358.3,136.7 "/>
<path id="ma6feaf8bf8_00000155830432060802579490000000123552787696323239_" class="st10" d="M353.9,135.1c0.8,0,1.5-0.3,2-0.8
	c0.5-0.5,0.8-1.3,0.8-2s-0.3-1.5-0.8-2c-0.5-0.5-1.3-0.8-2-0.8c-0.8,0-1.5,0.3-2,0.8c-0.5,0.5-0.8,1.3-0.8,2s0.3,1.5,0.8,2
	C352.4,134.8,353.2,135.1,353.9,135.1z"/>
<path id="DejaVuSans-20_00000127737255144385087300000001106495623071989641_" d="M383.1,132.4"/>
<path id="DejaVuSans-20_00000073689719135330216990000005763602544661685659_" d="M391.4,132.4"/>
<polyline class="st0" points="349.4,146.7 349.4,137.8 358.3,137.8 358.3,146.7 "/>
<path class="st8" d="M349.4,146.7h8.9v-8.9h-8.9V146.7z"/>
<polyline class="st0" points="349.4,146.7 349.4,137.8 358.3,137.8 358.3,146.7 "/>
<path class="st9" d="M353.8,142.2"/>
<polyline class="st0" points="349.4,146.7 349.4,137.8 358.3,137.8 358.3,146.7 "/>
<path id="m2edb37b4b9_00000080906790758138342030000013688637872302340746_" class="st11" d="M353.8,139.4l-2.9,5.7h5.9L353.8,139.4
	z"/>
<polyline class="st0" points="349.4,156.8 349.4,147.8 358.3,147.8 358.3,156.8 "/>
<path class="st8" d="M349.4,156.8h8.9v-8.9h-8.9V156.8z"/>
<polyline class="st0" points="349.4,156.8 349.4,147.8 358.3,147.8 358.3,156.8 "/>
<path class="st9" d="M353.8,152.3"/>
<polyline class="st0" points="349.4,156.8 349.4,147.8 358.3,147.8 358.3,156.8 "/>
<path id="m2e602bd9f0_00000147180269739510248200000012611745093245530257_" class="st11" d="M351.1,155h6.2v-5.6h-6.2V155z"/>
<polyline class="st0" points="350,190.6 350,181.7 358.9,181.7 358.9,190.6 "/>
<path class="st8" d="M350,190.6h8.9v-8.9H350V190.6z"/>
<polyline class="st0" points="350,190.6 350,181.7 358.9,181.7 358.9,190.6 "/>
<path class="st9" d="M354.4,186.2"/>
<polyline class="st0" points="350,190.6 350,181.7 358.9,181.7 358.9,190.6 "/>
<path id="mb72cb1a150_00000031921843787685389070000003328064757596236715_" class="st7" d="M354.4,188.7c0.9,0,1.7-0.3,2.3-0.8
	c0.6-0.5,0.9-1.2,0.9-1.9s-0.3-1.4-0.9-1.9c-0.6-0.5-1.4-0.8-2.3-0.8c-0.9,0-1.7,0.3-2.3,0.8c-0.6,0.5-0.9,1.2-0.9,1.9
	s0.3,1.4,0.9,1.9C352.7,188.5,353.6,188.7,354.4,188.7z"/>
<polyline class="st0" points="350,200.7 350,191.7 358.9,191.7 358.9,200.7 "/>
<path class="st8" d="M350,200.7h8.9v-8.9H350V200.7z"/>
<polyline class="st0" points="350,200.7 350,191.7 358.9,191.7 358.9,200.7 "/>
<path class="st9" d="M354.4,196.2"/>
<polyline class="st0" points="350,200.7 350,191.7 358.9,191.7 358.9,200.7 "/>
<path id="mb45e63d19c_00000165203681926192987290000001579432892834078641_" class="st6" d="M354.4,199.1c0.9,0,1.7-0.3,2.3-0.8
	c0.6-0.5,0.9-1.3,0.9-2s-0.3-1.5-0.9-2c-0.6-0.5-1.4-0.8-2.3-0.8c-0.9,0-1.7,0.3-2.3,0.8c-0.6,0.5-0.9,1.3-0.9,2s0.3,1.5,0.9,2
	C352.7,198.8,353.6,199.1,354.4,199.1z"/>
<polyline class="st0" points="350,210.7 350,201.8 358.9,201.8 358.9,210.7 "/>
<path class="st8" d="M350,210.7h8.9v-8.9H350V210.7z"/>
<polyline class="st0" points="350,210.7 350,201.8 358.9,201.8 358.9,210.7 "/>
<path class="st9" d="M354.4,206.2"/>
<polyline class="st0" points="350,210.7 350,201.8 358.9,201.8 358.9,210.7 "/>
<path id="m607884b033_00000075880612227210706300000005281409515490489490_" class="st5" d="M354.4,209.1c0.9,0,1.7-0.3,2.3-0.9
	c0.6-0.6,0.9-1.4,0.9-2.2c0-0.8-0.3-1.6-0.9-2.2c-0.6-0.6-1.4-0.9-2.3-0.9c-0.9,0-1.7,0.3-2.3,0.9c-0.6,0.6-0.9,1.4-0.9,2.2
	c0,0.8,0.3,1.6,0.9,2.2C352.7,208.8,353.6,209.1,354.4,209.1z"/>
<polyline class="st0" points="350,220.8 350,211.8 358.9,211.8 358.9,220.8 "/>
<path class="st8" d="M350,220.8h8.9v-8.9H350V220.8z"/>
<polyline class="st0" points="350,220.8 350,211.8 358.9,211.8 358.9,220.8 "/>
<path class="st9" d="M354.4,216.3"/>
<polyline class="st0" points="350,220.8 350,211.8 358.9,211.8 358.9,220.8 "/>
<path id="m13217c0d52_00000032649294661568572290000015646191606678662333_" class="st4" d="M354.4,219.4c0.9,0,1.7-0.3,2.3-0.9
	c0.6-0.6,0.9-1.4,0.9-2.2c0-0.8-0.3-1.6-0.9-2.2c-0.6-0.6-1.4-0.9-2.3-0.9c-0.9,0-1.7,0.3-2.3,0.9c-0.6,0.6-0.9,1.4-0.9,2.2
	c0,0.8,0.3,1.6,0.9,2.2C352.7,219.1,353.6,219.4,354.4,219.4z"/>
<text transform="matrix(1.0278 -2.158540e-03 2.100202e-03 1 23.9849 20.7664)"><tspan x="0" y="0" class="st12 st13">NYC Housing Authority and Dept of Health and Mental hygiene </tspan><tspan x="0" y="13.6" class="st12 st13">made ove</tspan><tspan x="49.7" y="13.6" class="st12 st13">r</tspan><tspan x="53.3" y="13.6" class="st12 st13"> $230,500 in overtime pay in 2021</tspan></text>
<text transform="matrix(-2.101200e-03 -1 1 -2.101200e-03 12.5129 199.3022)" class="st12 st14">Overtime hours</text>
<rect x="10.9" y="240.6" class="st0" width="24.9" height="8.3"/>
<text transform="matrix(0.7345 0 0 1 20.2979 247.4311)" class="st12 st15">2000</text>
<rect x="10.9" y="200.6" class="st0" width="24.9" height="8.3"/>
<text transform="matrix(0.7345 0 0 1 20.2979 207.3862)" class="st12 st15">2100</text>
<rect x="10.8" y="160.3" class="st0" width="24.9" height="8.3"/>
<text transform="matrix(0.7345 0 0 1 20.1338 167.059)" class="st12 st15">2200</text>
<rect x="10.9" y="120.5" class="st0" width="24.9" height="8.3"/>
<text transform="matrix(0.7345 0 0 1 20.2979 127.2729)" class="st12 st15">2300</text>
<rect x="43" y="281.8" class="st0" width="29.3" height="7.8"/>
<text transform="matrix(0.7345 0 0 1 43.2725 288.5815)" class="st12 st15">$200,000</text>
<rect x="104.3" y="281.8" class="st0" width="29.3" height="7.8"/>
<text transform="matrix(0.7345 0 0 1 104.5704 288.5815)" class="st12 st15">$210,000</text>
<rect x="158.8" y="281.8" class="st0" width="29.3" height="7.8"/>
<text transform="matrix(0.7345 0 0 1 159.0303 288.5766)" class="st12 st15">$220,000</text>
<rect x="216.5" y="280.6" class="st0" width="29.3" height="7.8"/>
<text transform="matrix(0.7345 0 0 1 216.7686 287.3911)" class="st12 st15">$230,000</text>
<rect x="274.2" y="280.6" class="st0" width="29.3" height="7.8"/>
<text transform="matrix(0.7345 0 0 1 274.5069 287.3911)" class="st12 st15">$240,000</text>
<rect x="329.8" y="280.9" class="st0" width="29.3" height="7.8"/>
<text transform="matrix(0.7345 0 0 1 330.0655 287.7104)" class="st12 st15">$250,000</text>
<text transform="matrix(1 -2.100718e-03 2.100718e-03 1 169.9421 302.8803)" class="st12 st14">Overtime paid</text>
<text transform="matrix(0.9465 0 0 1 349.8672 123.1254)" class="st12 st14">Agency</text>
<text transform="matrix(0.9465 0 0 1 360.6494 133.3334)" class="st12 st16">Board of Election</text>
<text transform="matrix(0.9465 0 0 1 359.9502 143.4594)" class="st12 st16">Dept of Health/Mental hygiene</text>
<path class="st1" d="M38.4,279.9V48.9"/>
<path class="st1" d="M38.4,48.9h308.1"/>
<path class="st1" d="M38.9,279.7h308"/>
<rect x="8.1" y="80.7" class="st0" width="24.9" height="8.3"/>
<text transform="matrix(0.7345 0 0 1 17.4366 87.4877)" class="st12 st15">2400</text>
<text transform="matrix(0.9465 0 0 1 360.6485 153.809)" class="st12 st16">NYC Housing Authority</text>
<text transform="matrix(0.9465 0 0 1 351.7569 177.7992)" class="st12 st14">Borough</text>
<text transform="matrix(0.9465 0 0 1 360.7354 187.6899)" class="st12 st16">Bronx</text>
<text transform="matrix(0.9465 0 0 1 361.1446 198.0571)" class="st12 st16">Brooklyn</text>
<text transform="matrix(0.9465 0 0 1 361.1446 209.1244)" class="st12 st16">Manhattan</text>
<text transform="matrix(0.9465 0 0 1 361.1455 219.4194)" class="st12 st16">Queens</text>
</svg>
