<?xml version="1.0" encoding="utf-8"?>
<!-- Generator: Adobe Illustrator 26.0.3, SVG Export Plug-In . SVG Version: 6.00 Build 0)  -->
<svg version="1.1" id="Layer_1" xmlns="http://www.w3.org/2000/svg" xmlns:xlink="http://www.w3.org/1999/xlink" x="0px" y="0px"
	 viewBox="0 0 750 380" style="enable-background:new 0 0 750 380;" xml:space="preserve">
<style type="text/css">
	.st0{fill:none;}
	.st1{fill:none;stroke:#333333;stroke-width:1.5;stroke-linejoin:round;}
	.st2{fill:#171717;stroke:#FFFFFF;stroke-width:6;stroke-linejoin:round;}
	.st3{fill:#F2F2F2;}
	.st4{fill:none;stroke:#1F77B4;stroke-width:1.5;stroke-linecap:square;stroke-linejoin:round;}
	.st5{fill:#DB5F57;stroke:#DB5F57;stroke-width:0.8862;stroke-linejoin:round;}
	.st6{fill:#57DB5F;stroke:#57DB5F;stroke-width:0.8862;stroke-linejoin:round;}
	.st7{fill:none;stroke:#000000;stroke-width:0.2;stroke-miterlimit:10;}
	.st8{fill:none;stroke:#333333;stroke-width:1.5;stroke-linecap:square;stroke-linejoin:round;}
	.st9{fill:none;stroke:#FFFFFF;stroke-width:0.5;stroke-linecap:square;stroke-linejoin:round;}
	.st10{fill:none;stroke:#FFFFFF;stroke-linecap:square;stroke-linejoin:round;}
	.st11{font-family:'ArialMT';}
	.st12{font-size:13.3003px;}
	.st13{fill:#36454F;}
	.st14{font-family:'MyriadPro-Regular';}
	.st15{font-size:12.1919px;}
	.st16{font-size:14.0655px;}
	.st17{font-size:11px;}
	.st18{font-size:14px;}
	.st19{font-size:10px;}
</style>
<rect x="46.9" y="67.3" class="st0" width="310.5" height="270"/>
<path class="st1" d="M-93.1,330.9"/>
<rect x="46.9" y="67.3" class="st0" width="310.5" height="270"/>
<path class="st1" d="M-38.3,330.9"/>
<rect x="46.9" y="67.3" class="st0" width="310.5" height="270"/>
<path class="st1" d="M-3.8,330.7"/>
<rect x="46.9" y="67.3" class="st0" width="310.5" height="270"/>
<path class="st1" d="M46.4,340.5"/>
<rect x="46.9" y="67.3" class="st0" width="310.5" height="270"/>
<path class="st1" d="M5.9,327.8"/>
<rect x="46.9" y="67.3" class="st0" width="310.5" height="270"/>
<path class="st2" d="M47.3,337.3v-270"/>
<path class="st1" d="M32.3,347.3"/>
<rect x="46.9" y="67.3" class="st0" width="310.5" height="270"/>
<rect x="46.9" y="67.3" class="st0" width="310.5" height="270"/>
<rect x="46.9" y="67.3" class="st0" width="310.5" height="270"/>
<rect x="46.9" y="67.3" class="st0" width="310.5" height="270"/>
<rect x="46.9" y="67.3" class="st0" width="310.5" height="270"/>
<rect x="46.9" y="67.3" class="st0" width="310.5" height="270"/>
<path class="st1" d="M46.9,326.9"/>
<rect x="46.9" y="67.3" class="st0" width="310.5" height="270"/>
<path class="st1" d="M46.9,260.8"/>
<rect x="46.9" y="67.3" class="st0" width="310.5" height="270"/>
<path class="st1" d="M46.9,194.7"/>
<rect x="46.9" y="67.3" class="st0" width="310.5" height="270"/>
<path class="st1" d="M46.9,128.7"/>
<rect x="46.9" y="67.3" class="st0" width="310.5" height="270"/>
<rect x="46.9" y="67.3" class="st0" width="310.5" height="270"/>
<path id="DejaVuSans-20" d="M17.5,228"/>
<path id="DejaVuSans-20_00000127002469105902773140000005373200405735257269_" d="M17.5,194.4"/>
<polyline class="st0" points="674.4,202.9 674.4,186.2 691,186.2 691,202.9 "/>
<path class="st3" d="M674.4,202.9H691v-16.6h-16.6V202.9z"/>
<polyline class="st0" points="674.4,202.9 674.4,186.2 691,186.2 691,202.9 "/>
<path class="st4" d="M682.7,194.6"/>
<polyline class="st0" points="674.4,202.9 674.4,186.2 691,186.2 691,202.9 "/>
<path id="m7e3595c533" class="st5" d="M682.7,196.4c0.5,0,1-0.2,1.3-0.5c0.3-0.3,0.5-0.8,0.5-1.3s-0.2-1-0.5-1.3
	c-0.3-0.3-0.8-0.5-1.3-0.5s-1,0.2-1.3,0.5c-0.3,0.3-0.5,0.8-0.5,1.3s0.2,1,0.5,1.3C681.7,196.2,682.2,196.4,682.7,196.4z"/>
<polyline class="st0" points="674.4,221.6 674.4,205 691,205 691,221.6 "/>
<path class="st3" d="M674.4,221.6H691V205h-16.6V221.6z"/>
<polyline class="st0" points="674.4,221.6 674.4,205 691,205 691,221.6 "/>
<path class="st4" d="M682.7,213.3"/>
<polyline class="st0" points="674.4,221.6 674.4,205 691,205 691,221.6 "/>
<path id="mffdbdef117" class="st6" d="M682.7,215.2c0.5,0,1-0.2,1.3-0.5c0.3-0.3,0.5-0.8,0.5-1.3s-0.2-1-0.5-1.3
	c-0.3-0.3-0.8-0.5-1.3-0.5s-1,0.2-1.3,0.5c-0.3,0.3-0.5,0.8-0.5,1.3s0.2,1,0.5,1.3C681.7,215,682.2,215.2,682.7,215.2z"/>
<rect x="46.1" y="67.3" class="st0" width="310.5" height="270"/>
<path class="st7" d="M59.3,337.3v-270"/>
<path class="st8" d="M59.3,337.3"/>
<rect x="46.1" y="67.3" class="st0" width="310.5" height="270"/>
<path class="st7" d="M117,337.3v-270"/>
<path class="st8" d="M117,337.3"/>
<rect x="46.1" y="67.3" class="st0" width="310.5" height="270"/>
<path class="st7" d="M174.8,337.3v-270"/>
<path class="st8" d="M174.8,337.3"/>
<rect x="46.1" y="67.3" class="st0" width="310.5" height="270"/>
<path class="st7" d="M232.6,337.3v-270"/>
<path class="st8" d="M232.6,337.3"/>
<rect x="46.1" y="67.3" class="st0" width="310.5" height="270"/>
<path class="st7" d="M290.3,337.3v-270"/>
<path class="st8" d="M290.3,337.3"/>
<rect x="46.1" y="67.3" class="st0" width="310.5" height="270"/>
<path class="st8" d="M348.1,337.3"/>
<rect x="46.1" y="67.3" class="st0" width="310.5" height="270"/>
<path class="st9" d="M88.2,337.3v-270"/>
<rect x="46.1" y="67.3" class="st0" width="310.5" height="270"/>
<path class="st9" d="M145.9,337.3v-270"/>
<rect x="46.1" y="67.3" class="st0" width="310.5" height="270"/>
<path class="st9" d="M203.7,337.3v-270"/>
<rect x="46.1" y="67.3" class="st0" width="310.5" height="270"/>
<path class="st9" d="M261.5,337.3v-270"/>
<rect x="46.1" y="67.3" class="st0" width="310.5" height="270"/>
<path class="st9" d="M319.2,337.3v-270"/>
<rect x="46.1" y="67.3" class="st0" width="310.5" height="270"/>
<path class="st7" d="M46.1,326.9h301.2"/>
<rect x="46.1" y="67.3" class="st0" width="310.5" height="270"/>
<path class="st7" d="M46.1,260.8h301.2"/>
<rect x="46.1" y="67.3" class="st0" width="310.5" height="270"/>
<path class="st7" d="M46.1,194.7h301.2"/>
<rect x="46.1" y="67.3" class="st0" width="310.5" height="270"/>
<path class="st7" d="M46.1,128.7h301.2"/>
<rect x="46.1" y="67.3" class="st0" width="310.5" height="270"/>
<path class="st7" d="M46.1,293.9h301.2"/>
<rect x="46.1" y="67.3" class="st0" width="310.5" height="270"/>
<path class="st7" d="M46.1,227.8h301.2"/>
<rect x="46.1" y="67.3" class="st0" width="310.5" height="270"/>
<path class="st7" d="M46.1,161.7h301.2"/>
<rect x="46.1" y="67.3" class="st0" width="310.5" height="270"/>
<path class="st7" d="M46.1,95.6h301.2"/>
<rect x="46.1" y="67.3" class="st0" width="310.5" height="270"/>
<path class="st5" d="M158,113.4c0.5,0,1-0.2,1.3-0.5c0.4-0.3,0.5-0.8,0.5-1.2c0-0.5-0.2-0.9-0.5-1.2c-0.4-0.3-0.8-0.5-1.3-0.5
	s-1,0.2-1.3,0.5c-0.4,0.3-0.5,0.8-0.5,1.2c0,0.5,0.2,0.9,0.5,1.2C157,113.2,157.5,113.4,158,113.4z"/>
<rect x="46.1" y="67.3" class="st0" width="310.5" height="270"/>
<path class="st5" d="M148.5,81.3c0.5,0,1-0.2,1.3-0.5c0.4-0.3,0.5-0.8,0.5-1.2c0-0.5-0.2-0.9-0.5-1.2c-0.4-0.3-0.8-0.5-1.3-0.5
	s-1,0.2-1.3,0.5c-0.4,0.3-0.5,0.8-0.5,1.2c0,0.5,0.2,0.9,0.5,1.2C147.6,81.1,148,81.3,148.5,81.3z"/>
<rect x="46.1" y="67.3" class="st0" width="310.5" height="270"/>
<path class="st5" d="M125.7,158.7c0.5,0,1-0.2,1.3-0.5c0.4-0.3,0.5-0.8,0.5-1.2s-0.2-0.9-0.5-1.2c-0.4-0.3-0.8-0.5-1.3-0.5
	s-1,0.2-1.3,0.5c-0.4,0.3-0.5,0.8-0.5,1.2s0.2,0.9,0.5,1.2C124.7,158.5,125.2,158.7,125.7,158.7z"/>
<rect x="46.1" y="67.3" class="st0" width="310.5" height="270"/>
<path class="st5" d="M107.5,243.7c0.5,0,1-0.2,1.3-0.5c0.4-0.3,0.5-0.8,0.5-1.2c0-0.5-0.2-0.9-0.5-1.2c-0.4-0.3-0.8-0.5-1.3-0.5
	c-0.5,0-1,0.2-1.3,0.5c-0.4,0.3-0.5,0.8-0.5,1.2c0,0.5,0.2,0.9,0.5,1.2C106.5,243.5,107,243.7,107.5,243.7z"/>
<rect x="46.1" y="67.3" class="st0" width="310.5" height="270"/>
<path class="st5" d="M98.3,236.1c0.5,0,1-0.2,1.3-0.5c0.4-0.3,0.5-0.8,0.5-1.2s-0.2-0.9-0.5-1.2c-0.4-0.3-0.8-0.5-1.3-0.5
	s-1,0.2-1.3,0.5c-0.4,0.3-0.5,0.8-0.5,1.2s0.2,0.9,0.5,1.2C97.4,235.9,97.8,236.1,98.3,236.1z"/>
<rect x="46.1" y="67.3" class="st0" width="310.5" height="270"/>
<path class="st5" d="M117.7,202.1c0.5,0,1-0.2,1.3-0.5c0.4-0.3,0.5-0.8,0.5-1.2c0-0.5-0.2-0.9-0.5-1.2c-0.4-0.3-0.8-0.5-1.3-0.5
	c-0.5,0-1,0.2-1.3,0.5c-0.4,0.3-0.5,0.8-0.5,1.2c0,0.5,0.2,0.9,0.5,1.2C116.7,201.9,117.2,202.1,117.7,202.1z"/>
<rect x="46.1" y="67.3" class="st0" width="310.5" height="270"/>
<path class="st5" d="M114.3,173.8c0.5,0,1-0.2,1.3-0.5c0.4-0.3,0.5-0.8,0.5-1.2c0-0.5-0.2-0.9-0.5-1.2c-0.4-0.3-0.8-0.5-1.3-0.5
	s-1,0.2-1.3,0.5c-0.4,0.3-0.5,0.8-0.5,1.2c0,0.5,0.2,0.9,0.5,1.2C113.4,173.6,113.8,173.8,114.3,173.8z"/>
<rect x="46.1" y="67.3" class="st0" width="310.5" height="270"/>
<path class="st5" d="M101,217.2c0.5,0,1-0.2,1.3-0.5c0.4-0.3,0.5-0.8,0.5-1.2s-0.2-0.9-0.5-1.2c-0.4-0.3-0.8-0.5-1.3-0.5
	s-1,0.2-1.3,0.5c-0.4,0.3-0.5,0.8-0.5,1.2s0.2,0.9,0.5,1.2C100,217.1,100.5,217.2,101,217.2z"/>
<rect x="46.1" y="67.3" class="st0" width="310.5" height="270"/>
<path class="st5" d="M70.6,317.3c0.5,0,1-0.2,1.3-0.5c0.4-0.3,0.5-0.8,0.5-1.2c0-0.5-0.2-0.9-0.5-1.2c-0.4-0.3-0.8-0.5-1.3-0.5
	s-1,0.2-1.3,0.5c-0.4,0.3-0.5,0.8-0.5,1.2c0,0.5,0.2,0.9,0.5,1.2C69.6,317.1,70.1,317.3,70.6,317.3z"/>
<rect x="46.1" y="67.3" class="st0" width="310.5" height="270"/>
<path class="st5" d="M100.3,255c0.5,0,1-0.2,1.3-0.5c0.4-0.3,0.5-0.8,0.5-1.2s-0.2-0.9-0.5-1.2c-0.4-0.3-0.8-0.5-1.3-0.5
	s-1,0.2-1.3,0.5c-0.4,0.3-0.5,0.8-0.5,1.2s0.2,0.9,0.5,1.2C99.3,254.8,99.8,255,100.3,255z"/>
<rect x="46.1" y="67.3" class="st0" width="310.5" height="270"/>
<path class="st5" d="M85.8,255c0.5,0,1-0.2,1.3-0.5c0.4-0.3,0.5-0.8,0.5-1.2s-0.2-0.9-0.5-1.2c-0.4-0.3-0.8-0.5-1.3-0.5
	s-1,0.2-1.3,0.5c-0.4,0.3-0.5,0.8-0.5,1.2s0.2,0.9,0.5,1.2C84.8,254.8,85.3,255,85.8,255z"/>
<rect x="46.1" y="67.3" class="st0" width="310.5" height="270"/>
<path class="st5" d="M92.6,243.7c0.5,0,1-0.2,1.3-0.5c0.4-0.3,0.5-0.8,0.5-1.2s-0.2-0.9-0.5-1.2c-0.4-0.3-0.8-0.5-1.3-0.5
	c-0.5,0-1,0.2-1.3,0.5c-0.4,0.3-0.5,0.8-0.5,1.2s0.2,0.9,0.5,1.2C91.7,243.5,92.1,243.7,92.6,243.7z"/>
<rect x="46.1" y="67.3" class="st0" width="310.5" height="270"/>
<path class="st5" d="M80.3,321.1c0.5,0,1-0.2,1.3-0.5c0.4-0.3,0.5-0.8,0.5-1.2s-0.2-0.9-0.5-1.2c-0.4-0.3-0.8-0.5-1.3-0.5
	s-1,0.2-1.3,0.5c-0.4,0.3-0.5,0.8-0.5,1.2s0.2,0.9,0.5,1.2C79.3,320.9,79.8,321.1,80.3,321.1z"/>
<rect x="46.1" y="67.3" class="st0" width="310.5" height="270"/>
<path class="st5" d="M71.8,309.7c0.5,0,1-0.2,1.3-0.5c0.4-0.3,0.5-0.8,0.5-1.2c0-0.5-0.2-0.9-0.5-1.2c-0.4-0.3-0.8-0.5-1.3-0.5
	s-1,0.2-1.3,0.5c-0.4,0.3-0.5,0.8-0.5,1.2c0,0.5,0.2,0.9,0.5,1.2C70.8,309.6,71.3,309.7,71.8,309.7z"/>
<rect x="46.1" y="67.3" class="st0" width="310.5" height="270"/>
<path class="st5" d="M83.4,321.1c0.5,0,1-0.2,1.3-0.5c0.4-0.3,0.5-0.8,0.5-1.2s-0.2-0.9-0.5-1.2c-0.4-0.3-0.8-0.5-1.3-0.5
	s-1,0.2-1.3,0.5c-0.4,0.3-0.5,0.8-0.5,1.2s0.2,0.9,0.5,1.2C82.5,320.9,82.9,321.1,83.4,321.1z"/>
<rect x="46.1" y="67.3" class="st0" width="310.5" height="270"/>
<path class="st5" d="M63.8,321.1c0.5,0,1-0.2,1.3-0.5c0.4-0.3,0.5-0.8,0.5-1.2s-0.2-0.9-0.5-1.2c-0.4-0.3-0.8-0.5-1.3-0.5
	c-0.5,0-1,0.2-1.3,0.5c-0.4,0.3-0.5,0.8-0.5,1.2s0.2,0.9,0.5,1.2C62.8,320.9,63.3,321.1,63.8,321.1z"/>
<rect x="46.1" y="67.3" class="st0" width="310.5" height="270"/>
<path class="st5" d="M69.1,321.1c0.5,0,1-0.2,1.3-0.5c0.4-0.3,0.5-0.8,0.5-1.2s-0.2-0.9-0.5-1.2c-0.4-0.3-0.8-0.5-1.3-0.5
	c-0.5,0-1,0.2-1.3,0.5c-0.4,0.3-0.5,0.8-0.5,1.2s0.2,0.9,0.5,1.2C68.1,320.9,68.6,321.1,69.1,321.1z"/>
<rect x="46.1" y="67.3" class="st0" width="310.5" height="270"/>
<path class="st5" d="M63.8,321.1c0.5,0,1-0.2,1.3-0.5c0.4-0.3,0.5-0.8,0.5-1.2s-0.2-0.9-0.5-1.2c-0.4-0.3-0.8-0.5-1.3-0.5
	c-0.5,0-1,0.2-1.3,0.5c-0.4,0.3-0.5,0.8-0.5,1.2s0.2,0.9,0.5,1.2C62.8,320.9,63.3,321.1,63.8,321.1z"/>
<rect x="46.1" y="67.3" class="st0" width="310.5" height="270"/>
<path class="st5" d="M75.9,321.1c0.5,0,1-0.2,1.3-0.5c0.4-0.3,0.5-0.8,0.5-1.2s-0.2-0.9-0.5-1.2c-0.4-0.3-0.8-0.5-1.3-0.5
	s-1,0.2-1.3,0.5c-0.4,0.3-0.5,0.8-0.5,1.2s0.2,0.9,0.5,1.2C74.9,320.9,75.4,321.1,75.9,321.1z"/>
<rect x="46.1" y="67.3" class="st0" width="310.5" height="270"/>
<path class="st5" d="M62.1,321.1c0.5,0,1-0.2,1.3-0.5c0.4-0.3,0.5-0.8,0.5-1.2s-0.2-0.9-0.5-1.2c-0.4-0.3-0.8-0.5-1.3-0.5
	s-1,0.2-1.3,0.5c-0.4,0.3-0.5,0.8-0.5,1.2s0.2,0.9,0.5,1.2C61.1,320.9,61.6,321.1,62.1,321.1z"/>
<rect x="46.1" y="67.3" class="st0" width="310.5" height="270"/>
<path class="st5" d="M65.8,321.1c0.5,0,1-0.2,1.3-0.5c0.4-0.3,0.5-0.8,0.5-1.2s-0.2-0.9-0.5-1.2c-0.4-0.3-0.8-0.5-1.3-0.5
	s-1,0.2-1.3,0.5c-0.4,0.3-0.5,0.8-0.5,1.2s0.2,0.9,0.5,1.2C64.8,320.9,65.3,321.1,65.8,321.1z"/>
<rect x="46.1" y="67.3" class="st0" width="310.5" height="270"/>
<path class="st5" d="M63.9,321.1c0.5,0,1-0.2,1.3-0.5c0.4-0.3,0.5-0.8,0.5-1.2s-0.2-0.9-0.5-1.2c-0.4-0.3-0.8-0.5-1.3-0.5
	c-0.5,0-1,0.2-1.3,0.5c-0.4,0.3-0.5,0.8-0.5,1.2s0.2,0.9,0.5,1.2C62.9,320.9,63.4,321.1,63.9,321.1z"/>
<rect x="46.1" y="67.3" class="st7" width="301.2" height="270"/>
<path class="st5" d="M66.3,321.1c0.5,0,1-0.2,1.3-0.5c0.4-0.3,0.5-0.8,0.5-1.2s-0.2-0.9-0.5-1.2c-0.4-0.3-0.8-0.5-1.3-0.5
	s-1,0.2-1.3,0.5c-0.4,0.3-0.5,0.8-0.5,1.2s0.2,0.9,0.5,1.2C65.4,320.9,65.8,321.1,66.3,321.1z"/>
<path class="st5" d="M72,310.1c0.5,0,1-0.2,1.3-0.5c0.4-0.3,0.5-0.8,0.5-1.2s-0.2-0.9-0.5-1.2c-0.4-0.3-0.8-0.5-1.3-0.5
	s-1,0.2-1.3,0.5c-0.4,0.3-0.5,0.8-0.5,1.2s0.2,0.9,0.5,1.2C71,309.9,71.5,310.1,72,310.1z"/>
<path class="st5" d="M60.7,326.7c0.5,0,1-0.2,1.3-0.5c0.4-0.3,0.5-0.8,0.5-1.2s-0.2-0.9-0.5-1.2c-0.4-0.3-0.8-0.5-1.3-0.5
	s-1,0.2-1.3,0.5c-0.4,0.3-0.5,0.8-0.5,1.2s0.2,0.9,0.5,1.2C59.8,326.6,60.2,326.7,60.7,326.7z"/>
<path class="st5" d="M72.5,302.2c0.5,0,1-0.2,1.3-0.5c0.4-0.3,0.5-0.8,0.5-1.2s-0.2-0.9-0.5-1.2c-0.4-0.3-0.8-0.5-1.3-0.5
	s-1,0.2-1.3,0.5c-0.4,0.3-0.5,0.8-0.5,1.2s0.2,0.9,0.5,1.2C71.5,302,72,302.2,72.5,302.2z"/>
<rect x="361.9" y="67.3" class="st0" width="310.5" height="270"/>
<path class="st7" d="M375.1,337.3v-270"/>
<path class="st8" d="M375.1,337.3"/>
<rect x="361.9" y="67.3" class="st0" width="310.5" height="270"/>
<path class="st7" d="M432.9,337.3v-270"/>
<path class="st8" d="M432.9,337.3"/>
<rect x="361.9" y="67.3" class="st0" width="310.5" height="270"/>
<path class="st7" d="M490.7,337.3v-270"/>
<path class="st8" d="M490.7,337.3"/>
<rect x="361.9" y="67.3" class="st0" width="310.5" height="270"/>
<path class="st7" d="M548.4,337.3v-270"/>
<path class="st8" d="M548.4,337.3"/>
<rect x="361.9" y="67.3" class="st0" width="310.5" height="270"/>
<path class="st7" d="M606.2,337.3v-270"/>
<path class="st8" d="M606.2,337.3"/>
<rect x="361.9" y="67.3" class="st0" width="310.5" height="270"/>
<path class="st10" d="M663.9,337.3v-270"/>
<path class="st8" d="M663.9,337.3"/>
<rect x="361.9" y="67.3" class="st0" width="310.5" height="270"/>
<path class="st9" d="M404,337.3v-270"/>
<rect x="361.9" y="67.3" class="st0" width="310.5" height="270"/>
<path class="st9" d="M461.8,337.3v-270"/>
<rect x="361.9" y="67.3" class="st0" width="310.5" height="270"/>
<path class="st9" d="M519.5,337.3v-270"/>
<rect x="361.9" y="67.3" class="st0" width="310.5" height="270"/>
<path class="st9" d="M577.3,337.3v-270"/>
<rect x="361.9" y="67.3" class="st0" width="310.5" height="270"/>
<path class="st9" d="M635.1,337.3v-270"/>
<rect x="361.9" y="67.3" class="st0" width="310.5" height="270"/>
<path class="st7" d="M361.9,326.9h305"/>
<rect x="361.9" y="67.3" class="st0" width="310.5" height="270"/>
<path class="st7" d="M361.9,260.8h305"/>
<rect x="361.9" y="67.3" class="st0" width="310.5" height="270"/>
<path class="st7" d="M361.9,194.7h305"/>
<rect x="361.9" y="67.3" class="st0" width="310.5" height="270"/>
<path class="st7" d="M361.9,128.7h305"/>
<rect x="361.9" y="67.3" class="st0" width="310.5" height="270"/>
<path class="st7" d="M361.9,293.9h305"/>
<rect x="361.9" y="67.3" class="st0" width="310.5" height="270"/>
<path class="st7" d="M361.9,227.8h305"/>
<rect x="361.9" y="67.3" class="st0" width="310.5" height="270"/>
<path class="st7" d="M361.9,161.7h305"/>
<rect x="361.9" y="67.3" class="st0" width="310.5" height="270"/>
<path class="st7" d="M361.9,95.6h305"/>
<rect x="361.9" y="67.3" class="st0" width="310.5" height="270"/>
<path class="st6" d="M658.3,108.9c0.5,0,1-0.2,1.3-0.5c0.4-0.3,0.5-0.8,0.5-1.2c0-0.5-0.2-0.9-0.5-1.2c-0.4-0.3-0.8-0.5-1.3-0.5
	c-0.5,0-1,0.2-1.3,0.5c-0.4,0.3-0.5,0.8-0.5,1.2c0,0.5,0.2,0.9,0.5,1.2C657.4,108.7,657.9,108.9,658.3,108.9z"/>
<rect x="361.9" y="67.3" class="st0" width="310.5" height="270"/>
<path class="st6" d="M402.9,253.1c0.5,0,1-0.2,1.3-0.5c0.4-0.3,0.5-0.8,0.5-1.2c0-0.5-0.2-0.9-0.5-1.2c-0.4-0.3-0.8-0.5-1.3-0.5
	c-0.5,0-1,0.2-1.3,0.5c-0.4,0.3-0.5,0.8-0.5,1.2c0,0.5,0.2,0.9,0.5,1.2C401.9,252.9,402.4,253.1,402.9,253.1z"/>
<rect x="361.9" y="67.3" class="st0" width="310.5" height="270"/>
<path class="st6" d="M407.6,255c0.5,0,1-0.2,1.3-0.5c0.4-0.3,0.5-0.8,0.5-1.2s-0.2-0.9-0.5-1.2s-0.8-0.5-1.3-0.5
	c-0.5,0-1,0.2-1.3,0.5c-0.4,0.3-0.5,0.8-0.5,1.2s0.2,0.9,0.5,1.2C406.7,254.8,407.1,255,407.6,255z"/>
<rect x="361.9" y="67.3" class="st0" width="310.5" height="270"/>
<path class="st6" d="M391.6,283.3c0.5,0,1-0.2,1.3-0.5c0.4-0.3,0.5-0.8,0.5-1.2c0-0.5-0.2-0.9-0.5-1.2c-0.4-0.3-0.8-0.5-1.3-0.5
	c-0.5,0-1,0.2-1.3,0.5c-0.4,0.3-0.5,0.8-0.5,1.2c0,0.5,0.2,0.9,0.5,1.2C390.6,283.1,391.1,283.3,391.6,283.3z"/>
<rect x="361.9" y="67.3" class="st0" width="310.5" height="270"/>
<path class="st6" d="M395.9,281.4c0.5,0,1-0.2,1.3-0.5c0.4-0.3,0.5-0.8,0.5-1.2s-0.2-0.9-0.5-1.2c-0.4-0.3-0.8-0.5-1.3-0.5
	c-0.5,0-1,0.2-1.3,0.5c-0.4,0.3-0.5,0.8-0.5,1.2s0.2,0.9,0.5,1.2C394.9,281.2,395.4,281.4,395.9,281.4z"/>
<rect x="361.9" y="67.3" class="st0" width="310.5" height="270"/>
<path class="st6" d="M401.5,255c0.5,0,1-0.2,1.3-0.5c0.4-0.3,0.5-0.8,0.5-1.2s-0.2-0.9-0.5-1.2s-0.8-0.5-1.3-0.5
	c-0.5,0-1,0.2-1.3,0.5c-0.4,0.3-0.5,0.8-0.5,1.2s0.2,0.9,0.5,1.2C400.5,254.8,401,255,401.5,255z"/>
<rect x="361.9" y="67.3" class="st0" width="310.5" height="270"/>
<path class="st6" d="M397.4,290.9c0.5,0,1-0.2,1.3-0.5c0.4-0.3,0.5-0.8,0.5-1.2s-0.2-0.9-0.5-1.2c-0.4-0.3-0.8-0.5-1.3-0.5
	c-0.5,0-1,0.2-1.3,0.5c-0.4,0.3-0.5,0.8-0.5,1.2s0.2,0.9,0.5,1.2C396.4,290.7,396.9,290.9,397.4,290.9z"/>
<rect x="361.9" y="67.3" class="st0" width="310.5" height="270"/>
<path class="st6" d="M402,255c0.5,0,1-0.2,1.3-0.5c0.4-0.3,0.5-0.8,0.5-1.2s-0.2-0.9-0.5-1.2s-0.8-0.5-1.3-0.5c-0.5,0-1,0.2-1.3,0.5
	c-0.4,0.3-0.5,0.8-0.5,1.2s0.2,0.9,0.5,1.2C401,254.8,401.5,255,402,255z"/>
<path class="st6" d="M381.6,313.5c0.5,0,1-0.2,1.3-0.5c0.4-0.3,0.5-0.8,0.5-1.2s-0.2-0.9-0.5-1.2c-0.4-0.3-0.8-0.5-1.3-0.5
	c-0.5,0-1,0.2-1.3,0.5c-0.4,0.3-0.5,0.8-0.5,1.2s0.2,0.9,0.5,1.2C380.6,313.3,381.1,313.5,381.6,313.5z"/>
<path class="st6" d="M393.3,290.9c0.5,0,1-0.2,1.3-0.5c0.4-0.3,0.5-0.8,0.5-1.2s-0.2-0.9-0.5-1.2c-0.4-0.3-0.8-0.5-1.3-0.5
	c-0.5,0-1,0.2-1.3,0.5c-0.4,0.3-0.5,0.8-0.5,1.2s0.2,0.9,0.5,1.2C392.3,290.7,392.8,290.9,393.3,290.9z"/>
<path class="st6" d="M385.8,302.2c0.5,0,1-0.2,1.3-0.5c0.4-0.3,0.5-0.8,0.5-1.2c0-0.5-0.2-0.9-0.5-1.2c-0.4-0.3-0.8-0.5-1.3-0.5
	c-0.5,0-1,0.2-1.3,0.5c-0.4,0.3-0.5,0.8-0.5,1.2c0,0.5,0.2,0.9,0.5,1.2C384.8,302,385.3,302.2,385.8,302.2z"/>
<path class="st6" d="M377.1,324.9c0.5,0,1-0.2,1.3-0.5c0.4-0.3,0.5-0.8,0.5-1.2s-0.2-0.9-0.5-1.2c-0.4-0.3-0.8-0.5-1.3-0.5
	c-0.5,0-1,0.2-1.3,0.5c-0.4,0.3-0.5,0.8-0.5,1.2s0.2,0.9,0.5,1.2C376.1,324.7,376.6,324.9,377.1,324.9z"/>
<path class="st6" d="M377.6,325.8c0.5,0,1-0.2,1.3-0.5c0.4-0.3,0.5-0.8,0.5-1.2s-0.2-0.9-0.5-1.2c-0.4-0.3-0.8-0.5-1.3-0.5
	c-0.5,0-1,0.2-1.3,0.5c-0.4,0.3-0.5,0.8-0.5,1.2s0.2,0.9,0.5,1.2C376.6,325.6,377.1,325.8,377.6,325.8z"/>
<rect x="361.9" y="67.3" class="st7" width="305" height="270"/>
<path class="st6" d="M377.7,323.3c0.5,0,1-0.2,1.3-0.5c0.4-0.3,0.5-0.8,0.5-1.2c0-0.5-0.2-0.9-0.5-1.2c-0.4-0.3-0.8-0.5-1.3-0.5
	c-0.5,0-1,0.2-1.3,0.5c-0.4,0.3-0.5,0.8-0.5,1.2c0,0.5,0.2,0.9,0.5,1.2C376.7,323.2,377.2,323.3,377.7,323.3z"/>
<text transform="matrix(0.9338 0 0 1 673.5625 181.0848)" class="st11 st12">Borough</text>
<text transform="matrix(0.9338 0 0 1 692.7324 198.4124)" class="st13 st14 st15">Brooklyn</text>
<text transform="matrix(0.9338 0 0 1 692.0713 218.5814)" class="st13 st14 st15">Manhattan</text>
<text transform="matrix(1 0 0 1 111.0898 60.0545)" class="st11 st16">Fire Department</text>
<text transform="matrix(1 0 0 1 477.252 60.0545)" class="st11 st16">Police Department</text>
<text transform="matrix(-2.101200e-03 -1 1 -2.101200e-03 20.8792 243.7283)" class="st11 st17">Regular hours</text>
<text transform="matrix(1 -2.100237e-03 2.100237e-03 1 62.318 24.7025)"><tspan x="0" y="0" class="st11 st18">Police and Fire department employees who worked more</tspan><tspan x="354.1" y="0" class="st11 st18"> </tspan><tspan x="358.2" y="0" class="st11 st18">overtim</tspan><tspan x="404.1" y="0" class="st11 st18">e</tspan><tspan x="411.1" y="0" class="st11 st18"> </tspan><tspan x="415.5" y="0" class="st11 st18">than regular hours in a year</tspan><tspan x="586.7" y="0" class="st11 st18"> </tspan></text>
<rect x="27.2" y="125.1" class="st0" width="18.3" height="10.2"/>
<text transform="matrix(1 0 0 1 27.1807 132.2556)" class="st11 st19">600</text>
<rect x="27.1" y="190.2" class="st0" width="18.3" height="10.2"/>
<text transform="matrix(1 0 0 1 27.0788 197.3191)" class="st11 st19">400</text>
<rect x="28.1" y="257.2" class="st0" width="18.3" height="10.2"/>
<text transform="matrix(1 0 0 1 28.0788 264.3192)" class="st11 st19">200</text>
<rect x="24.8" y="324.3" class="st0" width="18.3" height="10.2"/>
<text transform="matrix(1 0 0 1 37.5309 331.4481)" class="st11 st19">0</text>
<rect x="44.3" y="340.2" class="st0" width="18.3" height="10.2"/>
<text transform="matrix(1 0 0 1 57.0183 347.4062)" class="st11 st19">0</text>
<rect x="107.9" y="340.2" class="st0" width="18.3" height="10.2"/>
<text transform="matrix(1 0 0 1 109.5102 347.4062)" class="st11 st19">500</text>
<rect x="162.6" y="340.2" class="st0" width="22.8" height="10.2"/>
<text transform="matrix(1 0 0 1 162.5819 347.4057)" class="st11 st19">1000</text>
<rect x="221.2" y="340.5" class="st0" width="22.8" height="10.2"/>
<text transform="matrix(1 0 0 1 221.1691 347.6219)" class="st11 st19">1500</text>
<rect x="278.9" y="340.5" class="st0" width="22.8" height="10.2"/>
<text transform="matrix(1 0 0 1 278.932 347.6219)" class="st11 st19">2000</text>
<rect x="333.8" y="340.4" class="st0" width="22.8" height="10.2"/>
<text transform="matrix(1 0 0 1 333.8122 347.561)" class="st11 st19">2500</text>
<rect x="373.1" y="340.5" class="st0" width="6.7" height="10.2"/>
<text transform="matrix(1 0 0 1 373.0586 347.6219)" class="st11 st19">0</text>
<rect x="421.1" y="340.4" class="st0" width="22.8" height="10.2"/>
<text transform="matrix(1 0 0 1 424.208 347.561)" class="st11 st19">500</text>
<rect x="479.2" y="340.6" class="st0" width="22.8" height="10.2"/>
<text transform="matrix(1 0 0 1 479.25 347.7743)" class="st11 st19">1000</text>
<rect x="537.1" y="340.3" class="st0" width="22.8" height="10.2"/>
<text transform="matrix(1 0 0 1 537.1455 347.5047)" class="st11 st19">1500</text>
<rect x="595" y="340.6" class="st0" width="22.8" height="10.2"/>
<text transform="matrix(1 0 0 1 594.9747 347.7743)" class="st11 st19">2000</text>
<rect x="655.5" y="340.3" class="st0" width="22.8" height="10.2"/>
<text transform="matrix(1 0 0 1 655.4927 347.5047)" class="st11 st19">2500</text>
<text transform="matrix(1 2.675994e-03 -2.675994e-03 1 320.2268 366.8091)" class="st11 st17">Overtime hours</text>
<rect x="-117.1" y="606.9" class="st0" width="223" height="193.8"/>
<rect x="-117.1" y="606.9" class="st0" width="223" height="193.8"/>
<rect x="-117.1" y="606.9" class="st0" width="223" height="193.8"/>
<rect x="-117.1" y="606.9" class="st0" width="223" height="193.8"/>
<path class="st1" d="M-117.4,803"/>
<rect x="-117.1" y="606.9" class="st0" width="223" height="193.8"/>
<rect x="-117.1" y="606.9" class="st0" width="223" height="193.8"/>
<path class="st2" d="M-116.7,800.7V606.9"/>
<path class="st1" d="M-127.6,807.9"/>
<rect x="-117.1" y="606.9" class="st0" width="223" height="193.8"/>
<rect x="-117.1" y="606.9" class="st0" width="223" height="193.8"/>
<rect x="-117.1" y="606.9" class="st0" width="223" height="193.8"/>
<rect x="-117.1" y="606.9" class="st0" width="223" height="193.8"/>
<rect x="-117.1" y="606.9" class="st0" width="223" height="193.8"/>
<rect x="-117.1" y="606.9" class="st0" width="223" height="193.8"/>
<path class="st1" d="M-117.1,793.3"/>
<rect x="-117.1" y="606.9" class="st0" width="223" height="193.8"/>
<path class="st1" d="M-117.1,745.8"/>
<rect x="-117.1" y="606.9" class="st0" width="223" height="193.8"/>
<path class="st1" d="M-117.1,698.4"/>
<rect x="-117.1" y="606.9" class="st0" width="223" height="193.8"/>
<path class="st1" d="M-117.1,650.9"/>
<rect x="-117.1" y="606.9" class="st0" width="223" height="193.8"/>
<rect x="-117.1" y="606.9" class="st0" width="223" height="193.8"/>
<path id="DejaVuSans-20_00000015334432939932442760000003158307917791862915_" d="M-138.1,722.2"/>
<path id="DejaVuSans-20_00000179621341537263476900000008219842544726802072_" d="M-138.1,698.2"/>
<polyline class="st0" points="335.6,704.2 335.6,692.3 347.6,692.3 347.6,704.2 "/>
<path class="st3" d="M335.6,704.2h11.9v-11.9h-11.9V704.2z"/>
<polyline class="st0" points="335.6,704.2 335.6,692.3 347.6,692.3 347.6,704.2 "/>
<path class="st4" d="M341.6,698.3"/>
<polyline class="st0" points="335.6,704.2 335.6,692.3 347.6,692.3 347.6,704.2 "/>
<path id="m7e3595c533_00000114763234688237619670000008080052165500870272_" class="st5" d="M341.6,699.6c0.4,0,0.7-0.1,0.9-0.4
	c0.3-0.3,0.4-0.6,0.4-0.9c0-0.4-0.1-0.7-0.4-0.9c-0.3-0.3-0.6-0.4-0.9-0.4s-0.7,0.1-0.9,0.4c-0.3,0.3-0.4,0.6-0.4,0.9
	c0,0.4,0.1,0.7,0.4,0.9C340.9,699.5,341.2,699.6,341.6,699.6z"/>
<polyline class="st0" points="335.6,717.7 335.6,705.7 347.6,705.7 347.6,717.7 "/>
<path class="st3" d="M335.6,717.7h11.9v-11.9h-11.9V717.7z"/>
<polyline class="st0" points="335.6,717.7 335.6,705.7 347.6,705.7 347.6,717.7 "/>
<path class="st4" d="M341.6,711.7"/>
<polyline class="st0" points="335.6,717.7 335.6,705.7 347.6,705.7 347.6,717.7 "/>
<path id="mffdbdef117_00000085951739698851156660000000294661894677380267_" class="st6" d="M341.6,713c0.4,0,0.7-0.1,0.9-0.4
	c0.3-0.3,0.4-0.6,0.4-0.9c0-0.4-0.1-0.7-0.4-0.9c-0.3-0.3-0.6-0.4-0.9-0.4s-0.7,0.1-0.9,0.4c-0.3,0.3-0.4,0.6-0.4,0.9
	c0,0.4,0.1,0.7,0.4,0.9C340.9,712.9,341.2,713,341.6,713z"/>
<rect x="-117.6" y="606.9" class="st0" width="223" height="193.8"/>
<path class="st7" d="M-108.2,800.7V606.9"/>
<path class="st8" d="M-108.2,800.7"/>
<rect x="-117.6" y="606.9" class="st0" width="223" height="193.8"/>
<path class="st7" d="M-66.7,800.7V606.9"/>
<path class="st8" d="M-66.7,800.7"/>
<rect x="-117.6" y="606.9" class="st0" width="223" height="193.8"/>
<path class="st7" d="M-25.2,800.7V606.9"/>
<path class="st8" d="M-25.2,800.7"/>
<rect x="-117.6" y="606.9" class="st0" width="223" height="193.8"/>
<path class="st7" d="M16.3,800.7V606.9"/>
<path class="st8" d="M16.3,800.7"/>
<rect x="-117.6" y="606.9" class="st0" width="223" height="193.8"/>
<path class="st7" d="M57.7,800.7V606.9"/>
<path class="st8" d="M57.7,800.7"/>
<rect x="-117.6" y="606.9" class="st0" width="223" height="193.8"/>
<path class="st8" d="M99.2,800.7"/>
<rect x="-117.6" y="606.9" class="st0" width="223" height="193.8"/>
<path class="st9" d="M-87.4,800.7V606.9"/>
<rect x="-117.6" y="606.9" class="st0" width="223" height="193.8"/>
<path class="st9" d="M-46,800.7V606.9"/>
<rect x="-117.6" y="606.9" class="st0" width="223" height="193.8"/>
<path class="st9" d="M-4.5,800.7V606.9"/>
<rect x="-117.6" y="606.9" class="st0" width="223" height="193.8"/>
<path class="st9" d="M37,800.7V606.9"/>
<rect x="-117.6" y="606.9" class="st0" width="223" height="193.8"/>
<path class="st9" d="M78.5,800.7V606.9"/>
<rect x="-117.6" y="606.9" class="st0" width="223" height="193.8"/>
<path class="st7" d="M-117.6,793.3H98.6"/>
<rect x="-117.6" y="606.9" class="st0" width="223" height="193.8"/>
<path class="st7" d="M-117.6,745.8H98.6"/>
<rect x="-117.6" y="606.9" class="st0" width="223" height="193.8"/>
<path class="st7" d="M-117.6,698.4H98.6"/>
<rect x="-117.6" y="606.9" class="st0" width="223" height="193.8"/>
<path class="st7" d="M-117.6,650.9H98.6"/>
<rect x="-117.6" y="606.9" class="st0" width="223" height="193.8"/>
<path class="st7" d="M-117.6,769.5H98.6"/>
<rect x="-117.6" y="606.9" class="st0" width="223" height="193.8"/>
<path class="st7" d="M-117.6,722.1H98.6"/>
<rect x="-117.6" y="606.9" class="st0" width="223" height="193.8"/>
<path class="st7" d="M-117.6,674.7H98.6"/>
<rect x="-117.6" y="606.9" class="st0" width="223" height="193.8"/>
<path class="st7" d="M-117.6,627.2H98.6"/>
<rect x="-117.6" y="606.9" class="st0" width="223" height="193.8"/>
<path class="st5" d="M-37.3,640c0.4,0,0.7-0.1,0.9-0.4c0.3-0.2,0.4-0.5,0.4-0.9c0-0.3-0.1-0.6-0.4-0.9c-0.3-0.2-0.6-0.4-0.9-0.4
	c-0.4,0-0.7,0.1-0.9,0.4c-0.3,0.2-0.4,0.5-0.4,0.9c0,0.3,0.1,0.6,0.4,0.9C-38,639.8-37.6,640-37.3,640z"/>
<rect x="-117.6" y="606.9" class="st0" width="223" height="193.8"/>
<path class="st5" d="M-44.1,616.9c0.4,0,0.7-0.1,0.9-0.4c0.3-0.2,0.4-0.5,0.4-0.9c0-0.3-0.1-0.6-0.4-0.9c-0.3-0.2-0.6-0.4-0.9-0.4
	s-0.7,0.1-0.9,0.4c-0.3,0.2-0.4,0.5-0.4,0.9c0,0.3,0.1,0.6,0.4,0.9C-44.8,616.8-44.4,616.9-44.1,616.9z"/>
<rect x="-117.6" y="606.9" class="st0" width="223" height="193.8"/>
<path class="st5" d="M-60.5,672.5c0.4,0,0.7-0.1,0.9-0.4c0.3-0.2,0.4-0.5,0.4-0.9c0-0.3-0.1-0.6-0.4-0.9c-0.3-0.2-0.6-0.4-0.9-0.4
	c-0.4,0-0.7,0.1-0.9,0.4c-0.3,0.2-0.4,0.5-0.4,0.9c0,0.3,0.1,0.6,0.4,0.9C-61.2,672.4-60.8,672.5-60.5,672.5z"/>
<rect x="-117.6" y="606.9" class="st0" width="223" height="193.8"/>
<path class="st5" d="M-73.5,733.5c0.4,0,0.7-0.1,0.9-0.4c0.3-0.2,0.4-0.5,0.4-0.9s-0.1-0.6-0.4-0.9c-0.3-0.2-0.6-0.4-0.9-0.4
	s-0.7,0.1-0.9,0.4c-0.3,0.2-0.4,0.5-0.4,0.9s0.1,0.6,0.4,0.9C-74.2,733.4-73.9,733.5-73.5,733.5z"/>
<rect x="-117.6" y="606.9" class="st0" width="223" height="193.8"/>
<path class="st5" d="M-80.1,728.1c0.4,0,0.7-0.1,0.9-0.4c0.3-0.2,0.4-0.5,0.4-0.9c0-0.3-0.1-0.6-0.4-0.9c-0.3-0.2-0.6-0.4-0.9-0.4
	s-0.7,0.1-0.9,0.4c-0.3,0.2-0.4,0.5-0.4,0.9c0,0.3,0.1,0.6,0.4,0.9C-80.8,728-80.5,728.1-80.1,728.1z"/>
<rect x="-117.6" y="606.9" class="st0" width="223" height="193.8"/>
<path class="st5" d="M-66.2,703.7c0.4,0,0.7-0.1,0.9-0.4c0.3-0.2,0.4-0.5,0.4-0.9c0-0.3-0.1-0.6-0.4-0.9c-0.3-0.2-0.6-0.4-0.9-0.4
	s-0.7,0.1-0.9,0.4c-0.3,0.2-0.4,0.5-0.4,0.9c0,0.3,0.1,0.6,0.4,0.9C-66.9,703.6-66.6,703.7-66.2,703.7z"/>
<rect x="-117.6" y="606.9" class="st0" width="223" height="193.8"/>
<path class="st5" d="M-68.6,683.3c0.4,0,0.7-0.1,0.9-0.4c0.3-0.2,0.4-0.5,0.4-0.9s-0.1-0.6-0.4-0.9c-0.3-0.2-0.6-0.4-0.9-0.4
	s-0.7,0.1-0.9,0.4c-0.3,0.2-0.4,0.5-0.4,0.9s0.1,0.6,0.4,0.9C-69.3,683.2-69,683.3-68.6,683.3z"/>
<rect x="-117.6" y="606.9" class="st0" width="223" height="193.8"/>
<path class="st5" d="M-78.2,714.5c0.4,0,0.7-0.1,0.9-0.4c0.3-0.2,0.4-0.5,0.4-0.9s-0.1-0.6-0.4-0.9c-0.3-0.2-0.6-0.4-0.9-0.4
	s-0.7,0.1-0.9,0.4c-0.3,0.2-0.4,0.5-0.4,0.9s0.1,0.6,0.4,0.9C-78.9,714.4-78.6,714.5-78.2,714.5z"/>
<rect x="-117.6" y="606.9" class="st0" width="223" height="193.8"/>
<path class="st5" d="M-100,786.4c0.4,0,0.7-0.1,0.9-0.4c0.3-0.2,0.4-0.5,0.4-0.9c0-0.3-0.1-0.6-0.4-0.9c-0.3-0.2-0.6-0.4-0.9-0.4
	c-0.4,0-0.7,0.1-0.9,0.4c-0.3,0.2-0.4,0.5-0.4,0.9c0,0.3,0.1,0.6,0.4,0.9C-100.7,786.2-100.4,786.4-100,786.4z"/>
<rect x="-117.6" y="606.9" class="st0" width="223" height="193.8"/>
<path class="st5" d="M-78.7,741.6c0.4,0,0.7-0.1,0.9-0.4c0.3-0.2,0.4-0.5,0.4-0.9c0-0.3-0.1-0.6-0.4-0.9c-0.3-0.2-0.6-0.4-0.9-0.4
	s-0.7,0.1-0.9,0.4c-0.3,0.2-0.4,0.5-0.4,0.9c0,0.3,0.1,0.6,0.4,0.9C-79.4,741.5-79.1,741.6-78.7,741.6z"/>
<rect x="-117.6" y="606.9" class="st0" width="223" height="193.8"/>
<path class="st5" d="M-89.1,741.6c0.4,0,0.7-0.1,0.9-0.4c0.3-0.2,0.4-0.5,0.4-0.9c0-0.3-0.1-0.6-0.4-0.9c-0.3-0.2-0.6-0.4-0.9-0.4
	s-0.7,0.1-0.9,0.4c-0.3,0.2-0.4,0.5-0.4,0.9c0,0.3,0.1,0.6,0.4,0.9C-89.8,741.5-89.5,741.6-89.1,741.6z"/>
<rect x="-117.6" y="606.9" class="st0" width="223" height="193.8"/>
<path class="st5" d="M-84.2,733.5c0.4,0,0.7-0.1,0.9-0.4c0.3-0.2,0.4-0.5,0.4-0.9c0-0.3-0.1-0.6-0.4-0.9c-0.3-0.2-0.6-0.4-0.9-0.4
	c-0.4,0-0.7,0.1-0.9,0.4c-0.3,0.2-0.4,0.5-0.4,0.9c0,0.3,0.1,0.6,0.4,0.9C-84.9,733.4-84.6,733.5-84.2,733.5z"/>
<rect x="-117.6" y="606.9" class="st0" width="223" height="193.8"/>
<path class="st5" d="M-93.1,789.1c0.4,0,0.7-0.1,0.9-0.4c0.3-0.2,0.4-0.5,0.4-0.9c0-0.3-0.1-0.6-0.4-0.9c-0.3-0.2-0.6-0.4-0.9-0.4
	s-0.7,0.1-0.9,0.4c-0.3,0.2-0.4,0.5-0.4,0.9c0,0.3,0.1,0.6,0.4,0.9C-93.8,789-93.4,789.1-93.1,789.1z"/>
<rect x="-117.6" y="606.9" class="st0" width="223" height="193.8"/>
<path class="st5" d="M-99.2,780.9c0.4,0,0.7-0.1,0.9-0.4c0.3-0.2,0.4-0.5,0.4-0.9c0-0.3-0.1-0.6-0.4-0.9c-0.3-0.2-0.6-0.4-0.9-0.4
	s-0.7,0.1-0.9,0.4c-0.3,0.2-0.4,0.5-0.4,0.9c0,0.3,0.1,0.6,0.4,0.9C-99.9,780.8-99.6,780.9-99.2,780.9z"/>
<rect x="-117.6" y="606.9" class="st0" width="223" height="193.8"/>
<path class="st5" d="M-90.8,789.1c0.4,0,0.7-0.1,0.9-0.4c0.3-0.2,0.4-0.5,0.4-0.9c0-0.3-0.1-0.6-0.4-0.9c-0.3-0.2-0.6-0.4-0.9-0.4
	s-0.7,0.1-0.9,0.4c-0.3,0.2-0.4,0.5-0.4,0.9c0,0.3,0.1,0.6,0.4,0.9C-91.5,789-91.2,789.1-90.8,789.1z"/>
<rect x="-117.6" y="606.9" class="st0" width="223" height="193.8"/>
<path class="st5" d="M-104.9,789.1c0.4,0,0.7-0.1,0.9-0.4c0.3-0.2,0.4-0.5,0.4-0.9c0-0.3-0.1-0.6-0.4-0.9c-0.3-0.2-0.6-0.4-0.9-0.4
	c-0.4,0-0.7,0.1-0.9,0.4c-0.3,0.2-0.4,0.5-0.4,0.9c0,0.3,0.1,0.6,0.4,0.9C-105.6,789-105.3,789.1-104.9,789.1z"/>
<rect x="-117.6" y="606.9" class="st0" width="223" height="193.8"/>
<path class="st5" d="M-101.1,789.1c0.4,0,0.7-0.1,0.9-0.4c0.3-0.2,0.4-0.5,0.4-0.9c0-0.3-0.1-0.6-0.4-0.9c-0.3-0.2-0.6-0.4-0.9-0.4
	c-0.4,0-0.7,0.1-0.9,0.4c-0.3,0.2-0.4,0.5-0.4,0.9c0,0.3,0.1,0.6,0.4,0.9C-101.8,789-101.5,789.1-101.1,789.1z"/>
<rect x="-117.6" y="606.9" class="st0" width="223" height="193.8"/>
<path class="st5" d="M-104.9,789.1c0.4,0,0.7-0.1,0.9-0.4c0.3-0.2,0.4-0.5,0.4-0.9c0-0.3-0.1-0.6-0.4-0.9c-0.3-0.2-0.6-0.4-0.9-0.4
	c-0.4,0-0.7,0.1-0.9,0.4c-0.3,0.2-0.4,0.5-0.4,0.9c0,0.3,0.1,0.6,0.4,0.9C-105.6,789-105.3,789.1-104.9,789.1z"/>
<rect x="-117.6" y="606.9" class="st0" width="223" height="193.8"/>
<path class="st5" d="M-96.2,789.1c0.4,0,0.7-0.1,0.9-0.4c0.3-0.2,0.4-0.5,0.4-0.9c0-0.3-0.1-0.6-0.4-0.9c-0.3-0.2-0.6-0.4-0.9-0.4
	s-0.7,0.1-0.9,0.4c-0.3,0.2-0.4,0.5-0.4,0.9c0,0.3,0.1,0.6,0.4,0.9C-96.9,789-96.6,789.1-96.2,789.1z"/>
<rect x="-117.6" y="606.9" class="st0" width="223" height="193.8"/>
<path class="st5" d="M-106.2,789.1c0.4,0,0.7-0.1,0.9-0.4c0.3-0.2,0.4-0.5,0.4-0.9c0-0.3-0.1-0.6-0.4-0.9c-0.3-0.2-0.6-0.4-0.9-0.4
	s-0.7,0.1-0.9,0.4c-0.3,0.2-0.4,0.5-0.4,0.9c0,0.3,0.1,0.6,0.4,0.9C-106.9,789-106.5,789.1-106.2,789.1z"/>
<rect x="-117.6" y="606.9" class="st0" width="223" height="193.8"/>
<path class="st5" d="M-103.5,789.1c0.4,0,0.7-0.1,0.9-0.4c0.3-0.2,0.4-0.5,0.4-0.9c0-0.3-0.1-0.6-0.4-0.9c-0.3-0.2-0.6-0.4-0.9-0.4
	s-0.7,0.1-0.9,0.4c-0.3,0.2-0.4,0.5-0.4,0.9c0,0.3,0.1,0.6,0.4,0.9C-104.2,789-103.9,789.1-103.5,789.1z"/>
<rect x="-117.6" y="606.9" class="st0" width="223" height="193.8"/>
<path class="st5" d="M-104.8,789.1c0.4,0,0.7-0.1,0.9-0.4c0.3-0.2,0.4-0.5,0.4-0.9c0-0.3-0.1-0.6-0.4-0.9c-0.3-0.2-0.6-0.4-0.9-0.4
	c-0.4,0-0.7,0.1-0.9,0.4c-0.3,0.2-0.4,0.5-0.4,0.9c0,0.3,0.1,0.6,0.4,0.9C-105.5,789-105.2,789.1-104.8,789.1z"/>
<rect x="-117.6" y="606.9" class="st7" width="216.3" height="193.8"/>
<path class="st5" d="M-103.1,789.1c0.4,0,0.7-0.1,0.9-0.4c0.3-0.2,0.4-0.5,0.4-0.9c0-0.3-0.1-0.6-0.4-0.9c-0.3-0.2-0.6-0.4-0.9-0.4
	s-0.7,0.1-0.9,0.4c-0.3,0.2-0.4,0.5-0.4,0.9c0,0.3,0.1,0.6,0.4,0.9C-103.8,789-103.5,789.1-103.1,789.1z"/>
<path class="st5" d="M-99,781.2c0.4,0,0.7-0.1,0.9-0.4c0.3-0.2,0.4-0.5,0.4-0.9c0-0.3-0.1-0.6-0.4-0.9c-0.3-0.2-0.6-0.4-0.9-0.4
	s-0.7,0.1-0.9,0.4c-0.3,0.2-0.4,0.5-0.4,0.9c0,0.3,0.1,0.6,0.4,0.9C-99.7,781.1-99.4,781.2-99,781.2z"/>
<path class="st5" d="M-107.1,793.2c0.4,0,0.7-0.1,0.9-0.4c0.3-0.2,0.4-0.5,0.4-0.9c0-0.3-0.1-0.6-0.4-0.9c-0.3-0.2-0.6-0.4-0.9-0.4
	s-0.7,0.1-0.9,0.4c-0.3,0.2-0.4,0.5-0.4,0.9c0,0.3,0.1,0.6,0.4,0.9C-107.8,793-107.5,793.2-107.1,793.2z"/>
<path class="st5" d="M-98.7,775.5c0.4,0,0.7-0.1,0.9-0.4c0.3-0.2,0.4-0.5,0.4-0.9s-0.1-0.6-0.4-0.9c-0.3-0.2-0.6-0.4-0.9-0.4
	s-0.7,0.1-0.9,0.4c-0.3,0.2-0.4,0.5-0.4,0.9s0.1,0.6,0.4,0.9C-99.4,775.4-99.1,775.5-98.7,775.5z"/>
<rect x="109.1" y="606.9" class="st0" width="223" height="193.8"/>
<path class="st7" d="M118.6,800.7V606.9"/>
<path class="st8" d="M118.6,800.7"/>
<rect x="109.1" y="606.9" class="st0" width="223" height="193.8"/>
<path class="st7" d="M160.1,800.7V606.9"/>
<path class="st8" d="M160.1,800.7"/>
<rect x="109.1" y="606.9" class="st0" width="223" height="193.8"/>
<path class="st7" d="M201.6,800.7V606.9"/>
<path class="st8" d="M201.6,800.7"/>
<rect x="109.1" y="606.9" class="st0" width="223" height="193.8"/>
<path class="st7" d="M243,800.7V606.9"/>
<path class="st8" d="M243,800.7"/>
<rect x="109.1" y="606.9" class="st0" width="223" height="193.8"/>
<path class="st7" d="M284.5,800.7V606.9"/>
<path class="st8" d="M284.5,800.7"/>
<rect x="109.1" y="606.9" class="st0" width="223" height="193.8"/>
<path class="st10" d="M326,800.7V606.9"/>
<path class="st8" d="M326,800.7"/>
<rect x="109.1" y="606.9" class="st0" width="223" height="193.8"/>
<path class="st9" d="M139.3,800.7V606.9"/>
<rect x="109.1" y="606.9" class="st0" width="223" height="193.8"/>
<path class="st9" d="M180.8,800.7V606.9"/>
<rect x="109.1" y="606.9" class="st0" width="223" height="193.8"/>
<path class="st9" d="M222.3,800.7V606.9"/>
<rect x="109.1" y="606.9" class="st0" width="223" height="193.8"/>
<path class="st9" d="M263.8,800.7V606.9"/>
<rect x="109.1" y="606.9" class="st0" width="223" height="193.8"/>
<path class="st9" d="M305.2,800.7V606.9"/>
<rect x="109.1" y="606.9" class="st0" width="223" height="193.8"/>
<path class="st7" d="M109.1,793.3h219"/>
<rect x="109.1" y="606.9" class="st0" width="223" height="193.8"/>
<path class="st7" d="M109.1,745.8h219"/>
<rect x="109.1" y="606.9" class="st0" width="223" height="193.8"/>
<path class="st7" d="M109.1,698.4h219"/>
<rect x="109.1" y="606.9" class="st0" width="223" height="193.8"/>
<path class="st7" d="M109.1,650.9h219"/>
<rect x="109.1" y="606.9" class="st0" width="223" height="193.8"/>
<path class="st7" d="M109.1,769.5h219"/>
<rect x="109.1" y="606.9" class="st0" width="223" height="193.8"/>
<path class="st7" d="M109.1,722.1h219"/>
<rect x="109.1" y="606.9" class="st0" width="223" height="193.8"/>
<path class="st7" d="M109.1,674.7h219"/>
<rect x="109.1" y="606.9" class="st0" width="223" height="193.8"/>
<path class="st7" d="M109.1,627.2h219"/>
<rect x="109.1" y="606.9" class="st0" width="223" height="193.8"/>
<path class="st6" d="M322,636.7c0.4,0,0.7-0.1,0.9-0.4c0.3-0.2,0.4-0.5,0.4-0.9c0-0.3-0.1-0.6-0.4-0.9c-0.3-0.2-0.6-0.4-0.9-0.4
	c-0.4,0-0.7,0.1-0.9,0.4c-0.3,0.2-0.4,0.5-0.4,0.9c0,0.3,0.1,0.6,0.4,0.9C321.3,636.6,321.6,636.7,322,636.7z"/>
<rect x="109.1" y="606.9" class="st0" width="223" height="193.8"/>
<path class="st6" d="M138.5,740.3c0.4,0,0.7-0.1,0.9-0.4c0.3-0.2,0.4-0.5,0.4-0.9s-0.1-0.6-0.4-0.9c-0.3-0.2-0.6-0.4-0.9-0.4
	c-0.4,0-0.7,0.1-0.9,0.4c-0.3,0.2-0.4,0.5-0.4,0.9s0.1,0.6,0.4,0.9C137.8,740.2,138.2,740.3,138.5,740.3z"/>
<rect x="109.1" y="606.9" class="st0" width="223" height="193.8"/>
<path class="st6" d="M142,741.6c0.4,0,0.7-0.1,0.9-0.4c0.3-0.2,0.4-0.5,0.4-0.9c0-0.3-0.1-0.6-0.4-0.9c-0.3-0.2-0.6-0.4-0.9-0.4
	c-0.4,0-0.7,0.1-0.9,0.4c-0.3,0.2-0.4,0.5-0.4,0.9c0,0.3,0.1,0.6,0.4,0.9C141.3,741.5,141.6,741.6,142,741.6z"/>
<rect x="109.1" y="606.9" class="st0" width="223" height="193.8"/>
<path class="st6" d="M130.4,762c0.4,0,0.7-0.1,0.9-0.4c0.3-0.2,0.4-0.5,0.4-0.9c0-0.3-0.1-0.6-0.4-0.9c-0.3-0.2-0.6-0.4-0.9-0.4
	c-0.4,0-0.7,0.1-0.9,0.4c-0.3,0.2-0.4,0.5-0.4,0.9c0,0.3,0.1,0.6,0.4,0.9C129.7,761.8,130.1,762,130.4,762z"/>
<rect x="109.1" y="606.9" class="st0" width="223" height="193.8"/>
<path class="st6" d="M133.5,760.6c0.4,0,0.7-0.1,0.9-0.4c0.3-0.2,0.4-0.5,0.4-0.9c0-0.3-0.1-0.6-0.4-0.9c-0.3-0.2-0.6-0.4-0.9-0.4
	c-0.4,0-0.7,0.1-0.9,0.4s-0.4,0.5-0.4,0.9c0,0.3,0.1,0.6,0.4,0.9S133.1,760.6,133.5,760.6z"/>
<rect x="109.1" y="606.9" class="st0" width="223" height="193.8"/>
<path class="st6" d="M137.5,741.6c0.4,0,0.7-0.1,0.9-0.4s0.4-0.5,0.4-0.9c0-0.3-0.1-0.6-0.4-0.9s-0.6-0.4-0.9-0.4
	c-0.4,0-0.7,0.1-0.9,0.4c-0.3,0.2-0.4,0.5-0.4,0.9c0,0.3,0.1,0.6,0.4,0.9C136.8,741.5,137.2,741.6,137.5,741.6z"/>
<rect x="109.1" y="606.9" class="st0" width="223" height="193.8"/>
<path class="st6" d="M134.6,767.4c0.4,0,0.7-0.1,0.9-0.4c0.3-0.2,0.4-0.5,0.4-0.9c0-0.3-0.1-0.6-0.4-0.9c-0.3-0.2-0.6-0.4-0.9-0.4
	c-0.4,0-0.7,0.1-0.9,0.4c-0.3,0.2-0.4,0.5-0.4,0.9c0,0.3,0.1,0.6,0.4,0.9C133.9,767.3,134.2,767.4,134.6,767.4z"/>
<rect x="109.1" y="606.9" class="st0" width="223" height="193.8"/>
<path class="st6" d="M137.9,741.6c0.4,0,0.7-0.1,0.9-0.4c0.3-0.2,0.4-0.5,0.4-0.9c0-0.3-0.1-0.6-0.4-0.9c-0.3-0.2-0.6-0.4-0.9-0.4
	c-0.4,0-0.7,0.1-0.9,0.4c-0.3,0.2-0.4,0.5-0.4,0.9c0,0.3,0.1,0.6,0.4,0.9C137.2,741.5,137.5,741.6,137.9,741.6z"/>
<rect x="109.1" y="606.9" class="st0" width="223" height="193.8"/>
<path class="st6" d="M123.3,783.7c0.4,0,0.7-0.1,0.9-0.4c0.3-0.2,0.4-0.5,0.4-0.9s-0.1-0.6-0.4-0.9c-0.3-0.2-0.6-0.4-0.9-0.4
	c-0.4,0-0.7,0.1-0.9,0.4c-0.3,0.2-0.4,0.5-0.4,0.9s0.1,0.6,0.4,0.9C122.6,783.5,122.9,783.7,123.3,783.7z"/>
<path class="st6" d="M131.6,767.4c0.4,0,0.7-0.1,0.9-0.4c0.3-0.2,0.4-0.5,0.4-0.9c0-0.3-0.1-0.6-0.4-0.9c-0.3-0.2-0.6-0.4-0.9-0.4
	c-0.4,0-0.7,0.1-0.9,0.4c-0.3,0.2-0.4,0.5-0.4,0.9c0,0.3,0.1,0.6,0.4,0.9C130.9,767.3,131.3,767.4,131.6,767.4z"/>
<path class="st6" d="M126.2,775.5c0.4,0,0.7-0.1,0.9-0.4s0.4-0.5,0.4-0.9c0-0.3-0.1-0.6-0.4-0.9s-0.6-0.4-0.9-0.4
	c-0.4,0-0.7,0.1-0.9,0.4c-0.3,0.2-0.4,0.5-0.4,0.9c0,0.3,0.1,0.6,0.4,0.9C125.5,775.4,125.9,775.5,126.2,775.5z"/>
<path class="st6" d="M120,791.8c0.4,0,0.7-0.1,0.9-0.4c0.3-0.2,0.4-0.5,0.4-0.9c0-0.3-0.1-0.6-0.4-0.9c-0.3-0.2-0.6-0.4-0.9-0.4
	c-0.4,0-0.7,0.1-0.9,0.4s-0.4,0.5-0.4,0.9c0,0.3,0.1,0.6,0.4,0.9S119.6,791.8,120,791.8z"/>
<path class="st6" d="M120.4,792.5c0.4,0,0.7-0.1,0.9-0.4c0.3-0.2,0.4-0.5,0.4-0.9c0-0.3-0.1-0.6-0.4-0.9c-0.3-0.2-0.6-0.4-0.9-0.4
	c-0.4,0-0.7,0.1-0.9,0.4c-0.3,0.2-0.4,0.5-0.4,0.9c0,0.3,0.1,0.6,0.4,0.9C119.7,792.3,120,792.5,120.4,792.5z"/>
<rect x="109.1" y="606.9" class="st7" width="219" height="193.8"/>
<path class="st6" d="M120.4,790.7c0.4,0,0.7-0.1,0.9-0.4c0.3-0.2,0.4-0.5,0.4-0.9c0-0.3-0.1-0.6-0.4-0.9c-0.3-0.2-0.6-0.4-0.9-0.4
	c-0.4,0-0.7,0.1-0.9,0.4c-0.3,0.2-0.4,0.5-0.4,0.9c0,0.3,0.1,0.6,0.4,0.9C119.7,790.6,120.1,790.7,120.4,790.7z"/>
<text transform="matrix(0.9338 0 0 1 335.0391 688.5736)" class="st11" style="font-size:9.5494px;">Borough</text>
<text transform="matrix(0.9338 0 0 1 348.8027 701.015)" class="st13 st14" style="font-size:8.7537px;">Brooklyn</text>
<text transform="matrix(0.9338 0 0 1 348.3286 715.4955)" class="st13 st14" style="font-size:8.7537px;">Manhattan</text>
<text transform="matrix(1 0 0 1 -70.9639 601.6761)" class="st11" style="font-size:10.0989px;">Fire Department</text>
<text transform="matrix(1 0 0 1 191.936 601.6761)" class="st11" style="font-size:10.0989px;">Police Department</text>
<text transform="matrix(-2.101199e-03 -1 1 -2.101199e-03 -135.735 733.5507)" class="st11" style="font-size:7.8979px;">Regular hours</text>
<rect x="-131.2" y="648.4" class="st0" width="13.1" height="7.3"/>
<text transform="matrix(1 0 0 1 -131.2104 653.515)" class="st11" style="font-size:7.1799px;">600</text>
<rect x="-131.3" y="695.1" class="st0" width="13.1" height="7.3"/>
<text transform="matrix(1 0 0 1 -131.2837 700.2299)" class="st11" style="font-size:7.1799px;">400</text>
<rect x="-130.6" y="743.2" class="st0" width="13.1" height="7.3"/>
<text transform="matrix(1 0 0 1 -130.5654 748.3353)" class="st11" style="font-size:7.1799px;">200</text>
<rect x="-132.9" y="791.4" class="st0" width="13.1" height="7.3"/>
<text transform="matrix(1 0 0 1 -123.7788 796.5326)" class="st11" style="font-size:7.1799px;">0</text>
<rect x="-118.9" y="802.9" class="st0" width="13.1" height="7.3"/>
<text transform="matrix(1 0 0 1 -109.7871 807.9906)" class="st11" style="font-size:7.1799px;">0</text>
<rect x="-73.3" y="802.9" class="st0" width="13.1" height="7.3"/>
<text transform="matrix(1 0 0 1 -72.0986 807.9906)" class="st11" style="font-size:7.1799px;">500</text>
<rect x="-34" y="802.9" class="st0" width="16.4" height="7.3"/>
<text transform="matrix(1 0 0 1 -33.9937 807.9906)" class="st11" style="font-size:7.1799px;">1000</text>
<rect x="8.1" y="803" class="st0" width="16.4" height="7.3"/>
<text transform="matrix(1 0 0 1 8.0713 808.1459)" class="st11" style="font-size:7.1799px;">1500</text>
<rect x="49.5" y="803" class="st0" width="16.4" height="7.3"/>
<text transform="matrix(1 0 0 1 49.5444 808.1459)" class="st11" style="font-size:7.1799px;">2000</text>
<rect x="88.9" y="803" class="st0" width="16.4" height="7.3"/>
<text transform="matrix(1 0 0 1 88.9478 808.1019)" class="st11" style="font-size:7.1799px;">2500</text>
<rect x="117.1" y="803" class="st0" width="4.8" height="7.3"/>
<text transform="matrix(1 0 0 1 117.1265 808.1459)" class="st11" style="font-size:7.1799px;">0</text>
<rect x="151.7" y="803" class="st0" width="16.4" height="7.3"/>
<text transform="matrix(1 0 0 1 153.8511 808.1019)" class="st11" style="font-size:7.1799px;">500</text>
<rect x="193.4" y="803.1" class="st0" width="16.4" height="7.3"/>
<text transform="matrix(1 0 0 1 193.3706 808.2552)" class="st11" style="font-size:7.1799px;">1000</text>
<rect x="234.9" y="802.9" class="st0" width="16.4" height="7.3"/>
<text transform="matrix(1 0 0 1 234.939 808.0619)" class="st11" style="font-size:7.1799px;">1500</text>
<rect x="276.5" y="803.1" class="st0" width="16.4" height="7.3"/>
<text transform="matrix(1 0 0 1 276.46 808.2552)" class="st11" style="font-size:7.1799px;">2000</text>
<rect x="319.9" y="802.9" class="st0" width="16.4" height="7.3"/>
<text transform="matrix(1 0 0 1 319.9111 808.0619)" class="st11" style="font-size:7.1799px;">2500</text>
<text transform="matrix(1 2.675975e-03 -2.675975e-03 1 79.249 821.9843)" class="st11" style="font-size:7.8979px;">Overtime hours</text>
<rect x="644.6" y="1127.4" class="st0" width="310.5" height="270"/>
<rect x="644.6" y="1127.4" class="st0" width="310.5" height="270"/>
<rect x="644.6" y="1127.4" class="st0" width="310.5" height="270"/>
<rect x="644.6" y="1127.4" class="st0" width="310.5" height="270"/>
<path class="st1" d="M647.1,1400.6"/>
<rect x="644.6" y="1127.4" class="st0" width="310.5" height="270"/>
<rect x="644.6" y="1127.4" class="st0" width="310.5" height="270"/>
<path class="st2" d="M648.1,1397.3v-270"/>
<path class="st1" d="M633,1407.4"/>
<rect x="644.6" y="1127.4" class="st0" width="310.5" height="270"/>
<rect x="644.6" y="1127.4" class="st0" width="310.5" height="270"/>
<rect x="644.6" y="1127.4" class="st0" width="310.5" height="270"/>
<rect x="644.6" y="1127.4" class="st0" width="310.5" height="270"/>
<rect x="644.6" y="1127.4" class="st0" width="310.5" height="270"/>
<rect x="644.6" y="1127.4" class="st0" width="310.5" height="270"/>
<path class="st1" d="M647.6,1387"/>
<rect x="644.6" y="1127.4" class="st0" width="310.5" height="270"/>
<path class="st1" d="M647.6,1320.9"/>
<rect x="644.6" y="1127.4" class="st0" width="310.5" height="270"/>
<path class="st1" d="M647.6,1254.8"/>
<rect x="644.6" y="1127.4" class="st0" width="310.5" height="270"/>
<path class="st1" d="M647.6,1188.7"/>
<rect x="644.6" y="1127.4" class="st0" width="310.5" height="270"/>
<rect x="644.6" y="1127.4" class="st0" width="310.5" height="270"/>
<path id="DejaVuSans-20_00000118365187678042445210000017371389631600666273_" d="M618.3,1288"/>
<path id="DejaVuSans-20_00000064346377356809694950000008564410979633784203_" d="M618.3,1254.5"/>
<polyline class="st0" points="955.6,1272 955.6,1255.4 972.2,1255.4 972.2,1272 "/>
<path class="st3" d="M955.6,1272h16.6v-16.6h-16.6V1272z"/>
<polyline class="st0" points="955.6,1272 955.6,1255.4 972.2,1255.4 972.2,1272 "/>
<path class="st4" d="M963.9,1263.7"/>
<polyline class="st0" points="955.6,1272 955.6,1255.4 972.2,1255.4 972.2,1272 "/>
<path id="m7e3595c533_00000018945223569338436490000015801211951070260927_" class="st5" d="M963.9,1265.5c0.5,0,1-0.2,1.3-0.5
	c0.3-0.3,0.5-0.8,0.5-1.3s-0.2-1-0.5-1.3c-0.3-0.3-0.8-0.5-1.3-0.5s-1,0.2-1.3,0.5c-0.3,0.3-0.5,0.8-0.5,1.3s0.2,1,0.5,1.3
	C962.9,1265.3,963.4,1265.5,963.9,1265.5z"/>
<rect x="643.8" y="1127.4" class="st0" width="310.5" height="270"/>
<path class="st7" d="M660,1397.3v-270"/>
<path class="st8" d="M660,1397.3"/>
<rect x="643.8" y="1127.4" class="st0" width="310.5" height="270"/>
<path class="st7" d="M717.8,1397.3v-270"/>
<path class="st8" d="M717.8,1397.3"/>
<rect x="643.8" y="1127.4" class="st0" width="310.5" height="270"/>
<path class="st7" d="M775.5,1397.3v-270"/>
<path class="st8" d="M775.5,1397.3"/>
<rect x="643.8" y="1127.4" class="st0" width="310.5" height="270"/>
<path class="st7" d="M833.3,1397.3v-270"/>
<path class="st8" d="M833.3,1397.3"/>
<rect x="643.8" y="1127.4" class="st0" width="310.5" height="270"/>
<path class="st7" d="M891.1,1397.3v-270"/>
<path class="st8" d="M891.1,1397.3"/>
<rect x="643.8" y="1127.4" class="st0" width="310.5" height="270"/>
<path class="st8" d="M948.8,1397.3"/>
<rect x="643.8" y="1127.4" class="st0" width="310.5" height="270"/>
<path class="st9" d="M688.9,1397.3v-270"/>
<rect x="643.8" y="1127.4" class="st0" width="310.5" height="270"/>
<path class="st9" d="M746.7,1397.3v-270"/>
<rect x="643.8" y="1127.4" class="st0" width="310.5" height="270"/>
<path class="st9" d="M804.4,1397.3v-270"/>
<rect x="643.8" y="1127.4" class="st0" width="310.5" height="270"/>
<path class="st9" d="M862.2,1397.3v-270"/>
<rect x="643.8" y="1127.4" class="st0" width="310.5" height="270"/>
<path class="st9" d="M920,1397.3v-270"/>
<rect x="643.8" y="1127.4" class="st0" width="310.5" height="270"/>
<path class="st7" d="M646.8,1387H948"/>
<rect x="643.8" y="1127.4" class="st0" width="310.5" height="270"/>
<path class="st7" d="M646.8,1320.9H948"/>
<rect x="643.8" y="1127.4" class="st0" width="310.5" height="270"/>
<path class="st7" d="M646.8,1254.8H948"/>
<rect x="643.8" y="1127.4" class="st0" width="310.5" height="270"/>
<path class="st7" d="M646.8,1188.7H948"/>
<rect x="643.8" y="1127.4" class="st0" width="310.5" height="270"/>
<path class="st7" d="M646.8,1353.9H948"/>
<rect x="643.8" y="1127.4" class="st0" width="310.5" height="270"/>
<path class="st7" d="M646.8,1287.8H948"/>
<rect x="643.8" y="1127.4" class="st0" width="310.5" height="270"/>
<path class="st7" d="M646.8,1221.8H948"/>
<rect x="643.8" y="1127.4" class="st0" width="310.5" height="270"/>
<path class="st7" d="M646.8,1155.7H948"/>
<rect x="643.8" y="1127.4" class="st0" width="310.5" height="270"/>
<path class="st5" d="M758.7,1173.5c0.5,0,1-0.2,1.3-0.5s0.5-0.8,0.5-1.2c0-0.5-0.2-0.9-0.5-1.2s-0.8-0.5-1.3-0.5
	c-0.5,0-1,0.2-1.3,0.5c-0.4,0.3-0.5,0.8-0.5,1.2c0,0.5,0.2,0.9,0.5,1.2C757.8,1173.3,758.2,1173.5,758.7,1173.5z"/>
<rect x="643.8" y="1127.4" class="st0" width="310.5" height="270"/>
<path class="st5" d="M749.3,1141.4c0.5,0,1-0.2,1.3-0.5c0.4-0.3,0.5-0.8,0.5-1.2c0-0.5-0.2-0.9-0.5-1.2c-0.4-0.3-0.8-0.5-1.3-0.5
	s-1,0.2-1.3,0.5s-0.5,0.8-0.5,1.2c0,0.5,0.2,0.9,0.5,1.2S748.8,1141.4,749.3,1141.4z"/>
<rect x="643.8" y="1127.4" class="st0" width="310.5" height="270"/>
<path class="st5" d="M726.4,1218.8c0.5,0,1-0.2,1.3-0.5s0.5-0.8,0.5-1.2c0-0.5-0.2-0.9-0.5-1.2s-0.8-0.5-1.3-0.5s-1,0.2-1.3,0.5
	s-0.5,0.8-0.5,1.2c0,0.5,0.2,0.9,0.5,1.2S726,1218.8,726.4,1218.8z"/>
<rect x="643.8" y="1127.4" class="st0" width="310.5" height="270"/>
<path class="st5" d="M708.3,1303.7c0.5,0,1-0.2,1.3-0.5s0.5-0.8,0.5-1.2c0-0.5-0.2-0.9-0.5-1.2s-0.8-0.5-1.3-0.5s-1,0.2-1.3,0.5
	c-0.4,0.3-0.5,0.8-0.5,1.2c0,0.5,0.2,0.9,0.5,1.2C707.3,1303.5,707.8,1303.7,708.3,1303.7z"/>
<rect x="643.8" y="1127.4" class="st0" width="310.5" height="270"/>
<path class="st5" d="M699.1,1296.2c0.5,0,1-0.2,1.3-0.5s0.5-0.8,0.5-1.2c0-0.5-0.2-0.9-0.5-1.2s-0.8-0.5-1.3-0.5
	c-0.5,0-1,0.2-1.3,0.5c-0.4,0.3-0.5,0.8-0.5,1.2c0,0.5,0.2,0.9,0.5,1.2C698.1,1296,698.6,1296.2,699.1,1296.2z"/>
<rect x="643.8" y="1127.4" class="st0" width="310.5" height="270"/>
<path class="st5" d="M718.4,1262.2c0.5,0,1-0.2,1.3-0.5s0.5-0.8,0.5-1.2c0-0.5-0.2-0.9-0.5-1.2s-0.8-0.5-1.3-0.5s-1,0.2-1.3,0.5
	c-0.4,0.3-0.5,0.8-0.5,1.2c0,0.5,0.2,0.9,0.5,1.2C717.5,1262,717.9,1262.2,718.4,1262.2z"/>
<rect x="643.8" y="1127.4" class="st0" width="310.5" height="270"/>
<path class="st5" d="M715.1,1233.9c0.5,0,1-0.2,1.3-0.5s0.5-0.8,0.5-1.2c0-0.5-0.2-0.9-0.5-1.2s-0.8-0.5-1.3-0.5s-1,0.2-1.3,0.5
	c-0.4,0.3-0.5,0.8-0.5,1.2c0,0.5,0.2,0.9,0.5,1.2C714.1,1233.7,714.6,1233.9,715.1,1233.9z"/>
<rect x="643.8" y="1127.4" class="st0" width="310.5" height="270"/>
<path class="st5" d="M701.7,1277.3c0.5,0,1-0.2,1.3-0.5s0.5-0.8,0.5-1.2c0-0.5-0.2-0.9-0.5-1.2s-0.8-0.5-1.3-0.5
	c-0.5,0-1,0.2-1.3,0.5c-0.4,0.3-0.5,0.8-0.5,1.2c0,0.5,0.2,0.9,0.5,1.2C700.8,1277.1,701.2,1277.3,701.7,1277.3z"/>
<rect x="643.8" y="1127.4" class="st0" width="310.5" height="270"/>
<path class="st5" d="M671.3,1377.4c0.5,0,1-0.2,1.3-0.5s0.5-0.8,0.5-1.2c0-0.5-0.2-0.9-0.5-1.2s-0.8-0.5-1.3-0.5s-1,0.2-1.3,0.5
	c-0.4,0.3-0.5,0.8-0.5,1.2c0,0.5,0.2,0.9,0.5,1.2C670.4,1377.2,670.9,1377.4,671.3,1377.4z"/>
<rect x="643.8" y="1127.4" class="st0" width="310.5" height="270"/>
<path class="st5" d="M701,1315.1c0.5,0,1-0.2,1.3-0.5c0.4-0.3,0.5-0.8,0.5-1.2c0-0.5-0.2-0.9-0.5-1.2c-0.4-0.3-0.8-0.5-1.3-0.5
	s-1,0.2-1.3,0.5s-0.5,0.8-0.5,1.2c0,0.5,0.2,0.9,0.5,1.2S700.5,1315.1,701,1315.1z"/>
<rect x="643.8" y="1127.4" class="st0" width="310.5" height="270"/>
<path class="st5" d="M686.6,1315.1c0.5,0,1-0.2,1.3-0.5s0.5-0.8,0.5-1.2c0-0.5-0.2-0.9-0.5-1.2s-0.8-0.5-1.3-0.5s-1,0.2-1.3,0.5
	c-0.4,0.3-0.5,0.8-0.5,1.2c0,0.5,0.2,0.9,0.5,1.2C685.6,1314.9,686.1,1315.1,686.6,1315.1z"/>
<rect x="643.8" y="1127.4" class="st0" width="310.5" height="270"/>
<path class="st5" d="M693.4,1303.7c0.5,0,1-0.2,1.3-0.5s0.5-0.8,0.5-1.2s-0.2-0.9-0.5-1.2s-0.8-0.5-1.3-0.5c-0.5,0-1,0.2-1.3,0.5
	c-0.4,0.3-0.5,0.8-0.5,1.2s0.2,0.9,0.5,1.2C692.4,1303.6,692.9,1303.7,693.4,1303.7z"/>
<rect x="643.8" y="1127.4" class="st0" width="310.5" height="270"/>
<path class="st5" d="M681,1381.1c0.5,0,1-0.2,1.3-0.5c0.4-0.3,0.5-0.8,0.5-1.2c0-0.5-0.2-0.9-0.5-1.2c-0.4-0.3-0.8-0.5-1.3-0.5
	s-1,0.2-1.3,0.5s-0.5,0.8-0.5,1.2c0,0.5,0.2,0.9,0.5,1.2S680.6,1381.1,681,1381.1z"/>
<rect x="643.8" y="1127.4" class="st0" width="310.5" height="270"/>
<path class="st5" d="M672.5,1369.8c0.5,0,1-0.2,1.3-0.5s0.5-0.8,0.5-1.2c0-0.5-0.2-0.9-0.5-1.2s-0.8-0.5-1.3-0.5
	c-0.5,0-1,0.2-1.3,0.5c-0.4,0.3-0.5,0.8-0.5,1.2c0,0.5,0.2,0.9,0.5,1.2C671.5,1369.6,672,1369.8,672.5,1369.8z"/>
<rect x="643.8" y="1127.4" class="st0" width="310.5" height="270"/>
<path class="st5" d="M684.2,1381.1c0.5,0,1-0.2,1.3-0.5s0.5-0.8,0.5-1.2c0-0.5-0.2-0.9-0.5-1.2s-0.8-0.5-1.3-0.5
	c-0.5,0-1,0.2-1.3,0.5s-0.5,0.8-0.5,1.2c0,0.5,0.2,0.9,0.5,1.2S683.7,1381.1,684.2,1381.1z"/>
<rect x="643.8" y="1127.4" class="st0" width="310.5" height="270"/>
<path class="st5" d="M664.5,1381.1c0.5,0,1-0.2,1.3-0.5s0.5-0.8,0.5-1.2c0-0.5-0.2-0.9-0.5-1.2s-0.8-0.5-1.3-0.5s-1,0.2-1.3,0.5
	s-0.5,0.8-0.5,1.2c0,0.5,0.2,0.9,0.5,1.2S664,1381.1,664.5,1381.1z"/>
<rect x="643.8" y="1127.4" class="st0" width="310.5" height="270"/>
<path class="st5" d="M669.8,1381.1c0.5,0,1-0.2,1.3-0.5c0.4-0.3,0.5-0.8,0.5-1.2c0-0.5-0.2-0.9-0.5-1.2c-0.4-0.3-0.8-0.5-1.3-0.5
	c-0.5,0-1,0.2-1.3,0.5c-0.4,0.3-0.5,0.8-0.5,1.2c0,0.5,0.2,0.9,0.5,1.2C668.9,1381,669.3,1381.1,669.8,1381.1z"/>
<rect x="643.8" y="1127.4" class="st0" width="310.5" height="270"/>
<path class="st5" d="M664.5,1381.1c0.5,0,1-0.2,1.3-0.5s0.5-0.8,0.5-1.2c0-0.5-0.2-0.9-0.5-1.2s-0.8-0.5-1.3-0.5s-1,0.2-1.3,0.5
	s-0.5,0.8-0.5,1.2c0,0.5,0.2,0.9,0.5,1.2S664,1381.1,664.5,1381.1z"/>
<rect x="643.8" y="1127.4" class="st0" width="310.5" height="270"/>
<path class="st5" d="M676.7,1381.1c0.5,0,1-0.2,1.3-0.5s0.5-0.8,0.5-1.2c0-0.5-0.2-0.9-0.5-1.2s-0.8-0.5-1.3-0.5
	c-0.5,0-1,0.2-1.3,0.5c-0.4,0.3-0.5,0.8-0.5,1.2c0,0.5,0.2,0.9,0.5,1.2C675.7,1381,676.2,1381.1,676.7,1381.1z"/>
<path class="st5" d="M662.8,1381.1c0.5,0,1-0.2,1.3-0.5s0.5-0.8,0.5-1.2c0-0.5-0.2-0.9-0.5-1.2s-0.8-0.5-1.3-0.5
	c-0.5,0-1,0.2-1.3,0.5c-0.4,0.3-0.5,0.8-0.5,1.2c0,0.5,0.2,0.9,0.5,1.2C661.8,1381,662.3,1381.1,662.8,1381.1z"/>
<path class="st5" d="M666.5,1381.1c0.5,0,1-0.2,1.3-0.5s0.5-0.8,0.5-1.2c0-0.5-0.2-0.9-0.5-1.2s-0.8-0.5-1.3-0.5s-1,0.2-1.3,0.5
	c-0.4,0.3-0.5,0.8-0.5,1.2c0,0.5,0.2,0.9,0.5,1.2C665.5,1381,666,1381.1,666.5,1381.1z"/>
<path class="st5" d="M664.6,1381.1c0.5,0,1-0.2,1.3-0.5c0.4-0.3,0.5-0.8,0.5-1.2c0-0.5-0.2-0.9-0.5-1.2c-0.4-0.3-0.8-0.5-1.3-0.5
	c-0.5,0-1,0.2-1.3,0.5s-0.5,0.8-0.5,1.2c0,0.5,0.2,0.9,0.5,1.2S664.1,1381.1,664.6,1381.1z"/>
<rect x="646.8" y="1127.4" class="st7" width="301.2" height="270"/>
<path class="st5" d="M667.1,1381.1c0.5,0,1-0.2,1.3-0.5s0.5-0.8,0.5-1.2c0-0.5-0.2-0.9-0.5-1.2s-0.8-0.5-1.3-0.5s-1,0.2-1.3,0.5
	s-0.5,0.8-0.5,1.2c0,0.5,0.2,0.9,0.5,1.2S666.6,1381.1,667.1,1381.1z"/>
<path class="st5" d="M672.7,1370.2c0.5,0,1-0.2,1.3-0.5c0.4-0.3,0.5-0.8,0.5-1.2c0-0.5-0.2-0.9-0.5-1.2c-0.4-0.3-0.8-0.5-1.3-0.5
	s-1,0.2-1.3,0.5c-0.4,0.3-0.5,0.8-0.5,1.2c0,0.5,0.2,0.9,0.5,1.2S672.2,1370.2,672.7,1370.2z"/>
<path class="st5" d="M661.5,1386.8c0.5,0,1-0.2,1.3-0.5s0.5-0.8,0.5-1.2c0-0.5-0.2-0.9-0.5-1.2c-0.4-0.3-0.8-0.5-1.3-0.5
	c-0.5,0-1,0.2-1.3,0.5c-0.4,0.3-0.5,0.8-0.5,1.2c0,0.5,0.2,0.9,0.5,1.2C660.5,1386.6,661,1386.8,661.5,1386.8z"/>
<path class="st5" d="M673.2,1362.3c0.5,0,1-0.2,1.3-0.5c0.4-0.3,0.5-0.8,0.5-1.2c0-0.5-0.2-0.9-0.5-1.2s-0.8-0.5-1.3-0.5
	s-1,0.2-1.3,0.5s-0.5,0.8-0.5,1.2c0,0.5,0.2,0.9,0.5,1.2C672.2,1362.1,672.7,1362.3,673.2,1362.3z"/>
<rect x="642.7" y="1487.4" class="st0" width="310.5" height="270"/>
<path class="st7" d="M655.9,1757.3v-270"/>
<path class="st8" d="M655.9,1757.3"/>
<rect x="642.7" y="1487.4" class="st0" width="310.5" height="270"/>
<path class="st7" d="M713.6,1757.3v-270"/>
<path class="st8" d="M713.6,1757.3"/>
<rect x="642.7" y="1487.4" class="st0" width="310.5" height="270"/>
<path class="st7" d="M771.4,1757.3v-270"/>
<path class="st8" d="M771.4,1757.3"/>
<rect x="642.7" y="1487.4" class="st0" width="310.5" height="270"/>
<path class="st7" d="M829.2,1757.3v-270"/>
<path class="st8" d="M829.2,1757.3"/>
<rect x="642.7" y="1487.4" class="st0" width="310.5" height="270"/>
<path class="st7" d="M886.9,1757.3v-270"/>
<path class="st8" d="M886.9,1757.3"/>
<rect x="642.7" y="1487.4" class="st0" width="310.5" height="270"/>
<path class="st10" d="M944.7,1757.3v-270"/>
<path class="st8" d="M944.7,1757.3"/>
<rect x="642.7" y="1487.4" class="st0" width="310.5" height="270"/>
<path class="st9" d="M684.7,1757.3v-270"/>
<rect x="642.7" y="1487.4" class="st0" width="310.5" height="270"/>
<path class="st9" d="M742.5,1757.3v-270"/>
<rect x="642.7" y="1487.4" class="st0" width="310.5" height="270"/>
<path class="st9" d="M800.3,1757.3v-270"/>
<rect x="642.7" y="1487.4" class="st0" width="310.5" height="270"/>
<path class="st9" d="M858,1757.3v-270"/>
<rect x="642.7" y="1487.4" class="st0" width="310.5" height="270"/>
<path class="st9" d="M915.8,1757.3v-270"/>
<rect x="642.7" y="1487.4" class="st0" width="310.5" height="270"/>
<path class="st7" d="M642.7,1747h305"/>
<rect x="642.7" y="1487.4" class="st0" width="310.5" height="270"/>
<path class="st7" d="M642.7,1680.9h305"/>
<rect x="642.7" y="1487.4" class="st0" width="310.5" height="270"/>
<path class="st7" d="M642.7,1614.8h305"/>
<rect x="642.7" y="1487.4" class="st0" width="310.5" height="270"/>
<path class="st7" d="M642.7,1548.7h305"/>
<rect x="642.7" y="1487.4" class="st0" width="310.5" height="270"/>
<path class="st7" d="M642.7,1713.9h305"/>
<rect x="642.7" y="1487.4" class="st0" width="310.5" height="270"/>
<path class="st7" d="M642.7,1647.8h305"/>
<rect x="642.7" y="1487.4" class="st0" width="310.5" height="270"/>
<path class="st7" d="M642.7,1581.8h305"/>
<rect x="642.7" y="1487.4" class="st0" width="310.5" height="270"/>
<path class="st7" d="M642.7,1515.7h305"/>
<rect x="642.7" y="1487.4" class="st0" width="310.5" height="270"/>
<path class="st6" d="M939.1,1528.9c0.5,0,1-0.2,1.3-0.5c0.4-0.3,0.5-0.8,0.5-1.2s-0.2-0.9-0.5-1.2c-0.4-0.3-0.8-0.5-1.3-0.5
	c-0.5,0-1,0.2-1.3,0.5s-0.5,0.8-0.5,1.2s0.2,0.9,0.5,1.2S938.6,1528.9,939.1,1528.9z"/>
<rect x="642.7" y="1487.4" class="st0" width="310.5" height="270"/>
<path class="st6" d="M683.6,1673.2c0.5,0,1-0.2,1.3-0.5s0.5-0.8,0.5-1.2c0-0.5-0.2-0.9-0.5-1.2s-0.8-0.5-1.3-0.5
	c-0.5,0-1,0.2-1.3,0.5c-0.4,0.3-0.5,0.8-0.5,1.2c0,0.5,0.2,0.9,0.5,1.2C682.6,1673,683.1,1673.2,683.6,1673.2z"/>
<rect x="642.7" y="1487.4" class="st0" width="310.5" height="270"/>
<path class="st6" d="M688.4,1675.1c0.5,0,1-0.2,1.3-0.5c0.4-0.3,0.5-0.8,0.5-1.2c0-0.5-0.2-0.9-0.5-1.2c-0.4-0.3-0.8-0.5-1.3-0.5
	c-0.5,0-1,0.2-1.3,0.5c-0.4,0.3-0.5,0.8-0.5,1.2c0,0.5,0.2,0.9,0.5,1.2C687.4,1674.9,687.9,1675.1,688.4,1675.1z"/>
<rect x="642.7" y="1487.4" class="st0" width="310.5" height="270"/>
<path class="st6" d="M672.3,1703.4c0.5,0,1-0.2,1.3-0.5s0.5-0.8,0.5-1.2c0-0.5-0.2-0.9-0.5-1.2c-0.4-0.3-0.8-0.5-1.3-0.5
	c-0.5,0-1,0.2-1.3,0.5c-0.4,0.3-0.5,0.8-0.5,1.2c0,0.5,0.2,0.9,0.5,1.2C671.4,1703.2,671.9,1703.4,672.3,1703.4z"/>
<rect x="642.7" y="1487.4" class="st0" width="310.5" height="270"/>
<path class="st6" d="M676.6,1701.5c0.5,0,1-0.2,1.3-0.5s0.5-0.8,0.5-1.2c0-0.5-0.2-0.9-0.5-1.2s-0.8-0.5-1.3-0.5
	c-0.5,0-1,0.2-1.3,0.5c-0.4,0.3-0.5,0.8-0.5,1.2c0,0.5,0.2,0.9,0.5,1.2C675.6,1701.3,676.1,1701.5,676.6,1701.5z"/>
<rect x="642.7" y="1487.4" class="st0" width="310.5" height="270"/>
<path class="st6" d="M682.2,1675.1c0.5,0,1-0.2,1.3-0.5c0.4-0.3,0.5-0.8,0.5-1.2c0-0.5-0.2-0.9-0.5-1.2c-0.4-0.3-0.8-0.5-1.3-0.5
	s-1,0.2-1.3,0.5c-0.4,0.3-0.5,0.8-0.5,1.2c0,0.5,0.2,0.9,0.5,1.2C681.2,1674.9,681.7,1675.1,682.2,1675.1z"/>
<rect x="642.7" y="1487.4" class="st0" width="310.5" height="270"/>
<path class="st6" d="M678.1,1710.9c0.5,0,1-0.2,1.3-0.5s0.5-0.8,0.5-1.2c0-0.5-0.2-0.9-0.5-1.2c-0.4-0.3-0.8-0.5-1.3-0.5
	c-0.5,0-1,0.2-1.3,0.5c-0.4,0.3-0.5,0.8-0.5,1.2c0,0.5,0.2,0.9,0.5,1.2C677.1,1710.7,677.6,1710.9,678.1,1710.9z"/>
<rect x="642.7" y="1487.4" class="st0" width="310.5" height="270"/>
<path class="st6" d="M682.7,1675.1c0.5,0,1-0.2,1.3-0.5c0.4-0.3,0.5-0.8,0.5-1.2c0-0.5-0.2-0.9-0.5-1.2c-0.4-0.3-0.8-0.5-1.3-0.5
	c-0.5,0-1,0.2-1.3,0.5c-0.4,0.3-0.5,0.8-0.5,1.2c0,0.5,0.2,0.9,0.5,1.2C681.8,1674.9,682.2,1675.1,682.7,1675.1z"/>
<rect x="642.7" y="1487.4" class="st0" width="310.5" height="270"/>
<path class="st6" d="M662.4,1733.6c0.5,0,1-0.2,1.3-0.5c0.4-0.3,0.5-0.8,0.5-1.2c0-0.5-0.2-0.9-0.5-1.2c-0.4-0.3-0.8-0.5-1.3-0.5
	c-0.5,0-1,0.2-1.3,0.5c-0.4,0.3-0.5,0.8-0.5,1.2c0,0.5,0.2,0.9,0.5,1.2C661.4,1733.4,661.9,1733.6,662.4,1733.6z"/>
<path class="st6" d="M674,1710.9c0.5,0,1-0.2,1.3-0.5c0.4-0.3,0.5-0.8,0.5-1.2c0-0.5-0.2-0.9-0.5-1.2c-0.4-0.3-0.8-0.5-1.3-0.5
	c-0.5,0-1,0.2-1.3,0.5c-0.4,0.3-0.5,0.8-0.5,1.2c0,0.5,0.2,0.9,0.5,1.2C673,1710.7,673.5,1710.9,674,1710.9z"/>
<path class="st6" d="M666.5,1722.3c0.5,0,1-0.2,1.3-0.5c0.4-0.3,0.5-0.8,0.5-1.2c0-0.5-0.2-0.9-0.5-1.2c-0.4-0.3-0.8-0.5-1.3-0.5
	c-0.5,0-1,0.2-1.3,0.5s-0.5,0.8-0.5,1.2c0,0.5,0.2,0.9,0.5,1.2S666,1722.3,666.5,1722.3z"/>
<path class="st6" d="M657.8,1744.9c0.5,0,1-0.2,1.3-0.5s0.5-0.8,0.5-1.2c0-0.5-0.2-0.9-0.5-1.2s-0.8-0.5-1.3-0.5
	c-0.5,0-1,0.2-1.3,0.5c-0.4,0.3-0.5,0.8-0.5,1.2c0,0.5,0.2,0.9,0.5,1.2C656.8,1744.7,657.3,1744.9,657.8,1744.9z"/>
<path class="st6" d="M658.3,1745.9c0.5,0,1-0.2,1.3-0.5s0.5-0.8,0.5-1.2c0-0.5-0.2-0.9-0.5-1.2s-0.8-0.5-1.3-0.5
	c-0.5,0-1,0.2-1.3,0.5c-0.4,0.3-0.5,0.8-0.5,1.2c0,0.5,0.2,0.9,0.5,1.2C657.4,1745.7,657.8,1745.9,658.3,1745.9z"/>
<rect x="642.7" y="1487.4" class="st7" width="305" height="270"/>
<path class="st6" d="M658.4,1743.4c0.5,0,1-0.2,1.3-0.5s0.5-0.8,0.5-1.2c0-0.5-0.2-0.9-0.5-1.2s-0.8-0.5-1.3-0.5
	c-0.5,0-1,0.2-1.3,0.5c-0.4,0.3-0.5,0.8-0.5,1.2c0,0.5,0.2,0.9,0.5,1.2C657.4,1743.2,657.9,1743.4,658.4,1743.4z"/>
<text transform="matrix(0.9338 0 0 1 954.75 1250.1893)" class="st11 st12">Borough</text>
<text transform="matrix(0.9338 0 0 1 973.9199 1267.517)" class="st13 st14 st15">Brooklyn</text>
<text transform="matrix(1 0 0 1 711.8276 1120.1146)" class="st11 st16">Fire Department</text>
<text transform="matrix(1 0 0 1 757.9897 1480.1146)" class="st11 st16">Police Department</text>
<text transform="matrix(-2.101200e-03 -1 1 -2.101200e-03 621.617 1303.7883)" class="st11 st17">Regular hours</text>
<text transform="matrix(1 -2.100237e-03 2.100237e-03 1 607.2885 1070.1245)"><tspan x="0" y="0" class="st11 st18">Police and Fire department employees who worked</tspan><tspan x="0" y="16.8" class="st11 st18">more</tspan><tspan x="31.9" y="16.8" class="st11 st18"> </tspan><tspan x="36.1" y="16.8" class="st11 st18">overtim</tspan><tspan x="82" y="16.8" class="st11 st18">e</tspan><tspan x="88.9" y="16.8" class="st11 st18"> hours than regular hours in a year</tspan><tspan x="302.9" y="16.8" class="st11 st18"> </tspan></text>
<rect x="627.9" y="1185.2" class="st0" width="18.3" height="10.2"/>
<text transform="matrix(1 0 0 1 627.9185 1192.3158)" class="st11 st19">600</text>
<rect x="627.8" y="1250.2" class="st0" width="18.3" height="10.2"/>
<text transform="matrix(1 0 0 1 627.8166 1257.3793)" class="st11 st19">400</text>
<rect x="628.8" y="1317.2" class="st0" width="18.3" height="10.2"/>
<text transform="matrix(1 0 0 1 628.8166 1324.3793)" class="st11 st19">200</text>
<rect x="625.5" y="1384.3" class="st0" width="18.3" height="10.2"/>
<text transform="matrix(1 0 0 1 638.2687 1391.5083)" class="st11 st19">0</text>
<rect x="645" y="1400.3" class="st0" width="18.3" height="10.2"/>
<text transform="matrix(1 0 0 1 657.7561 1407.4663)" class="st11 st19">0</text>
<rect x="708.6" y="1400.3" class="st0" width="18.3" height="10.2"/>
<text transform="matrix(1 0 0 1 710.248 1407.4663)" class="st11 st19">500</text>
<rect x="763.3" y="1400.3" class="st0" width="22.8" height="10.2"/>
<text transform="matrix(1 0 0 1 763.3196 1407.4658)" class="st11 st19">1000</text>
<rect x="821.9" y="1400.5" class="st0" width="22.8" height="10.2"/>
<text transform="matrix(1 0 0 1 821.9069 1407.682)" class="st11 st19">1500</text>
<rect x="879.7" y="1400.5" class="st0" width="22.8" height="10.2"/>
<text transform="matrix(1 0 0 1 879.6697 1407.682)" class="st11 st19">2000</text>
<rect x="934.5" y="1400.5" class="st0" width="22.8" height="10.2"/>
<text transform="matrix(1 0 0 1 934.55 1407.6211)" class="st11 st19">2500</text>
<rect x="653.8" y="1760.5" class="st0" width="6.7" height="10.2"/>
<text transform="matrix(1 0 0 1 653.7963 1767.682)" class="st11 st19">0</text>
<rect x="701.9" y="1760.5" class="st0" width="22.8" height="10.2"/>
<text transform="matrix(1 0 0 1 704.9458 1767.6211)" class="st11 st19">500</text>
<rect x="760" y="1760.7" class="st0" width="22.8" height="10.2"/>
<text transform="matrix(1 0 0 1 759.9878 1767.8345)" class="st11 st19">1000</text>
<rect x="817.9" y="1760.4" class="st0" width="22.8" height="10.2"/>
<text transform="matrix(1 0 0 1 817.8833 1767.5648)" class="st11 st19">1500</text>
<rect x="875.7" y="1760.7" class="st0" width="22.8" height="10.2"/>
<text transform="matrix(1 0 0 1 875.7125 1767.8345)" class="st11 st19">2000</text>
<rect x="936.2" y="1760.4" class="st0" width="22.8" height="10.2"/>
<text transform="matrix(1 0 0 1 936.2305 1767.5648)" class="st11 st19">2500</text>
<text transform="matrix(1 2.675994e-03 -2.675994e-03 1 760.428 1426.8696)" class="st11 st17">Overtime hours</text>
<text transform="matrix(1 2.675994e-03 -2.675994e-03 1 761.5081 1795.2601)" class="st11 st17">Overtime hours</text>
<path id="DejaVuSans-20_00000057828617109599857630000005926412150027596677_" d="M1007,1533.9"/>
<path id="DejaVuSans-20_00000062879960400806731310000007534532746045234821_" d="M1007,1500.4"/>
<text transform="matrix(-2.101200e-03 -1 1 -2.101200e-03 618.2826 1671.437)" class="st11 st17">Regular hours</text>
<polyline class="st0" points="954.1,1627.6 954.1,1610.9 970.8,1610.9 970.8,1627.6 "/>
<path class="st3" d="M954.1,1627.6h16.6v-16.6h-16.6V1627.6z"/>
<polyline class="st0" points="954.1,1627.6 954.1,1610.9 970.8,1610.9 970.8,1627.6 "/>
<path class="st4" d="M962.5,1619.2"/>
<polyline class="st0" points="954.1,1627.6 954.1,1610.9 970.8,1610.9 970.8,1627.6 "/>
<path id="mffdbdef117_00000030465670001149065150000018076715919956299660_" class="st6" d="M962.5,1621.1c0.5,0,1-0.2,1.3-0.5
	c0.3-0.3,0.5-0.8,0.5-1.3s-0.2-1-0.5-1.3c-0.3-0.3-0.8-0.5-1.3-0.5s-1,0.2-1.3,0.5c-0.3,0.3-0.5,0.8-0.5,1.3s0.2,1,0.5,1.3
	C961.5,1620.9,962,1621.1,962.5,1621.1z"/>
<text transform="matrix(0.9338 0 0 1 971.8425 1624.5187)" class="st13 st14 st15">Manhattan</text>
<text transform="matrix(0.9338 0 0 1 953.1992 1602.5493)" class="st11 st12">Borough</text>
<rect x="624.4" y="1543.3" class="st0" width="18.3" height="10.2"/>
<text transform="matrix(1 0 0 1 624.3945 1550.436)" class="st11 st19">600</text>
<rect x="624.3" y="1608.3" class="st0" width="18.3" height="10.2"/>
<text transform="matrix(1 0 0 1 624.2927 1615.4995)" class="st11 st19">400</text>
<rect x="625.3" y="1675.3" class="st0" width="18.3" height="10.2"/>
<text transform="matrix(1 0 0 1 625.2927 1682.4995)" class="st11 st19">200</text>
<rect x="622" y="1742.5" class="st0" width="18.3" height="10.2"/>
<text transform="matrix(1 0 0 1 634.7448 1749.6285)" class="st11 st19">0</text>
<text transform="matrix(1 -2.100237e-03 2.100237e-03 1 -118.1454 567.9354)"><tspan x="0" y="0" class="st11" style="font-size:12.5px;">Police and Fire department employees who worked more</tspan><tspan x="316.1" y="0" class="st11" style="font-size:12.5px;"> </tspan><tspan x="319.8" y="0" class="st11" style="font-size:12.5px;">o</tspan><tspan x="326.8" y="0" class="st11" style="font-size:12.5px;">v</tspan><tspan x="333.3" y="0" class="st11" style="font-size:12.5px;">ertim</tspan><tspan x="361.1" y="0" class="st11" style="font-size:12.5px;">e</tspan><tspan x="367.3" y="0" class="st11" style="font-size:12.5px;"> than </tspan><tspan x="0" y="15" class="st11" style="font-size:12.5px;">regular hours in a</tspan><tspan x="97.3" y="15" class="st11" style="font-size:12.5px;"> </tspan><tspan x="100" y="15" class="st11" style="font-size:12.5px;">year</tspan><tspan x="124.3" y="15" class="st11" style="font-size:12.5px;"> </tspan></text>
</svg>
