<?xml version="1.0" encoding="utf-8"?>
<!-- Generator: Adobe Illustrator 26.0.3, SVG Export Plug-In . SVG Version: 6.00 Build 0)  -->
<svg version="1.1" id="Layer_1" xmlns="http://www.w3.org/2000/svg" xmlns:xlink="http://www.w3.org/1999/xlink" x="0px" y="0px"
	 viewBox="0 0 450 300" style="enable-background:new 0 0 450 300;" xml:space="preserve">
<style type="text/css">
	.st0{fill:none;stroke:#333333;stroke-width:1.5;stroke-linejoin:round;}
	.st1{fill:#57DB5F;fill-opacity:0.8;}
	.st2{fill:#5F57DB;fill-opacity:0.8;}
	.st3{fill:#DB5F57;fill-opacity:0.8;}
	.st4{fill:none;}
	.st5{fill:none;stroke:#1F77B4;stroke-width:1.5;stroke-linecap:square;stroke-linejoin:round;stroke-opacity:0.8;}
	.st6{opacity:0.3;fill:#9397A1;}
	.st7{fill:none;stroke:#040505;stroke-miterlimit:10;}
	.st8{fill:#040505;}
	.st9{fill:none;stroke:#070303;stroke-width:0.5;stroke-miterlimit:10;}
	.st10{font-family:'ArialMT';}
	.st11{font-size:7.5628px;}
	.st12{fill:#38373A;}
	.st13{font-family:'Arial-BoldMT';}
	.st14{font-size:6.2622px;}
	.st15{font-size:8.8233px;}
	.st16{font-size:5.0419px;}
</style>
<path class="st0" d="M-451.6-277.3"/>
<path class="st0" d="M-341.9-277.3"/>
<path class="st0" d="M-232.2-277.3"/>
<path class="st0" d="M-122.5-277.3"/>
<path id="DejaVuSans-20" d="M-348.9-251.1"/>
<path id="DejaVuSans-20_00000121255786107635098220000016888704006606497467_" d="M-335.4-251.1"/>
<path class="st0" d="M-559.6-348"/>
<path class="st0" d="M-559.6-440.9"/>
<path class="st0" d="M-559.6-533.9"/>
<path class="st1" d="M-254.1-303.1c1.3,0,2.5-0.5,3.4-1.4c0.9-0.9,1.4-2.2,1.4-3.4s-0.5-2.5-1.4-3.4c-0.9-0.9-2.2-1.4-3.4-1.4
	s-2.5,0.5-3.4,1.4c-0.9,0.9-1.4,2.2-1.4,3.4s0.5,2.5,1.4,3.4C-256.7-303.6-255.4-303.1-254.1-303.1z"/>
<path class="st2" d="M-287-287.7c1.3,0,2.5-0.5,3.4-1.4c0.9-0.9,1.4-2.2,1.4-3.4s-0.5-2.5-1.4-3.4c-0.9-0.9-2.2-1.4-3.4-1.4
	s-2.5,0.5-3.4,1.4c-0.9,0.9-1.4,2.2-1.4,3.4s0.5,2.5,1.4,3.4C-289.6-288.2-288.3-287.7-287-287.7z"/>
<path class="st3" d="M-517.4-289.1c1.3,0,2.5-0.5,3.4-1.4c0.9-0.9,1.4-2.2,1.4-3.4s-0.5-2.5-1.4-3.4c-0.9-0.9-2.2-1.4-3.4-1.4
	s-2.5,0.5-3.4,1.4c-0.9,0.9-1.4,2.2-1.4,3.4s0.5,2.5,1.4,3.4S-518.7-289.1-517.4-289.1z"/>
<path class="st2" d="M-254.1-300.8c1.3,0,2.5-0.5,3.4-1.4c0.9-0.9,1.4-2.2,1.4-3.4s-0.5-2.5-1.4-3.4c-0.9-0.9-2.2-1.4-3.4-1.4
	s-2.5,0.5-3.4,1.4c-0.9,0.9-1.4,2.2-1.4,3.4s0.5,2.5,1.4,3.4C-256.7-301.3-255.4-300.8-254.1-300.8z"/>
<path class="st2" d="M-276.1-290.2c1.3,0,2.5-0.5,3.4-1.4s1.4-2.2,1.4-3.4s-0.5-2.5-1.4-3.4c-0.9-0.9-2.2-1.4-3.4-1.4
	c-1.3,0-2.5,0.5-3.4,1.4c-0.9,0.9-1.4,2.2-1.4,3.4s0.5,2.5,1.4,3.4S-277.4-290.2-276.1-290.2z"/>
<path class="st2" d="M-232.2-287.7c1.3,0,2.5-0.5,3.4-1.4c0.9-0.9,1.4-2.2,1.4-3.4s-0.5-2.5-1.4-3.4c-0.9-0.9-2.2-1.4-3.4-1.4
	s-2.5,0.5-3.4,1.4c-0.9,0.9-1.4,2.2-1.4,3.4s0.5,2.5,1.4,3.4C-234.7-288.2-233.5-287.7-232.2-287.7z"/>
<path class="st2" d="M-265.1-387.2c1.3,0,2.5-0.5,3.4-1.4c0.9-0.9,1.4-2.2,1.4-3.4s-0.5-2.5-1.4-3.4c-0.9-0.9-2.2-1.4-3.4-1.4
	s-2.5,0.5-3.4,1.4c-0.9,0.9-1.4,2.2-1.4,3.4s0.5,2.5,1.4,3.4C-267.6-387.7-266.4-387.2-265.1-387.2z"/>
<path class="st2" d="M-265.1-289.2c1.3,0,2.5-0.5,3.4-1.4c0.9-0.9,1.4-2.2,1.4-3.4s-0.5-2.5-1.4-3.4c-0.9-0.9-2.2-1.4-3.4-1.4
	s-2.5,0.5-3.4,1.4c-0.9,0.9-1.4,2.2-1.4,3.4s0.5,2.5,1.4,3.4C-267.6-289.7-266.4-289.2-265.1-289.2z"/>
<path class="st2" d="M-287-297.1c1.3,0,2.5-0.5,3.4-1.4c0.9-0.9,1.4-2.2,1.4-3.4c0-1.3-0.5-2.5-1.4-3.4c-0.9-0.9-2.2-1.4-3.4-1.4
	s-2.5,0.5-3.4,1.4c-0.9,0.9-1.4,2.2-1.4,3.4c0,1.3,0.5,2.5,1.4,3.4C-289.6-297.6-288.3-297.1-287-297.1z"/>
<path class="st2" d="M-319.9-288.8c1.3,0,2.5-0.5,3.4-1.4c0.9-0.9,1.4-2.2,1.4-3.4s-0.5-2.5-1.4-3.4c-0.9-0.9-2.2-1.4-3.4-1.4
	s-2.5,0.5-3.4,1.4c-0.9,0.9-1.4,2.2-1.4,3.4s0.5,2.5,1.4,3.4C-322.5-289.3-321.2-288.8-319.9-288.8z"/>
<path class="st2" d="M-309-296.9c1.3,0,2.5-0.5,3.4-1.4c0.9-0.9,1.4-2.2,1.4-3.4c0-1.3-0.5-2.5-1.4-3.4s-2.2-1.4-3.4-1.4
	c-1.3,0-2.5,0.5-3.4,1.4c-0.9,0.9-1.4,2.2-1.4,3.4c0,1.3,0.5,2.5,1.4,3.4C-311.5-297.4-310.3-296.9-309-296.9z"/>
<path class="st2" d="M-319.9-288.2c1.3,0,2.5-0.5,3.4-1.4c0.9-0.9,1.4-2.2,1.4-3.4s-0.5-2.5-1.4-3.4c-0.9-0.9-2.2-1.4-3.4-1.4
	s-2.5,0.5-3.4,1.4c-0.9,0.9-1.4,2.2-1.4,3.4s0.5,2.5,1.4,3.4C-322.5-288.7-321.2-288.2-319.9-288.2z"/>
<path class="st2" d="M-319.9-312.8c1.3,0,2.5-0.5,3.4-1.4c0.9-0.9,1.4-2.2,1.4-3.4c0-1.3-0.5-2.5-1.4-3.4c-0.9-0.9-2.2-1.4-3.4-1.4
	s-2.5,0.5-3.4,1.4c-0.9,0.9-1.4,2.2-1.4,3.4c0,1.3,0.5,2.5,1.4,3.4C-322.5-313.3-321.2-312.8-319.9-312.8z"/>
<path class="st2" d="M-319.9-288.9c1.3,0,2.5-0.5,3.4-1.4c0.9-0.9,1.4-2.2,1.4-3.4s-0.5-2.5-1.4-3.4c-0.9-0.9-2.2-1.4-3.4-1.4
	s-2.5,0.5-3.4,1.4c-0.9,0.9-1.4,2.2-1.4,3.4s0.5,2.5,1.4,3.4C-322.5-289.5-321.2-288.9-319.9-288.9z"/>
<path class="st2" d="M-265.1-295.8c1.3,0,2.5-0.5,3.4-1.4c0.9-0.9,1.4-2.2,1.4-3.4c0-1.3-0.5-2.5-1.4-3.4c-0.9-0.9-2.2-1.4-3.4-1.4
	s-2.5,0.5-3.4,1.4c-0.9,0.9-1.4,2.2-1.4,3.4c0,1.3,0.5,2.5,1.4,3.4C-267.6-296.3-266.4-295.8-265.1-295.8z"/>
<path class="st2" d="M-319.9-301.2c1.3,0,2.5-0.5,3.4-1.4c0.9-0.9,1.4-2.2,1.4-3.4s-0.5-2.5-1.4-3.4c-0.9-0.9-2.2-1.4-3.4-1.4
	s-2.5,0.5-3.4,1.4c-0.9,0.9-1.4,2.2-1.4,3.4s0.5,2.5,1.4,3.4C-322.5-301.7-321.2-301.2-319.9-301.2z"/>
<path class="st2" d="M-319.9-292.9c1.3,0,2.5-0.5,3.4-1.4c0.9-0.9,1.4-2.2,1.4-3.4s-0.5-2.5-1.4-3.4c-0.9-0.9-2.2-1.4-3.4-1.4
	s-2.5,0.5-3.4,1.4c-0.9,0.9-1.4,2.2-1.4,3.4s0.5,2.5,1.4,3.4C-322.5-293.4-321.2-292.9-319.9-292.9z"/>
<path class="st2" d="M-265.1-304.6c1.3,0,2.5-0.5,3.4-1.4c0.9-0.9,1.4-2.2,1.4-3.4s-0.5-2.5-1.4-3.4c-0.9-0.9-2.2-1.4-3.4-1.4
	s-2.5,0.5-3.4,1.4c-0.9,0.9-1.4,2.2-1.4,3.4s0.5,2.5,1.4,3.4C-267.6-305.1-266.4-304.6-265.1-304.6z"/>
<path class="st2" d="M-495.4-342.7c1.3,0,2.5-0.5,3.4-1.4c0.9-0.9,1.4-2.2,1.4-3.4s-0.5-2.5-1.4-3.4s-2.2-1.4-3.4-1.4
	s-2.5,0.5-3.4,1.4c-0.9,0.9-1.4,2.2-1.4,3.4s0.5,2.5,1.4,3.4C-498-343.2-496.7-342.7-495.4-342.7z"/>
<path class="st2" d="M-309-301.3c1.3,0,2.5-0.5,3.4-1.4c0.9-0.9,1.4-2.2,1.4-3.4c0-1.3-0.5-2.5-1.4-3.4s-2.2-1.4-3.4-1.4
	c-1.3,0-2.5,0.5-3.4,1.4c-0.9,0.9-1.4,2.2-1.4,3.4c0,1.3,0.5,2.5,1.4,3.4C-311.5-301.8-310.3-301.3-309-301.3z"/>
<path class="st1" d="M-133.5-298.9c1.3,0,2.5-0.5,3.4-1.4c0.9-0.9,1.4-2.2,1.4-3.4s-0.5-2.5-1.4-3.4c-0.9-0.9-2.2-1.4-3.4-1.4
	s-2.5,0.5-3.4,1.4c-0.9,0.9-1.4,2.2-1.4,3.4s0.5,2.5,1.4,3.4C-136-299.4-134.8-298.9-133.5-298.9z"/>
<path class="st1" d="M-177.4-288.5c1.3,0,2.5-0.5,3.4-1.4c0.9-0.9,1.4-2.2,1.4-3.4s-0.5-2.5-1.4-3.4c-0.9-0.9-2.2-1.4-3.4-1.4
	s-2.5,0.5-3.4,1.4c-0.9,0.9-1.4,2.2-1.4,3.4s0.5,2.5,1.4,3.4C-179.9-289-178.7-288.5-177.4-288.5z"/>
<path class="st1" d="M-254.1-291.7c1.3,0,2.5-0.5,3.4-1.4c0.9-0.9,1.4-2.2,1.4-3.4s-0.5-2.5-1.4-3.4c-0.9-0.9-2.2-1.4-3.4-1.4
	s-2.5,0.5-3.4,1.4c-0.9,0.9-1.4,2.2-1.4,3.4s0.5,2.5,1.4,3.4C-256.7-292.2-255.4-291.7-254.1-291.7z"/>
<path class="st1" d="M-254.1-310.5c1.3,0,2.5-0.5,3.4-1.4c0.9-0.9,1.4-2.2,1.4-3.4s-0.5-2.5-1.4-3.4s-2.2-1.4-3.4-1.4
	s-2.5,0.5-3.4,1.4c-0.9,0.9-1.4,2.2-1.4,3.4s0.5,2.5,1.4,3.4C-256.7-311-255.4-310.5-254.1-310.5z"/>
<path class="st1" d="M-319.9-295c1.3,0,2.5-0.5,3.4-1.4c0.9-0.9,1.4-2.2,1.4-3.4s-0.5-2.5-1.4-3.4c-0.9-0.9-2.2-1.4-3.4-1.4
	s-2.5,0.5-3.4,1.4c-0.9,0.9-1.4,2.2-1.4,3.4s0.5,2.5,1.4,3.4C-322.5-295.5-321.2-295-319.9-295z"/>
<path class="st1" d="M-199.3-299.2c1.3,0,2.5-0.5,3.4-1.4c0.9-0.9,1.4-2.2,1.4-3.4s-0.5-2.5-1.4-3.4c-0.9-0.9-2.2-1.4-3.4-1.4
	s-2.5,0.5-3.4,1.4c-0.9,0.9-1.4,2.2-1.4,3.4s0.5,2.5,1.4,3.4C-201.8-299.8-200.6-299.2-199.3-299.2z"/>
<path class="st1" d="M-319.9-287.9c1.3,0,2.5-0.5,3.4-1.4c0.9-0.9,1.4-2.2,1.4-3.4s-0.5-2.5-1.4-3.4c-0.9-0.9-2.2-1.4-3.4-1.4
	s-2.5,0.5-3.4,1.4c-0.9,0.9-1.4,2.2-1.4,3.4s0.5,2.5,1.4,3.4C-322.5-288.5-321.2-287.9-319.9-287.9z"/>
<path class="st1" d="M-341.9-290c1.3,0,2.5-0.5,3.4-1.4s1.4-2.2,1.4-3.4s-0.5-2.5-1.4-3.4c-0.9-0.9-2.2-1.4-3.4-1.4
	s-2.5,0.5-3.4,1.4c-0.9,0.9-1.4,2.2-1.4,3.4s0.5,2.5,1.4,3.4C-344.4-290.5-343.2-290-341.9-290z"/>
<path class="st1" d="M-254.1-356.4c1.3,0,2.5-0.5,3.4-1.4s1.4-2.2,1.4-3.4c0-1.3-0.5-2.5-1.4-3.4s-2.2-1.4-3.4-1.4s-2.5,0.5-3.4,1.4
	c-0.9,0.9-1.4,2.2-1.4,3.4c0,1.3,0.5,2.5,1.4,3.4C-256.7-357-255.4-356.4-254.1-356.4z"/>
<path class="st1" d="M-407.7-309.4c1.3,0,2.5-0.5,3.4-1.4c0.9-0.9,1.4-2.2,1.4-3.4s-0.5-2.5-1.4-3.4c-0.9-0.9-2.2-1.4-3.4-1.4
	s-2.5,0.5-3.4,1.4c-0.9,0.9-1.4,2.2-1.4,3.4s0.5,2.5,1.4,3.4C-410.2-309.9-409-309.4-407.7-309.4z"/>
<path class="st1" d="M-385.8-288.5c1.3,0,2.5-0.5,3.4-1.4c0.9-0.9,1.4-2.2,1.4-3.4s-0.5-2.5-1.4-3.4c-0.9-0.9-2.2-1.4-3.4-1.4
	s-2.5,0.5-3.4,1.4s-1.4,2.2-1.4,3.4s0.5,2.5,1.4,3.4C-388.3-289-387-288.5-385.8-288.5z"/>
<path class="st1" d="M-330.9-546.1c1.3,0,2.5-0.5,3.4-1.4c0.9-0.9,1.4-2.2,1.4-3.4s-0.5-2.5-1.4-3.4c-0.9-0.9-2.2-1.4-3.4-1.4
	s-2.5,0.5-3.4,1.4s-1.4,2.2-1.4,3.4s0.5,2.5,1.4,3.4S-332.2-546.1-330.9-546.1z"/>
<path class="st1" d="M-265.1-320.4c1.3,0,2.5-0.5,3.4-1.4c0.9-0.9,1.4-2.2,1.4-3.4s-0.5-2.5-1.4-3.4c-0.9-0.9-2.2-1.4-3.4-1.4
	s-2.5,0.5-3.4,1.4c-0.9,0.9-1.4,2.2-1.4,3.4s0.5,2.5,1.4,3.4C-267.6-320.9-266.4-320.4-265.1-320.4z"/>
<path class="st1" d="M-363.8-590c1.3,0,2.5-0.5,3.4-1.4s1.4-2.2,1.4-3.4s-0.5-2.5-1.4-3.4s-2.2-1.4-3.4-1.4s-2.5,0.5-3.4,1.4
	c-0.9,0.9-1.4,2.2-1.4,3.4s0.5,2.5,1.4,3.4C-366.4-590.5-365.1-590-363.8-590z"/>
<path class="st1" d="M-254.1-313.6c1.3,0,2.5-0.5,3.4-1.4c0.9-0.9,1.4-2.2,1.4-3.4s-0.5-2.5-1.4-3.4c-0.9-0.9-2.2-1.4-3.4-1.4
	s-2.5,0.5-3.4,1.4c-0.9,0.9-1.4,2.2-1.4,3.4s0.5,2.5,1.4,3.4C-256.7-314.1-255.4-313.6-254.1-313.6z"/>
<path class="st1" d="M-330.9-388.3c1.3,0,2.5-0.5,3.4-1.4c0.9-0.9,1.4-2.2,1.4-3.4s-0.5-2.5-1.4-3.4c-0.9-0.9-2.2-1.4-3.4-1.4
	s-2.5,0.5-3.4,1.4s-1.4,2.2-1.4,3.4s0.5,2.5,1.4,3.4C-333.4-388.9-332.2-388.3-330.9-388.3z"/>
<path class="st1" d="M-287-313.6c1.3,0,2.5-0.5,3.4-1.4c0.9-0.9,1.4-2.2,1.4-3.4s-0.5-2.5-1.4-3.4c-0.9-0.9-2.2-1.4-3.4-1.4
	s-2.5,0.5-3.4,1.4c-0.9,0.9-1.4,2.2-1.4,3.4s0.5,2.5,1.4,3.4C-289.6-314.1-288.3-313.6-287-313.6z"/>
<path class="st1" d="M-407.7-484.3c1.3,0,2.5-0.5,3.4-1.4c0.9-0.9,1.4-2.2,1.4-3.4s-0.5-2.5-1.4-3.4c-0.9-0.9-2.2-1.4-3.4-1.4
	s-2.5,0.5-3.4,1.4c-0.9,0.9-1.4,2.2-1.4,3.4s0.5,2.5,1.4,3.4C-410.2-484.8-409-484.3-407.7-484.3z"/>
<path class="st1" d="M-341.9-289.2c1.3,0,2.5-0.5,3.4-1.4s1.4-2.2,1.4-3.4s-0.5-2.5-1.4-3.4c-0.9-0.9-2.2-1.4-3.4-1.4
	s-2.5,0.5-3.4,1.4c-0.9,0.9-1.4,2.2-1.4,3.4s0.5,2.5,1.4,3.4C-344.4-289.7-343.2-289.2-341.9-289.2z"/>
<path class="st1" d="M-374.8-341.2c1.3,0,2.5-0.5,3.4-1.4c0.9-0.9,1.4-2.2,1.4-3.4s-0.5-2.5-1.4-3.4c-0.9-0.9-2.2-1.4-3.4-1.4
	s-2.5,0.5-3.4,1.4c-0.9,0.9-1.4,2.2-1.4,3.4s0.5,2.5,1.4,3.4C-377.3-341.7-376.1-341.2-374.8-341.2z"/>
<path class="st1" d="M-385.8-315.2c1.3,0,2.5-0.5,3.4-1.4c0.9-0.9,1.4-2.2,1.4-3.4c0-1.3-0.5-2.5-1.4-3.4c-0.9-0.9-2.2-1.4-3.4-1.4
	s-2.5,0.5-3.4,1.4s-1.4,2.2-1.4,3.4c0,1.3,0.5,2.5,1.4,3.4S-387-315.2-385.8-315.2z"/>
<path class="st1" d="M-407.7-349.3c1.3,0,2.5-0.5,3.4-1.4c0.9-0.9,1.4-2.2,1.4-3.4s-0.5-2.5-1.4-3.4c-0.9-0.9-2.2-1.4-3.4-1.4
	s-2.5,0.5-3.4,1.4c-0.9,0.9-1.4,2.2-1.4,3.4s0.5,2.5,1.4,3.4C-410.2-349.8-409-349.3-407.7-349.3z"/>
<path class="st1" d="M-495.4-331.7c1.3,0,2.5-0.5,3.4-1.4c0.9-0.9,1.4-2.2,1.4-3.4s-0.5-2.5-1.4-3.4s-2.2-1.4-3.4-1.4
	s-2.5,0.5-3.4,1.4c-0.9,0.9-1.4,2.2-1.4,3.4s0.5,2.5,1.4,3.4C-498-332.2-496.7-331.7-495.4-331.7z"/>
<path class="st3" d="M-528.3-287.8c1.3,0,2.5-0.5,3.4-1.4s1.4-2.2,1.4-3.4s-0.5-2.5-1.4-3.4c-0.9-0.9-2.2-1.4-3.4-1.4
	s-2.5,0.5-3.4,1.4c-0.9,0.9-1.4,2.2-1.4,3.4s0.5,2.5,1.4,3.4S-529.6-287.8-528.3-287.8z"/>
<path class="st3" d="M-528.3-300.6c1.3,0,2.5-0.5,3.4-1.4s1.4-2.2,1.4-3.4s-0.5-2.5-1.4-3.4c-0.9-0.9-2.2-1.4-3.4-1.4
	s-2.5,0.5-3.4,1.4c-0.9,0.9-1.4,2.2-1.4,3.4s0.5,2.5,1.4,3.4S-529.6-300.6-528.3-300.6z"/>
<path class="st1" d="M-276.1-301.2c1.3,0,2.5-0.5,3.4-1.4s1.4-2.2,1.4-3.4c0-1.3-0.5-2.5-1.4-3.4c-0.9-0.9-2.2-1.4-3.4-1.4
	c-1.3,0-2.5,0.5-3.4,1.4c-0.9,0.9-1.4,2.2-1.4,3.4c0,1.3,0.5,2.5,1.4,3.4S-277.4-301.2-276.1-301.2z"/>
<path class="st1" d="M-341.9-302.8c1.3,0,2.5-0.5,3.4-1.4c0.9-0.9,1.4-2.2,1.4-3.4s-0.5-2.5-1.4-3.4c-0.9-0.9-2.2-1.4-3.4-1.4
	s-2.5,0.5-3.4,1.4c-0.9,0.9-1.4,2.2-1.4,3.4s0.5,2.5,1.4,3.4C-344.4-303.3-343.2-302.8-341.9-302.8z"/>
<path class="st1" d="M-232.2-317.6c1.3,0,2.5-0.5,3.4-1.4c0.9-0.9,1.4-2.2,1.4-3.4s-0.5-2.5-1.4-3.4c-0.9-0.9-2.2-1.4-3.4-1.4
	s-2.5,0.5-3.4,1.4c-0.9,0.9-1.4,2.2-1.4,3.4s0.5,2.5,1.4,3.4C-234.7-318.1-233.5-317.6-232.2-317.6z"/>
<path class="st3" d="M-539.3-294.6c1.3,0,2.5-0.5,3.4-1.4c0.9-0.9,1.4-2.2,1.4-3.4s-0.5-2.5-1.4-3.4s-2.2-1.4-3.4-1.4
	s-2.5,0.5-3.4,1.4c-0.9,0.9-1.4,2.2-1.4,3.4s0.5,2.5,1.4,3.4C-541.8-295.1-540.6-294.6-539.3-294.6z"/>
<path class="st2" d="M-276.1-315.6c1.3,0,2.5-0.5,3.4-1.4c0.9-0.9,1.4-2.2,1.4-3.4s-0.5-2.5-1.4-3.4c-0.9-0.9-2.2-1.4-3.4-1.4
	c-1.3,0-2.5,0.5-3.4,1.4c-0.9,0.9-1.4,2.2-1.4,3.4s0.5,2.5,1.4,3.4C-278.6-316.1-277.4-315.6-276.1-315.6z"/>
<path class="st2" d="M-265.1-288.7c1.3,0,2.5-0.5,3.4-1.4c0.9-0.9,1.4-2.2,1.4-3.4s-0.5-2.5-1.4-3.4c-0.9-0.9-2.2-1.4-3.4-1.4
	s-2.5,0.5-3.4,1.4c-0.9,0.9-1.4,2.2-1.4,3.4s0.5,2.5,1.4,3.4C-267.6-289.2-266.4-288.7-265.1-288.7z"/>
<path class="st2" d="M-254.1-288c1.3,0,2.5-0.5,3.4-1.4c0.9-0.9,1.4-2.2,1.4-3.4s-0.5-2.5-1.4-3.4c-0.9-0.9-2.2-1.4-3.4-1.4
	s-2.5,0.5-3.4,1.4c-0.9,0.9-1.4,2.2-1.4,3.4s0.5,2.5,1.4,3.4C-256.7-288.5-255.4-288-254.1-288z"/>
<path class="st2" d="M-254.1-291.3c1.3,0,2.5-0.5,3.4-1.4s1.4-2.2,1.4-3.4s-0.5-2.5-1.4-3.4c-0.9-0.9-2.2-1.4-3.4-1.4
	s-2.5,0.5-3.4,1.4c-0.9,0.9-1.4,2.2-1.4,3.4s0.5,2.5,1.4,3.4C-256.7-291.9-255.4-291.3-254.1-291.3z"/>
<path class="st2" d="M-254.1-313.3c1.3,0,2.5-0.5,3.4-1.4c0.9-0.9,1.4-2.2,1.4-3.4s-0.5-2.5-1.4-3.4c-0.9-0.9-2.2-1.4-3.4-1.4
	s-2.5,0.5-3.4,1.4c-0.9,0.9-1.4,2.2-1.4,3.4s0.5,2.5,1.4,3.4C-256.7-313.8-255.4-313.3-254.1-313.3z"/>
<path class="st2" d="M-221.2-301c1.3,0,2.5-0.5,3.4-1.4c0.9-0.9,1.4-2.2,1.4-3.4s-0.5-2.5-1.4-3.4c-0.9-0.9-2.2-1.4-3.4-1.4
	s-2.5,0.5-3.4,1.4c-0.9,0.9-1.4,2.2-1.4,3.4s0.5,2.5,1.4,3.4C-223.8-301.5-222.5-301-221.2-301z"/>
<path class="st2" d="M-309-328.2c1.3,0,2.5-0.5,3.4-1.4c0.9-0.9,1.4-2.2,1.4-3.4s-0.5-2.5-1.4-3.4s-2.2-1.4-3.4-1.4
	c-1.3,0-2.5,0.5-3.4,1.4c-0.9,0.9-1.4,2.2-1.4,3.4s0.5,2.5,1.4,3.4C-311.5-328.8-310.3-328.2-309-328.2z"/>
<path class="st1" d="M-309-294.4c1.3,0,2.5-0.5,3.4-1.4s1.4-2.2,1.4-3.4c0-1.3-0.5-2.5-1.4-3.4c-0.9-0.9-2.2-1.4-3.4-1.4
	c-1.3,0-2.5,0.5-3.4,1.4c-0.9,0.9-1.4,2.2-1.4,3.4c0,1.3,0.5,2.5,1.4,3.4C-311.5-295-310.3-294.4-309-294.4z"/>
<path class="st2" d="M-287-299.5c1.3,0,2.5-0.5,3.4-1.4c0.9-0.9,1.4-2.2,1.4-3.4s-0.5-2.5-1.4-3.4c-0.9-0.9-2.2-1.4-3.4-1.4
	s-2.5,0.5-3.4,1.4c-0.9,0.9-1.4,2.2-1.4,3.4s0.5,2.5,1.4,3.4C-289.6-300-288.3-299.5-287-299.5z"/>
<path class="st2" d="M-265.1-312c1.3,0,2.5-0.5,3.4-1.4c0.9-0.9,1.4-2.2,1.4-3.4s-0.5-2.5-1.4-3.4c-0.9-0.9-2.2-1.4-3.4-1.4
	s-2.5,0.5-3.4,1.4c-0.9,0.9-1.4,2.2-1.4,3.4s0.5,2.5,1.4,3.4C-267.6-312.5-266.4-312-265.1-312z"/>
<path class="st1" d="M-298-287.6c1.3,0,2.5-0.5,3.4-1.4c0.9-0.9,1.4-2.2,1.4-3.4s-0.5-2.5-1.4-3.4c-0.9-0.9-2.2-1.4-3.4-1.4
	s-2.5,0.5-3.4,1.4c-0.9,0.9-1.4,2.2-1.4,3.4s0.5,2.5,1.4,3.4C-300.5-288.1-299.3-287.6-298-287.6z"/>
<path class="st2" d="M-309-313c1.3,0,2.5-0.5,3.4-1.4c0.9-0.9,1.4-2.2,1.4-3.4s-0.5-2.5-1.4-3.4s-2.2-1.4-3.4-1.4
	c-1.3,0-2.5,0.5-3.4,1.4c-0.9,0.9-1.4,2.2-1.4,3.4s0.5,2.5,1.4,3.4C-311.5-313.5-310.3-313-309-313z"/>
<path class="st2" d="M-276.1-300.1c1.3,0,2.5-0.5,3.4-1.4c0.9-0.9,1.4-2.2,1.4-3.4s-0.5-2.5-1.4-3.4c-0.9-0.9-2.2-1.4-3.4-1.4
	c-1.3,0-2.5,0.5-3.4,1.4c-0.9,0.9-1.4,2.2-1.4,3.4s0.5,2.5,1.4,3.4C-278.6-300.6-277.4-300.1-276.1-300.1z"/>
<path class="st2" d="M-287-292.9c1.3,0,2.5-0.5,3.4-1.4c0.9-0.9,1.4-2.2,1.4-3.4s-0.5-2.5-1.4-3.4c-0.9-0.9-2.2-1.4-3.4-1.4
	s-2.5,0.5-3.4,1.4c-0.9,0.9-1.4,2.2-1.4,3.4s0.5,2.5,1.4,3.4C-289.6-293.4-288.3-292.9-287-292.9z"/>
<path class="st2" d="M-298-310.5c1.3,0,2.5-0.5,3.4-1.4c0.9-0.9,1.4-2.2,1.4-3.4c0-1.3-0.5-2.5-1.4-3.4c-0.9-0.9-2.2-1.4-3.4-1.4
	s-2.5,0.5-3.4,1.4s-1.4,2.2-1.4,3.4c0,1.3,0.5,2.5,1.4,3.4S-299.3-310.5-298-310.5z"/>
<path class="st2" d="M-276.1-298c1.3,0,2.5-0.5,3.4-1.4c0.9-0.9,1.4-2.2,1.4-3.4s-0.5-2.5-1.4-3.4c-0.9-0.9-2.2-1.4-3.4-1.4
	c-1.3,0-2.5,0.5-3.4,1.4c-0.9,0.9-1.4,2.2-1.4,3.4s0.5,2.5,1.4,3.4C-278.6-298.5-277.4-298-276.1-298z"/>
<path class="st2" d="M-276.1-292.4c1.3,0,2.5-0.5,3.4-1.4c0.9-0.9,1.4-2.2,1.4-3.4s-0.5-2.5-1.4-3.4c-0.9-0.9-2.2-1.4-3.4-1.4
	c-1.3,0-2.5,0.5-3.4,1.4c-0.9,0.9-1.4,2.2-1.4,3.4s0.5,2.5,1.4,3.4C-278.6-292.9-277.4-292.4-276.1-292.4z"/>
<path class="st2" d="M-254.1-305.5c1.3,0,2.5-0.5,3.4-1.4c0.9-0.9,1.4-2.2,1.4-3.4s-0.5-2.5-1.4-3.4c-0.9-0.9-2.2-1.4-3.4-1.4
	s-2.5,0.5-3.4,1.4c-0.9,0.9-1.4,2.2-1.4,3.4s0.5,2.5,1.4,3.4C-256.7-306-255.4-305.5-254.1-305.5z"/>
<path class="st2" d="M-276.1-288c1.3,0,2.5-0.5,3.4-1.4s1.4-2.2,1.4-3.4s-0.5-2.5-1.4-3.4c-0.9-0.9-2.2-1.4-3.4-1.4
	c-1.3,0-2.5,0.5-3.4,1.4c-0.9,0.9-1.4,2.2-1.4,3.4s0.5,2.5,1.4,3.4S-277.4-288-276.1-288z"/>
<path class="st2" d="M-276.1-328.5c1.3,0,2.5-0.5,3.4-1.4s1.4-2.2,1.4-3.4c0-1.3-0.5-2.5-1.4-3.4c-0.9-0.9-2.2-1.4-3.4-1.4
	c-1.3,0-2.5,0.5-3.4,1.4c-0.9,0.9-1.4,2.2-1.4,3.4c0,1.3,0.5,2.5,1.4,3.4S-277.4-328.5-276.1-328.5z"/>
<path class="st2" d="M-287-292c1.3,0,2.5-0.5,3.4-1.4c0.9-0.9,1.4-2.2,1.4-3.4s-0.5-2.5-1.4-3.4c-0.9-0.9-2.2-1.4-3.4-1.4
	s-2.5,0.5-3.4,1.4c-0.9,0.9-1.4,2.2-1.4,3.4s0.5,2.5,1.4,3.4C-289.6-292.5-288.3-292-287-292z"/>
<path class="st1" d="M-309-290.9c1.3,0,2.5-0.5,3.4-1.4c0.9-0.9,1.4-2.2,1.4-3.4s-0.5-2.5-1.4-3.4c-0.9-0.9-2.2-1.4-3.4-1.4
	c-1.3,0-2.5,0.5-3.4,1.4c-0.9,0.9-1.4,2.2-1.4,3.4s0.5,2.5,1.4,3.4C-311.5-291.4-310.3-290.9-309-290.9z"/>
<path class="st2" d="M-243.2-331.9c1.3,0,2.5-0.5,3.4-1.4c0.9-0.9,1.4-2.2,1.4-3.4s-0.5-2.5-1.4-3.4c-0.9-0.9-2.2-1.4-3.4-1.4
	s-2.5,0.5-3.4,1.4c-0.9,0.9-1.4,2.2-1.4,3.4s0.5,2.5,1.4,3.4C-245.7-332.4-244.5-331.9-243.2-331.9z"/>
<path class="st2" d="M-287-326.9c1.3,0,2.5-0.5,3.4-1.4c0.9-0.9,1.4-2.2,1.4-3.4s-0.5-2.5-1.4-3.4c-0.9-0.9-2.2-1.4-3.4-1.4
	s-2.5,0.5-3.4,1.4c-0.9,0.9-1.4,2.2-1.4,3.4s0.5,2.5,1.4,3.4C-289.6-327.5-288.3-326.9-287-326.9z"/>
<path class="st2" d="M-276.1-288.1c1.3,0,2.5-0.5,3.4-1.4s1.4-2.2,1.4-3.4s-0.5-2.5-1.4-3.4c-0.9-0.9-2.2-1.4-3.4-1.4
	c-1.3,0-2.5,0.5-3.4,1.4c-0.9,0.9-1.4,2.2-1.4,3.4s0.5,2.5,1.4,3.4S-277.4-288.1-276.1-288.1z"/>
<path class="st2" d="M-319.9-311.9c1.3,0,2.5-0.5,3.4-1.4c0.9-0.9,1.4-2.2,1.4-3.4s-0.5-2.5-1.4-3.4c-0.9-0.9-2.2-1.4-3.4-1.4
	s-2.5,0.5-3.4,1.4c-0.9,0.9-1.4,2.2-1.4,3.4s0.5,2.5,1.4,3.4C-322.5-312.5-321.2-311.9-319.9-311.9z"/>
<path class="st2" d="M-265.1-298.5c1.3,0,2.5-0.5,3.4-1.4c0.9-0.9,1.4-2.2,1.4-3.4s-0.5-2.5-1.4-3.4c-0.9-0.9-2.2-1.4-3.4-1.4
	s-2.5,0.5-3.4,1.4c-0.9,0.9-1.4,2.2-1.4,3.4s0.5,2.5,1.4,3.4C-267.6-299-266.4-298.5-265.1-298.5z"/>
<path class="st2" d="M-265.1-288.6c1.3,0,2.5-0.5,3.4-1.4c0.9-0.9,1.4-2.2,1.4-3.4s-0.5-2.5-1.4-3.4c-0.9-0.9-2.2-1.4-3.4-1.4
	s-2.5,0.5-3.4,1.4c-0.9,0.9-1.4,2.2-1.4,3.4s0.5,2.5,1.4,3.4C-267.6-289.1-266.4-288.6-265.1-288.6z"/>
<path class="st2" d="M-276.1-310.3c1.3,0,2.5-0.5,3.4-1.4c0.9-0.9,1.4-2.2,1.4-3.4s-0.5-2.5-1.4-3.4s-2.2-1.4-3.4-1.4
	c-1.3,0-2.5,0.5-3.4,1.4s-1.4,2.2-1.4,3.4s0.5,2.5,1.4,3.4C-278.6-310.8-277.4-310.3-276.1-310.3z"/>
<path class="st2" d="M-363.8-301.6c1.3,0,2.5-0.5,3.4-1.4c0.9-0.9,1.4-2.2,1.4-3.4s-0.5-2.5-1.4-3.4s-2.2-1.4-3.4-1.4
	s-2.5,0.5-3.4,1.4c-0.9,0.9-1.4,2.2-1.4,3.4s0.5,2.5,1.4,3.4C-366.4-302.1-365.1-301.6-363.8-301.6z"/>
<path class="st1" d="M-352.9-308.1c1.3,0,2.5-0.5,3.4-1.4c0.9-0.9,1.4-2.2,1.4-3.4s-0.5-2.5-1.4-3.4c-0.9-0.9-2.2-1.4-3.4-1.4
	s-2.5,0.5-3.4,1.4s-1.4,2.2-1.4,3.4s0.5,2.5,1.4,3.4C-355.4-308.6-354.1-308.1-352.9-308.1z"/>
<path class="st2" d="M-287-311.8c1.3,0,2.5-0.5,3.4-1.4c0.9-0.9,1.4-2.2,1.4-3.4s-0.5-2.5-1.4-3.4c-0.9-0.9-2.2-1.4-3.4-1.4
	s-2.5,0.5-3.4,1.4c-0.9,0.9-1.4,2.2-1.4,3.4s0.5,2.5,1.4,3.4C-289.6-312.3-288.3-311.8-287-311.8z"/>
<path class="st2" d="M-265.1-291.7c1.3,0,2.5-0.5,3.4-1.4c0.9-0.9,1.4-2.2,1.4-3.4s-0.5-2.5-1.4-3.4c-0.9-0.9-2.2-1.4-3.4-1.4
	s-2.5,0.5-3.4,1.4c-0.9,0.9-1.4,2.2-1.4,3.4s0.5,2.5,1.4,3.4C-267.6-292.2-266.4-291.7-265.1-291.7z"/>
<path class="st2" d="M-319.9-332.5c1.3,0,2.5-0.5,3.4-1.4c0.9-0.9,1.4-2.2,1.4-3.4s-0.5-2.5-1.4-3.4c-0.9-0.9-2.2-1.4-3.4-1.4
	s-2.5,0.5-3.4,1.4c-0.9,0.9-1.4,2.2-1.4,3.4s0.5,2.5,1.4,3.4C-322.5-333-321.2-332.5-319.9-332.5z"/>
<path class="st2" d="M-319.9-319c1.3,0,2.5-0.5,3.4-1.4c0.9-0.9,1.4-2.2,1.4-3.4s-0.5-2.5-1.4-3.4c-0.9-0.9-2.2-1.4-3.4-1.4
	s-2.5,0.5-3.4,1.4c-0.9,0.9-1.4,2.2-1.4,3.4s0.5,2.5,1.4,3.4C-322.5-319.5-321.2-319-319.9-319z"/>
<path class="st2" d="M-276.1-289.3c1.3,0,2.5-0.5,3.4-1.4s1.4-2.2,1.4-3.4s-0.5-2.5-1.4-3.4c-0.9-0.9-2.2-1.4-3.4-1.4
	c-1.3,0-2.5,0.5-3.4,1.4c-0.9,0.9-1.4,2.2-1.4,3.4s0.5,2.5,1.4,3.4S-277.4-289.3-276.1-289.3z"/>
<path class="st2" d="M-276.1-290.8c1.3,0,2.5-0.5,3.4-1.4c0.9-0.9,1.4-2.2,1.4-3.4s-0.5-2.5-1.4-3.4c-0.9-0.9-2.2-1.4-3.4-1.4
	c-1.3,0-2.5,0.5-3.4,1.4c-0.9,0.9-1.4,2.2-1.4,3.4s0.5,2.5,1.4,3.4C-278.6-291.3-277.4-290.8-276.1-290.8z"/>
<path class="st2" d="M-319.9-293.4c1.3,0,2.5-0.5,3.4-1.4c0.9-0.9,1.4-2.2,1.4-3.4s-0.5-2.5-1.4-3.4c-0.9-0.9-2.2-1.4-3.4-1.4
	s-2.5,0.5-3.4,1.4c-0.9,0.9-1.4,2.2-1.4,3.4s0.5,2.5,1.4,3.4C-322.5-293.9-321.2-293.4-319.9-293.4z"/>
<path class="st2" d="M-287-300.9c1.3,0,2.5-0.5,3.4-1.4c0.9-0.9,1.4-2.2,1.4-3.4s-0.5-2.5-1.4-3.4c-0.9-0.9-2.2-1.4-3.4-1.4
	s-2.5,0.5-3.4,1.4c-0.9,0.9-1.4,2.2-1.4,3.4s0.5,2.5,1.4,3.4C-289.6-301.4-288.3-300.9-287-300.9z"/>
<path class="st2" d="M-287-333.6c1.3,0,2.5-0.5,3.4-1.4c0.9-0.9,1.4-2.2,1.4-3.4s-0.5-2.5-1.4-3.4c-0.9-0.9-2.2-1.4-3.4-1.4
	s-2.5,0.5-3.4,1.4c-0.9,0.9-1.4,2.2-1.4,3.4s0.5,2.5,1.4,3.4C-289.6-334.1-288.3-333.6-287-333.6z"/>
<path class="st2" d="M-319.9-294.4c1.3,0,2.5-0.5,3.4-1.4c0.9-0.9,1.4-2.2,1.4-3.4c0-1.3-0.5-2.5-1.4-3.4c-0.9-0.9-2.2-1.4-3.4-1.4
	s-2.5,0.5-3.4,1.4c-0.9,0.9-1.4,2.2-1.4,3.4c0,1.3,0.5,2.5,1.4,3.4C-322.5-294.9-321.2-294.4-319.9-294.4z"/>
<path class="st2" d="M-276.1-298.3c1.3,0,2.5-0.5,3.4-1.4c0.9-0.9,1.4-2.2,1.4-3.4s-0.5-2.5-1.4-3.4s-2.2-1.4-3.4-1.4
	c-1.3,0-2.5,0.5-3.4,1.4s-1.4,2.2-1.4,3.4s0.5,2.5,1.4,3.4C-278.6-298.8-277.4-298.3-276.1-298.3z"/>
<path class="st2" d="M-276.1-293.8c1.3,0,2.5-0.5,3.4-1.4c0.9-0.9,1.4-2.2,1.4-3.4s-0.5-2.5-1.4-3.4c-0.9-0.9-2.2-1.4-3.4-1.4
	c-1.3,0-2.5,0.5-3.4,1.4c-0.9,0.9-1.4,2.2-1.4,3.4s0.5,2.5,1.4,3.4C-278.6-294.3-277.4-293.8-276.1-293.8z"/>
<path class="st2" d="M-287-291.3c1.3,0,2.5-0.5,3.4-1.4c0.9-0.9,1.4-2.2,1.4-3.4s-0.5-2.5-1.4-3.4c-0.9-0.9-2.2-1.4-3.4-1.4
	s-2.5,0.5-3.4,1.4c-0.9,0.9-1.4,2.2-1.4,3.4s0.5,2.5,1.4,3.4C-289.6-291.8-288.3-291.3-287-291.3z"/>
<path class="st2" d="M-276.1-287.7c1.3,0,2.5-0.5,3.4-1.4c0.9-0.9,1.4-2.2,1.4-3.4s-0.5-2.5-1.4-3.4c-0.9-0.9-2.2-1.4-3.4-1.4
	c-1.3,0-2.5,0.5-3.4,1.4c-0.9,0.9-1.4,2.2-1.4,3.4s0.5,2.5,1.4,3.4C-278.6-288.2-277.4-287.7-276.1-287.7z"/>
<path class="st1" d="M-319.9-306.5c1.3,0,2.5-0.5,3.4-1.4c0.9-0.9,1.4-2.2,1.4-3.4s-0.5-2.5-1.4-3.4c-0.9-0.9-2.2-1.4-3.4-1.4
	s-2.5,0.5-3.4,1.4c-0.9,0.9-1.4,2.2-1.4,3.4s0.5,2.5,1.4,3.4C-322.5-307-321.2-306.5-319.9-306.5z"/>
<path class="st2" d="M-309-294.2c1.3,0,2.5-0.5,3.4-1.4s1.4-2.2,1.4-3.4s-0.5-2.5-1.4-3.4c-0.9-0.9-2.2-1.4-3.4-1.4
	c-1.3,0-2.5,0.5-3.4,1.4c-0.9,0.9-1.4,2.2-1.4,3.4s0.5,2.5,1.4,3.4C-311.5-294.7-310.3-294.2-309-294.2z"/>
<path class="st2" d="M-319.9-307.3c1.3,0,2.5-0.5,3.4-1.4c0.9-0.9,1.4-2.2,1.4-3.4s-0.5-2.5-1.4-3.4c-0.9-0.9-2.2-1.4-3.4-1.4
	s-2.5,0.5-3.4,1.4c-0.9,0.9-1.4,2.2-1.4,3.4s0.5,2.5,1.4,3.4C-322.5-307.8-321.2-307.3-319.9-307.3z"/>
<path class="st2" d="M-319.9-310.1c1.3,0,2.5-0.5,3.4-1.4c0.9-0.9,1.4-2.2,1.4-3.4s-0.5-2.5-1.4-3.4c-0.9-0.9-2.2-1.4-3.4-1.4
	s-2.5,0.5-3.4,1.4c-0.9,0.9-1.4,2.2-1.4,3.4s0.5,2.5,1.4,3.4C-322.5-310.6-321.2-310.1-319.9-310.1z"/>
<path class="st1" d="M-287-508.7c1.3,0,2.5-0.5,3.4-1.4c0.9-0.9,1.4-2.2,1.4-3.4s-0.5-2.5-1.4-3.4c-0.9-0.9-2.2-1.4-3.4-1.4
	s-2.5,0.5-3.4,1.4c-0.9,0.9-1.4,2.2-1.4,3.4s0.5,2.5,1.4,3.4C-289.6-509.2-288.3-508.7-287-508.7z"/>
<path class="st2" d="M-363.8-294.4c1.3,0,2.5-0.5,3.4-1.4c0.9-0.9,1.4-2.2,1.4-3.4s-0.5-2.5-1.4-3.4s-2.2-1.4-3.4-1.4
	s-2.5,0.5-3.4,1.4c-0.9,0.9-1.4,2.2-1.4,3.4s0.5,2.5,1.4,3.4C-366.4-294.9-365.1-294.4-363.8-294.4z"/>
<path class="st1" d="M-341.9-377c1.3,0,2.5-0.5,3.4-1.4c0.9-0.9,1.4-2.2,1.4-3.4s-0.5-2.5-1.4-3.4s-2.2-1.4-3.4-1.4
	s-2.5,0.5-3.4,1.4c-0.9,0.9-1.4,2.2-1.4,3.4s0.5,2.5,1.4,3.4C-344.4-377.5-343.2-377-341.9-377z"/>
<path class="st1" d="M-341.9-443.6c1.3,0,2.5-0.5,3.4-1.4c0.9-0.9,1.4-2.2,1.4-3.4s-0.5-2.5-1.4-3.4c-0.9-0.9-2.2-1.4-3.4-1.4
	s-2.5,0.5-3.4,1.4c-0.9,0.9-1.4,2.2-1.4,3.4s0.5,2.5,1.4,3.4C-344.4-444.1-343.2-443.6-341.9-443.6z"/>
<path class="st1" d="M-341.9-380.2c1.3,0,2.5-0.5,3.4-1.4s1.4-2.2,1.4-3.4c0-1.3-0.5-2.5-1.4-3.4s-2.2-1.4-3.4-1.4s-2.5,0.5-3.4,1.4
	c-0.9,0.9-1.4,2.2-1.4,3.4c0,1.3,0.5,2.5,1.4,3.4C-344.4-380.7-343.2-380.2-341.9-380.2z"/>
<path class="st1" d="M-319.9-377c1.3,0,2.5-0.5,3.4-1.4c0.9-0.9,1.4-2.2,1.4-3.4s-0.5-2.5-1.4-3.4c-0.9-0.9-2.2-1.4-3.4-1.4
	s-2.5,0.5-3.4,1.4c-0.9,0.9-1.4,2.2-1.4,3.4s0.5,2.5,1.4,3.4C-322.5-377.5-321.2-377-319.9-377z"/>
<path class="st3" d="M-287-316.4c1.3,0,2.5-0.5,3.4-1.4c0.9-0.9,1.4-2.2,1.4-3.4s-0.5-2.5-1.4-3.4c-0.9-0.9-2.2-1.4-3.4-1.4
	s-2.5,0.5-3.4,1.4c-0.9,0.9-1.4,2.2-1.4,3.4s0.5,2.5,1.4,3.4C-289.6-316.9-288.3-316.4-287-316.4z"/>
<path class="st1" d="M-363.8-380.2c1.3,0,2.5-0.5,3.4-1.4s1.4-2.2,1.4-3.4c0-1.3-0.5-2.5-1.4-3.4s-2.2-1.4-3.4-1.4s-2.5,0.5-3.4,1.4
	c-0.9,0.9-1.4,2.2-1.4,3.4c0,1.3,0.5,2.5,1.4,3.4C-366.4-380.7-365.1-380.2-363.8-380.2z"/>
<path class="st1" d="M-407.7-377c1.3,0,2.5-0.5,3.4-1.4c0.9-0.9,1.4-2.2,1.4-3.4s-0.5-2.5-1.4-3.4c-0.9-0.9-2.2-1.4-3.4-1.4
	s-2.5,0.5-3.4,1.4c-0.9,0.9-1.4,2.2-1.4,3.4s0.5,2.5,1.4,3.4C-410.2-377.5-409-377-407.7-377z"/>
<path class="st1" d="M-418.7-328.2c1.3,0,2.5-0.5,3.4-1.4c0.9-0.9,1.4-2.2,1.4-3.4s-0.5-2.5-1.4-3.4c-0.9-0.9-2.2-1.4-3.4-1.4
	s-2.5,0.5-3.4,1.4c-0.9,0.9-1.4,2.2-1.4,3.4s0.5,2.5,1.4,3.4C-421.2-328.7-420-328.2-418.7-328.2z"/>
<path class="st1" d="M-539.3-338.7c1.3,0,2.5-0.5,3.4-1.4c0.9-0.9,1.4-2.2,1.4-3.4s-0.5-2.5-1.4-3.4c-0.9-0.9-2.2-1.4-3.4-1.4
	s-2.5,0.5-3.4,1.4c-0.9,0.9-1.4,2.2-1.4,3.4s0.5,2.5,1.4,3.4C-541.8-339.2-540.6-338.7-539.3-338.7z"/>
<path class="st1" d="M-539.3-330.2c1.3,0,2.5-0.5,3.4-1.4s1.4-2.2,1.4-3.4s-0.5-2.5-1.4-3.4c-0.9-0.9-2.2-1.4-3.4-1.4
	s-2.5,0.5-3.4,1.4c-0.9,0.9-1.4,2.2-1.4,3.4s0.5,2.5,1.4,3.4C-541.8-330.7-540.6-330.2-539.3-330.2z"/>
<path class="st2" d="M-528.3-335.5c1.3,0,2.5-0.5,3.4-1.4s1.4-2.2,1.4-3.4s-0.5-2.5-1.4-3.4c-0.9-0.9-2.2-1.4-3.4-1.4
	s-2.5,0.5-3.4,1.4c-0.9,0.9-1.4,2.2-1.4,3.4s0.5,2.5,1.4,3.4S-529.6-335.5-528.3-335.5z"/>
<polyline class="st4" points="-60.3,-351.7 -60.3,-367 -45,-367 -45,-351.7 "/>
<polyline class="st4" points="-60.3,-351.7 -60.3,-367 -45,-367 -45,-351.7 "/>
<path class="st5" d="M-52.6-359.4"/>
<polyline class="st4" points="-60.3,-351.7 -60.3,-367 -45,-367 -45,-351.7 "/>
<path id="mdd83ccdd3a" class="st3" d="M-46.8-355.3c1.1,0,2.1-0.4,2.9-1.2s1.2-1.8,1.2-2.9c0-1.1-0.4-2.1-1.2-2.9s-1.8-1.2-2.9-1.2
	s-2.1,0.4-2.9,1.2s-1.2,1.8-1.2,2.9c0,1.1,0.4,2.1,1.2,2.9S-47.9-355.3-46.8-355.3z"/>
<polyline class="st4" points="-60.3,-334.7 -60.3,-350 -45,-350 -45,-334.7 "/>
<polyline class="st4" points="-60.3,-334.7 -60.3,-350 -45,-350 -45,-334.7 "/>
<path class="st5" d="M-52.6-342.3"/>
<polyline class="st4" points="-60.3,-334.7 -60.3,-350 -45,-350 -45,-334.7 "/>
<path id="ma6dbd2d290" class="st1" d="M-46.8-338.3c1.1,0,2.1-0.4,2.9-1.2s1.2-1.8,1.2-2.9c0-1.1-0.4-2.1-1.2-2.9s-1.8-1.2-2.9-1.2
	s-2.1,0.4-2.9,1.2s-1.2,1.8-1.2,2.9c0,1.1,0.4,2.1,1.2,2.9S-47.9-338.3-46.8-338.3z"/>
<polyline class="st4" points="-60.3,-317.6 -60.3,-333 -45,-333 -45,-317.6 "/>
<path class="st5" d="M-52.6-325.3"/>
<path id="ma70e93febb" class="st2" d="M-46.8-321.3c1.1,0,2.1-0.4,2.9-1.2c0.8-0.8,1.2-1.8,1.2-2.9c0-1.1-0.4-2.1-1.2-2.9
	c-0.8-0.8-1.8-1.2-2.9-1.2s-2.1,0.4-2.9,1.2c-0.8,0.8-1.2,1.8-1.2,2.9c0,1.1,0.4,2.1,1.2,2.9C-48.9-321.7-47.9-321.3-46.8-321.3z"/>
<rect x="-344.1" y="-253" class="st4" width="123.9" height="15"/>
<text transform="matrix(1 0 0 1 -344.1136 -244.4104)" class="st10" style="font-size:12px;">Tenure in years</text>
<rect x="-593.7" y="-597.9" class="st4" width="108.7" height="27.8"/>
<text transform="matrix(1 0 0 1 -593.6758 -589.2687)"><tspan x="0" y="0" class="st10" style="font-size:12px;">Ratio of overtime to</tspan><tspan x="0" y="14.4" class="st10" style="font-size:12px;">regular hours</tspan></text>
<rect x="-579.1" y="-537.3" class="st4" width="19.5" height="9.4"/>
<text transform="matrix(1 0 0 1 -579.1021 -528.7079)" class="st10" style="font-size:12px;">7.5</text>
<rect x="-570.1" y="-445.7" class="st4" width="6.8" height="9.4"/>
<text transform="matrix(1 0 0 1 -570.1021 -437.078)" class="st12 st10" style="font-size:12px;">5</text>
<rect x="-578.8" y="-352.6" class="st4" width="17.6" height="9.4"/>
<text transform="matrix(1 0 0 1 -578.8141 -344.0131)" class="st12 st10" style="font-size:12px;">2.5</text>
<rect x="-458.4" y="-274.7" class="st4" width="15.5" height="9.4"/>
<text transform="matrix(1 0 0 1 -458.3854 -266.1196)" class="st12 st10" style="font-size:12px;">10</text>
<rect x="-348.7" y="-273.8" class="st4" width="15.5" height="9.4"/>
<text transform="matrix(1 0 0 1 -348.6821 -265.1743)" class="st12 st10" style="font-size:12px;">20</text>
<rect x="-238.8" y="-274" class="st4" width="15.5" height="9.4"/>
<text transform="matrix(1 0 0 1 -238.8266 -265.3594)" class="st12 st10" style="font-size:12px;">30</text>
<rect x="-128.7" y="-273.8" class="st4" width="15.5" height="9.4"/>
<text transform="matrix(1 0 0 1 -128.7169 -265.1743)" class="st12 st10" style="font-size:12px;">40</text>
<rect x="-49.9" y="-380.2" class="st4" width="75.1" height="10.7"/>
<text transform="matrix(1 0 0 1 -49.9067 -373.1293)" class="st13" style="font-size:9.9363px;">Agency</text>
<rect x="-40.6" y="-363.4" class="st4" width="115.5" height="10.7"/>
<text transform="matrix(1 0 0 1 -40.6225 -356.2826)" class="st10" style="font-size:9.9363px;">Department of Correction</text>
<rect x="-40.7" y="-346.9" class="st4" width="115.5" height="10.7"/>
<text transform="matrix(1 0 0 1 -40.686 -339.7416)" class="st10" style="font-size:9.9363px;">Fire Department</text>
<rect x="-40.7" y="-328.4" class="st4" width="115.5" height="10.7"/>
<text transform="matrix(1 0 0 1 -40.686 -321.2914)" class="st10" style="font-size:9.9363px;">Police Department</text>
<rect x="-597.5" y="-659.9" class="st4" width="599.1" height="36.5"/>
<text transform="matrix(1 0 0 1 -597.5383 -649.8706)"><tspan x="0" y="0" class="st10" style="font-size:14px;">Officers, now retired, clocked in five times, sometimes more, hours in overtime than regular </tspan><tspan x="0" y="16.8" class="st10" style="font-size:14px;">hours as they neared 20 years of service</tspan></text>
<rect x="-93.2" y="-247.1" class="st4" width="153.1" height="10.3"/>
<text transform="matrix(1 0 0 1 -93.1999 -241.3282)" class="st10" style="font-size:8px;">Source: Payroll data from NYC Open Data</text>
<rect x="-186.4" y="-596.8" class="st4" width="252.1" height="53.5"/>
<text transform="matrix(1 0 0 1 -186.3815 -586.7791)"><tspan x="0" y="0" class="st10" style="font-size:14px;">Five firefighters, all now retired, clocked </tspan><tspan x="0" y="16.8" class="st10" style="font-size:14px;">in just about 20 hours of regular work </tspan><tspan x="0" y="33.6" class="st10" style="font-size:14px;">and over 100 hours each in overtime</tspan></text>
<rect x="-194.7" y="-511.8" class="st4" width="284.2" height="55"/>
<text transform="matrix(1 0 0 1 -194.7248 -501.7553)"><tspan x="0" y="0" class="st10" style="font-size:14px;">One cop, now retired, clocked in over 2,400 </tspan><tspan x="0" y="16.8" class="st10" style="font-size:14px;">overtime hours, compared to just about 600 </tspan><tspan x="0" y="33.6" class="st10" style="font-size:14px;">regular work hours in his last year of service</tspan></text>
<rect x="-423.5" y="-610" class="st6" width="152.3" height="176.4"/>
<g>
	<g>
		<path class="st7" d="M-180.9-602.1c-7.7-8.2-30.8-12.2-57.3-9.1c-26.4,3.1-48,12.2-53.6,21.9"/>
		<g>
			<path class="st8" d="M-293.2-583.5c-0.3-3-1.1-6.9-2.3-9.5l4.1,2.9l5-0.4C-288.8-588.9-291.5-585.9-293.2-583.5z"/>
		</g>
	</g>
</g>
<g>
	<g>
		<line class="st7" x1="-208.6" y1="-459.6" x2="-249.9" y2="-406"/>
		<g>
			<path class="st8" d="M-253.6-401.2c0.9-2.9,1.6-6.8,1.4-9.7l2.7,4.3l4.8,1.5C-247.4-404.5-251-402.8-253.6-401.2z"/>
		</g>
	</g>
</g>
<rect x="-193.9" y="-456.9" class="st4" width="263.1" height="16.8"/>
<text transform="matrix(1 0 0 1 -193.8517 -446.8997)" class="st10" style="font-size:14px;">He made over $160K in overtime in 2020</text>
<line class="st9" x1="-557.7" y1="-282.5" x2="-113.2" y2="-282.5"/>
<path class="st0" d="M-1031.6,241.9"/>
<path class="st0" d="M-946.4,241.9"/>
<path class="st0" d="M-861.1,241.9"/>
<path class="st0" d="M-775.8,241.9"/>
<path id="DejaVuSans-20_00000064340565843555941080000002590392197925201553_" d="M-951.8,262.3"/>
<path id="DejaVuSans-20_00000160166535883646049800000002180869131356705942_" d="M-941.3,262.3"/>
<path class="st0" d="M-1115.6,187"/>
<path class="st0" d="M-1115.6,114.7"/>
<path class="st0" d="M-1115.6,42.4"/>
<path class="st1" d="M-878.1,221.8c1,0,2-0.4,2.7-1.1c0.7-0.7,1.1-1.7,1.1-2.7s-0.4-2-1.1-2.7c-0.7-0.7-1.7-1.1-2.7-1.1
	s-2,0.4-2.7,1.1c-0.7,0.7-1.1,1.7-1.1,2.7s0.4,2,1.1,2.7C-880.1,221.4-879.1,221.8-878.1,221.8z"/>
<path class="st2" d="M-903.7,233.8c1,0,2-0.4,2.7-1.1c0.7-0.7,1.1-1.7,1.1-2.7s-0.4-2-1.1-2.7c-0.7-0.7-1.7-1.1-2.7-1.1
	s-2,0.4-2.7,1.1c-0.7,0.7-1.1,1.7-1.1,2.7s0.4,2,1.1,2.7C-905.7,233.4-904.7,233.8-903.7,233.8z"/>
<path class="st3" d="M-1082.8,232.8c1,0,2-0.4,2.7-1.1s1.1-1.7,1.1-2.7s-0.4-2-1.1-2.7c-0.7-0.7-1.7-1.1-2.7-1.1c-1,0-2,0.4-2.7,1.1
	c-0.7,0.7-1.1,1.7-1.1,2.7s0.4,2,1.1,2.7S-1083.8,232.8-1082.8,232.8z"/>
<path class="st2" d="M-878.1,223.7c1,0,2-0.4,2.7-1.1c0.7-0.7,1.1-1.7,1.1-2.7s-0.4-2-1.1-2.7c-0.7-0.7-1.7-1.1-2.7-1.1
	s-2,0.4-2.7,1.1c-0.7,0.7-1.1,1.7-1.1,2.7s0.4,2,1.1,2.7C-880.1,223.3-879.1,223.7-878.1,223.7z"/>
<path class="st2" d="M-895.2,231.9c1,0,2-0.4,2.7-1.1s1.1-1.7,1.1-2.7s-0.4-2-1.1-2.7c-0.7-0.7-1.7-1.1-2.7-1.1c-1,0-2,0.4-2.7,1.1
	c-0.7,0.7-1.1,1.7-1.1,2.7s0.4,2,1.1,2.7S-896.2,231.9-895.2,231.9z"/>
<path class="st2" d="M-861.1,233.8c1,0,2-0.4,2.7-1.1s1.1-1.7,1.1-2.7s-0.4-2-1.1-2.7c-0.7-0.7-1.7-1.1-2.7-1.1c-1,0-2,0.4-2.7,1.1
	c-0.7,0.7-1.1,1.7-1.1,2.7s0.4,2,1.1,2.7S-862.1,233.8-861.1,233.8z"/>
<path class="st2" d="M-886.7,156.5c1,0,2-0.4,2.7-1.1c0.7-0.7,1.1-1.7,1.1-2.7c0-1-0.4-2-1.1-2.7c-0.7-0.7-1.7-1.1-2.7-1.1
	c-1,0-2,0.4-2.7,1.1c-0.7,0.7-1.1,1.7-1.1,2.7c0,1,0.4,2,1.1,2.7C-888.6,156.1-887.7,156.5-886.7,156.5z"/>
<path class="st2" d="M-886.7,232.7c1,0,2-0.4,2.7-1.1c0.7-0.7,1.1-1.7,1.1-2.7s-0.4-2-1.1-2.7c-0.7-0.7-1.7-1.1-2.7-1.1
	c-1,0-2,0.4-2.7,1.1c-0.7,0.7-1.1,1.7-1.1,2.7s0.4,2,1.1,2.7C-888.6,232.3-887.7,232.7-886.7,232.7z"/>
<path class="st2" d="M-903.7,226.5c1,0,2-0.4,2.7-1.1c0.7-0.7,1.1-1.7,1.1-2.7c0-1-0.4-2-1.1-2.7c-0.7-0.7-1.7-1.1-2.7-1.1
	s-2,0.4-2.7,1.1c-0.7,0.7-1.1,1.7-1.1,2.7c0,1,0.4,2,1.1,2.7S-904.7,226.5-903.7,226.5z"/>
<path class="st2" d="M-929.3,233c1,0,2-0.4,2.7-1.1s1.1-1.7,1.1-2.7s-0.4-2-1.1-2.7c-0.7-0.7-1.7-1.1-2.7-1.1c-1,0-2,0.4-2.7,1.1
	c-0.7,0.7-1.1,1.7-1.1,2.7s0.4,2,1.1,2.7S-930.3,233-929.3,233z"/>
<path class="st2" d="M-920.8,226.7c1,0,2-0.4,2.7-1.1c0.7-0.7,1.1-1.7,1.1-2.7c0-1-0.4-2-1.1-2.7s-1.7-1.1-2.7-1.1
	c-1,0-2,0.4-2.7,1.1s-1.1,1.7-1.1,2.7c0,1,0.4,2,1.1,2.7C-922.7,226.3-921.8,226.7-920.8,226.7z"/>
<path class="st2" d="M-929.3,233.5c1,0,2-0.4,2.7-1.1s1.1-1.7,1.1-2.7s-0.4-2-1.1-2.7c-0.7-0.7-1.7-1.1-2.7-1.1c-1,0-2,0.4-2.7,1.1
	c-0.7,0.7-1.1,1.7-1.1,2.7s0.4,2,1.1,2.7S-930.3,233.5-929.3,233.5z"/>
<path class="st2" d="M-929.3,214.3c1,0,2-0.4,2.7-1.1s1.1-1.7,1.1-2.7c0-1-0.4-2-1.1-2.7c-0.7-0.7-1.7-1.1-2.7-1.1
	c-1,0-2,0.4-2.7,1.1c-0.7,0.7-1.1,1.7-1.1,2.7c0,1,0.4,2,1.1,2.7S-930.3,214.3-929.3,214.3z"/>
<path class="st2" d="M-929.3,232.9c1,0,2-0.4,2.7-1.1c0.7-0.7,1.1-1.7,1.1-2.7s-0.4-2-1.1-2.7s-1.7-1.1-2.7-1.1c-1,0-2,0.4-2.7,1.1
	s-1.1,1.7-1.1,2.7s0.4,2,1.1,2.7C-931.3,232.5-930.3,232.9-929.3,232.9z"/>
<path class="st2" d="M-886.7,227.5c1,0,2-0.4,2.7-1.1c0.7-0.7,1.1-1.7,1.1-2.7c0-1-0.4-2-1.1-2.7s-1.7-1.1-2.7-1.1
	c-1,0-2,0.4-2.7,1.1s-1.1,1.7-1.1,2.7c0,1,0.4,2,1.1,2.7C-888.6,227.1-887.7,227.5-886.7,227.5z"/>
<path class="st2" d="M-929.3,223.3c1,0,2-0.4,2.7-1.1c0.7-0.7,1.1-1.7,1.1-2.7s-0.4-2-1.1-2.7c-0.7-0.7-1.7-1.1-2.7-1.1
	c-1,0-2,0.4-2.7,1.1c-0.7,0.7-1.1,1.7-1.1,2.7s0.4,2,1.1,2.7C-931.3,222.9-930.3,223.3-929.3,223.3z"/>
<path class="st2" d="M-929.3,229.8c1,0,2-0.4,2.7-1.1c0.7-0.7,1.1-1.7,1.1-2.7s-0.4-2-1.1-2.7c-0.7-0.7-1.7-1.1-2.7-1.1
	c-1,0-2,0.4-2.7,1.1c-0.7,0.7-1.1,1.7-1.1,2.7s0.4,2,1.1,2.7C-931.3,229.4-930.3,229.8-929.3,229.8z"/>
<path class="st2" d="M-886.7,220.7c1,0,2-0.4,2.7-1.1c0.7-0.7,1.1-1.7,1.1-2.7s-0.4-2-1.1-2.7s-1.7-1.1-2.7-1.1c-1,0-2,0.4-2.7,1.1
	s-1.1,1.7-1.1,2.7s0.4,2,1.1,2.7C-888.6,220.3-887.7,220.7-886.7,220.7z"/>
<path class="st2" d="M-1065.8,191.1c1,0,2-0.4,2.7-1.1c0.7-0.7,1.1-1.7,1.1-2.7s-0.4-2-1.1-2.7s-1.7-1.1-2.7-1.1c-1,0-2,0.4-2.7,1.1
	c-0.7,0.7-1.1,1.7-1.1,2.7s0.4,2,1.1,2.7C-1067.7,190.7-1066.8,191.1-1065.8,191.1z"/>
<path class="st2" d="M-920.8,223.3c1,0,2-0.4,2.7-1.1c0.7-0.7,1.1-1.7,1.1-2.7s-0.4-2-1.1-2.7s-1.7-1.1-2.7-1.1c-1,0-2,0.4-2.7,1.1
	s-1.1,1.7-1.1,2.7s0.4,2,1.1,2.7C-922.7,222.9-921.8,223.3-920.8,223.3z"/>
<path class="st1" d="M-784.3,225.1c1,0,2-0.4,2.7-1.1c0.7-0.7,1.1-1.7,1.1-2.7s-0.4-2-1.1-2.7s-1.7-1.1-2.7-1.1c-1,0-2,0.4-2.7,1.1
	s-1.1,1.7-1.1,2.7s0.4,2,1.1,2.7C-786.3,224.7-785.3,225.1-784.3,225.1z"/>
<path class="st1" d="M-818.4,233.2c1,0,2-0.4,2.7-1.1c0.7-0.7,1.1-1.7,1.1-2.7s-0.4-2-1.1-2.7c-0.7-0.7-1.7-1.1-2.7-1.1
	c-1,0-2,0.4-2.7,1.1c-0.7,0.7-1.1,1.7-1.1,2.7s0.4,2,1.1,2.7C-820.4,232.8-819.4,233.2-818.4,233.2z"/>
<path class="st1" d="M-878.1,230.7c1,0,2-0.4,2.7-1.1c0.7-0.7,1.1-1.7,1.1-2.7s-0.4-2-1.1-2.7c-0.7-0.7-1.7-1.1-2.7-1.1
	s-2,0.4-2.7,1.1c-0.7,0.7-1.1,1.7-1.1,2.7s0.4,2,1.1,2.7C-880.1,230.3-879.1,230.7-878.1,230.7z"/>
<path class="st1" d="M-878.1,216.1c1,0,2-0.4,2.7-1.1c0.7-0.7,1.1-1.7,1.1-2.7s-0.4-2-1.1-2.7c-0.7-0.7-1.7-1.1-2.7-1.1
	s-2,0.4-2.7,1.1c-0.7,0.7-1.1,1.7-1.1,2.7s0.4,2,1.1,2.7C-880.1,215.7-879.1,216.1-878.1,216.1z"/>
<path class="st1" d="M-929.3,228.1c1,0,2-0.4,2.7-1.1c0.7-0.7,1.1-1.7,1.1-2.7s-0.4-2-1.1-2.7s-1.7-1.1-2.7-1.1c-1,0-2,0.4-2.7,1.1
	s-1.1,1.7-1.1,2.7s0.4,2,1.1,2.7C-931.3,227.7-930.3,228.1-929.3,228.1z"/>
<path class="st1" d="M-835.5,224.9c1,0,2-0.4,2.7-1.1c0.7-0.7,1.1-1.7,1.1-2.7s-0.4-2-1.1-2.7c-0.7-0.7-1.7-1.1-2.7-1.1
	s-2,0.4-2.7,1.1c-0.7,0.7-1.1,1.7-1.1,2.7s0.4,2,1.1,2.7C-837.5,224.5-836.5,224.9-835.5,224.9z"/>
<path class="st1" d="M-929.3,233.6c1,0,2-0.4,2.7-1.1s1.1-1.7,1.1-2.7s-0.4-2-1.1-2.7c-0.7-0.7-1.7-1.1-2.7-1.1c-1,0-2,0.4-2.7,1.1
	c-0.7,0.7-1.1,1.7-1.1,2.7s0.4,2,1.1,2.7S-930.3,233.6-929.3,233.6z"/>
<path class="st1" d="M-946.4,232.1c1,0,2-0.4,2.7-1.1c0.7-0.7,1.1-1.7,1.1-2.7s-0.4-2-1.1-2.7c-0.7-0.7-1.7-1.1-2.7-1.1
	s-2,0.4-2.7,1.1c-0.7,0.7-1.1,1.7-1.1,2.7s0.4,2,1.1,2.7S-947.4,232.1-946.4,232.1z"/>
<path class="st1" d="M-878.1,180.4c1,0,2-0.4,2.7-1.1c0.7-0.7,1.1-1.7,1.1-2.7c0-1-0.4-2-1.1-2.7c-0.7-0.7-1.7-1.1-2.7-1.1
	s-2,0.4-2.7,1.1c-0.7,0.7-1.1,1.7-1.1,2.7c0,1,0.4,2,1.1,2.7C-880.1,180-879.1,180.4-878.1,180.4z"/>
<path class="st1" d="M-997.5,217c1,0,2-0.4,2.7-1.1s1.1-1.7,1.1-2.7s-0.4-2-1.1-2.7c-0.7-0.7-1.7-1.1-2.7-1.1c-1,0-2,0.4-2.7,1.1
	c-0.7,0.7-1.1,1.7-1.1,2.7s0.4,2,1.1,2.7S-998.5,217-997.5,217z"/>
<path class="st1" d="M-980.5,233.2c1,0,2-0.4,2.7-1.1c0.7-0.7,1.1-1.7,1.1-2.7s-0.4-2-1.1-2.7c-0.7-0.7-1.7-1.1-2.7-1.1
	s-2,0.4-2.7,1.1c-0.7,0.7-1.1,1.7-1.1,2.7s0.4,2,1.1,2.7C-982.4,232.8-981.5,233.2-980.5,233.2z"/>
<path class="st1" d="M-937.8,32.9c1,0,2-0.4,2.7-1.1c0.7-0.7,1.1-1.7,1.1-2.7s-0.4-2-1.1-2.7c-0.7-0.7-1.7-1.1-2.7-1.1
	c-1,0-2,0.4-2.7,1.1c-0.7,0.7-1.1,1.7-1.1,2.7s0.4,2,1.1,2.7C-939.8,32.5-938.8,32.9-937.8,32.9z"/>
<path class="st1" d="M-886.7,208.4c1,0,2-0.4,2.7-1.1c0.7-0.7,1.1-1.7,1.1-2.7s-0.4-2-1.1-2.7c-0.7-0.7-1.7-1.1-2.7-1.1
	c-1,0-2,0.4-2.7,1.1c-0.7,0.7-1.1,1.7-1.1,2.7s0.4,2,1.1,2.7C-888.6,208-887.7,208.4-886.7,208.4z"/>
<path class="st1" d="M-963.4-1.2c1,0,2-0.4,2.7-1.1s1.1-1.7,1.1-2.7s-0.4-2-1.1-2.7s-1.7-1.1-2.7-1.1c-1,0-2,0.4-2.7,1.1
	s-1.1,1.7-1.1,2.7s0.4,2,1.1,2.7S-964.4-1.2-963.4-1.2z"/>
<path class="st1" d="M-878.1,213.7c1,0,2-0.4,2.7-1.1c0.7-0.7,1.1-1.7,1.1-2.7s-0.4-2-1.1-2.7c-0.7-0.7-1.7-1.1-2.7-1.1
	s-2,0.4-2.7,1.1c-0.7,0.7-1.1,1.7-1.1,2.7s0.4,2,1.1,2.7C-880.1,213.3-879.1,213.7-878.1,213.7z"/>
<path class="st1" d="M-937.8,155.6c1,0,2-0.4,2.7-1.1c0.7-0.7,1.1-1.7,1.1-2.7s-0.4-2-1.1-2.7c-0.7-0.7-1.7-1.1-2.7-1.1
	c-1,0-2,0.4-2.7,1.1c-0.7,0.7-1.1,1.7-1.1,2.7s0.4,2,1.1,2.7C-939.8,155.2-938.8,155.6-937.8,155.6z"/>
<path class="st1" d="M-903.7,213.7c1,0,2-0.4,2.7-1.1c0.7-0.7,1.1-1.7,1.1-2.7s-0.4-2-1.1-2.7c-0.7-0.7-1.7-1.1-2.7-1.1
	s-2,0.4-2.7,1.1c-0.7,0.7-1.1,1.7-1.1,2.7s0.4,2,1.1,2.7C-905.7,213.3-904.7,213.7-903.7,213.7z"/>
<path class="st1" d="M-997.5,81c1,0,2-0.4,2.7-1.1c0.7-0.7,1.1-1.7,1.1-2.7c0-1-0.4-2-1.1-2.7c-0.7-0.7-1.7-1.1-2.7-1.1
	c-1,0-2,0.4-2.7,1.1c-0.7,0.7-1.1,1.7-1.1,2.7c0,1,0.4,2,1.1,2.7C-999.5,80.6-998.5,81-997.5,81z"/>
<path class="st1" d="M-946.4,232.7c1,0,2-0.4,2.7-1.1c0.7-0.7,1.1-1.7,1.1-2.7s-0.4-2-1.1-2.7c-0.7-0.7-1.7-1.1-2.7-1.1
	s-2,0.4-2.7,1.1c-0.7,0.7-1.1,1.7-1.1,2.7s0.4,2,1.1,2.7S-947.4,232.7-946.4,232.7z"/>
<path class="st1" d="M-971.9,192.2c1,0,2-0.4,2.7-1.1c0.7-0.7,1.1-1.7,1.1-2.7s-0.4-2-1.1-2.7s-1.7-1.1-2.7-1.1c-1,0-2,0.4-2.7,1.1
	s-1.1,1.7-1.1,2.7s0.4,2,1.1,2.7C-973.9,191.8-972.9,192.2-971.9,192.2z"/>
<path class="st1" d="M-980.5,212.5c1,0,2-0.4,2.7-1.1c0.7-0.7,1.1-1.7,1.1-2.7c0-1-0.4-2-1.1-2.7c-0.7-0.7-1.7-1.1-2.7-1.1
	s-2,0.4-2.7,1.1c-0.7,0.7-1.1,1.7-1.1,2.7c0,1,0.4,2,1.1,2.7C-982.4,212.1-981.5,212.5-980.5,212.5z"/>
<path class="st1" d="M-997.5,185.9c1,0,2-0.4,2.7-1.1c0.7-0.7,1.1-1.7,1.1-2.7s-0.4-2-1.1-2.7s-1.7-1.1-2.7-1.1c-1,0-2,0.4-2.7,1.1
	s-1.1,1.7-1.1,2.7s0.4,2,1.1,2.7C-999.5,185.5-998.5,185.9-997.5,185.9z"/>
<path class="st1" d="M-1065.8,199.6c1,0,2-0.4,2.7-1.1c0.7-0.7,1.1-1.7,1.1-2.7s-0.4-2-1.1-2.7s-1.7-1.1-2.7-1.1c-1,0-2,0.4-2.7,1.1
	c-0.7,0.7-1.1,1.7-1.1,2.7s0.4,2,1.1,2.7C-1067.7,199.2-1066.8,199.6-1065.8,199.6z"/>
<path class="st3" d="M-1091.3,233.7c1,0,2-0.4,2.7-1.1s1.1-1.7,1.1-2.7s-0.4-2-1.1-2.7c-0.7-0.7-1.7-1.1-2.7-1.1c-1,0-2,0.4-2.7,1.1
	c-0.7,0.7-1.1,1.7-1.1,2.7s0.4,2,1.1,2.7S-1092.3,233.7-1091.3,233.7z"/>
<path class="st3" d="M-1091.3,223.8c1,0,2-0.4,2.7-1.1s1.1-1.7,1.1-2.7s-0.4-2-1.1-2.7c-0.7-0.7-1.7-1.1-2.7-1.1c-1,0-2,0.4-2.7,1.1
	c-0.7,0.7-1.1,1.7-1.1,2.7s0.4,2,1.1,2.7S-1092.3,223.8-1091.3,223.8z"/>
<path class="st1" d="M-895.2,223.3c1,0,2-0.4,2.7-1.1s1.1-1.7,1.1-2.7c0-1-0.4-2-1.1-2.7c-0.7-0.7-1.7-1.1-2.7-1.1
	c-1,0-2,0.4-2.7,1.1c-0.7,0.7-1.1,1.7-1.1,2.7c0,1,0.4,2,1.1,2.7S-896.2,223.3-895.2,223.3z"/>
<path class="st1" d="M-946.4,222.1c1,0,2-0.4,2.7-1.1c0.7-0.7,1.1-1.7,1.1-2.7s-0.4-2-1.1-2.7c-0.7-0.7-1.7-1.1-2.7-1.1
	s-2,0.4-2.7,1.1c-0.7,0.7-1.1,1.7-1.1,2.7s0.4,2,1.1,2.7C-948.3,221.7-947.4,222.1-946.4,222.1z"/>
<path class="st1" d="M-861.1,210.6c1,0,2-0.4,2.7-1.1c0.7-0.7,1.1-1.7,1.1-2.7s-0.4-2-1.1-2.7c-0.7-0.7-1.7-1.1-2.7-1.1
	c-1,0-2,0.4-2.7,1.1c-0.7,0.7-1.1,1.7-1.1,2.7s0.4,2,1.1,2.7C-863,210.2-862.1,210.6-861.1,210.6z"/>
<path class="st3" d="M-1099.9,228.5c1,0,2-0.4,2.7-1.1c0.7-0.7,1.1-1.7,1.1-2.7s-0.4-2-1.1-2.7c-0.7-0.7-1.7-1.1-2.7-1.1
	c-1,0-2,0.4-2.7,1.1s-1.1,1.7-1.1,2.7s0.4,2,1.1,2.7C-1101.8,228.1-1100.9,228.5-1099.9,228.5z"/>
<path class="st2" d="M-895.2,212.2c1,0,2-0.4,2.7-1.1c0.7-0.7,1.1-1.7,1.1-2.7s-0.4-2-1.1-2.7c-0.7-0.7-1.7-1.1-2.7-1.1
	c-1,0-2,0.4-2.7,1.1c-0.7,0.7-1.1,1.7-1.1,2.7s0.4,2,1.1,2.7C-897.2,211.8-896.2,212.2-895.2,212.2z"/>
<path class="st2" d="M-886.7,233c1,0,2-0.4,2.7-1.1c0.7-0.7,1.1-1.7,1.1-2.7s-0.4-2-1.1-2.7c-0.7-0.7-1.7-1.1-2.7-1.1
	c-1,0-2,0.4-2.7,1.1c-0.7,0.7-1.1,1.7-1.1,2.7s0.4,2,1.1,2.7C-888.6,232.6-887.7,233-886.7,233z"/>
<path class="st2" d="M-878.1,233.6c1,0,2-0.4,2.7-1.1c0.7-0.7,1.1-1.7,1.1-2.7s-0.4-2-1.1-2.7c-0.7-0.7-1.7-1.1-2.7-1.1
	s-2,0.4-2.7,1.1c-0.7,0.7-1.1,1.7-1.1,2.7s0.4,2,1.1,2.7C-880.1,233.2-879.1,233.6-878.1,233.6z"/>
<path class="st2" d="M-878.1,231c1,0,2-0.4,2.7-1.1c0.7-0.7,1.1-1.7,1.1-2.7s-0.4-2-1.1-2.7c-0.7-0.7-1.7-1.1-2.7-1.1
	s-2,0.4-2.7,1.1c-0.7,0.7-1.1,1.7-1.1,2.7s0.4,2,1.1,2.7C-880.1,230.6-879.1,231-878.1,231z"/>
<path class="st2" d="M-878.1,213.9c1,0,2-0.4,2.7-1.1c0.7-0.7,1.1-1.7,1.1-2.7s-0.4-2-1.1-2.7c-0.7-0.7-1.7-1.1-2.7-1.1
	s-2,0.4-2.7,1.1c-0.7,0.7-1.1,1.7-1.1,2.7s0.4,2,1.1,2.7C-880.1,213.5-879.1,213.9-878.1,213.9z"/>
<path class="st2" d="M-852.6,223.5c1,0,2-0.4,2.7-1.1c0.7-0.7,1.1-1.7,1.1-2.7s-0.4-2-1.1-2.7c-0.7-0.7-1.7-1.1-2.7-1.1
	c-1,0-2,0.4-2.7,1.1c-0.7,0.7-1.1,1.7-1.1,2.7s0.4,2,1.1,2.7C-854.5,223.1-853.6,223.5-852.6,223.5z"/>
<path class="st2" d="M-920.8,202.3c1,0,2-0.4,2.7-1.1c0.7-0.7,1.1-1.7,1.1-2.7s-0.4-2-1.1-2.7s-1.7-1.1-2.7-1.1c-1,0-2,0.4-2.7,1.1
	s-1.1,1.7-1.1,2.7s0.4,2,1.1,2.7C-922.7,201.9-921.8,202.3-920.8,202.3z"/>
<path class="st1" d="M-920.8,228.6c1,0,2-0.4,2.7-1.1s1.1-1.7,1.1-2.7c0-1-0.4-2-1.1-2.7c-0.7-0.7-1.7-1.1-2.7-1.1
	c-1,0-2,0.4-2.7,1.1c-0.7,0.7-1.1,1.7-1.1,2.7c0,1,0.4,2,1.1,2.7S-921.8,228.6-920.8,228.6z"/>
<path class="st2" d="M-903.7,224.6c1,0,2-0.4,2.7-1.1c0.7-0.7,1.1-1.7,1.1-2.7s-0.4-2-1.1-2.7c-0.7-0.7-1.7-1.1-2.7-1.1
	s-2,0.4-2.7,1.1c-0.7,0.7-1.1,1.7-1.1,2.7s0.4,2,1.1,2.7C-905.7,224.2-904.7,224.6-903.7,224.6z"/>
<path class="st2" d="M-886.7,215c1,0,2-0.4,2.7-1.1c0.7-0.7,1.1-1.7,1.1-2.7s-0.4-2-1.1-2.7c-0.7-0.7-1.7-1.1-2.7-1.1
	c-1,0-2,0.4-2.7,1.1c-0.7,0.7-1.1,1.7-1.1,2.7s0.4,2,1.1,2.7C-888.6,214.6-887.7,215-886.7,215z"/>
<path class="st1" d="M-912.2,233.9c1,0,2-0.4,2.7-1.1c0.7-0.7,1.1-1.7,1.1-2.7c0-1-0.4-2-1.1-2.7c-0.7-0.7-1.7-1.1-2.7-1.1
	s-2,0.4-2.7,1.1c-0.7,0.7-1.1,1.7-1.1,2.7c0,1,0.4,2,1.1,2.7C-914.2,233.5-913.3,233.9-912.2,233.9z"/>
<path class="st2" d="M-920.8,214.2c1,0,2-0.4,2.7-1.1c0.7-0.7,1.1-1.7,1.1-2.7s-0.4-2-1.1-2.7s-1.7-1.1-2.7-1.1c-1,0-2,0.4-2.7,1.1
	s-1.1,1.7-1.1,2.7s0.4,2,1.1,2.7C-922.7,213.8-921.8,214.2-920.8,214.2z"/>
<path class="st2" d="M-895.2,224.2c1,0,2-0.4,2.7-1.1c0.7-0.7,1.1-1.7,1.1-2.7s-0.4-2-1.1-2.7c-0.7-0.7-1.7-1.1-2.7-1.1
	c-1,0-2,0.4-2.7,1.1c-0.7,0.7-1.1,1.7-1.1,2.7s0.4,2,1.1,2.7C-897.2,223.8-896.2,224.2-895.2,224.2z"/>
<path class="st2" d="M-903.7,229.8c1,0,2-0.4,2.7-1.1c0.7-0.7,1.1-1.7,1.1-2.7c0-1-0.4-2-1.1-2.7c-0.7-0.7-1.7-1.1-2.7-1.1
	s-2,0.4-2.7,1.1s-1.1,1.7-1.1,2.7c0,1,0.4,2,1.1,2.7C-905.7,229.4-904.7,229.8-903.7,229.8z"/>
<path class="st2" d="M-912.2,216.1c1,0,2-0.4,2.7-1.1s1.1-1.7,1.1-2.7c0-1-0.4-2-1.1-2.7s-1.7-1.1-2.7-1.1s-2,0.4-2.7,1.1
	c-0.7,0.7-1.1,1.7-1.1,2.7c0,1,0.4,2,1.1,2.7C-914.2,215.7-913.3,216.1-912.2,216.1z"/>
<path class="st2" d="M-895.2,225.8c1,0,2-0.4,2.7-1.1c0.7-0.7,1.1-1.7,1.1-2.7s-0.4-2-1.1-2.7c-0.7-0.7-1.7-1.1-2.7-1.1
	c-1,0-2,0.4-2.7,1.1c-0.7,0.7-1.1,1.7-1.1,2.7s0.4,2,1.1,2.7C-897.2,225.4-896.2,225.8-895.2,225.8z"/>
<path class="st2" d="M-895.2,230.2c1,0,2-0.4,2.7-1.1c0.7-0.7,1.1-1.7,1.1-2.7c0-1-0.4-2-1.1-2.7c-0.7-0.7-1.7-1.1-2.7-1.1
	c-1,0-2,0.4-2.7,1.1c-0.7,0.7-1.1,1.7-1.1,2.7c0,1,0.4,2,1.1,2.7C-897.2,229.8-896.2,230.2-895.2,230.2z"/>
<path class="st2" d="M-878.1,220c1,0,2-0.4,2.7-1.1c0.7-0.7,1.1-1.7,1.1-2.7s-0.4-2-1.1-2.7c-0.7-0.7-1.7-1.1-2.7-1.1
	s-2,0.4-2.7,1.1c-0.7,0.7-1.1,1.7-1.1,2.7s0.4,2,1.1,2.7C-880.1,219.6-879.1,220-878.1,220z"/>
<path class="st2" d="M-895.2,233.6c1,0,2-0.4,2.7-1.1c0.7-0.7,1.1-1.7,1.1-2.7s-0.4-2-1.1-2.7c-0.7-0.7-1.7-1.1-2.7-1.1
	c-1,0-2,0.4-2.7,1.1c-0.7,0.7-1.1,1.7-1.1,2.7s0.4,2,1.1,2.7C-897.2,233.2-896.2,233.6-895.2,233.6z"/>
<path class="st2" d="M-895.2,202.1c1,0,2-0.4,2.7-1.1s1.1-1.7,1.1-2.7c0-1-0.4-2-1.1-2.7c-0.7-0.7-1.7-1.1-2.7-1.1
	c-1,0-2,0.4-2.7,1.1c-0.7,0.7-1.1,1.7-1.1,2.7c0,1,0.4,2,1.1,2.7S-896.2,202.1-895.2,202.1z"/>
<path class="st2" d="M-903.7,230.5c1,0,2-0.4,2.7-1.1c0.7-0.7,1.1-1.7,1.1-2.7s-0.4-2-1.1-2.7c-0.7-0.7-1.7-1.1-2.7-1.1
	s-2,0.4-2.7,1.1s-1.1,1.7-1.1,2.7s0.4,2,1.1,2.7C-905.7,230.1-904.7,230.5-903.7,230.5z"/>
<path class="st1" d="M-920.8,231.4c1,0,2-0.4,2.7-1.1c0.7-0.7,1.1-1.7,1.1-2.7s-0.4-2-1.1-2.7c-0.7-0.7-1.7-1.1-2.7-1.1
	c-1,0-2,0.4-2.7,1.1c-0.7,0.7-1.1,1.7-1.1,2.7s0.4,2,1.1,2.7C-922.7,231-921.8,231.4-920.8,231.4z"/>
<path class="st2" d="M-869.6,199.4c1,0,2-0.4,2.7-1.1c0.7-0.7,1.1-1.7,1.1-2.7s-0.4-2-1.1-2.7c-0.7-0.7-1.7-1.1-2.7-1.1
	c-1,0-2,0.4-2.7,1.1c-0.7,0.7-1.1,1.7-1.1,2.7s0.4,2,1.1,2.7C-871.6,199-870.6,199.4-869.6,199.4z"/>
<path class="st2" d="M-903.7,203.3c1,0,2-0.4,2.7-1.1c0.7-0.7,1.1-1.7,1.1-2.7s-0.4-2-1.1-2.7c-0.7-0.7-1.7-1.1-2.7-1.1
	s-2,0.4-2.7,1.1c-0.7,0.7-1.1,1.7-1.1,2.7s0.4,2,1.1,2.7C-905.7,202.9-904.7,203.3-903.7,203.3z"/>
<path class="st2" d="M-895.2,233.5c1,0,2-0.4,2.7-1.1s1.1-1.7,1.1-2.7s-0.4-2-1.1-2.7c-0.7-0.7-1.7-1.1-2.7-1.1c-1,0-2,0.4-2.7,1.1
	c-0.7,0.7-1.1,1.7-1.1,2.7s0.4,2,1.1,2.7S-896.2,233.5-895.2,233.5z"/>
<path class="st2" d="M-929.3,215c1,0,2-0.4,2.7-1.1c0.7-0.7,1.1-1.7,1.1-2.7s-0.4-2-1.1-2.7s-1.7-1.1-2.7-1.1c-1,0-2,0.4-2.7,1.1
	s-1.1,1.7-1.1,2.7s0.4,2,1.1,2.7C-931.3,214.6-930.3,215-929.3,215z"/>
<path class="st2" d="M-886.7,225.5c1,0,2-0.4,2.7-1.1s1.1-1.7,1.1-2.7s-0.4-2-1.1-2.7c-0.7-0.7-1.7-1.1-2.7-1.1c-1,0-2,0.4-2.7,1.1
	c-0.7,0.7-1.1,1.7-1.1,2.7s0.4,2,1.1,2.7S-887.7,225.5-886.7,225.5z"/>
<path class="st2" d="M-886.7,233.1c1,0,2-0.4,2.7-1.1c0.7-0.7,1.1-1.7,1.1-2.7s-0.4-2-1.1-2.7c-0.7-0.7-1.7-1.1-2.7-1.1
	c-1,0-2,0.4-2.7,1.1c-0.7,0.7-1.1,1.7-1.1,2.7s0.4,2,1.1,2.7C-888.6,232.7-887.7,233.1-886.7,233.1z"/>
<path class="st2" d="M-895.2,216.3c1,0,2-0.4,2.7-1.1c0.7-0.7,1.1-1.7,1.1-2.7s-0.4-2-1.1-2.7s-1.7-1.1-2.7-1.1c-1,0-2,0.4-2.7,1.1
	s-1.1,1.7-1.1,2.7s0.4,2,1.1,2.7C-897.2,215.9-896.2,216.3-895.2,216.3z"/>
<path class="st2" d="M-963.4,223c1,0,2-0.4,2.7-1.1c0.7-0.7,1.1-1.7,1.1-2.7s-0.4-2-1.1-2.7s-1.7-1.1-2.7-1.1c-1,0-2,0.4-2.7,1.1
	s-1.1,1.7-1.1,2.7s0.4,2,1.1,2.7C-965.4,222.6-964.4,223-963.4,223z"/>
<path class="st1" d="M-954.9,217.9c1,0,2-0.4,2.7-1.1c0.7-0.7,1.1-1.7,1.1-2.7s-0.4-2-1.1-2.7s-1.7-1.1-2.7-1.1c-1,0-2,0.4-2.7,1.1
	s-1.1,1.7-1.1,2.7s0.4,2,1.1,2.7C-956.9,217.5-955.9,217.9-954.9,217.9z"/>
<path class="st2" d="M-903.7,215.1c1,0,2-0.4,2.7-1.1c0.7-0.7,1.1-1.7,1.1-2.7s-0.4-2-1.1-2.7c-0.7-0.7-1.7-1.1-2.7-1.1
	s-2,0.4-2.7,1.1c-0.7,0.7-1.1,1.7-1.1,2.7s0.4,2,1.1,2.7C-905.7,214.7-904.7,215.1-903.7,215.1z"/>
<path class="st2" d="M-886.7,230.7c1,0,2-0.4,2.7-1.1c0.7-0.7,1.1-1.7,1.1-2.7s-0.4-2-1.1-2.7c-0.7-0.7-1.7-1.1-2.7-1.1
	c-1,0-2,0.4-2.7,1.1c-0.7,0.7-1.1,1.7-1.1,2.7s0.4,2,1.1,2.7C-888.6,230.3-887.7,230.7-886.7,230.7z"/>
<path class="st2" d="M-929.3,199c1,0,2-0.4,2.7-1.1c0.7-0.7,1.1-1.7,1.1-2.7s-0.4-2-1.1-2.7c-0.7-0.7-1.7-1.1-2.7-1.1
	c-1,0-2,0.4-2.7,1.1c-0.7,0.7-1.1,1.7-1.1,2.7s0.4,2,1.1,2.7C-931.3,198.6-930.3,199-929.3,199z"/>
<path class="st2" d="M-929.3,209.5c1,0,2-0.4,2.7-1.1c0.7-0.7,1.1-1.7,1.1-2.7s-0.4-2-1.1-2.7c-0.7-0.7-1.7-1.1-2.7-1.1
	c-1,0-2,0.4-2.7,1.1c-0.7,0.7-1.1,1.7-1.1,2.7s0.4,2,1.1,2.7C-931.3,209.1-930.3,209.5-929.3,209.5z"/>
<path class="st2" d="M-895.2,232.6c1,0,2-0.4,2.7-1.1s1.1-1.7,1.1-2.7s-0.4-2-1.1-2.7c-0.7-0.7-1.7-1.1-2.7-1.1c-1,0-2,0.4-2.7,1.1
	c-0.7,0.7-1.1,1.7-1.1,2.7s0.4,2,1.1,2.7S-896.2,232.6-895.2,232.6z"/>
<path class="st2" d="M-895.2,231.4c1,0,2-0.4,2.7-1.1c0.7-0.7,1.1-1.7,1.1-2.7s-0.4-2-1.1-2.7c-0.7-0.7-1.7-1.1-2.7-1.1
	c-1,0-2,0.4-2.7,1.1c-0.7,0.7-1.1,1.7-1.1,2.7s0.4,2,1.1,2.7C-897.2,231-896.2,231.4-895.2,231.4z"/>
<path class="st2" d="M-929.3,229.4c1,0,2-0.4,2.7-1.1s1.1-1.7,1.1-2.7s-0.4-2-1.1-2.7c-0.7-0.7-1.7-1.1-2.7-1.1c-1,0-2,0.4-2.7,1.1
	c-0.7,0.7-1.1,1.7-1.1,2.7s0.4,2,1.1,2.7S-930.3,229.4-929.3,229.4z"/>
<path class="st2" d="M-903.7,223.6c1,0,2-0.4,2.7-1.1c0.7-0.7,1.1-1.7,1.1-2.7s-0.4-2-1.1-2.7c-0.7-0.7-1.7-1.1-2.7-1.1
	s-2,0.4-2.7,1.1s-1.1,1.7-1.1,2.7s0.4,2,1.1,2.7C-905.7,223.2-904.7,223.6-903.7,223.6z"/>
<path class="st2" d="M-903.7,198.1c1,0,2-0.4,2.7-1.1c0.7-0.7,1.1-1.7,1.1-2.7s-0.4-2-1.1-2.7c-0.7-0.7-1.7-1.1-2.7-1.1
	s-2,0.4-2.7,1.1c-0.7,0.7-1.1,1.7-1.1,2.7s0.4,2,1.1,2.7C-905.7,197.7-904.7,198.1-903.7,198.1z"/>
<path class="st2" d="M-929.3,228.6c1,0,2-0.4,2.7-1.1s1.1-1.7,1.1-2.7c0-1-0.4-2-1.1-2.7s-1.7-1.1-2.7-1.1c-1,0-2,0.4-2.7,1.1
	s-1.1,1.7-1.1,2.7c0,1,0.4,2,1.1,2.7S-930.3,228.6-929.3,228.6z"/>
<path class="st2" d="M-895.2,225.6c1,0,2-0.4,2.7-1.1c0.7-0.7,1.1-1.7,1.1-2.7s-0.4-2-1.1-2.7s-1.7-1.1-2.7-1.1c-1,0-2,0.4-2.7,1.1
	s-1.1,1.7-1.1,2.7s0.4,2,1.1,2.7C-897.2,225.2-896.2,225.6-895.2,225.6z"/>
<path class="st2" d="M-895.2,229.1c1,0,2-0.4,2.7-1.1c0.7-0.7,1.1-1.7,1.1-2.7s-0.4-2-1.1-2.7c-0.7-0.7-1.7-1.1-2.7-1.1
	c-1,0-2,0.4-2.7,1.1c-0.7,0.7-1.1,1.7-1.1,2.7s0.4,2,1.1,2.7C-897.2,228.7-896.2,229.1-895.2,229.1z"/>
<path class="st2" d="M-903.7,231c1,0,2-0.4,2.7-1.1c0.7-0.7,1.1-1.7,1.1-2.7s-0.4-2-1.1-2.7c-0.7-0.7-1.7-1.1-2.7-1.1
	s-2,0.4-2.7,1.1c-0.7,0.7-1.1,1.7-1.1,2.7s0.4,2,1.1,2.7S-904.7,231-903.7,231z"/>
<path class="st2" d="M-895.2,233.8c1,0,2-0.4,2.7-1.1c0.7-0.7,1.1-1.7,1.1-2.7s-0.4-2-1.1-2.7c-0.7-0.7-1.7-1.1-2.7-1.1
	c-1,0-2,0.4-2.7,1.1c-0.7,0.7-1.1,1.7-1.1,2.7s0.4,2,1.1,2.7C-897.2,233.4-896.2,233.8-895.2,233.8z"/>
<path class="st1" d="M-929.3,219.2c1,0,2-0.4,2.7-1.1c0.7-0.7,1.1-1.7,1.1-2.7s-0.4-2-1.1-2.7s-1.7-1.1-2.7-1.1c-1,0-2,0.4-2.7,1.1
	s-1.1,1.7-1.1,2.7s0.4,2,1.1,2.7C-931.3,218.8-930.3,219.2-929.3,219.2z"/>
<path class="st2" d="M-920.8,228.8c1,0,2-0.4,2.7-1.1s1.1-1.7,1.1-2.7s-0.4-2-1.1-2.7c-0.7-0.7-1.7-1.1-2.7-1.1c-1,0-2,0.4-2.7,1.1
	c-0.7,0.7-1.1,1.7-1.1,2.7s0.4,2,1.1,2.7S-921.8,228.8-920.8,228.8z"/>
<path class="st2" d="M-929.3,218.6c1,0,2-0.4,2.7-1.1s1.1-1.7,1.1-2.7s-0.4-2-1.1-2.7c-0.7-0.7-1.7-1.1-2.7-1.1c-1,0-2,0.4-2.7,1.1
	c-0.7,0.7-1.1,1.7-1.1,2.7s0.4,2,1.1,2.7S-930.3,218.6-929.3,218.6z"/>
<path class="st2" d="M-929.3,216.4c1,0,2-0.4,2.7-1.1s1.1-1.7,1.1-2.7s-0.4-2-1.1-2.7c-0.7-0.7-1.7-1.1-2.7-1.1c-1,0-2,0.4-2.7,1.1
	c-0.7,0.7-1.1,1.7-1.1,2.7s0.4,2,1.1,2.7S-930.3,216.4-929.3,216.4z"/>
<path class="st1" d="M-903.7,62c1,0,2-0.4,2.7-1.1c0.7-0.7,1.1-1.7,1.1-2.7s-0.4-2-1.1-2.7c-0.7-0.7-1.7-1.1-2.7-1.1s-2,0.4-2.7,1.1
	c-0.7,0.7-1.1,1.7-1.1,2.7s0.4,2,1.1,2.7C-905.7,61.6-904.7,62-903.7,62z"/>
<path class="st2" d="M-963.4,228.6c1,0,2-0.4,2.7-1.1c0.7-0.7,1.1-1.7,1.1-2.7s-0.4-2-1.1-2.7s-1.7-1.1-2.7-1.1c-1,0-2,0.4-2.7,1.1
	s-1.1,1.7-1.1,2.7s0.4,2,1.1,2.7C-965.4,228.2-964.4,228.6-963.4,228.6z"/>
<path class="st1" d="M-946.4,164.4c1,0,2-0.4,2.7-1.1c0.7-0.7,1.1-1.7,1.1-2.7c0-1-0.4-2-1.1-2.7c-0.7-0.7-1.7-1.1-2.7-1.1
	s-2,0.4-2.7,1.1c-0.7,0.7-1.1,1.7-1.1,2.7c0,1,0.4,2,1.1,2.7S-947.4,164.4-946.4,164.4z"/>
<path class="st1" d="M-946.4,112.6c1,0,2-0.4,2.7-1.1c0.7-0.7,1.1-1.7,1.1-2.7s-0.4-2-1.1-2.7c-0.7-0.7-1.7-1.1-2.7-1.1
	s-2,0.4-2.7,1.1c-0.7,0.7-1.1,1.7-1.1,2.7s0.4,2,1.1,2.7C-948.3,112.2-947.4,112.6-946.4,112.6z"/>
<path class="st1" d="M-946.4,161.9c1,0,2-0.4,2.7-1.1c0.7-0.7,1.1-1.7,1.1-2.7c0-1-0.4-2-1.1-2.7c-0.7-0.7-1.7-1.1-2.7-1.1
	s-2,0.4-2.7,1.1c-0.7,0.7-1.1,1.7-1.1,2.7c0,1,0.4,2,1.1,2.7C-948.3,161.5-947.4,161.9-946.4,161.9z"/>
<path class="st1" d="M-929.3,164.4c1,0,2-0.4,2.7-1.1s1.1-1.7,1.1-2.7c0-1-0.4-2-1.1-2.7c-0.7-0.7-1.7-1.1-2.7-1.1
	c-1,0-2,0.4-2.7,1.1c-0.7,0.7-1.1,1.7-1.1,2.7c0,1,0.4,2,1.1,2.7S-930.3,164.4-929.3,164.4z"/>
<path class="st3" d="M-903.7,211.5c1,0,2-0.4,2.7-1.1c0.7-0.7,1.1-1.7,1.1-2.7s-0.4-2-1.1-2.7c-0.7-0.7-1.7-1.1-2.7-1.1
	s-2,0.4-2.7,1.1c-0.7,0.7-1.1,1.7-1.1,2.7s0.4,2,1.1,2.7C-905.7,211.1-904.7,211.5-903.7,211.5z"/>
<path class="st1" d="M-963.4,161.9c1,0,2-0.4,2.7-1.1c0.7-0.7,1.1-1.7,1.1-2.7c0-1-0.4-2-1.1-2.7c-0.7-0.7-1.7-1.1-2.7-1.1
	c-1,0-2,0.4-2.7,1.1c-0.7,0.7-1.1,1.7-1.1,2.7c0,1,0.4,2,1.1,2.7C-965.4,161.5-964.4,161.9-963.4,161.9z"/>
<path class="st1" d="M-997.5,164.4c1,0,2-0.4,2.7-1.1s1.1-1.7,1.1-2.7c0-1-0.4-2-1.1-2.7c-0.7-0.7-1.7-1.1-2.7-1.1
	c-1,0-2,0.4-2.7,1.1c-0.7,0.7-1.1,1.7-1.1,2.7c0,1,0.4,2,1.1,2.7S-998.5,164.4-997.5,164.4z"/>
<path class="st1" d="M-1006.1,202.4c1,0,2-0.4,2.7-1.1c0.7-0.7,1.1-1.7,1.1-2.7s-0.4-2-1.1-2.7c-0.7-0.7-1.7-1.1-2.7-1.1
	c-1,0-2,0.4-2.7,1.1c-0.7,0.7-1.1,1.7-1.1,2.7s0.4,2,1.1,2.7C-1008,202-1007.1,202.4-1006.1,202.4z"/>
<path class="st1" d="M-1099.9,194.2c1,0,2-0.4,2.7-1.1c0.7-0.7,1.1-1.7,1.1-2.7s-0.4-2-1.1-2.7c-0.7-0.7-1.7-1.1-2.7-1.1
	c-1,0-2,0.4-2.7,1.1c-0.7,0.7-1.1,1.7-1.1,2.7s0.4,2,1.1,2.7C-1101.8,193.8-1100.9,194.2-1099.9,194.2z"/>
<path class="st1" d="M-1099.9,200.8c1,0,2-0.4,2.7-1.1c0.7-0.7,1.1-1.7,1.1-2.7s-0.4-2-1.1-2.7c-0.7-0.7-1.7-1.1-2.7-1.1
	c-1,0-2,0.4-2.7,1.1c-0.7,0.7-1.1,1.7-1.1,2.7s0.4,2,1.1,2.7S-1100.9,200.8-1099.9,200.8z"/>
<path class="st2" d="M-1091.3,196.7c1,0,2-0.4,2.7-1.1s1.1-1.7,1.1-2.7s-0.4-2-1.1-2.7c-0.7-0.7-1.7-1.1-2.7-1.1c-1,0-2,0.4-2.7,1.1
	c-0.7,0.7-1.1,1.7-1.1,2.7s0.4,2,1.1,2.7S-1092.3,196.7-1091.3,196.7z"/>
<polyline class="st4" points="-727.4,184.1 -727.4,172.1 -715.5,172.1 -715.5,184.1 "/>
<polyline class="st4" points="-727.4,184.1 -727.4,172.1 -715.5,172.1 -715.5,184.1 "/>
<path class="st5" d="M-721.5,178.1"/>
<polyline class="st4" points="-727.4,184.1 -727.4,172.1 -715.5,172.1 -715.5,184.1 "/>
<path id="mdd83ccdd3a_00000150085053266982058010000000879866662731401127_" class="st3" d="M-717,181.3c0.8,0,1.6-0.3,2.2-0.9
	c0.6-0.6,0.9-1.4,0.9-2.2c0-0.8-0.3-1.6-0.9-2.2c-0.6-0.6-1.4-0.9-2.2-0.9c-0.8,0-1.6,0.3-2.2,0.9c-0.6,0.6-0.9,1.4-0.9,2.2
	c0,0.8,0.3,1.6,0.9,2.2C-718.6,180.9-717.8,181.3-717,181.3z"/>
<polyline class="st4" points="-727.4,197.3 -727.4,185.4 -715.5,185.4 -715.5,197.3 "/>
<polyline class="st4" points="-727.4,197.3 -727.4,185.4 -715.5,185.4 -715.5,197.3 "/>
<path class="st5" d="M-721.5,191.3"/>
<polyline class="st4" points="-727.4,197.3 -727.4,185.4 -715.5,185.4 -715.5,197.3 "/>
<path id="ma6dbd2d290_00000046335744618184720380000014466206053399201458_" class="st1" d="M-717,194.5c0.8,0,1.6-0.3,2.2-0.9
	c0.6-0.6,0.9-1.4,0.9-2.2c0-0.8-0.3-1.6-0.9-2.2c-0.6-0.6-1.4-0.9-2.2-0.9c-0.8,0-1.6,0.3-2.2,0.9c-0.6,0.6-0.9,1.4-0.9,2.2
	c0,0.8,0.3,1.6,0.9,2.2C-718.6,194.2-717.8,194.5-717,194.5z"/>
<polyline class="st4" points="-727.4,210.6 -727.4,198.6 -715.5,198.6 -715.5,210.6 "/>
<path class="st5" d="M-721.5,204.6"/>
<path id="ma70e93febb_00000093155438480107628380000003703669556239820970_" class="st2" d="M-717,207.7c0.8,0,1.6-0.3,2.2-0.9
	c0.6-0.6,0.9-1.4,0.9-2.2s-0.3-1.6-0.9-2.2c-0.6-0.6-1.4-0.9-2.2-0.9c-0.8,0-1.6,0.3-2.2,0.9c-0.6,0.6-0.9,1.4-0.9,2.2
	s0.3,1.6,0.9,2.2C-718.6,207.4-717.8,207.7-717,207.7z"/>
<rect x="-948.1" y="260.8" class="st4" width="96.3" height="11.7"/>
<text transform="matrix(1 0 0 1 -948.0933 267.4908)" class="st10" style="font-size:9.3303px;">Tenure in years</text>
<rect x="-1142.1" y="-7.3" class="st4" width="84.5" height="21.6"/>
<text transform="matrix(1 0 0 1 -1142.1353 -0.6459)"><tspan x="0" y="0" class="st10" style="font-size:9.3303px;">Ratio of overtime to</tspan><tspan x="0" y="11.2" class="st10" style="font-size:9.3303px;">regular hours</tspan></text>
<rect x="-1130.8" y="39.8" class="st4" width="15.2" height="7.3"/>
<text transform="matrix(1 0 0 1 -1130.8032 46.442)" class="st10" style="font-size:9.3303px;">7.5</text>
<rect x="-1123.8" y="111" class="st4" width="5.3" height="7.3"/>
<text transform="matrix(1 0 0 1 -1123.8057 117.6861)" class="st12 st10" style="font-size:9.3303px;">5</text>
<rect x="-1130.6" y="183.4" class="st4" width="13.7" height="7.3"/>
<text transform="matrix(1 0 0 1 -1130.5796 190.0465)" class="st12 st10" style="font-size:9.3303px;">2.5</text>
<rect x="-1036.9" y="243.9" class="st4" width="12.1" height="7.3"/>
<text transform="matrix(1 0 0 1 -1036.9429 250.6119)" class="st12 st10" style="font-size:9.3303px;">10</text>
<rect x="-951.6" y="244.7" class="st4" width="12.1" height="7.3"/>
<text transform="matrix(1 0 0 1 -951.645 251.3463)" class="st12 st10" style="font-size:9.3303px;">20</text>
<rect x="-866.2" y="244.5" class="st4" width="12.1" height="7.3"/>
<text transform="matrix(1 0 0 1 -866.2295 251.2018)" class="st12 st10" style="font-size:9.3303px;">30</text>
<rect x="-780.6" y="244.7" class="st4" width="12.1" height="7.3"/>
<text transform="matrix(1 0 0 1 -780.6162 251.3463)" class="st12 st10" style="font-size:9.3303px;">40</text>
<rect x="-719.3" y="161.9" class="st4" width="58.4" height="8.3"/>
<text transform="matrix(1 0 0 1 -719.3389 167.4078)" class="st13" style="font-size:7.7257px;">Agency</text>
<rect x="-712.1" y="175" class="st4" width="89.8" height="8.3"/>
<text transform="matrix(1 0 0 1 -712.1211 180.5055)" class="st10" style="font-size:7.7257px;">Department of Correction</text>
<rect x="-712.2" y="187.8" class="st4" width="89.8" height="8.3"/>
<text transform="matrix(1 0 0 1 -712.1699 193.3678)" class="st10" style="font-size:7.7257px;">Fire Department</text>
<rect x="-712.2" y="202.2" class="st4" width="89.8" height="8.3"/>
<text transform="matrix(1 0 0 1 -712.1699 207.7135)" class="st10" style="font-size:7.7257px;">Police Department</text>
<rect x="-1145.1" y="-55.6" class="st4" width="465.8" height="28.4"/>
<text transform="matrix(1 0 0 1 -1145.1382 -47.767)"><tspan x="0" y="0" class="st10" style="font-size:10.8854px;">Officers, now retired, clocked in five times, sometimes more, hours in overtime than regular </tspan><tspan x="0" y="13.1" class="st10" style="font-size:10.8854px;">hours as they neared 20 years of service</tspan></text>
<rect x="-753" y="265.4" class="st4" width="119.1" height="8"/>
<text transform="matrix(1 0 0 1 -753.001 269.8863)" class="st10" style="font-size:6.2202px;">Source: Payroll data from NYC Open Data</text>
<rect x="-825.5" y="-6.5" class="st4" width="196" height="41.6"/>
<text transform="matrix(1 0 0 1 -825.4512 1.2896)"><tspan x="0" y="0" class="st10" style="font-size:10.8854px;">Five firefighters, all now retired, clocked </tspan><tspan x="0" y="13.1" class="st10" style="font-size:10.8854px;">in just about 20 hours of regular work </tspan><tspan x="0" y="26.1" class="st10" style="font-size:10.8854px;">and over 100 hours each in overtime</tspan></text>
<rect x="-831.9" y="59.6" class="st4" width="221" height="42.8"/>
<text transform="matrix(1 0 0 1 -831.9395 67.398)"><tspan x="0" y="0" class="st10" style="font-size:10.8854px;">One cop, now retired, clocked in over 2,400 </tspan><tspan x="0" y="13.1" class="st10" style="font-size:10.8854px;">overtime hours, compared to just about 600 </tspan><tspan x="0" y="26.1" class="st10" style="font-size:10.8854px;">regular work hours in his last year of service</tspan></text>
<rect x="-1009.8" y="-16.7" class="st6" width="118.4" height="137.2"/>
<g>
	<g>
		<path class="st7" d="M-821.2-10.6c-6-6.3-23.9-9.4-44.5-7.1c-19.5,2.3-35.5,8.7-40.9,15.8"/>
		<g>
			<path class="st8" d="M-908.5,3.9c0-3-0.5-7-1.5-9.7l3.9,3.3l5.1,0C-903.6-1.1-906.5,1.6-908.5,3.9z"/>
		</g>
	</g>
</g>
<g>
	<g>
		<line class="st7" x1="-842.7" y1="100.1" x2="-874" y2="140.8"/>
		<g>
			<path class="st8" d="M-877.7,145.6c0.9-2.9,1.6-6.8,1.4-9.7l2.7,4.3l4.8,1.5C-871.5,142.3-875.1,144-877.7,145.6z"/>
		</g>
	</g>
</g>
<rect x="-831.3" y="102.3" class="st4" width="204.5" height="13.1"/>
<text transform="matrix(1 0 0 1 -831.2607 110.0494)" class="st10" style="font-size:10.8854px;">He made over $160K in overtime in 2020</text>
<line class="st9" x1="-1114.2" y1="237.9" x2="-768.6" y2="237.9"/>
<path class="st0" d="M99.3,256.3"/>
<path class="st0" d="M168.4,256.3"/>
<path class="st0" d="M237.6,256.3"/>
<path class="st0" d="M306.7,256.3"/>
<path id="DejaVuSans-20_00000168824464846286685170000014462316858298338203_" d="M164,272.8"/>
<path id="DejaVuSans-20_00000096061024869766391380000012350166714165776807_" d="M172.5,272.8"/>
<path class="st0" d="M31.2,211.8"/>
<path class="st0" d="M31.2,153.2"/>
<path class="st0" d="M31.2,94.6"/>
<path class="st1" d="M223.7,240.1c0.8,0,1.6-0.3,2.2-0.9c0.6-0.6,0.9-1.4,0.9-2.2s-0.3-1.6-0.9-2.2c-0.6-0.6-1.4-0.9-2.2-0.9
	s-1.6,0.3-2.2,0.9c-0.6,0.6-0.9,1.4-0.9,2.2s0.3,1.6,0.9,2.2C222.1,239.7,222.9,240.1,223.7,240.1z"/>
<path class="st2" d="M203,249.8c0.8,0,1.6-0.3,2.2-0.9c0.6-0.6,0.9-1.4,0.9-2.2s-0.3-1.6-0.9-2.2c-0.6-0.6-1.4-0.9-2.2-0.9
	s-1.6,0.3-2.2,0.9s-0.9,1.4-0.9,2.2s0.3,1.6,0.9,2.2C201.4,249.4,202.2,249.8,203,249.8z"/>
<path class="st3" d="M57.8,248.9c0.8,0,1.6-0.3,2.2-0.9c0.6-0.6,0.9-1.4,0.9-2.2s-0.3-1.6-0.9-2.2c-0.6-0.6-1.4-0.9-2.2-0.9
	c-0.8,0-1.6,0.3-2.2,0.9c-0.6,0.6-0.9,1.4-0.9,2.2s0.3,1.6,0.9,2.2C56.2,248.6,57,248.9,57.8,248.9z"/>
<path class="st2" d="M223.7,241.6c0.8,0,1.6-0.3,2.2-0.9s0.9-1.4,0.9-2.2s-0.3-1.6-0.9-2.2c-0.6-0.6-1.4-0.9-2.2-0.9
	s-1.6,0.3-2.2,0.9c-0.6,0.6-0.9,1.4-0.9,2.2s0.3,1.6,0.9,2.2C222.1,241.2,222.9,241.6,223.7,241.6z"/>
<path class="st2" d="M209.9,248.2c0.8,0,1.6-0.3,2.2-0.9c0.6-0.6,0.9-1.4,0.9-2.2s-0.3-1.6-0.9-2.2c-0.6-0.6-1.4-0.9-2.2-0.9
	c-0.8,0-1.6,0.3-2.2,0.9c-0.6,0.6-0.9,1.4-0.9,2.2s0.3,1.6,0.9,2.2C208.3,247.9,209.1,248.2,209.9,248.2z"/>
<path class="st2" d="M237.6,249.8c0.8,0,1.6-0.3,2.2-0.9c0.6-0.6,0.9-1.4,0.9-2.2s-0.3-1.6-0.9-2.2c-0.6-0.6-1.4-0.9-2.2-0.9
	s-1.6,0.3-2.2,0.9c-0.6,0.6-0.9,1.4-0.9,2.2s0.3,1.6,0.9,2.2C236,249.5,236.7,249.8,237.6,249.8z"/>
<path class="st2" d="M216.8,187.1c0.8,0,1.6-0.3,2.2-0.9c0.6-0.6,0.9-1.4,0.9-2.2s-0.3-1.6-0.9-2.2c-0.6-0.6-1.4-0.9-2.2-0.9
	s-1.6,0.3-2.2,0.9c-0.6,0.6-0.9,1.4-0.9,2.2s0.3,1.6,0.9,2.2S216,187.1,216.8,187.1z"/>
<path class="st2" d="M216.8,248.9c0.8,0,1.6-0.3,2.2-0.9c0.6-0.6,0.9-1.4,0.9-2.2s-0.3-1.6-0.9-2.2c-0.6-0.6-1.4-0.9-2.2-0.9
	s-1.6,0.3-2.2,0.9c-0.6,0.6-0.9,1.4-0.9,2.2s0.3,1.6,0.9,2.2C215.2,248.5,216,248.9,216.8,248.9z"/>
<path class="st2" d="M203,243.9c0.8,0,1.6-0.3,2.2-0.9c0.6-0.6,0.9-1.4,0.9-2.2c0-0.8-0.3-1.6-0.9-2.2c-0.6-0.6-1.4-0.9-2.2-0.9
	s-1.6,0.3-2.2,0.9c-0.6,0.6-0.9,1.4-0.9,2.2c0,0.8,0.3,1.6,0.9,2.2C201.4,243.5,202.2,243.9,203,243.9z"/>
<path class="st2" d="M182.3,249.1c0.8,0,1.6-0.3,2.2-0.9c0.6-0.6,0.9-1.4,0.9-2.2s-0.3-1.6-0.9-2.2c-0.6-0.6-1.4-0.9-2.2-0.9
	s-1.6,0.3-2.2,0.9c-0.6,0.6-0.9,1.4-0.9,2.2s0.3,1.6,0.9,2.2C180.7,248.8,181.5,249.1,182.3,249.1z"/>
<path class="st2" d="M189.2,244c0.8,0,1.6-0.3,2.2-0.9c0.6-0.6,0.9-1.4,0.9-2.2c0-0.8-0.3-1.6-0.9-2.2c-0.6-0.6-1.4-0.9-2.2-0.9
	c-0.8,0-1.6,0.3-2.2,0.9c-0.6,0.6-0.9,1.4-0.9,2.2c0,0.8,0.3,1.6,0.9,2.2C187.6,243.7,188.4,244,189.2,244z"/>
<path class="st2" d="M182.3,249.5c0.8,0,1.6-0.3,2.2-0.9c0.6-0.6,0.9-1.4,0.9-2.2s-0.3-1.6-0.9-2.2c-0.6-0.6-1.4-0.9-2.2-0.9
	s-1.6,0.3-2.2,0.9c-0.6,0.6-0.9,1.4-0.9,2.2s0.3,1.6,0.9,2.2C180.7,249.2,181.5,249.5,182.3,249.5z"/>
<path class="st2" d="M182.3,234c0.8,0,1.6-0.3,2.2-0.9c0.6-0.6,0.9-1.4,0.9-2.2c0-0.8-0.3-1.6-0.9-2.2c-0.6-0.6-1.4-0.9-2.2-0.9
	s-1.6,0.3-2.2,0.9c-0.6,0.6-0.9,1.4-0.9,2.2c0,0.8,0.3,1.6,0.9,2.2S181.5,234,182.3,234z"/>
<path class="st2" d="M182.3,249c0.8,0,1.6-0.3,2.2-0.9c0.6-0.6,0.9-1.4,0.9-2.2s-0.3-1.6-0.9-2.2c-0.6-0.6-1.4-0.9-2.2-0.9
	s-1.6,0.3-2.2,0.9c-0.6,0.6-0.9,1.4-0.9,2.2s0.3,1.6,0.9,2.2C180.7,248.7,181.5,249,182.3,249z"/>
<path class="st2" d="M216.8,244.7c0.8,0,1.6-0.3,2.2-0.9c0.6-0.6,0.9-1.4,0.9-2.2c0-0.8-0.3-1.6-0.9-2.2c-0.6-0.6-1.4-0.9-2.2-0.9
	s-1.6,0.3-2.2,0.9c-0.6,0.6-0.9,1.4-0.9,2.2c0,0.8,0.3,1.6,0.9,2.2C215.2,244.3,216,244.7,216.8,244.7z"/>
<path class="st2" d="M182.3,241.3c0.8,0,1.6-0.3,2.2-0.9c0.6-0.6,0.9-1.4,0.9-2.2c0-0.8-0.3-1.6-0.9-2.2c-0.6-0.6-1.4-0.9-2.2-0.9
	s-1.6,0.3-2.2,0.9c-0.6,0.6-0.9,1.4-0.9,2.2c0,0.8,0.3,1.6,0.9,2.2C180.7,240.9,181.5,241.3,182.3,241.3z"/>
<path class="st2" d="M182.3,246.5c0.8,0,1.6-0.3,2.2-0.9c0.6-0.6,0.9-1.4,0.9-2.2s-0.3-1.6-0.9-2.2c-0.6-0.6-1.4-0.9-2.2-0.9
	s-1.6,0.3-2.2,0.9c-0.6,0.6-0.9,1.4-0.9,2.2s0.3,1.6,0.9,2.2S181.5,246.5,182.3,246.5z"/>
<path class="st2" d="M216.8,239.1c0.8,0,1.6-0.3,2.2-0.9c0.6-0.6,0.9-1.4,0.9-2.2s-0.3-1.6-0.9-2.2c-0.6-0.6-1.4-0.9-2.2-0.9
	s-1.6,0.3-2.2,0.9c-0.6,0.6-0.9,1.4-0.9,2.2s0.3,1.6,0.9,2.2C215.2,238.8,216,239.1,216.8,239.1z"/>
<path class="st2" d="M71.7,215.1c0.8,0,1.6-0.3,2.2-0.9c0.6-0.6,0.9-1.4,0.9-2.2s-0.3-1.6-0.9-2.2c-0.6-0.6-1.4-0.9-2.2-0.9
	c-0.8,0-1.6,0.3-2.2,0.9s-0.9,1.4-0.9,2.2s0.3,1.6,0.9,2.2C70.1,214.8,70.9,215.1,71.7,215.1z"/>
<path class="st2" d="M189.2,241.2c0.8,0,1.6-0.3,2.2-0.9c0.6-0.6,0.9-1.4,0.9-2.2c0-0.8-0.3-1.6-0.9-2.2c-0.6-0.6-1.4-0.9-2.2-0.9
	c-0.8,0-1.6,0.3-2.2,0.9c-0.6,0.6-0.9,1.4-0.9,2.2c0,0.8,0.3,1.6,0.9,2.2C187.6,240.9,188.4,241.2,189.2,241.2z"/>
<path class="st1" d="M299.8,242.7c0.8,0,1.6-0.3,2.2-0.9c0.6-0.6,0.9-1.4,0.9-2.2s-0.3-1.6-0.9-2.2c-0.6-0.6-1.4-0.9-2.2-0.9
	c-0.8,0-1.6,0.3-2.2,0.9c-0.6,0.6-0.9,1.4-0.9,2.2s0.3,1.6,0.9,2.2C298.2,242.4,299,242.7,299.8,242.7z"/>
<path class="st1" d="M272.1,249.3c0.8,0,1.6-0.3,2.2-0.9c0.6-0.6,0.9-1.4,0.9-2.2s-0.3-1.6-0.9-2.2c-0.6-0.6-1.4-0.9-2.2-0.9
	c-0.8,0-1.6,0.3-2.2,0.9c-0.6,0.6-0.9,1.4-0.9,2.2s0.3,1.6,0.9,2.2C270.5,248.9,271.3,249.3,272.1,249.3z"/>
<path class="st1" d="M223.7,247.3c0.8,0,1.6-0.3,2.2-0.9c0.6-0.6,0.9-1.4,0.9-2.2s-0.3-1.6-0.9-2.2c-0.6-0.6-1.4-0.9-2.2-0.9
	s-1.6,0.3-2.2,0.9c-0.6,0.6-0.9,1.4-0.9,2.2s0.3,1.6,0.9,2.2C222.1,246.9,222.9,247.3,223.7,247.3z"/>
<path class="st1" d="M223.7,235.4c0.8,0,1.6-0.3,2.2-0.9s0.9-1.4,0.9-2.2s-0.3-1.6-0.9-2.2c-0.6-0.6-1.4-0.9-2.2-0.9
	s-1.6,0.3-2.2,0.9c-0.6,0.6-0.9,1.4-0.9,2.2s0.3,1.6,0.9,2.2C222.1,235.1,222.9,235.4,223.7,235.4z"/>
<path class="st1" d="M182.3,245.2c0.8,0,1.6-0.3,2.2-0.9c0.6-0.6,0.9-1.4,0.9-2.2s-0.3-1.6-0.9-2.2c-0.6-0.6-1.4-0.9-2.2-0.9
	s-1.6,0.3-2.2,0.9c-0.6,0.6-0.9,1.4-0.9,2.2s0.3,1.6,0.9,2.2C180.7,244.8,181.5,245.2,182.3,245.2z"/>
<path class="st1" d="M258.3,242.5c0.8,0,1.6-0.3,2.2-0.9c0.6-0.6,0.9-1.4,0.9-2.2s-0.3-1.6-0.9-2.2c-0.6-0.6-1.4-0.9-2.2-0.9
	c-0.8,0-1.6,0.3-2.2,0.9c-0.6,0.6-0.9,1.4-0.9,2.2s0.3,1.6,0.9,2.2C256.7,242.2,257.5,242.5,258.3,242.5z"/>
<path class="st1" d="M182.3,249.6c0.8,0,1.6-0.3,2.2-0.9c0.6-0.6,0.9-1.4,0.9-2.2s-0.3-1.6-0.9-2.2c-0.6-0.6-1.4-0.9-2.2-0.9
	s-1.6,0.3-2.2,0.9s-0.9,1.4-0.9,2.2s0.3,1.6,0.9,2.2C180.7,249.3,181.5,249.6,182.3,249.6z"/>
<path class="st1" d="M168.4,248.4c0.8,0,1.6-0.3,2.2-0.9c0.6-0.6,0.9-1.4,0.9-2.2s-0.3-1.6-0.9-2.2c-0.6-0.6-1.4-0.9-2.2-0.9
	s-1.6,0.3-2.2,0.9c-0.6,0.6-0.9,1.4-0.9,2.2s0.3,1.6,0.9,2.2S167.6,248.4,168.4,248.4z"/>
<path class="st1" d="M223.7,206.5c0.8,0,1.6-0.3,2.2-0.9c0.6-0.6,0.9-1.4,0.9-2.2s-0.3-1.6-0.9-2.2c-0.6-0.6-1.4-0.9-2.2-0.9
	s-1.6,0.3-2.2,0.9c-0.6,0.6-0.9,1.4-0.9,2.2s0.3,1.6,0.9,2.2C222.1,206.1,222.9,206.5,223.7,206.5z"/>
<path class="st1" d="M127,236.1c0.8,0,1.6-0.3,2.2-0.9c0.6-0.6,0.9-1.4,0.9-2.2s-0.3-1.6-0.9-2.2c-0.6-0.6-1.4-0.9-2.2-0.9
	c-0.8,0-1.6,0.3-2.2,0.9c-0.6,0.6-0.9,1.4-0.9,2.2s0.3,1.6,0.9,2.2C125.4,235.8,126.2,236.1,127,236.1z"/>
<path class="st1" d="M140.8,249.3c0.8,0,1.6-0.3,2.2-0.9c0.6-0.6,0.9-1.4,0.9-2.2s-0.3-1.6-0.9-2.2s-1.4-0.9-2.2-0.9
	s-1.6,0.3-2.2,0.9s-0.9,1.4-0.9,2.2s0.3,1.6,0.9,2.2C139.2,249,140,249.3,140.8,249.3z"/>
<path class="st1" d="M175.4,86.9c0.8,0,1.6-0.3,2.2-0.9c0.6-0.6,0.9-1.4,0.9-2.2s-0.3-1.6-0.9-2.2c-0.6-0.6-1.4-0.9-2.2-0.9
	s-1.6,0.3-2.2,0.9c-0.6,0.6-0.9,1.4-0.9,2.2s0.3,1.6,0.9,2.2C173.8,86.6,174.5,86.9,175.4,86.9z"/>
<path class="st1" d="M216.8,229.2c0.8,0,1.6-0.3,2.2-0.9c0.6-0.6,0.9-1.4,0.9-2.2s-0.3-1.6-0.9-2.2c-0.6-0.6-1.4-0.9-2.2-0.9
	s-1.6,0.3-2.2,0.9c-0.6,0.6-0.9,1.4-0.9,2.2s0.3,1.6,0.9,2.2C215.2,228.8,216,229.2,216.8,229.2z"/>
<path class="st1" d="M154.6,59.3c0.8,0,1.6-0.3,2.2-0.9c0.6-0.6,0.9-1.4,0.9-2.2c0-0.8-0.3-1.6-0.9-2.2c-0.6-0.6-1.4-0.9-2.2-0.9
	s-1.6,0.3-2.2,0.9s-0.9,1.4-0.9,2.2c0,0.8,0.3,1.6,0.9,2.2S153.8,59.3,154.6,59.3z"/>
<path class="st1" d="M223.7,233.5c0.8,0,1.6-0.3,2.2-0.9c0.6-0.6,0.9-1.4,0.9-2.2s-0.3-1.6-0.9-2.2c-0.6-0.6-1.4-0.9-2.2-0.9
	s-1.6,0.3-2.2,0.9c-0.6,0.6-0.9,1.4-0.9,2.2s0.3,1.6,0.9,2.2C222.1,233.2,222.9,233.5,223.7,233.5z"/>
<path class="st1" d="M175.4,186.4c0.8,0,1.6-0.3,2.2-0.9c0.6-0.6,0.9-1.4,0.9-2.2c0-0.8-0.3-1.6-0.9-2.2c-0.6-0.6-1.4-0.9-2.2-0.9
	s-1.6,0.3-2.2,0.9c-0.6,0.6-0.9,1.4-0.9,2.2c0,0.8,0.3,1.6,0.9,2.2C173.8,186,174.5,186.4,175.4,186.4z"/>
<path class="st1" d="M203,233.5c0.8,0,1.6-0.3,2.2-0.9c0.6-0.6,0.9-1.4,0.9-2.2s-0.3-1.6-0.9-2.2c-0.6-0.6-1.4-0.9-2.2-0.9
	s-1.6,0.3-2.2,0.9c-0.6,0.6-0.9,1.4-0.9,2.2s0.3,1.6,0.9,2.2C201.4,233.2,202.2,233.5,203,233.5z"/>
<path class="st1" d="M127,125.9c0.8,0,1.6-0.3,2.2-0.9c0.6-0.6,0.9-1.4,0.9-2.2c0-0.8-0.3-1.6-0.9-2.2c-0.6-0.6-1.4-0.9-2.2-0.9
	c-0.8,0-1.6,0.3-2.2,0.9c-0.6,0.6-0.9,1.4-0.9,2.2c0,0.8,0.3,1.6,0.9,2.2C125.4,125.6,126.2,125.9,127,125.9z"/>
<path class="st1" d="M168.4,248.9c0.8,0,1.6-0.3,2.2-0.9c0.6-0.6,0.9-1.4,0.9-2.2s-0.3-1.6-0.9-2.2c-0.6-0.6-1.4-0.9-2.2-0.9
	s-1.6,0.3-2.2,0.9c-0.6,0.6-0.9,1.4-0.9,2.2s0.3,1.6,0.9,2.2C166.8,248.5,167.6,248.9,168.4,248.9z"/>
<path class="st1" d="M147.7,216.1c0.8,0,1.6-0.3,2.2-0.9s0.9-1.4,0.9-2.2s-0.3-1.6-0.9-2.2c-0.6-0.6-1.4-0.9-2.2-0.9
	c-0.8,0-1.6,0.3-2.2,0.9c-0.6,0.6-0.9,1.4-0.9,2.2s0.3,1.6,0.9,2.2S146.9,216.1,147.7,216.1z"/>
<path class="st1" d="M140.8,232.5c0.8,0,1.6-0.3,2.2-0.9c0.6-0.6,0.9-1.4,0.9-2.2c0-0.8-0.3-1.6-0.9-2.2c-0.6-0.6-1.4-0.9-2.2-0.9
	s-1.6,0.3-2.2,0.9c-0.6,0.6-0.9,1.4-0.9,2.2c0,0.8,0.3,1.6,0.9,2.2C139.2,232.1,140,232.5,140.8,232.5z"/>
<path class="st1" d="M127,210.9c0.8,0,1.6-0.3,2.2-0.9c0.6-0.6,0.9-1.4,0.9-2.2s-0.3-1.6-0.9-2.2c-0.6-0.6-1.4-0.9-2.2-0.9
	c-0.8,0-1.6,0.3-2.2,0.9c-0.6,0.6-0.9,1.4-0.9,2.2s0.3,1.6,0.9,2.2C125.4,210.6,126.2,210.9,127,210.9z"/>
<path class="st1" d="M71.7,222c0.8,0,1.6-0.3,2.2-0.9c0.6-0.6,0.9-1.4,0.9-2.2s-0.3-1.6-0.9-2.2c-0.6-0.6-1.4-0.9-2.2-0.9
	c-0.8,0-1.6,0.3-2.2,0.9c-0.6,0.6-0.9,1.4-0.9,2.2s0.3,1.6,0.9,2.2C70.1,221.7,70.9,222,71.7,222z"/>
<path class="st3" d="M50.9,249.7c0.8,0,1.6-0.3,2.2-0.9c0.6-0.6,0.9-1.4,0.9-2.2s-0.3-1.6-0.9-2.2c-0.6-0.6-1.4-0.9-2.2-0.9
	c-0.8,0-1.6,0.3-2.2,0.9c-0.6,0.6-0.9,1.4-0.9,2.2s0.3,1.6,0.9,2.2C49.3,249.4,50.1,249.7,50.9,249.7z"/>
<path class="st3" d="M50.9,241.6c0.8,0,1.6-0.3,2.2-0.9c0.6-0.6,0.9-1.4,0.9-2.2s-0.3-1.6-0.9-2.2c-0.6-0.6-1.4-0.9-2.2-0.9
	c-0.8,0-1.6,0.3-2.2,0.9c-0.6,0.6-0.9,1.4-0.9,2.2s0.3,1.6,0.9,2.2C49.3,241.3,50.1,241.6,50.9,241.6z"/>
<path class="st1" d="M209.9,241.3c0.8,0,1.6-0.3,2.2-0.9c0.6-0.6,0.9-1.4,0.9-2.2c0-0.8-0.3-1.6-0.9-2.2c-0.6-0.6-1.4-0.9-2.2-0.9
	c-0.8,0-1.6,0.3-2.2,0.9c-0.6,0.6-0.9,1.4-0.9,2.2c0,0.8,0.3,1.6,0.9,2.2C208.3,240.9,209.1,241.3,209.9,241.3z"/>
<path class="st1" d="M168.4,240.3c0.8,0,1.6-0.3,2.2-0.9c0.6-0.6,0.9-1.4,0.9-2.2s-0.3-1.6-0.9-2.2c-0.6-0.6-1.4-0.9-2.2-0.9
	s-1.6,0.3-2.2,0.9c-0.6,0.6-0.9,1.4-0.9,2.2s0.3,1.6,0.9,2.2C166.8,239.9,167.6,240.3,168.4,240.3z"/>
<path class="st1" d="M237.6,231c0.8,0,1.6-0.3,2.2-0.9s0.9-1.4,0.9-2.2s-0.3-1.6-0.9-2.2c-0.6-0.6-1.4-0.9-2.2-0.9s-1.6,0.3-2.2,0.9
	c-0.6,0.6-0.9,1.4-0.9,2.2s0.3,1.6,0.9,2.2C236,230.6,236.7,231,237.6,231z"/>
<path class="st3" d="M44,245.4c0.8,0,1.6-0.3,2.2-0.9c0.6-0.6,0.9-1.4,0.9-2.2s-0.3-1.6-0.9-2.2c-0.6-0.6-1.4-0.9-2.2-0.9
	c-0.8,0-1.6,0.3-2.2,0.9c-0.6,0.6-0.9,1.4-0.9,2.2s0.3,1.6,0.9,2.2C42.4,245.1,43.2,245.4,44,245.4z"/>
<path class="st2" d="M209.9,232.2c0.8,0,1.6-0.3,2.2-0.9c0.6-0.6,0.9-1.4,0.9-2.2s-0.3-1.6-0.9-2.2c-0.6-0.6-1.4-0.9-2.2-0.9
	c-0.8,0-1.6,0.3-2.2,0.9c-0.6,0.6-0.9,1.4-0.9,2.2s0.3,1.6,0.9,2.2C208.3,231.9,209.1,232.2,209.9,232.2z"/>
<path class="st2" d="M216.8,249.1c0.8,0,1.6-0.3,2.2-0.9c0.6-0.6,0.9-1.4,0.9-2.2s-0.3-1.6-0.9-2.2c-0.6-0.6-1.4-0.9-2.2-0.9
	s-1.6,0.3-2.2,0.9s-0.9,1.4-0.9,2.2s0.3,1.6,0.9,2.2C215.2,248.8,216,249.1,216.8,249.1z"/>
<path class="st2" d="M223.7,249.6c0.8,0,1.6-0.3,2.2-0.9c0.6-0.6,0.9-1.4,0.9-2.2s-0.3-1.6-0.9-2.2c-0.6-0.6-1.4-0.9-2.2-0.9
	s-1.6,0.3-2.2,0.9c-0.6,0.6-0.9,1.4-0.9,2.2s0.3,1.6,0.9,2.2C222.1,249.3,222.9,249.6,223.7,249.6z"/>
<path class="st2" d="M223.7,247.5c0.8,0,1.6-0.3,2.2-0.9s0.9-1.4,0.9-2.2s-0.3-1.6-0.9-2.2c-0.6-0.6-1.4-0.9-2.2-0.9
	s-1.6,0.3-2.2,0.9c-0.6,0.6-0.9,1.4-0.9,2.2s0.3,1.6,0.9,2.2C222.1,247.2,222.9,247.5,223.7,247.5z"/>
<path class="st2" d="M223.7,233.7c0.8,0,1.6-0.3,2.2-0.9s0.9-1.4,0.9-2.2s-0.3-1.6-0.9-2.2c-0.6-0.6-1.4-0.9-2.2-0.9
	s-1.6,0.3-2.2,0.9c-0.6,0.6-0.9,1.4-0.9,2.2s0.3,1.6,0.9,2.2C222.1,233.3,222.9,233.7,223.7,233.7z"/>
<path class="st2" d="M244.5,241.4c0.8,0,1.6-0.3,2.2-0.9c0.6-0.6,0.9-1.4,0.9-2.2c0-0.8-0.3-1.6-0.9-2.2c-0.6-0.6-1.4-0.9-2.2-0.9
	s-1.6,0.3-2.2,0.9c-0.6,0.6-0.9,1.4-0.9,2.2c0,0.8,0.3,1.6,0.9,2.2C242.9,241.1,243.7,241.4,244.5,241.4z"/>
<path class="st2" d="M189.2,224.2c0.8,0,1.6-0.3,2.2-0.9c0.6-0.6,0.9-1.4,0.9-2.2s-0.3-1.6-0.9-2.2c-0.6-0.6-1.4-0.9-2.2-0.9
	c-0.8,0-1.6,0.3-2.2,0.9c-0.6,0.6-0.9,1.4-0.9,2.2s0.3,1.6,0.9,2.2C187.6,223.9,188.4,224.2,189.2,224.2z"/>
<path class="st1" d="M189.2,245.5c0.8,0,1.6-0.3,2.2-0.9c0.6-0.6,0.9-1.4,0.9-2.2c0-0.8-0.3-1.6-0.9-2.2c-0.6-0.6-1.4-0.9-2.2-0.9
	c-0.8,0-1.6,0.3-2.2,0.9c-0.6,0.6-0.9,1.4-0.9,2.2c0,0.8,0.3,1.6,0.9,2.2C187.6,245.2,188.4,245.5,189.2,245.5z"/>
<path class="st2" d="M203,242.3c0.8,0,1.6-0.3,2.2-0.9c0.6-0.6,0.9-1.4,0.9-2.2c0-0.8-0.3-1.6-0.9-2.2c-0.6-0.6-1.4-0.9-2.2-0.9
	s-1.6,0.3-2.2,0.9c-0.6,0.6-0.9,1.4-0.9,2.2c0,0.8,0.3,1.6,0.9,2.2C201.4,242,202.2,242.3,203,242.3z"/>
<path class="st2" d="M216.8,234.5c0.8,0,1.6-0.3,2.2-0.9c0.6-0.6,0.9-1.4,0.9-2.2s-0.3-1.6-0.9-2.2c-0.6-0.6-1.4-0.9-2.2-0.9
	s-1.6,0.3-2.2,0.9s-0.9,1.4-0.9,2.2s0.3,1.6,0.9,2.2C215.2,234.2,216,234.5,216.8,234.5z"/>
<path class="st1" d="M196.1,249.9c0.8,0,1.6-0.3,2.2-0.9c0.6-0.6,0.9-1.4,0.9-2.2s-0.3-1.6-0.9-2.2c-0.6-0.6-1.4-0.9-2.2-0.9
	s-1.6,0.3-2.2,0.9c-0.6,0.6-0.9,1.4-0.9,2.2s0.3,1.6,0.9,2.2C194.5,249.5,195.3,249.9,196.1,249.9z"/>
<path class="st2" d="M189.2,233.9c0.8,0,1.6-0.3,2.2-0.9c0.6-0.6,0.9-1.4,0.9-2.2s-0.3-1.6-0.9-2.2c-0.6-0.6-1.4-0.9-2.2-0.9
	c-0.8,0-1.6,0.3-2.2,0.9c-0.6,0.6-0.9,1.4-0.9,2.2s0.3,1.6,0.9,2.2C187.6,233.5,188.4,233.9,189.2,233.9z"/>
<path class="st2" d="M209.9,242c0.8,0,1.6-0.3,2.2-0.9c0.6-0.6,0.9-1.4,0.9-2.2s-0.3-1.6-0.9-2.2c-0.6-0.6-1.4-0.9-2.2-0.9
	c-0.8,0-1.6,0.3-2.2,0.9c-0.6,0.6-0.9,1.4-0.9,2.2s0.3,1.6,0.9,2.2C208.3,241.7,209.1,242,209.9,242z"/>
<path class="st2" d="M203,246.5c0.8,0,1.6-0.3,2.2-0.9c0.6-0.6,0.9-1.4,0.9-2.2s-0.3-1.6-0.9-2.2c-0.6-0.6-1.4-0.9-2.2-0.9
	s-1.6,0.3-2.2,0.9c-0.6,0.6-0.9,1.4-0.9,2.2s0.3,1.6,0.9,2.2S202.2,246.5,203,246.5z"/>
<path class="st2" d="M196.1,235.4c0.8,0,1.6-0.3,2.2-0.9c0.6-0.6,0.9-1.4,0.9-2.2c0-0.8-0.3-1.6-0.9-2.2c-0.6-0.6-1.4-0.9-2.2-0.9
	s-1.6,0.3-2.2,0.9c-0.6,0.6-0.9,1.4-0.9,2.2c0,0.8,0.3,1.6,0.9,2.2C194.5,235.1,195.3,235.4,196.1,235.4z"/>
<path class="st2" d="M209.9,243.3c0.8,0,1.6-0.3,2.2-0.9c0.6-0.6,0.9-1.4,0.9-2.2s-0.3-1.6-0.9-2.2c-0.6-0.6-1.4-0.9-2.2-0.9
	c-0.8,0-1.6,0.3-2.2,0.9c-0.6,0.6-0.9,1.4-0.9,2.2s0.3,1.6,0.9,2.2C208.3,243,209.1,243.3,209.9,243.3z"/>
<path class="st2" d="M209.9,246.8c0.8,0,1.6-0.3,2.2-0.9c0.6-0.6,0.9-1.4,0.9-2.2s-0.3-1.6-0.9-2.2c-0.6-0.6-1.4-0.9-2.2-0.9
	c-0.8,0-1.6,0.3-2.2,0.9c-0.6,0.6-0.9,1.4-0.9,2.2s0.3,1.6,0.9,2.2C208.3,246.5,209.1,246.8,209.9,246.8z"/>
<path class="st2" d="M223.7,238.6c0.8,0,1.6-0.3,2.2-0.9s0.9-1.4,0.9-2.2s-0.3-1.6-0.9-2.2c-0.6-0.6-1.4-0.9-2.2-0.9
	s-1.6,0.3-2.2,0.9c-0.6,0.6-0.9,1.4-0.9,2.2s0.3,1.6,0.9,2.2C222.1,238.3,222.9,238.6,223.7,238.6z"/>
<path class="st2" d="M209.9,249.6c0.8,0,1.6-0.3,2.2-0.9c0.6-0.6,0.9-1.4,0.9-2.2s-0.3-1.6-0.9-2.2c-0.6-0.6-1.4-0.9-2.2-0.9
	c-0.8,0-1.6,0.3-2.2,0.9c-0.6,0.6-0.9,1.4-0.9,2.2s0.3,1.6,0.9,2.2C208.3,249.3,209.1,249.6,209.9,249.6z"/>
<path class="st2" d="M209.9,224.1c0.8,0,1.6-0.3,2.2-0.9c0.6-0.6,0.9-1.4,0.9-2.2c0-0.8-0.3-1.6-0.9-2.2c-0.6-0.6-1.4-0.9-2.2-0.9
	c-0.8,0-1.6,0.3-2.2,0.9c-0.6,0.6-0.9,1.4-0.9,2.2c0,0.8,0.3,1.6,0.9,2.2C208.3,223.7,209.1,224.1,209.9,224.1z"/>
<path class="st2" d="M203,247.1c0.8,0,1.6-0.3,2.2-0.9c0.6-0.6,0.9-1.4,0.9-2.2s-0.3-1.6-0.9-2.2c-0.6-0.6-1.4-0.9-2.2-0.9
	s-1.6,0.3-2.2,0.9c-0.6,0.6-0.9,1.4-0.9,2.2s0.3,1.6,0.9,2.2C201.4,246.8,202.2,247.1,203,247.1z"/>
<path class="st1" d="M189.2,247.8c0.8,0,1.6-0.3,2.2-0.9c0.6-0.6,0.9-1.4,0.9-2.2s-0.3-1.6-0.9-2.2c-0.6-0.6-1.4-0.9-2.2-0.9
	c-0.8,0-1.6,0.3-2.2,0.9c-0.6,0.6-0.9,1.4-0.9,2.2s0.3,1.6,0.9,2.2C187.6,247.5,188.4,247.8,189.2,247.8z"/>
<path class="st2" d="M230.7,221.9c0.8,0,1.6-0.3,2.2-0.9c0.6-0.6,0.9-1.4,0.9-2.2c0-0.8-0.3-1.6-0.9-2.2c-0.6-0.6-1.4-0.9-2.2-0.9
	s-1.6,0.3-2.2,0.9c-0.6,0.6-0.9,1.4-0.9,2.2c0,0.8,0.3,1.6,0.9,2.2C229.1,221.6,229.8,221.9,230.7,221.9z"/>
<path class="st2" d="M203,225.1c0.8,0,1.6-0.3,2.2-0.9c0.6-0.6,0.9-1.4,0.9-2.2s-0.3-1.6-0.9-2.2c-0.6-0.6-1.4-0.9-2.2-0.9
	s-1.6,0.3-2.2,0.9c-0.6,0.6-0.9,1.4-0.9,2.2s0.3,1.6,0.9,2.2C201.4,224.7,202.2,225.1,203,225.1z"/>
<path class="st2" d="M209.9,249.5c0.8,0,1.6-0.3,2.2-0.9c0.6-0.6,0.9-1.4,0.9-2.2s-0.3-1.6-0.9-2.2c-0.6-0.6-1.4-0.9-2.2-0.9
	c-0.8,0-1.6,0.3-2.2,0.9c-0.6,0.6-0.9,1.4-0.9,2.2s0.3,1.6,0.9,2.2C208.3,249.2,209.1,249.5,209.9,249.5z"/>
<path class="st2" d="M182.3,234.5c0.8,0,1.6-0.3,2.2-0.9c0.6-0.6,0.9-1.4,0.9-2.2c0-0.8-0.3-1.6-0.9-2.2c-0.6-0.6-1.4-0.9-2.2-0.9
	s-1.6,0.3-2.2,0.9c-0.6,0.6-0.9,1.4-0.9,2.2c0,0.8,0.3,1.6,0.9,2.2C180.7,234.2,181.5,234.5,182.3,234.5z"/>
<path class="st2" d="M216.8,243c0.8,0,1.6-0.3,2.2-0.9c0.6-0.6,0.9-1.4,0.9-2.2s-0.3-1.6-0.9-2.2c-0.6-0.6-1.4-0.9-2.2-0.9
	s-1.6,0.3-2.2,0.9c-0.6,0.6-0.9,1.4-0.9,2.2s0.3,1.6,0.9,2.2C215.2,242.7,216,243,216.8,243z"/>
<path class="st2" d="M216.8,249.2c0.8,0,1.6-0.3,2.2-0.9c0.6-0.6,0.9-1.4,0.9-2.2s-0.3-1.6-0.9-2.2c-0.6-0.6-1.4-0.9-2.2-0.9
	s-1.6,0.3-2.2,0.9c-0.6,0.6-0.9,1.4-0.9,2.2s0.3,1.6,0.9,2.2S216,249.2,216.8,249.2z"/>
<path class="st2" d="M209.9,235.6c0.8,0,1.6-0.3,2.2-0.9c0.6-0.6,0.9-1.4,0.9-2.2s-0.3-1.6-0.9-2.2c-0.6-0.6-1.4-0.9-2.2-0.9
	c-0.8,0-1.6,0.3-2.2,0.9c-0.6,0.6-0.9,1.4-0.9,2.2s0.3,1.6,0.9,2.2C208.3,235.2,209.1,235.6,209.9,235.6z"/>
<path class="st2" d="M154.6,241c0.8,0,1.6-0.3,2.2-0.9c0.6-0.6,0.9-1.4,0.9-2.2s-0.3-1.6-0.9-2.2c-0.6-0.6-1.4-0.9-2.2-0.9
	s-1.6,0.3-2.2,0.9c-0.6,0.6-0.9,1.4-0.9,2.2s0.3,1.6,0.9,2.2C153,240.7,153.8,241,154.6,241z"/>
<path class="st1" d="M161.5,236.9c0.8,0,1.6-0.3,2.2-0.9c0.6-0.6,0.9-1.4,0.9-2.2s-0.3-1.6-0.9-2.2c-0.6-0.6-1.4-0.9-2.2-0.9
	s-1.6,0.3-2.2,0.9c-0.6,0.6-0.9,1.4-0.9,2.2s0.3,1.6,0.9,2.2C159.9,236.6,160.7,236.9,161.5,236.9z"/>
<path class="st2" d="M203,234.6c0.8,0,1.6-0.3,2.2-0.9c0.6-0.6,0.9-1.4,0.9-2.2s-0.3-1.6-0.9-2.2c-0.6-0.6-1.4-0.9-2.2-0.9
	s-1.6,0.3-2.2,0.9c-0.6,0.6-0.9,1.4-0.9,2.2s0.3,1.6,0.9,2.2C201.4,234.3,202.2,234.6,203,234.6z"/>
<path class="st2" d="M216.8,247.3c0.8,0,1.6-0.3,2.2-0.9c0.6-0.6,0.9-1.4,0.9-2.2s-0.3-1.6-0.9-2.2c-0.6-0.6-1.4-0.9-2.2-0.9
	s-1.6,0.3-2.2,0.9c-0.6,0.6-0.9,1.4-0.9,2.2s0.3,1.6,0.9,2.2C215.2,246.9,216,247.3,216.8,247.3z"/>
<path class="st2" d="M182.3,221.6c0.8,0,1.6-0.3,2.2-0.9c0.6-0.6,0.9-1.4,0.9-2.2s-0.3-1.6-0.9-2.2c-0.6-0.6-1.4-0.9-2.2-0.9
	s-1.6,0.3-2.2,0.9c-0.6,0.6-0.9,1.4-0.9,2.2s0.3,1.6,0.9,2.2C180.7,221.2,181.5,221.6,182.3,221.6z"/>
<path class="st2" d="M182.3,230c0.8,0,1.6-0.3,2.2-0.9c0.6-0.6,0.9-1.4,0.9-2.2c0-0.8-0.3-1.6-0.9-2.2c-0.6-0.6-1.4-0.9-2.2-0.9
	s-1.6,0.3-2.2,0.9c-0.6,0.6-0.9,1.4-0.9,2.2c0,0.8,0.3,1.6,0.9,2.2C180.7,229.7,181.5,230,182.3,230z"/>
<path class="st2" d="M209.9,248.8c0.8,0,1.6-0.3,2.2-0.9c0.6-0.6,0.9-1.4,0.9-2.2s-0.3-1.6-0.9-2.2c-0.6-0.6-1.4-0.9-2.2-0.9
	c-0.8,0-1.6,0.3-2.2,0.9c-0.6,0.6-0.9,1.4-0.9,2.2s0.3,1.6,0.9,2.2C208.3,248.5,209.1,248.8,209.9,248.8z"/>
<path class="st2" d="M209.9,247.8c0.8,0,1.6-0.3,2.2-0.9c0.6-0.6,0.9-1.4,0.9-2.2s-0.3-1.6-0.9-2.2c-0.6-0.6-1.4-0.9-2.2-0.9
	c-0.8,0-1.6,0.3-2.2,0.9c-0.6,0.6-0.9,1.4-0.9,2.2s0.3,1.6,0.9,2.2C208.3,247.5,209.1,247.8,209.9,247.8z"/>
<path class="st2" d="M182.3,246.2c0.8,0,1.6-0.3,2.2-0.9c0.6-0.6,0.9-1.4,0.9-2.2s-0.3-1.6-0.9-2.2c-0.6-0.6-1.4-0.9-2.2-0.9
	s-1.6,0.3-2.2,0.9s-0.9,1.4-0.9,2.2s0.3,1.6,0.9,2.2C180.7,245.9,181.5,246.2,182.3,246.2z"/>
<path class="st2" d="M203,241.5c0.8,0,1.6-0.3,2.2-0.9c0.6-0.6,0.9-1.4,0.9-2.2s-0.3-1.6-0.9-2.2c-0.6-0.6-1.4-0.9-2.2-0.9
	s-1.6,0.3-2.2,0.9c-0.6,0.6-0.9,1.4-0.9,2.2s0.3,1.6,0.9,2.2C201.4,241.2,202.2,241.5,203,241.5z"/>
<path class="st2" d="M203,220.8c0.8,0,1.6-0.3,2.2-0.9c0.6-0.6,0.9-1.4,0.9-2.2s-0.3-1.6-0.9-2.2c-0.6-0.6-1.4-0.9-2.2-0.9
	s-1.6,0.3-2.2,0.9c-0.6,0.6-0.9,1.4-0.9,2.2s0.3,1.6,0.9,2.2C201.4,220.5,202.2,220.8,203,220.8z"/>
<path class="st2" d="M182.3,245.6c0.8,0,1.6-0.3,2.2-0.9c0.6-0.6,0.9-1.4,0.9-2.2c0-0.8-0.3-1.6-0.9-2.2c-0.6-0.6-1.4-0.9-2.2-0.9
	s-1.6,0.3-2.2,0.9c-0.6,0.6-0.9,1.4-0.9,2.2c0,0.8,0.3,1.6,0.9,2.2C180.7,245.2,181.5,245.6,182.3,245.6z"/>
<path class="st2" d="M209.9,243.1c0.8,0,1.6-0.3,2.2-0.9c0.6-0.6,0.9-1.4,0.9-2.2s-0.3-1.6-0.9-2.2c-0.6-0.6-1.4-0.9-2.2-0.9
	c-0.8,0-1.6,0.3-2.2,0.9c-0.6,0.6-0.9,1.4-0.9,2.2s0.3,1.6,0.9,2.2C208.3,242.8,209.1,243.1,209.9,243.1z"/>
<path class="st2" d="M209.9,246c0.8,0,1.6-0.3,2.2-0.9c0.6-0.6,0.9-1.4,0.9-2.2s-0.3-1.6-0.9-2.2c-0.6-0.6-1.4-0.9-2.2-0.9
	c-0.8,0-1.6,0.3-2.2,0.9c-0.6,0.6-0.9,1.4-0.9,2.2s0.3,1.6,0.9,2.2C208.3,245.6,209.1,246,209.9,246z"/>
<path class="st2" d="M203,247.5c0.8,0,1.6-0.3,2.2-0.9c0.6-0.6,0.9-1.4,0.9-2.2s-0.3-1.6-0.9-2.2c-0.6-0.6-1.4-0.9-2.2-0.9
	s-1.6,0.3-2.2,0.9s-0.9,1.4-0.9,2.2s0.3,1.6,0.9,2.2C201.4,247.2,202.2,247.5,203,247.5z"/>
<path class="st2" d="M209.9,249.8c0.8,0,1.6-0.3,2.2-0.9c0.6-0.6,0.9-1.4,0.9-2.2s-0.3-1.6-0.9-2.2c-0.6-0.6-1.4-0.9-2.2-0.9
	c-0.8,0-1.6,0.3-2.2,0.9c-0.6,0.6-0.9,1.4-0.9,2.2s0.3,1.6,0.9,2.2C208.3,249.5,209.1,249.8,209.9,249.8z"/>
<path class="st1" d="M182.3,237.9c0.8,0,1.6-0.3,2.2-0.9c0.6-0.6,0.9-1.4,0.9-2.2s-0.3-1.6-0.9-2.2c-0.6-0.6-1.4-0.9-2.2-0.9
	s-1.6,0.3-2.2,0.9s-0.9,1.4-0.9,2.2s0.3,1.6,0.9,2.2C180.7,237.6,181.5,237.9,182.3,237.9z"/>
<path class="st2" d="M189.2,245.7c0.8,0,1.6-0.3,2.2-0.9c0.6-0.6,0.9-1.4,0.9-2.2s-0.3-1.6-0.9-2.2c-0.6-0.6-1.4-0.9-2.2-0.9
	c-0.8,0-1.6,0.3-2.2,0.9c-0.6,0.6-0.9,1.4-0.9,2.2s0.3,1.6,0.9,2.2C187.6,245.4,188.4,245.7,189.2,245.7z"/>
<path class="st2" d="M182.3,237.4c0.8,0,1.6-0.3,2.2-0.9c0.6-0.6,0.9-1.4,0.9-2.2s-0.3-1.6-0.9-2.2c-0.6-0.6-1.4-0.9-2.2-0.9
	s-1.6,0.3-2.2,0.9s-0.9,1.4-0.9,2.2s0.3,1.6,0.9,2.2C180.7,237.1,181.5,237.4,182.3,237.4z"/>
<path class="st2" d="M182.3,235.7c0.8,0,1.6-0.3,2.2-0.9c0.6-0.6,0.9-1.4,0.9-2.2s-0.3-1.6-0.9-2.2c-0.6-0.6-1.4-0.9-2.2-0.9
	s-1.6,0.3-2.2,0.9c-0.6,0.6-0.9,1.4-0.9,2.2s0.3,1.6,0.9,2.2C180.7,235.3,181.5,235.7,182.3,235.7z"/>
<path class="st1" d="M203,110.5c0.8,0,1.6-0.3,2.2-0.9c0.6-0.6,0.9-1.4,0.9-2.2s-0.3-1.6-0.9-2.2c-0.6-0.6-1.4-0.9-2.2-0.9
	s-1.6,0.3-2.2,0.9c-0.6,0.6-0.9,1.4-0.9,2.2s0.3,1.6,0.9,2.2C201.4,110.2,202.2,110.5,203,110.5z"/>
<path class="st2" d="M154.6,245.6c0.8,0,1.6-0.3,2.2-0.9c0.6-0.6,0.9-1.4,0.9-2.2s-0.3-1.6-0.9-2.2c-0.6-0.6-1.4-0.9-2.2-0.9
	s-1.6,0.3-2.2,0.9c-0.6,0.6-0.9,1.4-0.9,2.2s0.3,1.6,0.9,2.2S153.8,245.6,154.6,245.6z"/>
<path class="st1" d="M168.4,193.5c0.8,0,1.6-0.3,2.2-0.9c0.6-0.6,0.9-1.4,0.9-2.2s-0.3-1.6-0.9-2.2c-0.6-0.6-1.4-0.9-2.2-0.9
	s-1.6,0.3-2.2,0.9c-0.6,0.6-0.9,1.4-0.9,2.2s0.3,1.6,0.9,2.2S167.6,193.5,168.4,193.5z"/>
<path class="st1" d="M168.4,151.5c0.8,0,1.6-0.3,2.2-0.9c0.6-0.6,0.9-1.4,0.9-2.2s-0.3-1.6-0.9-2.2c-0.6-0.6-1.4-0.9-2.2-0.9
	s-1.6,0.3-2.2,0.9s-0.9,1.4-0.9,2.2s0.3,1.6,0.9,2.2C166.8,151.2,167.6,151.5,168.4,151.5z"/>
<path class="st1" d="M168.4,191.5c0.8,0,1.6-0.3,2.2-0.9c0.6-0.6,0.9-1.4,0.9-2.2c0-0.8-0.3-1.6-0.9-2.2c-0.6-0.6-1.4-0.9-2.2-0.9
	s-1.6,0.3-2.2,0.9s-0.9,1.4-0.9,2.2c0,0.8,0.3,1.6,0.9,2.2S167.6,191.5,168.4,191.5z"/>
<path class="st1" d="M182.3,193.5c0.8,0,1.6-0.3,2.2-0.9c0.6-0.6,0.9-1.4,0.9-2.2s-0.3-1.6-0.9-2.2c-0.6-0.6-1.4-0.9-2.2-0.9
	s-1.6,0.3-2.2,0.9c-0.6,0.6-0.9,1.4-0.9,2.2s0.3,1.6,0.9,2.2S181.5,193.5,182.3,193.5z"/>
<path class="st3" d="M203,231.7c0.8,0,1.6-0.3,2.2-0.9c0.6-0.6,0.9-1.4,0.9-2.2c0-0.8-0.3-1.6-0.9-2.2c-0.6-0.6-1.4-0.9-2.2-0.9
	s-1.6,0.3-2.2,0.9c-0.6,0.6-0.9,1.4-0.9,2.2c0,0.8,0.3,1.6,0.9,2.2C201.4,231.4,202.2,231.7,203,231.7z"/>
<path class="st1" d="M154.6,191.5c0.8,0,1.6-0.3,2.2-0.9c0.6-0.6,0.9-1.4,0.9-2.2c0-0.8-0.3-1.6-0.9-2.2c-0.6-0.6-1.4-0.9-2.2-0.9
	s-1.6,0.3-2.2,0.9s-0.9,1.4-0.9,2.2c0,0.8,0.3,1.6,0.9,2.2S153.8,191.5,154.6,191.5z"/>
<path class="st1" d="M127,193.5c0.8,0,1.6-0.3,2.2-0.9c0.6-0.6,0.9-1.4,0.9-2.2s-0.3-1.6-0.9-2.2c-0.6-0.6-1.4-0.9-2.2-0.9
	c-0.8,0-1.6,0.3-2.2,0.9c-0.6,0.6-0.9,1.4-0.9,2.2s0.3,1.6,0.9,2.2C125.4,193.2,126.2,193.5,127,193.5z"/>
<path class="st1" d="M120.1,224.3c0.8,0,1.6-0.3,2.2-0.9c0.6-0.6,0.9-1.4,0.9-2.2c0-0.8-0.3-1.6-0.9-2.2c-0.6-0.6-1.4-0.9-2.2-0.9
	s-1.6,0.3-2.2,0.9c-0.6,0.6-0.9,1.4-0.9,2.2c0,0.8,0.3,1.6,0.9,2.2C118.5,223.9,119.2,224.3,120.1,224.3z"/>
<path class="st1" d="M44,217.7c0.8,0,1.6-0.3,2.2-0.9c0.6-0.6,0.9-1.4,0.9-2.2s-0.3-1.6-0.9-2.2c-0.6-0.6-1.4-0.9-2.2-0.9
	c-0.8,0-1.6,0.3-2.2,0.9c-0.6,0.6-0.9,1.4-0.9,2.2s0.3,1.6,0.9,2.2C42.4,217.3,43.2,217.7,44,217.7z"/>
<path class="st1" d="M44,223c0.8,0,1.6-0.3,2.2-0.9c0.6-0.6,0.9-1.4,0.9-2.2s-0.3-1.6-0.9-2.2c-0.6-0.6-1.4-0.9-2.2-0.9
	c-0.8,0-1.6,0.3-2.2,0.9c-0.6,0.6-0.9,1.4-0.9,2.2s0.3,1.6,0.9,2.2C42.4,222.7,43.2,223,44,223z"/>
<path class="st2" d="M50.9,219.7c0.8,0,1.6-0.3,2.2-0.9c0.6-0.6,0.9-1.4,0.9-2.2s-0.3-1.6-0.9-2.2s-1.4-0.9-2.2-0.9
	c-0.8,0-1.6,0.3-2.2,0.9c-0.6,0.6-0.9,1.4-0.9,2.2s0.3,1.6,0.9,2.2C49.3,219.3,50.1,219.7,50.9,219.7z"/>
<polyline class="st4" points="315.9,199.5 315.9,189.8 325.6,189.8 325.6,199.5 "/>
<polyline class="st4" points="315.9,199.5 315.9,189.8 325.6,189.8 325.6,199.5 "/>
<path class="st5" d="M320.7,194.6"/>
<polyline class="st4" points="315.9,199.5 315.9,189.8 325.6,189.8 325.6,199.5 "/>
<path id="mdd83ccdd3a_00000026163713657031050340000014918424587400647299_" class="st3" d="M324.4,197.2c0.7,0,1.3-0.3,1.8-0.7
	c0.5-0.5,0.7-1.1,0.7-1.8s-0.3-1.3-0.7-1.8c-0.5-0.5-1.1-0.7-1.8-0.7c-0.7,0-1.3,0.3-1.8,0.7c-0.5,0.5-0.7,1.1-0.7,1.8
	s0.3,1.3,0.7,1.8C323.1,196.9,323.7,197.2,324.4,197.2z"/>
<polyline class="st4" points="315.9,210.2 315.9,200.5 325.6,200.5 325.6,210.2 "/>
<polyline class="st4" points="315.9,210.2 315.9,200.5 325.6,200.5 325.6,210.2 "/>
<path class="st5" d="M320.7,205.3"/>
<polyline class="st4" points="315.9,210.2 315.9,200.5 325.6,200.5 325.6,210.2 "/>
<path id="ma6dbd2d290_00000118384813396997951740000005502032906524442779_" class="st1" d="M324.4,207.9c0.7,0,1.3-0.3,1.8-0.7
	c0.5-0.5,0.7-1.1,0.7-1.8s-0.3-1.3-0.7-1.8c-0.5-0.5-1.1-0.7-1.8-0.7c-0.7,0-1.3,0.3-1.8,0.7c-0.5,0.5-0.7,1.1-0.7,1.8
	s0.3,1.3,0.7,1.8C323.1,207.6,323.7,207.9,324.4,207.9z"/>
<polyline class="st4" points="315.9,220.9 315.9,211.2 325.6,211.2 325.6,220.9 "/>
<path class="st5" d="M320.7,216.1"/>
<path id="ma70e93febb_00000117663215373575087750000001880298937236019625_" class="st2" d="M324.4,218.6c0.7,0,1.3-0.3,1.8-0.7
	c0.5-0.5,0.7-1.1,0.7-1.8s-0.3-1.3-0.7-1.8c-0.5-0.5-1.1-0.7-1.8-0.7c-0.7,0-1.3,0.3-1.8,0.7c-0.5,0.5-0.7,1.1-0.7,1.8
	s0.3,1.3,0.7,1.8C323.1,218.3,323.7,218.6,324.4,218.6z"/>
<rect x="160.1" y="270" class="st4" width="78.1" height="9.5"/>
<text transform="matrix(1 0 0 1 160.1222 275.407)" class="st10 st11">Tenure in years</text>
<rect x="9.8" y="54.3" class="st4" width="68.5" height="17.5"/>
<text transform="matrix(1 0 0 1 9.7515 59.7232)"><tspan x="0" y="0" class="st10 st11">Ratio of overtime to</tspan><tspan x="0" y="9.1" class="st10 st11">regular hours</tspan></text>
<rect x="18.9" y="92.5" class="st4" width="12.3" height="6"/>
<text transform="matrix(1 0 0 1 18.937 97.8912)" class="st10 st11">7.5</text>
<rect x="24.6" y="150.2" class="st4" width="4.3" height="6"/>
<text transform="matrix(1 0 0 1 24.6089 155.6402)" class="st12 st10 st11">5</text>
<rect x="19.1" y="208.9" class="st4" width="11.1" height="6"/>
<text transform="matrix(1 0 0 1 19.1177 214.2926)" class="st12 st10 st11">2.5</text>
<rect x="95" y="258" class="st4" width="9.8" height="6"/>
<text transform="matrix(1 0 0 1 95.0161 263.3834)" class="st12 st10 st11">10</text>
<rect x="164.2" y="258.6" class="st4" width="9.8" height="6"/>
<text transform="matrix(1 0 0 1 164.1558 263.9801)" class="st12 st10 st11">20</text>
<rect x="233.4" y="258.4" class="st4" width="9.8" height="6"/>
<text transform="matrix(1 0 0 1 233.3902 263.8629)" class="st12 st10 st11">30</text>
<rect x="302.8" y="258.6" class="st4" width="9.8" height="6"/>
<text transform="matrix(1 0 0 1 302.7847 263.9801)" class="st12 st10 st11">40</text>
<rect x="322.5" y="181.5" class="st4" width="47.3" height="6.7"/>
<text transform="matrix(1 0 0 1 322.4536 185.942)" class="st13 st14">Agency</text>
<rect x="328.3" y="192.1" class="st4" width="72.8" height="6.7"/>
<text transform="matrix(1 0 0 1 328.3042 196.5592)" class="st10 st14">Department of Correction</text>
<rect x="328.3" y="202.5" class="st4" width="72.8" height="6.7"/>
<text transform="matrix(1 0 0 1 328.2652 206.984)" class="st10 st14">Fire Department</text>
<rect x="328.3" y="214.1" class="st4" width="72.8" height="6.7"/>
<text transform="matrix(1 0 0 1 328.2652 218.6119)" class="st10 st14">Police Department</text>
<rect x="7.3" y="15.2" class="st4" width="377.5" height="23"/>
<text transform="matrix(1 0 0 1 7.3179 21.5299)"><tspan x="0" y="0" class="st10 st15">Officers, now retired, clocked in five times, sometimes more, hours in overtime than regular </tspan><tspan x="0" y="10.6" class="st10 st15">hours as they neared 20 years of service</tspan></text>
<rect x="285.1" y="285.3" class="st4" width="96.5" height="6.5"/>
<text transform="matrix(1 0 0 1 285.1006 288.9463)" class="st10 st16">Source: Payroll data from NYC Open Data</text>
<rect x="266.4" y="55" class="st4" width="158.9" height="33.7"/>
<text transform="matrix(1 0 0 1 266.4429 61.2926)"><tspan x="0" y="0" class="st10 st15">Five firefighters, all now retired, clocked </tspan><tspan x="0" y="10.6" class="st10 st15">in just about 20 hours of regular work </tspan><tspan x="0" y="21.2" class="st10 st15">and over 100 hours each in overtime</tspan></text>
<rect x="261.2" y="108.6" class="st4" width="179.1" height="34.7"/>
<text transform="matrix(1 0 0 1 261.1841 114.8775)"><tspan x="0" y="0" class="st10 st15">One cop, now retired, clocked in over 2,400 </tspan><tspan x="0" y="10.6" class="st10 st15">overtime hours, compared to just about 600 </tspan><tspan x="0" y="21.2" class="st10 st15">regular work hours in his last year of service</tspan></text>
<rect x="117" y="46.7" class="st6" width="96" height="111.2"/>
<g>
	<g>
		<path class="st7" d="M269.9,51.6c-4.9-5.1-19.4-7.7-36.1-5.7c-14.9,1.7-27.4,6.5-32.4,11.9"/>
		<g>
			<path class="st8" d="M199.1,63.4c0.2-3,0.1-7-0.8-9.8l3.6,3.5l5,0.4C204.4,58.8,201.3,61.2,199.1,63.4z"/>
		</g>
	</g>
</g>
<g>
	<g>
		<line class="st7" x1="252.5" y1="141.4" x2="227.8" y2="173.5"/>
		<g>
			<path class="st8" d="M224.1,178.3c0.9-2.9,1.6-6.8,1.4-9.7l2.7,4.3l4.8,1.5C230.2,175,226.7,176.7,224.1,178.3z"/>
		</g>
	</g>
</g>
<rect x="261.7" y="143.1" class="st4" width="165.8" height="10.6"/>
<text transform="matrix(1 0 0 1 261.7349 149.4488)" class="st10 st15">He made over $160K in overtime in 2020</text>
<line class="st9" x1="32.4" y1="253.1" x2="312.6" y2="253.1"/>
</svg>
