<?xml version="1.0" encoding="utf-8"?>
<!-- Generator: Adobe Illustrator 26.0.3, SVG Export Plug-In . SVG Version: 6.00 Build 0)  -->
<svg version="1.1" id="Layer_1" xmlns="http://www.w3.org/2000/svg" xmlns:xlink="http://www.w3.org/1999/xlink" x="0px" y="0px"
	 viewBox="0 0 750 400" style="enable-background:new 0 0 750 400;" xml:space="preserve">
<style type="text/css">
	.st0{fill:#EBEBEB;}
	.st1{fill:none;stroke:#333333;stroke-width:1.5;stroke-linejoin:round;}
	
		.st2{clip-path:url(#SVGID_00000055691702292105702710000004023254225179431065_);fill-opacity:0.502;stroke:#000000;stroke-width:0.8862;stroke-linejoin:round;stroke-opacity:0.502;}
	
		.st3{clip-path:url(#SVGID_00000053544181542391335690000009458081194269473722_);fill-opacity:0.502;stroke:#000000;stroke-width:0.8862;stroke-linejoin:round;stroke-opacity:0.502;}
	
		.st4{clip-path:url(#SVGID_00000091717517514820820200000000396326607538988984_);fill-opacity:0.502;stroke:#000000;stroke-width:0.8862;stroke-linejoin:round;stroke-opacity:0.502;}
	
		.st5{clip-path:url(#SVGID_00000085960369326596146830000015156963982198143391_);fill-opacity:0.502;stroke:#000000;stroke-width:0.8862;stroke-linejoin:round;stroke-opacity:0.502;}
	
		.st6{clip-path:url(#SVGID_00000160151427840242283690000009160218063213464999_);fill-opacity:0.502;stroke:#000000;stroke-width:0.8862;stroke-linejoin:round;stroke-opacity:0.502;}
	
		.st7{clip-path:url(#SVGID_00000016797334083916871920000017473341276844048543_);fill-opacity:0.502;stroke:#000000;stroke-width:0.8862;stroke-linejoin:round;stroke-opacity:0.502;}
	
		.st8{clip-path:url(#SVGID_00000052801741265828642710000007976453547437789576_);fill-opacity:0.502;stroke:#000000;stroke-width:0.8862;stroke-linejoin:round;stroke-opacity:0.502;}
	
		.st9{clip-path:url(#SVGID_00000023976324036242514450000017425587879366250404_);fill-opacity:0.502;stroke:#000000;stroke-width:0.8862;stroke-linejoin:round;stroke-opacity:0.502;}
	
		.st10{clip-path:url(#SVGID_00000013901054039827503810000009988575590737248928_);fill-opacity:0.502;stroke:#000000;stroke-width:0.8862;stroke-linejoin:round;stroke-opacity:0.502;}
	
		.st11{clip-path:url(#SVGID_00000034087831280484704750000010413362598487772043_);fill-opacity:0.502;stroke:#000000;stroke-width:0.8862;stroke-linejoin:round;stroke-opacity:0.502;}
	
		.st12{clip-path:url(#SVGID_00000090294378047743298270000001052095123480069281_);fill-opacity:0.502;stroke:#000000;stroke-width:0.8862;stroke-linejoin:round;stroke-opacity:0.502;}
	
		.st13{clip-path:url(#SVGID_00000171715041066491618560000007759396367148370860_);fill-opacity:0.502;stroke:#000000;stroke-width:0.8862;stroke-linejoin:round;stroke-opacity:0.502;}
	
		.st14{clip-path:url(#SVGID_00000041269640093159367520000005902409657071058361_);fill-opacity:0.502;stroke:#000000;stroke-width:0.8862;stroke-linejoin:round;stroke-opacity:0.502;}
	
		.st15{clip-path:url(#SVGID_00000155831974304343328530000004939351110860093836_);fill-opacity:0.502;stroke:#000000;stroke-width:0.8862;stroke-linejoin:round;stroke-opacity:0.502;}
	.st16{fill:none;}
	.st17{font-family:'Arial-BoldMT';}
	.st18{font-size:12px;}
	.st19{font-family:'ArialMT';}
	.st20{font-size:10px;}
</style>
<path class="st0" d="M36,362.2h469.1V9.8H36V362.2z"/>
<path class="st1" d="M118.3,362.2"/>
<path class="st1" d="M240.1,362.2"/>
<path class="st1" d="M362,362.2"/>
<path class="st1" d="M483.8,362.2"/>
<path class="st1" d="M36,280.2"/>
<path class="st1" d="M36,181.2"/>
<path class="st1" d="M36,82.2"/>
<path id="DejaVuSans-52" d="M13.9,277.6c0.1-0.2,0.3-0.5,0.5-0.7c0.3-0.2,0.6-0.5,1.1-0.7l2.3-1.2v1.2l-2.2,1.1
	c-0.6,0.3-0.9,0.6-1.1,0.8s-0.3,0.6-0.3,1.1v1.3h3.6v1.1H9.5V279c0-1,0.2-1.7,0.6-2.2c0.4-0.5,1-0.7,1.8-0.7c0.5,0,1,0.1,1.3,0.4
	C13.6,276.7,13.8,277.1,13.9,277.6z M10.4,280.5h3V279c0-0.6-0.1-1-0.4-1.3c-0.3-0.3-0.6-0.4-1.1-0.4c-0.5,0-0.9,0.1-1.1,0.4
	s-0.4,0.7-0.4,1.3V280.5z"/>
<path id="DejaVuSans-61_00000068660381257716405100000005506375936674826162_" d="M14.7,270.9c0,0.8,0.1,1.4,0.3,1.8s0.5,0.5,1,0.5
	c0.4,0,0.7-0.1,0.9-0.4c0.2-0.2,0.3-0.6,0.3-1c0-0.6-0.2-1-0.6-1.4s-1-0.5-1.6-0.5h-0.2V270.9z M14.3,268.8h3.6v1h-1
	c0.4,0.2,0.7,0.5,0.8,0.9c0.2,0.4,0.3,0.8,0.3,1.3c0,0.7-0.2,1.2-0.5,1.6c-0.4,0.4-0.9,0.6-1.5,0.6c-0.7,0-1.2-0.2-1.6-0.7
	c-0.4-0.5-0.5-1.2-0.5-2.1v-1.5h-0.1c-0.5,0-0.8,0.2-1.1,0.5c-0.3,0.3-0.4,0.8-0.4,1.3c0,0.4,0,0.7,0.1,1.1c0.1,0.3,0.2,0.7,0.4,1
	h-1c-0.1-0.4-0.3-0.8-0.3-1.1c-0.1-0.4-0.1-0.7-0.1-1.1c0-0.9,0.2-1.6,0.7-2.1C12.6,269.1,13.3,268.8,14.3,268.8z"/>
<path id="DejaVuSans-74" d="M9.8,265.6h1.8v-2.2h0.8v2.2h3.4c0.5,0,0.8-0.1,1-0.2c0.1-0.1,0.2-0.4,0.2-0.9v-1.1h0.9v1.1
	c0,0.8-0.1,1.4-0.4,1.7c-0.3,0.3-0.8,0.5-1.6,0.5h-3.4v0.8h-0.8v-0.8H9.8V265.6z"/>
<path id="DejaVuSans-69_00000137126131159999721310000016253496223966443158_" d="M11.6,262.1v-1h6.3v1H11.6z M9.1,262.1v-1h1.3v1
	H9.1z"/>
<path id="DejaVuSans-6f" d="M12.3,256.4c0,0.6,0.2,1,0.7,1.3c0.4,0.3,1,0.5,1.8,0.5s1.4-0.2,1.8-0.5c0.4-0.3,0.7-0.8,0.7-1.3
	c0-0.6-0.2-1-0.7-1.3c-0.4-0.3-1-0.5-1.8-0.5c-0.7,0-1.3,0.2-1.8,0.5C12.5,255.4,12.3,255.8,12.3,256.4z M11.4,256.4
	c0-0.9,0.3-1.6,0.9-2.1c0.6-0.5,1.4-0.8,2.4-0.8c1,0,1.8,0.3,2.4,0.8c0.6,0.5,0.9,1.2,0.9,2.1c0,0.9-0.3,1.6-0.9,2.1
	c-0.6,0.5-1.4,0.8-2.4,0.8c-1,0-1.9-0.3-2.4-0.8C11.7,258,11.4,257.3,11.4,256.4z"/>
<path id="DejaVuSans-20_00000150788931766699929970000006178288169334730406_" d="M17.9,252.8"/>
<path id="DejaVuSans-6f_00000133515624804650363880000016858239530783160487_" d="M12.3,245.6c0,0.6,0.2,1,0.7,1.3
	c0.4,0.3,1,0.5,1.8,0.5s1.4-0.2,1.8-0.5c0.4-0.3,0.7-0.8,0.7-1.3c0-0.6-0.2-1-0.7-1.3c-0.4-0.3-1-0.5-1.8-0.5
	c-0.7,0-1.3,0.2-1.8,0.5C12.5,244.6,12.3,245,12.3,245.6z M11.4,245.6c0-0.9,0.3-1.6,0.9-2.1c0.6-0.5,1.4-0.8,2.4-0.8
	c1,0,1.8,0.3,2.4,0.8c0.6,0.5,0.9,1.2,0.9,2.1c0,0.9-0.3,1.6-0.9,2.1c-0.6,0.5-1.4,0.8-2.4,0.8c-1,0-1.9-0.3-2.4-0.8
	C11.7,247.2,11.4,246.5,11.4,245.6z"/>
<path id="DejaVuSans-66" d="M9.1,237.7H10v1c0,0.4,0.1,0.6,0.2,0.8c0.2,0.1,0.4,0.2,0.8,0.2h0.6V238h0.8v1.7h5.5v1.1h-5.5v1h-0.8v-1
	h-0.4c-0.7,0-1.2-0.2-1.5-0.5c-0.3-0.3-0.5-0.9-0.5-1.6V237.7z"/>
<path id="DejaVuSans-20_00000078723204616831913200000009906377521574018201_" d="M17.9,237.9"/>
<path id="DejaVuSans-6f_00000021081122620121800080000008101350403622924959_" d="M12.3,230.6c0,0.6,0.2,1,0.7,1.3
	c0.4,0.3,1,0.5,1.8,0.5s1.4-0.2,1.8-0.5c0.4-0.3,0.7-0.8,0.7-1.3c0-0.6-0.2-1-0.7-1.3c-0.4-0.3-1-0.5-1.8-0.5
	c-0.7,0-1.3,0.2-1.8,0.5C12.5,229.6,12.3,230.1,12.3,230.6z M11.4,230.6c0-0.9,0.3-1.6,0.9-2.1c0.6-0.5,1.4-0.8,2.4-0.8
	c1,0,1.8,0.3,2.4,0.8c0.6,0.5,0.9,1.2,0.9,2.1c0,0.9-0.3,1.6-0.9,2.1c-0.6,0.5-1.4,0.8-2.4,0.8c-1,0-1.9-0.3-2.4-0.8
	C11.7,232.3,11.4,231.6,11.4,230.6z"/>
<path id="DejaVuSans-76" d="M11.6,226.7v-1.1l5.3-2l-5.3-2v-1.1l6.3,2.4v1.4L11.6,226.7z"/>
<path id="DejaVuSans-65_00000090268496168301668890000003572107160934970250_" d="M14.5,213.6H15v4.8c0.7,0,1.3-0.3,1.6-0.7
	s0.6-0.9,0.6-1.6c0-0.4,0-0.8-0.1-1.2s-0.2-0.8-0.4-1.1h1c0.2,0.4,0.3,0.8,0.4,1.2c0.1,0.4,0.1,0.8,0.1,1.2c0,1-0.3,1.8-0.9,2.4
	c-0.6,0.6-1.4,0.9-2.4,0.9c-1,0-1.9-0.3-2.5-0.8c-0.6-0.6-0.9-1.3-0.9-2.3c0-0.9,0.3-1.5,0.8-2C12.8,213.9,13.5,213.6,14.5,213.6z
	 M14.2,214.7c-0.6,0-1,0.2-1.4,0.5c-0.3,0.3-0.5,0.7-0.5,1.2c0,0.6,0.2,1.1,0.5,1.4c0.3,0.4,0.8,0.6,1.4,0.6L14.2,214.7z"/>
<path id="DejaVuSans-72_00000107586247445342328900000009434341993744769932_" d="M12.5,208.2c-0.1,0.1-0.1,0.2-0.1,0.4
	c0,0.1,0,0.3,0,0.5c0,0.6,0.2,1,0.6,1.4c0.4,0.3,0.9,0.5,1.6,0.5h3.3v1.1h-6.3v-1.1h1c-0.4-0.2-0.7-0.5-0.9-0.9
	c-0.2-0.4-0.3-0.8-0.3-1.3c0-0.1,0-0.2,0-0.2c0-0.1,0-0.2,0-0.3L12.5,208.2z"/>
<path id="DejaVuSans-74_00000030472022757016170390000004004812273580106889_" d="M9.8,206.1h1.8v-2.2h0.8v2.2h3.4
	c0.5,0,0.8-0.1,1-0.2c0.1-0.1,0.2-0.4,0.2-0.9v-1.1h0.9v1.1c0,0.8-0.1,1.4-0.4,1.7c-0.3,0.3-0.8,0.5-1.6,0.5h-3.4v0.8h-0.8v-0.8H9.8
	V206.1z"/>
<path id="DejaVuSans-69_00000088125190131692365920000010071105848918420359_" d="M11.6,202.6v-1h6.3v1H11.6z M9.1,202.6v-1h1.3v1
	H9.1z"/>
<path id="DejaVuSans-6d" d="M12.8,194.4c-0.5-0.3-0.8-0.6-1-0.9s-0.3-0.8-0.3-1.3c0-0.7,0.2-1.2,0.7-1.5c0.5-0.4,1.1-0.5,2-0.5h3.8
	v1.1h-3.8c-0.6,0-1.1,0.1-1.3,0.3c-0.3,0.2-0.4,0.5-0.4,1c0,0.5,0.2,1,0.5,1.3c0.4,0.3,0.8,0.5,1.5,0.5h3.6v1.1h-3.8
	c-0.6,0-1.1,0.1-1.4,0.3c-0.3,0.2-0.4,0.5-0.4,1c0,0.5,0.2,1,0.5,1.3c0.4,0.3,0.8,0.5,1.5,0.5h3.6v1.1h-6.3v-1.1h1
	c-0.4-0.2-0.7-0.5-0.9-0.9c-0.2-0.3-0.3-0.7-0.3-1.2c0-0.5,0.1-0.9,0.4-1.2C12,194.8,12.3,194.5,12.8,194.4z"/>
<path id="DejaVuSans-65_00000047042973220400633230000000443169708643051444_" d="M14.5,182.5H15v4.8c0.7,0,1.3-0.3,1.6-0.7
	c0.4-0.4,0.6-0.9,0.6-1.6c0-0.4,0-0.8-0.1-1.2s-0.2-0.8-0.4-1.1h1c0.2,0.4,0.3,0.8,0.4,1.2c0.1,0.4,0.1,0.8,0.1,1.2
	c0,1-0.3,1.8-0.9,2.4c-0.6,0.6-1.4,0.9-2.4,0.9c-1,0-1.9-0.3-2.5-0.8c-0.6-0.6-0.9-1.3-0.9-2.3c0-0.9,0.3-1.5,0.8-2
	C12.8,182.8,13.5,182.5,14.5,182.5z M14.2,183.6c-0.6,0-1,0.2-1.4,0.5c-0.3,0.3-0.5,0.7-0.5,1.2c0,0.6,0.2,1.1,0.5,1.4
	c0.3,0.4,0.8,0.6,1.4,0.6L14.2,183.6z"/>
<path id="DejaVuSans-20_00000122697885568034532210000007145952229594806201_" d="M17.9,181.9"/>
<path id="DejaVuSans-74_00000164495136134715053380000003109432793843184319_" d="M9.8,176.1h1.8v-2.2h0.8v2.2h3.4
	c0.5,0,0.8-0.1,1-0.2c0.1-0.1,0.2-0.4,0.2-0.9v-1.1h0.9v1.1c0,0.8-0.1,1.4-0.4,1.7c-0.3,0.3-0.8,0.5-1.6,0.5h-3.4v0.8h-0.8v-0.8H9.8
	V176.1z"/>
<path id="DejaVuSans-6f_00000134219275096713894540000014422547044113125045_" d="M12.3,170.1c0,0.6,0.2,1,0.7,1.3
	c0.4,0.3,1,0.5,1.8,0.5s1.4-0.2,1.8-0.5c0.4-0.3,0.7-0.8,0.7-1.3c0-0.6-0.2-1-0.7-1.3c-0.4-0.3-1-0.5-1.8-0.5
	c-0.7,0-1.3,0.2-1.8,0.5C12.5,169.1,12.3,169.5,12.3,170.1z M11.4,170.1c0-0.9,0.3-1.6,0.9-2.1c0.6-0.5,1.4-0.8,2.4-0.8
	c1,0,1.8,0.3,2.4,0.8c0.6,0.5,0.9,1.2,0.9,2.1c0,0.9-0.3,1.6-0.9,2.1c-0.6,0.5-1.4,0.8-2.4,0.8c-1,0-1.9-0.3-2.4-0.8
	C11.7,171.7,11.4,171,11.4,170.1z"/>
<path id="DejaVuSans-20_00000078750637109879494730000018161330392124425345_" d="M17.9,166.5"/>
<path id="DejaVuSans-72_00000110470908582912263530000017102405922585583032_" d="M12.5,158c-0.1,0.1-0.1,0.2-0.1,0.4
	c0,0.1,0,0.3,0,0.5c0,0.6,0.2,1,0.6,1.4c0.4,0.3,0.9,0.5,1.6,0.5h3.3v1.1h-6.3v-1.1h1c-0.4-0.2-0.7-0.5-0.9-0.9
	c-0.2-0.4-0.3-0.8-0.3-1.3c0-0.1,0-0.2,0-0.2c0-0.1,0-0.2,0-0.3L12.5,158z"/>
<path id="DejaVuSans-65_00000013905609992665112190000008377396490099817382_" d="M14.5,151.7H15v4.8c0.7,0,1.3-0.3,1.6-0.7
	s0.6-0.9,0.6-1.6c0-0.4,0-0.8-0.1-1.2s-0.2-0.8-0.4-1.1h1c0.2,0.4,0.3,0.8,0.4,1.2c0.1,0.4,0.1,0.8,0.1,1.2c0,1-0.3,1.8-0.9,2.4
	c-0.6,0.6-1.4,0.9-2.4,0.9c-1,0-1.9-0.3-2.5-0.8c-0.6-0.6-0.9-1.3-0.9-2.3c0-0.9,0.3-1.5,0.8-2C12.8,152,13.5,151.7,14.5,151.7z
	 M14.2,152.8c-0.6,0-1,0.2-1.4,0.5c-0.3,0.3-0.5,0.7-0.5,1.2c0,0.6,0.2,1.1,0.5,1.4c0.3,0.4,0.8,0.6,1.4,0.6L14.2,152.8z"/>
<path id="DejaVuSans-67" d="M14.7,145.8c-0.8,0-1.3,0.2-1.7,0.5c-0.4,0.3-0.6,0.8-0.6,1.3c0,0.6,0.2,1,0.6,1.3
	c0.4,0.3,1,0.5,1.7,0.5c0.7,0,1.3-0.2,1.7-0.5c0.4-0.3,0.6-0.8,0.6-1.3c0-0.6-0.2-1-0.6-1.3C16,146,15.4,145.8,14.7,145.8z
	 M17.1,144.8c1.1,0,1.9,0.2,2.4,0.7c0.5,0.5,0.8,1.2,0.8,2.2c0,0.4,0,0.7-0.1,1c-0.1,0.3-0.1,0.6-0.3,1h-1c0.2-0.3,0.3-0.6,0.4-0.9
	c0.1-0.3,0.1-0.6,0.1-0.9c0-0.7-0.2-1.2-0.5-1.5c-0.4-0.3-0.9-0.5-1.6-0.5h-0.5c0.4,0.2,0.7,0.5,0.8,0.8c0.2,0.3,0.3,0.7,0.3,1.2
	c0,0.8-0.3,1.4-0.9,1.9c-0.6,0.5-1.4,0.7-2.3,0.7c-1,0-1.8-0.2-2.4-0.7c-0.6-0.5-0.9-1.1-0.9-1.9c0-0.5,0.1-0.9,0.3-1.2
	c0.2-0.3,0.5-0.6,0.8-0.8h-1v-1H17.1z"/>
<path id="DejaVuSans-75_00000144306630503451761400000016069074599103202994_" d="M15.4,142.7h-3.8v-1h3.8c0.6,0,1-0.1,1.3-0.4
	c0.3-0.2,0.4-0.6,0.4-1.1c0-0.6-0.2-1-0.5-1.3c-0.4-0.3-0.8-0.5-1.5-0.5h-3.6v-1h6.3v1h-1c0.4,0.3,0.7,0.5,0.9,0.9
	c0.2,0.3,0.3,0.7,0.3,1.2c0,0.7-0.2,1.3-0.7,1.7C16.9,142.5,16.3,142.7,15.4,142.7z M11.4,140.1L11.4,140.1z"/>
<path id="DejaVuSans-6c" d="M9.1,135.2v-1h8.8v1H9.1z"/>
<path id="DejaVuSans-61_00000147934347153980839820000008058621407184037773_" d="M14.7,129.1c0,0.8,0.1,1.4,0.3,1.8
	c0.2,0.3,0.5,0.5,1,0.5c0.4,0,0.7-0.1,0.9-0.4c0.2-0.2,0.3-0.6,0.3-1c0-0.6-0.2-1-0.6-1.4s-1-0.5-1.6-0.5h-0.2V129.1z M14.3,127h3.6
	v1h-1c0.4,0.2,0.7,0.5,0.8,0.9c0.2,0.4,0.3,0.8,0.3,1.3c0,0.7-0.2,1.2-0.5,1.6c-0.4,0.4-0.9,0.6-1.5,0.6c-0.7,0-1.2-0.2-1.6-0.7
	c-0.4-0.5-0.5-1.2-0.5-2.1v-1.5h-0.1c-0.5,0-0.8,0.2-1.1,0.5s-0.4,0.8-0.4,1.3c0,0.4,0,0.7,0.1,1.1c0.1,0.3,0.2,0.7,0.4,1h-1
	c-0.1-0.4-0.3-0.8-0.3-1.1c-0.1-0.4-0.1-0.7-0.1-1.1c0-0.9,0.2-1.6,0.7-2.1C12.6,127.2,13.3,127,14.3,127z"/>
<path id="DejaVuSans-72_00000052098804581199237540000016923266176436811432_" d="M12.5,121.2c-0.1,0.1-0.1,0.2-0.1,0.4
	c0,0.1,0,0.3,0,0.5c0,0.6,0.2,1,0.6,1.4c0.4,0.3,0.9,0.5,1.6,0.5h3.3v1.1h-6.3v-1.1h1c-0.4-0.2-0.7-0.5-0.9-0.9
	c-0.2-0.4-0.3-0.8-0.3-1.3c0-0.1,0-0.2,0-0.2c0-0.1,0-0.2,0-0.3L12.5,121.2z"/>
<path id="DejaVuSans-20_00000097494051059038413290000004576689551177002141_" d="M17.9,121.2"/>
<path id="DejaVuSans-68" d="M14.1,111.1h3.8v1h-3.8c-0.6,0-1,0.1-1.3,0.4c-0.3,0.2-0.4,0.6-0.4,1.1c0,0.6,0.2,1,0.5,1.3
	c0.4,0.3,0.8,0.5,1.5,0.5h3.6v1.1H9.1v-1.1h3.4c-0.4-0.3-0.7-0.5-0.9-0.9c-0.2-0.3-0.3-0.7-0.3-1.2c0-0.7,0.2-1.3,0.7-1.7
	C12.5,111.2,13.2,111.1,14.1,111.1z"/>
<path id="DejaVuSans-6f_00000056388545128535160850000007948497142012484792_" d="M12.3,106.5c0,0.6,0.2,1,0.7,1.3
	c0.4,0.3,1,0.5,1.8,0.5s1.4-0.2,1.8-0.5c0.4-0.3,0.7-0.8,0.7-1.3c0-0.6-0.2-1-0.7-1.3c-0.4-0.3-1-0.5-1.8-0.5
	c-0.7,0-1.3,0.2-1.8,0.5C12.5,105.5,12.3,105.9,12.3,106.5z M11.4,106.5c0-0.9,0.3-1.6,0.9-2.1c0.6-0.5,1.4-0.8,2.4-0.8
	c1,0,1.8,0.3,2.4,0.8c0.6,0.5,0.9,1.2,0.9,2.1c0,0.9-0.3,1.6-0.9,2.1c-0.6,0.5-1.4,0.8-2.4,0.8c-1,0-1.9-0.3-2.4-0.8
	C11.7,108.1,11.4,107.4,11.4,106.5z"/>
<path id="DejaVuSans-75_00000113331237331516057710000015936945164128566179_" d="M15.4,102h-3.8v-1h3.8c0.6,0,1-0.1,1.3-0.4
	c0.3-0.2,0.4-0.6,0.4-1.1c0-0.6-0.2-1-0.5-1.3c-0.4-0.3-0.8-0.5-1.5-0.5h-3.6v-1h6.3v1h-1c0.4,0.3,0.7,0.5,0.9,0.9
	c0.2,0.3,0.3,0.7,0.3,1.2c0,0.7-0.2,1.3-0.7,1.7C16.9,101.8,16.3,102,15.4,102z M11.4,99.3L11.4,99.3z"/>
<path id="DejaVuSans-72_00000119092161027998815510000001799022975004927148_" d="M12.5,90.8c-0.1,0.1-0.1,0.2-0.1,0.4
	c0,0.1,0,0.3,0,0.5c0,0.6,0.2,1,0.6,1.4c0.4,0.3,0.9,0.5,1.6,0.5h3.3v1.1h-6.3v-1.1h1c-0.4-0.2-0.7-0.5-0.9-0.9
	c-0.2-0.4-0.3-0.8-0.3-1.3c0-0.1,0-0.2,0-0.2c0-0.1,0-0.2,0-0.3L12.5,90.8z"/>
<path id="DejaVuSans-73_00000020389058964885777040000005068092129549702817_" d="M11.8,85.6h1c-0.2,0.3-0.3,0.6-0.3,0.9
	c-0.1,0.3-0.1,0.6-0.1,1c0,0.5,0.1,0.9,0.2,1.2c0.2,0.3,0.4,0.4,0.7,0.4c0.2,0,0.4-0.1,0.6-0.3c0.1-0.2,0.3-0.6,0.4-1.1l0.1-0.4
	c0.2-0.7,0.4-1.3,0.7-1.6s0.7-0.5,1.2-0.5c0.6,0,1.1,0.2,1.4,0.7c0.3,0.5,0.5,1.1,0.5,1.9c0,0.3,0,0.7-0.1,1.1
	c-0.1,0.4-0.2,0.8-0.3,1.2h-1.1c0.2-0.4,0.3-0.8,0.4-1.1c0.1-0.4,0.1-0.7,0.1-1.1c0-0.5-0.1-0.9-0.3-1.1c-0.2-0.3-0.4-0.4-0.7-0.4
	c-0.3,0-0.5,0.1-0.6,0.3c-0.2,0.2-0.3,0.6-0.4,1.3l-0.1,0.4c-0.1,0.6-0.3,1.1-0.6,1.4c-0.3,0.3-0.7,0.4-1.2,0.4
	c-0.6,0-1.1-0.2-1.4-0.6c-0.3-0.4-0.5-1-0.5-1.8c0-0.4,0-0.7,0.1-1.1C11.6,86.2,11.6,85.9,11.8,85.6z"/>
<g>
	<defs>
		<rect id="SVGID_1_" x="36" y="9.8" width="469.1" height="352.3"/>
	</defs>
	<clipPath id="SVGID_00000050631447438026447380000004158034887509872296_">
		<use xlink:href="#SVGID_1_"  style="overflow:visible;"/>
	</clipPath>
	
		<path style="clip-path:url(#SVGID_00000050631447438026447380000004158034887509872296_);fill-opacity:0.502;stroke:#000000;stroke-width:0.8862;stroke-linejoin:round;stroke-opacity:0.502;" d="
		M453.3,301.9c1.6,0,3.1-0.6,4.3-1.8c1.1-1.1,1.8-2.7,1.8-4.3s-0.6-3.2-1.8-4.3c-1.1-1.1-2.7-1.8-4.3-1.8c-1.6,0-3.1,0.6-4.3,1.8
		c-1.1,1.1-1.8,2.7-1.8,4.3s0.6,3.2,1.8,4.3C450.2,301.2,451.7,301.9,453.3,301.9z"/>
</g>
<g>
	<defs>
		<rect id="SVGID_00000102524979157293236370000000495884341539237823_" x="36" y="9.8" width="469.1" height="352.3"/>
	</defs>
	<clipPath id="SVGID_00000142898965682946817560000014190397362894602679_">
		<use xlink:href="#SVGID_00000102524979157293236370000000495884341539237823_"  style="overflow:visible;"/>
	</clipPath>
	
		<path style="clip-path:url(#SVGID_00000142898965682946817560000014190397362894602679_);fill-opacity:0.502;stroke:#000000;stroke-width:0.8862;stroke-linejoin:round;stroke-opacity:0.502;" d="
		M483.8,342.8c1.6,0,3.1-0.6,4.3-1.8c1.1-1.1,1.8-2.7,1.8-4.3c0-1.6-0.6-3.2-1.8-4.3c-1.1-1.1-2.7-1.8-4.3-1.8
		c-1.6,0-3.1,0.6-4.3,1.8c-1.1,1.1-1.8,2.7-1.8,4.3c0,1.6,0.6,3.2,1.8,4.3C480.7,342.1,482.2,342.8,483.8,342.8z"/>
</g>
<g>
	<defs>
		<rect id="SVGID_00000114770395996817480600000016392326120365845921_" x="36" y="9.8" width="469.1" height="352.3"/>
	</defs>
	<clipPath id="SVGID_00000140000254206638173120000004021010923500813243_">
		<use xlink:href="#SVGID_00000114770395996817480600000016392326120365845921_"  style="overflow:visible;"/>
	</clipPath>
	
		<path style="clip-path:url(#SVGID_00000140000254206638173120000004021010923500813243_);fill-opacity:0.502;stroke:#000000;stroke-width:0.8862;stroke-linejoin:round;stroke-opacity:0.502;" d="
		M270.6,90.4c1.6,0,3.1-0.6,4.3-1.8c1.1-1.1,1.8-2.7,1.8-4.3c0-1.6-0.6-3.2-1.8-4.3c-1.1-1.1-2.7-1.8-4.3-1.8
		c-1.6,0-3.1,0.6-4.3,1.8c-1.1,1.1-1.8,2.7-1.8,4.3c0,1.6,0.6,3.2,1.8,4.3C267.4,89.8,269,90.4,270.6,90.4z"/>
</g>
<g>
	<defs>
		<rect id="SVGID_00000065071586775052193450000016492698634485821585_" x="36" y="9.8" width="469.1" height="352.3"/>
	</defs>
	<clipPath id="SVGID_00000035516776347151706290000016796342206972158896_">
		<use xlink:href="#SVGID_00000065071586775052193450000016492698634485821585_"  style="overflow:visible;"/>
	</clipPath>
	
		<path style="clip-path:url(#SVGID_00000035516776347151706290000016796342206972158896_);fill-opacity:0.502;stroke:#000000;stroke-width:0.8862;stroke-linejoin:round;stroke-opacity:0.502;" d="
		M179.2,32c1.6,0,3.1-0.6,4.3-1.8c1.1-1.1,1.8-2.7,1.8-4.3s-0.6-3.2-1.8-4.3c-1.1-1.1-2.7-1.8-4.3-1.8s-3.1,0.6-4.3,1.8
		c-1.1,1.1-1.8,2.7-1.8,4.3s0.6,3.2,1.8,4.3C176,31.3,177.6,32,179.2,32z"/>
</g>
<g>
	<defs>
		<rect id="SVGID_00000039827611057804440570000007253215949915236281_" x="36" y="9.8" width="469.1" height="352.3"/>
	</defs>
	<clipPath id="SVGID_00000132804726248591111060000003704962623578743192_">
		<use xlink:href="#SVGID_00000039827611057804440570000007253215949915236281_"  style="overflow:visible;"/>
	</clipPath>
	
		<path style="clip-path:url(#SVGID_00000132804726248591111060000003704962623578743192_);fill-opacity:0.502;stroke:#000000;stroke-width:0.8862;stroke-linejoin:round;stroke-opacity:0.502;" d="
		M270.6,300.3c1.6,0,3.1-0.6,4.3-1.8c1.1-1.1,1.8-2.7,1.8-4.3s-0.6-3.2-1.8-4.3c-1.1-1.1-2.7-1.8-4.3-1.8c-1.6,0-3.1,0.6-4.3,1.8
		c-1.1,1.1-1.8,2.7-1.8,4.3s0.6,3.2,1.8,4.3C267.4,299.7,269,300.3,270.6,300.3z"/>
</g>
<g>
	<defs>
		<rect id="SVGID_00000052101853018855402570000015275803988859447698_" x="36" y="9.8" width="469.1" height="352.3"/>
	</defs>
	<clipPath id="SVGID_00000040534481878068534190000009269049732597474690_">
		<use xlink:href="#SVGID_00000052101853018855402570000015275803988859447698_"  style="overflow:visible;"/>
	</clipPath>
	
		<path style="clip-path:url(#SVGID_00000040534481878068534190000009269049732597474690_);fill-opacity:0.502;stroke:#000000;stroke-width:0.8862;stroke-linejoin:round;stroke-opacity:0.502;" d="
		M57.3,172.6c1.6,0,3.1-0.6,4.3-1.8c1.1-1.1,1.8-2.7,1.8-4.3c0-1.6-0.6-3.2-1.8-4.3c-1.1-1.1-2.7-1.8-4.3-1.8s-3.1,0.6-4.3,1.8
		s-1.8,2.7-1.8,4.3c0,1.6,0.6,3.2,1.8,4.3C54.2,172,55.7,172.6,57.3,172.6z"/>
</g>
<g>
	<defs>
		<rect id="SVGID_00000160891711163499940310000003007685398999178885_" x="36" y="9.8" width="469.1" height="352.3"/>
	</defs>
	<clipPath id="SVGID_00000076588172122175634520000004467092739462752128_">
		<use xlink:href="#SVGID_00000160891711163499940310000003007685398999178885_"  style="overflow:visible;"/>
	</clipPath>
	
		<path style="clip-path:url(#SVGID_00000076588172122175634520000004467092739462752128_);fill-opacity:0.502;stroke:#000000;stroke-width:0.8862;stroke-linejoin:round;stroke-opacity:0.502;" d="
		M57.3,352.3c1.6,0,3.1-0.6,4.3-1.8c1.1-1.1,1.8-2.7,1.8-4.3c0-1.6-0.6-3.2-1.8-4.3c-1.1-1.1-2.7-1.8-4.3-1.8s-3.1,0.6-4.3,1.8
		c-1.1,1.1-1.8,2.7-1.8,4.3c0,1.6,0.6,3.2,1.8,4.3C54.2,351.6,55.7,352.3,57.3,352.3z"/>
</g>
<g>
	<defs>
		<rect id="SVGID_00000127025299308331209750000013400928129091677086_" x="36" y="9.8" width="469.1" height="352.3"/>
	</defs>
	<clipPath id="SVGID_00000115477782973171777020000006290537849593504687_">
		<use xlink:href="#SVGID_00000127025299308331209750000013400928129091677086_"  style="overflow:visible;"/>
	</clipPath>
	
		<path style="clip-path:url(#SVGID_00000115477782973171777020000006290537849593504687_);fill-opacity:0.502;stroke:#000000;stroke-width:0.8862;stroke-linejoin:round;stroke-opacity:0.502;" d="
		M392.4,140.2c1.6,0,3.1-0.6,4.3-1.8c1.1-1.1,1.8-2.7,1.8-4.3c0-1.6-0.6-3.2-1.8-4.3c-1.1-1.1-2.7-1.8-4.3-1.8
		c-1.6,0-3.1,0.6-4.3,1.8c-1.1,1.1-1.8,2.7-1.8,4.3c0,1.6,0.6,3.2,1.8,4.3C389.3,139.5,390.8,140.2,392.4,140.2z"/>
</g>
<g>
	<defs>
		<rect id="SVGID_00000176756069667751221450000013529322387881732025_" x="36" y="9.8" width="469.1" height="352.3"/>
	</defs>
	<clipPath id="SVGID_00000063633648932364774850000010700708375211949990_">
		<use xlink:href="#SVGID_00000176756069667751221450000013529322387881732025_"  style="overflow:visible;"/>
	</clipPath>
	
		<path style="clip-path:url(#SVGID_00000063633648932364774850000010700708375211949990_);fill-opacity:0.502;stroke:#000000;stroke-width:0.8862;stroke-linejoin:round;stroke-opacity:0.502;" d="
		M240.1,315.5c1.6,0,3.1-0.6,4.3-1.8s1.8-2.7,1.8-4.3s-0.6-3.2-1.8-4.3c-1.1-1.1-2.7-1.8-4.3-1.8s-3.1,0.6-4.3,1.8
		c-1.1,1.1-1.8,2.7-1.8,4.3s0.6,3.2,1.8,4.3C237,314.8,238.5,315.5,240.1,315.5z"/>
</g>
<g>
	<defs>
		<rect id="SVGID_00000142146053091466891750000012892191005187750026_" x="36" y="9.8" width="469.1" height="352.3"/>
	</defs>
	<clipPath id="SVGID_00000088098155216818849510000006876001886278606470_">
		<use xlink:href="#SVGID_00000142146053091466891750000012892191005187750026_"  style="overflow:visible;"/>
	</clipPath>
	
		<path style="clip-path:url(#SVGID_00000088098155216818849510000006876001886278606470_);fill-opacity:0.502;stroke:#000000;stroke-width:0.8862;stroke-linejoin:round;stroke-opacity:0.502;" d="
		M240.1,226.7c1.6,0,3.1-0.6,4.3-1.8s1.8-2.7,1.8-4.3c0-1.6-0.6-3.2-1.8-4.3s-2.7-1.8-4.3-1.8s-3.1,0.6-4.3,1.8
		c-1.1,1.1-1.8,2.7-1.8,4.3c0,1.6,0.6,3.2,1.8,4.3C237,226.1,238.5,226.7,240.1,226.7z"/>
</g>
<g>
	<defs>
		<rect id="SVGID_00000112593117029901312250000015695664688809601156_" x="36" y="9.8" width="469.1" height="352.3"/>
	</defs>
	<clipPath id="SVGID_00000023968368447652683920000005163486929445827490_">
		<use xlink:href="#SVGID_00000112593117029901312250000015695664688809601156_"  style="overflow:visible;"/>
	</clipPath>
	
		<path style="clip-path:url(#SVGID_00000023968368447652683920000005163486929445827490_);fill-opacity:0.502;stroke:#000000;stroke-width:0.8862;stroke-linejoin:round;stroke-opacity:0.502;" d="
		M240.1,311.1c1.6,0,3.1-0.6,4.3-1.8s1.8-2.7,1.8-4.3s-0.6-3.2-1.8-4.3c-1.1-1.1-2.7-1.8-4.3-1.8s-3.1,0.6-4.3,1.8
		c-1.1,1.1-1.8,2.7-1.8,4.3s0.6,3.2,1.8,4.3C237,310.5,238.5,311.1,240.1,311.1z"/>
</g>
<g>
	<defs>
		<rect id="SVGID_00000038413292908675409850000014863578772566397576_" x="36" y="9.8" width="469.1" height="352.3"/>
	</defs>
	<clipPath id="SVGID_00000009560425729610571920000016086525897612673196_">
		<use xlink:href="#SVGID_00000038413292908675409850000014863578772566397576_"  style="overflow:visible;"/>
	</clipPath>
	
		<path style="clip-path:url(#SVGID_00000009560425729610571920000016086525897612673196_);fill-opacity:0.502;stroke:#000000;stroke-width:0.8862;stroke-linejoin:round;stroke-opacity:0.502;" d="
		M301,315.5c1.6,0,3.1-0.6,4.3-1.8c1.1-1.1,1.8-2.7,1.8-4.3s-0.6-3.2-1.8-4.3c-1.1-1.1-2.7-1.8-4.3-1.8c-1.6,0-3.1,0.6-4.3,1.8
		c-1.1,1.1-1.8,2.7-1.8,4.3s0.6,3.2,1.8,4.3S299.4,315.5,301,315.5z"/>
</g>
<g>
	<defs>
		<rect id="SVGID_00000178201309292697494160000012960194466559264433_" x="36" y="9.8" width="469.1" height="352.3"/>
	</defs>
	<clipPath id="SVGID_00000095335575558706078350000015629359027685711540_">
		<use xlink:href="#SVGID_00000178201309292697494160000012960194466559264433_"  style="overflow:visible;"/>
	</clipPath>
	
		<path style="clip-path:url(#SVGID_00000095335575558706078350000015629359027685711540_);fill-opacity:0.502;stroke:#000000;stroke-width:0.8862;stroke-linejoin:round;stroke-opacity:0.502;" d="
		M179.2,311.1c1.6,0,3.1-0.6,4.3-1.8c1.1-1.1,1.8-2.7,1.8-4.3s-0.6-3.2-1.8-4.3c-1.1-1.1-2.7-1.8-4.3-1.8s-3.1,0.6-4.3,1.8
		c-1.1,1.1-1.8,2.7-1.8,4.3s0.6,3.2,1.8,4.3C176,310.5,177.6,311.1,179.2,311.1z"/>
</g>
<g>
	<defs>
		<rect id="SVGID_00000038374771027570615100000005722638777233481873_" x="36" y="9.8" width="469.1" height="352.3"/>
	</defs>
	<clipPath id="SVGID_00000070807957288716958140000006186528153907996553_">
		<use xlink:href="#SVGID_00000038374771027570615100000005722638777233481873_"  style="overflow:visible;"/>
	</clipPath>
	
		<path style="clip-path:url(#SVGID_00000070807957288716958140000006186528153907996553_);fill-opacity:0.502;stroke:#000000;stroke-width:0.8862;stroke-linejoin:round;stroke-opacity:0.502;" d="
		M57.3,315.5c1.6,0,3.1-0.6,4.3-1.8c1.1-1.1,1.8-2.7,1.8-4.3s-0.6-3.2-1.8-4.3c-1.1-1.1-2.7-1.8-4.3-1.8s-3.1,0.6-4.3,1.8
		c-1.1,1.1-1.8,2.7-1.8,4.3s0.6,3.2,1.8,4.3S55.7,315.5,57.3,315.5z"/>
</g>
<rect x="237" y="378.2" class="st16" width="113.4" height="17.3"/>
<text transform="matrix(1 0 0 1 237.0355 386.7425)" class="st17 st18">Tenure in years</text>
<rect x="112.3" y="363.5" class="st16" width="12.4" height="8.8"/>
<text transform="matrix(1 0 0 1 112.2621 370.6301)" class="st19 st20">16</text>
<rect x="233.8" y="362.9" class="st16" width="12.4" height="8.8"/>
<text transform="matrix(1 0 0 1 233.7655 370.1035)" class="st19 st20">20</text>
<rect x="356.9" y="362.8" class="st16" width="12.4" height="8.8"/>
<text transform="matrix(1 0 0 1 356.9028 369.9658)" class="st19 st20">24</text>
<rect x="479" y="362.5" class="st16" width="12.4" height="8.8"/>
<text transform="matrix(1 0 0 1 479.0255 369.7079)" class="st19 st20">28</text>
<rect x="22.7" y="277.2" class="st16" width="12.4" height="8.8"/>
<text transform="matrix(1 0 0 1 29.5984 284.3486)" class="st19 st20">4</text>
<rect x="22.1" y="176.8" class="st16" width="12.4" height="8.8"/>
<text transform="matrix(1 0 0 1 28.9973 183.9496)" class="st19 st20">6</text>
<rect x="22.1" y="78.9" class="st16" width="12.4" height="8.8"/>
<text transform="matrix(1 0 0 1 28.9973 86.0236)" class="st19 st20">8</text>
</svg>
