<?xml version="1.0" encoding="utf-8" standalone="no"?>
<!DOCTYPE svg PUBLIC "-//W3C//DTD SVG 1.1//EN"
  "http://www.w3.org/Graphics/SVG/1.1/DTD/svg11.dtd">
<svg height="327.930058pt" version="1.1" viewBox="0 0 572.421 327.930058" width="572.421pt" xmlns="http://www.w3.org/2000/svg" xmlns:xlink="http://www.w3.org/1999/xlink">
 <metadata>
  <rdf:RDF xmlns:cc="http://creativecommons.org/ns#" xmlns:dc="http://purl.org/dc/elements/1.1/" xmlns:rdf="http://www.w3.org/1999/02/22-rdf-syntax-ns#">
   <cc:Work>
    <dc:type rdf:resource="http://purl.org/dc/dcmitype/StillImage"/>
    <dc:date>2022-04-17T23:38:48.608500</dc:date>
    <dc:format>image/svg+xml</dc:format>
    <dc:creator>
     <cc:Agent>
      <dc:title>Matplotlib v3.4.3, https://matplotlib.org/</dc:title>
     </cc:Agent>
    </dc:creator>
   </cc:Work>
  </rdf:RDF>
 </metadata>
 <defs>
  <style type="text/css">*{stroke-linecap:butt;stroke-linejoin:round;}</style>
 </defs>
 <g id="figure_1">
  <g id="patch_1">
   <path d="M 0 327.930058 
L 572.421 327.930058 
L 572.421 0 
L 0 0 
z
" style="fill:#ffffff;stroke:#ffffff;stroke-linejoin:miter;"/>
  </g>
  <g id="axes_1">
   <g id="patch_2">
    <path d="M 49.591938 292.217371 
L 406.711938 292.217371 
L 406.711938 26.105371 
L 49.591938 26.105371 
z
" style="fill:#ffffff;stroke:#7f7f7f;stroke-linejoin:miter;"/>
   </g>
   <g id="matplotlib.axis_1">
    <g id="xtick_1">
     <g id="line2d_1">
      <path clip-path="url(#p494dbb6723)" d="M 65.824665 292.217371 
L 65.824665 26.105371 
" style="fill:none;stroke:#e5e5e5;stroke-width:0.8;"/>
     </g>
     <g id="line2d_2">
      <path d="M 65.824665 292.217371 
" style="fill:none;stroke:#333333;stroke-width:1.5;"/>
      <defs>
       <path d="M 0 0 
L 0 2.75 
" id="m8e93b8c9b1" style="stroke:#000000;"/>
      </defs>
      <g>
       <use style="fill:#333333;stroke:#000000;" x="65.824665" xlink:href="#m8e93b8c9b1" y="292.217371"/>
      </g>
     </g>
     <g id="text_1">
      <!-- 2017 -->
      <g style="fill:#4d4d4d;" transform="translate(54.626665 303.853996)scale(0.088 -0.088)">
       <defs>
        <path d="M 1228 531 
L 3431 531 
L 3431 0 
L 469 0 
L 469 531 
Q 828 903 1448 1529 
Q 2069 2156 2228 2338 
Q 2531 2678 2651 2914 
Q 2772 3150 2772 3378 
Q 2772 3750 2511 3984 
Q 2250 4219 1831 4219 
Q 1534 4219 1204 4116 
Q 875 4013 500 3803 
L 500 4441 
Q 881 4594 1212 4672 
Q 1544 4750 1819 4750 
Q 2544 4750 2975 4387 
Q 3406 4025 3406 3419 
Q 3406 3131 3298 2873 
Q 3191 2616 2906 2266 
Q 2828 2175 2409 1742 
Q 1991 1309 1228 531 
z
" id="DejaVuSans-32" transform="scale(0.015625)"/>
        <path d="M 2034 4250 
Q 1547 4250 1301 3770 
Q 1056 3291 1056 2328 
Q 1056 1369 1301 889 
Q 1547 409 2034 409 
Q 2525 409 2770 889 
Q 3016 1369 3016 2328 
Q 3016 3291 2770 3770 
Q 2525 4250 2034 4250 
z
M 2034 4750 
Q 2819 4750 3233 4129 
Q 3647 3509 3647 2328 
Q 3647 1150 3233 529 
Q 2819 -91 2034 -91 
Q 1250 -91 836 529 
Q 422 1150 422 2328 
Q 422 3509 836 4129 
Q 1250 4750 2034 4750 
z
" id="DejaVuSans-30" transform="scale(0.015625)"/>
        <path d="M 794 531 
L 1825 531 
L 1825 4091 
L 703 3866 
L 703 4441 
L 1819 4666 
L 2450 4666 
L 2450 531 
L 3481 531 
L 3481 0 
L 794 0 
L 794 531 
z
" id="DejaVuSans-31" transform="scale(0.015625)"/>
        <path d="M 525 4666 
L 3525 4666 
L 3525 4397 
L 1831 0 
L 1172 0 
L 2766 4134 
L 525 4134 
L 525 4666 
z
" id="DejaVuSans-37" transform="scale(0.015625)"/>
       </defs>
       <use xlink:href="#DejaVuSans-32"/>
       <use x="63.623047" xlink:href="#DejaVuSans-30"/>
       <use x="127.246094" xlink:href="#DejaVuSans-31"/>
       <use x="190.869141" xlink:href="#DejaVuSans-37"/>
      </g>
     </g>
    </g>
    <g id="xtick_2">
     <g id="line2d_3">
      <path clip-path="url(#p494dbb6723)" d="M 146.988301 292.217371 
L 146.988301 26.105371 
" style="fill:none;stroke:#e5e5e5;stroke-width:0.8;"/>
     </g>
     <g id="line2d_4">
      <path d="M 146.988301 292.217371 
" style="fill:none;stroke:#333333;stroke-width:1.5;"/>
      <g>
       <use style="fill:#333333;stroke:#000000;" x="146.988301" xlink:href="#m8e93b8c9b1" y="292.217371"/>
      </g>
     </g>
     <g id="text_2">
      <!-- 2018 -->
      <g style="fill:#4d4d4d;" transform="translate(135.790301 303.853996)scale(0.088 -0.088)">
       <defs>
        <path d="M 2034 2216 
Q 1584 2216 1326 1975 
Q 1069 1734 1069 1313 
Q 1069 891 1326 650 
Q 1584 409 2034 409 
Q 2484 409 2743 651 
Q 3003 894 3003 1313 
Q 3003 1734 2745 1975 
Q 2488 2216 2034 2216 
z
M 1403 2484 
Q 997 2584 770 2862 
Q 544 3141 544 3541 
Q 544 4100 942 4425 
Q 1341 4750 2034 4750 
Q 2731 4750 3128 4425 
Q 3525 4100 3525 3541 
Q 3525 3141 3298 2862 
Q 3072 2584 2669 2484 
Q 3125 2378 3379 2068 
Q 3634 1759 3634 1313 
Q 3634 634 3220 271 
Q 2806 -91 2034 -91 
Q 1263 -91 848 271 
Q 434 634 434 1313 
Q 434 1759 690 2068 
Q 947 2378 1403 2484 
z
M 1172 3481 
Q 1172 3119 1398 2916 
Q 1625 2713 2034 2713 
Q 2441 2713 2670 2916 
Q 2900 3119 2900 3481 
Q 2900 3844 2670 4047 
Q 2441 4250 2034 4250 
Q 1625 4250 1398 4047 
Q 1172 3844 1172 3481 
z
" id="DejaVuSans-38" transform="scale(0.015625)"/>
       </defs>
       <use xlink:href="#DejaVuSans-32"/>
       <use x="63.623047" xlink:href="#DejaVuSans-30"/>
       <use x="127.246094" xlink:href="#DejaVuSans-31"/>
       <use x="190.869141" xlink:href="#DejaVuSans-38"/>
      </g>
     </g>
    </g>
    <g id="xtick_3">
     <g id="line2d_5">
      <path clip-path="url(#p494dbb6723)" d="M 228.151937 292.217371 
L 228.151937 26.105371 
" style="fill:none;stroke:#e5e5e5;stroke-width:0.8;"/>
     </g>
     <g id="line2d_6">
      <path d="M 228.151937 292.217371 
" style="fill:none;stroke:#333333;stroke-width:1.5;"/>
      <g>
       <use style="fill:#333333;stroke:#000000;" x="228.151937" xlink:href="#m8e93b8c9b1" y="292.217371"/>
      </g>
     </g>
     <g id="text_3">
      <!-- 2019 -->
      <g style="fill:#4d4d4d;" transform="translate(216.953937 303.853996)scale(0.088 -0.088)">
       <defs>
        <path d="M 703 97 
L 703 672 
Q 941 559 1184 500 
Q 1428 441 1663 441 
Q 2288 441 2617 861 
Q 2947 1281 2994 2138 
Q 2813 1869 2534 1725 
Q 2256 1581 1919 1581 
Q 1219 1581 811 2004 
Q 403 2428 403 3163 
Q 403 3881 828 4315 
Q 1253 4750 1959 4750 
Q 2769 4750 3195 4129 
Q 3622 3509 3622 2328 
Q 3622 1225 3098 567 
Q 2575 -91 1691 -91 
Q 1453 -91 1209 -44 
Q 966 3 703 97 
z
M 1959 2075 
Q 2384 2075 2632 2365 
Q 2881 2656 2881 3163 
Q 2881 3666 2632 3958 
Q 2384 4250 1959 4250 
Q 1534 4250 1286 3958 
Q 1038 3666 1038 3163 
Q 1038 2656 1286 2365 
Q 1534 2075 1959 2075 
z
" id="DejaVuSans-39" transform="scale(0.015625)"/>
       </defs>
       <use xlink:href="#DejaVuSans-32"/>
       <use x="63.623047" xlink:href="#DejaVuSans-30"/>
       <use x="127.246094" xlink:href="#DejaVuSans-31"/>
       <use x="190.869141" xlink:href="#DejaVuSans-39"/>
      </g>
     </g>
    </g>
    <g id="xtick_4">
     <g id="line2d_7">
      <path clip-path="url(#p494dbb6723)" d="M 309.315574 292.217371 
L 309.315574 26.105371 
" style="fill:none;stroke:#e5e5e5;stroke-width:0.8;"/>
     </g>
     <g id="line2d_8">
      <path d="M 309.315574 292.217371 
" style="fill:none;stroke:#333333;stroke-width:1.5;"/>
      <g>
       <use style="fill:#333333;stroke:#000000;" x="309.315574" xlink:href="#m8e93b8c9b1" y="292.217371"/>
      </g>
     </g>
     <g id="text_4">
      <!-- 2020 -->
      <g style="fill:#4d4d4d;" transform="translate(298.117574 303.853996)scale(0.088 -0.088)">
       <use xlink:href="#DejaVuSans-32"/>
       <use x="63.623047" xlink:href="#DejaVuSans-30"/>
       <use x="127.246094" xlink:href="#DejaVuSans-32"/>
       <use x="190.869141" xlink:href="#DejaVuSans-30"/>
      </g>
     </g>
    </g>
    <g id="xtick_5">
     <g id="line2d_9">
      <path clip-path="url(#p494dbb6723)" d="M 390.47921 292.217371 
L 390.47921 26.105371 
" style="fill:none;stroke:#e5e5e5;stroke-width:0.8;"/>
     </g>
     <g id="line2d_10">
      <path d="M 390.47921 292.217371 
" style="fill:none;stroke:#333333;stroke-width:1.5;"/>
      <g>
       <use style="fill:#333333;stroke:#000000;" x="390.47921" xlink:href="#m8e93b8c9b1" y="292.217371"/>
      </g>
     </g>
     <g id="text_5">
      <!-- 2021 -->
      <g style="fill:#4d4d4d;" transform="translate(379.28121 303.853996)scale(0.088 -0.088)">
       <use xlink:href="#DejaVuSans-32"/>
       <use x="63.623047" xlink:href="#DejaVuSans-30"/>
       <use x="127.246094" xlink:href="#DejaVuSans-32"/>
       <use x="190.869141" xlink:href="#DejaVuSans-31"/>
      </g>
     </g>
    </g>
    <g id="xtick_6">
     <g id="line2d_11">
      <path clip-path="url(#p494dbb6723)" d="M 106.406483 292.217371 
L 106.406483 26.105371 
" style="fill:none;stroke:#fafafa;"/>
     </g>
    </g>
    <g id="xtick_7">
     <g id="line2d_12">
      <path clip-path="url(#p494dbb6723)" d="M 187.570119 292.217371 
L 187.570119 26.105371 
" style="fill:none;stroke:#fafafa;"/>
     </g>
    </g>
    <g id="xtick_8">
     <g id="line2d_13">
      <path clip-path="url(#p494dbb6723)" d="M 268.733756 292.217371 
L 268.733756 26.105371 
" style="fill:none;stroke:#fafafa;"/>
     </g>
    </g>
    <g id="xtick_9">
     <g id="line2d_14">
      <path clip-path="url(#p494dbb6723)" d="M 349.897392 292.217371 
L 349.897392 26.105371 
" style="fill:none;stroke:#fafafa;"/>
     </g>
    </g>
    <g id="text_6">
     <!-- Year -->
     <g transform="translate(210.745688 318.442402)scale(0.11 -0.11)">
      <defs>
       <path d="M -13 4666 
L 666 4666 
L 1959 2747 
L 3244 4666 
L 3922 4666 
L 2272 2222 
L 2272 0 
L 1638 0 
L 1638 2222 
L -13 4666 
z
" id="DejaVuSans-59" transform="scale(0.015625)"/>
       <path d="M 3597 1894 
L 3597 1613 
L 953 1613 
Q 991 1019 1311 708 
Q 1631 397 2203 397 
Q 2534 397 2845 478 
Q 3156 559 3463 722 
L 3463 178 
Q 3153 47 2828 -22 
Q 2503 -91 2169 -91 
Q 1331 -91 842 396 
Q 353 884 353 1716 
Q 353 2575 817 3079 
Q 1281 3584 2069 3584 
Q 2775 3584 3186 3129 
Q 3597 2675 3597 1894 
z
M 3022 2063 
Q 3016 2534 2758 2815 
Q 2500 3097 2075 3097 
Q 1594 3097 1305 2825 
Q 1016 2553 972 2059 
L 3022 2063 
z
" id="DejaVuSans-65" transform="scale(0.015625)"/>
       <path d="M 2194 1759 
Q 1497 1759 1228 1600 
Q 959 1441 959 1056 
Q 959 750 1161 570 
Q 1363 391 1709 391 
Q 2188 391 2477 730 
Q 2766 1069 2766 1631 
L 2766 1759 
L 2194 1759 
z
M 3341 1997 
L 3341 0 
L 2766 0 
L 2766 531 
Q 2569 213 2275 61 
Q 1981 -91 1556 -91 
Q 1019 -91 701 211 
Q 384 513 384 1019 
Q 384 1609 779 1909 
Q 1175 2209 1959 2209 
L 2766 2209 
L 2766 2266 
Q 2766 2663 2505 2880 
Q 2244 3097 1772 3097 
Q 1472 3097 1187 3025 
Q 903 2953 641 2809 
L 641 3341 
Q 956 3463 1253 3523 
Q 1550 3584 1831 3584 
Q 2591 3584 2966 3190 
Q 3341 2797 3341 1997 
z
" id="DejaVuSans-61" transform="scale(0.015625)"/>
       <path d="M 2631 2963 
Q 2534 3019 2420 3045 
Q 2306 3072 2169 3072 
Q 1681 3072 1420 2755 
Q 1159 2438 1159 1844 
L 1159 0 
L 581 0 
L 581 3500 
L 1159 3500 
L 1159 2956 
Q 1341 3275 1631 3429 
Q 1922 3584 2338 3584 
Q 2397 3584 2469 3576 
Q 2541 3569 2628 3553 
L 2631 2963 
z
" id="DejaVuSans-72" transform="scale(0.015625)"/>
      </defs>
      <use xlink:href="#DejaVuSans-59"/>
      <use x="47.833984" xlink:href="#DejaVuSans-65"/>
      <use x="109.357422" xlink:href="#DejaVuSans-61"/>
      <use x="170.636719" xlink:href="#DejaVuSans-72"/>
     </g>
    </g>
   </g>
   <g id="matplotlib.axis_2">
    <g id="ytick_1">
     <g id="line2d_15">
      <path clip-path="url(#p494dbb6723)" d="M 49.591938 221.481533 
L 406.711938 221.481533 
" style="fill:none;stroke:#e5e5e5;stroke-width:0.8;"/>
     </g>
     <g id="line2d_16">
      <path d="M 49.591938 221.481533 
" style="fill:none;stroke:#333333;stroke-width:1.5;"/>
      <defs>
       <path d="M 0 0 
L -2.75 0 
" id="m6b1b69aa3b" style="stroke:#000000;"/>
      </defs>
      <g>
       <use style="fill:#333333;stroke:#000000;" x="49.591938" xlink:href="#m6b1b69aa3b" y="221.481533"/>
      </g>
     </g>
     <g id="text_7">
      <!-- 2400 -->
      <g style="fill:#4d4d4d;" transform="translate(22.245938 223.909783)scale(0.088 -0.088)">
       <defs>
        <path d="M 2419 4116 
L 825 1625 
L 2419 1625 
L 2419 4116 
z
M 2253 4666 
L 3047 4666 
L 3047 1625 
L 3713 1625 
L 3713 1100 
L 3047 1100 
L 3047 0 
L 2419 0 
L 2419 1100 
L 313 1100 
L 313 1709 
L 2253 4666 
z
" id="DejaVuSans-34" transform="scale(0.015625)"/>
       </defs>
       <use xlink:href="#DejaVuSans-32"/>
       <use x="63.623047" xlink:href="#DejaVuSans-34"/>
       <use x="127.246094" xlink:href="#DejaVuSans-30"/>
       <use x="190.869141" xlink:href="#DejaVuSans-30"/>
      </g>
     </g>
    </g>
    <g id="ytick_2">
     <g id="line2d_17">
      <path clip-path="url(#p494dbb6723)" d="M 49.591938 147.875042 
L 406.711938 147.875042 
" style="fill:none;stroke:#e5e5e5;stroke-width:0.8;"/>
     </g>
     <g id="line2d_18">
      <path d="M 49.591938 147.875042 
" style="fill:none;stroke:#333333;stroke-width:1.5;"/>
      <g>
       <use style="fill:#333333;stroke:#000000;" x="49.591938" xlink:href="#m6b1b69aa3b" y="147.875042"/>
      </g>
     </g>
     <g id="text_8">
      <!-- 2700 -->
      <g style="fill:#4d4d4d;" transform="translate(22.245938 150.303292)scale(0.088 -0.088)">
       <use xlink:href="#DejaVuSans-32"/>
       <use x="63.623047" xlink:href="#DejaVuSans-37"/>
       <use x="127.246094" xlink:href="#DejaVuSans-30"/>
       <use x="190.869141" xlink:href="#DejaVuSans-30"/>
      </g>
     </g>
    </g>
    <g id="ytick_3">
     <g id="line2d_19">
      <path clip-path="url(#p494dbb6723)" d="M 49.591938 74.268551 
L 406.711938 74.268551 
" style="fill:none;stroke:#e5e5e5;stroke-width:0.8;"/>
     </g>
     <g id="line2d_20">
      <path d="M 49.591938 74.268551 
" style="fill:none;stroke:#333333;stroke-width:1.5;"/>
      <g>
       <use style="fill:#333333;stroke:#000000;" x="49.591938" xlink:href="#m6b1b69aa3b" y="74.268551"/>
      </g>
     </g>
     <g id="text_9">
      <!-- 3000 -->
      <g style="fill:#4d4d4d;" transform="translate(22.245938 76.696801)scale(0.088 -0.088)">
       <defs>
        <path d="M 2597 2516 
Q 3050 2419 3304 2112 
Q 3559 1806 3559 1356 
Q 3559 666 3084 287 
Q 2609 -91 1734 -91 
Q 1441 -91 1130 -33 
Q 819 25 488 141 
L 488 750 
Q 750 597 1062 519 
Q 1375 441 1716 441 
Q 2309 441 2620 675 
Q 2931 909 2931 1356 
Q 2931 1769 2642 2001 
Q 2353 2234 1838 2234 
L 1294 2234 
L 1294 2753 
L 1863 2753 
Q 2328 2753 2575 2939 
Q 2822 3125 2822 3475 
Q 2822 3834 2567 4026 
Q 2313 4219 1838 4219 
Q 1578 4219 1281 4162 
Q 984 4106 628 3988 
L 628 4550 
Q 988 4650 1302 4700 
Q 1616 4750 1894 4750 
Q 2613 4750 3031 4423 
Q 3450 4097 3450 3541 
Q 3450 3153 3228 2886 
Q 3006 2619 2597 2516 
z
" id="DejaVuSans-33" transform="scale(0.015625)"/>
       </defs>
       <use xlink:href="#DejaVuSans-33"/>
       <use x="63.623047" xlink:href="#DejaVuSans-30"/>
       <use x="127.246094" xlink:href="#DejaVuSans-30"/>
       <use x="190.869141" xlink:href="#DejaVuSans-30"/>
      </g>
     </g>
    </g>
    <g id="ytick_4">
     <g id="line2d_21">
      <path clip-path="url(#p494dbb6723)" d="M 49.591938 258.284778 
L 406.711938 258.284778 
" style="fill:none;stroke:#fafafa;"/>
     </g>
    </g>
    <g id="ytick_5">
     <g id="line2d_22">
      <path clip-path="url(#p494dbb6723)" d="M 49.591938 184.678288 
L 406.711938 184.678288 
" style="fill:none;stroke:#fafafa;"/>
     </g>
    </g>
    <g id="ytick_6">
     <g id="line2d_23">
      <path clip-path="url(#p494dbb6723)" d="M 49.591938 111.071797 
L 406.711938 111.071797 
" style="fill:none;stroke:#fafafa;"/>
     </g>
    </g>
    <g id="ytick_7">
     <g id="line2d_24">
      <path clip-path="url(#p494dbb6723)" d="M 49.591938 37.465306 
L 406.711938 37.465306 
" style="fill:none;stroke:#fafafa;"/>
     </g>
    </g>
    <g id="text_10">
     <!-- Overtime paid -->
     <g transform="translate(15.558281 196.718839)rotate(-90)scale(0.11 -0.11)">
      <defs>
       <path d="M 2522 4238 
Q 1834 4238 1429 3725 
Q 1025 3213 1025 2328 
Q 1025 1447 1429 934 
Q 1834 422 2522 422 
Q 3209 422 3611 934 
Q 4013 1447 4013 2328 
Q 4013 3213 3611 3725 
Q 3209 4238 2522 4238 
z
M 2522 4750 
Q 3503 4750 4090 4092 
Q 4678 3434 4678 2328 
Q 4678 1225 4090 567 
Q 3503 -91 2522 -91 
Q 1538 -91 948 565 
Q 359 1222 359 2328 
Q 359 3434 948 4092 
Q 1538 4750 2522 4750 
z
" id="DejaVuSans-4f" transform="scale(0.015625)"/>
       <path d="M 191 3500 
L 800 3500 
L 1894 563 
L 2988 3500 
L 3597 3500 
L 2284 0 
L 1503 0 
L 191 3500 
z
" id="DejaVuSans-76" transform="scale(0.015625)"/>
       <path d="M 1172 4494 
L 1172 3500 
L 2356 3500 
L 2356 3053 
L 1172 3053 
L 1172 1153 
Q 1172 725 1289 603 
Q 1406 481 1766 481 
L 2356 481 
L 2356 0 
L 1766 0 
Q 1100 0 847 248 
Q 594 497 594 1153 
L 594 3053 
L 172 3053 
L 172 3500 
L 594 3500 
L 594 4494 
L 1172 4494 
z
" id="DejaVuSans-74" transform="scale(0.015625)"/>
       <path d="M 603 3500 
L 1178 3500 
L 1178 0 
L 603 0 
L 603 3500 
z
M 603 4863 
L 1178 4863 
L 1178 4134 
L 603 4134 
L 603 4863 
z
" id="DejaVuSans-69" transform="scale(0.015625)"/>
       <path d="M 3328 2828 
Q 3544 3216 3844 3400 
Q 4144 3584 4550 3584 
Q 5097 3584 5394 3201 
Q 5691 2819 5691 2113 
L 5691 0 
L 5113 0 
L 5113 2094 
Q 5113 2597 4934 2840 
Q 4756 3084 4391 3084 
Q 3944 3084 3684 2787 
Q 3425 2491 3425 1978 
L 3425 0 
L 2847 0 
L 2847 2094 
Q 2847 2600 2669 2842 
Q 2491 3084 2119 3084 
Q 1678 3084 1418 2786 
Q 1159 2488 1159 1978 
L 1159 0 
L 581 0 
L 581 3500 
L 1159 3500 
L 1159 2956 
Q 1356 3278 1631 3431 
Q 1906 3584 2284 3584 
Q 2666 3584 2933 3390 
Q 3200 3197 3328 2828 
z
" id="DejaVuSans-6d" transform="scale(0.015625)"/>
       <path id="DejaVuSans-20" transform="scale(0.015625)"/>
       <path d="M 1159 525 
L 1159 -1331 
L 581 -1331 
L 581 3500 
L 1159 3500 
L 1159 2969 
Q 1341 3281 1617 3432 
Q 1894 3584 2278 3584 
Q 2916 3584 3314 3078 
Q 3713 2572 3713 1747 
Q 3713 922 3314 415 
Q 2916 -91 2278 -91 
Q 1894 -91 1617 61 
Q 1341 213 1159 525 
z
M 3116 1747 
Q 3116 2381 2855 2742 
Q 2594 3103 2138 3103 
Q 1681 3103 1420 2742 
Q 1159 2381 1159 1747 
Q 1159 1113 1420 752 
Q 1681 391 2138 391 
Q 2594 391 2855 752 
Q 3116 1113 3116 1747 
z
" id="DejaVuSans-70" transform="scale(0.015625)"/>
       <path d="M 2906 2969 
L 2906 4863 
L 3481 4863 
L 3481 0 
L 2906 0 
L 2906 525 
Q 2725 213 2448 61 
Q 2172 -91 1784 -91 
Q 1150 -91 751 415 
Q 353 922 353 1747 
Q 353 2572 751 3078 
Q 1150 3584 1784 3584 
Q 2172 3584 2448 3432 
Q 2725 3281 2906 2969 
z
M 947 1747 
Q 947 1113 1208 752 
Q 1469 391 1925 391 
Q 2381 391 2643 752 
Q 2906 1113 2906 1747 
Q 2906 2381 2643 2742 
Q 2381 3103 1925 3103 
Q 1469 3103 1208 2742 
Q 947 2381 947 1747 
z
" id="DejaVuSans-64" transform="scale(0.015625)"/>
      </defs>
      <use xlink:href="#DejaVuSans-4f"/>
      <use x="78.710938" xlink:href="#DejaVuSans-76"/>
      <use x="137.890625" xlink:href="#DejaVuSans-65"/>
      <use x="199.414062" xlink:href="#DejaVuSans-72"/>
      <use x="240.527344" xlink:href="#DejaVuSans-74"/>
      <use x="279.736328" xlink:href="#DejaVuSans-69"/>
      <use x="307.519531" xlink:href="#DejaVuSans-6d"/>
      <use x="404.931641" xlink:href="#DejaVuSans-65"/>
      <use x="466.455078" xlink:href="#DejaVuSans-20"/>
      <use x="498.242188" xlink:href="#DejaVuSans-70"/>
      <use x="561.71875" xlink:href="#DejaVuSans-61"/>
      <use x="622.998047" xlink:href="#DejaVuSans-69"/>
      <use x="650.78125" xlink:href="#DejaVuSans-64"/>
     </g>
    </g>
   </g>
   <g id="PathCollection_1">
    <path clip-path="url(#p494dbb6723)" d="M 309.315574 43.961846 
C 310.84327 43.961846 312.308601 43.354886 313.388845 42.274642 
C 314.469089 41.194398 315.076049 39.729067 315.076049 38.201371 
C 315.076049 36.673675 314.469089 35.208344 313.388845 34.1281 
C 312.308601 33.047856 310.84327 32.440896 309.315574 32.440896 
C 307.787878 32.440896 306.322547 33.047856 305.242303 34.1281 
C 304.162059 35.208344 303.555099 36.673675 303.555099 38.201371 
C 303.555099 39.729067 304.162059 41.194398 305.242303 42.274642 
C 306.322547 43.354886 307.787878 43.961846 309.315574 43.961846 
z
" style="fill:#a157db;stroke:#a157db;stroke-width:0.886227;"/>
    <path clip-path="url(#p494dbb6723)" d="M 390.47921 126.769148 
C 392.006906 126.769148 393.472237 126.162188 394.552481 125.081944 
C 395.632725 124.0017 396.239685 122.536369 396.239685 121.008673 
C 396.239685 119.480977 395.632725 118.015646 394.552481 116.935402 
C 393.472237 115.855158 392.006906 115.248198 390.47921 115.248198 
C 388.951514 115.248198 387.486183 115.855158 386.405939 116.935402 
C 385.325695 118.015646 384.718735 119.480977 384.718735 121.008673 
C 384.718735 122.536369 385.325695 124.0017 386.405939 125.081944 
C 387.486183 126.162188 388.951514 126.769148 390.47921 126.769148 
z
" style="fill:#a157db;stroke:#a157db;stroke-width:0.886227;"/>
    <path clip-path="url(#p494dbb6723)" d="M 65.824665 144.63835 
C 67.352361 144.63835 68.817692 144.03139 69.897936 142.951146 
C 70.97818 141.870902 71.58514 140.405571 71.58514 138.877875 
C 71.58514 137.35018 70.97818 135.884849 69.897936 134.804604 
C 68.817692 133.72436 67.352361 133.1174 65.824665 133.1174 
C 64.296969 133.1174 62.831638 133.72436 61.751394 134.804604 
C 60.67115 135.884849 60.06419 137.35018 60.06419 138.877875 
C 60.06419 140.405571 60.67115 141.870902 61.751394 142.951146 
C 62.831638 144.03139 64.296969 144.63835 65.824665 144.63835 
z
" style="fill:#57d3db;stroke:#57d3db;stroke-width:0.886227;"/>
    <path clip-path="url(#p494dbb6723)" d="M 390.47921 148.789756 
C 392.006906 148.789756 393.472237 148.182796 394.552481 147.102552 
C 395.632725 146.022308 396.239685 144.556977 396.239685 143.029281 
C 396.239685 141.501586 395.632725 140.036255 394.552481 138.956011 
C 393.472237 137.875766 392.006906 137.268806 390.47921 137.268806 
C 388.951514 137.268806 387.486183 137.875766 386.405939 138.956011 
C 385.325695 140.036255 384.718735 141.501586 384.718735 143.029281 
C 384.718735 144.556977 385.325695 146.022308 386.405939 147.102552 
C 387.486183 148.182796 388.951514 148.789756 390.47921 148.789756 
z
" style="fill:#a157db;stroke:#a157db;stroke-width:0.886227;"/>
    <path clip-path="url(#p494dbb6723)" d="M 390.47921 149.484111 
C 392.006906 149.484111 393.472237 148.877151 394.552481 147.796907 
C 395.632725 146.716663 396.239685 145.251332 396.239685 143.723636 
C 396.239685 142.19594 395.632725 140.730609 394.552481 139.650365 
C 393.472237 138.570121 392.006906 137.963161 390.47921 137.963161 
C 388.951514 137.963161 387.486183 138.570121 386.405939 139.650365 
C 385.325695 140.730609 384.718735 142.19594 384.718735 143.723636 
C 384.718735 145.251332 385.325695 146.716663 386.405939 147.796907 
C 387.486183 148.877151 388.951514 149.484111 390.47921 149.484111 
z
" style="fill:#57d3db;stroke:#57d3db;stroke-width:0.886227;"/>
    <path clip-path="url(#p494dbb6723)" d="M 390.47921 179.091095 
C 392.006906 179.091095 393.472237 178.484135 394.552481 177.403891 
C 395.632725 176.323647 396.239685 174.858316 396.239685 173.33062 
C 396.239685 171.802924 395.632725 170.337593 394.552481 169.257349 
C 393.472237 168.177105 392.006906 167.570145 390.47921 167.570145 
C 388.951514 167.570145 387.486183 168.177105 386.405939 169.257349 
C 385.325695 170.337593 384.718735 171.802924 384.718735 173.33062 
C 384.718735 174.858316 385.325695 176.323647 386.405939 177.403891 
C 387.486183 178.484135 388.951514 179.091095 390.47921 179.091095 
z
" style="fill:#57d3db;stroke:#57d3db;stroke-width:0.886227;"/>
    <path clip-path="url(#p494dbb6723)" d="M 390.47921 186.635761 
C 392.006906 186.635761 393.472237 186.028801 394.552481 184.948556 
C 395.632725 183.868312 396.239685 182.402981 396.239685 180.875286 
C 396.239685 179.34759 395.632725 177.882259 394.552481 176.802015 
C 393.472237 175.72177 392.006906 175.114811 390.47921 175.114811 
C 388.951514 175.114811 387.486183 175.72177 386.405939 176.802015 
C 385.325695 177.882259 384.718735 179.34759 384.718735 180.875286 
C 384.718735 182.402981 385.325695 183.868312 386.405939 184.948556 
C 387.486183 186.028801 388.951514 186.635761 390.47921 186.635761 
z
" style="fill:#a157db;stroke:#a157db;stroke-width:0.886227;"/>
    <path clip-path="url(#p494dbb6723)" d="M 146.988301 189.967681 
C 148.515997 189.967681 149.981328 189.360721 151.061572 188.280477 
C 152.141816 187.200233 152.748776 185.734902 152.748776 184.207206 
C 152.748776 182.67951 152.141816 181.214179 151.061572 180.133935 
C 149.981328 179.053691 148.515997 178.446731 146.988301 178.446731 
C 145.460605 178.446731 143.995274 179.053691 142.91503 180.133935 
C 141.834786 181.214179 141.227826 182.67951 141.227826 184.207206 
C 141.227826 185.734902 141.834786 187.200233 142.91503 188.280477 
C 143.995274 189.360721 145.460605 189.967681 146.988301 189.967681 
z
" style="fill:#57d3db;stroke:#57d3db;stroke-width:0.886227;"/>
    <path clip-path="url(#p494dbb6723)" d="M 309.315574 196.449959 
C 310.84327 196.449959 312.308601 195.842999 313.388845 194.762755 
C 314.469089 193.682511 315.076049 192.21718 315.076049 190.689484 
C 315.076049 189.161788 314.469089 187.696457 313.388845 186.616213 
C 312.308601 185.535969 310.84327 184.929009 309.315574 184.929009 
C 307.787878 184.929009 306.322547 185.535969 305.242303 186.616213 
C 304.162059 187.696457 303.555099 189.161788 303.555099 190.689484 
C 303.555099 192.21718 304.162059 193.682511 305.242303 194.762755 
C 306.322547 195.842999 307.787878 196.449959 309.315574 196.449959 
z
" style="fill:#a157db;stroke:#a157db;stroke-width:0.886227;"/>
    <path clip-path="url(#p494dbb6723)" d="M 390.47921 210.795864 
C 392.006906 210.795864 393.472237 210.188904 394.552481 209.10866 
C 395.632725 208.028416 396.239685 206.563085 396.239685 205.035389 
C 396.239685 203.507694 395.632725 202.042363 394.552481 200.962118 
C 393.472237 199.881874 392.006906 199.274914 390.47921 199.274914 
C 388.951514 199.274914 387.486183 199.881874 386.405939 200.962118 
C 385.325695 202.042363 384.718735 203.507694 384.718735 205.035389 
C 384.718735 206.563085 385.325695 208.028416 386.405939 209.10866 
C 387.486183 210.188904 388.951514 210.795864 390.47921 210.795864 
z
" style="fill:#a157db;stroke:#a157db;stroke-width:0.886227;"/>
    <path clip-path="url(#p494dbb6723)" d="M 390.47921 212.214016 
C 392.006906 212.214016 393.472237 211.607056 394.552481 210.526812 
C 395.632725 209.446568 396.239685 207.981237 396.239685 206.453541 
C 396.239685 204.925845 395.632725 203.460514 394.552481 202.38027 
C 393.472237 201.300026 392.006906 200.693066 390.47921 200.693066 
C 388.951514 200.693066 387.486183 201.300026 386.405939 202.38027 
C 385.325695 203.460514 384.718735 204.925845 384.718735 206.453541 
C 384.718735 207.981237 385.325695 209.446568 386.405939 210.526812 
C 387.486183 211.607056 388.951514 212.214016 390.47921 212.214016 
z
" style="fill:#57d3db;stroke:#57d3db;stroke-width:0.886227;"/>
    <path clip-path="url(#p494dbb6723)" d="M 309.315574 212.52071 
C 310.84327 212.52071 312.308601 211.91375 313.388845 210.833506 
C 314.469089 209.753262 315.076049 208.287931 315.076049 206.760235 
C 315.076049 205.232539 314.469089 203.767208 313.388845 202.686964 
C 312.308601 201.60672 310.84327 200.99976 309.315574 200.99976 
C 307.787878 200.99976 306.322547 201.60672 305.242303 202.686964 
C 304.162059 203.767208 303.555099 205.232539 303.555099 206.760235 
C 303.555099 208.287931 304.162059 209.753262 305.242303 210.833506 
C 306.322547 211.91375 307.787878 212.52071 309.315574 212.52071 
z
" style="fill:#a157db;stroke:#a157db;stroke-width:0.886227;"/>
    <path clip-path="url(#p494dbb6723)" d="M 65.824665 212.582049 
C 67.352361 212.582049 68.817692 211.975089 69.897936 210.894845 
C 70.97818 209.8146 71.58514 208.349269 71.58514 206.821574 
C 71.58514 205.293878 70.97818 203.828547 69.897936 202.748303 
C 68.817692 201.668059 67.352361 201.061099 65.824665 201.061099 
C 64.296969 201.061099 62.831638 201.668059 61.751394 202.748303 
C 60.67115 203.828547 60.06419 205.293878 60.06419 206.821574 
C 60.06419 208.349269 60.67115 209.8146 61.751394 210.894845 
C 62.831638 211.975089 64.296969 212.582049 65.824665 212.582049 
z
" style="fill:#57d3db;stroke:#57d3db;stroke-width:0.886227;"/>
    <path clip-path="url(#p494dbb6723)" d="M 146.988301 212.586956 
C 148.515997 212.586956 149.981328 211.979996 151.061572 210.899752 
C 152.141816 209.819508 152.748776 208.354176 152.748776 206.826481 
C 152.748776 205.298785 152.141816 203.833454 151.061572 202.75321 
C 149.981328 201.672966 148.515997 201.066006 146.988301 201.066006 
C 145.460605 201.066006 143.995274 201.672966 142.91503 202.75321 
C 141.834786 203.833454 141.227826 205.298785 141.227826 206.826481 
C 141.227826 208.354176 141.834786 209.819508 142.91503 210.899752 
C 143.995274 211.979996 145.460605 212.586956 146.988301 212.586956 
z
" style="fill:#a157db;stroke:#a157db;stroke-width:0.886227;"/>
    <path clip-path="url(#p494dbb6723)" d="M 146.988301 213.624807 
C 148.515997 213.624807 149.981328 213.017847 151.061572 211.937603 
C 152.141816 210.857359 152.748776 209.392028 152.748776 207.864332 
C 152.748776 206.336636 152.141816 204.871305 151.061572 203.791061 
C 149.981328 202.710817 148.515997 202.103857 146.988301 202.103857 
C 145.460605 202.103857 143.995274 202.710817 142.91503 203.791061 
C 141.834786 204.871305 141.227826 206.336636 141.227826 207.864332 
C 141.227826 209.392028 141.834786 210.857359 142.91503 211.937603 
C 143.995274 213.017847 145.460605 213.624807 146.988301 213.624807 
z
" style="fill:#57d3db;stroke:#57d3db;stroke-width:0.886227;"/>
    <path clip-path="url(#p494dbb6723)" d="M 309.315574 214.589052 
C 310.84327 214.589052 312.308601 213.982092 313.388845 212.901848 
C 314.469089 211.821604 315.076049 210.356273 315.076049 208.828577 
C 315.076049 207.300881 314.469089 205.83555 313.388845 204.755306 
C 312.308601 203.675062 310.84327 203.068102 309.315574 203.068102 
C 307.787878 203.068102 306.322547 203.675062 305.242303 204.755306 
C 304.162059 205.83555 303.555099 207.300881 303.555099 208.828577 
C 303.555099 210.356273 304.162059 211.821604 305.242303 212.901848 
C 306.322547 213.982092 307.787878 214.589052 309.315574 214.589052 
z
" style="fill:#57d3db;stroke:#57d3db;stroke-width:0.886227;"/>
    <path clip-path="url(#p494dbb6723)" d="M 390.47921 216.385051 
C 392.006906 216.385051 393.472237 215.778091 394.552481 214.697847 
C 395.632725 213.617602 396.239685 212.152271 396.239685 210.624576 
C 396.239685 209.09688 395.632725 207.631549 394.552481 206.551305 
C 393.472237 205.471061 392.006906 204.864101 390.47921 204.864101 
C 388.951514 204.864101 387.486183 205.471061 386.405939 206.551305 
C 385.325695 207.631549 384.718735 209.09688 384.718735 210.624576 
C 384.718735 212.152271 385.325695 213.617602 386.405939 214.697847 
C 387.486183 215.778091 388.951514 216.385051 390.47921 216.385051 
z
" style="fill:#57d3db;stroke:#57d3db;stroke-width:0.886227;"/>
    <path clip-path="url(#p494dbb6723)" d="M 228.151937 216.998438 
C 229.679633 216.998438 231.144964 216.391478 232.225208 215.311234 
C 233.305453 214.23099 233.912413 212.765659 233.912413 211.237963 
C 233.912413 209.710267 233.305453 208.244936 232.225208 207.164692 
C 231.144964 206.084448 229.679633 205.477488 228.151937 205.477488 
C 226.624242 205.477488 225.158911 206.084448 224.078667 207.164692 
C 222.998422 208.244936 222.391462 209.710267 222.391462 211.237963 
C 222.391462 212.765659 222.998422 214.23099 224.078667 215.311234 
C 225.158911 216.391478 226.624242 216.998438 228.151937 216.998438 
z
" style="fill:#57d3db;stroke:#57d3db;stroke-width:0.886227;"/>
    <path clip-path="url(#p494dbb6723)" d="M 65.824665 222.334909 
C 67.352361 222.334909 68.817692 221.727949 69.897936 220.647705 
C 70.97818 219.56746 71.58514 218.102129 71.58514 216.574434 
C 71.58514 215.046738 70.97818 213.581407 69.897936 212.501163 
C 68.817692 211.420919 67.352361 210.813959 65.824665 210.813959 
C 64.296969 210.813959 62.831638 211.420919 61.751394 212.501163 
C 60.67115 213.581407 60.06419 215.046738 60.06419 216.574434 
C 60.06419 218.102129 60.67115 219.56746 61.751394 220.647705 
C 62.831638 221.727949 64.296969 222.334909 65.824665 222.334909 
z
" style="fill:#57d3db;stroke:#57d3db;stroke-width:0.886227;"/>
    <path clip-path="url(#p494dbb6723)" d="M 390.47921 231.53572 
C 392.006906 231.53572 393.472237 230.92876 394.552481 229.848516 
C 395.632725 228.768272 396.239685 227.302941 396.239685 225.775245 
C 396.239685 224.247549 395.632725 222.782218 394.552481 221.701974 
C 393.472237 220.62173 392.006906 220.01477 390.47921 220.01477 
C 388.951514 220.01477 387.486183 220.62173 386.405939 221.701974 
C 385.325695 222.782218 384.718735 224.247549 384.718735 225.775245 
C 384.718735 227.302941 385.325695 228.768272 386.405939 229.848516 
C 387.486183 230.92876 388.951514 231.53572 390.47921 231.53572 
z
" style="fill:#57d3db;stroke:#57d3db;stroke-width:0.886227;"/>
    <path clip-path="url(#p494dbb6723)" d="M 390.47921 232.791937 
C 392.006906 232.791937 393.472237 232.184977 394.552481 231.104733 
C 395.632725 230.024489 396.239685 228.559158 396.239685 227.031462 
C 396.239685 225.503767 395.632725 224.038436 394.552481 222.958191 
C 393.472237 221.877947 392.006906 221.270987 390.47921 221.270987 
C 388.951514 221.270987 387.486183 221.877947 386.405939 222.958191 
C 385.325695 224.038436 384.718735 225.503767 384.718735 227.031462 
C 384.718735 228.559158 385.325695 230.024489 386.405939 231.104733 
C 387.486183 232.184977 388.951514 232.791937 390.47921 232.791937 
z
" style="fill:#a157db;stroke:#a157db;stroke-width:0.886227;"/>
    <path clip-path="url(#p494dbb6723)" d="M 390.47921 233.437221 
C 392.006906 233.437221 393.472237 232.830261 394.552481 231.750017 
C 395.632725 230.669773 396.239685 229.204442 396.239685 227.676746 
C 396.239685 226.14905 395.632725 224.683719 394.552481 223.603475 
C 393.472237 222.523231 392.006906 221.916271 390.47921 221.916271 
C 388.951514 221.916271 387.486183 222.523231 386.405939 223.603475 
C 385.325695 224.683719 384.718735 226.14905 384.718735 227.676746 
C 384.718735 229.204442 385.325695 230.669773 386.405939 231.750017 
C 387.486183 232.830261 388.951514 233.437221 390.47921 233.437221 
z
" style="fill:#a157db;stroke:#a157db;stroke-width:0.886227;"/>
    <path clip-path="url(#p494dbb6723)" d="M 309.315574 238.405659 
C 310.84327 238.405659 312.308601 237.798699 313.388845 236.718455 
C 314.469089 235.638211 315.076049 234.17288 315.076049 232.645184 
C 315.076049 231.117488 314.469089 229.652157 313.388845 228.571913 
C 312.308601 227.491669 310.84327 226.884709 309.315574 226.884709 
C 307.787878 226.884709 306.322547 227.491669 305.242303 228.571913 
C 304.162059 229.652157 303.555099 231.117488 303.555099 232.645184 
C 303.555099 234.17288 304.162059 235.638211 305.242303 236.718455 
C 306.322547 237.798699 307.787878 238.405659 309.315574 238.405659 
z
" style="fill:#a157db;stroke:#a157db;stroke-width:0.886227;"/>
    <path clip-path="url(#p494dbb6723)" d="M 390.47921 239.080385 
C 392.006906 239.080385 393.472237 238.473425 394.552481 237.393181 
C 395.632725 236.312937 396.239685 234.847606 396.239685 233.31991 
C 396.239685 231.792214 395.632725 230.326883 394.552481 229.246639 
C 393.472237 228.166395 392.006906 227.559435 390.47921 227.559435 
C 388.951514 227.559435 387.486183 228.166395 386.405939 229.246639 
C 385.325695 230.326883 384.718735 231.792214 384.718735 233.31991 
C 384.718735 234.847606 385.325695 236.312937 386.405939 237.393181 
C 387.486183 238.473425 388.951514 239.080385 390.47921 239.080385 
z
" style="fill:#57d3db;stroke:#57d3db;stroke-width:0.886227;"/>
    <path clip-path="url(#p494dbb6723)" d="M 309.315574 242.449109 
C 310.84327 242.449109 312.308601 241.842149 313.388845 240.761905 
C 314.469089 239.681661 315.076049 238.21633 315.076049 236.688634 
C 315.076049 235.160938 314.469089 233.695607 313.388845 232.615363 
C 312.308601 231.535119 310.84327 230.928159 309.315574 230.928159 
C 307.787878 230.928159 306.322547 231.535119 305.242303 232.615363 
C 304.162059 233.695607 303.555099 235.160938 303.555099 236.688634 
C 303.555099 238.21633 304.162059 239.681661 305.242303 240.761905 
C 306.322547 241.842149 307.787878 242.449109 309.315574 242.449109 
z
" style="fill:#91db57;stroke:#91db57;stroke-width:0.886227;"/>
    <path clip-path="url(#p494dbb6723)" d="M 146.988301 242.944726 
C 148.515997 242.944726 149.981328 242.337766 151.061572 241.257522 
C 152.141816 240.177278 152.748776 238.711947 152.748776 237.184251 
C 152.748776 235.656555 152.141816 234.191224 151.061572 233.11098 
C 149.981328 232.030736 148.515997 231.423776 146.988301 231.423776 
C 145.460605 231.423776 143.995274 232.030736 142.91503 233.11098 
C 141.834786 234.191224 141.227826 235.656555 141.227826 237.184251 
C 141.227826 238.711947 141.834786 240.177278 142.91503 241.257522 
C 143.995274 242.337766 145.460605 242.944726 146.988301 242.944726 
z
" style="fill:#57d3db;stroke:#57d3db;stroke-width:0.886227;"/>
    <path clip-path="url(#p494dbb6723)" d="M 390.47921 244.294178 
C 392.006906 244.294178 393.472237 243.687218 394.552481 242.606974 
C 395.632725 241.52673 396.239685 240.061399 396.239685 238.533703 
C 396.239685 237.006008 395.632725 235.540677 394.552481 234.460432 
C 393.472237 233.380188 392.006906 232.773228 390.47921 232.773228 
C 388.951514 232.773228 387.486183 233.380188 386.405939 234.460432 
C 385.325695 235.540677 384.718735 237.006008 384.718735 238.533703 
C 384.718735 240.061399 385.325695 241.52673 386.405939 242.606974 
C 387.486183 243.687218 388.951514 244.294178 390.47921 244.294178 
z
" style="fill:#a157db;stroke:#a157db;stroke-width:0.886227;"/>
    <path clip-path="url(#p494dbb6723)" d="M 390.47921 244.416856 
C 392.006906 244.416856 393.472237 243.809896 394.552481 242.729652 
C 395.632725 241.649408 396.239685 240.184077 396.239685 238.656381 
C 396.239685 237.128685 395.632725 235.663354 394.552481 234.58311 
C 393.472237 233.502866 392.006906 232.895906 390.47921 232.895906 
C 388.951514 232.895906 387.486183 233.502866 386.405939 234.58311 
C 385.325695 235.663354 384.718735 237.128685 384.718735 238.656381 
C 384.718735 240.184077 385.325695 241.649408 386.405939 242.729652 
C 387.486183 243.809896 388.951514 244.416856 390.47921 244.416856 
z
" style="fill:#57d3db;stroke:#57d3db;stroke-width:0.886227;"/>
    <path clip-path="url(#p494dbb6723)" d="M 309.315574 244.846227 
C 310.84327 244.846227 312.308601 244.239267 313.388845 243.159023 
C 314.469089 242.078779 315.076049 240.613448 315.076049 239.085752 
C 315.076049 237.558056 314.469089 236.092725 313.388845 235.012481 
C 312.308601 233.932237 310.84327 233.325277 309.315574 233.325277 
C 307.787878 233.325277 306.322547 233.932237 305.242303 235.012481 
C 304.162059 236.092725 303.555099 237.558056 303.555099 239.085752 
C 303.555099 240.613448 304.162059 242.078779 305.242303 243.159023 
C 306.322547 244.239267 307.787878 244.846227 309.315574 244.846227 
z
" style="fill:#57d3db;stroke:#57d3db;stroke-width:0.886227;"/>
    <path clip-path="url(#p494dbb6723)" d="M 228.151937 249.507971 
C 229.679633 249.507971 231.144964 248.901012 232.225208 247.820767 
C 233.305453 246.740523 233.912413 245.275192 233.912413 243.747496 
C 233.912413 242.219801 233.305453 240.75447 232.225208 239.674226 
C 231.144964 238.593981 229.679633 237.987021 228.151937 237.987021 
C 226.624242 237.987021 225.158911 238.593981 224.078667 239.674226 
C 222.998422 240.75447 222.391462 242.219801 222.391462 243.747496 
C 222.391462 245.275192 222.998422 246.740523 224.078667 247.820767 
C 225.158911 248.901012 226.624242 249.507971 228.151937 249.507971 
z
" style="fill:#57d3db;stroke:#57d3db;stroke-width:0.886227;"/>
    <path clip-path="url(#p494dbb6723)" d="M 390.47921 251.409473 
C 392.006906 251.409473 393.472237 250.802513 394.552481 249.722268 
C 395.632725 248.642024 396.239685 247.176693 396.239685 245.648997 
C 396.239685 244.121302 395.632725 242.655971 394.552481 241.575727 
C 393.472237 240.495482 392.006906 239.888522 390.47921 239.888522 
C 388.951514 239.888522 387.486183 240.495482 386.405939 241.575727 
C 385.325695 242.655971 384.718735 244.121302 384.718735 245.648997 
C 384.718735 247.176693 385.325695 248.642024 386.405939 249.722268 
C 387.486183 250.802513 388.951514 251.409473 390.47921 251.409473 
z
" style="fill:#db5f57;stroke:#db5f57;stroke-width:0.886227;"/>
    <path clip-path="url(#p494dbb6723)" d="M 390.47921 253.617667 
C 392.006906 253.617667 393.472237 253.010707 394.552481 251.930463 
C 395.632725 250.850219 396.239685 249.384888 396.239685 247.857192 
C 396.239685 246.329496 395.632725 244.864165 394.552481 243.783921 
C 393.472237 242.703677 392.006906 242.096717 390.47921 242.096717 
C 388.951514 242.096717 387.486183 242.703677 386.405939 243.783921 
C 385.325695 244.864165 384.718735 246.329496 384.718735 247.857192 
C 384.718735 249.384888 385.325695 250.850219 386.405939 251.930463 
C 387.486183 253.010707 388.951514 253.617667 390.47921 253.617667 
z
" style="fill:#57d3db;stroke:#57d3db;stroke-width:0.886227;"/>
    <path clip-path="url(#p494dbb6723)" d="M 390.47921 256.684604 
C 392.006906 256.684604 393.472237 256.077644 394.552481 254.9974 
C 395.632725 253.917156 396.239685 252.451825 396.239685 250.924129 
C 396.239685 249.396434 395.632725 247.931102 394.552481 246.850858 
C 393.472237 245.770614 392.006906 245.163654 390.47921 245.163654 
C 388.951514 245.163654 387.486183 245.770614 386.405939 246.850858 
C 385.325695 247.931102 384.718735 249.396434 384.718735 250.924129 
C 384.718735 252.451825 385.325695 253.917156 386.405939 254.9974 
C 387.486183 256.077644 388.951514 256.684604 390.47921 256.684604 
z
" style="fill:#57d3db;stroke:#57d3db;stroke-width:0.886227;"/>
    <path clip-path="url(#p494dbb6723)" d="M 390.47921 260.180913 
C 392.006906 260.180913 393.472237 259.573953 394.552481 258.493709 
C 395.632725 257.413465 396.239685 255.948133 396.239685 254.420438 
C 396.239685 252.892742 395.632725 251.427411 394.552481 250.347167 
C 393.472237 249.266923 392.006906 248.659963 390.47921 248.659963 
C 388.951514 248.659963 387.486183 249.266923 386.405939 250.347167 
C 385.325695 251.427411 384.718735 252.892742 384.718735 254.420438 
C 384.718735 255.948133 385.325695 257.413465 386.405939 258.493709 
C 387.486183 259.573953 388.951514 260.180913 390.47921 260.180913 
z
" style="fill:#57d3db;stroke:#57d3db;stroke-width:0.886227;"/>
    <path clip-path="url(#p494dbb6723)" d="M 228.151937 262.082414 
C 229.679633 262.082414 231.144964 261.475454 232.225208 260.39521 
C 233.305453 259.314966 233.912413 257.849635 233.912413 256.321939 
C 233.912413 254.794243 233.305453 253.328912 232.225208 252.248668 
C 231.144964 251.168424 229.679633 250.561464 228.151937 250.561464 
C 226.624242 250.561464 225.158911 251.168424 224.078667 252.248668 
C 222.998422 253.328912 222.391462 254.794243 222.391462 256.321939 
C 222.391462 257.849635 222.998422 259.314966 224.078667 260.39521 
C 225.158911 261.475454 226.624242 262.082414 228.151937 262.082414 
z
" style="fill:#57d3db;stroke:#57d3db;stroke-width:0.886227;"/>
    <path clip-path="url(#p494dbb6723)" d="M 390.47921 262.818479 
C 392.006906 262.818479 393.472237 262.211519 394.552481 261.131275 
C 395.632725 260.05103 396.239685 258.585699 396.239685 257.058004 
C 396.239685 255.530308 395.632725 254.064977 394.552481 252.984733 
C 393.472237 251.904489 392.006906 251.297529 390.47921 251.297529 
C 388.951514 251.297529 387.486183 251.904489 386.405939 252.984733 
C 385.325695 254.064977 384.718735 255.530308 384.718735 257.058004 
C 384.718735 258.585699 385.325695 260.05103 386.405939 261.131275 
C 387.486183 262.211519 388.951514 262.818479 390.47921 262.818479 
z
" style="fill:#a157db;stroke:#a157db;stroke-width:0.886227;"/>
    <path clip-path="url(#p494dbb6723)" d="M 228.151937 263.431866 
C 229.679633 263.431866 231.144964 262.824906 232.225208 261.744662 
C 233.305453 260.664418 233.912413 259.199087 233.912413 257.671391 
C 233.912413 256.143695 233.305453 254.678364 232.225208 253.59812 
C 231.144964 252.517876 229.679633 251.910916 228.151937 251.910916 
C 226.624242 251.910916 225.158911 252.517876 224.078667 253.59812 
C 222.998422 254.678364 222.391462 256.143695 222.391462 257.671391 
C 222.391462 259.199087 222.998422 260.664418 224.078667 261.744662 
C 225.158911 262.824906 226.624242 263.431866 228.151937 263.431866 
z
" style="fill:#57d3db;stroke:#57d3db;stroke-width:0.886227;"/>
    <path clip-path="url(#p494dbb6723)" d="M 390.47921 264.167931 
C 392.006906 264.167931 393.472237 263.560971 394.552481 262.480727 
C 395.632725 261.400483 396.239685 259.935152 396.239685 258.407456 
C 396.239685 256.87976 395.632725 255.414429 394.552481 254.334185 
C 393.472237 253.253941 392.006906 252.646981 390.47921 252.646981 
C 388.951514 252.646981 387.486183 253.253941 386.405939 254.334185 
C 385.325695 255.414429 384.718735 256.87976 384.718735 258.407456 
C 384.718735 259.935152 385.325695 261.400483 386.405939 262.480727 
C 387.486183 263.560971 388.951514 264.167931 390.47921 264.167931 
z
" style="fill:#db5f57;stroke:#db5f57;stroke-width:0.886227;"/>
    <path clip-path="url(#p494dbb6723)" d="M 390.47921 265.456045 
C 392.006906 265.456045 393.472237 264.849085 394.552481 263.76884 
C 395.632725 262.688596 396.239685 261.223265 396.239685 259.69557 
C 396.239685 258.167874 395.632725 256.702543 394.552481 255.622299 
C 393.472237 254.542054 392.006906 253.935094 390.47921 253.935094 
C 388.951514 253.935094 387.486183 254.542054 386.405939 255.622299 
C 385.325695 256.702543 384.718735 258.167874 384.718735 259.69557 
C 384.718735 261.223265 385.325695 262.688596 386.405939 263.76884 
C 387.486183 264.849085 388.951514 265.456045 390.47921 265.456045 
z
" style="fill:#db5f57;stroke:#db5f57;stroke-width:0.886227;"/>
    <path clip-path="url(#p494dbb6723)" d="M 309.315574 266.314787 
C 310.84327 266.314787 312.308601 265.707827 313.388845 264.627583 
C 314.469089 263.547339 315.076049 262.082008 315.076049 260.554312 
C 315.076049 259.026616 314.469089 257.561285 313.388845 256.481041 
C 312.308601 255.400797 310.84327 254.793837 309.315574 254.793837 
C 307.787878 254.793837 306.322547 255.400797 305.242303 256.481041 
C 304.162059 257.561285 303.555099 259.026616 303.555099 260.554312 
C 303.555099 262.082008 304.162059 263.547339 305.242303 264.627583 
C 306.322547 265.707827 307.787878 266.314787 309.315574 266.314787 
z
" style="fill:#57d3db;stroke:#57d3db;stroke-width:0.886227;"/>
    <path clip-path="url(#p494dbb6723)" d="M 309.315574 267.725578 
C 310.84327 267.725578 312.308601 267.118618 313.388845 266.038374 
C 314.469089 264.95813 315.076049 263.492799 315.076049 261.965103 
C 315.076049 260.437407 314.469089 258.972076 313.388845 257.891832 
C 312.308601 256.811588 310.84327 256.204628 309.315574 256.204628 
C 307.787878 256.204628 306.322547 256.811588 305.242303 257.891832 
C 304.162059 258.972076 303.555099 260.437407 303.555099 261.965103 
C 303.555099 263.492799 304.162059 264.95813 305.242303 266.038374 
C 306.322547 267.118618 307.787878 267.725578 309.315574 267.725578 
z
" style="fill:#57d3db;stroke:#57d3db;stroke-width:0.886227;"/>
    <path clip-path="url(#p494dbb6723)" d="M 390.47921 268.768337 
C 392.006906 268.768337 393.472237 268.161377 394.552481 267.081133 
C 395.632725 266.000888 396.239685 264.535557 396.239685 263.007862 
C 396.239685 261.480166 395.632725 260.014835 394.552481 258.934591 
C 393.472237 257.854347 392.006906 257.247387 390.47921 257.247387 
C 388.951514 257.247387 387.486183 257.854347 386.405939 258.934591 
C 385.325695 260.014835 384.718735 261.480166 384.718735 263.007862 
C 384.718735 264.535557 385.325695 266.000888 386.405939 267.081133 
C 387.486183 268.161377 388.951514 268.768337 390.47921 268.768337 
z
" style="fill:#57d3db;stroke:#57d3db;stroke-width:0.886227;"/>
    <path clip-path="url(#p494dbb6723)" d="M 390.47921 270.485821 
C 392.006906 270.485821 393.472237 269.878861 394.552481 268.798617 
C 395.632725 267.718373 396.239685 266.253042 396.239685 264.725346 
C 396.239685 263.197651 395.632725 261.73232 394.552481 260.652075 
C 393.472237 259.571831 392.006906 258.964871 390.47921 258.964871 
C 388.951514 258.964871 387.486183 259.571831 386.405939 260.652075 
C 385.325695 261.73232 384.718735 263.197651 384.718735 264.725346 
C 384.718735 266.253042 385.325695 267.718373 386.405939 268.798617 
C 387.486183 269.878861 388.951514 270.485821 390.47921 270.485821 
z
" style="fill:#57d3db;stroke:#57d3db;stroke-width:0.886227;"/>
    <path clip-path="url(#p494dbb6723)" d="M 390.47921 276.558357 
C 392.006906 276.558357 393.472237 275.951397 394.552481 274.871153 
C 395.632725 273.790909 396.239685 272.325578 396.239685 270.797882 
C 396.239685 269.270186 395.632725 267.804855 394.552481 266.724611 
C 393.472237 265.644367 392.006906 265.037407 390.47921 265.037407 
C 388.951514 265.037407 387.486183 265.644367 386.405939 266.724611 
C 385.325695 267.804855 384.718735 269.270186 384.718735 270.797882 
C 384.718735 272.325578 385.325695 273.790909 386.405939 274.871153 
C 387.486183 275.951397 388.951514 276.558357 390.47921 276.558357 
z
" style="fill:#db5f57;stroke:#db5f57;stroke-width:0.886227;"/>
    <path clip-path="url(#p494dbb6723)" d="M 390.47921 279.686633 
C 392.006906 279.686633 393.472237 279.079673 394.552481 277.999429 
C 395.632725 276.919185 396.239685 275.453854 396.239685 273.926158 
C 396.239685 272.398462 395.632725 270.933131 394.552481 269.852887 
C 393.472237 268.772643 392.006906 268.165683 390.47921 268.165683 
C 388.951514 268.165683 387.486183 268.772643 386.405939 269.852887 
C 385.325695 270.933131 384.718735 272.398462 384.718735 273.926158 
C 384.718735 275.453854 385.325695 276.919185 386.405939 277.999429 
C 387.486183 279.079673 388.951514 279.686633 390.47921 279.686633 
z
" style="fill:#a157db;stroke:#a157db;stroke-width:0.886227;"/>
    <path clip-path="url(#p494dbb6723)" d="M 390.47921 280.116004 
C 392.006906 280.116004 393.472237 279.509044 394.552481 278.4288 
C 395.632725 277.348556 396.239685 275.883225 396.239685 274.355529 
C 396.239685 272.827833 395.632725 271.362502 394.552481 270.282258 
C 393.472237 269.202014 392.006906 268.595054 390.47921 268.595054 
C 388.951514 268.595054 387.486183 269.202014 386.405939 270.282258 
C 385.325695 271.362502 384.718735 272.827833 384.718735 274.355529 
C 384.718735 275.883225 385.325695 277.348556 386.405939 278.4288 
C 387.486183 279.509044 388.951514 280.116004 390.47921 280.116004 
z
" style="fill:#a157db;stroke:#a157db;stroke-width:0.886227;"/>
    <path clip-path="url(#p494dbb6723)" d="M 390.47921 282.017505 
C 392.006906 282.017505 393.472237 281.410545 394.552481 280.330301 
C 395.632725 279.250057 396.239685 277.784726 396.239685 276.25703 
C 396.239685 274.729334 395.632725 273.264003 394.552481 272.183759 
C 393.472237 271.103515 392.006906 270.496555 390.47921 270.496555 
C 388.951514 270.496555 387.486183 271.103515 386.405939 272.183759 
C 385.325695 273.264003 384.718735 274.729334 384.718735 276.25703 
C 384.718735 277.784726 385.325695 279.250057 386.405939 280.330301 
C 387.486183 281.410545 388.951514 282.017505 390.47921 282.017505 
z
" style="fill:#57d3db;stroke:#57d3db;stroke-width:0.886227;"/>
    <path clip-path="url(#p494dbb6723)" d="M 228.151937 285.035371 
C 229.679633 285.035371 231.144964 284.428411 232.225208 283.348167 
C 233.305453 282.267923 233.912413 280.802592 233.912413 279.274896 
C 233.912413 277.7472 233.305453 276.281869 232.225208 275.201625 
C 231.144964 274.121381 229.679633 273.514421 228.151937 273.514421 
C 226.624242 273.514421 225.158911 274.121381 224.078667 275.201625 
C 222.998422 276.281869 222.391462 277.7472 222.391462 279.274896 
C 222.391462 280.802592 222.998422 282.267923 224.078667 283.348167 
C 225.158911 284.428411 226.624242 285.035371 228.151937 285.035371 
z
" style="fill:#a157db;stroke:#a157db;stroke-width:0.886227;"/>
    <path clip-path="url(#p494dbb6723)" d="M 390.47921 285.496638 
C 392.006906 285.496638 393.472237 284.889678 394.552481 283.809434 
C 395.632725 282.72919 396.239685 281.263859 396.239685 279.736163 
C 396.239685 278.208468 395.632725 276.743137 394.552481 275.662892 
C 393.472237 274.582648 392.006906 273.975688 390.47921 273.975688 
C 388.951514 273.975688 387.486183 274.582648 386.405939 275.662892 
C 385.325695 276.743137 384.718735 278.208468 384.718735 279.736163 
C 384.718735 281.263859 385.325695 282.72919 386.405939 283.809434 
C 387.486183 284.889678 388.951514 285.496638 390.47921 285.496638 
z
" style="fill:#a157db;stroke:#a157db;stroke-width:0.886227;"/>
    <path clip-path="url(#p494dbb6723)" d="M 390.47921 285.881846 
C 392.006906 285.881846 393.472237 285.274886 394.552481 284.194642 
C 395.632725 283.114398 396.239685 281.649067 396.239685 280.121371 
C 396.239685 278.593675 395.632725 277.128344 394.552481 276.0481 
C 393.472237 274.967856 392.006906 274.360896 390.47921 274.360896 
C 388.951514 274.360896 387.486183 274.967856 386.405939 276.0481 
C 385.325695 277.128344 384.718735 278.593675 384.718735 280.121371 
C 384.718735 281.649067 385.325695 283.114398 386.405939 284.194642 
C 387.486183 285.274886 388.951514 285.881846 390.47921 285.881846 
z
" style="fill:#a157db;stroke:#a157db;stroke-width:0.886227;"/>
   </g>
   <g id="patch_3">
    <path d="M 413.911938 234.675865 
L 565.221 234.675865 
L 565.221 80.190876 
L 413.911938 80.190876 
z
" style="fill:#ffffff;"/>
   </g>
   <g id="text_11">
    <!-- work_location_borough -->
    <g transform="translate(426.111938 103.631501)scale(0.11 -0.11)">
     <defs>
      <path d="M 269 3500 
L 844 3500 
L 1563 769 
L 2278 3500 
L 2956 3500 
L 3675 769 
L 4391 3500 
L 4966 3500 
L 4050 0 
L 3372 0 
L 2619 2869 
L 1863 0 
L 1184 0 
L 269 3500 
z
" id="DejaVuSans-77" transform="scale(0.015625)"/>
      <path d="M 1959 3097 
Q 1497 3097 1228 2736 
Q 959 2375 959 1747 
Q 959 1119 1226 758 
Q 1494 397 1959 397 
Q 2419 397 2687 759 
Q 2956 1122 2956 1747 
Q 2956 2369 2687 2733 
Q 2419 3097 1959 3097 
z
M 1959 3584 
Q 2709 3584 3137 3096 
Q 3566 2609 3566 1747 
Q 3566 888 3137 398 
Q 2709 -91 1959 -91 
Q 1206 -91 779 398 
Q 353 888 353 1747 
Q 353 2609 779 3096 
Q 1206 3584 1959 3584 
z
" id="DejaVuSans-6f" transform="scale(0.015625)"/>
      <path d="M 581 4863 
L 1159 4863 
L 1159 1991 
L 2875 3500 
L 3609 3500 
L 1753 1863 
L 3688 0 
L 2938 0 
L 1159 1709 
L 1159 0 
L 581 0 
L 581 4863 
z
" id="DejaVuSans-6b" transform="scale(0.015625)"/>
      <path d="M 3263 -1063 
L 3263 -1509 
L -63 -1509 
L -63 -1063 
L 3263 -1063 
z
" id="DejaVuSans-5f" transform="scale(0.015625)"/>
      <path d="M 603 4863 
L 1178 4863 
L 1178 0 
L 603 0 
L 603 4863 
z
" id="DejaVuSans-6c" transform="scale(0.015625)"/>
      <path d="M 3122 3366 
L 3122 2828 
Q 2878 2963 2633 3030 
Q 2388 3097 2138 3097 
Q 1578 3097 1268 2742 
Q 959 2388 959 1747 
Q 959 1106 1268 751 
Q 1578 397 2138 397 
Q 2388 397 2633 464 
Q 2878 531 3122 666 
L 3122 134 
Q 2881 22 2623 -34 
Q 2366 -91 2075 -91 
Q 1284 -91 818 406 
Q 353 903 353 1747 
Q 353 2603 823 3093 
Q 1294 3584 2113 3584 
Q 2378 3584 2631 3529 
Q 2884 3475 3122 3366 
z
" id="DejaVuSans-63" transform="scale(0.015625)"/>
      <path d="M 3513 2113 
L 3513 0 
L 2938 0 
L 2938 2094 
Q 2938 2591 2744 2837 
Q 2550 3084 2163 3084 
Q 1697 3084 1428 2787 
Q 1159 2491 1159 1978 
L 1159 0 
L 581 0 
L 581 3500 
L 1159 3500 
L 1159 2956 
Q 1366 3272 1645 3428 
Q 1925 3584 2291 3584 
Q 2894 3584 3203 3211 
Q 3513 2838 3513 2113 
z
" id="DejaVuSans-6e" transform="scale(0.015625)"/>
      <path d="M 3116 1747 
Q 3116 2381 2855 2742 
Q 2594 3103 2138 3103 
Q 1681 3103 1420 2742 
Q 1159 2381 1159 1747 
Q 1159 1113 1420 752 
Q 1681 391 2138 391 
Q 2594 391 2855 752 
Q 3116 1113 3116 1747 
z
M 1159 2969 
Q 1341 3281 1617 3432 
Q 1894 3584 2278 3584 
Q 2916 3584 3314 3078 
Q 3713 2572 3713 1747 
Q 3713 922 3314 415 
Q 2916 -91 2278 -91 
Q 1894 -91 1617 61 
Q 1341 213 1159 525 
L 1159 0 
L 581 0 
L 581 4863 
L 1159 4863 
L 1159 2969 
z
" id="DejaVuSans-62" transform="scale(0.015625)"/>
      <path d="M 544 1381 
L 544 3500 
L 1119 3500 
L 1119 1403 
Q 1119 906 1312 657 
Q 1506 409 1894 409 
Q 2359 409 2629 706 
Q 2900 1003 2900 1516 
L 2900 3500 
L 3475 3500 
L 3475 0 
L 2900 0 
L 2900 538 
Q 2691 219 2414 64 
Q 2138 -91 1772 -91 
Q 1169 -91 856 284 
Q 544 659 544 1381 
z
M 1991 3584 
L 1991 3584 
z
" id="DejaVuSans-75" transform="scale(0.015625)"/>
      <path d="M 2906 1791 
Q 2906 2416 2648 2759 
Q 2391 3103 1925 3103 
Q 1463 3103 1205 2759 
Q 947 2416 947 1791 
Q 947 1169 1205 825 
Q 1463 481 1925 481 
Q 2391 481 2648 825 
Q 2906 1169 2906 1791 
z
M 3481 434 
Q 3481 -459 3084 -895 
Q 2688 -1331 1869 -1331 
Q 1566 -1331 1297 -1286 
Q 1028 -1241 775 -1147 
L 775 -588 
Q 1028 -725 1275 -790 
Q 1522 -856 1778 -856 
Q 2344 -856 2625 -561 
Q 2906 -266 2906 331 
L 2906 616 
Q 2728 306 2450 153 
Q 2172 0 1784 0 
Q 1141 0 747 490 
Q 353 981 353 1791 
Q 353 2603 747 3093 
Q 1141 3584 1784 3584 
Q 2172 3584 2450 3431 
Q 2728 3278 2906 2969 
L 2906 3500 
L 3481 3500 
L 3481 434 
z
" id="DejaVuSans-67" transform="scale(0.015625)"/>
      <path d="M 3513 2113 
L 3513 0 
L 2938 0 
L 2938 2094 
Q 2938 2591 2744 2837 
Q 2550 3084 2163 3084 
Q 1697 3084 1428 2787 
Q 1159 2491 1159 1978 
L 1159 0 
L 581 0 
L 581 4863 
L 1159 4863 
L 1159 2956 
Q 1366 3272 1645 3428 
Q 1925 3584 2291 3584 
Q 2894 3584 3203 3211 
Q 3513 2838 3513 2113 
z
" id="DejaVuSans-68" transform="scale(0.015625)"/>
     </defs>
     <use xlink:href="#DejaVuSans-77"/>
     <use x="81.787109" xlink:href="#DejaVuSans-6f"/>
     <use x="142.96875" xlink:href="#DejaVuSans-72"/>
     <use x="184.082031" xlink:href="#DejaVuSans-6b"/>
     <use x="241.992188" xlink:href="#DejaVuSans-5f"/>
     <use x="291.992188" xlink:href="#DejaVuSans-6c"/>
     <use x="319.775391" xlink:href="#DejaVuSans-6f"/>
     <use x="380.957031" xlink:href="#DejaVuSans-63"/>
     <use x="435.9375" xlink:href="#DejaVuSans-61"/>
     <use x="497.216797" xlink:href="#DejaVuSans-74"/>
     <use x="536.425781" xlink:href="#DejaVuSans-69"/>
     <use x="564.208984" xlink:href="#DejaVuSans-6f"/>
     <use x="625.390625" xlink:href="#DejaVuSans-6e"/>
     <use x="688.769531" xlink:href="#DejaVuSans-5f"/>
     <use x="738.769531" xlink:href="#DejaVuSans-62"/>
     <use x="802.246094" xlink:href="#DejaVuSans-6f"/>
     <use x="863.427734" xlink:href="#DejaVuSans-72"/>
     <use x="902.291016" xlink:href="#DejaVuSans-6f"/>
     <use x="963.472656" xlink:href="#DejaVuSans-75"/>
     <use x="1026.851562" xlink:href="#DejaVuSans-67"/>
     <use x="1090.328125" xlink:href="#DejaVuSans-68"/>
    </g>
   </g>
   <g id="patch_4">
    <path clip-path="url(#pcabe90a7d6)" d="M 426.111938 123.582751 
L 441.951937 123.582751 
L 441.951937 107.742751 
L 426.111938 107.742751 
z
" style="fill:#f2f2f2;stroke:#cccccc;stroke-linejoin:miter;"/>
   </g>
   <g id="line2d_25">
    <path clip-path="url(#pcabe90a7d6)" d="M 434.031938 115.662751 
" style="fill:none;stroke:#1f77b4;stroke-linecap:square;stroke-width:1.5;"/>
    <defs>
     <path d="M 0 1.772454 
C 0.47006 1.772454 0.920931 1.585697 1.253314 1.253314 
C 1.585697 0.920931 1.772454 0.47006 1.772454 0 
C 1.772454 -0.47006 1.585697 -0.920931 1.253314 -1.253314 
C 0.920931 -1.585697 0.47006 -1.772454 0 -1.772454 
C -0.47006 -1.772454 -0.920931 -1.585697 -1.253314 -1.253314 
C -1.585697 -0.920931 -1.772454 -0.47006 -1.772454 0 
C -1.772454 0.47006 -1.585697 0.920931 -1.253314 1.253314 
C -0.920931 1.585697 -0.47006 1.772454 0 1.772454 
z
" id="m35c1556459" style="stroke:#db5f57;stroke-width:0.886227;"/>
    </defs>
    <g clip-path="url(#pcabe90a7d6)">
     <use style="fill:#db5f57;stroke:#db5f57;stroke-width:0.886227;" x="434.031938" xlink:href="#m35c1556459" y="115.662751"/>
    </g>
   </g>
   <g id="text_12">
    <!-- BRONX -->
    <g transform="translate(444.951937 118.091001)scale(0.088 -0.088)">
     <defs>
      <path d="M 1259 2228 
L 1259 519 
L 2272 519 
Q 2781 519 3026 730 
Q 3272 941 3272 1375 
Q 3272 1813 3026 2020 
Q 2781 2228 2272 2228 
L 1259 2228 
z
M 1259 4147 
L 1259 2741 
L 2194 2741 
Q 2656 2741 2882 2914 
Q 3109 3088 3109 3444 
Q 3109 3797 2882 3972 
Q 2656 4147 2194 4147 
L 1259 4147 
z
M 628 4666 
L 2241 4666 
Q 2963 4666 3353 4366 
Q 3744 4066 3744 3513 
Q 3744 3084 3544 2831 
Q 3344 2578 2956 2516 
Q 3422 2416 3680 2098 
Q 3938 1781 3938 1306 
Q 3938 681 3513 340 
Q 3088 0 2303 0 
L 628 0 
L 628 4666 
z
" id="DejaVuSans-42" transform="scale(0.015625)"/>
      <path d="M 2841 2188 
Q 3044 2119 3236 1894 
Q 3428 1669 3622 1275 
L 4263 0 
L 3584 0 
L 2988 1197 
Q 2756 1666 2539 1819 
Q 2322 1972 1947 1972 
L 1259 1972 
L 1259 0 
L 628 0 
L 628 4666 
L 2053 4666 
Q 2853 4666 3247 4331 
Q 3641 3997 3641 3322 
Q 3641 2881 3436 2590 
Q 3231 2300 2841 2188 
z
M 1259 4147 
L 1259 2491 
L 2053 2491 
Q 2509 2491 2742 2702 
Q 2975 2913 2975 3322 
Q 2975 3731 2742 3939 
Q 2509 4147 2053 4147 
L 1259 4147 
z
" id="DejaVuSans-52" transform="scale(0.015625)"/>
      <path d="M 628 4666 
L 1478 4666 
L 3547 763 
L 3547 4666 
L 4159 4666 
L 4159 0 
L 3309 0 
L 1241 3903 
L 1241 0 
L 628 0 
L 628 4666 
z
" id="DejaVuSans-4e" transform="scale(0.015625)"/>
      <path d="M 403 4666 
L 1081 4666 
L 2241 2931 
L 3406 4666 
L 4084 4666 
L 2584 2425 
L 4184 0 
L 3506 0 
L 2194 1984 
L 872 0 
L 191 0 
L 1856 2491 
L 403 4666 
z
" id="DejaVuSans-58" transform="scale(0.015625)"/>
     </defs>
     <use xlink:href="#DejaVuSans-42"/>
     <use x="68.603516" xlink:href="#DejaVuSans-52"/>
     <use x="138.085938" xlink:href="#DejaVuSans-4f"/>
     <use x="216.796875" xlink:href="#DejaVuSans-4e"/>
     <use x="291.601562" xlink:href="#DejaVuSans-58"/>
    </g>
   </g>
   <g id="patch_5">
    <path clip-path="url(#p201105bcab)" d="M 426.111938 141.422751 
L 441.951937 141.422751 
L 441.951937 125.582751 
L 426.111938 125.582751 
z
" style="fill:#f2f2f2;stroke:#cccccc;stroke-linejoin:miter;"/>
   </g>
   <g id="line2d_26">
    <path clip-path="url(#p201105bcab)" d="M 434.031938 133.502751 
" style="fill:none;stroke:#1f77b4;stroke-linecap:square;stroke-width:1.5;"/>
    <defs>
     <path d="M 0 1.772454 
C 0.47006 1.772454 0.920931 1.585697 1.253314 1.253314 
C 1.585697 0.920931 1.772454 0.47006 1.772454 0 
C 1.772454 -0.47006 1.585697 -0.920931 1.253314 -1.253314 
C 0.920931 -1.585697 0.47006 -1.772454 0 -1.772454 
C -0.47006 -1.772454 -0.920931 -1.585697 -1.253314 -1.253314 
C -1.585697 -0.920931 -1.772454 -0.47006 -1.772454 0 
C -1.772454 0.47006 -1.585697 0.920931 -1.253314 1.253314 
C -0.920931 1.585697 -0.47006 1.772454 0 1.772454 
z
" id="me6273ad6fd" style="stroke:#91db57;stroke-width:0.886227;"/>
    </defs>
    <g clip-path="url(#p201105bcab)">
     <use style="fill:#91db57;stroke:#91db57;stroke-width:0.886227;" x="434.031938" xlink:href="#me6273ad6fd" y="133.502751"/>
    </g>
   </g>
   <g id="text_13">
    <!-- BROOKLYN -->
    <g transform="translate(444.951937 135.931001)scale(0.088 -0.088)">
     <defs>
      <path d="M 628 4666 
L 1259 4666 
L 1259 2694 
L 3353 4666 
L 4166 4666 
L 1850 2491 
L 4331 0 
L 3500 0 
L 1259 2247 
L 1259 0 
L 628 0 
L 628 4666 
z
" id="DejaVuSans-4b" transform="scale(0.015625)"/>
      <path d="M 628 4666 
L 1259 4666 
L 1259 531 
L 3531 531 
L 3531 0 
L 628 0 
L 628 4666 
z
" id="DejaVuSans-4c" transform="scale(0.015625)"/>
     </defs>
     <use xlink:href="#DejaVuSans-42"/>
     <use x="68.603516" xlink:href="#DejaVuSans-52"/>
     <use x="138.085938" xlink:href="#DejaVuSans-4f"/>
     <use x="216.796875" xlink:href="#DejaVuSans-4f"/>
     <use x="295.507812" xlink:href="#DejaVuSans-4b"/>
     <use x="361.083984" xlink:href="#DejaVuSans-4c"/>
     <use x="403.546875" xlink:href="#DejaVuSans-59"/>
     <use x="464.630859" xlink:href="#DejaVuSans-4e"/>
    </g>
   </g>
   <g id="patch_6">
    <path clip-path="url(#p34ce441602)" d="M 426.111938 159.262751 
L 441.951937 159.262751 
L 441.951937 143.422751 
L 426.111938 143.422751 
z
" style="fill:#f2f2f2;stroke:#cccccc;stroke-linejoin:miter;"/>
   </g>
   <g id="line2d_27">
    <path clip-path="url(#p34ce441602)" d="M 434.031938 151.342751 
" style="fill:none;stroke:#1f77b4;stroke-linecap:square;stroke-width:1.5;"/>
    <defs>
     <path d="M 0 1.772454 
C 0.47006 1.772454 0.920931 1.585697 1.253314 1.253314 
C 1.585697 0.920931 1.772454 0.47006 1.772454 0 
C 1.772454 -0.47006 1.585697 -0.920931 1.253314 -1.253314 
C 0.920931 -1.585697 0.47006 -1.772454 0 -1.772454 
C -0.47006 -1.772454 -0.920931 -1.585697 -1.253314 -1.253314 
C -1.585697 -0.920931 -1.772454 -0.47006 -1.772454 0 
C -1.772454 0.47006 -1.585697 0.920931 -1.253314 1.253314 
C -0.920931 1.585697 -0.47006 1.772454 0 1.772454 
z
" id="m5ba57fab33" style="stroke:#57d3db;stroke-width:0.886227;"/>
    </defs>
    <g clip-path="url(#p34ce441602)">
     <use style="fill:#57d3db;stroke:#57d3db;stroke-width:0.886227;" x="434.031938" xlink:href="#m5ba57fab33" y="151.342751"/>
    </g>
   </g>
   <g id="text_14">
    <!-- MANHATTAN -->
    <g transform="translate(444.951937 153.771001)scale(0.088 -0.088)">
     <defs>
      <path d="M 628 4666 
L 1569 4666 
L 2759 1491 
L 3956 4666 
L 4897 4666 
L 4897 0 
L 4281 0 
L 4281 4097 
L 3078 897 
L 2444 897 
L 1241 4097 
L 1241 0 
L 628 0 
L 628 4666 
z
" id="DejaVuSans-4d" transform="scale(0.015625)"/>
      <path d="M 2188 4044 
L 1331 1722 
L 3047 1722 
L 2188 4044 
z
M 1831 4666 
L 2547 4666 
L 4325 0 
L 3669 0 
L 3244 1197 
L 1141 1197 
L 716 0 
L 50 0 
L 1831 4666 
z
" id="DejaVuSans-41" transform="scale(0.015625)"/>
      <path d="M 628 4666 
L 1259 4666 
L 1259 2753 
L 3553 2753 
L 3553 4666 
L 4184 4666 
L 4184 0 
L 3553 0 
L 3553 2222 
L 1259 2222 
L 1259 0 
L 628 0 
L 628 4666 
z
" id="DejaVuSans-48" transform="scale(0.015625)"/>
      <path d="M -19 4666 
L 3928 4666 
L 3928 4134 
L 2272 4134 
L 2272 0 
L 1638 0 
L 1638 4134 
L -19 4134 
L -19 4666 
z
" id="DejaVuSans-54" transform="scale(0.015625)"/>
     </defs>
     <use xlink:href="#DejaVuSans-4d"/>
     <use x="86.279297" xlink:href="#DejaVuSans-41"/>
     <use x="154.6875" xlink:href="#DejaVuSans-4e"/>
     <use x="229.492188" xlink:href="#DejaVuSans-48"/>
     <use x="304.6875" xlink:href="#DejaVuSans-41"/>
     <use x="365.345703" xlink:href="#DejaVuSans-54"/>
     <use x="424.679688" xlink:href="#DejaVuSans-54"/>
     <use x="478.013672" xlink:href="#DejaVuSans-41"/>
     <use x="546.421875" xlink:href="#DejaVuSans-4e"/>
    </g>
   </g>
   <g id="patch_7">
    <path clip-path="url(#peed16b9158)" d="M 426.111938 177.102751 
L 441.951937 177.102751 
L 441.951937 161.262751 
L 426.111938 161.262751 
z
" style="fill:#f2f2f2;stroke:#cccccc;stroke-linejoin:miter;"/>
   </g>
   <g id="line2d_28">
    <path clip-path="url(#peed16b9158)" d="M 434.031938 169.182751 
" style="fill:none;stroke:#1f77b4;stroke-linecap:square;stroke-width:1.5;"/>
    <defs>
     <path d="M 0 1.772454 
C 0.47006 1.772454 0.920931 1.585697 1.253314 1.253314 
C 1.585697 0.920931 1.772454 0.47006 1.772454 0 
C 1.772454 -0.47006 1.585697 -0.920931 1.253314 -1.253314 
C 0.920931 -1.585697 0.47006 -1.772454 0 -1.772454 
C -0.47006 -1.772454 -0.920931 -1.585697 -1.253314 -1.253314 
C -1.585697 -0.920931 -1.772454 -0.47006 -1.772454 0 
C -1.772454 0.47006 -1.585697 0.920931 -1.253314 1.253314 
C -0.920931 1.585697 -0.47006 1.772454 0 1.772454 
z
" id="m807362897a" style="stroke:#a157db;stroke-width:0.886227;"/>
    </defs>
    <g clip-path="url(#peed16b9158)">
     <use style="fill:#a157db;stroke:#a157db;stroke-width:0.886227;" x="434.031938" xlink:href="#m807362897a" y="169.182751"/>
    </g>
   </g>
   <g id="text_15">
    <!-- QUEENS -->
    <g transform="translate(444.951937 171.611001)scale(0.088 -0.088)">
     <defs>
      <path d="M 2522 4238 
Q 1834 4238 1429 3725 
Q 1025 3213 1025 2328 
Q 1025 1447 1429 934 
Q 1834 422 2522 422 
Q 3209 422 3611 934 
Q 4013 1447 4013 2328 
Q 4013 3213 3611 3725 
Q 3209 4238 2522 4238 
z
M 3406 84 
L 4238 -825 
L 3475 -825 
L 2784 -78 
Q 2681 -84 2626 -87 
Q 2572 -91 2522 -91 
Q 1538 -91 948 567 
Q 359 1225 359 2328 
Q 359 3434 948 4092 
Q 1538 4750 2522 4750 
Q 3503 4750 4090 4092 
Q 4678 3434 4678 2328 
Q 4678 1516 4351 937 
Q 4025 359 3406 84 
z
" id="DejaVuSans-51" transform="scale(0.015625)"/>
      <path d="M 556 4666 
L 1191 4666 
L 1191 1831 
Q 1191 1081 1462 751 
Q 1734 422 2344 422 
Q 2950 422 3222 751 
Q 3494 1081 3494 1831 
L 3494 4666 
L 4128 4666 
L 4128 1753 
Q 4128 841 3676 375 
Q 3225 -91 2344 -91 
Q 1459 -91 1007 375 
Q 556 841 556 1753 
L 556 4666 
z
" id="DejaVuSans-55" transform="scale(0.015625)"/>
      <path d="M 628 4666 
L 3578 4666 
L 3578 4134 
L 1259 4134 
L 1259 2753 
L 3481 2753 
L 3481 2222 
L 1259 2222 
L 1259 531 
L 3634 531 
L 3634 0 
L 628 0 
L 628 4666 
z
" id="DejaVuSans-45" transform="scale(0.015625)"/>
      <path d="M 3425 4513 
L 3425 3897 
Q 3066 4069 2747 4153 
Q 2428 4238 2131 4238 
Q 1616 4238 1336 4038 
Q 1056 3838 1056 3469 
Q 1056 3159 1242 3001 
Q 1428 2844 1947 2747 
L 2328 2669 
Q 3034 2534 3370 2195 
Q 3706 1856 3706 1288 
Q 3706 609 3251 259 
Q 2797 -91 1919 -91 
Q 1588 -91 1214 -16 
Q 841 59 441 206 
L 441 856 
Q 825 641 1194 531 
Q 1563 422 1919 422 
Q 2459 422 2753 634 
Q 3047 847 3047 1241 
Q 3047 1584 2836 1778 
Q 2625 1972 2144 2069 
L 1759 2144 
Q 1053 2284 737 2584 
Q 422 2884 422 3419 
Q 422 4038 858 4394 
Q 1294 4750 2059 4750 
Q 2388 4750 2728 4690 
Q 3069 4631 3425 4513 
z
" id="DejaVuSans-53" transform="scale(0.015625)"/>
     </defs>
     <use xlink:href="#DejaVuSans-51"/>
     <use x="78.710938" xlink:href="#DejaVuSans-55"/>
     <use x="151.904297" xlink:href="#DejaVuSans-45"/>
     <use x="215.087891" xlink:href="#DejaVuSans-45"/>
     <use x="278.271484" xlink:href="#DejaVuSans-4e"/>
     <use x="353.076172" xlink:href="#DejaVuSans-53"/>
    </g>
   </g>
   <g id="text_16">
    <!-- 3 -->
    <g transform="translate(426.111938 198.496345)scale(0.11 -0.11)">
     <use xlink:href="#DejaVuSans-33"/>
    </g>
   </g>
   <g id="patch_8">
    <path clip-path="url(#pcc8c9e04f6)" d="M 426.111938 222.475865 
L 446.439114 222.475865 
L 446.439114 202.148688 
L 426.111938 202.148688 
z
" style="fill:#f2f2f2;stroke:#cccccc;stroke-linejoin:miter;"/>
   </g>
   <g id="line2d_29">
    <path clip-path="url(#pcc8c9e04f6)" d="M 436.275526 212.312277 
" style="fill:none;stroke:#1f77b4;stroke-linecap:square;stroke-width:1.5;"/>
    <defs>
     <path d="M 0 5.760475 
C 1.527696 5.760475 2.993027 5.153515 4.073271 4.073271 
C 5.153515 2.993027 5.760475 1.527696 5.760475 0 
C 5.760475 -1.527696 5.153515 -2.993027 4.073271 -4.073271 
C 2.993027 -5.153515 1.527696 -5.760475 0 -5.760475 
C -1.527696 -5.760475 -2.993027 -5.153515 -4.073271 -4.073271 
C -5.153515 -2.993027 -5.760475 -1.527696 -5.760475 0 
C -5.760475 1.527696 -5.153515 2.993027 -4.073271 4.073271 
C -2.993027 5.153515 -1.527696 5.760475 0 5.760475 
z
" id="mac2b7052cf" style="stroke:#000000;stroke-width:0.886227;"/>
    </defs>
    <g clip-path="url(#pcc8c9e04f6)">
     <use style="stroke:#000000;stroke-width:0.886227;" x="436.275526" xlink:href="#mac2b7052cf" y="212.312277"/>
    </g>
   </g>
   <g id="text_17">
    <!-- 3 -->
    <g transform="translate(449.439114 214.740527)scale(0.088 -0.088)">
     <use xlink:href="#DejaVuSans-33"/>
    </g>
   </g>
  </g>
  <g id="text_18">
   <!-- 2020 and 2017 saw the most in  -->
   <g transform="translate(115.477094 17.229938)scale(0.132 -0.132)">
    <defs>
     <path d="M 2834 3397 
L 2834 2853 
Q 2591 2978 2328 3040 
Q 2066 3103 1784 3103 
Q 1356 3103 1142 2972 
Q 928 2841 928 2578 
Q 928 2378 1081 2264 
Q 1234 2150 1697 2047 
L 1894 2003 
Q 2506 1872 2764 1633 
Q 3022 1394 3022 966 
Q 3022 478 2636 193 
Q 2250 -91 1575 -91 
Q 1294 -91 989 -36 
Q 684 19 347 128 
L 347 722 
Q 666 556 975 473 
Q 1284 391 1588 391 
Q 1994 391 2212 530 
Q 2431 669 2431 922 
Q 2431 1156 2273 1281 
Q 2116 1406 1581 1522 
L 1381 1569 
Q 847 1681 609 1914 
Q 372 2147 372 2553 
Q 372 3047 722 3315 
Q 1072 3584 1716 3584 
Q 2034 3584 2315 3537 
Q 2597 3491 2834 3397 
z
" id="DejaVuSans-73" transform="scale(0.015625)"/>
    </defs>
    <use xlink:href="#DejaVuSans-32"/>
    <use x="63.623047" xlink:href="#DejaVuSans-30"/>
    <use x="127.246094" xlink:href="#DejaVuSans-32"/>
    <use x="190.869141" xlink:href="#DejaVuSans-30"/>
    <use x="254.492188" xlink:href="#DejaVuSans-20"/>
    <use x="286.279297" xlink:href="#DejaVuSans-61"/>
    <use x="347.558594" xlink:href="#DejaVuSans-6e"/>
    <use x="410.9375" xlink:href="#DejaVuSans-64"/>
    <use x="474.414062" xlink:href="#DejaVuSans-20"/>
    <use x="506.201172" xlink:href="#DejaVuSans-32"/>
    <use x="569.824219" xlink:href="#DejaVuSans-30"/>
    <use x="633.447266" xlink:href="#DejaVuSans-31"/>
    <use x="697.070312" xlink:href="#DejaVuSans-37"/>
    <use x="760.693359" xlink:href="#DejaVuSans-20"/>
    <use x="792.480469" xlink:href="#DejaVuSans-73"/>
    <use x="844.580078" xlink:href="#DejaVuSans-61"/>
    <use x="905.859375" xlink:href="#DejaVuSans-77"/>
    <use x="987.646484" xlink:href="#DejaVuSans-20"/>
    <use x="1019.433594" xlink:href="#DejaVuSans-74"/>
    <use x="1058.642578" xlink:href="#DejaVuSans-68"/>
    <use x="1122.021484" xlink:href="#DejaVuSans-65"/>
    <use x="1183.544922" xlink:href="#DejaVuSans-20"/>
    <use x="1215.332031" xlink:href="#DejaVuSans-6d"/>
    <use x="1312.744141" xlink:href="#DejaVuSans-6f"/>
    <use x="1373.925781" xlink:href="#DejaVuSans-73"/>
    <use x="1426.025391" xlink:href="#DejaVuSans-74"/>
    <use x="1465.234375" xlink:href="#DejaVuSans-20"/>
    <use x="1497.021484" xlink:href="#DejaVuSans-69"/>
    <use x="1524.804688" xlink:href="#DejaVuSans-6e"/>
    <use x="1588.183594" xlink:href="#DejaVuSans-20"/>
   </g>
  </g>
 </g>
 <defs>
  <clipPath id="p494dbb6723">
   <rect height="266.112" width="357.12" x="49.591938" y="26.105371"/>
  </clipPath>
  <clipPath id="pcabe90a7d6">
   <path d="M 426.111938 123.582751 
L 426.111938 107.742751 
L 441.951937 107.742751 
L 441.951937 123.582751 
"/>
  </clipPath>
  <clipPath id="p201105bcab">
   <path d="M 426.111938 141.422751 
L 426.111938 125.582751 
L 441.951937 125.582751 
L 441.951937 141.422751 
"/>
  </clipPath>
  <clipPath id="p34ce441602">
   <path d="M 426.111938 159.262751 
L 426.111938 143.422751 
L 441.951937 143.422751 
L 441.951937 159.262751 
"/>
  </clipPath>
  <clipPath id="peed16b9158">
   <path d="M 426.111938 177.102751 
L 426.111938 161.262751 
L 441.951937 161.262751 
L 441.951937 177.102751 
"/>
  </clipPath>
  <clipPath id="pcc8c9e04f6">
   <path d="M 426.111938 222.475865 
L 426.111938 202.148688 
L 446.439114 202.148688 
L 446.439114 222.475865 
"/>
  </clipPath>
 </defs>
</svg>
