<?xml version="1.0" encoding="utf-8" standalone="no"?>
<!DOCTYPE svg PUBLIC "-//W3C//DTD SVG 1.1//EN"
  "http://www.w3.org/Graphics/SVG/1.1/DTD/svg11.dtd">
<svg height="327.930058pt" version="1.1" viewBox="0 0 704.838781 327.930058" width="704.838781pt" xmlns="http://www.w3.org/2000/svg" xmlns:xlink="http://www.w3.org/1999/xlink">
 <metadata>
  <rdf:RDF xmlns:cc="http://creativecommons.org/ns#" xmlns:dc="http://purl.org/dc/elements/1.1/" xmlns:rdf="http://www.w3.org/1999/02/22-rdf-syntax-ns#">
   <cc:Work>
    <dc:type rdf:resource="http://purl.org/dc/dcmitype/StillImage"/>
    <dc:date>2022-04-17T23:24:00.645892</dc:date>
    <dc:format>image/svg+xml</dc:format>
    <dc:creator>
     <cc:Agent>
      <dc:title>Matplotlib v3.4.3, https://matplotlib.org/</dc:title>
     </cc:Agent>
    </dc:creator>
   </cc:Work>
  </rdf:RDF>
 </metadata>
 <defs>
  <style type="text/css">*{stroke-linecap:butt;stroke-linejoin:round;}</style>
 </defs>
 <g id="figure_1">
  <g id="patch_1">
   <path d="M 0 327.930058 
L 704.838781 327.930058 
L 704.838781 0 
L 0 0 
z
" style="fill:#ffffff;stroke:#ffffff;stroke-linejoin:miter;"/>
  </g>
  <g id="axes_1">
   <g id="patch_2">
    <path d="M 152.471531 292.217371 
L 509.591531 292.217371 
L 509.591531 26.105371 
L 152.471531 26.105371 
z
" style="fill:#ffffff;stroke:#7f7f7f;stroke-linejoin:miter;"/>
   </g>
   <g id="matplotlib.axis_1">
    <g id="xtick_1">
     <g id="line2d_1">
      <path clip-path="url(#pfe40e1123d)" d="M 166.470843 292.217371 
L 166.470843 26.105371 
" style="fill:none;stroke:#e5e5e5;stroke-width:0.8;"/>
     </g>
     <g id="line2d_2">
      <path d="M 166.470843 292.217371 
" style="fill:none;stroke:#333333;stroke-width:1.5;"/>
      <defs>
       <path d="M 0 0 
L 0 2.75 
" id="mf6156b285d" style="stroke:#000000;"/>
      </defs>
      <g>
       <use style="fill:#333333;stroke:#000000;" x="166.470843" xlink:href="#mf6156b285d" y="292.217371"/>
      </g>
     </g>
     <g id="text_1">
      <!-- 0 -->
      <g style="fill:#4d4d4d;" transform="translate(163.671343 303.853996)scale(0.088 -0.088)">
       <defs>
        <path d="M 2034 4250 
Q 1547 4250 1301 3770 
Q 1056 3291 1056 2328 
Q 1056 1369 1301 889 
Q 1547 409 2034 409 
Q 2525 409 2770 889 
Q 3016 1369 3016 2328 
Q 3016 3291 2770 3770 
Q 2525 4250 2034 4250 
z
M 2034 4750 
Q 2819 4750 3233 4129 
Q 3647 3509 3647 2328 
Q 3647 1150 3233 529 
Q 2819 -91 2034 -91 
Q 1250 -91 836 529 
Q 422 1150 422 2328 
Q 422 3509 836 4129 
Q 1250 4750 2034 4750 
z
" id="DejaVuSans-30" transform="scale(0.015625)"/>
       </defs>
       <use xlink:href="#DejaVuSans-30"/>
      </g>
     </g>
    </g>
    <g id="xtick_2">
     <g id="line2d_3">
      <path clip-path="url(#pfe40e1123d)" d="M 233.139949 292.217371 
L 233.139949 26.105371 
" style="fill:none;stroke:#e5e5e5;stroke-width:0.8;"/>
     </g>
     <g id="line2d_4">
      <path d="M 233.139949 292.217371 
" style="fill:none;stroke:#333333;stroke-width:1.5;"/>
      <g>
       <use style="fill:#333333;stroke:#000000;" x="233.139949" xlink:href="#mf6156b285d" y="292.217371"/>
      </g>
     </g>
     <g id="text_2">
      <!-- 500 -->
      <g style="fill:#4d4d4d;" transform="translate(224.741449 303.853996)scale(0.088 -0.088)">
       <defs>
        <path d="M 691 4666 
L 3169 4666 
L 3169 4134 
L 1269 4134 
L 1269 2991 
Q 1406 3038 1543 3061 
Q 1681 3084 1819 3084 
Q 2600 3084 3056 2656 
Q 3513 2228 3513 1497 
Q 3513 744 3044 326 
Q 2575 -91 1722 -91 
Q 1428 -91 1123 -41 
Q 819 9 494 109 
L 494 744 
Q 775 591 1075 516 
Q 1375 441 1709 441 
Q 2250 441 2565 725 
Q 2881 1009 2881 1497 
Q 2881 1984 2565 2268 
Q 2250 2553 1709 2553 
Q 1456 2553 1204 2497 
Q 953 2441 691 2322 
L 691 4666 
z
" id="DejaVuSans-35" transform="scale(0.015625)"/>
       </defs>
       <use xlink:href="#DejaVuSans-35"/>
       <use x="63.623047" xlink:href="#DejaVuSans-30"/>
       <use x="127.246094" xlink:href="#DejaVuSans-30"/>
      </g>
     </g>
    </g>
    <g id="xtick_3">
     <g id="line2d_5">
      <path clip-path="url(#pfe40e1123d)" d="M 299.809056 292.217371 
L 299.809056 26.105371 
" style="fill:none;stroke:#e5e5e5;stroke-width:0.8;"/>
     </g>
     <g id="line2d_6">
      <path d="M 299.809056 292.217371 
" style="fill:none;stroke:#333333;stroke-width:1.5;"/>
      <g>
       <use style="fill:#333333;stroke:#000000;" x="299.809056" xlink:href="#mf6156b285d" y="292.217371"/>
      </g>
     </g>
     <g id="text_3">
      <!-- 1000 -->
      <g style="fill:#4d4d4d;" transform="translate(288.611056 303.853996)scale(0.088 -0.088)">
       <defs>
        <path d="M 794 531 
L 1825 531 
L 1825 4091 
L 703 3866 
L 703 4441 
L 1819 4666 
L 2450 4666 
L 2450 531 
L 3481 531 
L 3481 0 
L 794 0 
L 794 531 
z
" id="DejaVuSans-31" transform="scale(0.015625)"/>
       </defs>
       <use xlink:href="#DejaVuSans-31"/>
       <use x="63.623047" xlink:href="#DejaVuSans-30"/>
       <use x="127.246094" xlink:href="#DejaVuSans-30"/>
       <use x="190.869141" xlink:href="#DejaVuSans-30"/>
      </g>
     </g>
    </g>
    <g id="xtick_4">
     <g id="line2d_7">
      <path clip-path="url(#pfe40e1123d)" d="M 366.478162 292.217371 
L 366.478162 26.105371 
" style="fill:none;stroke:#e5e5e5;stroke-width:0.8;"/>
     </g>
     <g id="line2d_8">
      <path d="M 366.478162 292.217371 
" style="fill:none;stroke:#333333;stroke-width:1.5;"/>
      <g>
       <use style="fill:#333333;stroke:#000000;" x="366.478162" xlink:href="#mf6156b285d" y="292.217371"/>
      </g>
     </g>
     <g id="text_4">
      <!-- 1500 -->
      <g style="fill:#4d4d4d;" transform="translate(355.280162 303.853996)scale(0.088 -0.088)">
       <use xlink:href="#DejaVuSans-31"/>
       <use x="63.623047" xlink:href="#DejaVuSans-35"/>
       <use x="127.246094" xlink:href="#DejaVuSans-30"/>
       <use x="190.869141" xlink:href="#DejaVuSans-30"/>
      </g>
     </g>
    </g>
    <g id="xtick_5">
     <g id="line2d_9">
      <path clip-path="url(#pfe40e1123d)" d="M 433.147268 292.217371 
L 433.147268 26.105371 
" style="fill:none;stroke:#e5e5e5;stroke-width:0.8;"/>
     </g>
     <g id="line2d_10">
      <path d="M 433.147268 292.217371 
" style="fill:none;stroke:#333333;stroke-width:1.5;"/>
      <g>
       <use style="fill:#333333;stroke:#000000;" x="433.147268" xlink:href="#mf6156b285d" y="292.217371"/>
      </g>
     </g>
     <g id="text_5">
      <!-- 2000 -->
      <g style="fill:#4d4d4d;" transform="translate(421.949268 303.853996)scale(0.088 -0.088)">
       <defs>
        <path d="M 1228 531 
L 3431 531 
L 3431 0 
L 469 0 
L 469 531 
Q 828 903 1448 1529 
Q 2069 2156 2228 2338 
Q 2531 2678 2651 2914 
Q 2772 3150 2772 3378 
Q 2772 3750 2511 3984 
Q 2250 4219 1831 4219 
Q 1534 4219 1204 4116 
Q 875 4013 500 3803 
L 500 4441 
Q 881 4594 1212 4672 
Q 1544 4750 1819 4750 
Q 2544 4750 2975 4387 
Q 3406 4025 3406 3419 
Q 3406 3131 3298 2873 
Q 3191 2616 2906 2266 
Q 2828 2175 2409 1742 
Q 1991 1309 1228 531 
z
" id="DejaVuSans-32" transform="scale(0.015625)"/>
       </defs>
       <use xlink:href="#DejaVuSans-32"/>
       <use x="63.623047" xlink:href="#DejaVuSans-30"/>
       <use x="127.246094" xlink:href="#DejaVuSans-30"/>
       <use x="190.869141" xlink:href="#DejaVuSans-30"/>
      </g>
     </g>
    </g>
    <g id="xtick_6">
     <g id="line2d_11">
      <path clip-path="url(#pfe40e1123d)" d="M 499.816374 292.217371 
L 499.816374 26.105371 
" style="fill:none;stroke:#e5e5e5;stroke-width:0.8;"/>
     </g>
     <g id="line2d_12">
      <path d="M 499.816374 292.217371 
" style="fill:none;stroke:#333333;stroke-width:1.5;"/>
      <g>
       <use style="fill:#333333;stroke:#000000;" x="499.816374" xlink:href="#mf6156b285d" y="292.217371"/>
      </g>
     </g>
     <g id="text_6">
      <!-- 2500 -->
      <g style="fill:#4d4d4d;" transform="translate(488.618374 303.853996)scale(0.088 -0.088)">
       <use xlink:href="#DejaVuSans-32"/>
       <use x="63.623047" xlink:href="#DejaVuSans-35"/>
       <use x="127.246094" xlink:href="#DejaVuSans-30"/>
       <use x="190.869141" xlink:href="#DejaVuSans-30"/>
      </g>
     </g>
    </g>
    <g id="xtick_7">
     <g id="line2d_13">
      <path clip-path="url(#pfe40e1123d)" d="M 199.805396 292.217371 
L 199.805396 26.105371 
" style="fill:none;stroke:#fafafa;"/>
     </g>
    </g>
    <g id="xtick_8">
     <g id="line2d_14">
      <path clip-path="url(#pfe40e1123d)" d="M 266.474503 292.217371 
L 266.474503 26.105371 
" style="fill:none;stroke:#fafafa;"/>
     </g>
    </g>
    <g id="xtick_9">
     <g id="line2d_15">
      <path clip-path="url(#pfe40e1123d)" d="M 333.143609 292.217371 
L 333.143609 26.105371 
" style="fill:none;stroke:#fafafa;"/>
     </g>
    </g>
    <g id="xtick_10">
     <g id="line2d_16">
      <path clip-path="url(#pfe40e1123d)" d="M 399.812715 292.217371 
L 399.812715 26.105371 
" style="fill:none;stroke:#fafafa;"/>
     </g>
    </g>
    <g id="xtick_11">
     <g id="line2d_17">
      <path clip-path="url(#pfe40e1123d)" d="M 466.481821 292.217371 
L 466.481821 26.105371 
" style="fill:none;stroke:#fafafa;"/>
     </g>
    </g>
    <g id="text_7">
     <!-- Overtime hours -->
     <g transform="translate(282.405047 318.442402)scale(0.11 -0.11)">
      <defs>
       <path d="M 2522 4238 
Q 1834 4238 1429 3725 
Q 1025 3213 1025 2328 
Q 1025 1447 1429 934 
Q 1834 422 2522 422 
Q 3209 422 3611 934 
Q 4013 1447 4013 2328 
Q 4013 3213 3611 3725 
Q 3209 4238 2522 4238 
z
M 2522 4750 
Q 3503 4750 4090 4092 
Q 4678 3434 4678 2328 
Q 4678 1225 4090 567 
Q 3503 -91 2522 -91 
Q 1538 -91 948 565 
Q 359 1222 359 2328 
Q 359 3434 948 4092 
Q 1538 4750 2522 4750 
z
" id="DejaVuSans-4f" transform="scale(0.015625)"/>
       <path d="M 191 3500 
L 800 3500 
L 1894 563 
L 2988 3500 
L 3597 3500 
L 2284 0 
L 1503 0 
L 191 3500 
z
" id="DejaVuSans-76" transform="scale(0.015625)"/>
       <path d="M 3597 1894 
L 3597 1613 
L 953 1613 
Q 991 1019 1311 708 
Q 1631 397 2203 397 
Q 2534 397 2845 478 
Q 3156 559 3463 722 
L 3463 178 
Q 3153 47 2828 -22 
Q 2503 -91 2169 -91 
Q 1331 -91 842 396 
Q 353 884 353 1716 
Q 353 2575 817 3079 
Q 1281 3584 2069 3584 
Q 2775 3584 3186 3129 
Q 3597 2675 3597 1894 
z
M 3022 2063 
Q 3016 2534 2758 2815 
Q 2500 3097 2075 3097 
Q 1594 3097 1305 2825 
Q 1016 2553 972 2059 
L 3022 2063 
z
" id="DejaVuSans-65" transform="scale(0.015625)"/>
       <path d="M 2631 2963 
Q 2534 3019 2420 3045 
Q 2306 3072 2169 3072 
Q 1681 3072 1420 2755 
Q 1159 2438 1159 1844 
L 1159 0 
L 581 0 
L 581 3500 
L 1159 3500 
L 1159 2956 
Q 1341 3275 1631 3429 
Q 1922 3584 2338 3584 
Q 2397 3584 2469 3576 
Q 2541 3569 2628 3553 
L 2631 2963 
z
" id="DejaVuSans-72" transform="scale(0.015625)"/>
       <path d="M 1172 4494 
L 1172 3500 
L 2356 3500 
L 2356 3053 
L 1172 3053 
L 1172 1153 
Q 1172 725 1289 603 
Q 1406 481 1766 481 
L 2356 481 
L 2356 0 
L 1766 0 
Q 1100 0 847 248 
Q 594 497 594 1153 
L 594 3053 
L 172 3053 
L 172 3500 
L 594 3500 
L 594 4494 
L 1172 4494 
z
" id="DejaVuSans-74" transform="scale(0.015625)"/>
       <path d="M 603 3500 
L 1178 3500 
L 1178 0 
L 603 0 
L 603 3500 
z
M 603 4863 
L 1178 4863 
L 1178 4134 
L 603 4134 
L 603 4863 
z
" id="DejaVuSans-69" transform="scale(0.015625)"/>
       <path d="M 3328 2828 
Q 3544 3216 3844 3400 
Q 4144 3584 4550 3584 
Q 5097 3584 5394 3201 
Q 5691 2819 5691 2113 
L 5691 0 
L 5113 0 
L 5113 2094 
Q 5113 2597 4934 2840 
Q 4756 3084 4391 3084 
Q 3944 3084 3684 2787 
Q 3425 2491 3425 1978 
L 3425 0 
L 2847 0 
L 2847 2094 
Q 2847 2600 2669 2842 
Q 2491 3084 2119 3084 
Q 1678 3084 1418 2786 
Q 1159 2488 1159 1978 
L 1159 0 
L 581 0 
L 581 3500 
L 1159 3500 
L 1159 2956 
Q 1356 3278 1631 3431 
Q 1906 3584 2284 3584 
Q 2666 3584 2933 3390 
Q 3200 3197 3328 2828 
z
" id="DejaVuSans-6d" transform="scale(0.015625)"/>
       <path id="DejaVuSans-20" transform="scale(0.015625)"/>
       <path d="M 3513 2113 
L 3513 0 
L 2938 0 
L 2938 2094 
Q 2938 2591 2744 2837 
Q 2550 3084 2163 3084 
Q 1697 3084 1428 2787 
Q 1159 2491 1159 1978 
L 1159 0 
L 581 0 
L 581 4863 
L 1159 4863 
L 1159 2956 
Q 1366 3272 1645 3428 
Q 1925 3584 2291 3584 
Q 2894 3584 3203 3211 
Q 3513 2838 3513 2113 
z
" id="DejaVuSans-68" transform="scale(0.015625)"/>
       <path d="M 1959 3097 
Q 1497 3097 1228 2736 
Q 959 2375 959 1747 
Q 959 1119 1226 758 
Q 1494 397 1959 397 
Q 2419 397 2687 759 
Q 2956 1122 2956 1747 
Q 2956 2369 2687 2733 
Q 2419 3097 1959 3097 
z
M 1959 3584 
Q 2709 3584 3137 3096 
Q 3566 2609 3566 1747 
Q 3566 888 3137 398 
Q 2709 -91 1959 -91 
Q 1206 -91 779 398 
Q 353 888 353 1747 
Q 353 2609 779 3096 
Q 1206 3584 1959 3584 
z
" id="DejaVuSans-6f" transform="scale(0.015625)"/>
       <path d="M 544 1381 
L 544 3500 
L 1119 3500 
L 1119 1403 
Q 1119 906 1312 657 
Q 1506 409 1894 409 
Q 2359 409 2629 706 
Q 2900 1003 2900 1516 
L 2900 3500 
L 3475 3500 
L 3475 0 
L 2900 0 
L 2900 538 
Q 2691 219 2414 64 
Q 2138 -91 1772 -91 
Q 1169 -91 856 284 
Q 544 659 544 1381 
z
M 1991 3584 
L 1991 3584 
z
" id="DejaVuSans-75" transform="scale(0.015625)"/>
       <path d="M 2834 3397 
L 2834 2853 
Q 2591 2978 2328 3040 
Q 2066 3103 1784 3103 
Q 1356 3103 1142 2972 
Q 928 2841 928 2578 
Q 928 2378 1081 2264 
Q 1234 2150 1697 2047 
L 1894 2003 
Q 2506 1872 2764 1633 
Q 3022 1394 3022 966 
Q 3022 478 2636 193 
Q 2250 -91 1575 -91 
Q 1294 -91 989 -36 
Q 684 19 347 128 
L 347 722 
Q 666 556 975 473 
Q 1284 391 1588 391 
Q 1994 391 2212 530 
Q 2431 669 2431 922 
Q 2431 1156 2273 1281 
Q 2116 1406 1581 1522 
L 1381 1569 
Q 847 1681 609 1914 
Q 372 2147 372 2553 
Q 372 3047 722 3315 
Q 1072 3584 1716 3584 
Q 2034 3584 2315 3537 
Q 2597 3491 2834 3397 
z
" id="DejaVuSans-73" transform="scale(0.015625)"/>
      </defs>
      <use xlink:href="#DejaVuSans-4f"/>
      <use x="78.710938" xlink:href="#DejaVuSans-76"/>
      <use x="137.890625" xlink:href="#DejaVuSans-65"/>
      <use x="199.414062" xlink:href="#DejaVuSans-72"/>
      <use x="240.527344" xlink:href="#DejaVuSans-74"/>
      <use x="279.736328" xlink:href="#DejaVuSans-69"/>
      <use x="307.519531" xlink:href="#DejaVuSans-6d"/>
      <use x="404.931641" xlink:href="#DejaVuSans-65"/>
      <use x="466.455078" xlink:href="#DejaVuSans-20"/>
      <use x="498.242188" xlink:href="#DejaVuSans-68"/>
      <use x="561.621094" xlink:href="#DejaVuSans-6f"/>
      <use x="622.802734" xlink:href="#DejaVuSans-75"/>
      <use x="686.181641" xlink:href="#DejaVuSans-72"/>
      <use x="727.294922" xlink:href="#DejaVuSans-73"/>
     </g>
    </g>
   </g>
   <g id="matplotlib.axis_2">
    <g id="ytick_1">
     <g id="line2d_18">
      <path clip-path="url(#pfe40e1123d)" d="M 152.471531 283.278883 
L 509.591531 283.278883 
" style="fill:none;stroke:#e5e5e5;stroke-width:0.8;"/>
     </g>
     <g id="line2d_19">
      <path d="M 152.471531 283.278883 
" style="fill:none;stroke:#333333;stroke-width:1.5;"/>
      <defs>
       <path d="M 0 0 
L -2.75 0 
" id="me481bd370f" style="stroke:#000000;"/>
      </defs>
      <g>
       <use style="fill:#333333;stroke:#000000;" x="152.471531" xlink:href="#me481bd370f" y="283.278883"/>
      </g>
     </g>
     <g id="text_8">
      <!-- 0 -->
      <g style="fill:#4d4d4d;" transform="translate(141.922531 285.707133)scale(0.088 -0.088)">
       <use xlink:href="#DejaVuSans-30"/>
      </g>
     </g>
    </g>
    <g id="ytick_2">
     <g id="line2d_20">
      <path clip-path="url(#pfe40e1123d)" d="M 152.471531 209.591306 
L 509.591531 209.591306 
" style="fill:none;stroke:#e5e5e5;stroke-width:0.8;"/>
     </g>
     <g id="line2d_21">
      <path d="M 152.471531 209.591306 
" style="fill:none;stroke:#333333;stroke-width:1.5;"/>
      <g>
       <use style="fill:#333333;stroke:#000000;" x="152.471531" xlink:href="#me481bd370f" y="209.591306"/>
      </g>
     </g>
     <g id="text_9">
      <!-- 200 -->
      <g style="fill:#4d4d4d;" transform="translate(130.724531 212.019556)scale(0.088 -0.088)">
       <use xlink:href="#DejaVuSans-32"/>
       <use x="63.623047" xlink:href="#DejaVuSans-30"/>
       <use x="127.246094" xlink:href="#DejaVuSans-30"/>
      </g>
     </g>
    </g>
    <g id="ytick_3">
     <g id="line2d_22">
      <path clip-path="url(#pfe40e1123d)" d="M 152.471531 135.903729 
L 509.591531 135.903729 
" style="fill:none;stroke:#e5e5e5;stroke-width:0.8;"/>
     </g>
     <g id="line2d_23">
      <path d="M 152.471531 135.903729 
" style="fill:none;stroke:#333333;stroke-width:1.5;"/>
      <g>
       <use style="fill:#333333;stroke:#000000;" x="152.471531" xlink:href="#me481bd370f" y="135.903729"/>
      </g>
     </g>
     <g id="text_10">
      <!-- 400 -->
      <g style="fill:#4d4d4d;" transform="translate(130.724531 138.331979)scale(0.088 -0.088)">
       <defs>
        <path d="M 2419 4116 
L 825 1625 
L 2419 1625 
L 2419 4116 
z
M 2253 4666 
L 3047 4666 
L 3047 1625 
L 3713 1625 
L 3713 1100 
L 3047 1100 
L 3047 0 
L 2419 0 
L 2419 1100 
L 313 1100 
L 313 1709 
L 2253 4666 
z
" id="DejaVuSans-34" transform="scale(0.015625)"/>
       </defs>
       <use xlink:href="#DejaVuSans-34"/>
       <use x="63.623047" xlink:href="#DejaVuSans-30"/>
       <use x="127.246094" xlink:href="#DejaVuSans-30"/>
      </g>
     </g>
    </g>
    <g id="ytick_4">
     <g id="line2d_24">
      <path clip-path="url(#pfe40e1123d)" d="M 152.471531 62.216152 
L 509.591531 62.216152 
" style="fill:none;stroke:#e5e5e5;stroke-width:0.8;"/>
     </g>
     <g id="line2d_25">
      <path d="M 152.471531 62.216152 
" style="fill:none;stroke:#333333;stroke-width:1.5;"/>
      <g>
       <use style="fill:#333333;stroke:#000000;" x="152.471531" xlink:href="#me481bd370f" y="62.216152"/>
      </g>
     </g>
     <g id="text_11">
      <!-- 600 -->
      <g style="fill:#4d4d4d;" transform="translate(130.724531 64.644402)scale(0.088 -0.088)">
       <defs>
        <path d="M 2113 2584 
Q 1688 2584 1439 2293 
Q 1191 2003 1191 1497 
Q 1191 994 1439 701 
Q 1688 409 2113 409 
Q 2538 409 2786 701 
Q 3034 994 3034 1497 
Q 3034 2003 2786 2293 
Q 2538 2584 2113 2584 
z
M 3366 4563 
L 3366 3988 
Q 3128 4100 2886 4159 
Q 2644 4219 2406 4219 
Q 1781 4219 1451 3797 
Q 1122 3375 1075 2522 
Q 1259 2794 1537 2939 
Q 1816 3084 2150 3084 
Q 2853 3084 3261 2657 
Q 3669 2231 3669 1497 
Q 3669 778 3244 343 
Q 2819 -91 2113 -91 
Q 1303 -91 875 529 
Q 447 1150 447 2328 
Q 447 3434 972 4092 
Q 1497 4750 2381 4750 
Q 2619 4750 2861 4703 
Q 3103 4656 3366 4563 
z
" id="DejaVuSans-36" transform="scale(0.015625)"/>
       </defs>
       <use xlink:href="#DejaVuSans-36"/>
       <use x="63.623047" xlink:href="#DejaVuSans-30"/>
       <use x="127.246094" xlink:href="#DejaVuSans-30"/>
      </g>
     </g>
    </g>
    <g id="ytick_5">
     <g id="line2d_26">
      <path clip-path="url(#pfe40e1123d)" d="M 152.471531 246.435095 
L 509.591531 246.435095 
" style="fill:none;stroke:#fafafa;"/>
     </g>
    </g>
    <g id="ytick_6">
     <g id="line2d_27">
      <path clip-path="url(#pfe40e1123d)" d="M 152.471531 172.747518 
L 509.591531 172.747518 
" style="fill:none;stroke:#fafafa;"/>
     </g>
    </g>
    <g id="ytick_7">
     <g id="line2d_28">
      <path clip-path="url(#pfe40e1123d)" d="M 152.471531 99.059941 
L 509.591531 99.059941 
" style="fill:none;stroke:#fafafa;"/>
     </g>
    </g>
    <g id="text_12">
     <!-- Regular hours worked -->
     <g transform="translate(124.036875 217.472746)rotate(-90)scale(0.11 -0.11)">
      <defs>
       <path d="M 2841 2188 
Q 3044 2119 3236 1894 
Q 3428 1669 3622 1275 
L 4263 0 
L 3584 0 
L 2988 1197 
Q 2756 1666 2539 1819 
Q 2322 1972 1947 1972 
L 1259 1972 
L 1259 0 
L 628 0 
L 628 4666 
L 2053 4666 
Q 2853 4666 3247 4331 
Q 3641 3997 3641 3322 
Q 3641 2881 3436 2590 
Q 3231 2300 2841 2188 
z
M 1259 4147 
L 1259 2491 
L 2053 2491 
Q 2509 2491 2742 2702 
Q 2975 2913 2975 3322 
Q 2975 3731 2742 3939 
Q 2509 4147 2053 4147 
L 1259 4147 
z
" id="DejaVuSans-52" transform="scale(0.015625)"/>
       <path d="M 2906 1791 
Q 2906 2416 2648 2759 
Q 2391 3103 1925 3103 
Q 1463 3103 1205 2759 
Q 947 2416 947 1791 
Q 947 1169 1205 825 
Q 1463 481 1925 481 
Q 2391 481 2648 825 
Q 2906 1169 2906 1791 
z
M 3481 434 
Q 3481 -459 3084 -895 
Q 2688 -1331 1869 -1331 
Q 1566 -1331 1297 -1286 
Q 1028 -1241 775 -1147 
L 775 -588 
Q 1028 -725 1275 -790 
Q 1522 -856 1778 -856 
Q 2344 -856 2625 -561 
Q 2906 -266 2906 331 
L 2906 616 
Q 2728 306 2450 153 
Q 2172 0 1784 0 
Q 1141 0 747 490 
Q 353 981 353 1791 
Q 353 2603 747 3093 
Q 1141 3584 1784 3584 
Q 2172 3584 2450 3431 
Q 2728 3278 2906 2969 
L 2906 3500 
L 3481 3500 
L 3481 434 
z
" id="DejaVuSans-67" transform="scale(0.015625)"/>
       <path d="M 603 4863 
L 1178 4863 
L 1178 0 
L 603 0 
L 603 4863 
z
" id="DejaVuSans-6c" transform="scale(0.015625)"/>
       <path d="M 2194 1759 
Q 1497 1759 1228 1600 
Q 959 1441 959 1056 
Q 959 750 1161 570 
Q 1363 391 1709 391 
Q 2188 391 2477 730 
Q 2766 1069 2766 1631 
L 2766 1759 
L 2194 1759 
z
M 3341 1997 
L 3341 0 
L 2766 0 
L 2766 531 
Q 2569 213 2275 61 
Q 1981 -91 1556 -91 
Q 1019 -91 701 211 
Q 384 513 384 1019 
Q 384 1609 779 1909 
Q 1175 2209 1959 2209 
L 2766 2209 
L 2766 2266 
Q 2766 2663 2505 2880 
Q 2244 3097 1772 3097 
Q 1472 3097 1187 3025 
Q 903 2953 641 2809 
L 641 3341 
Q 956 3463 1253 3523 
Q 1550 3584 1831 3584 
Q 2591 3584 2966 3190 
Q 3341 2797 3341 1997 
z
" id="DejaVuSans-61" transform="scale(0.015625)"/>
       <path d="M 269 3500 
L 844 3500 
L 1563 769 
L 2278 3500 
L 2956 3500 
L 3675 769 
L 4391 3500 
L 4966 3500 
L 4050 0 
L 3372 0 
L 2619 2869 
L 1863 0 
L 1184 0 
L 269 3500 
z
" id="DejaVuSans-77" transform="scale(0.015625)"/>
       <path d="M 581 4863 
L 1159 4863 
L 1159 1991 
L 2875 3500 
L 3609 3500 
L 1753 1863 
L 3688 0 
L 2938 0 
L 1159 1709 
L 1159 0 
L 581 0 
L 581 4863 
z
" id="DejaVuSans-6b" transform="scale(0.015625)"/>
       <path d="M 2906 2969 
L 2906 4863 
L 3481 4863 
L 3481 0 
L 2906 0 
L 2906 525 
Q 2725 213 2448 61 
Q 2172 -91 1784 -91 
Q 1150 -91 751 415 
Q 353 922 353 1747 
Q 353 2572 751 3078 
Q 1150 3584 1784 3584 
Q 2172 3584 2448 3432 
Q 2725 3281 2906 2969 
z
M 947 1747 
Q 947 1113 1208 752 
Q 1469 391 1925 391 
Q 2381 391 2643 752 
Q 2906 1113 2906 1747 
Q 2906 2381 2643 2742 
Q 2381 3103 1925 3103 
Q 1469 3103 1208 2742 
Q 947 2381 947 1747 
z
" id="DejaVuSans-64" transform="scale(0.015625)"/>
      </defs>
      <use xlink:href="#DejaVuSans-52"/>
      <use x="64.982422" xlink:href="#DejaVuSans-65"/>
      <use x="126.505859" xlink:href="#DejaVuSans-67"/>
      <use x="189.982422" xlink:href="#DejaVuSans-75"/>
      <use x="253.361328" xlink:href="#DejaVuSans-6c"/>
      <use x="281.144531" xlink:href="#DejaVuSans-61"/>
      <use x="342.423828" xlink:href="#DejaVuSans-72"/>
      <use x="383.537109" xlink:href="#DejaVuSans-20"/>
      <use x="415.324219" xlink:href="#DejaVuSans-68"/>
      <use x="478.703125" xlink:href="#DejaVuSans-6f"/>
      <use x="539.884766" xlink:href="#DejaVuSans-75"/>
      <use x="603.263672" xlink:href="#DejaVuSans-72"/>
      <use x="644.376953" xlink:href="#DejaVuSans-73"/>
      <use x="696.476562" xlink:href="#DejaVuSans-20"/>
      <use x="728.263672" xlink:href="#DejaVuSans-77"/>
      <use x="810.050781" xlink:href="#DejaVuSans-6f"/>
      <use x="871.232422" xlink:href="#DejaVuSans-72"/>
      <use x="912.345703" xlink:href="#DejaVuSans-6b"/>
      <use x="966.630859" xlink:href="#DejaVuSans-65"/>
      <use x="1028.154297" xlink:href="#DejaVuSans-64"/>
     </g>
    </g>
   </g>
   <g id="PathCollection_1">
    <path clip-path="url(#pfe40e1123d)" d="M 180.338018 247.150132 
C 180.808078 247.150132 181.258949 246.963375 181.591332 246.630992 
C 181.923714 246.298609 182.110471 245.847738 182.110471 245.377678 
C 182.110471 244.907618 181.923714 244.456747 181.591332 244.124364 
C 181.258949 243.791981 180.808078 243.605224 180.338018 243.605224 
C 179.867957 243.605224 179.417086 243.791981 179.084703 244.124364 
C 178.752321 244.456747 178.565564 244.907618 178.565564 245.377678 
C 178.565564 245.847738 178.752321 246.298609 179.084703 246.630992 
C 179.417086 246.963375 179.867957 247.150132 180.338018 247.150132 
z
" style="fill:#5f57db;stroke:#5f57db;stroke-width:0.886227;"/>
    <path clip-path="url(#pfe40e1123d)" d="M 251.873968 62.194313 
C 252.344029 62.194313 252.7949 62.007557 253.127282 61.675174 
C 253.459665 61.342791 253.646422 60.89192 253.646422 60.42186 
C 253.646422 59.951799 253.459665 59.500928 253.127282 59.168545 
C 252.7949 58.836163 252.344029 58.649406 251.873968 58.649406 
C 251.403908 58.649406 250.953037 58.836163 250.620654 59.168545 
C 250.288271 59.500928 250.101514 59.951799 250.101514 60.42186 
C 250.101514 60.89192 250.288271 61.342791 250.620654 61.675174 
C 250.953037 62.007557 251.403908 62.194313 251.873968 62.194313 
z
" style="fill:#57db5f;stroke:#57db5f;stroke-width:0.886227;"/>
    <path clip-path="url(#pfe40e1123d)" d="M 193.434497 230.312521 
C 193.904557 230.312521 194.355428 230.125764 194.687811 229.793381 
C 195.020194 229.460998 195.206951 229.010127 195.206951 228.540067 
C 195.206951 228.070006 195.020194 227.619135 194.687811 227.286753 
C 194.355428 226.95437 193.904557 226.767613 193.434497 226.767613 
C 192.964436 226.767613 192.513565 226.95437 192.181183 227.286753 
C 191.8488 227.619135 191.662043 228.070006 191.662043 228.540067 
C 191.662043 229.010127 191.8488 229.460998 192.181183 229.793381 
C 192.513565 230.125764 192.964436 230.312521 193.434497 230.312521 
z
" style="fill:#5f57db;stroke:#5f57db;stroke-width:0.886227;"/>
    <path clip-path="url(#pfe40e1123d)" d="M 187.804957 230.312521 
C 188.275018 230.312521 188.725889 230.125764 189.058272 229.793381 
C 189.390654 229.460998 189.577411 229.010127 189.577411 228.540067 
C 189.577411 228.070006 189.390654 227.619135 189.058272 227.286753 
C 188.725889 226.95437 188.275018 226.767613 187.804957 226.767613 
C 187.334897 226.767613 186.884026 226.95437 186.551643 227.286753 
C 186.21926 227.619135 186.032504 228.070006 186.032504 228.540067 
C 186.032504 229.010127 186.21926 229.460998 186.551643 229.793381 
C 186.884026 230.125764 187.334897 230.312521 187.804957 230.312521 
z
" style="fill:#5f57db;stroke:#5f57db;stroke-width:0.886227;"/>
    <path clip-path="url(#pfe40e1123d)" d="M 180.324684 247.146448 
C 180.794744 247.146448 181.245615 246.959691 181.577998 246.627308 
C 181.910381 246.294925 182.097138 245.844054 182.097138 245.373994 
C 182.097138 244.903933 181.910381 244.453062 181.577998 244.12068 
C 181.245615 243.788297 180.794744 243.60154 180.324684 243.60154 
C 179.854623 243.60154 179.403752 243.788297 179.07137 244.12068 
C 178.738987 244.453062 178.55223 244.903933 178.55223 245.373994 
C 178.55223 245.844054 178.738987 246.294925 179.07137 246.627308 
C 179.403752 246.959691 179.854623 247.146448 180.324684 247.146448 
z
" style="fill:#5f57db;stroke:#5f57db;stroke-width:0.886227;"/>
    <path clip-path="url(#pfe40e1123d)" d="M 493.358804 39.973825 
C 493.828864 39.973825 494.279735 39.787068 494.612118 39.454685 
C 494.944501 39.122302 495.131258 38.671431 495.131258 38.201371 
C 495.131258 37.73131 494.944501 37.280439 494.612118 36.948057 
C 494.279735 36.615674 493.828864 36.428917 493.358804 36.428917 
C 492.888744 36.428917 492.437873 36.615674 492.10549 36.948057 
C 491.773107 37.280439 491.58635 37.73131 491.58635 38.201371 
C 491.58635 38.671431 491.773107 39.122302 492.10549 39.454685 
C 492.437873 39.787068 492.888744 39.973825 493.358804 39.973825 
z
" style="fill:#5f57db;stroke:#5f57db;stroke-width:0.886227;"/>
    <path clip-path="url(#pfe40e1123d)" d="M 198.472014 200.826437 
C 198.942075 200.826437 199.392946 200.63968 199.725328 200.307297 
C 200.057711 199.974914 200.244468 199.524043 200.244468 199.053983 
C 200.244468 198.583923 200.057711 198.133051 199.725328 197.800669 
C 199.392946 197.468286 198.942075 197.281529 198.472014 197.281529 
C 198.001954 197.281529 197.551083 197.468286 197.2187 197.800669 
C 196.886317 198.133051 196.699561 198.583923 196.699561 199.053983 
C 196.699561 199.524043 196.886317 199.974914 197.2187 200.307297 
C 197.551083 200.63968 198.001954 200.826437 198.472014 200.826437 
z
" style="fill:#5f57db;stroke:#5f57db;stroke-width:0.886227;"/>
    <path clip-path="url(#pfe40e1123d)" d="M 203.994883 202.933901 
C 204.464943 202.933901 204.915814 202.747144 205.248197 202.414762 
C 205.58058 202.082379 205.767337 201.631508 205.767337 201.161447 
C 205.767337 200.691387 205.58058 200.240516 205.248197 199.908133 
C 204.915814 199.575751 204.464943 199.388994 203.994883 199.388994 
C 203.524823 199.388994 203.073952 199.575751 202.741569 199.908133 
C 202.409186 200.240516 202.222429 200.691387 202.222429 201.161447 
C 202.222429 201.631508 202.409186 202.082379 202.741569 202.414762 
C 203.073952 202.747144 203.524823 202.933901 203.994883 202.933901 
z
" style="fill:#5f57db;stroke:#5f57db;stroke-width:0.886227;"/>
    <path clip-path="url(#pfe40e1123d)" d="M 185.494206 234.512712 
C 185.964266 234.512712 186.415138 234.325956 186.74752 233.993573 
C 187.079903 233.66119 187.26666 233.210319 187.26666 232.740259 
C 187.26666 232.270198 187.079903 231.819327 186.74752 231.486945 
C 186.415138 231.154562 185.964266 230.967805 185.494206 230.967805 
C 185.024146 230.967805 184.573275 231.154562 184.240892 231.486945 
C 183.908509 231.819327 183.721752 232.270198 183.721752 232.740259 
C 183.721752 233.210319 183.908509 233.66119 184.240892 233.993573 
C 184.573275 234.325956 185.024146 234.512712 185.494206 234.512712 
z
" style="fill:#5f57db;stroke:#5f57db;stroke-width:0.886227;"/>
    <path clip-path="url(#pfe40e1123d)" d="M 190.405053 232.408932 
C 190.875113 232.408932 191.325984 232.222175 191.658367 231.889792 
C 191.990749 231.55741 192.177506 231.106539 192.177506 230.636478 
C 192.177506 230.166418 191.990749 229.715547 191.658367 229.383164 
C 191.325984 229.050781 190.875113 228.864024 190.405053 228.864024 
C 189.934992 228.864024 189.484121 229.050781 189.151738 229.383164 
C 188.819356 229.715547 188.632599 230.166418 188.632599 230.636478 
C 188.632599 231.106539 188.819356 231.55741 189.151738 231.889792 
C 189.484121 232.222175 189.934992 232.408932 190.405053 232.408932 
z
" style="fill:#5f57db;stroke:#5f57db;stroke-width:0.886227;"/>
    <path clip-path="url(#pfe40e1123d)" d="M 196.861289 202.933901 
C 197.331349 202.933901 197.78222 202.747144 198.114603 202.414762 
C 198.446986 202.082379 198.633743 201.631508 198.633743 201.161447 
C 198.633743 200.691387 198.446986 200.240516 198.114603 199.908133 
C 197.78222 199.575751 197.331349 199.388994 196.861289 199.388994 
C 196.391229 199.388994 195.940357 199.575751 195.607975 199.908133 
C 195.275592 200.240516 195.088835 200.691387 195.088835 201.161447 
C 195.088835 201.631508 195.275592 202.082379 195.607975 202.414762 
C 195.940357 202.747144 196.391229 202.933901 196.861289 202.933901 
z
" style="fill:#5f57db;stroke:#5f57db;stroke-width:0.886227;"/>
    <path clip-path="url(#pfe40e1123d)" d="M 192.138449 242.938887 
C 192.60851 242.938887 193.059381 242.75213 193.391763 242.419747 
C 193.724146 242.087364 193.910903 241.636493 193.910903 241.166433 
C 193.910903 240.696373 193.724146 240.245502 193.391763 239.913119 
C 193.059381 239.580736 192.60851 239.393979 192.138449 239.393979 
C 191.668389 239.393979 191.217518 239.580736 190.885135 239.913119 
C 190.552752 240.245502 190.365995 240.696373 190.365995 241.166433 
C 190.365995 241.636493 190.552752 242.087364 190.885135 242.419747 
C 191.217518 242.75213 191.668389 242.938887 192.138449 242.938887 
z
" style="fill:#5f57db;stroke:#5f57db;stroke-width:0.886227;"/>
    <path clip-path="url(#pfe40e1123d)" d="M 197.482645 202.933901 
C 197.952705 202.933901 198.403576 202.747144 198.735959 202.414762 
C 199.068342 202.082379 199.255099 201.631508 199.255099 201.161447 
C 199.255099 200.691387 199.068342 200.240516 198.735959 199.908133 
C 198.403576 199.575751 197.952705 199.388994 197.482645 199.388994 
C 197.012585 199.388994 196.561713 199.575751 196.229331 199.908133 
C 195.896948 200.240516 195.710191 200.691387 195.710191 201.161447 
C 195.710191 201.631508 195.896948 202.082379 196.229331 202.414762 
C 196.561713 202.747144 197.012585 202.933901 197.482645 202.933901 
z
" style="fill:#5f57db;stroke:#5f57db;stroke-width:0.886227;"/>
    <path clip-path="url(#pfe40e1123d)" d="M 173.960451 268.206357 
C 174.430511 268.206357 174.881382 268.0196 175.213765 267.687217 
C 175.546148 267.354835 175.732905 266.903964 175.732905 266.433903 
C 175.732905 265.963843 175.546148 265.512972 175.213765 265.180589 
C 174.881382 264.848206 174.430511 264.661449 173.960451 264.661449 
C 173.490391 264.661449 173.039519 264.848206 172.707137 265.180589 
C 172.374754 265.512972 172.187997 265.963843 172.187997 266.433903 
C 172.187997 266.903964 172.374754 267.354835 172.707137 267.687217 
C 173.039519 268.0196 173.490391 268.206357 173.960451 268.206357 
z
" style="fill:#5f57db;stroke:#5f57db;stroke-width:0.886227;"/>
    <path clip-path="url(#pfe40e1123d)" d="M 187.404943 242.938887 
C 187.875003 242.938887 188.325874 242.75213 188.658257 242.419747 
C 188.99064 242.087364 189.177397 241.636493 189.177397 241.166433 
C 189.177397 240.696373 188.99064 240.245502 188.658257 239.913119 
C 188.325874 239.580736 187.875003 239.393979 187.404943 239.393979 
C 186.934883 239.393979 186.484011 239.580736 186.151629 239.913119 
C 185.819246 240.245502 185.632489 240.696373 185.632489 241.166433 
C 185.632489 241.636493 185.819246 242.087364 186.151629 242.419747 
C 186.484011 242.75213 186.934883 242.938887 187.404943 242.938887 
z
" style="fill:#5f57db;stroke:#5f57db;stroke-width:0.886227;"/>
    <path clip-path="url(#pfe40e1123d)" d="M 178.737959 255.576306 
C 179.208019 255.576306 179.65889 255.389549 179.991273 255.057167 
C 180.323656 254.724784 180.510413 254.273913 180.510413 253.803853 
C 180.510413 253.333792 180.323656 252.882921 179.991273 252.550538 
C 179.65889 252.218156 179.208019 252.031399 178.737959 252.031399 
C 178.267899 252.031399 177.817028 252.218156 177.484645 252.550538 
C 177.152262 252.882921 176.965505 253.333792 176.965505 253.803853 
C 176.965505 254.273913 177.152262 254.724784 177.484645 255.057167 
C 177.817028 255.389549 178.267899 255.576306 178.737959 255.576306 
z
" style="fill:#5f57db;stroke:#5f57db;stroke-width:0.886227;"/>
    <path clip-path="url(#pfe40e1123d)" d="M 168.704259 280.840092 
C 169.174319 280.840092 169.62519 280.653335 169.957573 280.320953 
C 170.289955 279.98857 170.476712 279.537699 170.476712 279.067638 
C 170.476712 278.597578 170.289955 278.146707 169.957573 277.814324 
C 169.62519 277.481941 169.174319 277.295185 168.704259 277.295185 
C 168.234198 277.295185 167.783327 277.481941 167.450944 277.814324 
C 167.118562 278.146707 166.931805 278.597578 166.931805 279.067638 
C 166.931805 279.537699 167.118562 279.98857 167.450944 280.320953 
C 167.783327 280.653335 168.234198 280.840092 168.704259 280.840092 
z
" style="fill:#5f57db;stroke:#5f57db;stroke-width:0.886227;"/>
    <path clip-path="url(#pfe40e1123d)" d="M 169.314948 281.893825 
C 169.785008 281.893825 170.235879 281.707068 170.568262 281.374685 
C 170.900644 281.042302 171.087401 280.591431 171.087401 280.121371 
C 171.087401 279.65131 170.900644 279.200439 170.568262 278.868057 
C 170.235879 278.535674 169.785008 278.348917 169.314948 278.348917 
C 168.844887 278.348917 168.394016 278.535674 168.061633 278.868057 
C 167.729251 279.200439 167.542494 279.65131 167.542494 280.121371 
C 167.542494 280.591431 167.729251 281.042302 168.061633 281.374685 
C 168.394016 281.707068 168.844887 281.893825 169.314948 281.893825 
z
" style="fill:#5f57db;stroke:#5f57db;stroke-width:0.886227;"/>
    <path clip-path="url(#pfe40e1123d)" d="M 169.404284 279.156331 
C 169.874344 279.156331 170.325215 278.969574 170.657598 278.637191 
C 170.989981 278.304809 171.176738 277.853937 171.176738 277.383877 
C 171.176738 276.913817 170.989981 276.462946 170.657598 276.130563 
C 170.325215 275.79818 169.874344 275.611423 169.404284 275.611423 
C 168.934224 275.611423 168.483353 275.79818 168.15097 276.130563 
C 167.818587 276.462946 167.63183 276.913817 167.63183 277.383877 
C 167.63183 277.853937 167.818587 278.304809 168.15097 278.637191 
C 168.483353 278.969574 168.934224 279.156331 169.404284 279.156331 
z
" style="fill:#5f57db;stroke:#5f57db;stroke-width:0.886227;"/>
    <path clip-path="url(#pfe40e1123d)" d="M 175.104493 269.576946 
C 175.574553 269.576946 176.025424 269.390189 176.357807 269.057806 
C 176.69019 268.725424 176.876947 268.274552 176.876947 267.804492 
C 176.876947 267.334432 176.69019 266.883561 176.357807 266.551178 
C 176.025424 266.218795 175.574553 266.032038 175.104493 266.032038 
C 174.634432 266.032038 174.183561 266.218795 173.851179 266.551178 
C 173.518796 266.883561 173.332039 267.334432 173.332039 267.804492 
C 173.332039 268.274552 173.518796 268.725424 173.851179 269.057806 
C 174.183561 269.390189 174.634432 269.576946 175.104493 269.576946 
z
" style="fill:#db5f57;stroke:#db5f57;stroke-width:0.886227;"/>
    <path clip-path="url(#pfe40e1123d)" d="M 231.517223 182.909302 
C 231.987284 182.909302 232.438155 182.722545 232.770538 182.390163 
C 233.10292 182.05778 233.289677 181.606909 233.289677 181.136848 
C 233.289677 180.666788 233.10292 180.215917 232.770538 179.883534 
C 232.438155 179.551151 231.987284 179.364395 231.517223 179.364395 
C 231.047163 179.364395 230.596292 179.551151 230.263909 179.883534 
C 229.931527 180.215917 229.74477 180.666788 229.74477 181.136848 
C 229.74477 181.606909 229.931527 182.05778 230.263909 182.390163 
C 230.596292 182.722545 231.047163 182.909302 231.517223 182.909302 
z
" style="fill:#5f57db;stroke:#5f57db;stroke-width:0.886227;"/>
    <path clip-path="url(#pfe40e1123d)" d="M 199.661391 196.626245 
C 200.131451 196.626245 200.582323 196.439488 200.914705 196.107105 
C 201.247088 195.774722 201.433845 195.323851 201.433845 194.853791 
C 201.433845 194.383731 201.247088 193.93286 200.914705 193.600477 
C 200.582323 193.268094 200.131451 193.081337 199.661391 193.081337 
C 199.191331 193.081337 198.74046 193.268094 198.408077 193.600477 
C 198.075694 193.93286 197.888937 194.383731 197.888937 194.853791 
C 197.888937 195.323851 198.075694 195.774722 198.408077 196.107105 
C 198.74046 196.439488 199.191331 196.626245 199.661391 196.626245 
z
" style="fill:#5f57db;stroke:#5f57db;stroke-width:0.886227;"/>
    <path clip-path="url(#pfe40e1123d)" d="M 220.676827 137.757239 
C 221.146887 137.757239 221.597758 137.570482 221.930141 137.2381 
C 222.262524 136.905717 222.449281 136.454846 222.449281 135.984786 
C 222.449281 135.514725 222.262524 135.063854 221.930141 134.731471 
C 221.597758 134.399089 221.146887 134.212332 220.676827 134.212332 
C 220.206767 134.212332 219.755895 134.399089 219.423513 134.731471 
C 219.09113 135.063854 218.904373 135.514725 218.904373 135.984786 
C 218.904373 136.454846 219.09113 136.905717 219.423513 137.2381 
C 219.755895 137.570482 220.206767 137.757239 220.676827 137.757239 
z
" style="fill:#5f57db;stroke:#5f57db;stroke-width:0.886227;"/>
    <path clip-path="url(#pfe40e1123d)" d="M 201.094777 198.718972 
C 201.564837 198.718972 202.015708 198.532215 202.348091 198.199832 
C 202.680474 197.867449 202.867231 197.416578 202.867231 196.946518 
C 202.867231 196.476458 202.680474 196.025587 202.348091 195.693204 
C 202.015708 195.360821 201.564837 195.174064 201.094777 195.174064 
C 200.624717 195.174064 200.173846 195.360821 199.841463 195.693204 
C 199.50908 196.025587 199.322323 196.476458 199.322323 196.946518 
C 199.322323 197.416578 199.50908 197.867449 199.841463 198.199832 
C 200.173846 198.532215 200.624717 198.718972 201.094777 198.718972 
z
" style="fill:#5f57db;stroke:#5f57db;stroke-width:0.886227;"/>
    <path clip-path="url(#pfe40e1123d)" d="M 219.516784 198.718972 
C 219.986845 198.718972 220.437716 198.532215 220.770099 198.199832 
C 221.102481 197.867449 221.289238 197.416578 221.289238 196.946518 
C 221.289238 196.476458 221.102481 196.025587 220.770099 195.693204 
C 220.437716 195.360821 219.986845 195.174064 219.516784 195.174064 
C 219.046724 195.174064 218.595853 195.360821 218.26347 195.693204 
C 217.931087 196.025587 217.744331 196.476458 217.744331 196.946518 
C 217.744331 197.416578 217.931087 197.867449 218.26347 198.199832 
C 218.595853 198.532215 219.046724 198.718972 219.516784 198.718972 
z
" style="fill:#5f57db;stroke:#5f57db;stroke-width:0.886227;"/>
    <path clip-path="url(#pfe40e1123d)" d="M 199.298711 218.761993 
C 199.768772 218.761993 200.219643 218.575236 200.552025 218.242853 
C 200.884408 217.91047 201.071165 217.459599 201.071165 216.989539 
C 201.071165 216.519479 200.884408 216.068608 200.552025 215.736225 
C 200.219643 215.403842 199.768772 215.217085 199.298711 215.217085 
C 198.828651 215.217085 198.37778 215.403842 198.045397 215.736225 
C 197.713014 216.068608 197.526257 216.519479 197.526257 216.989539 
C 197.526257 217.459599 197.713014 217.91047 198.045397 218.242853 
C 198.37778 218.575236 198.828651 218.761993 199.298711 218.761993 
z
" style="fill:#5f57db;stroke:#5f57db;stroke-width:0.886227;"/>
    <path clip-path="url(#pfe40e1123d)" d="M 232.095911 198.718972 
C 232.565972 198.718972 233.016843 198.532215 233.349225 198.199832 
C 233.681608 197.867449 233.868365 197.416578 233.868365 196.946518 
C 233.868365 196.476458 233.681608 196.025587 233.349225 195.693204 
C 233.016843 195.360821 232.565972 195.174064 232.095911 195.174064 
C 231.625851 195.174064 231.17498 195.360821 230.842597 195.693204 
C 230.510214 196.025587 230.323457 196.476458 230.323457 196.946518 
C 230.323457 197.416578 230.510214 197.867449 230.842597 198.199832 
C 231.17498 198.532215 231.625851 198.718972 232.095911 198.718972 
z
" style="fill:#5f57db;stroke:#5f57db;stroke-width:0.886227;"/>
    <path clip-path="url(#pfe40e1123d)" d="M 239.340176 133.464938 
C 239.810237 133.464938 240.261108 133.278181 240.59349 132.945798 
C 240.925873 132.613416 241.11263 132.162544 241.11263 131.692484 
C 241.11263 131.222424 240.925873 130.771553 240.59349 130.43917 
C 240.261108 130.106787 239.810237 129.92003 239.340176 129.92003 
C 238.870116 129.92003 238.419245 130.106787 238.086862 130.43917 
C 237.754479 130.771553 237.567723 131.222424 237.567723 131.692484 
C 237.567723 132.162544 237.754479 132.613416 238.086862 132.945798 
C 238.419245 133.278181 238.870116 133.464938 239.340176 133.464938 
z
" style="fill:#5f57db;stroke:#5f57db;stroke-width:0.886227;"/>
    <path clip-path="url(#pfe40e1123d)" d="M 177.871261 266.102577 
C 178.341321 266.102577 178.792192 265.91582 179.124575 265.583437 
C 179.456958 265.251054 179.643714 264.800183 179.643714 264.330123 
C 179.643714 263.860063 179.456958 263.409192 179.124575 263.076809 
C 178.792192 262.744426 178.341321 262.557669 177.871261 262.557669 
C 177.4012 262.557669 176.950329 262.744426 176.617946 263.076809 
C 176.285564 263.409192 176.098807 263.860063 176.098807 264.330123 
C 176.098807 264.800183 176.285564 265.251054 176.617946 265.583437 
C 176.950329 265.91582 177.4012 266.102577 177.871261 266.102577 
z
" style="fill:#5f57db;stroke:#5f57db;stroke-width:0.886227;"/>
    <path clip-path="url(#pfe40e1123d)" d="M 219.268775 198.718972 
C 219.738836 198.718972 220.189707 198.532215 220.522089 198.199832 
C 220.854472 197.867449 221.041229 197.416578 221.041229 196.946518 
C 221.041229 196.476458 220.854472 196.025587 220.522089 195.693204 
C 220.189707 195.360821 219.738836 195.174064 219.268775 195.174064 
C 218.798715 195.174064 218.347844 195.360821 218.015461 195.693204 
C 217.683078 196.025587 217.496321 196.476458 217.496321 196.946518 
C 217.496321 197.416578 217.683078 197.867449 218.015461 198.199832 
C 218.347844 198.532215 218.798715 198.718972 219.268775 198.718972 
z
" style="fill:#5f57db;stroke:#5f57db;stroke-width:0.886227;"/>
    <path clip-path="url(#pfe40e1123d)" d="M 202.272153 211.356391 
C 202.742214 211.356391 203.193085 211.169634 203.525468 210.837252 
C 203.85785 210.504869 204.044607 210.053998 204.044607 209.583938 
C 204.044607 209.113877 203.85785 208.663006 203.525468 208.330623 
C 203.193085 207.998241 202.742214 207.811484 202.272153 207.811484 
C 201.802093 207.811484 201.351222 207.998241 201.018839 208.330623 
C 200.686456 208.663006 200.4997 209.113877 200.4997 209.583938 
C 200.4997 210.053998 200.686456 210.504869 201.018839 210.837252 
C 201.351222 211.169634 201.802093 211.356391 202.272153 211.356391 
z
" style="fill:#5f57db;stroke:#5f57db;stroke-width:0.886227;"/>
    <path clip-path="url(#pfe40e1123d)" d="M 202.405492 198.718972 
C 202.875552 198.718972 203.326423 198.532215 203.658806 198.199832 
C 203.991189 197.867449 204.177945 197.416578 204.177945 196.946518 
C 204.177945 196.476458 203.991189 196.025587 203.658806 195.693204 
C 203.326423 195.360821 202.875552 195.174064 202.405492 195.174064 
C 201.935431 195.174064 201.48456 195.360821 201.152177 195.693204 
C 200.819795 196.025587 200.633038 196.476458 200.633038 196.946518 
C 200.633038 197.416578 200.819795 197.867449 201.152177 198.199832 
C 201.48456 198.532215 201.935431 198.718972 202.405492 198.718972 
z
" style="fill:#5f57db;stroke:#5f57db;stroke-width:0.886227;"/>
    <path clip-path="url(#pfe40e1123d)" d="M 226.486373 182.968252 
C 226.956433 182.968252 227.407304 182.781495 227.739687 182.449113 
C 228.07207 182.11673 228.258827 181.665859 228.258827 181.195798 
C 228.258827 180.725738 228.07207 180.274867 227.739687 179.942484 
C 227.407304 179.610102 226.956433 179.423345 226.486373 179.423345 
C 226.016312 179.423345 225.565441 179.610102 225.233059 179.942484 
C 224.900676 180.274867 224.713919 180.725738 224.713919 181.195798 
C 224.713919 181.665859 224.900676 182.11673 225.233059 182.449113 
C 225.565441 182.781495 226.016312 182.968252 226.486373 182.968252 
z
" style="fill:#5f57db;stroke:#5f57db;stroke-width:0.886227;"/>
    <path clip-path="url(#pfe40e1123d)" d="M 191.971777 230.301467 
C 192.441837 230.301467 192.892708 230.114711 193.225091 229.782328 
C 193.557473 229.449945 193.74423 228.999074 193.74423 228.529014 
C 193.74423 228.058953 193.557473 227.608082 193.225091 227.275699 
C 192.892708 226.943317 192.441837 226.75656 191.971777 226.75656 
C 191.501716 226.75656 191.050845 226.943317 190.718462 227.275699 
C 190.38608 227.608082 190.199323 228.058953 190.199323 228.529014 
C 190.199323 228.999074 190.38608 229.449945 190.718462 229.782328 
C 191.050845 230.114711 191.501716 230.301467 191.971777 230.301467 
z
" style="fill:#5f57db;stroke:#5f57db;stroke-width:0.886227;"/>
    <path clip-path="url(#pfe40e1123d)" d="M 175.137827 263.987743 
C 175.607888 263.987743 176.058759 263.800986 176.391141 263.468604 
C 176.723524 263.136221 176.910281 262.68535 176.910281 262.215289 
C 176.910281 261.745229 176.723524 261.294358 176.391141 260.961975 
C 176.058759 260.629593 175.607888 260.442836 175.137827 260.442836 
C 174.667767 260.442836 174.216896 260.629593 173.884513 260.961975 
C 173.55213 261.294358 173.365373 261.745229 173.365373 262.215289 
C 173.365373 262.68535 173.55213 263.136221 173.884513 263.468604 
C 174.216896 263.800986 174.667767 263.987743 175.137827 263.987743 
z
" style="fill:#5f57db;stroke:#5f57db;stroke-width:0.886227;"/>
    <path clip-path="url(#pfe40e1123d)" d="M 212.961878 198.718972 
C 213.431938 198.718972 213.882809 198.532215 214.215192 198.199832 
C 214.547575 197.867449 214.734332 197.416578 214.734332 196.946518 
C 214.734332 196.476458 214.547575 196.025587 214.215192 195.693204 
C 213.882809 195.360821 213.431938 195.174064 212.961878 195.174064 
C 212.491818 195.174064 212.040947 195.360821 211.708564 195.693204 
C 211.376181 196.025587 211.189424 196.476458 211.189424 196.946518 
C 211.189424 197.416578 211.376181 197.867449 211.708564 198.199832 
C 212.040947 198.532215 212.491818 198.718972 212.961878 198.718972 
z
" style="fill:#5f57db;stroke:#5f57db;stroke-width:0.886227;"/>
    <path clip-path="url(#pfe40e1123d)" d="M 226.917055 120.864362 
C 227.387115 120.864362 227.837986 120.677605 228.170369 120.345223 
C 228.502752 120.01284 228.689509 119.561969 228.689509 119.091908 
C 228.689509 118.621848 228.502752 118.170977 228.170369 117.838594 
C 227.837986 117.506212 227.387115 117.319455 226.917055 117.319455 
C 226.446995 117.319455 225.996124 117.506212 225.663741 117.838594 
C 225.331358 118.170977 225.144601 118.621848 225.144601 119.091908 
C 225.144601 119.561969 225.331358 120.01284 225.663741 120.345223 
C 225.996124 120.677605 226.446995 120.864362 226.917055 120.864362 
z
" style="fill:#5f57db;stroke:#5f57db;stroke-width:0.886227;"/>
    <path clip-path="url(#pfe40e1123d)" d="M 195.382568 247.150132 
C 195.852628 247.150132 196.303499 246.963375 196.635882 246.630992 
C 196.968265 246.298609 197.155022 245.847738 197.155022 245.377678 
C 197.155022 244.907618 196.968265 244.456747 196.635882 244.124364 
C 196.303499 243.791981 195.852628 243.605224 195.382568 243.605224 
C 194.912508 243.605224 194.461637 243.791981 194.129254 244.124364 
C 193.796871 244.456747 193.610114 244.907618 193.610114 245.377678 
C 193.610114 245.847738 193.796871 246.298609 194.129254 246.630992 
C 194.461637 246.963375 194.912508 247.150132 195.382568 247.150132 
z
" style="fill:#5f57db;stroke:#5f57db;stroke-width:0.886227;"/>
    <path clip-path="url(#pfe40e1123d)" d="M 201.641464 198.718972 
C 202.111524 198.718972 202.562395 198.532215 202.894778 198.199832 
C 203.227161 197.867449 203.413918 197.416578 203.413918 196.946518 
C 203.413918 196.476458 203.227161 196.025587 202.894778 195.693204 
C 202.562395 195.360821 202.111524 195.174064 201.641464 195.174064 
C 201.171403 195.174064 200.720532 195.360821 200.38815 195.693204 
C 200.055767 196.025587 199.86901 196.476458 199.86901 196.946518 
C 199.86901 197.416578 200.055767 197.867449 200.38815 198.199832 
C 200.720532 198.532215 201.171403 198.718972 201.641464 198.718972 
z
" style="fill:#5f57db;stroke:#5f57db;stroke-width:0.886227;"/>
    <path clip-path="url(#pfe40e1123d)" d="M 180.098009 267.930029 
C 180.568069 267.930029 181.01894 267.743272 181.351323 267.410889 
C 181.683706 267.078506 181.870463 266.627635 181.870463 266.157575 
C 181.870463 265.687515 181.683706 265.236644 181.351323 264.904261 
C 181.01894 264.571878 180.568069 264.385121 180.098009 264.385121 
C 179.627948 264.385121 179.177077 264.571878 178.844695 264.904261 
C 178.512312 265.236644 178.325555 265.687515 178.325555 266.157575 
C 178.325555 266.627635 178.512312 267.078506 178.844695 267.410889 
C 179.177077 267.743272 179.627948 267.930029 180.098009 267.930029 
z
" style="fill:#5f57db;stroke:#5f57db;stroke-width:0.886227;"/>
    <path clip-path="url(#pfe40e1123d)" d="M 182.21542 263.987743 
C 182.68548 263.987743 183.136351 263.800986 183.468734 263.468604 
C 183.801116 263.136221 183.987873 262.68535 183.987873 262.215289 
C 183.987873 261.745229 183.801116 261.294358 183.468734 260.961975 
C 183.136351 260.629593 182.68548 260.442836 182.21542 260.442836 
C 181.745359 260.442836 181.294488 260.629593 180.962105 260.961975 
C 180.629723 261.294358 180.442966 261.745229 180.442966 262.215289 
C 180.442966 262.68535 180.629723 263.136221 180.962105 263.468604 
C 181.294488 263.800986 181.745359 263.987743 182.21542 263.987743 
z
" style="fill:#5f57db;stroke:#5f57db;stroke-width:0.886227;"/>
    <path clip-path="url(#pfe40e1123d)" d="M 184.382165 236.627546 
C 184.852226 236.627546 185.303097 236.440789 185.63548 236.108406 
C 185.967862 235.776023 186.154619 235.325152 186.154619 234.855092 
C 186.154619 234.385032 185.967862 233.934161 185.63548 233.601778 
C 185.303097 233.269395 184.852226 233.082638 184.382165 233.082638 
C 183.912105 233.082638 183.461234 233.269395 183.128851 233.601778 
C 182.796469 233.934161 182.609712 234.385032 182.609712 234.855092 
C 182.609712 235.325152 182.796469 235.776023 183.128851 236.108406 
C 183.461234 236.440789 183.912105 236.627546 184.382165 236.627546 
z
" style="fill:#5f57db;stroke:#5f57db;stroke-width:0.886227;"/>
    <path clip-path="url(#pfe40e1123d)" d="M 201.272117 227.188167 
C 201.742177 227.188167 202.193048 227.00141 202.525431 226.669028 
C 202.857814 226.336645 203.044571 225.885774 203.044571 225.415713 
C 203.044571 224.945653 202.857814 224.494782 202.525431 224.162399 
C 202.193048 223.830017 201.742177 223.64326 201.272117 223.64326 
C 200.802057 223.64326 200.351185 223.830017 200.018803 224.162399 
C 199.68642 224.494782 199.499663 224.945653 199.499663 225.415713 
C 199.499663 225.885774 199.68642 226.336645 200.018803 226.669028 
C 200.351185 227.00141 200.802057 227.188167 201.272117 227.188167 
z
" style="fill:#5f57db;stroke:#5f57db;stroke-width:0.886227;"/>
    <path clip-path="url(#pfe40e1123d)" d="M 173.40443 270.306453 
C 173.874491 270.306453 174.325362 270.119696 174.657745 269.787313 
C 174.990127 269.454931 175.176884 269.004059 175.176884 268.533999 
C 175.176884 268.063939 174.990127 267.613068 174.657745 267.280685 
C 174.325362 266.948302 173.874491 266.761545 173.40443 266.761545 
C 172.93437 266.761545 172.483499 266.948302 172.151116 267.280685 
C 171.818734 267.613068 171.631977 268.063939 171.631977 268.533999 
C 171.631977 269.004059 171.818734 269.454931 172.151116 269.787313 
C 172.483499 270.119696 172.93437 270.306453 173.40443 270.306453 
z
" style="fill:#5f57db;stroke:#5f57db;stroke-width:0.886227;"/>
    <path clip-path="url(#pfe40e1123d)" d="M 184.60484 236.627546 
C 185.074901 236.627546 185.525772 236.440789 185.858154 236.108406 
C 186.190537 235.776023 186.377294 235.325152 186.377294 234.855092 
C 186.377294 234.385032 186.190537 233.934161 185.858154 233.601778 
C 185.525772 233.269395 185.074901 233.082638 184.60484 233.082638 
C 184.13478 233.082638 183.683909 233.269395 183.351526 233.601778 
C 183.019143 233.934161 182.832386 234.385032 182.832386 234.855092 
C 182.832386 235.325152 183.019143 235.776023 183.351526 236.108406 
C 183.683909 236.440789 184.13478 236.627546 184.60484 236.627546 
z
" style="fill:#5f57db;stroke:#5f57db;stroke-width:0.886227;"/>
    <path clip-path="url(#pfe40e1123d)" d="M 197.282638 232.408932 
C 197.752698 232.408932 198.203569 232.222175 198.535952 231.889792 
C 198.868334 231.55741 199.055091 231.106539 199.055091 230.636478 
C 199.055091 230.166418 198.868334 229.715547 198.535952 229.383164 
C 198.203569 229.050781 197.752698 228.864024 197.282638 228.864024 
C 196.812577 228.864024 196.361706 229.050781 196.029323 229.383164 
C 195.696941 229.715547 195.510184 230.166418 195.510184 230.636478 
C 195.510184 231.106539 195.696941 231.55741 196.029323 231.889792 
C 196.361706 232.222175 196.812577 232.408932 197.282638 232.408932 
z
" style="fill:#5f57db;stroke:#5f57db;stroke-width:0.886227;"/>
    <path clip-path="url(#pfe40e1123d)" d="M 209.705759 198.718972 
C 210.175819 198.718972 210.62669 198.532215 210.959073 198.199832 
C 211.291456 197.867449 211.478213 197.416578 211.478213 196.946518 
C 211.478213 196.476458 211.291456 196.025587 210.959073 195.693204 
C 210.62669 195.360821 210.175819 195.174064 209.705759 195.174064 
C 209.235698 195.174064 208.784827 195.360821 208.452445 195.693204 
C 208.120062 196.025587 207.933305 196.476458 207.933305 196.946518 
C 207.933305 197.416578 208.120062 197.867449 208.452445 198.199832 
C 208.784827 198.532215 209.235698 198.718972 209.705759 198.718972 
z
" style="fill:#5f57db;stroke:#5f57db;stroke-width:0.886227;"/>
    <path clip-path="url(#pfe40e1123d)" d="M 179.104639 263.987743 
C 179.574699 263.987743 180.02557 263.800986 180.357953 263.468604 
C 180.690336 263.136221 180.877093 262.68535 180.877093 262.215289 
C 180.877093 261.745229 180.690336 261.294358 180.357953 260.961975 
C 180.02557 260.629593 179.574699 260.442836 179.104639 260.442836 
C 178.634579 260.442836 178.183708 260.629593 177.851325 260.961975 
C 177.518942 261.294358 177.332185 261.745229 177.332185 262.215289 
C 177.332185 262.68535 177.518942 263.136221 177.851325 263.468604 
C 178.183708 263.800986 178.634579 263.987743 179.104639 263.987743 
z
" style="fill:#5f57db;stroke:#5f57db;stroke-width:0.886227;"/>
    <path clip-path="url(#pfe40e1123d)" d="M 174.137791 266.102577 
C 174.607851 266.102577 175.058722 265.91582 175.391105 265.583437 
C 175.723488 265.251054 175.910245 264.800183 175.910245 264.330123 
C 175.910245 263.860063 175.723488 263.409192 175.391105 263.076809 
C 175.058722 262.744426 174.607851 262.557669 174.137791 262.557669 
C 173.66773 262.557669 173.216859 262.744426 172.884477 263.076809 
C 172.552094 263.409192 172.365337 263.860063 172.365337 264.330123 
C 172.365337 264.800183 172.552094 265.251054 172.884477 265.583437 
C 173.216859 265.91582 173.66773 266.102577 174.137791 266.102577 
z
" style="fill:#5f57db;stroke:#5f57db;stroke-width:0.886227;"/>
    <path clip-path="url(#pfe40e1123d)" d="M 183.348794 263.987743 
C 183.818855 263.987743 184.269726 263.800986 184.602108 263.468604 
C 184.934491 263.136221 185.121248 262.68535 185.121248 262.215289 
C 185.121248 261.745229 184.934491 261.294358 184.602108 260.961975 
C 184.269726 260.629593 183.818855 260.442836 183.348794 260.442836 
C 182.878734 260.442836 182.427863 260.629593 182.09548 260.961975 
C 181.763097 261.294358 181.576341 261.745229 181.576341 262.215289 
C 181.576341 262.68535 181.763097 263.136221 182.09548 263.468604 
C 182.427863 263.800986 182.878734 263.987743 183.348794 263.987743 
z
" style="fill:#5f57db;stroke:#5f57db;stroke-width:0.886227;"/>
    <path clip-path="url(#pfe40e1123d)" d="M 198.938698 236.627546 
C 199.408758 236.627546 199.859629 236.440789 200.192012 236.108406 
C 200.524395 235.776023 200.711152 235.325152 200.711152 234.855092 
C 200.711152 234.385032 200.524395 233.934161 200.192012 233.601778 
C 199.859629 233.269395 199.408758 233.082638 198.938698 233.082638 
C 198.468638 233.082638 198.017767 233.269395 197.685384 233.601778 
C 197.353001 233.934161 197.166244 234.385032 197.166244 234.855092 
C 197.166244 235.325152 197.353001 235.776023 197.685384 236.108406 
C 198.017767 236.440789 198.468638 236.627546 198.938698 236.627546 
z
" style="fill:#5f57db;stroke:#5f57db;stroke-width:0.886227;"/>
    <path clip-path="url(#pfe40e1123d)" d="M 174.491137 263.987743 
C 174.961197 263.987743 175.412068 263.800986 175.744451 263.468604 
C 176.076834 263.136221 176.263591 262.68535 176.263591 262.215289 
C 176.263591 261.745229 176.076834 261.294358 175.744451 260.961975 
C 175.412068 260.629593 174.961197 260.442836 174.491137 260.442836 
C 174.021077 260.442836 173.570206 260.629593 173.237823 260.961975 
C 172.90544 261.294358 172.718683 261.745229 172.718683 262.215289 
C 172.718683 262.68535 172.90544 263.136221 173.237823 263.468604 
C 173.570206 263.800986 174.021077 263.987743 174.491137 263.987743 
z
" style="fill:#5f57db;stroke:#5f57db;stroke-width:0.886227;"/>
    <path clip-path="url(#pfe40e1123d)" d="M 174.807148 263.987743 
C 175.277209 263.987743 175.72808 263.800986 176.060463 263.468604 
C 176.392845 263.136221 176.579602 262.68535 176.579602 262.215289 
C 176.579602 261.745229 176.392845 261.294358 176.060463 260.961975 
C 175.72808 260.629593 175.277209 260.442836 174.807148 260.442836 
C 174.337088 260.442836 173.886217 260.629593 173.553834 260.961975 
C 173.221452 261.294358 173.034695 261.745229 173.034695 262.215289 
C 173.034695 262.68535 173.221452 263.136221 173.553834 263.468604 
C 173.886217 263.800986 174.337088 263.987743 174.807148 263.987743 
z
" style="fill:#5f57db;stroke:#5f57db;stroke-width:0.886227;"/>
    <path clip-path="url(#pfe40e1123d)" d="M 175.337835 263.987743 
C 175.807895 263.987743 176.258766 263.800986 176.591149 263.468604 
C 176.923532 263.136221 177.110288 262.68535 177.110288 262.215289 
C 177.110288 261.745229 176.923532 261.294358 176.591149 260.961975 
C 176.258766 260.629593 175.807895 260.442836 175.337835 260.442836 
C 174.867774 260.442836 174.416903 260.629593 174.08452 260.961975 
C 173.752138 261.294358 173.565381 261.745229 173.565381 262.215289 
C 173.565381 262.68535 173.752138 263.136221 174.08452 263.468604 
C 174.416903 263.800986 174.867774 263.987743 175.337835 263.987743 
z
" style="fill:#5f57db;stroke:#5f57db;stroke-width:0.886227;"/>
    <path clip-path="url(#pfe40e1123d)" d="M 176.871224 263.987743 
C 177.341284 263.987743 177.792155 263.800986 178.124538 263.468604 
C 178.456921 263.136221 178.643678 262.68535 178.643678 262.215289 
C 178.643678 261.745229 178.456921 261.294358 178.124538 260.961975 
C 177.792155 260.629593 177.341284 260.442836 176.871224 260.442836 
C 176.401164 260.442836 175.950293 260.629593 175.61791 260.961975 
C 175.285527 261.294358 175.09877 261.745229 175.09877 262.215289 
C 175.09877 262.68535 175.285527 263.136221 175.61791 263.468604 
C 175.950293 263.800986 176.401164 263.987743 176.871224 263.987743 
z
" style="fill:#5f57db;stroke:#5f57db;stroke-width:0.886227;"/>
    <path clip-path="url(#pfe40e1123d)" d="M 176.737886 272.413918 
C 177.207946 272.413918 177.658817 272.227161 177.9912 271.894778 
C 178.323583 271.562395 178.51034 271.111524 178.51034 270.641464 
C 178.51034 270.171404 178.323583 269.720533 177.9912 269.38815 
C 177.658817 269.055767 177.207946 268.86901 176.737886 268.86901 
C 176.267826 268.86901 175.816954 269.055767 175.484572 269.38815 
C 175.152189 269.720533 174.965432 270.171404 174.965432 270.641464 
C 174.965432 271.111524 175.152189 271.562395 175.484572 271.894778 
C 175.816954 272.227161 176.267826 272.413918 176.737886 272.413918 
z
" style="fill:#5f57db;stroke:#5f57db;stroke-width:0.886227;"/>
    <path clip-path="url(#pfe40e1123d)" d="M 184.615507 242.938887 
C 185.085568 242.938887 185.536439 242.75213 185.868822 242.419747 
C 186.201204 242.087364 186.387961 241.636493 186.387961 241.166433 
C 186.387961 240.696373 186.201204 240.245502 185.868822 239.913119 
C 185.536439 239.580736 185.085568 239.393979 184.615507 239.393979 
C 184.145447 239.393979 183.694576 239.580736 183.362193 239.913119 
C 183.02981 240.245502 182.843054 240.696373 182.843054 241.166433 
C 182.843054 241.636493 183.02981 242.087364 183.362193 242.419747 
C 183.694576 242.75213 184.145447 242.938887 184.615507 242.938887 
z
" style="fill:#5f57db;stroke:#5f57db;stroke-width:0.886227;"/>
    <path clip-path="url(#pfe40e1123d)" d="M 176.337871 263.987743 
C 176.807931 263.987743 177.258803 263.800986 177.591185 263.468604 
C 177.923568 263.136221 178.110325 262.68535 178.110325 262.215289 
C 178.110325 261.745229 177.923568 261.294358 177.591185 260.961975 
C 177.258803 260.629593 176.807931 260.442836 176.337871 260.442836 
C 175.867811 260.442836 175.41694 260.629593 175.084557 260.961975 
C 174.752174 261.294358 174.565417 261.745229 174.565417 262.215289 
C 174.565417 262.68535 174.752174 263.136221 175.084557 263.468604 
C 175.41694 263.800986 175.867811 263.987743 176.337871 263.987743 
z
" style="fill:#5f57db;stroke:#5f57db;stroke-width:0.886227;"/>
    <path clip-path="url(#pfe40e1123d)" d="M 175.415171 263.987743 
C 175.885231 263.987743 176.336102 263.800986 176.668485 263.468604 
C 177.000868 263.136221 177.187625 262.68535 177.187625 262.215289 
C 177.187625 261.745229 177.000868 261.294358 176.668485 260.961975 
C 176.336102 260.629593 175.885231 260.442836 175.415171 260.442836 
C 174.94511 260.442836 174.494239 260.629593 174.161857 260.961975 
C 173.829474 261.294358 173.642717 261.745229 173.642717 262.215289 
C 173.642717 262.68535 173.829474 263.136221 174.161857 263.468604 
C 174.494239 263.800986 174.94511 263.987743 175.415171 263.987743 
z
" style="fill:#5f57db;stroke:#5f57db;stroke-width:0.886227;"/>
    <path clip-path="url(#pfe40e1123d)" d="M 174.915152 263.987743 
C 175.385213 263.987743 175.836084 263.800986 176.168467 263.468604 
C 176.500849 263.136221 176.687606 262.68535 176.687606 262.215289 
C 176.687606 261.745229 176.500849 261.294358 176.168467 260.961975 
C 175.836084 260.629593 175.385213 260.442836 174.915152 260.442836 
C 174.445092 260.442836 173.994221 260.629593 173.661838 260.961975 
C 173.329456 261.294358 173.142699 261.745229 173.142699 262.215289 
C 173.142699 262.68535 173.329456 263.136221 173.661838 263.468604 
C 173.994221 263.800986 174.445092 263.987743 174.915152 263.987743 
z
" style="fill:#5f57db;stroke:#5f57db;stroke-width:0.886227;"/>
    <path clip-path="url(#pfe40e1123d)" d="M 174.171125 263.987743 
C 174.641185 263.987743 175.092057 263.800986 175.424439 263.468604 
C 175.756822 263.136221 175.943579 262.68535 175.943579 262.215289 
C 175.943579 261.745229 175.756822 261.294358 175.424439 260.961975 
C 175.092057 260.629593 174.641185 260.442836 174.171125 260.442836 
C 173.701065 260.442836 173.250194 260.629593 172.917811 260.961975 
C 172.585428 261.294358 172.398671 261.745229 172.398671 262.215289 
C 172.398671 262.68535 172.585428 263.136221 172.917811 263.468604 
C 173.250194 263.800986 173.701065 263.987743 174.171125 263.987743 
z
" style="fill:#5f57db;stroke:#5f57db;stroke-width:0.886227;"/>
    <path clip-path="url(#pfe40e1123d)" d="M 175.49384 263.987743 
C 175.963901 263.987743 176.414772 263.800986 176.747154 263.468604 
C 177.079537 263.136221 177.266294 262.68535 177.266294 262.215289 
C 177.266294 261.745229 177.079537 261.294358 176.747154 260.961975 
C 176.414772 260.629593 175.963901 260.442836 175.49384 260.442836 
C 175.02378 260.442836 174.572909 260.629593 174.240526 260.961975 
C 173.908143 261.294358 173.721386 261.745229 173.721386 262.215289 
C 173.721386 262.68535 173.908143 263.136221 174.240526 263.468604 
C 174.572909 263.800986 175.02378 263.987743 175.49384 263.987743 
z
" style="fill:#5f57db;stroke:#5f57db;stroke-width:0.886227;"/>
    <path clip-path="url(#pfe40e1123d)" d="M 178.191272 263.987743 
C 178.661333 263.987743 179.112204 263.800986 179.444586 263.468604 
C 179.776969 263.136221 179.963726 262.68535 179.963726 262.215289 
C 179.963726 261.745229 179.776969 261.294358 179.444586 260.961975 
C 179.112204 260.629593 178.661333 260.442836 178.191272 260.442836 
C 177.721212 260.442836 177.270341 260.629593 176.937958 260.961975 
C 176.605575 261.294358 176.418818 261.745229 176.418818 262.215289 
C 176.418818 262.68535 176.605575 263.136221 176.937958 263.468604 
C 177.270341 263.800986 177.721212 263.987743 178.191272 263.987743 
z
" style="fill:#5f57db;stroke:#5f57db;stroke-width:0.886227;"/>
    <path clip-path="url(#pfe40e1123d)" d="M 178.76196 263.987743 
C 179.23202 263.987743 179.682891 263.800986 180.015274 263.468604 
C 180.347657 263.136221 180.534414 262.68535 180.534414 262.215289 
C 180.534414 261.745229 180.347657 261.294358 180.015274 260.961975 
C 179.682891 260.629593 179.23202 260.442836 178.76196 260.442836 
C 178.2919 260.442836 177.841029 260.629593 177.508646 260.961975 
C 177.176263 261.294358 176.989506 261.745229 176.989506 262.215289 
C 176.989506 262.68535 177.176263 263.136221 177.508646 263.468604 
C 177.841029 263.800986 178.2919 263.987743 178.76196 263.987743 
z
" style="fill:#5f57db;stroke:#5f57db;stroke-width:0.886227;"/>
    <path clip-path="url(#pfe40e1123d)" d="M 175.537842 263.987743 
C 176.007902 263.987743 176.458773 263.800986 176.791156 263.468604 
C 177.123539 263.136221 177.310296 262.68535 177.310296 262.215289 
C 177.310296 261.745229 177.123539 261.294358 176.791156 260.961975 
C 176.458773 260.629593 176.007902 260.442836 175.537842 260.442836 
C 175.067782 260.442836 174.616911 260.629593 174.284528 260.961975 
C 173.952145 261.294358 173.765388 261.745229 173.765388 262.215289 
C 173.765388 262.68535 173.952145 263.136221 174.284528 263.468604 
C 174.616911 263.800986 175.067782 263.987743 175.537842 263.987743 
z
" style="fill:#5f57db;stroke:#5f57db;stroke-width:0.886227;"/>
    <path clip-path="url(#pfe40e1123d)" d="M 169.093606 281.893825 
C 169.563666 281.893825 170.014537 281.707068 170.34692 281.374685 
C 170.679303 281.042302 170.86606 280.591431 170.86606 280.121371 
C 170.86606 279.65131 170.679303 279.200439 170.34692 278.868057 
C 170.014537 278.535674 169.563666 278.348917 169.093606 278.348917 
C 168.623546 278.348917 168.172675 278.535674 167.840292 278.868057 
C 167.507909 279.200439 167.321152 279.65131 167.321152 280.121371 
C 167.321152 280.591431 167.507909 281.042302 167.840292 281.374685 
C 168.172675 281.707068 168.623546 281.893825 169.093606 281.893825 
z
" style="fill:#5f57db;stroke:#5f57db;stroke-width:0.886227;"/>
   </g>
   <g id="patch_3">
    <path d="M 516.791531 203.069308 
L 697.638781 203.069308 
L 697.638781 111.797433 
L 516.791531 111.797433 
z
" style="fill:#ffffff;"/>
   </g>
   <g id="text_13">
    <!-- agency_name -->
    <g transform="translate(528.991531 135.085089)scale(0.11 -0.11)">
     <defs>
      <path d="M 3513 2113 
L 3513 0 
L 2938 0 
L 2938 2094 
Q 2938 2591 2744 2837 
Q 2550 3084 2163 3084 
Q 1697 3084 1428 2787 
Q 1159 2491 1159 1978 
L 1159 0 
L 581 0 
L 581 3500 
L 1159 3500 
L 1159 2956 
Q 1366 3272 1645 3428 
Q 1925 3584 2291 3584 
Q 2894 3584 3203 3211 
Q 3513 2838 3513 2113 
z
" id="DejaVuSans-6e" transform="scale(0.015625)"/>
      <path d="M 3122 3366 
L 3122 2828 
Q 2878 2963 2633 3030 
Q 2388 3097 2138 3097 
Q 1578 3097 1268 2742 
Q 959 2388 959 1747 
Q 959 1106 1268 751 
Q 1578 397 2138 397 
Q 2388 397 2633 464 
Q 2878 531 3122 666 
L 3122 134 
Q 2881 22 2623 -34 
Q 2366 -91 2075 -91 
Q 1284 -91 818 406 
Q 353 903 353 1747 
Q 353 2603 823 3093 
Q 1294 3584 2113 3584 
Q 2378 3584 2631 3529 
Q 2884 3475 3122 3366 
z
" id="DejaVuSans-63" transform="scale(0.015625)"/>
      <path d="M 2059 -325 
Q 1816 -950 1584 -1140 
Q 1353 -1331 966 -1331 
L 506 -1331 
L 506 -850 
L 844 -850 
Q 1081 -850 1212 -737 
Q 1344 -625 1503 -206 
L 1606 56 
L 191 3500 
L 800 3500 
L 1894 763 
L 2988 3500 
L 3597 3500 
L 2059 -325 
z
" id="DejaVuSans-79" transform="scale(0.015625)"/>
      <path d="M 3263 -1063 
L 3263 -1509 
L -63 -1509 
L -63 -1063 
L 3263 -1063 
z
" id="DejaVuSans-5f" transform="scale(0.015625)"/>
     </defs>
     <use xlink:href="#DejaVuSans-61"/>
     <use x="61.279297" xlink:href="#DejaVuSans-67"/>
     <use x="124.755859" xlink:href="#DejaVuSans-65"/>
     <use x="186.279297" xlink:href="#DejaVuSans-6e"/>
     <use x="249.658203" xlink:href="#DejaVuSans-63"/>
     <use x="304.638672" xlink:href="#DejaVuSans-79"/>
     <use x="363.818359" xlink:href="#DejaVuSans-5f"/>
     <use x="413.818359" xlink:href="#DejaVuSans-6e"/>
     <use x="477.197266" xlink:href="#DejaVuSans-61"/>
     <use x="538.476562" xlink:href="#DejaVuSans-6d"/>
     <use x="635.888672" xlink:href="#DejaVuSans-65"/>
    </g>
   </g>
   <g id="patch_4">
    <path clip-path="url(#p88266ecd12)" d="M 528.991531 155.189308 
L 544.831531 155.189308 
L 544.831531 139.349308 
L 528.991531 139.349308 
z
" style="fill:#f2f2f2;stroke:#cccccc;stroke-linejoin:miter;"/>
   </g>
   <g id="line2d_29">
    <path clip-path="url(#p88266ecd12)" d="M 536.911531 147.269308 
" style="fill:none;stroke:#1f77b4;stroke-linecap:square;stroke-width:1.5;"/>
    <defs>
     <path d="M 0 1.772454 
C 0.47006 1.772454 0.920931 1.585697 1.253314 1.253314 
C 1.585697 0.920931 1.772454 0.47006 1.772454 0 
C 1.772454 -0.47006 1.585697 -0.920931 1.253314 -1.253314 
C 0.920931 -1.585697 0.47006 -1.772454 0 -1.772454 
C -0.47006 -1.772454 -0.920931 -1.585697 -1.253314 -1.253314 
C -1.585697 -0.920931 -1.772454 -0.47006 -1.772454 0 
C -1.772454 0.47006 -1.585697 0.920931 -1.253314 1.253314 
C -0.920931 1.585697 -0.47006 1.772454 0 1.772454 
z
" id="mc236c6453e" style="stroke:#db5f57;stroke-width:0.886227;"/>
    </defs>
    <g clip-path="url(#p88266ecd12)">
     <use style="fill:#db5f57;stroke:#db5f57;stroke-width:0.886227;" x="536.911531" xlink:href="#mc236c6453e" y="147.269308"/>
    </g>
   </g>
   <g id="text_14">
    <!-- ADMIN FOR CHILDREN'S SVCS -->
    <g transform="translate(547.831531 149.697558)scale(0.088 -0.088)">
     <defs>
      <path d="M 2188 4044 
L 1331 1722 
L 3047 1722 
L 2188 4044 
z
M 1831 4666 
L 2547 4666 
L 4325 0 
L 3669 0 
L 3244 1197 
L 1141 1197 
L 716 0 
L 50 0 
L 1831 4666 
z
" id="DejaVuSans-41" transform="scale(0.015625)"/>
      <path d="M 1259 4147 
L 1259 519 
L 2022 519 
Q 2988 519 3436 956 
Q 3884 1394 3884 2338 
Q 3884 3275 3436 3711 
Q 2988 4147 2022 4147 
L 1259 4147 
z
M 628 4666 
L 1925 4666 
Q 3281 4666 3915 4102 
Q 4550 3538 4550 2338 
Q 4550 1131 3912 565 
Q 3275 0 1925 0 
L 628 0 
L 628 4666 
z
" id="DejaVuSans-44" transform="scale(0.015625)"/>
      <path d="M 628 4666 
L 1569 4666 
L 2759 1491 
L 3956 4666 
L 4897 4666 
L 4897 0 
L 4281 0 
L 4281 4097 
L 3078 897 
L 2444 897 
L 1241 4097 
L 1241 0 
L 628 0 
L 628 4666 
z
" id="DejaVuSans-4d" transform="scale(0.015625)"/>
      <path d="M 628 4666 
L 1259 4666 
L 1259 0 
L 628 0 
L 628 4666 
z
" id="DejaVuSans-49" transform="scale(0.015625)"/>
      <path d="M 628 4666 
L 1478 4666 
L 3547 763 
L 3547 4666 
L 4159 4666 
L 4159 0 
L 3309 0 
L 1241 3903 
L 1241 0 
L 628 0 
L 628 4666 
z
" id="DejaVuSans-4e" transform="scale(0.015625)"/>
      <path d="M 628 4666 
L 3309 4666 
L 3309 4134 
L 1259 4134 
L 1259 2759 
L 3109 2759 
L 3109 2228 
L 1259 2228 
L 1259 0 
L 628 0 
L 628 4666 
z
" id="DejaVuSans-46" transform="scale(0.015625)"/>
      <path d="M 4122 4306 
L 4122 3641 
Q 3803 3938 3442 4084 
Q 3081 4231 2675 4231 
Q 1875 4231 1450 3742 
Q 1025 3253 1025 2328 
Q 1025 1406 1450 917 
Q 1875 428 2675 428 
Q 3081 428 3442 575 
Q 3803 722 4122 1019 
L 4122 359 
Q 3791 134 3420 21 
Q 3050 -91 2638 -91 
Q 1578 -91 968 557 
Q 359 1206 359 2328 
Q 359 3453 968 4101 
Q 1578 4750 2638 4750 
Q 3056 4750 3426 4639 
Q 3797 4528 4122 4306 
z
" id="DejaVuSans-43" transform="scale(0.015625)"/>
      <path d="M 628 4666 
L 1259 4666 
L 1259 2753 
L 3553 2753 
L 3553 4666 
L 4184 4666 
L 4184 0 
L 3553 0 
L 3553 2222 
L 1259 2222 
L 1259 0 
L 628 0 
L 628 4666 
z
" id="DejaVuSans-48" transform="scale(0.015625)"/>
      <path d="M 628 4666 
L 1259 4666 
L 1259 531 
L 3531 531 
L 3531 0 
L 628 0 
L 628 4666 
z
" id="DejaVuSans-4c" transform="scale(0.015625)"/>
      <path d="M 628 4666 
L 3578 4666 
L 3578 4134 
L 1259 4134 
L 1259 2753 
L 3481 2753 
L 3481 2222 
L 1259 2222 
L 1259 531 
L 3634 531 
L 3634 0 
L 628 0 
L 628 4666 
z
" id="DejaVuSans-45" transform="scale(0.015625)"/>
      <path d="M 1147 4666 
L 1147 2931 
L 616 2931 
L 616 4666 
L 1147 4666 
z
" id="DejaVuSans-27" transform="scale(0.015625)"/>
      <path d="M 3425 4513 
L 3425 3897 
Q 3066 4069 2747 4153 
Q 2428 4238 2131 4238 
Q 1616 4238 1336 4038 
Q 1056 3838 1056 3469 
Q 1056 3159 1242 3001 
Q 1428 2844 1947 2747 
L 2328 2669 
Q 3034 2534 3370 2195 
Q 3706 1856 3706 1288 
Q 3706 609 3251 259 
Q 2797 -91 1919 -91 
Q 1588 -91 1214 -16 
Q 841 59 441 206 
L 441 856 
Q 825 641 1194 531 
Q 1563 422 1919 422 
Q 2459 422 2753 634 
Q 3047 847 3047 1241 
Q 3047 1584 2836 1778 
Q 2625 1972 2144 2069 
L 1759 2144 
Q 1053 2284 737 2584 
Q 422 2884 422 3419 
Q 422 4038 858 4394 
Q 1294 4750 2059 4750 
Q 2388 4750 2728 4690 
Q 3069 4631 3425 4513 
z
" id="DejaVuSans-53" transform="scale(0.015625)"/>
      <path d="M 1831 0 
L 50 4666 
L 709 4666 
L 2188 738 
L 3669 4666 
L 4325 4666 
L 2547 0 
L 1831 0 
z
" id="DejaVuSans-56" transform="scale(0.015625)"/>
     </defs>
     <use xlink:href="#DejaVuSans-41"/>
     <use x="68.408203" xlink:href="#DejaVuSans-44"/>
     <use x="145.410156" xlink:href="#DejaVuSans-4d"/>
     <use x="231.689453" xlink:href="#DejaVuSans-49"/>
     <use x="261.181641" xlink:href="#DejaVuSans-4e"/>
     <use x="335.986328" xlink:href="#DejaVuSans-20"/>
     <use x="367.773438" xlink:href="#DejaVuSans-46"/>
     <use x="425.292969" xlink:href="#DejaVuSans-4f"/>
     <use x="504.003906" xlink:href="#DejaVuSans-52"/>
     <use x="573.486328" xlink:href="#DejaVuSans-20"/>
     <use x="605.273438" xlink:href="#DejaVuSans-43"/>
     <use x="675.097656" xlink:href="#DejaVuSans-48"/>
     <use x="750.292969" xlink:href="#DejaVuSans-49"/>
     <use x="779.785156" xlink:href="#DejaVuSans-4c"/>
     <use x="835.498047" xlink:href="#DejaVuSans-44"/>
     <use x="912.5" xlink:href="#DejaVuSans-52"/>
     <use x="981.982422" xlink:href="#DejaVuSans-45"/>
     <use x="1045.166016" xlink:href="#DejaVuSans-4e"/>
     <use x="1119.970703" xlink:href="#DejaVuSans-27"/>
     <use x="1147.460938" xlink:href="#DejaVuSans-53"/>
     <use x="1210.9375" xlink:href="#DejaVuSans-20"/>
     <use x="1242.724609" xlink:href="#DejaVuSans-53"/>
     <use x="1306.201172" xlink:href="#DejaVuSans-56"/>
     <use x="1374.609375" xlink:href="#DejaVuSans-43"/>
     <use x="1444.433594" xlink:href="#DejaVuSans-53"/>
    </g>
   </g>
   <g id="patch_5">
    <path clip-path="url(#pa029b2dedb)" d="M 528.991531 173.029308 
L 544.831531 173.029308 
L 544.831531 157.189308 
L 528.991531 157.189308 
z
" style="fill:#f2f2f2;stroke:#cccccc;stroke-linejoin:miter;"/>
   </g>
   <g id="line2d_30">
    <path clip-path="url(#pa029b2dedb)" d="M 536.911531 165.109308 
" style="fill:none;stroke:#1f77b4;stroke-linecap:square;stroke-width:1.5;"/>
    <defs>
     <path d="M 0 1.772454 
C 0.47006 1.772454 0.920931 1.585697 1.253314 1.253314 
C 1.585697 0.920931 1.772454 0.47006 1.772454 0 
C 1.772454 -0.47006 1.585697 -0.920931 1.253314 -1.253314 
C 0.920931 -1.585697 0.47006 -1.772454 0 -1.772454 
C -0.47006 -1.772454 -0.920931 -1.585697 -1.253314 -1.253314 
C -1.585697 -0.920931 -1.772454 -0.47006 -1.772454 0 
C -1.772454 0.47006 -1.585697 0.920931 -1.253314 1.253314 
C -0.920931 1.585697 -0.47006 1.772454 0 1.772454 
z
" id="mf84d975526" style="stroke:#57db5f;stroke-width:0.886227;"/>
    </defs>
    <g clip-path="url(#pa029b2dedb)">
     <use style="fill:#57db5f;stroke:#57db5f;stroke-width:0.886227;" x="536.911531" xlink:href="#mf84d975526" y="165.109308"/>
    </g>
   </g>
   <g id="text_15">
    <!-- DEPT OF PARKS &amp; RECREATION -->
    <g transform="translate(547.831531 167.537558)scale(0.088 -0.088)">
     <defs>
      <path d="M 1259 4147 
L 1259 2394 
L 2053 2394 
Q 2494 2394 2734 2622 
Q 2975 2850 2975 3272 
Q 2975 3691 2734 3919 
Q 2494 4147 2053 4147 
L 1259 4147 
z
M 628 4666 
L 2053 4666 
Q 2838 4666 3239 4311 
Q 3641 3956 3641 3272 
Q 3641 2581 3239 2228 
Q 2838 1875 2053 1875 
L 1259 1875 
L 1259 0 
L 628 0 
L 628 4666 
z
" id="DejaVuSans-50" transform="scale(0.015625)"/>
      <path d="M -19 4666 
L 3928 4666 
L 3928 4134 
L 2272 4134 
L 2272 0 
L 1638 0 
L 1638 4134 
L -19 4134 
L -19 4666 
z
" id="DejaVuSans-54" transform="scale(0.015625)"/>
      <path d="M 628 4666 
L 1259 4666 
L 1259 2694 
L 3353 4666 
L 4166 4666 
L 1850 2491 
L 4331 0 
L 3500 0 
L 1259 2247 
L 1259 0 
L 628 0 
L 628 4666 
z
" id="DejaVuSans-4b" transform="scale(0.015625)"/>
      <path d="M 1556 2509 
Q 1272 2256 1139 2004 
Q 1006 1753 1006 1478 
Q 1006 1022 1337 719 
Q 1669 416 2169 416 
Q 2466 416 2725 514 
Q 2984 613 3213 813 
L 1556 2509 
z
M 1997 2859 
L 3584 1234 
Q 3769 1513 3872 1830 
Q 3975 2147 3994 2503 
L 4575 2503 
Q 4538 2091 4375 1687 
Q 4213 1284 3922 891 
L 4794 0 
L 4006 0 
L 3559 459 
Q 3234 181 2878 45 
Q 2522 -91 2113 -91 
Q 1359 -91 881 339 
Q 403 769 403 1441 
Q 403 1841 612 2192 
Q 822 2544 1241 2853 
Q 1091 3050 1012 3245 
Q 934 3441 934 3628 
Q 934 4134 1281 4442 
Q 1628 4750 2203 4750 
Q 2463 4750 2720 4694 
Q 2978 4638 3244 4525 
L 3244 3956 
Q 2972 4103 2725 4179 
Q 2478 4256 2266 4256 
Q 1938 4256 1733 4082 
Q 1528 3909 1528 3634 
Q 1528 3475 1620 3314 
Q 1713 3153 1997 2859 
z
" id="DejaVuSans-26" transform="scale(0.015625)"/>
     </defs>
     <use xlink:href="#DejaVuSans-44"/>
     <use x="77.001953" xlink:href="#DejaVuSans-45"/>
     <use x="140.185547" xlink:href="#DejaVuSans-50"/>
     <use x="200.488281" xlink:href="#DejaVuSans-54"/>
     <use x="261.572266" xlink:href="#DejaVuSans-20"/>
     <use x="293.359375" xlink:href="#DejaVuSans-4f"/>
     <use x="372.070312" xlink:href="#DejaVuSans-46"/>
     <use x="429.589844" xlink:href="#DejaVuSans-20"/>
     <use x="461.376953" xlink:href="#DejaVuSans-50"/>
     <use x="515.304688" xlink:href="#DejaVuSans-41"/>
     <use x="583.712891" xlink:href="#DejaVuSans-52"/>
     <use x="653.195312" xlink:href="#DejaVuSans-4b"/>
     <use x="718.771484" xlink:href="#DejaVuSans-53"/>
     <use x="782.248047" xlink:href="#DejaVuSans-20"/>
     <use x="814.035156" xlink:href="#DejaVuSans-26"/>
     <use x="892.013672" xlink:href="#DejaVuSans-20"/>
     <use x="923.800781" xlink:href="#DejaVuSans-52"/>
     <use x="993.283203" xlink:href="#DejaVuSans-45"/>
     <use x="1056.466797" xlink:href="#DejaVuSans-43"/>
     <use x="1126.291016" xlink:href="#DejaVuSans-52"/>
     <use x="1195.773438" xlink:href="#DejaVuSans-45"/>
     <use x="1258.957031" xlink:href="#DejaVuSans-41"/>
     <use x="1319.615234" xlink:href="#DejaVuSans-54"/>
     <use x="1380.699219" xlink:href="#DejaVuSans-49"/>
     <use x="1410.191406" xlink:href="#DejaVuSans-4f"/>
     <use x="1488.902344" xlink:href="#DejaVuSans-4e"/>
    </g>
   </g>
   <g id="patch_6">
    <path clip-path="url(#p58bf585a25)" d="M 528.991531 190.869308 
L 544.831531 190.869308 
L 544.831531 175.029308 
L 528.991531 175.029308 
z
" style="fill:#f2f2f2;stroke:#cccccc;stroke-linejoin:miter;"/>
   </g>
   <g id="line2d_31">
    <path clip-path="url(#p58bf585a25)" d="M 536.911531 182.949308 
" style="fill:none;stroke:#1f77b4;stroke-linecap:square;stroke-width:1.5;"/>
    <defs>
     <path d="M 0 1.772454 
C 0.47006 1.772454 0.920931 1.585697 1.253314 1.253314 
C 1.585697 0.920931 1.772454 0.47006 1.772454 0 
C 1.772454 -0.47006 1.585697 -0.920931 1.253314 -1.253314 
C 0.920931 -1.585697 0.47006 -1.772454 0 -1.772454 
C -0.47006 -1.772454 -0.920931 -1.585697 -1.253314 -1.253314 
C -1.585697 -0.920931 -1.772454 -0.47006 -1.772454 0 
C -1.772454 0.47006 -1.585697 0.920931 -1.253314 1.253314 
C -0.920931 1.585697 -0.47006 1.772454 0 1.772454 
z
" id="m66c2a3f07a" style="stroke:#5f57db;stroke-width:0.886227;"/>
    </defs>
    <g clip-path="url(#p58bf585a25)">
     <use style="fill:#5f57db;stroke:#5f57db;stroke-width:0.886227;" x="536.911531" xlink:href="#m66c2a3f07a" y="182.949308"/>
    </g>
   </g>
   <g id="text_16">
    <!-- POLICE DEPARTMENT -->
    <g transform="translate(547.831531 185.377558)scale(0.088 -0.088)">
     <use xlink:href="#DejaVuSans-50"/>
     <use x="60.302734" xlink:href="#DejaVuSans-4f"/>
     <use x="139.013672" xlink:href="#DejaVuSans-4c"/>
     <use x="194.726562" xlink:href="#DejaVuSans-49"/>
     <use x="224.21875" xlink:href="#DejaVuSans-43"/>
     <use x="294.042969" xlink:href="#DejaVuSans-45"/>
     <use x="357.226562" xlink:href="#DejaVuSans-20"/>
     <use x="389.013672" xlink:href="#DejaVuSans-44"/>
     <use x="466.015625" xlink:href="#DejaVuSans-45"/>
     <use x="529.199219" xlink:href="#DejaVuSans-50"/>
     <use x="583.126953" xlink:href="#DejaVuSans-41"/>
     <use x="651.535156" xlink:href="#DejaVuSans-52"/>
     <use x="713.767578" xlink:href="#DejaVuSans-54"/>
     <use x="774.851562" xlink:href="#DejaVuSans-4d"/>
     <use x="861.130859" xlink:href="#DejaVuSans-45"/>
     <use x="924.314453" xlink:href="#DejaVuSans-4e"/>
     <use x="999.119141" xlink:href="#DejaVuSans-54"/>
    </g>
   </g>
  </g>
  <g id="text_17">
   <!-- Manhattan employees who worked more overtime than regular hours &amp; are no longer employed -->
   <g transform="translate(7.2 17.229938)scale(0.132 -0.132)">
    <defs>
     <path d="M 1159 525 
L 1159 -1331 
L 581 -1331 
L 581 3500 
L 1159 3500 
L 1159 2969 
Q 1341 3281 1617 3432 
Q 1894 3584 2278 3584 
Q 2916 3584 3314 3078 
Q 3713 2572 3713 1747 
Q 3713 922 3314 415 
Q 2916 -91 2278 -91 
Q 1894 -91 1617 61 
Q 1341 213 1159 525 
z
M 3116 1747 
Q 3116 2381 2855 2742 
Q 2594 3103 2138 3103 
Q 1681 3103 1420 2742 
Q 1159 2381 1159 1747 
Q 1159 1113 1420 752 
Q 1681 391 2138 391 
Q 2594 391 2855 752 
Q 3116 1113 3116 1747 
z
" id="DejaVuSans-70" transform="scale(0.015625)"/>
    </defs>
    <use xlink:href="#DejaVuSans-4d"/>
    <use x="86.279297" xlink:href="#DejaVuSans-61"/>
    <use x="147.558594" xlink:href="#DejaVuSans-6e"/>
    <use x="210.9375" xlink:href="#DejaVuSans-68"/>
    <use x="274.316406" xlink:href="#DejaVuSans-61"/>
    <use x="335.595703" xlink:href="#DejaVuSans-74"/>
    <use x="374.804688" xlink:href="#DejaVuSans-74"/>
    <use x="414.013672" xlink:href="#DejaVuSans-61"/>
    <use x="475.292969" xlink:href="#DejaVuSans-6e"/>
    <use x="538.671875" xlink:href="#DejaVuSans-20"/>
    <use x="570.458984" xlink:href="#DejaVuSans-65"/>
    <use x="631.982422" xlink:href="#DejaVuSans-6d"/>
    <use x="729.394531" xlink:href="#DejaVuSans-70"/>
    <use x="792.871094" xlink:href="#DejaVuSans-6c"/>
    <use x="820.654297" xlink:href="#DejaVuSans-6f"/>
    <use x="881.835938" xlink:href="#DejaVuSans-79"/>
    <use x="941.015625" xlink:href="#DejaVuSans-65"/>
    <use x="1002.539062" xlink:href="#DejaVuSans-65"/>
    <use x="1064.0625" xlink:href="#DejaVuSans-73"/>
    <use x="1116.162109" xlink:href="#DejaVuSans-20"/>
    <use x="1147.949219" xlink:href="#DejaVuSans-77"/>
    <use x="1229.736328" xlink:href="#DejaVuSans-68"/>
    <use x="1293.115234" xlink:href="#DejaVuSans-6f"/>
    <use x="1354.296875" xlink:href="#DejaVuSans-20"/>
    <use x="1386.083984" xlink:href="#DejaVuSans-77"/>
    <use x="1467.871094" xlink:href="#DejaVuSans-6f"/>
    <use x="1529.052734" xlink:href="#DejaVuSans-72"/>
    <use x="1570.166016" xlink:href="#DejaVuSans-6b"/>
    <use x="1624.451172" xlink:href="#DejaVuSans-65"/>
    <use x="1685.974609" xlink:href="#DejaVuSans-64"/>
    <use x="1749.451172" xlink:href="#DejaVuSans-20"/>
    <use x="1781.238281" xlink:href="#DejaVuSans-6d"/>
    <use x="1878.650391" xlink:href="#DejaVuSans-6f"/>
    <use x="1939.832031" xlink:href="#DejaVuSans-72"/>
    <use x="1978.695312" xlink:href="#DejaVuSans-65"/>
    <use x="2040.21875" xlink:href="#DejaVuSans-20"/>
    <use x="2072.005859" xlink:href="#DejaVuSans-6f"/>
    <use x="2133.1875" xlink:href="#DejaVuSans-76"/>
    <use x="2192.367188" xlink:href="#DejaVuSans-65"/>
    <use x="2253.890625" xlink:href="#DejaVuSans-72"/>
    <use x="2295.003906" xlink:href="#DejaVuSans-74"/>
    <use x="2334.212891" xlink:href="#DejaVuSans-69"/>
    <use x="2361.996094" xlink:href="#DejaVuSans-6d"/>
    <use x="2459.408203" xlink:href="#DejaVuSans-65"/>
    <use x="2520.931641" xlink:href="#DejaVuSans-20"/>
    <use x="2552.71875" xlink:href="#DejaVuSans-74"/>
    <use x="2591.927734" xlink:href="#DejaVuSans-68"/>
    <use x="2655.306641" xlink:href="#DejaVuSans-61"/>
    <use x="2716.585938" xlink:href="#DejaVuSans-6e"/>
    <use x="2779.964844" xlink:href="#DejaVuSans-20"/>
    <use x="2811.751953" xlink:href="#DejaVuSans-72"/>
    <use x="2850.615234" xlink:href="#DejaVuSans-65"/>
    <use x="2912.138672" xlink:href="#DejaVuSans-67"/>
    <use x="2975.615234" xlink:href="#DejaVuSans-75"/>
    <use x="3038.994141" xlink:href="#DejaVuSans-6c"/>
    <use x="3066.777344" xlink:href="#DejaVuSans-61"/>
    <use x="3128.056641" xlink:href="#DejaVuSans-72"/>
    <use x="3169.169922" xlink:href="#DejaVuSans-20"/>
    <use x="3200.957031" xlink:href="#DejaVuSans-68"/>
    <use x="3264.335938" xlink:href="#DejaVuSans-6f"/>
    <use x="3325.517578" xlink:href="#DejaVuSans-75"/>
    <use x="3388.896484" xlink:href="#DejaVuSans-72"/>
    <use x="3430.009766" xlink:href="#DejaVuSans-73"/>
    <use x="3482.109375" xlink:href="#DejaVuSans-20"/>
    <use x="3513.896484" xlink:href="#DejaVuSans-26"/>
    <use x="3591.875" xlink:href="#DejaVuSans-20"/>
    <use x="3623.662109" xlink:href="#DejaVuSans-61"/>
    <use x="3684.941406" xlink:href="#DejaVuSans-72"/>
    <use x="3723.804688" xlink:href="#DejaVuSans-65"/>
    <use x="3785.328125" xlink:href="#DejaVuSans-20"/>
    <use x="3817.115234" xlink:href="#DejaVuSans-6e"/>
    <use x="3880.494141" xlink:href="#DejaVuSans-6f"/>
    <use x="3941.675781" xlink:href="#DejaVuSans-20"/>
    <use x="3973.462891" xlink:href="#DejaVuSans-6c"/>
    <use x="4001.246094" xlink:href="#DejaVuSans-6f"/>
    <use x="4062.427734" xlink:href="#DejaVuSans-6e"/>
    <use x="4125.806641" xlink:href="#DejaVuSans-67"/>
    <use x="4189.283203" xlink:href="#DejaVuSans-65"/>
    <use x="4250.806641" xlink:href="#DejaVuSans-72"/>
    <use x="4291.919922" xlink:href="#DejaVuSans-20"/>
    <use x="4323.707031" xlink:href="#DejaVuSans-65"/>
    <use x="4385.230469" xlink:href="#DejaVuSans-6d"/>
    <use x="4482.642578" xlink:href="#DejaVuSans-70"/>
    <use x="4546.119141" xlink:href="#DejaVuSans-6c"/>
    <use x="4573.902344" xlink:href="#DejaVuSans-6f"/>
    <use x="4635.083984" xlink:href="#DejaVuSans-79"/>
    <use x="4694.263672" xlink:href="#DejaVuSans-65"/>
    <use x="4755.787109" xlink:href="#DejaVuSans-64"/>
   </g>
  </g>
 </g>
 <defs>
  <clipPath id="pfe40e1123d">
   <rect height="266.112" width="357.12" x="152.471531" y="26.105371"/>
  </clipPath>
  <clipPath id="p88266ecd12">
   <path d="M 528.991531 155.189308 
L 528.991531 139.349308 
L 544.831531 139.349308 
L 544.831531 155.189308 
"/>
  </clipPath>
  <clipPath id="pa029b2dedb">
   <path d="M 528.991531 173.029308 
L 528.991531 157.189308 
L 544.831531 157.189308 
L 544.831531 173.029308 
"/>
  </clipPath>
  <clipPath id="p58bf585a25">
   <path d="M 528.991531 190.869308 
L 528.991531 175.029308 
L 544.831531 175.029308 
L 544.831531 190.869308 
"/>
  </clipPath>
 </defs>
</svg>
