<?xml version="1.0" encoding="utf-8"?>
<!-- Generator: Adobe Illustrator 26.0.3, SVG Export Plug-In . SVG Version: 6.00 Build 0)  -->
<svg version="1.1" id="Layer_1" xmlns="http://www.w3.org/2000/svg" xmlns:xlink="http://www.w3.org/1999/xlink" x="0px" y="0px"
	 viewBox="0 0 445 784.6" style="enable-background:new 0 0 445 784.6;" xml:space="preserve">
<style type="text/css">
	.st0{fill:none;}
	.st1{fill:none;stroke:#333333;stroke-width:1.5;stroke-linejoin:round;}
	.st2{fill:#171717;stroke:#FFFFFF;stroke-width:6;stroke-linejoin:round;}
	.st3{fill:#F2F2F2;}
	.st4{fill:none;stroke:#1F77B4;stroke-width:1.5;stroke-linecap:square;stroke-linejoin:round;}
	.st5{fill:#DB5F57;stroke:#DB5F57;stroke-width:0.8862;stroke-linejoin:round;}
	.st6{fill:#57DB5F;stroke:#57DB5F;stroke-width:0.8862;stroke-linejoin:round;}
	.st7{fill:none;stroke:#000000;stroke-width:0.2;stroke-miterlimit:10;}
	.st8{fill:none;stroke:#333333;stroke-width:1.5;stroke-linecap:square;stroke-linejoin:round;}
	.st9{fill:none;stroke:#FFFFFF;stroke-width:0.5;stroke-linecap:square;stroke-linejoin:round;}
	.st10{fill:none;stroke:#FFFFFF;stroke-linecap:square;stroke-linejoin:round;}
	.st11{font-family:'ArialMT';}
	.st12{font-size:13.3003px;}
	.st13{fill:#36454F;}
	.st14{font-family:'MyriadPro-Regular';}
	.st15{font-size:12.1919px;}
	.st16{font-size:14.0655px;}
	.st17{font-size:11px;}
	.st18{font-size:14px;}
	.st19{font-size:10px;}
</style>
<rect x="-542.1" y="-973.7" class="st0" width="310.5" height="270"/>
<path class="st1" d="M-682-710"/>
<rect x="-542.1" y="-973.7" class="st0" width="310.5" height="270"/>
<path class="st1" d="M-627.3-710"/>
<rect x="-542.1" y="-973.7" class="st0" width="310.5" height="270"/>
<path class="st1" d="M-592.8-710.3"/>
<rect x="-542.1" y="-973.7" class="st0" width="310.5" height="270"/>
<path class="st1" d="M-542.6-700.4"/>
<rect x="-542.1" y="-973.7" class="st0" width="310.5" height="270"/>
<path class="st1" d="M-583.1-713.2"/>
<rect x="-542.1" y="-973.7" class="st0" width="310.5" height="270"/>
<path class="st2" d="M-541.7-703.7v-270"/>
<path class="st1" d="M-556.7-693.6"/>
<rect x="-542.1" y="-973.7" class="st0" width="310.5" height="270"/>
<rect x="-542.1" y="-973.7" class="st0" width="310.5" height="270"/>
<rect x="-542.1" y="-973.7" class="st0" width="310.5" height="270"/>
<rect x="-542.1" y="-973.7" class="st0" width="310.5" height="270"/>
<rect x="-542.1" y="-973.7" class="st0" width="310.5" height="270"/>
<rect x="-542.1" y="-973.7" class="st0" width="310.5" height="270"/>
<path class="st1" d="M-542.1-714.1"/>
<rect x="-542.1" y="-973.7" class="st0" width="310.5" height="270"/>
<path class="st1" d="M-542.1-780.1"/>
<rect x="-542.1" y="-973.7" class="st0" width="310.5" height="270"/>
<path class="st1" d="M-542.1-846.2"/>
<rect x="-542.1" y="-973.7" class="st0" width="310.5" height="270"/>
<path class="st1" d="M-542.1-912.3"/>
<rect x="-542.1" y="-973.7" class="st0" width="310.5" height="270"/>
<rect x="-542.1" y="-973.7" class="st0" width="310.5" height="270"/>
<path id="DejaVuSans-20" d="M-571.4-813"/>
<path id="DejaVuSans-20_00000127002469105902773140000005373200405735257269_" d="M-571.4-846.5"/>
<polyline class="st0" points="85.4,-838.1 85.4,-854.7 102,-854.7 102,-838.1 "/>
<path class="st3" d="M85.4-838.1H102v-16.6H85.4V-838.1z"/>
<polyline class="st0" points="85.4,-838.1 85.4,-854.7 102,-854.7 102,-838.1 "/>
<path class="st4" d="M93.7-846.4"/>
<polyline class="st0" points="85.4,-838.1 85.4,-854.7 102,-854.7 102,-838.1 "/>
<path id="m7e3595c533" class="st5" d="M93.7-844.5c0.5,0,1-0.2,1.3-0.5c0.3-0.3,0.5-0.8,0.5-1.3s-0.2-1-0.5-1.3
	c-0.3-0.3-0.8-0.5-1.3-0.5s-1,0.2-1.3,0.5c-0.3,0.3-0.5,0.8-0.5,1.3s0.2,1,0.5,1.3C92.7-844.7,93.2-844.5,93.7-844.5z"/>
<polyline class="st0" points="85.4,-819.3 85.4,-836 102,-836 102,-819.3 "/>
<path class="st3" d="M85.4-819.3H102V-836H85.4V-819.3z"/>
<polyline class="st0" points="85.4,-819.3 85.4,-836 102,-836 102,-819.3 "/>
<path class="st4" d="M93.7-827.7"/>
<polyline class="st0" points="85.4,-819.3 85.4,-836 102,-836 102,-819.3 "/>
<path id="mffdbdef117" class="st6" d="M93.7-825.8c0.5,0,1-0.2,1.3-0.5c0.3-0.3,0.5-0.8,0.5-1.3s-0.2-1-0.5-1.3
	c-0.3-0.3-0.8-0.5-1.3-0.5s-1,0.2-1.3,0.5c-0.3,0.3-0.5,0.8-0.5,1.3s0.2,1,0.5,1.3C92.7-826,93.2-825.8,93.7-825.8z"/>
<rect x="-542.9" y="-973.7" class="st0" width="310.5" height="270"/>
<path class="st7" d="M-529.7-703.7v-270"/>
<path class="st8" d="M-529.7-703.7"/>
<rect x="-542.9" y="-973.7" class="st0" width="310.5" height="270"/>
<path class="st7" d="M-471.9-703.7v-270"/>
<path class="st8" d="M-471.9-703.7"/>
<rect x="-542.9" y="-973.7" class="st0" width="310.5" height="270"/>
<path class="st7" d="M-414.2-703.7v-270"/>
<path class="st8" d="M-414.2-703.7"/>
<rect x="-542.9" y="-973.7" class="st0" width="310.5" height="270"/>
<path class="st7" d="M-356.4-703.7v-270"/>
<path class="st8" d="M-356.4-703.7"/>
<rect x="-542.9" y="-973.7" class="st0" width="310.5" height="270"/>
<path class="st7" d="M-298.7-703.7v-270"/>
<path class="st8" d="M-298.7-703.7"/>
<rect x="-542.9" y="-973.7" class="st0" width="310.5" height="270"/>
<path class="st8" d="M-240.9-703.7"/>
<rect x="-542.9" y="-973.7" class="st0" width="310.5" height="270"/>
<path class="st9" d="M-500.8-703.7v-270"/>
<rect x="-542.9" y="-973.7" class="st0" width="310.5" height="270"/>
<path class="st9" d="M-443.1-703.7v-270"/>
<rect x="-542.9" y="-973.7" class="st0" width="310.5" height="270"/>
<path class="st9" d="M-385.3-703.7v-270"/>
<rect x="-542.9" y="-973.7" class="st0" width="310.5" height="270"/>
<path class="st9" d="M-327.5-703.7v-270"/>
<rect x="-542.9" y="-973.7" class="st0" width="310.5" height="270"/>
<path class="st9" d="M-269.8-703.7v-270"/>
<rect x="-542.9" y="-973.7" class="st0" width="310.5" height="270"/>
<path class="st7" d="M-542.9-714.1h301.2"/>
<rect x="-542.9" y="-973.7" class="st0" width="310.5" height="270"/>
<path class="st7" d="M-542.9-780.1h301.2"/>
<rect x="-542.9" y="-973.7" class="st0" width="310.5" height="270"/>
<path class="st7" d="M-542.9-846.2h301.2"/>
<rect x="-542.9" y="-973.7" class="st0" width="310.5" height="270"/>
<path class="st7" d="M-542.9-912.3h301.2"/>
<rect x="-542.9" y="-973.7" class="st0" width="310.5" height="270"/>
<path class="st7" d="M-542.9-747.1h301.2"/>
<rect x="-542.9" y="-973.7" class="st0" width="310.5" height="270"/>
<path class="st7" d="M-542.9-813.2h301.2"/>
<rect x="-542.9" y="-973.7" class="st0" width="310.5" height="270"/>
<path class="st7" d="M-542.9-879.3h301.2"/>
<rect x="-542.9" y="-973.7" class="st0" width="310.5" height="270"/>
<path class="st7" d="M-542.9-945.3h301.2"/>
<rect x="-542.9" y="-973.7" class="st0" width="310.5" height="270"/>
<path class="st5" d="M-431-927.6c0.5,0,1-0.2,1.3-0.5c0.4-0.3,0.5-0.8,0.5-1.2s-0.2-0.9-0.5-1.2c-0.4-0.3-0.8-0.5-1.3-0.5
	c-0.5,0-1,0.2-1.3,0.5c-0.4,0.3-0.5,0.8-0.5,1.2s0.2,0.9,0.5,1.2C-432-927.7-431.5-927.6-431-927.6z"/>
<rect x="-542.9" y="-973.7" class="st0" width="310.5" height="270"/>
<path class="st5" d="M-440.5-959.7c0.5,0,1-0.2,1.3-0.5c0.4-0.3,0.5-0.8,0.5-1.2s-0.2-0.9-0.5-1.2c-0.4-0.3-0.8-0.5-1.3-0.5
	c-0.5,0-1,0.2-1.3,0.5c-0.4,0.3-0.5,0.8-0.5,1.2s0.2,0.9,0.5,1.2C-441.4-959.8-441-959.7-440.5-959.7z"/>
<rect x="-542.9" y="-973.7" class="st0" width="310.5" height="270"/>
<path class="st5" d="M-463.3-882.3c0.5,0,1-0.2,1.3-0.5c0.4-0.3,0.5-0.8,0.5-1.2s-0.2-0.9-0.5-1.2c-0.4-0.3-0.8-0.5-1.3-0.5
	c-0.5,0-1,0.2-1.3,0.5c-0.4,0.3-0.5,0.8-0.5,1.2s0.2,0.9,0.5,1.2C-464.2-882.4-463.8-882.3-463.3-882.3z"/>
<rect x="-542.9" y="-973.7" class="st0" width="310.5" height="270"/>
<path class="st5" d="M-481.5-797.3c0.5,0,1-0.2,1.3-0.5c0.4-0.3,0.5-0.8,0.5-1.2s-0.2-0.9-0.5-1.2c-0.4-0.3-0.8-0.5-1.3-0.5
	c-0.5,0-1,0.2-1.3,0.5s-0.5,0.8-0.5,1.2s0.2,0.9,0.5,1.2S-482-797.3-481.5-797.3z"/>
<rect x="-542.9" y="-973.7" class="st0" width="310.5" height="270"/>
<path class="st5" d="M-490.7-804.9c0.5,0,1-0.2,1.3-0.5c0.4-0.3,0.5-0.8,0.5-1.2c0-0.5-0.2-0.9-0.5-1.2c-0.4-0.3-0.8-0.5-1.3-0.5
	c-0.5,0-1,0.2-1.3,0.5c-0.4,0.3-0.5,0.8-0.5,1.2c0,0.5,0.2,0.9,0.5,1.2C-491.6-805-491.1-804.9-490.7-804.9z"/>
<rect x="-542.9" y="-973.7" class="st0" width="310.5" height="270"/>
<path class="st5" d="M-471.3-838.8c0.5,0,1-0.2,1.3-0.5c0.4-0.3,0.5-0.8,0.5-1.2s-0.2-0.9-0.5-1.2c-0.4-0.3-0.8-0.5-1.3-0.5
	c-0.5,0-1,0.2-1.3,0.5s-0.5,0.8-0.5,1.2s0.2,0.9,0.5,1.2S-471.8-838.8-471.3-838.8z"/>
<rect x="-542.9" y="-973.7" class="st0" width="310.5" height="270"/>
<path class="st5" d="M-474.7-867.2c0.5,0,1-0.2,1.3-0.5s0.5-0.8,0.5-1.2s-0.2-0.9-0.5-1.2s-0.8-0.5-1.3-0.5c-0.5,0-1,0.2-1.3,0.5
	s-0.5,0.8-0.5,1.2s0.2,0.9,0.5,1.2S-475.2-867.2-474.7-867.2z"/>
<rect x="-542.9" y="-973.7" class="st0" width="310.5" height="270"/>
<path class="st5" d="M-488-823.7c0.5,0,1-0.2,1.3-0.5c0.4-0.3,0.5-0.8,0.5-1.2s-0.2-0.9-0.5-1.2c-0.4-0.3-0.8-0.5-1.3-0.5
	c-0.5,0-1,0.2-1.3,0.5c-0.4,0.3-0.5,0.8-0.5,1.2s0.2,0.9,0.5,1.2C-489-823.9-488.5-823.7-488-823.7z"/>
<rect x="-542.9" y="-973.7" class="st0" width="310.5" height="270"/>
<path class="st5" d="M-518.4-723.7c0.5,0,1-0.2,1.3-0.5c0.4-0.3,0.5-0.8,0.5-1.2s-0.2-0.9-0.5-1.2c-0.4-0.3-0.8-0.5-1.3-0.5
	s-1,0.2-1.3,0.5c-0.4,0.3-0.5,0.8-0.5,1.2s0.2,0.9,0.5,1.2S-518.9-723.7-518.4-723.7z"/>
<rect x="-542.9" y="-973.7" class="st0" width="310.5" height="270"/>
<path class="st5" d="M-488.7-786c0.5,0,1-0.2,1.3-0.5s0.5-0.8,0.5-1.2s-0.2-0.9-0.5-1.2s-0.8-0.5-1.3-0.5c-0.5,0-1,0.2-1.3,0.5
	c-0.4,0.3-0.5,0.8-0.5,1.2s0.2,0.9,0.5,1.2C-489.7-786.2-489.2-786-488.7-786z"/>
<rect x="-542.9" y="-973.7" class="st0" width="310.5" height="270"/>
<path class="st5" d="M-503.2-786c0.5,0,1-0.2,1.3-0.5s0.5-0.8,0.5-1.2s-0.2-0.9-0.5-1.2s-0.8-0.5-1.3-0.5c-0.5,0-1,0.2-1.3,0.5
	c-0.4,0.3-0.5,0.8-0.5,1.2s0.2,0.9,0.5,1.2C-504.1-786.2-503.7-786-503.2-786z"/>
<rect x="-542.9" y="-973.7" class="st0" width="310.5" height="270"/>
<path class="st5" d="M-496.3-797.3c0.5,0,1-0.2,1.3-0.5c0.4-0.3,0.5-0.8,0.5-1.2s-0.2-0.9-0.5-1.2c-0.4-0.3-0.8-0.5-1.3-0.5
	c-0.5,0-1,0.2-1.3,0.5s-0.5,0.8-0.5,1.2s0.2,0.9,0.5,1.2C-497.3-797.5-496.8-797.3-496.3-797.3z"/>
<rect x="-542.9" y="-973.7" class="st0" width="310.5" height="270"/>
<path class="st5" d="M-508.7-719.9c0.5,0,1-0.2,1.3-0.5c0.4-0.3,0.5-0.8,0.5-1.2s-0.2-0.9-0.5-1.2c-0.4-0.3-0.8-0.5-1.3-0.5
	c-0.5,0-1,0.2-1.3,0.5c-0.4,0.3-0.5,0.8-0.5,1.2s0.2,0.9,0.5,1.2C-509.6-720.1-509.2-719.9-508.7-719.9z"/>
<rect x="-542.9" y="-973.7" class="st0" width="310.5" height="270"/>
<path class="st5" d="M-517.2-731.2c0.5,0,1-0.2,1.3-0.5c0.4-0.3,0.5-0.8,0.5-1.2s-0.2-0.9-0.5-1.2c-0.4-0.3-0.8-0.5-1.3-0.5
	s-1,0.2-1.3,0.5c-0.4,0.3-0.5,0.8-0.5,1.2s0.2,0.9,0.5,1.2C-518.2-731.4-517.7-731.2-517.2-731.2z"/>
<rect x="-542.9" y="-973.7" class="st0" width="310.5" height="270"/>
<path class="st5" d="M-505.6-719.9c0.5,0,1-0.2,1.3-0.5c0.4-0.3,0.5-0.8,0.5-1.2s-0.2-0.9-0.5-1.2c-0.4-0.3-0.8-0.5-1.3-0.5
	c-0.5,0-1,0.2-1.3,0.5c-0.4,0.3-0.5,0.8-0.5,1.2s0.2,0.9,0.5,1.2C-506.5-720.1-506.1-719.9-505.6-719.9z"/>
<rect x="-542.9" y="-973.7" class="st0" width="310.5" height="270"/>
<path class="st5" d="M-525.2-719.9c0.5,0,1-0.2,1.3-0.5c0.4-0.3,0.5-0.8,0.5-1.2s-0.2-0.9-0.5-1.2c-0.4-0.3-0.8-0.5-1.3-0.5
	c-0.5,0-1,0.2-1.3,0.5c-0.4,0.3-0.5,0.8-0.5,1.2s0.2,0.9,0.5,1.2C-526.2-720.1-525.7-719.9-525.2-719.9z"/>
<rect x="-542.9" y="-973.7" class="st0" width="310.5" height="270"/>
<path class="st5" d="M-519.9-719.9c0.5,0,1-0.2,1.3-0.5s0.5-0.8,0.5-1.2s-0.2-0.9-0.5-1.2c-0.4-0.3-0.8-0.5-1.3-0.5
	c-0.5,0-1,0.2-1.3,0.5c-0.4,0.3-0.5,0.8-0.5,1.2s0.2,0.9,0.5,1.2S-520.4-719.9-519.9-719.9z"/>
<rect x="-542.9" y="-973.7" class="st0" width="310.5" height="270"/>
<path class="st5" d="M-525.2-719.9c0.5,0,1-0.2,1.3-0.5c0.4-0.3,0.5-0.8,0.5-1.2s-0.2-0.9-0.5-1.2c-0.4-0.3-0.8-0.5-1.3-0.5
	c-0.5,0-1,0.2-1.3,0.5c-0.4,0.3-0.5,0.8-0.5,1.2s0.2,0.9,0.5,1.2C-526.2-720.1-525.7-719.9-525.2-719.9z"/>
<rect x="-542.9" y="-973.7" class="st0" width="310.5" height="270"/>
<path class="st5" d="M-513.1-719.9c0.5,0,1-0.2,1.3-0.5c0.4-0.3,0.5-0.8,0.5-1.2s-0.2-0.9-0.5-1.2c-0.4-0.3-0.8-0.5-1.3-0.5
	s-1,0.2-1.3,0.5c-0.4,0.3-0.5,0.8-0.5,1.2s0.2,0.9,0.5,1.2S-513.6-719.9-513.1-719.9z"/>
<rect x="-542.9" y="-973.7" class="st0" width="310.5" height="270"/>
<path class="st5" d="M-526.9-719.9c0.5,0,1-0.2,1.3-0.5c0.4-0.3,0.5-0.8,0.5-1.2s-0.2-0.9-0.5-1.2c-0.4-0.3-0.8-0.5-1.3-0.5
	s-1,0.2-1.3,0.5c-0.4,0.3-0.5,0.8-0.5,1.2s0.2,0.9,0.5,1.2S-527.4-719.9-526.9-719.9z"/>
<rect x="-542.9" y="-973.7" class="st0" width="310.5" height="270"/>
<path class="st5" d="M-523.2-719.9c0.5,0,1-0.2,1.3-0.5c0.4-0.3,0.5-0.8,0.5-1.2s-0.2-0.9-0.5-1.2c-0.4-0.3-0.8-0.5-1.3-0.5
	s-1,0.2-1.3,0.5c-0.4,0.3-0.5,0.8-0.5,1.2s0.2,0.9,0.5,1.2S-523.7-719.9-523.2-719.9z"/>
<rect x="-542.9" y="-973.7" class="st0" width="310.5" height="270"/>
<path class="st5" d="M-525.1-719.9c0.5,0,1-0.2,1.3-0.5s0.5-0.8,0.5-1.2s-0.2-0.9-0.5-1.2c-0.4-0.3-0.8-0.5-1.3-0.5
	c-0.5,0-1,0.2-1.3,0.5c-0.4,0.3-0.5,0.8-0.5,1.2s0.2,0.9,0.5,1.2C-526.1-720.1-525.6-719.9-525.1-719.9z"/>
<rect x="-542.9" y="-973.7" class="st7" width="301.2" height="270"/>
<path class="st5" d="M-522.7-719.9c0.5,0,1-0.2,1.3-0.5c0.4-0.3,0.5-0.8,0.5-1.2s-0.2-0.9-0.5-1.2c-0.4-0.3-0.8-0.5-1.3-0.5
	c-0.5,0-1,0.2-1.3,0.5c-0.4,0.3-0.5,0.8-0.5,1.2s0.2,0.9,0.5,1.2S-523.2-719.9-522.7-719.9z"/>
<path class="st5" d="M-517-730.8c0.5,0,1-0.2,1.3-0.5s0.5-0.8,0.5-1.2c0-0.5-0.2-0.9-0.5-1.2s-0.8-0.5-1.3-0.5c-0.5,0-1,0.2-1.3,0.5
	c-0.4,0.3-0.5,0.8-0.5,1.2c0,0.5,0.2,0.9,0.5,1.2C-518-731-517.5-730.8-517-730.8z"/>
<path class="st5" d="M-528.3-714.2c0.5,0,1-0.2,1.3-0.5c0.4-0.3,0.5-0.8,0.5-1.2s-0.2-0.9-0.5-1.2c-0.4-0.3-0.8-0.5-1.3-0.5
	s-1,0.2-1.3,0.5s-0.5,0.8-0.5,1.2s0.2,0.9,0.5,1.2S-528.7-714.2-528.3-714.2z"/>
<path class="st5" d="M-516.5-738.8c0.5,0,1-0.2,1.3-0.5c0.4-0.3,0.5-0.8,0.5-1.2s-0.2-0.9-0.5-1.2c-0.4-0.3-0.8-0.5-1.3-0.5
	c-0.5,0-1,0.2-1.3,0.5s-0.5,0.8-0.5,1.2s0.2,0.9,0.5,1.2S-517-738.8-516.5-738.8z"/>
<rect x="-227" y="-973.7" class="st0" width="310.5" height="270"/>
<path class="st7" d="M-213.9-703.7v-270"/>
<path class="st8" d="M-213.9-703.7"/>
<rect x="-227" y="-973.7" class="st0" width="310.5" height="270"/>
<path class="st7" d="M-156.1-703.7v-270"/>
<path class="st8" d="M-156.1-703.7"/>
<rect x="-227" y="-973.7" class="st0" width="310.5" height="270"/>
<path class="st7" d="M-98.3-703.7v-270"/>
<path class="st8" d="M-98.3-703.7"/>
<rect x="-227" y="-973.7" class="st0" width="310.5" height="270"/>
<path class="st7" d="M-40.6-703.7v-270"/>
<path class="st8" d="M-40.6-703.7"/>
<rect x="-227" y="-973.7" class="st0" width="310.5" height="270"/>
<path class="st7" d="M17.2-703.7v-270"/>
<path class="st8" d="M17.2-703.7"/>
<rect x="-227" y="-973.7" class="st0" width="310.5" height="270"/>
<path class="st10" d="M75-703.7v-270"/>
<path class="st8" d="M75-703.7"/>
<rect x="-227" y="-973.7" class="st0" width="310.5" height="270"/>
<path class="st9" d="M-185-703.7v-270"/>
<rect x="-227" y="-973.7" class="st0" width="310.5" height="270"/>
<path class="st9" d="M-127.2-703.7v-270"/>
<rect x="-227" y="-973.7" class="st0" width="310.5" height="270"/>
<path class="st9" d="M-69.5-703.7v-270"/>
<rect x="-227" y="-973.7" class="st0" width="310.5" height="270"/>
<path class="st9" d="M-11.7-703.7v-270"/>
<rect x="-227" y="-973.7" class="st0" width="310.5" height="270"/>
<path class="st9" d="M46.1-703.7v-270"/>
<rect x="-227" y="-973.7" class="st0" width="310.5" height="270"/>
<path class="st7" d="M-227-714.1h305"/>
<rect x="-227" y="-973.7" class="st0" width="310.5" height="270"/>
<path class="st7" d="M-227-780.1h305"/>
<rect x="-227" y="-973.7" class="st0" width="310.5" height="270"/>
<path class="st7" d="M-227-846.2h305"/>
<rect x="-227" y="-973.7" class="st0" width="310.5" height="270"/>
<path class="st7" d="M-227-912.3h305"/>
<rect x="-227" y="-973.7" class="st0" width="310.5" height="270"/>
<path class="st7" d="M-227-747.1h305"/>
<rect x="-227" y="-973.7" class="st0" width="310.5" height="270"/>
<path class="st7" d="M-227-813.2h305"/>
<rect x="-227" y="-973.7" class="st0" width="310.5" height="270"/>
<path class="st7" d="M-227-879.3h305"/>
<rect x="-227" y="-973.7" class="st0" width="310.5" height="270"/>
<path class="st7" d="M-227-945.3h305"/>
<rect x="-227" y="-973.7" class="st0" width="310.5" height="270"/>
<path class="st6" d="M69.4-932.1c0.5,0,1-0.2,1.3-0.5c0.4-0.3,0.5-0.8,0.5-1.2s-0.2-0.9-0.5-1.2c-0.4-0.3-0.8-0.5-1.3-0.5
	c-0.5,0-1,0.2-1.3,0.5c-0.4,0.3-0.5,0.8-0.5,1.2s0.2,0.9,0.5,1.2C68.4-932.3,68.9-932.1,69.4-932.1z"/>
<rect x="-227" y="-973.7" class="st0" width="310.5" height="270"/>
<path class="st6" d="M-186.1-787.9c0.5,0,1-0.2,1.3-0.5c0.4-0.3,0.5-0.8,0.5-1.2s-0.2-0.9-0.5-1.2c-0.4-0.3-0.8-0.5-1.3-0.5
	c-0.5,0-1,0.2-1.3,0.5c-0.4,0.3-0.5,0.8-0.5,1.2s0.2,0.9,0.5,1.2C-187.1-788-186.6-787.9-186.1-787.9z"/>
<rect x="-227" y="-973.7" class="st0" width="310.5" height="270"/>
<path class="st6" d="M-181.3-786c0.5,0,1-0.2,1.3-0.5c0.4-0.3,0.5-0.8,0.5-1.2s-0.2-0.9-0.5-1.2c-0.4-0.3-0.8-0.5-1.3-0.5
	c-0.5,0-1,0.2-1.3,0.5c-0.4,0.3-0.5,0.8-0.5,1.2s0.2,0.9,0.5,1.2C-182.3-786.2-181.8-786-181.3-786z"/>
<rect x="-227" y="-973.7" class="st0" width="310.5" height="270"/>
<path class="st6" d="M-197.4-757.7c0.5,0,1-0.2,1.3-0.5c0.4-0.3,0.5-0.8,0.5-1.2c0-0.5-0.2-0.9-0.5-1.2c-0.4-0.3-0.8-0.5-1.3-0.5
	c-0.5,0-1,0.2-1.3,0.5c-0.4,0.3-0.5,0.8-0.5,1.2c0,0.5,0.2,0.9,0.5,1.2C-198.3-757.8-197.9-757.7-197.4-757.7z"/>
<rect x="-227" y="-973.7" class="st0" width="310.5" height="270"/>
<path class="st6" d="M-193.1-759.5c0.5,0,1-0.2,1.3-0.5c0.4-0.3,0.5-0.8,0.5-1.2s-0.2-0.9-0.5-1.2c-0.4-0.3-0.8-0.5-1.3-0.5
	c-0.5,0-1,0.2-1.3,0.5c-0.4,0.3-0.5,0.8-0.5,1.2s0.2,0.9,0.5,1.2C-194.1-759.7-193.6-759.5-193.1-759.5z"/>
<rect x="-227" y="-973.7" class="st0" width="310.5" height="270"/>
<path class="st6" d="M-187.5-786c0.5,0,1-0.2,1.3-0.5s0.5-0.8,0.5-1.2s-0.2-0.9-0.5-1.2s-0.8-0.5-1.3-0.5c-0.5,0-1,0.2-1.3,0.5
	c-0.4,0.3-0.5,0.8-0.5,1.2s0.2,0.9,0.5,1.2C-188.5-786.2-188-786-187.5-786z"/>
<rect x="-227" y="-973.7" class="st0" width="310.5" height="270"/>
<path class="st6" d="M-191.6-750.1c0.5,0,1-0.2,1.3-0.5c0.4-0.3,0.5-0.8,0.5-1.2s-0.2-0.9-0.5-1.2c-0.4-0.3-0.8-0.5-1.3-0.5
	c-0.5,0-1,0.2-1.3,0.5c-0.4,0.3-0.5,0.8-0.5,1.2s0.2,0.9,0.5,1.2C-192.6-750.3-192.1-750.1-191.6-750.1z"/>
<rect x="-227" y="-973.7" class="st0" width="310.5" height="270"/>
<path class="st6" d="M-187-786c0.5,0,1-0.2,1.3-0.5c0.4-0.3,0.5-0.8,0.5-1.2s-0.2-0.9-0.5-1.2c-0.4-0.3-0.8-0.5-1.3-0.5
	c-0.5,0-1,0.2-1.3,0.5c-0.4,0.3-0.5,0.8-0.5,1.2s0.2,0.9,0.5,1.2C-188-786.2-187.5-786-187-786z"/>
<rect x="-227" y="-973.7" class="st0" width="310.5" height="270"/>
<path class="st6" d="M-207.4-727.4c0.5,0,1-0.2,1.3-0.5c0.4-0.3,0.5-0.8,0.5-1.2s-0.2-0.9-0.5-1.2c-0.4-0.3-0.8-0.5-1.3-0.5
	c-0.5,0-1,0.2-1.3,0.5c-0.4,0.3-0.5,0.8-0.5,1.2s0.2,0.9,0.5,1.2C-208.3-727.6-207.9-727.4-207.4-727.4z"/>
<path class="st6" d="M-195.7-750.1c0.5,0,1-0.2,1.3-0.5c0.4-0.3,0.5-0.8,0.5-1.2s-0.2-0.9-0.5-1.2c-0.4-0.3-0.8-0.5-1.3-0.5
	c-0.5,0-1,0.2-1.3,0.5c-0.4,0.3-0.5,0.8-0.5,1.2s0.2,0.9,0.5,1.2C-196.7-750.3-196.2-750.1-195.7-750.1z"/>
<path class="st6" d="M-203.2-738.8c0.5,0,1-0.2,1.3-0.5c0.4-0.3,0.5-0.8,0.5-1.2s-0.2-0.9-0.5-1.2c-0.4-0.3-0.8-0.5-1.3-0.5
	c-0.5,0-1,0.2-1.3,0.5c-0.4,0.3-0.5,0.8-0.5,1.2s0.2,0.9,0.5,1.2C-204.2-738.9-203.7-738.8-203.2-738.8z"/>
<path class="st6" d="M-211.9-716.1c0.5,0,1-0.2,1.3-0.5c0.4-0.3,0.5-0.8,0.5-1.2s-0.2-0.9-0.5-1.2c-0.4-0.3-0.8-0.5-1.3-0.5
	c-0.5,0-1,0.2-1.3,0.5c-0.4,0.3-0.5,0.8-0.5,1.2s0.2,0.9,0.5,1.2S-212.4-716.1-211.9-716.1z"/>
<path class="st6" d="M-211.4-715.2c0.5,0,1-0.2,1.3-0.5c0.4-0.3,0.5-0.8,0.5-1.2s-0.2-0.9-0.5-1.2c-0.4-0.3-0.8-0.5-1.3-0.5
	c-0.5,0-1,0.2-1.3,0.5c-0.4,0.3-0.5,0.8-0.5,1.2s0.2,0.9,0.5,1.2C-212.4-715.3-211.9-715.2-211.4-715.2z"/>
<rect x="-227" y="-973.7" class="st7" width="305" height="270"/>
<path class="st6" d="M-211.3-717.6c0.5,0,1-0.2,1.3-0.5c0.4-0.3,0.5-0.8,0.5-1.2s-0.2-0.9-0.5-1.2c-0.4-0.3-0.8-0.5-1.3-0.5
	c-0.5,0-1,0.2-1.3,0.5c-0.4,0.3-0.5,0.8-0.5,1.2s0.2,0.9,0.5,1.2C-212.3-717.8-211.8-717.6-211.3-717.6z"/>
<text transform="matrix(0.9338 0 0 1 84.5777 -859.879)" class="st11 st12">Borough</text>
<text transform="matrix(0.9338 0 0 1 103.7476 -842.5513)" class="st13 st14 st15">Brooklyn</text>
<text transform="matrix(0.9338 0 0 1 103.0865 -822.3824)" class="st13 st14 st15">Manhattan</text>
<text transform="matrix(1 0 0 1 -477.895 -980.9092)" class="st11 st16">Fire Department</text>
<text transform="matrix(1 0 0 1 -111.7329 -980.9092)" class="st11 st16">Police Department</text>
<text transform="matrix(-2.101200e-03 -1 1 -2.101200e-03 -568.1056 -797.2355)" class="st11 st17">Regular hours</text>
<text transform="matrix(1 -2.100237e-03 2.100237e-03 1 -526.6668 -1016.2612)"><tspan x="0" y="0" class="st11 st18">Police and Fire department employees who worked more</tspan><tspan x="354.1" y="0" class="st11 st18"> </tspan><tspan x="358.2" y="0" class="st11 st18">overtim</tspan><tspan x="404.1" y="0" class="st11 st18">e</tspan><tspan x="411.1" y="0" class="st11 st18"> </tspan><tspan x="415.5" y="0" class="st11 st18">than regular hours in a year</tspan><tspan x="586.7" y="0" class="st11 st18"> </tspan></text>
<rect x="-561.8" y="-915.9" class="st0" width="18.3" height="10.2"/>
<text transform="matrix(1 0 0 1 -561.8042 -908.7081)" class="st11 st19">600</text>
<rect x="-561.9" y="-850.8" class="st0" width="18.3" height="10.2"/>
<text transform="matrix(1 0 0 1 -561.906 -843.6447)" class="st11 st19">400</text>
<rect x="-560.9" y="-783.8" class="st0" width="18.3" height="10.2"/>
<text transform="matrix(1 0 0 1 -560.906 -776.6447)" class="st11 st19">200</text>
<rect x="-564.2" y="-716.7" class="st0" width="18.3" height="10.2"/>
<text transform="matrix(1 0 0 1 -551.4539 -709.5156)" class="st11 st19">0</text>
<rect x="-544.7" y="-700.7" class="st0" width="18.3" height="10.2"/>
<text transform="matrix(1 0 0 1 -531.9666 -693.5576)" class="st11 st19">0</text>
<rect x="-481.1" y="-700.7" class="st0" width="18.3" height="10.2"/>
<text transform="matrix(1 0 0 1 -479.4746 -693.5576)" class="st11 st19">500</text>
<rect x="-426.4" y="-700.7" class="st0" width="22.8" height="10.2"/>
<text transform="matrix(1 0 0 1 -426.403 -693.558)" class="st11 st19">1000</text>
<rect x="-367.8" y="-700.5" class="st0" width="22.8" height="10.2"/>
<text transform="matrix(1 0 0 1 -367.8157 -693.3419)" class="st11 st19">1500</text>
<rect x="-310.1" y="-700.5" class="st0" width="22.8" height="10.2"/>
<text transform="matrix(1 0 0 1 -310.0529 -693.3419)" class="st11 st19">2000</text>
<rect x="-255.2" y="-700.6" class="st0" width="22.8" height="10.2"/>
<text transform="matrix(1 0 0 1 -255.1726 -693.4028)" class="st11 st19">2500</text>
<rect x="-215.9" y="-700.5" class="st0" width="6.7" height="10.2"/>
<text transform="matrix(1 0 0 1 -215.9263 -693.3419)" class="st11 st19">0</text>
<rect x="-167.8" y="-700.6" class="st0" width="22.8" height="10.2"/>
<text transform="matrix(1 0 0 1 -164.7768 -693.4028)" class="st11 st19">500</text>
<rect x="-109.7" y="-700.3" class="st0" width="22.8" height="10.2"/>
<text transform="matrix(1 0 0 1 -109.7349 -693.1895)" class="st11 st19">1000</text>
<rect x="-51.8" y="-700.6" class="st0" width="22.8" height="10.2"/>
<text transform="matrix(1 0 0 1 -51.8393 -693.459)" class="st11 st19">1500</text>
<rect x="6" y="-700.3" class="st0" width="22.8" height="10.2"/>
<text transform="matrix(1 0 0 1 5.9899 -693.1895)" class="st11 st19">2000</text>
<rect x="66.5" y="-700.6" class="st0" width="22.8" height="10.2"/>
<text transform="matrix(1 0 0 1 66.5079 -693.459)" class="st11 st19">2500</text>
<text transform="matrix(1 2.675994e-03 -2.675994e-03 1 -268.758 -674.1547)" class="st11 st17">Overtime hours</text>
<rect x="-706.1" y="-434.1" class="st0" width="223" height="193.8"/>
<rect x="-706.1" y="-434.1" class="st0" width="223" height="193.8"/>
<rect x="-706.1" y="-434.1" class="st0" width="223" height="193.8"/>
<rect x="-706.1" y="-434.1" class="st0" width="223" height="193.8"/>
<path class="st1" d="M-706.4-237.9"/>
<rect x="-706.1" y="-434.1" class="st0" width="223" height="193.8"/>
<rect x="-706.1" y="-434.1" class="st0" width="223" height="193.8"/>
<path class="st2" d="M-705.7-240.2v-193.8"/>
<path class="st1" d="M-716.6-233"/>
<rect x="-706.1" y="-434.1" class="st0" width="223" height="193.8"/>
<rect x="-706.1" y="-434.1" class="st0" width="223" height="193.8"/>
<rect x="-706.1" y="-434.1" class="st0" width="223" height="193.8"/>
<rect x="-706.1" y="-434.1" class="st0" width="223" height="193.8"/>
<rect x="-706.1" y="-434.1" class="st0" width="223" height="193.8"/>
<rect x="-706.1" y="-434.1" class="st0" width="223" height="193.8"/>
<path class="st1" d="M-706.1-247.7"/>
<rect x="-706.1" y="-434.1" class="st0" width="223" height="193.8"/>
<path class="st1" d="M-706.1-295.1"/>
<rect x="-706.1" y="-434.1" class="st0" width="223" height="193.8"/>
<path class="st1" d="M-706.1-342.6"/>
<rect x="-706.1" y="-434.1" class="st0" width="223" height="193.8"/>
<path class="st1" d="M-706.1-390"/>
<rect x="-706.1" y="-434.1" class="st0" width="223" height="193.8"/>
<rect x="-706.1" y="-434.1" class="st0" width="223" height="193.8"/>
<path id="DejaVuSans-20_00000015334432939932442760000003158307917791862915_" d="M-727.1-318.7"/>
<path id="DejaVuSans-20_00000179621341537263476900000008219842544726802072_" d="M-727.1-342.8"/>
<polyline class="st0" points="-253.4,-336.7 -253.4,-348.7 -241.4,-348.7 -241.4,-336.7 "/>
<path class="st3" d="M-253.4-336.7h11.9v-11.9h-11.9V-336.7z"/>
<polyline class="st0" points="-253.4,-336.7 -253.4,-348.7 -241.4,-348.7 -241.4,-336.7 "/>
<path class="st4" d="M-247.4-342.7"/>
<polyline class="st0" points="-253.4,-336.7 -253.4,-348.7 -241.4,-348.7 -241.4,-336.7 "/>
<path id="m7e3595c533_00000114763234688237619670000008080052165500870272_" class="st5" d="M-247.4-341.4c0.4,0,0.7-0.1,0.9-0.4
	c0.3-0.3,0.4-0.6,0.4-0.9s-0.1-0.7-0.4-0.9c-0.3-0.3-0.6-0.4-0.9-0.4c-0.4,0-0.7,0.1-0.9,0.4c-0.3,0.3-0.4,0.6-0.4,0.9
	s0.1,0.7,0.4,0.9C-248.1-341.5-247.7-341.4-247.4-341.4z"/>
<polyline class="st0" points="-253.4,-323.3 -253.4,-335.2 -241.4,-335.2 -241.4,-323.3 "/>
<path class="st3" d="M-253.4-323.3h11.9v-11.9h-11.9V-323.3z"/>
<polyline class="st0" points="-253.4,-323.3 -253.4,-335.2 -241.4,-335.2 -241.4,-323.3 "/>
<path class="st4" d="M-247.4-329.3"/>
<polyline class="st0" points="-253.4,-323.3 -253.4,-335.2 -241.4,-335.2 -241.4,-323.3 "/>
<path id="mffdbdef117_00000085951739698851156660000000294661894677380267_" class="st6" d="M-247.4-327.9c0.4,0,0.7-0.1,0.9-0.4
	c0.3-0.3,0.4-0.6,0.4-0.9s-0.1-0.7-0.4-0.9c-0.3-0.3-0.6-0.4-0.9-0.4c-0.4,0-0.7,0.1-0.9,0.4c-0.3,0.3-0.4,0.6-0.4,0.9
	s0.1,0.7,0.4,0.9C-248.1-328.1-247.7-327.9-247.4-327.9z"/>
<rect x="-706.6" y="-434.1" class="st0" width="223" height="193.8"/>
<path class="st7" d="M-697.1-240.2v-193.8"/>
<path class="st8" d="M-697.1-240.2"/>
<rect x="-706.6" y="-434.1" class="st0" width="223" height="193.8"/>
<path class="st7" d="M-655.7-240.2v-193.8"/>
<path class="st8" d="M-655.7-240.2"/>
<rect x="-706.6" y="-434.1" class="st0" width="223" height="193.8"/>
<path class="st7" d="M-614.2-240.2v-193.8"/>
<path class="st8" d="M-614.2-240.2"/>
<rect x="-706.6" y="-434.1" class="st0" width="223" height="193.8"/>
<path class="st7" d="M-572.7-240.2v-193.8"/>
<path class="st8" d="M-572.7-240.2"/>
<rect x="-706.6" y="-434.1" class="st0" width="223" height="193.8"/>
<path class="st7" d="M-531.3-240.2v-193.8"/>
<path class="st8" d="M-531.3-240.2"/>
<rect x="-706.6" y="-434.1" class="st0" width="223" height="193.8"/>
<path class="st8" d="M-489.8-240.2"/>
<rect x="-706.6" y="-434.1" class="st0" width="223" height="193.8"/>
<path class="st9" d="M-676.4-240.2v-193.8"/>
<rect x="-706.6" y="-434.1" class="st0" width="223" height="193.8"/>
<path class="st9" d="M-634.9-240.2v-193.8"/>
<rect x="-706.6" y="-434.1" class="st0" width="223" height="193.8"/>
<path class="st9" d="M-593.5-240.2v-193.8"/>
<rect x="-706.6" y="-434.1" class="st0" width="223" height="193.8"/>
<path class="st9" d="M-552-240.2v-193.8"/>
<rect x="-706.6" y="-434.1" class="st0" width="223" height="193.8"/>
<path class="st9" d="M-510.5-240.2v-193.8"/>
<rect x="-706.6" y="-434.1" class="st0" width="223" height="193.8"/>
<path class="st7" d="M-706.6-247.7h216.3"/>
<rect x="-706.6" y="-434.1" class="st0" width="223" height="193.8"/>
<path class="st7" d="M-706.6-295.1h216.3"/>
<rect x="-706.6" y="-434.1" class="st0" width="223" height="193.8"/>
<path class="st7" d="M-706.6-342.6h216.3"/>
<rect x="-706.6" y="-434.1" class="st0" width="223" height="193.8"/>
<path class="st7" d="M-706.6-390h216.3"/>
<rect x="-706.6" y="-434.1" class="st0" width="223" height="193.8"/>
<path class="st7" d="M-706.6-271.4h216.3"/>
<rect x="-706.6" y="-434.1" class="st0" width="223" height="193.8"/>
<path class="st7" d="M-706.6-318.9h216.3"/>
<rect x="-706.6" y="-434.1" class="st0" width="223" height="193.8"/>
<path class="st7" d="M-706.6-366.3h216.3"/>
<rect x="-706.6" y="-434.1" class="st0" width="223" height="193.8"/>
<path class="st7" d="M-706.6-413.7h216.3"/>
<rect x="-706.6" y="-434.1" class="st0" width="223" height="193.8"/>
<path class="st5" d="M-626.3-401c0.4,0,0.7-0.1,0.9-0.4c0.3-0.2,0.4-0.5,0.4-0.9s-0.1-0.6-0.4-0.9c-0.3-0.2-0.6-0.4-0.9-0.4
	c-0.4,0-0.7,0.1-0.9,0.4c-0.3,0.2-0.4,0.5-0.4,0.9s0.1,0.6,0.4,0.9C-627-401.1-626.6-401-626.3-401z"/>
<rect x="-706.6" y="-434.1" class="st0" width="223" height="193.8"/>
<path class="st5" d="M-633.1-424c0.4,0,0.7-0.1,0.9-0.4c0.3-0.2,0.4-0.5,0.4-0.9c0-0.3-0.1-0.6-0.4-0.9c-0.3-0.2-0.6-0.4-0.9-0.4
	c-0.4,0-0.7,0.1-0.9,0.4c-0.3,0.2-0.4,0.5-0.4,0.9c0,0.3,0.1,0.6,0.4,0.9C-633.8-424.2-633.4-424-633.1-424z"/>
<rect x="-706.6" y="-434.1" class="st0" width="223" height="193.8"/>
<path class="st5" d="M-649.5-368.5c0.4,0,0.7-0.1,0.9-0.4s0.4-0.5,0.4-0.9s-0.1-0.6-0.4-0.9c-0.3-0.2-0.6-0.4-0.9-0.4
	c-0.4,0-0.7,0.1-0.9,0.4c-0.3,0.2-0.4,0.5-0.4,0.9s0.1,0.6,0.4,0.9C-650.1-368.6-649.8-368.5-649.5-368.5z"/>
<rect x="-706.6" y="-434.1" class="st0" width="223" height="193.8"/>
<path class="st5" d="M-662.5-307.5c0.4,0,0.7-0.1,0.9-0.4s0.4-0.5,0.4-0.9s-0.1-0.6-0.4-0.9c-0.3-0.2-0.6-0.4-0.9-0.4
	c-0.4,0-0.7,0.1-0.9,0.4c-0.3,0.2-0.4,0.5-0.4,0.9s0.1,0.6,0.4,0.9C-663.2-307.6-662.9-307.5-662.5-307.5z"/>
<rect x="-706.6" y="-434.1" class="st0" width="223" height="193.8"/>
<path class="st5" d="M-669.1-312.9c0.4,0,0.7-0.1,0.9-0.4c0.3-0.2,0.4-0.5,0.4-0.9s-0.1-0.6-0.4-0.9c-0.3-0.2-0.6-0.4-0.9-0.4
	c-0.4,0-0.7,0.1-0.9,0.4c-0.3,0.2-0.4,0.5-0.4,0.9s0.1,0.6,0.4,0.9C-669.8-313-669.5-312.9-669.1-312.9z"/>
<rect x="-706.6" y="-434.1" class="st0" width="223" height="193.8"/>
<path class="st5" d="M-655.2-337.3c0.4,0,0.7-0.1,0.9-0.4c0.3-0.2,0.4-0.5,0.4-0.9c0-0.3-0.1-0.6-0.4-0.9c-0.3-0.2-0.6-0.4-0.9-0.4
	c-0.4,0-0.7,0.1-0.9,0.4c-0.3,0.2-0.4,0.5-0.4,0.9c0,0.3,0.1,0.6,0.4,0.9C-655.9-337.4-655.6-337.3-655.2-337.3z"/>
<rect x="-706.6" y="-434.1" class="st0" width="223" height="193.8"/>
<path class="st5" d="M-657.6-357.6c0.4,0,0.7-0.1,0.9-0.4c0.3-0.2,0.4-0.5,0.4-0.9c0-0.3-0.1-0.6-0.4-0.9c-0.3-0.2-0.6-0.4-0.9-0.4
	c-0.4,0-0.7,0.1-0.9,0.4c-0.3,0.2-0.4,0.5-0.4,0.9c0,0.3,0.1,0.6,0.4,0.9C-658.3-357.7-658-357.6-657.6-357.6z"/>
<rect x="-706.6" y="-434.1" class="st0" width="223" height="193.8"/>
<path class="st5" d="M-667.2-326.4c0.4,0,0.7-0.1,0.9-0.4c0.3-0.2,0.4-0.5,0.4-0.9s-0.1-0.6-0.4-0.9c-0.3-0.2-0.6-0.4-0.9-0.4
	c-0.4,0-0.7,0.1-0.9,0.4c-0.3,0.2-0.4,0.5-0.4,0.9s0.1,0.6,0.4,0.9C-667.9-326.6-667.6-326.4-667.2-326.4z"/>
<rect x="-706.6" y="-434.1" class="st0" width="223" height="193.8"/>
<path class="st5" d="M-689-254.6c0.4,0,0.7-0.1,0.9-0.4c0.3-0.2,0.4-0.5,0.4-0.9s-0.1-0.6-0.4-0.9s-0.6-0.4-0.9-0.4
	c-0.4,0-0.7,0.1-0.9,0.4c-0.3,0.2-0.4,0.5-0.4,0.9s0.1,0.6,0.4,0.9C-689.7-254.7-689.4-254.6-689-254.6z"/>
<rect x="-706.6" y="-434.1" class="st0" width="223" height="193.8"/>
<path class="st5" d="M-667.7-299.3c0.4,0,0.7-0.1,0.9-0.4c0.3-0.2,0.4-0.5,0.4-0.9c0-0.3-0.1-0.6-0.4-0.9c-0.3-0.2-0.6-0.4-0.9-0.4
	c-0.4,0-0.7,0.1-0.9,0.4c-0.3,0.2-0.4,0.5-0.4,0.9c0,0.3,0.1,0.6,0.4,0.9C-668.4-299.5-668.1-299.3-667.7-299.3z"/>
<rect x="-706.6" y="-434.1" class="st0" width="223" height="193.8"/>
<path class="st5" d="M-678.1-299.3c0.4,0,0.7-0.1,0.9-0.4c0.3-0.2,0.4-0.5,0.4-0.9c0-0.3-0.1-0.6-0.4-0.9c-0.3-0.2-0.6-0.4-0.9-0.4
	s-0.7,0.1-0.9,0.4c-0.3,0.2-0.4,0.5-0.4,0.9c0,0.3,0.1,0.6,0.4,0.9C-678.8-299.5-678.5-299.3-678.1-299.3z"/>
<rect x="-706.6" y="-434.1" class="st0" width="223" height="193.8"/>
<path class="st5" d="M-673.2-307.5c0.4,0,0.7-0.1,0.9-0.4c0.3-0.2,0.4-0.5,0.4-0.9s-0.1-0.6-0.4-0.9c-0.3-0.2-0.6-0.4-0.9-0.4
	c-0.4,0-0.7,0.1-0.9,0.4c-0.3,0.2-0.4,0.5-0.4,0.9s0.1,0.6,0.4,0.9C-673.9-307.6-673.6-307.5-673.2-307.5z"/>
<rect x="-706.6" y="-434.1" class="st0" width="223" height="193.8"/>
<path class="st5" d="M-682-251.9c0.4,0,0.7-0.1,0.9-0.4c0.3-0.2,0.4-0.5,0.4-0.9c0-0.3-0.1-0.6-0.4-0.9c-0.3-0.2-0.6-0.4-0.9-0.4
	c-0.4,0-0.7,0.1-0.9,0.4c-0.3,0.2-0.4,0.5-0.4,0.9c0,0.3,0.1,0.6,0.4,0.9C-682.7-252-682.4-251.9-682-251.9z"/>
<rect x="-706.6" y="-434.1" class="st0" width="223" height="193.8"/>
<path class="st5" d="M-688.2-260c0.4,0,0.7-0.1,0.9-0.4s0.4-0.5,0.4-0.9s-0.1-0.6-0.4-0.9c-0.3-0.2-0.6-0.4-0.9-0.4
	c-0.4,0-0.7,0.1-0.9,0.4c-0.3,0.2-0.4,0.5-0.4,0.9s0.1,0.6,0.4,0.9C-688.9-260.1-688.5-260-688.2-260z"/>
<rect x="-706.6" y="-434.1" class="st0" width="223" height="193.8"/>
<path class="st5" d="M-679.8-251.9c0.4,0,0.7-0.1,0.9-0.4c0.3-0.2,0.4-0.5,0.4-0.9c0-0.3-0.1-0.6-0.4-0.9c-0.3-0.2-0.6-0.4-0.9-0.4
	c-0.4,0-0.7,0.1-0.9,0.4c-0.3,0.2-0.4,0.5-0.4,0.9c0,0.3,0.1,0.6,0.4,0.9C-680.5-252-680.2-251.9-679.8-251.9z"/>
<rect x="-706.6" y="-434.1" class="st0" width="223" height="193.8"/>
<path class="st5" d="M-693.9-251.9c0.4,0,0.7-0.1,0.9-0.4c0.3-0.2,0.4-0.5,0.4-0.9c0-0.3-0.1-0.6-0.4-0.9c-0.3-0.2-0.6-0.4-0.9-0.4
	c-0.4,0-0.7,0.1-0.9,0.4c-0.3,0.2-0.4,0.5-0.4,0.9c0,0.3,0.1,0.6,0.4,0.9C-694.6-252-694.3-251.9-693.9-251.9z"/>
<rect x="-706.6" y="-434.1" class="st0" width="223" height="193.8"/>
<path class="st5" d="M-690.1-251.9c0.4,0,0.7-0.1,0.9-0.4c0.3-0.2,0.4-0.5,0.4-0.9c0-0.3-0.1-0.6-0.4-0.9c-0.3-0.2-0.6-0.4-0.9-0.4
	c-0.4,0-0.7,0.1-0.9,0.4c-0.3,0.2-0.4,0.5-0.4,0.9c0,0.3,0.1,0.6,0.4,0.9C-690.8-252-690.5-251.9-690.1-251.9z"/>
<rect x="-706.6" y="-434.1" class="st0" width="223" height="193.8"/>
<path class="st5" d="M-693.9-251.9c0.4,0,0.7-0.1,0.9-0.4c0.3-0.2,0.4-0.5,0.4-0.9c0-0.3-0.1-0.6-0.4-0.9c-0.3-0.2-0.6-0.4-0.9-0.4
	c-0.4,0-0.7,0.1-0.9,0.4c-0.3,0.2-0.4,0.5-0.4,0.9c0,0.3,0.1,0.6,0.4,0.9C-694.6-252-694.3-251.9-693.9-251.9z"/>
<rect x="-706.6" y="-434.1" class="st0" width="223" height="193.8"/>
<path class="st5" d="M-685.2-251.9c0.4,0,0.7-0.1,0.9-0.4c0.3-0.2,0.4-0.5,0.4-0.9c0-0.3-0.1-0.6-0.4-0.9c-0.3-0.2-0.6-0.4-0.9-0.4
	c-0.4,0-0.7,0.1-0.9,0.4c-0.3,0.2-0.4,0.5-0.4,0.9c0,0.3,0.1,0.6,0.4,0.9C-685.9-252-685.6-251.9-685.2-251.9z"/>
<rect x="-706.6" y="-434.1" class="st0" width="223" height="193.8"/>
<path class="st5" d="M-695.2-251.9c0.4,0,0.7-0.1,0.9-0.4c0.3-0.2,0.4-0.5,0.4-0.9c0-0.3-0.1-0.6-0.4-0.9c-0.3-0.2-0.6-0.4-0.9-0.4
	c-0.4,0-0.7,0.1-0.9,0.4c-0.3,0.2-0.4,0.5-0.4,0.9c0,0.3,0.1,0.6,0.4,0.9C-695.9-252-695.5-251.9-695.2-251.9z"/>
<rect x="-706.6" y="-434.1" class="st0" width="223" height="193.8"/>
<path class="st5" d="M-692.5-251.9c0.4,0,0.7-0.1,0.9-0.4c0.3-0.2,0.4-0.5,0.4-0.9c0-0.3-0.1-0.6-0.4-0.9c-0.3-0.2-0.6-0.4-0.9-0.4
	c-0.4,0-0.7,0.1-0.9,0.4c-0.3,0.2-0.4,0.5-0.4,0.9c0,0.3,0.1,0.6,0.4,0.9C-693.2-252-692.9-251.9-692.5-251.9z"/>
<rect x="-706.6" y="-434.1" class="st0" width="223" height="193.8"/>
<path class="st5" d="M-693.8-251.9c0.4,0,0.7-0.1,0.9-0.4c0.3-0.2,0.4-0.5,0.4-0.9c0-0.3-0.1-0.6-0.4-0.9c-0.3-0.2-0.6-0.4-0.9-0.4
	c-0.4,0-0.7,0.1-0.9,0.4c-0.3,0.2-0.4,0.5-0.4,0.9c0,0.3,0.1,0.6,0.4,0.9C-694.5-252-694.2-251.9-693.8-251.9z"/>
<rect x="-706.6" y="-434.1" class="st7" width="216.3" height="193.8"/>
<path class="st5" d="M-692.1-251.9c0.4,0,0.7-0.1,0.9-0.4c0.3-0.2,0.4-0.5,0.4-0.9c0-0.3-0.1-0.6-0.4-0.9c-0.3-0.2-0.6-0.4-0.9-0.4
	s-0.7,0.1-0.9,0.4c-0.3,0.2-0.4,0.5-0.4,0.9c0,0.3,0.1,0.6,0.4,0.9C-692.8-252-692.4-251.9-692.1-251.9z"/>
<path class="st5" d="M-688-259.7c0.4,0,0.7-0.1,0.9-0.4c0.3-0.2,0.4-0.5,0.4-0.9c0-0.3-0.1-0.6-0.4-0.9c-0.3-0.2-0.6-0.4-0.9-0.4
	c-0.4,0-0.7,0.1-0.9,0.4c-0.3,0.2-0.4,0.5-0.4,0.9c0,0.3,0.1,0.6,0.4,0.9C-688.7-259.9-688.4-259.7-688-259.7z"/>
<path class="st5" d="M-696.1-247.8c0.4,0,0.7-0.1,0.9-0.4c0.3-0.2,0.4-0.5,0.4-0.9c0-0.3-0.1-0.6-0.4-0.9c-0.3-0.2-0.6-0.4-0.9-0.4
	s-0.7,0.1-0.9,0.4c-0.3,0.2-0.4,0.5-0.4,0.9c0,0.3,0.1,0.6,0.4,0.9C-696.8-247.9-696.5-247.8-696.1-247.8z"/>
<path class="st5" d="M-687.7-265.4c0.4,0,0.7-0.1,0.9-0.4c0.3-0.2,0.4-0.5,0.4-0.9s-0.1-0.6-0.4-0.9c-0.3-0.2-0.6-0.4-0.9-0.4
	c-0.4,0-0.7,0.1-0.9,0.4c-0.3,0.2-0.4,0.5-0.4,0.9s0.1,0.6,0.4,0.9C-688.4-265.6-688-265.4-687.7-265.4z"/>
<rect x="-479.8" y="-434.1" class="st0" width="223" height="193.8"/>
<path class="st7" d="M-470.4-240.2v-193.8"/>
<path class="st8" d="M-470.4-240.2"/>
<rect x="-479.8" y="-434.1" class="st0" width="223" height="193.8"/>
<path class="st7" d="M-428.9-240.2v-193.8"/>
<path class="st8" d="M-428.9-240.2"/>
<rect x="-479.8" y="-434.1" class="st0" width="223" height="193.8"/>
<path class="st7" d="M-387.4-240.2v-193.8"/>
<path class="st8" d="M-387.4-240.2"/>
<rect x="-479.8" y="-434.1" class="st0" width="223" height="193.8"/>
<path class="st7" d="M-346-240.2v-193.8"/>
<path class="st8" d="M-346-240.2"/>
<rect x="-479.8" y="-434.1" class="st0" width="223" height="193.8"/>
<path class="st7" d="M-304.5-240.2v-193.8"/>
<path class="st8" d="M-304.5-240.2"/>
<rect x="-479.8" y="-434.1" class="st0" width="223" height="193.8"/>
<path class="st10" d="M-263-240.2v-193.8"/>
<path class="st8" d="M-263-240.2"/>
<rect x="-479.8" y="-434.1" class="st0" width="223" height="193.8"/>
<path class="st9" d="M-449.6-240.2v-193.8"/>
<rect x="-479.8" y="-434.1" class="st0" width="223" height="193.8"/>
<path class="st9" d="M-408.2-240.2v-193.8"/>
<rect x="-479.8" y="-434.1" class="st0" width="223" height="193.8"/>
<path class="st9" d="M-366.7-240.2v-193.8"/>
<rect x="-479.8" y="-434.1" class="st0" width="223" height="193.8"/>
<path class="st9" d="M-325.2-240.2v-193.8"/>
<rect x="-479.8" y="-434.1" class="st0" width="223" height="193.8"/>
<path class="st9" d="M-283.7-240.2v-193.8"/>
<rect x="-479.8" y="-434.1" class="st0" width="223" height="193.8"/>
<path class="st7" d="M-479.8-247.7h219"/>
<rect x="-479.8" y="-434.1" class="st0" width="223" height="193.8"/>
<path class="st7" d="M-479.8-295.1h219"/>
<rect x="-479.8" y="-434.1" class="st0" width="223" height="193.8"/>
<path class="st7" d="M-479.8-342.6h219"/>
<rect x="-479.8" y="-434.1" class="st0" width="223" height="193.8"/>
<path class="st7" d="M-479.8-390h219"/>
<rect x="-479.8" y="-434.1" class="st0" width="223" height="193.8"/>
<path class="st7" d="M-479.8-271.4h219"/>
<rect x="-479.8" y="-434.1" class="st0" width="223" height="193.8"/>
<path class="st7" d="M-479.8-318.9h219"/>
<rect x="-479.8" y="-434.1" class="st0" width="223" height="193.8"/>
<path class="st7" d="M-479.8-366.3h219"/>
<rect x="-479.8" y="-434.1" class="st0" width="223" height="193.8"/>
<path class="st7" d="M-479.8-413.7h219"/>
<rect x="-479.8" y="-434.1" class="st0" width="223" height="193.8"/>
<path class="st6" d="M-267-404.2c0.4,0,0.7-0.1,0.9-0.4c0.3-0.2,0.4-0.5,0.4-0.9s-0.1-0.6-0.4-0.9c-0.3-0.2-0.6-0.4-0.9-0.4
	c-0.4,0-0.7,0.1-0.9,0.4c-0.3,0.2-0.4,0.5-0.4,0.9s0.1,0.6,0.4,0.9C-267.7-404.4-267.4-404.2-267-404.2z"/>
<rect x="-479.8" y="-434.1" class="st0" width="223" height="193.8"/>
<path class="st6" d="M-450.5-300.7c0.4,0,0.7-0.1,0.9-0.4c0.3-0.2,0.4-0.5,0.4-0.9c0-0.3-0.1-0.6-0.4-0.9c-0.3-0.2-0.6-0.4-0.9-0.4
	c-0.4,0-0.7,0.1-0.9,0.4c-0.3,0.2-0.4,0.5-0.4,0.9c0,0.3,0.1,0.6,0.4,0.9C-451.2-300.8-450.8-300.7-450.5-300.7z"/>
<rect x="-479.8" y="-434.1" class="st0" width="223" height="193.8"/>
<path class="st6" d="M-447-299.3c0.4,0,0.7-0.1,0.9-0.4c0.3-0.2,0.4-0.5,0.4-0.9c0-0.3-0.1-0.6-0.4-0.9c-0.3-0.2-0.6-0.4-0.9-0.4
	c-0.4,0-0.7,0.1-0.9,0.4c-0.3,0.2-0.4,0.5-0.4,0.9c0,0.3,0.1,0.6,0.4,0.9C-447.7-299.5-447.4-299.3-447-299.3z"/>
<rect x="-479.8" y="-434.1" class="st0" width="223" height="193.8"/>
<path class="st6" d="M-458.5-279c0.4,0,0.7-0.1,0.9-0.4c0.3-0.2,0.4-0.5,0.4-0.9s-0.1-0.6-0.4-0.9c-0.3-0.2-0.6-0.4-0.9-0.4
	c-0.4,0-0.7,0.1-0.9,0.4s-0.4,0.5-0.4,0.9s0.1,0.6,0.4,0.9S-458.9-279-458.5-279z"/>
<rect x="-479.8" y="-434.1" class="st0" width="223" height="193.8"/>
<path class="st6" d="M-455.5-280.3c0.4,0,0.7-0.1,0.9-0.4c0.3-0.2,0.4-0.5,0.4-0.9c0-0.3-0.1-0.6-0.4-0.9c-0.3-0.2-0.6-0.4-0.9-0.4
	c-0.4,0-0.7,0.1-0.9,0.4c-0.3,0.2-0.4,0.5-0.4,0.9c0,0.3,0.1,0.6,0.4,0.9C-456.2-280.5-455.8-280.3-455.5-280.3z"/>
<rect x="-479.8" y="-434.1" class="st0" width="223" height="193.8"/>
<path class="st6" d="M-451.5-299.3c0.4,0,0.7-0.1,0.9-0.4c0.3-0.2,0.4-0.5,0.4-0.9c0-0.3-0.1-0.6-0.4-0.9c-0.3-0.2-0.6-0.4-0.9-0.4
	c-0.4,0-0.7,0.1-0.9,0.4c-0.3,0.2-0.4,0.5-0.4,0.9c0,0.3,0.1,0.6,0.4,0.9C-452.2-299.5-451.8-299.3-451.5-299.3z"/>
<rect x="-479.8" y="-434.1" class="st0" width="223" height="193.8"/>
<path class="st6" d="M-454.4-273.6c0.4,0,0.7-0.1,0.9-0.4c0.3-0.2,0.4-0.5,0.4-0.9c0-0.3-0.1-0.6-0.4-0.9c-0.3-0.2-0.6-0.4-0.9-0.4
	c-0.4,0-0.7,0.1-0.9,0.4c-0.3,0.2-0.4,0.5-0.4,0.9c0,0.3,0.1,0.6,0.4,0.9C-455.1-273.7-454.8-273.6-454.4-273.6z"/>
<rect x="-479.8" y="-434.1" class="st0" width="223" height="193.8"/>
<path class="st6" d="M-451.1-299.3c0.4,0,0.7-0.1,0.9-0.4c0.3-0.2,0.4-0.5,0.4-0.9c0-0.3-0.1-0.6-0.4-0.9c-0.3-0.2-0.6-0.4-0.9-0.4
	c-0.4,0-0.7,0.1-0.9,0.4c-0.3,0.2-0.4,0.5-0.4,0.9c0,0.3,0.1,0.6,0.4,0.9C-451.8-299.5-451.4-299.3-451.1-299.3z"/>
<rect x="-479.8" y="-434.1" class="st0" width="223" height="193.8"/>
<path class="st6" d="M-465.7-257.3c0.4,0,0.7-0.1,0.9-0.4c0.3-0.2,0.4-0.5,0.4-0.9c0-0.3-0.1-0.6-0.4-0.9c-0.3-0.2-0.6-0.4-0.9-0.4
	c-0.4,0-0.7,0.1-0.9,0.4c-0.3,0.2-0.4,0.5-0.4,0.9c0,0.3,0.1,0.6,0.4,0.9C-466.4-257.4-466.1-257.3-465.7-257.3z"/>
<path class="st6" d="M-457.4-273.6c0.4,0,0.7-0.1,0.9-0.4c0.3-0.2,0.4-0.5,0.4-0.9c0-0.3-0.1-0.6-0.4-0.9c-0.3-0.2-0.6-0.4-0.9-0.4
	c-0.4,0-0.7,0.1-0.9,0.4c-0.3,0.2-0.4,0.5-0.4,0.9c0,0.3,0.1,0.6,0.4,0.9C-458-273.7-457.7-273.6-457.4-273.6z"/>
<path class="st6" d="M-462.7-265.4c0.4,0,0.7-0.1,0.9-0.4c0.3-0.2,0.4-0.5,0.4-0.9c0-0.3-0.1-0.6-0.4-0.9c-0.3-0.2-0.6-0.4-0.9-0.4
	c-0.4,0-0.7,0.1-0.9,0.4c-0.3,0.2-0.4,0.5-0.4,0.9c0,0.3,0.1,0.6,0.4,0.9C-463.4-265.6-463.1-265.4-462.7-265.4z"/>
<path class="st6" d="M-469-249.2c0.4,0,0.7-0.1,0.9-0.4c0.3-0.2,0.4-0.5,0.4-0.9c0-0.3-0.1-0.6-0.4-0.9c-0.3-0.2-0.6-0.4-0.9-0.4
	c-0.4,0-0.7,0.1-0.9,0.4c-0.3,0.2-0.4,0.5-0.4,0.9c0,0.3,0.1,0.6,0.4,0.9C-469.7-249.3-469.3-249.2-469-249.2z"/>
<path class="st6" d="M-468.6-248.5c0.4,0,0.7-0.1,0.9-0.4c0.3-0.2,0.4-0.5,0.4-0.9c0-0.3-0.1-0.6-0.4-0.9c-0.3-0.2-0.6-0.4-0.9-0.4
	c-0.4,0-0.7,0.1-0.9,0.4c-0.3,0.2-0.4,0.5-0.4,0.9c0,0.3,0.1,0.6,0.4,0.9C-469.3-248.6-469-248.5-468.6-248.5z"/>
<rect x="-479.8" y="-434.1" class="st7" width="219" height="193.8"/>
<path class="st6" d="M-468.5-250.2c0.4,0,0.7-0.1,0.9-0.4c0.3-0.2,0.4-0.5,0.4-0.9c0-0.3-0.1-0.6-0.4-0.9c-0.3-0.2-0.6-0.4-0.9-0.4
	c-0.4,0-0.7,0.1-0.9,0.4c-0.3,0.2-0.4,0.5-0.4,0.9c0,0.3,0.1,0.6,0.4,0.9C-469.2-250.4-468.9-250.2-468.5-250.2z"/>
<text transform="matrix(0.9338 0 0 1 -253.9458 -352.3902)" class="st11" style="font-size:9.5494px;">Borough</text>
<text transform="matrix(0.9338 0 0 1 -240.1821 -339.9488)" class="st13 st14" style="font-size:8.7537px;">Brooklyn</text>
<text transform="matrix(0.9338 0 0 1 -240.6562 -325.4683)" class="st13 st14" style="font-size:8.7537px;">Manhattan</text>
<text transform="matrix(1 0 0 1 -659.9487 -439.2877)" class="st11" style="font-size:10.0989px;">Fire Department</text>
<text transform="matrix(1 0 0 1 -397.0488 -439.2877)" class="st11" style="font-size:10.0989px;">Police Department</text>
<text transform="matrix(-2.101199e-03 -1 1 -2.101199e-03 -724.7198 -307.4131)" class="st11" style="font-size:7.8979px;">Regular hours</text>
<rect x="-720.2" y="-392.6" class="st0" width="13.1" height="7.3"/>
<text transform="matrix(1 0 0 1 -720.1953 -387.4488)" class="st11" style="font-size:7.1799px;">600</text>
<rect x="-720.3" y="-345.9" class="st0" width="13.1" height="7.3"/>
<text transform="matrix(1 0 0 1 -720.2686 -340.7339)" class="st11" style="font-size:7.1799px;">400</text>
<rect x="-719.6" y="-297.8" class="st0" width="13.1" height="7.3"/>
<text transform="matrix(1 0 0 1 -719.5503 -292.6285)" class="st11" style="font-size:7.1799px;">200</text>
<rect x="-721.9" y="-249.6" class="st0" width="13.1" height="7.3"/>
<text transform="matrix(1 0 0 1 -712.7637 -244.4312)" class="st11" style="font-size:7.1799px;">0</text>
<rect x="-707.9" y="-238.1" class="st0" width="13.1" height="7.3"/>
<text transform="matrix(1 0 0 1 -698.772 -232.9732)" class="st11" style="font-size:7.1799px;">0</text>
<rect x="-662.2" y="-238.1" class="st0" width="13.1" height="7.3"/>
<text transform="matrix(1 0 0 1 -661.0835 -232.9732)" class="st11" style="font-size:7.1799px;">500</text>
<rect x="-623" y="-238.1" class="st0" width="16.4" height="7.3"/>
<text transform="matrix(1 0 0 1 -622.9785 -232.9732)" class="st11" style="font-size:7.1799px;">1000</text>
<rect x="-580.9" y="-238" class="st0" width="16.4" height="7.3"/>
<text transform="matrix(1 0 0 1 -580.9136 -232.8179)" class="st11" style="font-size:7.1799px;">1500</text>
<rect x="-539.4" y="-238" class="st0" width="16.4" height="7.3"/>
<text transform="matrix(1 0 0 1 -539.4404 -232.8179)" class="st11" style="font-size:7.1799px;">2000</text>
<rect x="-500" y="-238" class="st0" width="16.4" height="7.3"/>
<text transform="matrix(1 0 0 1 -500.0371 -232.8619)" class="st11" style="font-size:7.1799px;">2500</text>
<rect x="-471.9" y="-238" class="st0" width="4.8" height="7.3"/>
<text transform="matrix(1 0 0 1 -471.8584 -232.8179)" class="st11" style="font-size:7.1799px;">0</text>
<rect x="-437.3" y="-238" class="st0" width="16.4" height="7.3"/>
<text transform="matrix(1 0 0 1 -435.1338 -232.8619)" class="st11" style="font-size:7.1799px;">500</text>
<rect x="-395.6" y="-237.8" class="st0" width="16.4" height="7.3"/>
<text transform="matrix(1 0 0 1 -395.6142 -232.7085)" class="st11" style="font-size:7.1799px;">1000</text>
<rect x="-354" y="-238" class="st0" width="16.4" height="7.3"/>
<text transform="matrix(1 0 0 1 -354.0459 -232.9019)" class="st11" style="font-size:7.1799px;">1500</text>
<rect x="-312.5" y="-237.8" class="st0" width="16.4" height="7.3"/>
<text transform="matrix(1 0 0 1 -312.5249 -232.7085)" class="st11" style="font-size:7.1799px;">2000</text>
<rect x="-269.1" y="-238" class="st0" width="16.4" height="7.3"/>
<text transform="matrix(1 0 0 1 -269.0737 -232.9019)" class="st11" style="font-size:7.1799px;">2500</text>
<text transform="matrix(1 2.675975e-03 -2.675975e-03 1 -509.7358 -218.9794)" class="st11" style="font-size:7.8979px;">Overtime hours</text>
<rect x="55.6" y="86.4" class="st0" width="310.5" height="270"/>
<rect x="55.6" y="86.4" class="st0" width="310.5" height="270"/>
<rect x="55.6" y="86.4" class="st0" width="310.5" height="270"/>
<rect x="55.6" y="86.4" class="st0" width="310.5" height="270"/>
<path class="st1" d="M58.1,359.6"/>
<rect x="55.6" y="86.4" class="st0" width="310.5" height="270"/>
<rect x="55.6" y="86.4" class="st0" width="310.5" height="270"/>
<path class="st2" d="M59.1,356.4v-270"/>
<path class="st1" d="M44,366.4"/>
<rect x="55.6" y="86.4" class="st0" width="310.5" height="270"/>
<rect x="55.6" y="86.4" class="st0" width="310.5" height="270"/>
<rect x="55.6" y="86.4" class="st0" width="310.5" height="270"/>
<rect x="55.6" y="86.4" class="st0" width="310.5" height="270"/>
<rect x="55.6" y="86.4" class="st0" width="310.5" height="270"/>
<rect x="55.6" y="86.4" class="st0" width="310.5" height="270"/>
<path class="st1" d="M58.6,346"/>
<rect x="55.6" y="86.4" class="st0" width="310.5" height="270"/>
<path class="st1" d="M58.6,279.9"/>
<rect x="55.6" y="86.4" class="st0" width="310.5" height="270"/>
<path class="st1" d="M58.6,213.8"/>
<rect x="55.6" y="86.4" class="st0" width="310.5" height="270"/>
<path class="st1" d="M58.6,147.8"/>
<rect x="55.6" y="86.4" class="st0" width="310.5" height="270"/>
<rect x="55.6" y="86.4" class="st0" width="310.5" height="270"/>
<path id="DejaVuSans-20_00000118365187678042445210000017371389631600666273_" d="M29.3,247.1"/>
<path id="DejaVuSans-20_00000064346377356809694950000008564410979633784203_" d="M29.3,213.5"/>
<polyline class="st0" points="366.6,231 366.6,214.4 383.2,214.4 383.2,231 "/>
<path class="st3" d="M366.6,231h16.6v-16.6h-16.6V231z"/>
<polyline class="st0" points="366.6,231 366.6,214.4 383.2,214.4 383.2,231 "/>
<path class="st4" d="M374.9,222.7"/>
<polyline class="st0" points="366.6,231 366.6,214.4 383.2,214.4 383.2,231 "/>
<path id="m7e3595c533_00000018945223569338436490000015801211951070260927_" class="st5" d="M374.9,224.6c0.5,0,1-0.2,1.3-0.5
	s0.5-0.8,0.5-1.3s-0.2-1-0.5-1.3s-0.8-0.5-1.3-0.5s-1,0.2-1.3,0.5s-0.5,0.8-0.5,1.3s0.2,1,0.5,1.3S374.4,224.6,374.9,224.6z"/>
<rect x="54.8" y="86.4" class="st0" width="310.5" height="270"/>
<path class="st7" d="M71,356.4v-270"/>
<path class="st8" d="M71,356.4"/>
<rect x="54.8" y="86.4" class="st0" width="310.5" height="270"/>
<path class="st7" d="M128.8,356.4v-270"/>
<path class="st8" d="M128.8,356.4"/>
<rect x="54.8" y="86.4" class="st0" width="310.5" height="270"/>
<path class="st7" d="M186.6,356.4v-270"/>
<path class="st8" d="M186.6,356.4"/>
<rect x="54.8" y="86.4" class="st0" width="310.5" height="270"/>
<path class="st7" d="M244.3,356.4v-270"/>
<path class="st8" d="M244.3,356.4"/>
<rect x="54.8" y="86.4" class="st0" width="310.5" height="270"/>
<path class="st7" d="M302.1,356.4v-270"/>
<path class="st8" d="M302.1,356.4"/>
<rect x="54.8" y="86.4" class="st0" width="310.5" height="270"/>
<path class="st8" d="M359.9,356.4"/>
<rect x="54.8" y="86.4" class="st0" width="310.5" height="270"/>
<path class="st9" d="M99.9,356.4v-270"/>
<rect x="54.8" y="86.4" class="st0" width="310.5" height="270"/>
<path class="st9" d="M157.7,356.4v-270"/>
<rect x="54.8" y="86.4" class="st0" width="310.5" height="270"/>
<path class="st9" d="M215.4,356.4v-270"/>
<rect x="54.8" y="86.4" class="st0" width="310.5" height="270"/>
<path class="st9" d="M273.2,356.4v-270"/>
<rect x="54.8" y="86.4" class="st0" width="310.5" height="270"/>
<path class="st9" d="M331,356.4v-270"/>
<rect x="54.8" y="86.4" class="st0" width="310.5" height="270"/>
<path class="st7" d="M57.8,346H359"/>
<rect x="54.8" y="86.4" class="st0" width="310.5" height="270"/>
<path class="st7" d="M57.8,279.9H359"/>
<rect x="54.8" y="86.4" class="st0" width="310.5" height="270"/>
<path class="st7" d="M57.8,213.8H359"/>
<rect x="54.8" y="86.4" class="st0" width="310.5" height="270"/>
<path class="st7" d="M57.8,147.8H359"/>
<rect x="54.8" y="86.4" class="st0" width="310.5" height="270"/>
<path class="st7" d="M57.8,313H359"/>
<rect x="54.8" y="86.4" class="st0" width="310.5" height="270"/>
<path class="st7" d="M57.8,246.9H359"/>
<rect x="54.8" y="86.4" class="st0" width="310.5" height="270"/>
<path class="st7" d="M57.8,180.8H359"/>
<rect x="54.8" y="86.4" class="st0" width="310.5" height="270"/>
<path class="st7" d="M57.8,114.7H359"/>
<rect x="54.8" y="86.4" class="st0" width="310.5" height="270"/>
<path class="st5" d="M169.8,132.5c0.5,0,1-0.2,1.3-0.5c0.4-0.3,0.5-0.8,0.5-1.2c0-0.5-0.2-0.9-0.5-1.2c-0.4-0.3-0.8-0.5-1.3-0.5
	s-1,0.2-1.3,0.5c-0.4,0.3-0.5,0.8-0.5,1.2c0,0.5,0.2,0.9,0.5,1.2C168.8,132.3,169.3,132.5,169.8,132.5z"/>
<rect x="54.8" y="86.4" class="st0" width="310.5" height="270"/>
<path class="st5" d="M160.3,100.4c0.5,0,1-0.2,1.3-0.5c0.4-0.3,0.5-0.8,0.5-1.2c0-0.5-0.2-0.9-0.5-1.2c-0.4-0.3-0.8-0.5-1.3-0.5
	s-1,0.2-1.3,0.5c-0.4,0.3-0.5,0.8-0.5,1.2c0,0.5,0.2,0.9,0.5,1.2C159.3,100.2,159.8,100.4,160.3,100.4z"/>
<rect x="54.8" y="86.4" class="st0" width="310.5" height="270"/>
<path class="st5" d="M137.5,177.8c0.5,0,1-0.2,1.3-0.5c0.4-0.3,0.5-0.8,0.5-1.2s-0.2-0.9-0.5-1.2c-0.4-0.3-0.8-0.5-1.3-0.5
	s-1,0.2-1.3,0.5c-0.4,0.3-0.5,0.8-0.5,1.2s0.2,0.9,0.5,1.2C136.5,177.6,137,177.8,137.5,177.8z"/>
<rect x="54.8" y="86.4" class="st0" width="310.5" height="270"/>
<path class="st5" d="M119.3,262.8c0.5,0,1-0.2,1.3-0.5c0.4-0.3,0.5-0.8,0.5-1.2s-0.2-0.9-0.5-1.2c-0.4-0.3-0.8-0.5-1.3-0.5
	s-1,0.2-1.3,0.5c-0.4,0.3-0.5,0.8-0.5,1.2s0.2,0.9,0.5,1.2C118.3,262.6,118.8,262.8,119.3,262.8z"/>
<rect x="54.8" y="86.4" class="st0" width="310.5" height="270"/>
<path class="st5" d="M110.1,255.2c0.5,0,1-0.2,1.3-0.5c0.4-0.3,0.5-0.8,0.5-1.2s-0.2-0.9-0.5-1.2c-0.4-0.3-0.8-0.5-1.3-0.5
	s-1,0.2-1.3,0.5c-0.4,0.3-0.5,0.8-0.5,1.2s0.2,0.9,0.5,1.2C109.1,255,109.6,255.2,110.1,255.2z"/>
<rect x="54.8" y="86.4" class="st0" width="310.5" height="270"/>
<path class="st5" d="M129.4,221.2c0.5,0,1-0.2,1.3-0.5c0.4-0.3,0.5-0.8,0.5-1.2c0-0.5-0.2-0.9-0.5-1.2c-0.4-0.3-0.8-0.5-1.3-0.5
	s-1,0.2-1.3,0.5c-0.4,0.3-0.5,0.8-0.5,1.2c0,0.5,0.2,0.9,0.5,1.2C128.5,221,129,221.2,129.4,221.2z"/>
<rect x="54.8" y="86.4" class="st0" width="310.5" height="270"/>
<path class="st5" d="M126.1,192.9c0.5,0,1-0.2,1.3-0.5c0.4-0.3,0.5-0.8,0.5-1.2s-0.2-0.9-0.5-1.2c-0.4-0.3-0.8-0.5-1.3-0.5
	s-1,0.2-1.3,0.5c-0.4,0.3-0.5,0.8-0.5,1.2s0.2,0.9,0.5,1.2C125.1,192.7,125.6,192.9,126.1,192.9z"/>
<rect x="54.8" y="86.4" class="st0" width="310.5" height="270"/>
<path class="st5" d="M112.7,236.3c0.5,0,1-0.2,1.3-0.5c0.4-0.3,0.5-0.8,0.5-1.2s-0.2-0.9-0.5-1.2c-0.4-0.3-0.8-0.5-1.3-0.5
	s-1,0.2-1.3,0.5c-0.4,0.3-0.5,0.8-0.5,1.2s0.2,0.9,0.5,1.2C111.8,236.2,112.2,236.3,112.7,236.3z"/>
<rect x="54.8" y="86.4" class="st0" width="310.5" height="270"/>
<path class="st5" d="M82.4,336.4c0.5,0,1-0.2,1.3-0.5c0.4-0.3,0.5-0.8,0.5-1.2c0-0.5-0.2-0.9-0.5-1.2c-0.4-0.3-0.8-0.5-1.3-0.5
	s-1,0.2-1.3,0.5c-0.4,0.3-0.5,0.8-0.5,1.2c0,0.5,0.2,0.9,0.5,1.2C81.4,336.2,81.9,336.4,82.4,336.4z"/>
<rect x="54.8" y="86.4" class="st0" width="310.5" height="270"/>
<path class="st5" d="M112,274.1c0.5,0,1-0.2,1.3-0.5c0.4-0.3,0.5-0.8,0.5-1.2s-0.2-0.9-0.5-1.2c-0.4-0.3-0.8-0.5-1.3-0.5
	s-1,0.2-1.3,0.5c-0.4,0.3-0.5,0.8-0.5,1.2s0.2,0.9,0.5,1.2C111.1,273.9,111.6,274.1,112,274.1z"/>
<rect x="54.8" y="86.4" class="st0" width="310.5" height="270"/>
<path class="st5" d="M97.6,274.1c0.5,0,1-0.2,1.3-0.5c0.4-0.3,0.5-0.8,0.5-1.2s-0.2-0.9-0.5-1.2c-0.4-0.3-0.8-0.5-1.3-0.5
	s-1,0.2-1.3,0.5c-0.4,0.3-0.5,0.8-0.5,1.2s0.2,0.9,0.5,1.2C96.6,273.9,97.1,274.1,97.6,274.1z"/>
<rect x="54.8" y="86.4" class="st0" width="310.5" height="270"/>
<path class="st5" d="M104.4,262.8c0.5,0,1-0.2,1.3-0.5c0.4-0.3,0.5-0.8,0.5-1.2s-0.2-0.9-0.5-1.2c-0.4-0.3-0.8-0.5-1.3-0.5
	c-0.5,0-1,0.2-1.3,0.5c-0.4,0.3-0.5,0.8-0.5,1.2s0.2,0.9,0.5,1.2C103.4,262.6,103.9,262.8,104.4,262.8z"/>
<rect x="54.8" y="86.4" class="st0" width="310.5" height="270"/>
<path class="st5" d="M92.1,340.2c0.5,0,1-0.2,1.3-0.5c0.4-0.3,0.5-0.8,0.5-1.2s-0.2-0.9-0.5-1.2c-0.4-0.3-0.8-0.5-1.3-0.5
	s-1,0.2-1.3,0.5c-0.4,0.3-0.5,0.8-0.5,1.2s0.2,0.9,0.5,1.2C91.1,340,91.6,340.2,92.1,340.2z"/>
<rect x="54.8" y="86.4" class="st0" width="310.5" height="270"/>
<path class="st5" d="M83.5,328.8c0.5,0,1-0.2,1.3-0.5c0.4-0.3,0.5-0.8,0.5-1.2c0-0.5-0.2-0.9-0.5-1.2c-0.4-0.3-0.8-0.5-1.3-0.5
	s-1,0.2-1.3,0.5c-0.4,0.3-0.5,0.8-0.5,1.2c0,0.5,0.2,0.9,0.5,1.2C82.5,328.7,83,328.8,83.5,328.8z"/>
<rect x="54.8" y="86.4" class="st0" width="310.5" height="270"/>
<path class="st5" d="M95.2,340.2c0.5,0,1-0.2,1.3-0.5c0.4-0.3,0.5-0.8,0.5-1.2s-0.2-0.9-0.5-1.2c-0.4-0.3-0.8-0.5-1.3-0.5
	s-1,0.2-1.3,0.5c-0.4,0.3-0.5,0.8-0.5,1.2s0.2,0.9,0.5,1.2C94.2,340,94.7,340.2,95.2,340.2z"/>
<rect x="54.8" y="86.4" class="st0" width="310.5" height="270"/>
<path class="st5" d="M75.5,340.2c0.5,0,1-0.2,1.3-0.5c0.4-0.3,0.5-0.8,0.5-1.2s-0.2-0.9-0.5-1.2c-0.4-0.3-0.8-0.5-1.3-0.5
	c-0.5,0-1,0.2-1.3,0.5c-0.4,0.3-0.5,0.8-0.5,1.2s0.2,0.9,0.5,1.2C74.6,340,75,340.2,75.5,340.2z"/>
<rect x="54.8" y="86.4" class="st0" width="310.5" height="270"/>
<path class="st5" d="M80.9,340.2c0.5,0,1-0.2,1.3-0.5c0.4-0.3,0.5-0.8,0.5-1.2s-0.2-0.9-0.5-1.2c-0.4-0.3-0.8-0.5-1.3-0.5
	c-0.5,0-1,0.2-1.3,0.5c-0.4,0.3-0.5,0.8-0.5,1.2s0.2,0.9,0.5,1.2C79.9,340,80.4,340.2,80.9,340.2z"/>
<rect x="54.8" y="86.4" class="st0" width="310.5" height="270"/>
<path class="st5" d="M75.5,340.2c0.5,0,1-0.2,1.3-0.5c0.4-0.3,0.5-0.8,0.5-1.2s-0.2-0.9-0.5-1.2c-0.4-0.3-0.8-0.5-1.3-0.5
	c-0.5,0-1,0.2-1.3,0.5c-0.4,0.3-0.5,0.8-0.5,1.2s0.2,0.9,0.5,1.2C74.6,340,75,340.2,75.5,340.2z"/>
<rect x="54.8" y="86.4" class="st0" width="310.5" height="270"/>
<path class="st5" d="M87.7,340.2c0.5,0,1-0.2,1.3-0.5c0.4-0.3,0.5-0.8,0.5-1.2s-0.2-0.9-0.5-1.2c-0.4-0.3-0.8-0.5-1.3-0.5
	s-1,0.2-1.3,0.5c-0.4,0.3-0.5,0.8-0.5,1.2s0.2,0.9,0.5,1.2C86.7,340,87.2,340.2,87.7,340.2z"/>
<path class="st5" d="M73.8,340.2c0.5,0,1-0.2,1.3-0.5c0.4-0.3,0.5-0.8,0.5-1.2s-0.2-0.9-0.5-1.2c-0.4-0.3-0.8-0.5-1.3-0.5
	s-1,0.2-1.3,0.5c-0.4,0.3-0.5,0.8-0.5,1.2s0.2,0.9,0.5,1.2C72.8,340,73.3,340.2,73.8,340.2z"/>
<path class="st5" d="M77.5,340.2c0.5,0,1-0.2,1.3-0.5c0.4-0.3,0.5-0.8,0.5-1.2s-0.2-0.9-0.5-1.2c-0.4-0.3-0.8-0.5-1.3-0.5
	c-0.5,0-1,0.2-1.3,0.5c-0.4,0.3-0.5,0.8-0.5,1.2s0.2,0.9,0.5,1.2C76.5,340,77,340.2,77.5,340.2z"/>
<path class="st5" d="M75.7,340.2c0.5,0,1-0.2,1.3-0.5c0.4-0.3,0.5-0.8,0.5-1.2s-0.2-0.9-0.5-1.2c-0.4-0.3-0.8-0.5-1.3-0.5
	c-0.5,0-1,0.2-1.3,0.5c-0.4,0.3-0.5,0.8-0.5,1.2s0.2,0.9,0.5,1.2C74.7,340,75.2,340.2,75.7,340.2z"/>
<rect x="57.8" y="86.4" class="st7" width="301.2" height="270"/>
<path class="st5" d="M78.1,340.2c0.5,0,1-0.2,1.3-0.5c0.4-0.3,0.5-0.8,0.5-1.2s-0.2-0.9-0.5-1.2c-0.4-0.3-0.8-0.5-1.3-0.5
	s-1,0.2-1.3,0.5c-0.4,0.3-0.5,0.8-0.5,1.2s0.2,0.9,0.5,1.2C77.1,340,77.6,340.2,78.1,340.2z"/>
<path class="st5" d="M83.7,329.2c0.5,0,1-0.2,1.3-0.5c0.4-0.3,0.5-0.8,0.5-1.2c0-0.5-0.2-0.9-0.5-1.2c-0.4-0.3-0.8-0.5-1.3-0.5
	s-1,0.2-1.3,0.5c-0.4,0.3-0.5,0.8-0.5,1.2c0,0.5,0.2,0.9,0.5,1.2C82.8,329,83.2,329.2,83.7,329.2z"/>
<path class="st5" d="M72.5,345.8c0.5,0,1-0.2,1.3-0.5c0.4-0.3,0.5-0.8,0.5-1.2s-0.2-0.9-0.5-1.2c-0.4-0.3-0.8-0.5-1.3-0.5
	s-1,0.2-1.3,0.5c-0.4,0.3-0.5,0.8-0.5,1.2s0.2,0.9,0.5,1.2C71.5,345.7,72,345.8,72.5,345.8z"/>
<path class="st5" d="M84.2,321.3c0.5,0,1-0.2,1.3-0.5c0.4-0.3,0.5-0.8,0.5-1.2s-0.2-0.9-0.5-1.2c-0.4-0.3-0.8-0.5-1.3-0.5
	s-1,0.2-1.3,0.5c-0.4,0.3-0.5,0.8-0.5,1.2s0.2,0.9,0.5,1.2C83.2,321.1,83.7,321.3,84.2,321.3z"/>
<rect x="53.7" y="446.4" class="st0" width="310.5" height="270"/>
<path class="st7" d="M66.9,716.4v-270"/>
<path class="st8" d="M66.9,716.4"/>
<rect x="53.7" y="446.4" class="st0" width="310.5" height="270"/>
<path class="st7" d="M124.6,716.4v-270"/>
<path class="st8" d="M124.6,716.4"/>
<rect x="53.7" y="446.4" class="st0" width="310.5" height="270"/>
<path class="st7" d="M182.4,716.4v-270"/>
<path class="st8" d="M182.4,716.4"/>
<rect x="53.7" y="446.4" class="st0" width="310.5" height="270"/>
<path class="st7" d="M240.2,716.4v-270"/>
<path class="st8" d="M240.2,716.4"/>
<rect x="53.7" y="446.4" class="st0" width="310.5" height="270"/>
<path class="st7" d="M297.9,716.4v-270"/>
<path class="st8" d="M297.9,716.4"/>
<rect x="53.7" y="446.4" class="st0" width="310.5" height="270"/>
<path class="st10" d="M355.7,716.4v-270"/>
<path class="st8" d="M355.7,716.4"/>
<rect x="53.7" y="446.4" class="st0" width="310.5" height="270"/>
<path class="st9" d="M95.8,716.4v-270"/>
<rect x="53.7" y="446.4" class="st0" width="310.5" height="270"/>
<path class="st9" d="M153.5,716.4v-270"/>
<rect x="53.7" y="446.4" class="st0" width="310.5" height="270"/>
<path class="st9" d="M211.3,716.4v-270"/>
<rect x="53.7" y="446.4" class="st0" width="310.5" height="270"/>
<path class="st9" d="M269,716.4v-270"/>
<rect x="53.7" y="446.4" class="st0" width="310.5" height="270"/>
<path class="st9" d="M326.8,716.4v-270"/>
<rect x="53.7" y="446.4" class="st0" width="310.5" height="270"/>
<path class="st7" d="M53.7,706h305"/>
<rect x="53.7" y="446.4" class="st0" width="310.5" height="270"/>
<path class="st7" d="M53.7,639.9h305"/>
<rect x="53.7" y="446.4" class="st0" width="310.5" height="270"/>
<path class="st7" d="M53.7,573.8h305"/>
<rect x="53.7" y="446.4" class="st0" width="310.5" height="270"/>
<path class="st7" d="M53.7,507.8h305"/>
<rect x="53.7" y="446.4" class="st0" width="310.5" height="270"/>
<path class="st7" d="M53.7,673h305"/>
<rect x="53.7" y="446.4" class="st0" width="310.5" height="270"/>
<path class="st7" d="M53.7,606.9h305"/>
<rect x="53.7" y="446.4" class="st0" width="310.5" height="270"/>
<path class="st7" d="M53.7,540.8h305"/>
<rect x="53.7" y="446.4" class="st0" width="310.5" height="270"/>
<path class="st7" d="M53.7,474.7h305"/>
<rect x="53.7" y="446.4" class="st0" width="310.5" height="270"/>
<path class="st6" d="M350.1,488c0.5,0,1-0.2,1.3-0.5c0.4-0.3,0.5-0.8,0.5-1.2c0-0.5-0.2-0.9-0.5-1.2c-0.4-0.3-0.8-0.5-1.3-0.5
	c-0.5,0-1,0.2-1.3,0.5c-0.4,0.3-0.5,0.8-0.5,1.2c0,0.5,0.2,0.9,0.5,1.2C349.1,487.8,349.6,488,350.1,488z"/>
<rect x="53.7" y="446.4" class="st0" width="310.5" height="270"/>
<path class="st6" d="M94.6,632.2c0.5,0,1-0.2,1.3-0.5s0.5-0.8,0.5-1.2s-0.2-0.9-0.5-1.2s-0.8-0.5-1.3-0.5c-0.5,0-1,0.2-1.3,0.5
	c-0.4,0.3-0.5,0.8-0.5,1.2s0.2,0.9,0.5,1.2C93.6,632,94.1,632.2,94.6,632.2z"/>
<rect x="53.7" y="446.4" class="st0" width="310.5" height="270"/>
<path class="st6" d="M99.4,634.1c0.5,0,1-0.2,1.3-0.5c0.4-0.3,0.5-0.8,0.5-1.2s-0.2-0.9-0.5-1.2c-0.4-0.3-0.8-0.5-1.3-0.5
	c-0.5,0-1,0.2-1.3,0.5c-0.4,0.3-0.5,0.8-0.5,1.2s0.2,0.9,0.5,1.2C98.4,633.9,98.9,634.1,99.4,634.1z"/>
<rect x="53.7" y="446.4" class="st0" width="310.5" height="270"/>
<path class="st6" d="M83.4,662.4c0.5,0,1-0.2,1.3-0.5c0.4-0.3,0.5-0.8,0.5-1.2s-0.2-0.9-0.5-1.2c-0.4-0.3-0.8-0.5-1.3-0.5
	c-0.5,0-1,0.2-1.3,0.5c-0.4,0.3-0.5,0.8-0.5,1.2s0.2,0.9,0.5,1.2C82.4,662.2,82.9,662.4,83.4,662.4z"/>
<rect x="53.7" y="446.4" class="st0" width="310.5" height="270"/>
<path class="st6" d="M87.6,660.5c0.5,0,1-0.2,1.3-0.5c0.4-0.3,0.5-0.8,0.5-1.2s-0.2-0.9-0.5-1.2c-0.4-0.3-0.8-0.5-1.3-0.5
	c-0.5,0-1,0.2-1.3,0.5s-0.5,0.8-0.5,1.2s0.2,0.9,0.5,1.2S87.1,660.5,87.6,660.5z"/>
<rect x="53.7" y="446.4" class="st0" width="310.5" height="270"/>
<path class="st6" d="M93.2,634.1c0.5,0,1-0.2,1.3-0.5s0.5-0.8,0.5-1.2s-0.2-0.9-0.5-1.2c-0.4-0.3-0.8-0.5-1.3-0.5
	c-0.5,0-1,0.2-1.3,0.5c-0.4,0.3-0.5,0.8-0.5,1.2s0.2,0.9,0.5,1.2C92.2,633.9,92.7,634.1,93.2,634.1z"/>
<rect x="53.7" y="446.4" class="st0" width="310.5" height="270"/>
<path class="st6" d="M89.1,670c0.5,0,1-0.2,1.3-0.5s0.5-0.8,0.5-1.2s-0.2-0.9-0.5-1.2s-0.8-0.5-1.3-0.5c-0.5,0-1,0.2-1.3,0.5
	c-0.4,0.3-0.5,0.8-0.5,1.2s0.2,0.9,0.5,1.2C88.1,669.8,88.6,670,89.1,670z"/>
<rect x="53.7" y="446.4" class="st0" width="310.5" height="270"/>
<path class="st6" d="M93.7,634.1c0.5,0,1-0.2,1.3-0.5c0.4-0.3,0.5-0.8,0.5-1.2s-0.2-0.9-0.5-1.2c-0.4-0.3-0.8-0.5-1.3-0.5
	c-0.5,0-1,0.2-1.3,0.5c-0.4,0.3-0.5,0.8-0.5,1.2s0.2,0.9,0.5,1.2C92.8,633.9,93.3,634.1,93.7,634.1z"/>
<rect x="53.7" y="446.4" class="st0" width="310.5" height="270"/>
<path class="st6" d="M73.4,692.6c0.5,0,1-0.2,1.3-0.5c0.4-0.3,0.5-0.8,0.5-1.2s-0.2-0.9-0.5-1.2c-0.4-0.3-0.8-0.5-1.3-0.5
	c-0.5,0-1,0.2-1.3,0.5c-0.4,0.3-0.5,0.8-0.5,1.2s0.2,0.9,0.5,1.2C72.4,692.4,72.9,692.6,73.4,692.6z"/>
<path class="st6" d="M85,670c0.5,0,1-0.2,1.3-0.5c0.4-0.3,0.5-0.8,0.5-1.2s-0.2-0.9-0.5-1.2c-0.4-0.3-0.8-0.5-1.3-0.5
	c-0.5,0-1,0.2-1.3,0.5c-0.4,0.3-0.5,0.8-0.5,1.2s0.2,0.9,0.5,1.2C84,669.8,84.5,670,85,670z"/>
<path class="st6" d="M77.5,681.3c0.5,0,1-0.2,1.3-0.5c0.4-0.3,0.5-0.8,0.5-1.2s-0.2-0.9-0.5-1.2c-0.4-0.3-0.8-0.5-1.3-0.5
	c-0.5,0-1,0.2-1.3,0.5c-0.4,0.3-0.5,0.8-0.5,1.2s0.2,0.9,0.5,1.2C76.5,681.1,77,681.3,77.5,681.3z"/>
<path class="st6" d="M68.8,704c0.5,0,1-0.2,1.3-0.5c0.4-0.3,0.5-0.8,0.5-1.2s-0.2-0.9-0.5-1.2c-0.4-0.3-0.8-0.5-1.3-0.5
	c-0.5,0-1,0.2-1.3,0.5c-0.4,0.3-0.5,0.8-0.5,1.2s0.2,0.9,0.5,1.2C67.8,703.8,68.3,704,68.8,704z"/>
<path class="st6" d="M69.3,704.9c0.5,0,1-0.2,1.3-0.5c0.4-0.3,0.5-0.8,0.5-1.2s-0.2-0.9-0.5-1.2c-0.4-0.3-0.8-0.5-1.3-0.5
	c-0.5,0-1,0.2-1.3,0.5s-0.5,0.8-0.5,1.2s0.2,0.9,0.5,1.2S68.8,704.9,69.3,704.9z"/>
<rect x="53.7" y="446.4" class="st7" width="305" height="270"/>
<path class="st6" d="M69.4,702.4c0.5,0,1-0.2,1.3-0.5c0.4-0.3,0.5-0.8,0.5-1.2s-0.2-0.9-0.5-1.2c-0.4-0.3-0.8-0.5-1.3-0.5
	c-0.5,0-1,0.2-1.3,0.5c-0.4,0.3-0.5,0.8-0.5,1.2s0.2,0.9,0.5,1.2C68.4,702.3,68.9,702.4,69.4,702.4z"/>
<text transform="matrix(0.9338 0 0 1 365.7652 209.2255)" class="st11 st12">Borough</text>
<text transform="matrix(0.9338 0 0 1 384.9351 226.5532)" class="st13 st14 st15">Brooklyn</text>
<text transform="matrix(1 0 0 1 122.8428 79.1508)" class="st11 st16">Fire Department</text>
<text transform="matrix(1 0 0 1 169.0049 439.1508)" class="st11 st16">Police Department</text>
<text transform="matrix(-2.101200e-03 -1 1 -2.101200e-03 32.6322 262.8246)" class="st11 st17">Regular hours</text>
<text transform="matrix(1 -2.100237e-03 2.100237e-03 1 18.3036 29.1607)"><tspan x="0" y="0" class="st11 st18">Police and Fire department employees who worked</tspan><tspan x="0" y="16.8" class="st11 st18">more</tspan><tspan x="31.9" y="16.8" class="st11 st18"> </tspan><tspan x="36.1" y="16.8" class="st11 st18">overtim</tspan><tspan x="82" y="16.8" class="st11 st18">e</tspan><tspan x="88.9" y="16.8" class="st11 st18"> hours than regular hours in a year</tspan><tspan x="302.9" y="16.8" class="st11 st18"> </tspan></text>
<rect x="38.9" y="144.2" class="st0" width="18.3" height="10.2"/>
<text transform="matrix(1 0 0 1 38.9336 151.352)" class="st11 st19">600</text>
<rect x="38.8" y="209.3" class="st0" width="18.3" height="10.2"/>
<text transform="matrix(1 0 0 1 38.8318 216.4155)" class="st11 st19">400</text>
<rect x="39.8" y="276.3" class="st0" width="18.3" height="10.2"/>
<text transform="matrix(1 0 0 1 39.8318 283.4155)" class="st11 st19">200</text>
<rect x="36.5" y="343.4" class="st0" width="18.3" height="10.2"/>
<text transform="matrix(1 0 0 1 49.2838 350.5445)" class="st11 st19">0</text>
<rect x="56" y="359.3" class="st0" width="18.3" height="10.2"/>
<text transform="matrix(1 0 0 1 68.7713 366.5025)" class="st11 st19">0</text>
<rect x="119.6" y="359.3" class="st0" width="18.3" height="10.2"/>
<text transform="matrix(1 0 0 1 121.2632 366.5025)" class="st11 st19">500</text>
<rect x="174.3" y="359.3" class="st0" width="22.8" height="10.2"/>
<text transform="matrix(1 0 0 1 174.3348 366.502)" class="st11 st19">1000</text>
<rect x="232.9" y="359.6" class="st0" width="22.8" height="10.2"/>
<text transform="matrix(1 0 0 1 232.9221 366.7182)" class="st11 st19">1500</text>
<rect x="290.7" y="359.6" class="st0" width="22.8" height="10.2"/>
<text transform="matrix(1 0 0 1 290.6849 366.7182)" class="st11 st19">2000</text>
<rect x="345.6" y="359.5" class="st0" width="22.8" height="10.2"/>
<text transform="matrix(1 0 0 1 345.5652 366.6573)" class="st11 st19">2500</text>
<rect x="64.8" y="719.6" class="st0" width="6.7" height="10.2"/>
<text transform="matrix(1 0 0 1 64.8115 726.7182)" class="st11 st19">0</text>
<rect x="112.9" y="719.5" class="st0" width="22.8" height="10.2"/>
<text transform="matrix(1 0 0 1 115.961 726.6573)" class="st11 st19">500</text>
<rect x="171" y="719.7" class="st0" width="22.8" height="10.2"/>
<text transform="matrix(1 0 0 1 171.003 726.8707)" class="st11 st19">1000</text>
<rect x="228.9" y="719.4" class="st0" width="22.8" height="10.2"/>
<text transform="matrix(1 0 0 1 228.8985 726.601)" class="st11 st19">1500</text>
<rect x="286.7" y="719.7" class="st0" width="22.8" height="10.2"/>
<text transform="matrix(1 0 0 1 286.7277 726.8707)" class="st11 st19">2000</text>
<rect x="347.2" y="719.4" class="st0" width="22.8" height="10.2"/>
<text transform="matrix(1 0 0 1 347.2456 726.601)" class="st11 st19">2500</text>
<text transform="matrix(1 2.675994e-03 -2.675994e-03 1 171.4431 385.9059)" class="st11 st17">Overtime hours</text>
<text transform="matrix(1 2.675994e-03 -2.675994e-03 1 172.5232 754.2964)" class="st11 st17">Overtime hours</text>
<path id="DejaVuSans-20_00000057828617109599857630000005926412150027596677_" d="M418,492.9"/>
<path id="DejaVuSans-20_00000062879960400806731310000007534532746045234821_" d="M418,459.4"/>
<text transform="matrix(-2.101200e-03 -1 1 -2.101200e-03 29.2978 630.4733)" class="st11 st17">Regular hours</text>
<polyline class="st0" points="365.2,586.6 365.2,570 381.8,570 381.8,586.6 "/>
<path class="st3" d="M365.2,586.6h16.6V570h-16.6V586.6z"/>
<polyline class="st0" points="365.2,586.6 365.2,570 381.8,570 381.8,586.6 "/>
<path class="st4" d="M373.5,578.3"/>
<polyline class="st0" points="365.2,586.6 365.2,570 381.8,570 381.8,586.6 "/>
<path id="mffdbdef117_00000030465670001149065150000018076715919956299660_" class="st6" d="M373.5,580.1c0.5,0,1-0.2,1.3-0.5
	c0.3-0.3,0.5-0.8,0.5-1.3s-0.2-1-0.5-1.3c-0.3-0.3-0.8-0.5-1.3-0.5s-1,0.2-1.3,0.5c-0.3,0.3-0.5,0.8-0.5,1.3s0.2,1,0.5,1.3
	C372.5,579.9,373,580.1,373.5,580.1z"/>
<text transform="matrix(0.9338 0 0 1 382.8577 583.5549)" class="st13 st14 st15">Manhattan</text>
<text transform="matrix(0.9338 0 0 1 364.2143 561.5855)" class="st11 st12">Borough</text>
<rect x="35.4" y="502.3" class="st0" width="18.3" height="10.2"/>
<text transform="matrix(1 0 0 1 35.4097 509.4722)" class="st11 st19">600</text>
<rect x="35.3" y="567.4" class="st0" width="18.3" height="10.2"/>
<text transform="matrix(1 0 0 1 35.3078 574.5357)" class="st11 st19">400</text>
<rect x="36.3" y="634.4" class="st0" width="18.3" height="10.2"/>
<text transform="matrix(1 0 0 1 36.3078 641.5357)" class="st11 st19">200</text>
<rect x="33" y="701.5" class="st0" width="18.3" height="10.2"/>
<text transform="matrix(1 0 0 1 45.7599 708.6647)" class="st11 st19">0</text>
<text transform="matrix(1 -2.100237e-03 2.100237e-03 1 -707.1302 -473.0284)"><tspan x="0" y="0" class="st11" style="font-size:12.5px;">Police and Fire department employees who worked more</tspan><tspan x="316.1" y="0" class="st11" style="font-size:12.5px;"> </tspan><tspan x="319.8" y="0" class="st11" style="font-size:12.5px;">o</tspan><tspan x="326.8" y="0" class="st11" style="font-size:12.5px;">v</tspan><tspan x="333.3" y="0" class="st11" style="font-size:12.5px;">ertim</tspan><tspan x="361.1" y="0" class="st11" style="font-size:12.5px;">e</tspan><tspan x="367.3" y="0" class="st11" style="font-size:12.5px;"> than </tspan><tspan x="0" y="15" class="st11" style="font-size:12.5px;">regular hours in a</tspan><tspan x="97.3" y="15" class="st11" style="font-size:12.5px;"> </tspan><tspan x="100" y="15" class="st11" style="font-size:12.5px;">year</tspan><tspan x="124.3" y="15" class="st11" style="font-size:12.5px;"> </tspan></text>
</svg>
